# Blender 5.2.0 LTS
# www.blender.org
o crest_rising_sun
v 0.000000 0.550000 -0.060000
v 0.000000 0.550000 0.060000
v 0.210476 0.508134 -0.060000
v 0.210476 0.508134 0.060000
v 0.388909 0.388909 -0.060000
v 0.388909 0.388909 0.060000
v 0.508134 0.210476 -0.060000
v 0.508134 0.210476 0.060000
v 0.550000 0.000000 -0.060000
v 0.550000 -0.000000 0.060000
v 0.508134 -0.210476 -0.060000
v 0.508134 -0.210476 0.060000
v 0.388909 -0.388909 -0.060000
v 0.388909 -0.388909 0.060000
v 0.210476 -0.508134 -0.060000
v 0.210476 -0.508134 0.060000
v 0.000000 -0.550000 -0.060000
v 0.000000 -0.550000 0.060000
v -0.210476 -0.508134 -0.060000
v -0.210476 -0.508134 0.060000
v -0.388909 -0.388909 -0.060000
v -0.388909 -0.388909 0.060000
v -0.508134 -0.210476 -0.060000
v -0.508134 -0.210476 0.060000
v -0.550000 0.000000 -0.060000
v -0.550000 -0.000000 0.060000
v -0.508134 0.210476 -0.060000
v -0.508134 0.210476 0.060000
v -0.388909 0.388909 -0.060000
v -0.388909 0.388909 0.060000
v -0.210476 0.508134 -0.060000
v -0.210476 0.508134 0.060000
v 0.000000 0.580000 -0.030000
v 0.000000 0.580000 0.030000
v 0.221956 0.535850 -0.030000
v 0.221956 0.535850 0.030000
v 0.410122 0.410122 -0.030000
v 0.410122 0.410122 0.030000
v 0.535850 0.221956 -0.030000
v 0.535850 0.221956 0.030000
v 0.580000 0.000000 -0.030000
v 0.580000 -0.000000 0.030000
v 0.535850 -0.221956 -0.030000
v 0.535850 -0.221956 0.030000
v 0.410122 -0.410122 -0.030000
v 0.410122 -0.410122 0.030000
v 0.221956 -0.535850 -0.030000
v 0.221956 -0.535850 0.030000
v 0.000000 -0.580000 -0.030000
v 0.000000 -0.580000 0.030000
v -0.221956 -0.535850 -0.030000
v -0.221956 -0.535850 0.030000
v -0.410122 -0.410122 -0.030000
v -0.410122 -0.410122 0.030000
v -0.535850 -0.221956 -0.030000
v -0.535850 -0.221956 0.030000
v -0.580000 0.000000 -0.030000
v -0.580000 -0.000000 0.030000
v -0.535850 0.221956 -0.030000
v -0.535850 0.221956 0.030000
v -0.410122 0.410122 -0.030000
v -0.410122 0.410122 0.030000
v -0.221956 0.535850 -0.030000
v -0.221956 0.535850 0.030000
v 0.000000 0.420000 0.050000
v 0.000000 0.403254 -0.034190
v 0.000000 0.284190 -0.153253
v 0.000000 0.200000 -0.170000
v 0.000000 0.115810 -0.153253
v 0.000000 -0.003253 -0.034190
v 0.000000 -0.020000 0.050000
v 0.042095 0.403254 -0.022911
v 0.077782 0.355564 -0.084722
v 0.101627 0.284190 -0.126023
v 0.110000 0.200000 -0.140526
v 0.101627 0.115810 -0.126023
v 0.077782 0.044437 -0.084722
v 0.042095 -0.003253 -0.022911
v 0.072911 0.403254 0.007905
v 0.134722 0.355564 -0.027782
v 0.176023 0.284190 -0.051627
v 0.190526 0.200000 -0.060000
v 0.176023 0.115810 -0.051627
v 0.134722 0.044437 -0.027782
v 0.072911 -0.003253 0.007905
v 0.084190 0.403254 0.050000
v 0.155563 0.355564 0.050000
v 0.203253 0.284190 0.050000
v 0.220000 0.200000 0.050000
v 0.203253 0.115810 0.050000
v 0.155563 0.044437 0.050000
v 0.084190 -0.003253 0.050000
v 0.072911 0.403254 0.092095
v 0.134722 0.355564 0.127782
v 0.176023 0.284190 0.151627
v 0.190526 0.200000 0.160000
v 0.176023 0.115810 0.151627
v 0.134722 0.044437 0.127782
v 0.072911 -0.003253 0.092095
v 0.042095 0.403254 0.122911
v 0.077782 0.355564 0.184722
v 0.101627 0.284190 0.226023
v 0.110000 0.200000 0.240526
v 0.101627 0.115810 0.226023
v 0.077782 0.044437 0.184722
v 0.042095 -0.003253 0.122911
v 0.000000 0.403254 0.134190
v -0.000000 0.355564 0.205563
v 0.000000 0.284190 0.253253
v 0.000000 0.200000 0.270000
v 0.000000 0.115810 0.253253
v -0.000000 0.044437 0.205563
v 0.000000 -0.003253 0.134190
v -0.042095 0.403254 0.122911
v -0.077782 0.355564 0.184722
v -0.101627 0.284190 0.226023
v -0.110000 0.200000 0.240526
v -0.101627 0.115810 0.226023
v -0.077782 0.044437 0.184722
v -0.042095 -0.003253 0.122911
v -0.072911 0.403254 0.092095
v -0.134722 0.355564 0.127782
v -0.176023 0.284190 0.151627
v -0.190526 0.200000 0.160000
v -0.176023 0.115810 0.151627
v -0.134722 0.044437 0.127782
v -0.072911 -0.003253 0.092095
v -0.084190 0.403254 0.050000
v -0.155563 0.355564 0.050000
v -0.203253 0.284190 0.050000
v -0.220000 0.200000 0.050000
v -0.203253 0.115810 0.050000
v -0.155563 0.044437 0.050000
v -0.084190 -0.003253 0.050000
v -0.072911 0.403254 0.007905
v -0.134722 0.355564 -0.027782
v -0.176023 0.284190 -0.051627
v -0.190526 0.200000 -0.060000
v -0.176023 0.115810 -0.051627
v -0.134722 0.044437 -0.027782
v -0.072911 -0.003253 0.007905
v -0.042095 0.403254 -0.022911
v -0.077782 0.355564 -0.084722
v -0.101627 0.284190 -0.126023
v -0.110000 0.200000 -0.140526
v -0.101627 0.115810 -0.126023
v -0.077782 0.044437 -0.084722
v -0.042095 -0.003253 -0.022911
v 0.000000 0.355564 -0.105563
v 0.000000 0.044437 -0.105563
v 0.310000 0.090000 0.070000
v 0.310000 0.310000 0.070000
v 0.310000 0.090000 0.030000
v 0.310000 0.310000 0.030000
v 0.390000 0.090000 0.070000
v 0.390000 0.310000 0.070000
v 0.390000 0.090000 0.030000
v 0.390000 0.310000 0.030000
v 0.233345 0.337487 0.092426
v 0.233345 0.557487 0.092426
v 0.205061 0.337487 0.064142
v 0.205061 0.557487 0.064142
v 0.289914 0.337487 0.035858
v 0.289914 0.557487 0.035858
v 0.261629 0.337487 0.007574
v 0.261629 0.557487 0.007574
v 0.020000 0.440000 0.090000
v 0.020000 0.660000 0.090000
v -0.020000 0.440000 0.090000
v -0.020000 0.660000 0.090000
v 0.020000 0.440000 0.010000
v 0.020000 0.660000 0.010000
v -0.020000 0.440000 0.010000
v -0.020000 0.660000 0.010000
v -0.205061 0.337487 0.064142
v -0.205061 0.557487 0.064142
v -0.233345 0.337487 0.092426
v -0.233345 0.557487 0.092426
v -0.261629 0.337487 0.007574
v -0.261629 0.557487 0.007574
v -0.289914 0.337487 0.035858
v -0.289914 0.557487 0.035858
v -0.310000 0.090000 0.030000
v -0.310000 0.310000 0.030000
v -0.310000 0.090000 0.070000
v -0.310000 0.310000 0.070000
v -0.390000 0.090000 0.030000
v -0.390000 0.310000 0.030000
v -0.390000 0.090000 0.070000
v -0.390000 0.310000 0.070000
v -0.233345 -0.157487 0.007574
v -0.233345 0.062513 0.007574
v -0.205061 -0.157487 0.035858
v -0.205061 0.062513 0.035858
v -0.289914 -0.157487 0.064142
v -0.289914 0.062513 0.064142
v -0.261629 -0.157487 0.092426
v -0.261629 0.062513 0.092426
v -0.020000 -0.260000 0.010000
v -0.020000 -0.040000 0.010000
v 0.020000 -0.260000 0.010000
v 0.020000 -0.040000 0.010000
v -0.020000 -0.260000 0.090000
v -0.020000 -0.040000 0.090000
v 0.020000 -0.260000 0.090000
v 0.020000 -0.040000 0.090000
v 0.205061 -0.157487 0.035858
v 0.205061 0.062513 0.035858
v 0.233345 -0.157487 0.007574
v 0.233345 0.062513 0.007574
v 0.261629 -0.157487 0.092426
v 0.261629 0.062513 0.092426
v 0.289914 -0.157487 0.064142
v 0.289914 0.062513 0.064142
vn 0.1951 0.9808 -0.0000
vn 0.5556 0.8315 -0.0000
vn 0.8315 0.5556 -0.0000
vn 0.9808 0.1951 -0.0000
vn 0.9808 -0.1951 -0.0000
vn 0.8315 -0.5556 -0.0000
vn 0.5556 -0.8315 -0.0000
vn 0.1951 -0.9808 -0.0000
vn -0.1951 -0.9808 -0.0000
vn -0.5556 -0.8315 -0.0000
vn -0.8315 -0.5556 -0.0000
vn -0.9808 -0.1951 -0.0000
vn -0.9808 0.1951 -0.0000
vn -0.8315 0.5556 -0.0000
vn -0.0000 -0.0000 1.0000
vn -0.5556 0.8315 -0.0000
vn -0.1951 0.9808 -0.0000
vn -0.0000 -0.0000 -1.0000
vn 0.1472 -0.8224 -0.5495
vn 0.2542 -0.1887 -0.9486
vn 0.2175 0.5423 -0.8116
vn 0.0522 0.9794 -0.1948
vn 0.0522 -0.9794 -0.1948
vn 0.2175 -0.5423 -0.8116
vn 0.2542 0.1887 -0.9486
vn 0.1472 0.8224 -0.5495
vn 0.1426 -0.9794 -0.1426
vn 0.5941 -0.5423 -0.5941
vn 0.6944 0.1887 -0.6944
vn 0.4023 0.8224 -0.4023
vn 0.4023 -0.8224 -0.4023
vn 0.6944 -0.1887 -0.6944
vn 0.5941 0.5423 -0.5941
vn 0.1426 0.9794 -0.1426
vn 0.9486 0.1887 -0.2542
vn 0.5495 0.8224 -0.1472
vn 0.5495 -0.8224 -0.1472
vn 0.9486 -0.1887 -0.2542
vn 0.8116 0.5423 -0.2175
vn 0.1948 0.9794 -0.0522
vn 0.1948 -0.9794 -0.0522
vn 0.8116 -0.5423 -0.2175
vn 0.5495 -0.8224 0.1472
vn 0.9486 -0.1887 0.2542
vn 0.8116 0.5423 0.2175
vn 0.1948 0.9794 0.0522
vn 0.1948 -0.9794 0.0522
vn 0.8116 -0.5423 0.2175
vn 0.9486 0.1887 0.2542
vn 0.5495 0.8224 0.1472
vn 0.5941 0.5423 0.5941
vn 0.1426 0.9794 0.1426
vn 0.1426 -0.9794 0.1426
vn 0.5941 -0.5423 0.5941
vn 0.6944 0.1887 0.6944
vn 0.4023 0.8224 0.4023
vn 0.4023 -0.8224 0.4023
vn 0.6944 -0.1887 0.6944
vn 0.0522 -0.9794 0.1948
vn 0.2175 -0.5423 0.8116
vn 0.2542 0.1887 0.9486
vn 0.1472 0.8224 0.5495
vn 0.1472 -0.8224 0.5495
vn 0.2542 -0.1887 0.9486
vn 0.2175 0.5423 0.8116
vn 0.0522 0.9794 0.1948
vn -0.1472 0.8224 0.5495
vn -0.1472 -0.8224 0.5495
vn -0.2542 -0.1887 0.9486
vn -0.2175 0.5423 0.8116
vn -0.0522 0.9794 0.1948
vn -0.0522 -0.9794 0.1948
vn -0.2175 -0.5423 0.8116
vn -0.2542 0.1887 0.9486
vn -0.4023 -0.8224 0.4023
vn -0.6944 -0.1887 0.6944
vn -0.5941 0.5423 0.5941
vn -0.1426 0.9794 0.1426
vn -0.1426 -0.9794 0.1426
vn -0.5941 -0.5423 0.5941
vn -0.6944 0.1887 0.6944
vn -0.4023 0.8224 0.4023
vn -0.1948 0.9794 0.0522
vn -0.1948 -0.9794 0.0522
vn -0.8116 -0.5423 0.2175
vn -0.9486 0.1887 0.2542
vn -0.5495 0.8224 0.1472
vn -0.5495 -0.8224 0.1472
vn -0.9486 -0.1887 0.2542
vn -0.8116 0.5423 0.2175
vn -0.8116 -0.5423 -0.2175
vn -0.9486 0.1887 -0.2542
vn -0.5495 0.8224 -0.1472
vn -0.5495 -0.8224 -0.1472
vn -0.9486 -0.1887 -0.2542
vn -0.8116 0.5423 -0.2175
vn -0.1948 0.9794 -0.0522
vn -0.1948 -0.9794 -0.0522
vn -0.4023 -0.8224 -0.4023
vn -0.6944 -0.1887 -0.6944
vn -0.5941 0.5423 -0.5941
vn -0.1426 0.9794 -0.1426
vn -0.1426 -0.9794 -0.1426
vn -0.5941 -0.5423 -0.5941
vn -0.6944 0.1887 -0.6944
vn -0.4023 0.8224 -0.4023
vn -0.2542 -0.1887 -0.9486
vn -0.2175 0.5423 -0.8116
vn -0.0522 0.9794 -0.1948
vn -0.0522 -0.9794 -0.1948
vn -0.2175 -0.5423 -0.8116
vn -0.2542 0.1887 -0.9486
vn -0.1472 0.8224 -0.5495
vn -0.1472 -0.8224 -0.5495
vn -1.0000 -0.0000 -0.0000
vn 1.0000 -0.0000 -0.0000
vn -0.0000 -1.0000 -0.0000
vn -0.0000 1.0000 -0.0000
vn -0.7071 -0.0000 0.7071
vn -0.7071 -0.0000 -0.7071
vn 0.7071 -0.0000 -0.7071
vn 0.7071 -0.0000 0.7071
vt 0.500000 0.470000
vt 0.605238 0.530000
vt 0.500000 0.530000
vt 0.605238 0.470000
vt 0.694454 0.530000
vt 0.470000 0.694454
vt 0.530000 0.605238
vt 0.530000 0.694454
vt 0.470000 0.605238
vt 0.530000 0.500000
vt 0.470000 0.500000
vt 0.530000 0.394762
vt 0.470000 0.394762
vt 0.530000 0.305546
vt 0.694454 0.470000
vt 0.605238 0.530000
vt 0.694454 0.530000
vt 0.500000 0.530000
vt 0.394762 0.530000
vt 0.394762 0.470000
vt 0.305546 0.530000
vt 0.470000 0.305546
vt 0.305546 0.305546
vt 0.694454 0.305546
vt 0.694454 0.694454
vt 0.305546 0.470000
vt 0.394762 0.530000
vt 0.305546 0.530000
vt 0.605238 0.245933
vt 0.245933 0.394762
vt 0.394762 0.754067
vt 0.500000 0.485000
vt 0.610978 0.515000
vt 0.500000 0.515000
vt 0.705061 0.485000
vt 0.705061 0.515000
vt 0.485000 0.705061
vt 0.515000 0.610978
vt 0.515000 0.705061
vt 0.485000 0.610978
vt 0.515000 0.500000
vt 0.485000 0.500000
vt 0.515000 0.389022
vt 0.485000 0.389022
vt 0.515000 0.294939
vt 0.610978 0.485000
vt 0.500000 0.485000
vt 0.389022 0.515000
vt 0.389022 0.485000
vt 0.294939 0.515000
vt 0.294939 0.294939
vt 0.705061 0.294939
vt 0.705061 0.705061
vt 0.294939 0.485000
vt 0.389022 0.485000
vt 0.610978 0.232075
vt 0.232075 0.389022
vt 0.389022 0.767925
vt 0.500000 0.655563
vt 0.542095 0.572911
vt 0.500000 0.584190
vt 0.500000 0.500000
vt 0.601627 0.415810
vt 0.500000 0.415810
vt 0.601627 0.584190
vt 0.577782 0.344437
vt 0.500000 0.344437
vt 0.610000 0.500000
vt 0.577782 0.634722
vt 0.572911 0.542095
vt 0.676023 0.415810
vt 0.634722 0.344437
vt 0.690526 0.500000
vt 0.634722 0.577782
vt 0.634722 0.655563
vt 0.676023 0.584190
vt 0.655563 0.500000
vt 0.584190 0.500000
vt 0.577782 0.655563
vt 0.572911 0.457905
vt 0.398373 0.415810
vt 0.398373 0.584190
vt 0.422218 0.344437
vt 0.390000 0.500000
vt 0.634722 0.422218
vt 0.422218 0.655563
vt 0.323977 0.584190
vt 0.542095 0.427089
vt 0.323977 0.415810
vt 0.365278 0.344437
vt 0.577782 0.365278
vt 0.422218 0.365278
vt 0.457905 0.427089
vt 0.365278 0.422218
vt 0.427089 0.457905
vt 0.309474 0.500000
vt 0.415810 0.500000
vt 0.344437 0.500000
vt 0.365278 0.577782
vt 0.427089 0.542095
vt 0.457905 0.572911
vt 0.422218 0.634722
vt 0.490000 0.555000
vt 0.510000 0.445000
vt 0.490000 0.445000
vt 0.480000 0.555000
vt 0.520000 0.445000
vt 0.480000 0.445000
vt 0.510000 0.555000
vt 0.520000 0.555000
vt 0.520000 0.510000
vt 0.480000 0.490000
vt 0.480000 0.510000
vt 0.520000 0.490000
vt 0.492929 0.555000
vt 0.478787 0.445000
vt 0.492929 0.445000
vt 0.478787 0.555000
vt 0.507071 0.445000
vt 0.507071 0.555000
vt 0.521213 0.445000
vt 0.521213 0.555000
vt 0.507071 0.521213
vt 0.492929 0.478787
vt 0.478787 0.492929
vt 0.521213 0.507071
vt 0.490000 0.480000
vt 0.510000 0.520000
vt 0.510000 0.480000
vt 0.490000 0.520000
vt 0.478787 0.507071
vt 0.521213 0.492929
vt 0.507071 0.478787
vt 0.492929 0.521213
vt 0.605238 0.754067
vt 0.500000 0.775000
vt 0.305546 0.694454
vt 0.245933 0.605238
vt 0.225000 0.500000
vt 0.394762 0.245933
vt 0.500000 0.225000
vt 0.754067 0.394762
vt 0.775000 0.500000
vt 0.754067 0.605238
vt 0.610978 0.485000
vt 0.485000 0.294939
vt 0.705061 0.485000
vt 0.294939 0.485000
vt 0.610978 0.767925
vt 0.500000 0.790000
vt 0.294939 0.705061
vt 0.232075 0.610978
vt 0.210000 0.500000
vt 0.389022 0.232075
vt 0.500000 0.210000
vt 0.767925 0.389022
vt 0.790000 0.500000
vt 0.767925 0.610978
vt 0.365278 0.655563
s 0
f 2/1/1 3/2/1 1/3/1
f 4/4/2 5/5/2 3/2/2
f 6/6/3 7/7/3 5/8/3
f 8/9/4 9/10/4 7/7/4
f 10/11/5 11/12/5 9/10/5
f 12/13/6 13/14/6 11/12/6
f 14/15/7 15/16/7 13/17/7
f 16/4/8 17/18/8 15/16/8
f 18/1/9 19/19/9 17/18/9
f 20/20/10 21/21/10 19/19/10
f 22/22/11 23/12/11 21/14/11
f 24/13/12 25/10/12 23/12/12
f 26/11/13 27/7/13 25/10/13
f 28/9/14 29/8/14 27/7/14
f 22/23/15 14/24/15 6/25/15
f 30/26/16 31/27/16 29/28/16
f 32/20/17 1/3/17 31/27/17
f 15/29/18 23/30/18 31/31/18
f 34/32/1 35/33/1 33/34/1
f 35/33/2 38/35/2 37/36/2
f 38/37/3 39/38/3 37/39/3
f 40/40/4 41/41/4 39/38/4
f 42/42/5 43/43/5 41/41/5
f 44/44/6 45/45/6 43/43/6
f 45/36/7 48/46/7 47/33/7
f 48/46/8 49/34/8 47/33/8
f 50/47/9 51/48/9 49/34/9
f 52/49/10 53/50/10 51/48/10
f 53/45/11 56/44/11 55/43/11
f 56/44/12 57/41/12 55/43/12
f 58/42/13 59/38/13 57/41/13
f 59/38/14 62/37/14 61/39/14
f 54/51/15 46/52/15 38/53/15
f 62/54/16 63/48/16 61/50/16
f 64/55/17 33/34/17 63/48/17
f 47/56/18 55/57/18 63/58/18
f 150/59/19 78/60/19 70/61/19
f 68/62/20 76/63/20 69/64/20
f 149/59/21 74/65/21 67/61/21
f 66/61/22 65/62/22 72/60/22
f 71/62/23 70/61/23 78/60/23
f 69/64/24 77/66/24 150/67/24
f 67/61/25 75/68/25 68/62/25
f 66/61/26 73/69/26 149/59/26
f 71/62/27 78/60/27 85/70/27
f 76/71/28 84/66/28 77/72/28
f 74/65/29 82/73/29 75/68/29
f 72/60/30 80/74/30 73/69/30
f 77/69/31 85/70/31 78/60/31
f 75/68/32 83/71/32 76/63/32
f 73/75/33 81/65/33 74/76/33
f 72/60/34 65/62/34 79/70/34
f 81/65/35 89/62/35 82/68/35
f 79/70/36 87/77/36 80/74/36
f 85/70/37 91/77/37 92/78/37
f 82/68/38 90/64/38 83/63/38
f 80/79/39 88/61/39 81/65/39
f 79/70/40 65/62/40 86/78/40
f 71/62/41 85/70/41 92/78/41
f 83/63/42 91/67/42 84/66/42
f 91/77/43 99/80/43 92/78/43
f 89/62/44 97/81/44 90/64/44
f 87/59/45 95/82/45 88/61/45
f 86/78/46 65/62/46 93/80/46
f 71/62/47 92/78/47 99/80/47
f 90/64/48 98/83/48 91/67/48
f 88/61/49 96/84/49 89/62/49
f 86/78/50 94/85/50 87/77/50
f 94/86/51 102/87/51 95/82/51
f 93/80/52 65/62/52 100/88/52
f 71/62/53 99/80/53 106/88/53
f 98/83/54 104/89/54 105/90/54
f 96/73/55 102/65/55 103/68/55
f 94/85/56 100/88/56 101/91/56
f 98/85/57 106/88/57 99/80/57
f 96/73/58 104/63/58 97/71/58
f 71/62/59 106/88/59 113/64/59
f 105/66/60 111/64/60 112/67/60
f 102/65/61 110/62/61 103/68/61
f 100/88/62 108/67/62 101/91/62
f 105/91/63 113/64/63 106/88/63
f 103/68/64 111/64/64 104/63/64
f 101/79/65 109/61/65 102/65/65
f 100/88/66 65/62/66 107/64/66
f 107/64/67 115/92/67 108/67/67
f 112/67/68 120/93/68 113/64/68
f 110/62/69 118/81/69 111/64/69
f 108/59/70 116/82/70 109/61/70
f 107/64/71 65/62/71 114/93/71
f 71/62/72 113/64/72 120/93/72
f 111/64/73 119/83/73 112/67/73
f 109/61/74 117/84/74 110/62/74
f 120/93/75 126/94/75 127/95/75
f 117/84/76 125/89/76 118/81/76
f 115/86/77 123/87/77 116/82/77
f 114/93/78 65/62/78 121/95/78
f 71/62/79 120/93/79 127/95/79
f 119/83/80 125/89/80 126/90/80
f 116/82/81 124/96/81 117/84/81
f 114/93/82 122/94/82 115/92/82
f 121/95/83 65/62/83 128/97/83
f 71/62/84 127/95/84 134/97/84
f 125/81/85 133/67/85 126/83/85
f 124/84/86 130/61/86 131/62/86
f 121/95/87 129/98/87 122/94/87
f 126/94/88 134/97/88 127/95/88
f 124/84/89 132/64/89 125/81/89
f 122/86/90 130/61/90 123/82/90
f 133/67/91 139/63/91 140/66/91
f 131/62/92 137/65/92 138/68/92
f 128/97/93 136/99/93 129/98/93
f 133/98/94 141/100/94 134/97/94
f 131/62/95 139/63/95 132/64/95
f 129/59/96 137/65/96 130/61/96
f 128/97/97 65/62/97 135/100/97
f 71/62/98 134/97/98 141/100/98
f 140/99/99 148/101/99 141/100/99
f 138/96/100 146/81/100 139/89/100
f 137/65/101 143/75/101 144/76/101
f 135/100/102 65/62/102 142/101/102
f 71/62/103 141/100/103 148/101/103
f 139/63/104 147/72/104 140/66/104
f 138/96/105 144/82/105 145/84/105
f 135/100/106 143/102/106 136/99/106
f 145/84/107 69/64/107 146/81/107
f 143/86/108 67/61/108 144/82/108
f 142/101/109 65/62/109 66/61/109
f 71/62/110 148/101/110 70/61/110
f 146/81/111 150/67/111 147/83/111
f 144/82/112 68/62/112 145/84/112
f 142/101/113 149/59/113 143/102/113
f 148/101/114 150/59/114 70/61/114
f 152/103/115 153/104/115 151/105/115
f 154/106/18 157/107/18 153/108/18
f 158/109/116 155/105/116 157/104/116
f 156/110/15 151/108/15 155/107/15
f 157/111/117 151/112/117 153/113/117
f 154/113/118 156/114/118 158/111/118
f 160/115/119 161/116/119 159/117/119
f 162/118/120 165/119/120 161/116/120
f 166/120/121 163/121/121 165/119/121
f 164/122/122 159/117/122 163/121/122
f 165/123/117 159/124/117 161/125/117
f 166/123/118 160/124/118 164/126/118
f 168/109/15 169/105/15 167/104/15
f 170/106/115 173/107/115 169/108/115
f 174/103/18 171/104/18 173/105/18
f 172/110/116 167/108/116 171/107/116
f 169/127/117 171/128/117 167/129/117
f 170/127/118 172/128/118 174/130/118
f 176/122/122 177/119/122 175/121/122
f 178/120/119 181/116/119 177/119/119
f 182/118/120 179/117/120 181/116/120
f 180/115/121 175/121/121 179/117/121
f 181/131/117 175/132/117 177/133/117
f 182/131/118 176/132/118 180/134/118
f 184/109/116 185/105/116 183/104/116
f 186/110/15 189/108/15 185/107/15
f 190/103/115 187/104/115 189/105/115
f 188/106/18 183/107/18 187/108/18
f 189/112/117 183/111/117 185/114/117
f 186/114/118 188/113/118 190/112/118
f 192/120/121 193/121/121 191/119/121
f 194/122/122 197/117/122 193/121/122
f 198/115/119 195/116/119 197/117/119
f 196/118/120 191/119/120 195/116/120
f 197/124/117 191/123/117 193/126/117
f 194/126/118 196/125/118 198/124/118
f 200/103/18 201/104/18 199/105/18
f 202/110/116 205/108/116 201/107/116
f 206/109/15 203/105/15 205/104/15
f 204/106/115 199/107/115 203/108/115
f 205/129/117 199/130/117 201/128/117
f 202/128/118 204/127/118 206/129/118
f 208/118/120 209/117/120 207/116/120
f 210/122/121 213/117/121 209/121/121
f 214/122/122 211/119/122 213/121/122
f 212/118/119 207/119/119 211/116/119
f 209/134/117 211/133/117 207/131/117
f 210/134/118 212/133/118 214/132/118
f 2/1/1 4/4/1 3/2/1
f 4/4/2 6/15/2 5/5/2
f 6/6/3 8/9/3 7/7/3
f 8/9/4 10/11/4 9/10/4
f 10/11/5 12/13/5 11/12/5
f 12/13/6 14/22/6 13/14/6
f 14/15/7 16/4/7 15/16/7
f 16/4/8 18/1/8 17/18/8
f 18/1/9 20/20/9 19/19/9
f 20/20/10 22/26/10 21/21/10
f 22/22/11 24/13/11 23/12/11
f 24/13/12 26/11/12 25/10/12
f 26/11/13 28/9/13 27/7/13
f 28/9/14 30/6/14 29/8/14
f 6/25/15 4/135/15 2/136/15
f 2/136/15 32/31/15 30/137/15
f 30/137/15 28/138/15 26/139/15
f 26/139/15 24/30/15 22/23/15
f 22/23/15 20/140/15 18/141/15
f 18/141/15 16/29/15 14/24/15
f 14/24/15 12/142/15 10/143/15
f 10/143/15 8/144/15 6/25/15
f 6/25/15 2/136/15 30/137/15
f 30/137/15 26/139/15 22/23/15
f 22/23/15 18/141/15 14/24/15
f 14/24/15 10/143/15 6/25/15
f 6/25/15 30/137/15 22/23/15
f 30/26/16 32/20/16 31/27/16
f 32/20/17 2/1/17 1/3/17
f 31/31/18 1/136/18 3/135/18
f 3/135/18 5/25/18 7/144/18
f 7/144/18 9/143/18 11/142/18
f 11/142/18 13/24/18 15/29/18
f 15/29/18 17/141/18 19/140/18
f 19/140/18 21/23/18 23/30/18
f 23/30/18 25/139/18 27/138/18
f 27/138/18 29/137/18 31/31/18
f 31/31/18 3/135/18 7/144/18
f 7/144/18 11/142/18 15/29/18
f 15/29/18 19/140/18 23/30/18
f 23/30/18 27/138/18 31/31/18
f 31/31/18 7/144/18 15/29/18
f 34/32/1 36/145/1 35/33/1
f 35/33/2 36/145/2 38/35/2
f 38/37/3 40/40/3 39/38/3
f 40/40/4 42/42/4 41/41/4
f 42/42/5 44/44/5 43/43/5
f 44/44/6 46/146/6 45/45/6
f 45/36/7 46/147/7 48/46/7
f 48/46/8 50/47/8 49/34/8
f 50/47/9 52/49/9 51/48/9
f 52/49/10 54/148/10 53/50/10
f 53/45/11 54/146/11 56/44/11
f 56/44/12 58/42/12 57/41/12
f 58/42/13 60/40/13 59/38/13
f 59/38/14 60/40/14 62/37/14
f 38/53/15 36/149/15 34/150/15
f 34/150/15 64/58/15 62/151/15
f 62/151/15 60/152/15 58/153/15
f 58/153/15 56/57/15 54/51/15
f 54/51/15 52/154/15 50/155/15
f 50/155/15 48/56/15 46/52/15
f 46/52/15 44/156/15 42/157/15
f 42/157/15 40/158/15 38/53/15
f 38/53/15 34/150/15 62/151/15
f 62/151/15 58/153/15 54/51/15
f 54/51/15 50/155/15 46/52/15
f 46/52/15 42/157/15 38/53/15
f 38/53/15 62/151/15 54/51/15
f 62/54/16 64/55/16 63/48/16
f 64/55/17 34/32/17 33/34/17
f 63/58/18 33/150/18 35/149/18
f 35/149/18 37/53/18 39/158/18
f 39/158/18 41/157/18 43/156/18
f 43/156/18 45/52/18 47/56/18
f 47/56/18 49/155/18 51/154/18
f 51/154/18 53/51/18 55/57/18
f 55/57/18 57/153/18 59/152/18
f 59/152/18 61/151/18 63/58/18
f 63/58/18 35/149/18 39/158/18
f 39/158/18 43/156/18 47/56/18
f 47/56/18 51/154/18 55/57/18
f 55/57/18 59/152/18 63/58/18
f 63/58/18 39/158/18 47/56/18
f 150/59/19 77/69/19 78/60/19
f 68/62/20 75/68/20 76/63/20
f 149/59/21 73/79/21 74/65/21
f 69/64/24 76/63/24 77/66/24
f 67/61/25 74/65/25 75/68/25
f 66/61/26 72/60/26 73/69/26
f 76/71/28 83/63/28 84/66/28
f 74/65/29 81/76/29 82/73/29
f 72/60/30 79/70/30 80/74/30
f 77/69/31 84/74/31 85/70/31
f 75/68/32 82/73/32 83/71/32
f 73/75/33 80/79/33 81/65/33
f 81/65/35 88/61/35 89/62/35
f 79/70/36 86/78/36 87/77/36
f 85/70/37 84/74/37 91/77/37
f 82/68/38 89/62/38 90/64/38
f 80/79/39 87/59/39 88/61/39
f 83/63/42 90/64/42 91/67/42
f 91/77/43 98/85/43 99/80/43
f 89/62/44 96/84/44 97/81/44
f 87/59/45 94/86/45 95/82/45
f 90/64/48 97/81/48 98/83/48
f 88/61/49 95/82/49 96/84/49
f 86/78/50 93/80/50 94/85/50
f 94/86/51 101/159/51 102/87/51
f 98/83/54 97/81/54 104/89/54
f 96/73/55 95/76/55 102/65/55
f 94/85/56 93/80/56 100/88/56
f 98/85/57 105/91/57 106/88/57
f 96/73/58 103/68/58 104/63/58
f 105/66/60 104/63/60 111/64/60
f 102/65/61 109/61/61 110/62/61
f 100/88/62 107/64/62 108/67/62
f 105/91/63 112/67/63 113/64/63
f 103/68/64 110/62/64 111/64/64
f 101/79/65 108/59/65 109/61/65
f 107/64/67 114/93/67 115/92/67
f 112/67/68 119/92/68 120/93/68
f 110/62/69 117/84/69 118/81/69
f 108/59/70 115/86/70 116/82/70
f 111/64/73 118/81/73 119/83/73
f 109/61/74 116/82/74 117/84/74
f 120/93/75 119/92/75 126/94/75
f 117/84/76 124/96/76 125/89/76
f 115/86/77 122/159/77 123/87/77
f 119/83/80 118/81/80 125/89/80
f 116/82/81 123/87/81 124/96/81
f 114/93/82 121/95/82 122/94/82
f 125/81/85 132/64/85 133/67/85
f 124/84/86 123/82/86 130/61/86
f 121/95/87 128/97/87 129/98/87
f 126/94/88 133/98/88 134/97/88
f 124/84/89 131/62/89 132/64/89
f 122/86/90 129/59/90 130/61/90
f 133/67/91 132/64/91 139/63/91
f 131/62/92 130/61/92 137/65/92
f 128/97/93 135/100/93 136/99/93
f 133/98/94 140/99/94 141/100/94
f 131/62/95 138/68/95 139/63/95
f 129/59/96 136/79/96 137/65/96
f 140/99/99 147/102/99 148/101/99
f 138/96/100 145/84/100 146/81/100
f 137/65/101 136/79/101 143/75/101
f 139/63/104 146/71/104 147/72/104
f 138/96/105 137/87/105 144/82/105
f 135/100/106 142/101/106 143/102/106
f 145/84/107 68/62/107 69/64/107
f 143/86/108 149/59/108 67/61/108
f 146/81/111 69/64/111 150/67/111
f 144/82/112 67/61/112 68/62/112
f 142/101/113 66/61/113 149/59/113
f 148/101/114 147/102/114 150/59/114
f 152/103/115 154/109/115 153/104/115
f 154/106/18 158/110/18 157/107/18
f 158/109/116 156/103/116 155/105/116
f 156/110/15 152/106/15 151/108/15
f 157/111/117 155/114/117 151/112/117
f 154/113/118 152/112/118 156/114/118
f 160/115/119 162/118/119 161/116/119
f 162/118/120 166/120/120 165/119/120
f 166/120/121 164/122/121 163/121/121
f 164/122/122 160/115/122 159/117/122
f 165/123/117 163/126/117 159/124/117
f 166/123/118 162/125/118 160/124/118
f 168/109/15 170/103/15 169/105/15
f 170/106/115 174/110/115 173/107/115
f 174/103/18 172/109/18 171/104/18
f 172/110/116 168/106/116 167/108/116
f 169/127/117 173/130/117 171/128/117
f 170/127/118 168/129/118 172/128/118
f 176/122/122 178/120/122 177/119/122
f 178/120/119 182/118/119 181/116/119
f 182/118/120 180/115/120 179/117/120
f 180/115/121 176/122/121 175/121/121
f 181/131/117 179/134/117 175/132/117
f 182/131/118 178/133/118 176/132/118
f 184/109/116 186/103/116 185/105/116
f 186/110/15 190/106/15 189/108/15
f 190/103/115 188/109/115 187/104/115
f 188/106/18 184/110/18 183/107/18
f 189/112/117 187/113/117 183/111/117
f 186/114/118 184/111/118 188/113/118
f 192/120/121 194/122/121 193/121/121
f 194/122/122 198/115/122 197/117/122
f 198/115/119 196/118/119 195/116/119
f 196/118/120 192/120/120 191/119/120
f 197/124/117 195/125/117 191/123/117
f 194/126/118 192/123/118 196/125/118
f 200/103/18 202/109/18 201/104/18
f 202/110/116 206/106/116 205/108/116
f 206/109/15 204/103/15 203/105/15
f 204/106/115 200/110/115 199/107/115
f 205/129/117 203/127/117 199/130/117
f 202/128/118 200/130/118 204/127/118
f 208/118/120 210/115/120 209/117/120
f 210/122/121 214/115/121 213/117/121
f 214/122/122 212/120/122 211/119/122
f 212/118/119 208/120/119 207/119/119
f 209/134/117 213/132/117 211/133/117
f 210/134/118 208/131/118 212/133/118
