# Blender 5.2.0 LTS
# www.blender.org
o crest_university_guild
v 0.000000 0.550000 -0.060000
v 0.000000 0.550000 0.060000
v 0.210476 0.508134 -0.060000
v 0.210476 0.508134 0.060000
v 0.388909 0.388909 -0.060000
v 0.388909 0.388909 0.060000
v 0.508134 0.210476 -0.060000
v 0.508134 0.210476 0.060000
v 0.550000 0.000000 -0.060000
v 0.550000 -0.000000 0.060000
v 0.508134 -0.210476 -0.060000
v 0.508134 -0.210476 0.060000
v 0.388909 -0.388909 -0.060000
v 0.388909 -0.388909 0.060000
v 0.210476 -0.508134 -0.060000
v 0.210476 -0.508134 0.060000
v 0.000000 -0.550000 -0.060000
v 0.000000 -0.550000 0.060000
v -0.210476 -0.508134 -0.060000
v -0.210476 -0.508134 0.060000
v -0.388909 -0.388909 -0.060000
v -0.388909 -0.388909 0.060000
v -0.508134 -0.210476 -0.060000
v -0.508134 -0.210476 0.060000
v -0.550000 0.000000 -0.060000
v -0.550000 -0.000000 0.060000
v -0.508134 0.210476 -0.060000
v -0.508134 0.210476 0.060000
v -0.388909 0.388909 -0.060000
v -0.388909 0.388909 0.060000
v -0.210476 0.508134 -0.060000
v -0.210476 0.508134 0.060000
v 0.000000 0.580000 -0.030000
v 0.000000 0.580000 0.030000
v 0.221956 0.535850 -0.030000
v 0.221956 0.535850 0.030000
v 0.410122 0.410122 -0.030000
v 0.410122 0.410122 0.030000
v 0.535850 0.221956 -0.030000
v 0.535850 0.221956 0.030000
v 0.580000 0.000000 -0.030000
v 0.580000 -0.000000 0.030000
v 0.535850 -0.221956 -0.030000
v 0.535850 -0.221956 0.030000
v 0.410122 -0.410122 -0.030000
v 0.410122 -0.410122 0.030000
v 0.221956 -0.535850 -0.030000
v 0.221956 -0.535850 0.030000
v 0.000000 -0.580000 -0.030000
v 0.000000 -0.580000 0.030000
v -0.221956 -0.535850 -0.030000
v -0.221956 -0.535850 0.030000
v -0.410122 -0.410122 -0.030000
v -0.410122 -0.410122 0.030000
v -0.535850 -0.221956 -0.030000
v -0.535850 -0.221956 0.030000
v -0.580000 0.000000 -0.030000
v -0.580000 -0.000000 0.030000
v -0.535850 0.221956 -0.030000
v -0.535850 0.221956 0.030000
v -0.410122 0.410122 -0.030000
v -0.410122 0.410122 0.030000
v -0.221956 0.535850 -0.030000
v -0.221956 0.535850 0.030000
v 0.000000 0.380000 0.000000
v 0.000000 0.380000 0.100000
v 0.090000 0.355885 0.000000
v 0.090000 0.355885 0.100000
v 0.155885 0.290000 0.000000
v 0.155885 0.290000 0.100000
v 0.180000 0.200000 0.000000
v 0.180000 0.200000 0.100000
v 0.155885 0.110000 -0.000000
v 0.155885 0.110000 0.100000
v 0.090000 0.044115 -0.000000
v 0.090000 0.044115 0.100000
v 0.000000 0.020000 -0.000000
v 0.000000 0.020000 0.100000
v -0.090000 0.044115 -0.000000
v -0.090000 0.044115 0.100000
v -0.155885 0.110000 -0.000000
v -0.155885 0.110000 0.100000
v -0.180000 0.200000 0.000000
v -0.180000 0.200000 0.100000
v -0.155885 0.290000 0.000000
v -0.155885 0.290000 0.100000
v -0.090000 0.355885 0.000000
v -0.090000 0.355885 0.100000
v 0.260000 0.120000 0.090000
v 0.260000 0.280000 0.090000
v 0.260000 0.120000 0.010000
v 0.260000 0.280000 0.010000
v 0.380000 0.120000 0.090000
v 0.380000 0.280000 0.090000
v 0.380000 0.120000 0.010000
v 0.380000 0.280000 0.010000
v 0.212132 0.120000 0.120711
v 0.212132 0.280000 0.120711
v 0.155563 0.120000 0.064142
v 0.155563 0.280000 0.064142
v 0.296985 0.120000 0.035858
v 0.296985 0.280000 0.035858
v 0.240416 0.120000 -0.020711
v 0.240416 0.280000 -0.020711
v 0.040000 0.120000 0.110000
v 0.040000 0.280000 0.110000
v -0.040000 0.120000 0.110000
v -0.040000 0.280000 0.110000
v 0.040000 0.120000 -0.010000
v 0.040000 0.280000 -0.010000
v -0.040000 0.120000 -0.010000
v -0.040000 0.280000 -0.010000
v -0.155563 0.120000 0.064142
v -0.155563 0.280000 0.064142
v -0.212132 0.120000 0.120711
v -0.212132 0.280000 0.120711
v -0.240416 0.120000 -0.020711
v -0.240416 0.280000 -0.020711
v -0.296985 0.120000 0.035858
v -0.296985 0.280000 0.035858
v -0.260000 0.120000 0.010000
v -0.260000 0.280000 0.010000
v -0.260000 0.120000 0.090000
v -0.260000 0.280000 0.090000
v -0.380000 0.120000 0.010000
v -0.380000 0.280000 0.010000
v -0.380000 0.120000 0.090000
v -0.380000 0.280000 0.090000
v -0.212132 0.120000 -0.020711
v -0.212132 0.280000 -0.020711
v -0.155563 0.120000 0.035858
v -0.155563 0.280000 0.035858
v -0.296985 0.120000 0.064142
v -0.296985 0.280000 0.064142
v -0.240416 0.120000 0.120711
v -0.240416 0.280000 0.120711
v -0.040000 0.120000 -0.010000
v -0.040000 0.280000 -0.010000
v 0.040000 0.120000 -0.010000
v 0.040000 0.280000 -0.010000
v -0.040000 0.120000 0.110000
v -0.040000 0.280000 0.110000
v 0.040000 0.120000 0.110000
v 0.040000 0.280000 0.110000
v 0.155563 0.120000 0.035858
v 0.155563 0.280000 0.035858
v 0.212132 0.120000 -0.020711
v 0.212132 0.280000 -0.020711
v 0.240416 0.120000 0.120711
v 0.240416 0.280000 0.120711
v 0.296985 0.120000 0.064142
v 0.296985 0.280000 0.064142
vn 0.1951 0.9808 -0.0000
vn 0.5556 0.8315 -0.0000
vn 0.8315 0.5556 -0.0000
vn 0.9808 0.1951 -0.0000
vn 0.9808 -0.1951 -0.0000
vn 0.8315 -0.5556 -0.0000
vn 0.5556 -0.8315 -0.0000
vn 0.1951 -0.9808 -0.0000
vn -0.1951 -0.9808 -0.0000
vn -0.5556 -0.8315 -0.0000
vn -0.8315 -0.5556 -0.0000
vn -0.9808 -0.1951 -0.0000
vn -0.9808 0.1951 -0.0000
vn -0.8315 0.5556 -0.0000
vn -0.0000 -0.0000 1.0000
vn -0.5556 0.8315 -0.0000
vn -0.1951 0.9808 -0.0000
vn -0.0000 -0.0000 -1.0000
vn 0.2588 0.9659 -0.0000
vn 0.7071 0.7071 -0.0000
vn 0.9659 0.2588 -0.0000
vn 0.9659 -0.2588 -0.0000
vn 0.7071 -0.7071 -0.0000
vn 0.2588 -0.9659 -0.0000
vn -0.2588 -0.9659 -0.0000
vn -0.7071 -0.7071 -0.0000
vn -0.9659 -0.2588 -0.0000
vn -0.9659 0.2588 -0.0000
vn -0.7071 0.7071 -0.0000
vn -0.2588 0.9659 -0.0000
vn -1.0000 -0.0000 -0.0000
vn 1.0000 -0.0000 -0.0000
vn -0.0000 -1.0000 -0.0000
vn -0.0000 1.0000 -0.0000
vn -0.7071 -0.0000 0.7071
vn -0.7071 -0.0000 -0.7071
vn 0.7071 -0.0000 -0.7071
vn 0.7071 -0.0000 0.7071
vt 0.500000 0.470000
vt 0.605238 0.530000
vt 0.500000 0.530000
vt 0.605238 0.470000
vt 0.694454 0.530000
vt 0.470000 0.694454
vt 0.530000 0.605238
vt 0.530000 0.694454
vt 0.470000 0.605238
vt 0.530000 0.500000
vt 0.470000 0.500000
vt 0.530000 0.394762
vt 0.470000 0.394762
vt 0.530000 0.305546
vt 0.694454 0.470000
vt 0.605238 0.530000
vt 0.694454 0.530000
vt 0.500000 0.530000
vt 0.394762 0.530000
vt 0.394762 0.470000
vt 0.305546 0.530000
vt 0.470000 0.305546
vt 0.305546 0.305546
vt 0.694454 0.305546
vt 0.694454 0.694454
vt 0.305546 0.470000
vt 0.394762 0.530000
vt 0.305546 0.530000
vt 0.605238 0.245933
vt 0.245933 0.394762
vt 0.394762 0.754067
vt 0.500000 0.485000
vt 0.610978 0.515000
vt 0.500000 0.515000
vt 0.705061 0.485000
vt 0.705061 0.515000
vt 0.485000 0.705061
vt 0.515000 0.610978
vt 0.515000 0.705061
vt 0.485000 0.610978
vt 0.515000 0.500000
vt 0.485000 0.500000
vt 0.515000 0.389022
vt 0.485000 0.389022
vt 0.515000 0.294939
vt 0.610978 0.485000
vt 0.500000 0.485000
vt 0.389022 0.515000
vt 0.389022 0.485000
vt 0.294939 0.515000
vt 0.294939 0.294939
vt 0.705061 0.294939
vt 0.705061 0.705061
vt 0.294939 0.485000
vt 0.389022 0.485000
vt 0.610978 0.232075
vt 0.232075 0.389022
vt 0.389022 0.767925
vt 0.500000 0.475000
vt 0.545000 0.525000
vt 0.500000 0.525000
vt 0.545000 0.475000
vt 0.577942 0.525000
vt 0.475000 0.545000
vt 0.525000 0.500000
vt 0.525000 0.545000
vt 0.475000 0.500000
vt 0.525000 0.455000
vt 0.577942 0.475000
vt 0.455000 0.525000
vt 0.422058 0.475000
vt 0.422058 0.525000
vt 0.475000 0.455000
vt 0.422058 0.545000
vt 0.500000 0.410000
vt 0.577942 0.545000
vt 0.455000 0.475000
vt 0.590000 0.500000
vt 0.455000 0.422058
vt 0.455000 0.577942
vt 0.480000 0.540000
vt 0.520000 0.460000
vt 0.480000 0.460000
vt 0.470000 0.540000
vt 0.530000 0.460000
vt 0.470000 0.460000
vt 0.520000 0.540000
vt 0.530000 0.540000
vt 0.530000 0.520000
vt 0.470000 0.480000
vt 0.470000 0.520000
vt 0.530000 0.480000
vt 0.492929 0.540000
vt 0.464645 0.460000
vt 0.492929 0.460000
vt 0.464645 0.540000
vt 0.507071 0.460000
vt 0.507071 0.540000
vt 0.535355 0.460000
vt 0.535355 0.540000
vt 0.507071 0.535355
vt 0.492929 0.464645
vt 0.464645 0.492929
vt 0.535355 0.507071
vt 0.480000 0.530000
vt 0.520000 0.470000
vt 0.480000 0.470000
vt 0.520000 0.530000
vt 0.507071 0.464645
vt 0.492929 0.535355
vt 0.535355 0.492929
vt 0.464645 0.507071
vt 0.605238 0.754067
vt 0.500000 0.775000
vt 0.305546 0.694454
vt 0.245933 0.605238
vt 0.225000 0.500000
vt 0.394762 0.245933
vt 0.500000 0.225000
vt 0.754067 0.394762
vt 0.775000 0.500000
vt 0.754067 0.605238
vt 0.610978 0.485000
vt 0.485000 0.294939
vt 0.705061 0.485000
vt 0.294939 0.485000
vt 0.610978 0.767925
vt 0.500000 0.790000
vt 0.294939 0.705061
vt 0.232075 0.610978
vt 0.210000 0.500000
vt 0.389022 0.232075
vt 0.500000 0.210000
vt 0.767925 0.389022
vt 0.790000 0.500000
vt 0.767925 0.610978
vt 0.545000 0.577942
vt 0.500000 0.590000
vt 0.410000 0.500000
vt 0.422058 0.455000
vt 0.545000 0.422058
vt 0.577942 0.455000
s 0
f 2/1/1 3/2/1 1/3/1
f 4/4/2 5/5/2 3/2/2
f 6/6/3 7/7/3 5/8/3
f 8/9/4 9/10/4 7/7/4
f 10/11/5 11/12/5 9/10/5
f 12/13/6 13/14/6 11/12/6
f 14/15/7 15/16/7 13/17/7
f 16/4/8 17/18/8 15/16/8
f 18/1/9 19/19/9 17/18/9
f 20/20/10 21/21/10 19/19/10
f 22/22/11 23/12/11 21/14/11
f 24/13/12 25/10/12 23/12/12
f 26/11/13 27/7/13 25/10/13
f 28/9/14 29/8/14 27/7/14
f 22/23/15 14/24/15 6/25/15
f 30/26/16 31/27/16 29/28/16
f 32/20/17 1/3/17 31/27/17
f 15/29/18 23/30/18 31/31/18
f 34/32/1 35/33/1 33/34/1
f 35/33/2 38/35/2 37/36/2
f 38/37/3 39/38/3 37/39/3
f 40/40/4 41/41/4 39/38/4
f 42/42/5 43/43/5 41/41/5
f 44/44/6 45/45/6 43/43/6
f 45/36/7 48/46/7 47/33/7
f 48/46/8 49/34/8 47/33/8
f 50/47/9 51/48/9 49/34/9
f 52/49/10 53/50/10 51/48/10
f 53/45/11 56/44/11 55/43/11
f 56/44/12 57/41/12 55/43/12
f 58/42/13 59/38/13 57/41/13
f 59/38/14 62/37/14 61/39/14
f 54/51/15 46/52/15 38/53/15
f 62/54/16 63/48/16 61/50/16
f 64/55/17 33/34/17 63/48/17
f 47/56/18 55/57/18 63/58/18
f 66/59/19 67/60/19 65/61/19
f 68/62/20 69/63/20 67/60/20
f 70/64/21 71/65/21 69/66/21
f 72/67/22 73/68/22 71/65/22
f 74/69/23 75/60/23 73/63/23
f 76/62/24 77/61/24 75/60/24
f 78/59/25 79/70/25 77/61/25
f 79/70/26 82/71/26 81/72/26
f 82/73/27 83/65/27 81/68/27
f 83/65/28 86/64/28 85/66/28
f 86/74/15 78/75/15 70/76/15
f 85/72/29 88/77/29 87/70/29
f 88/77/30 65/61/30 87/70/30
f 71/78/18 79/79/18 87/80/18
f 90/81/31 91/82/31 89/83/31
f 92/84/18 95/85/18 91/86/18
f 96/87/32 93/83/32 95/82/32
f 94/88/15 89/86/15 93/85/15
f 95/89/33 89/90/33 91/91/33
f 92/91/34 94/92/34 96/89/34
f 98/93/35 99/94/35 97/95/35
f 100/96/36 103/97/36 99/94/36
f 104/98/37 101/99/37 103/97/37
f 102/100/38 97/95/38 101/99/38
f 103/101/33 97/102/33 99/103/33
f 104/101/34 98/102/34 102/104/34
f 106/87/15 107/83/15 105/82/15
f 108/84/31 111/85/31 107/86/31
f 112/81/18 109/82/18 111/83/18
f 110/88/32 105/86/32 109/85/32
f 111/105/33 105/106/33 107/107/33
f 108/107/34 110/108/34 112/105/34
f 114/100/38 115/97/38 113/99/38
f 116/98/35 119/94/35 115/97/35
f 120/96/36 117/95/36 119/94/36
f 118/93/37 113/99/37 117/95/37
f 115/109/33 117/110/33 113/111/33
f 116/109/34 118/110/34 120/112/34
f 122/87/32 123/83/32 121/82/32
f 124/88/15 127/86/15 123/85/15
f 128/81/31 125/82/31 127/83/31
f 126/84/18 121/85/18 125/86/18
f 127/90/33 121/89/33 123/92/33
f 124/92/34 126/91/34 128/90/34
f 130/100/37 131/97/37 129/99/37
f 132/100/38 135/95/38 131/99/38
f 136/96/35 133/95/35 135/94/35
f 134/96/36 129/97/36 133/94/36
f 135/102/33 129/101/33 131/104/33
f 132/104/34 134/103/34 136/102/34
f 138/81/18 139/82/18 137/83/18
f 140/88/32 143/86/32 139/85/32
f 144/87/15 141/83/15 143/82/15
f 142/84/31 137/85/31 141/86/31
f 143/106/33 137/105/33 139/108/33
f 140/108/34 142/107/34 144/106/34
f 146/96/36 147/95/36 145/94/36
f 148/100/37 151/95/37 147/99/37
f 152/100/38 149/97/38 151/99/38
f 150/96/35 145/97/35 149/94/35
f 147/110/33 149/109/33 145/112/33
f 148/110/34 150/109/34 152/111/34
f 2/1/1 4/4/1 3/2/1
f 4/4/2 6/15/2 5/5/2
f 6/6/3 8/9/3 7/7/3
f 8/9/4 10/11/4 9/10/4
f 10/11/5 12/13/5 11/12/5
f 12/13/6 14/22/6 13/14/6
f 14/15/7 16/4/7 15/16/7
f 16/4/8 18/1/8 17/18/8
f 18/1/9 20/20/9 19/19/9
f 20/20/10 22/26/10 21/21/10
f 22/22/11 24/13/11 23/12/11
f 24/13/12 26/11/12 25/10/12
f 26/11/13 28/9/13 27/7/13
f 28/9/14 30/6/14 29/8/14
f 6/25/15 4/113/15 2/114/15
f 2/114/15 32/31/15 30/115/15
f 30/115/15 28/116/15 26/117/15
f 26/117/15 24/30/15 22/23/15
f 22/23/15 20/118/15 18/119/15
f 18/119/15 16/29/15 14/24/15
f 14/24/15 12/120/15 10/121/15
f 10/121/15 8/122/15 6/25/15
f 6/25/15 2/114/15 30/115/15
f 30/115/15 26/117/15 22/23/15
f 22/23/15 18/119/15 14/24/15
f 14/24/15 10/121/15 6/25/15
f 6/25/15 30/115/15 22/23/15
f 30/26/16 32/20/16 31/27/16
f 32/20/17 2/1/17 1/3/17
f 31/31/18 1/114/18 3/113/18
f 3/113/18 5/25/18 7/122/18
f 7/122/18 9/121/18 11/120/18
f 11/120/18 13/24/18 15/29/18
f 15/29/18 17/119/18 19/118/18
f 19/118/18 21/23/18 23/30/18
f 23/30/18 25/117/18 27/116/18
f 27/116/18 29/115/18 31/31/18
f 31/31/18 3/113/18 7/122/18
f 7/122/18 11/120/18 15/29/18
f 15/29/18 19/118/18 23/30/18
f 23/30/18 27/116/18 31/31/18
f 31/31/18 7/122/18 15/29/18
f 34/32/1 36/123/1 35/33/1
f 35/33/2 36/123/2 38/35/2
f 38/37/3 40/40/3 39/38/3
f 40/40/4 42/42/4 41/41/4
f 42/42/5 44/44/5 43/43/5
f 44/44/6 46/124/6 45/45/6
f 45/36/7 46/125/7 48/46/7
f 48/46/8 50/47/8 49/34/8
f 50/47/9 52/49/9 51/48/9
f 52/49/10 54/126/10 53/50/10
f 53/45/11 54/124/11 56/44/11
f 56/44/12 58/42/12 57/41/12
f 58/42/13 60/40/13 59/38/13
f 59/38/14 60/40/14 62/37/14
f 38/53/15 36/127/15 34/128/15
f 34/128/15 64/58/15 62/129/15
f 62/129/15 60/130/15 58/131/15
f 58/131/15 56/57/15 54/51/15
f 54/51/15 52/132/15 50/133/15
f 50/133/15 48/56/15 46/52/15
f 46/52/15 44/134/15 42/135/15
f 42/135/15 40/136/15 38/53/15
f 38/53/15 34/128/15 62/129/15
f 62/129/15 58/131/15 54/51/15
f 54/51/15 50/133/15 46/52/15
f 46/52/15 42/135/15 38/53/15
f 38/53/15 62/129/15 54/51/15
f 62/54/16 64/55/16 63/48/16
f 64/55/17 34/32/17 33/34/17
f 63/58/18 33/128/18 35/127/18
f 35/127/18 37/53/18 39/136/18
f 39/136/18 41/135/18 43/134/18
f 43/134/18 45/52/18 47/56/18
f 47/56/18 49/133/18 51/132/18
f 51/132/18 53/51/18 55/57/18
f 55/57/18 57/131/18 59/130/18
f 59/130/18 61/129/18 63/58/18
f 63/58/18 35/127/18 39/136/18
f 39/136/18 43/134/18 47/56/18
f 47/56/18 51/132/18 55/57/18
f 55/57/18 59/130/18 63/58/18
f 63/58/18 39/136/18 47/56/18
f 66/59/19 68/62/19 67/60/19
f 68/62/20 70/69/20 69/63/20
f 70/64/21 72/67/21 71/65/21
f 72/67/22 74/73/22 73/68/22
f 74/69/23 76/62/23 75/60/23
f 76/62/24 78/59/24 77/61/24
f 78/59/25 80/77/25 79/70/25
f 79/70/26 80/77/26 82/71/26
f 82/73/27 84/67/27 83/65/27
f 83/65/28 84/67/28 86/64/28
f 70/76/15 68/137/15 66/138/15
f 66/138/15 88/80/15 86/74/15
f 86/74/15 84/139/15 82/140/15
f 82/140/15 80/79/15 78/75/15
f 78/75/15 76/141/15 74/142/15
f 74/142/15 72/78/15 70/76/15
f 70/76/15 66/138/15 86/74/15
f 86/74/15 82/140/15 78/75/15
f 78/75/15 74/142/15 70/76/15
f 85/72/29 86/71/29 88/77/29
f 88/77/30 66/59/30 65/61/30
f 87/80/18 65/138/18 67/137/18
f 67/137/18 69/76/18 71/78/18
f 71/78/18 73/142/18 75/141/18
f 75/141/18 77/75/18 79/79/18
f 79/79/18 81/140/18 83/139/18
f 83/139/18 85/74/18 87/80/18
f 87/80/18 67/137/18 71/78/18
f 71/78/18 75/141/18 79/79/18
f 79/79/18 83/139/18 87/80/18
f 90/81/31 92/87/31 91/82/31
f 92/84/18 96/88/18 95/85/18
f 96/87/32 94/81/32 93/83/32
f 94/88/15 90/84/15 89/86/15
f 95/89/33 93/92/33 89/90/33
f 92/91/34 90/90/34 94/92/34
f 98/93/35 100/96/35 99/94/35
f 100/96/36 104/98/36 103/97/36
f 104/98/37 102/100/37 101/99/37
f 102/100/38 98/93/38 97/95/38
f 103/101/33 101/104/33 97/102/33
f 104/101/34 100/103/34 98/102/34
f 106/87/15 108/81/15 107/83/15
f 108/84/31 112/88/31 111/85/31
f 112/81/18 110/87/18 109/82/18
f 110/88/32 106/84/32 105/86/32
f 111/105/33 109/108/33 105/106/33
f 108/107/34 106/106/34 110/108/34
f 114/100/38 116/98/38 115/97/38
f 116/98/35 120/96/35 119/94/35
f 120/96/36 118/93/36 117/95/36
f 118/93/37 114/100/37 113/99/37
f 115/109/33 119/112/33 117/110/33
f 116/109/34 114/111/34 118/110/34
f 122/87/32 124/81/32 123/83/32
f 124/88/15 128/84/15 127/86/15
f 128/81/31 126/87/31 125/82/31
f 126/84/18 122/88/18 121/85/18
f 127/90/33 125/91/33 121/89/33
f 124/92/34 122/89/34 126/91/34
f 130/100/37 132/98/37 131/97/37
f 132/100/38 136/93/38 135/95/38
f 136/96/35 134/93/35 133/95/35
f 134/96/36 130/98/36 129/97/36
f 135/102/33 133/103/33 129/101/33
f 132/104/34 130/101/34 134/103/34
f 138/81/18 140/87/18 139/82/18
f 140/88/32 144/84/32 143/86/32
f 144/87/15 142/81/15 141/83/15
f 142/84/31 138/88/31 137/85/31
f 143/106/33 141/107/33 137/105/33
f 140/108/34 138/105/34 142/107/34
f 146/96/36 148/93/36 147/95/36
f 148/100/37 152/93/37 151/95/37
f 152/100/38 150/98/38 149/97/38
f 150/96/35 146/98/35 145/97/35
f 147/110/33 151/111/33 149/109/33
f 148/110/34 146/112/34 150/109/34
