# Blender 5.2.0 LTS
# www.blender.org
o crest_freetown
v 0.000000 0.550000 -0.060000
v 0.000000 0.550000 0.060000
v 0.210476 0.508134 -0.060000
v 0.210476 0.508134 0.060000
v 0.388909 0.388909 -0.060000
v 0.388909 0.388909 0.060000
v 0.508134 0.210476 -0.060000
v 0.508134 0.210476 0.060000
v 0.550000 0.000000 -0.060000
v 0.550000 -0.000000 0.060000
v 0.508134 -0.210476 -0.060000
v 0.508134 -0.210476 0.060000
v 0.388909 -0.388909 -0.060000
v 0.388909 -0.388909 0.060000
v 0.210476 -0.508134 -0.060000
v 0.210476 -0.508134 0.060000
v 0.000000 -0.550000 -0.060000
v 0.000000 -0.550000 0.060000
v -0.210476 -0.508134 -0.060000
v -0.210476 -0.508134 0.060000
v -0.388909 -0.388909 -0.060000
v -0.388909 -0.388909 0.060000
v -0.508134 -0.210476 -0.060000
v -0.508134 -0.210476 0.060000
v -0.550000 0.000000 -0.060000
v -0.550000 -0.000000 0.060000
v -0.508134 0.210476 -0.060000
v -0.508134 0.210476 0.060000
v -0.388909 0.388909 -0.060000
v -0.388909 0.388909 0.060000
v -0.210476 0.508134 -0.060000
v -0.210476 0.508134 0.060000
v 0.000000 0.580000 -0.030000
v 0.000000 0.580000 0.030000
v 0.221956 0.535850 -0.030000
v 0.221956 0.535850 0.030000
v 0.410122 0.410122 -0.030000
v 0.410122 0.410122 0.030000
v 0.535850 0.221956 -0.030000
v 0.535850 0.221956 0.030000
v 0.580000 0.000000 -0.030000
v 0.580000 -0.000000 0.030000
v 0.535850 -0.221956 -0.030000
v 0.535850 -0.221956 0.030000
v 0.410122 -0.410122 -0.030000
v 0.410122 -0.410122 0.030000
v 0.221956 -0.535850 -0.030000
v 0.221956 -0.535850 0.030000
v 0.000000 -0.580000 -0.030000
v 0.000000 -0.580000 0.030000
v -0.221956 -0.535850 -0.030000
v -0.221956 -0.535850 0.030000
v -0.410122 -0.410122 -0.030000
v -0.410122 -0.410122 0.030000
v -0.535850 -0.221956 -0.030000
v -0.535850 -0.221956 0.030000
v -0.580000 0.000000 -0.030000
v -0.580000 -0.000000 0.030000
v -0.535850 0.221956 -0.030000
v -0.535850 0.221956 0.030000
v -0.410122 0.410122 -0.030000
v -0.410122 0.410122 0.030000
v -0.221956 0.535850 -0.030000
v -0.221956 0.535850 0.030000
v -0.275000 0.150000 0.080000
v -0.275000 0.250000 0.080000
v -0.275000 0.150000 0.020000
v -0.275000 0.250000 0.020000
v 0.275000 0.150000 0.080000
v 0.275000 0.250000 0.080000
v 0.275000 0.150000 0.020000
v 0.275000 0.250000 0.020000
v -0.050000 -0.075000 0.080000
v -0.050000 0.475000 0.080000
v -0.050000 -0.075000 0.020000
v -0.050000 0.475000 0.020000
v 0.050000 -0.075000 0.080000
v 0.050000 0.475000 0.080000
v 0.050000 -0.075000 0.020000
v 0.050000 0.475000 0.020000
vn 0.1951 0.9808 -0.0000
vn 0.5556 0.8315 -0.0000
vn 0.8315 0.5556 -0.0000
vn 0.9808 0.1951 -0.0000
vn 0.9808 -0.1951 -0.0000
vn 0.8315 -0.5556 -0.0000
vn 0.5556 -0.8315 -0.0000
vn 0.1951 -0.9808 -0.0000
vn -0.1951 -0.9808 -0.0000
vn -0.5556 -0.8315 -0.0000
vn -0.8315 -0.5556 -0.0000
vn -0.9808 -0.1951 -0.0000
vn -0.9808 0.1951 -0.0000
vn -0.8315 0.5556 -0.0000
vn -0.0000 -0.0000 1.0000
vn -0.5556 0.8315 -0.0000
vn -0.1951 0.9808 -0.0000
vn -0.0000 -0.0000 -1.0000
vn -1.0000 -0.0000 -0.0000
vn 1.0000 -0.0000 -0.0000
vn -0.0000 -1.0000 -0.0000
vn -0.0000 1.0000 -0.0000
vt 0.500000 0.470000
vt 0.605238 0.530000
vt 0.500000 0.530000
vt 0.605238 0.470000
vt 0.694454 0.530000
vt 0.470000 0.694454
vt 0.530000 0.605238
vt 0.530000 0.694454
vt 0.470000 0.605238
vt 0.530000 0.500000
vt 0.470000 0.500000
vt 0.530000 0.394762
vt 0.470000 0.394762
vt 0.530000 0.305546
vt 0.694454 0.470000
vt 0.605238 0.530000
vt 0.694454 0.530000
vt 0.500000 0.530000
vt 0.394762 0.530000
vt 0.394762 0.470000
vt 0.305546 0.530000
vt 0.470000 0.305546
vt 0.305546 0.305546
vt 0.694454 0.305546
vt 0.694454 0.694454
vt 0.305546 0.470000
vt 0.394762 0.530000
vt 0.305546 0.530000
vt 0.605238 0.245933
vt 0.245933 0.394762
vt 0.394762 0.754067
vt 0.500000 0.485000
vt 0.610978 0.515000
vt 0.500000 0.515000
vt 0.705061 0.485000
vt 0.705061 0.515000
vt 0.485000 0.705061
vt 0.515000 0.610978
vt 0.515000 0.705061
vt 0.485000 0.610978
vt 0.515000 0.500000
vt 0.485000 0.500000
vt 0.515000 0.389022
vt 0.485000 0.389022
vt 0.515000 0.294939
vt 0.610978 0.485000
vt 0.500000 0.485000
vt 0.389022 0.515000
vt 0.389022 0.485000
vt 0.294939 0.515000
vt 0.294939 0.294939
vt 0.705061 0.294939
vt 0.705061 0.705061
vt 0.294939 0.485000
vt 0.389022 0.485000
vt 0.610978 0.232075
vt 0.232075 0.389022
vt 0.389022 0.767925
vt 0.485000 0.525000
vt 0.515000 0.475000
vt 0.485000 0.475000
vt 0.362500 0.525000
vt 0.637500 0.475000
vt 0.362500 0.475000
vt 0.515000 0.525000
vt 0.637500 0.525000
vt 0.637500 0.515000
vt 0.362500 0.485000
vt 0.362500 0.515000
vt 0.637500 0.485000
vt 0.485000 0.637500
vt 0.515000 0.362500
vt 0.485000 0.362500
vt 0.475000 0.637500
vt 0.525000 0.362500
vt 0.475000 0.362500
vt 0.515000 0.637500
vt 0.525000 0.637500
vt 0.525000 0.515000
vt 0.475000 0.485000
vt 0.475000 0.515000
vt 0.525000 0.485000
vt 0.605238 0.754067
vt 0.500000 0.775000
vt 0.305546 0.694454
vt 0.245933 0.605238
vt 0.225000 0.500000
vt 0.394762 0.245933
vt 0.500000 0.225000
vt 0.754067 0.394762
vt 0.775000 0.500000
vt 0.754067 0.605238
vt 0.610978 0.485000
vt 0.485000 0.294939
vt 0.705061 0.485000
vt 0.294939 0.485000
vt 0.610978 0.767925
vt 0.500000 0.790000
vt 0.294939 0.705061
vt 0.232075 0.610978
vt 0.210000 0.500000
vt 0.389022 0.232075
vt 0.500000 0.210000
vt 0.767925 0.389022
vt 0.790000 0.500000
vt 0.767925 0.610978
s 0
f 2/1/1 3/2/1 1/3/1
f 4/4/2 5/5/2 3/2/2
f 6/6/3 7/7/3 5/8/3
f 8/9/4 9/10/4 7/7/4
f 10/11/5 11/12/5 9/10/5
f 12/13/6 13/14/6 11/12/6
f 14/15/7 15/16/7 13/17/7
f 16/4/8 17/18/8 15/16/8
f 18/1/9 19/19/9 17/18/9
f 20/20/10 21/21/10 19/19/10
f 22/22/11 23/12/11 21/14/11
f 24/13/12 25/10/12 23/12/12
f 26/11/13 27/7/13 25/10/13
f 28/9/14 29/8/14 27/7/14
f 22/23/15 14/24/15 6/25/15
f 30/26/16 31/27/16 29/28/16
f 32/20/17 1/3/17 31/27/17
f 15/29/18 23/30/18 31/31/18
f 34/32/1 35/33/1 33/34/1
f 35/33/2 38/35/2 37/36/2
f 38/37/3 39/38/3 37/39/3
f 40/40/4 41/41/4 39/38/4
f 42/42/5 43/43/5 41/41/5
f 44/44/6 45/45/6 43/43/6
f 45/36/7 48/46/7 47/33/7
f 48/46/8 49/34/8 47/33/8
f 50/47/9 51/48/9 49/34/9
f 52/49/10 53/50/10 51/48/10
f 53/45/11 56/44/11 55/43/11
f 56/44/12 57/41/12 55/43/12
f 58/42/13 59/38/13 57/41/13
f 59/38/14 62/37/14 61/39/14
f 54/51/15 46/52/15 38/53/15
f 62/54/16 63/48/16 61/50/16
f 64/55/17 33/34/17 63/48/17
f 47/56/18 55/57/18 63/58/18
f 66/59/19 67/60/19 65/61/19
f 68/62/18 71/63/18 67/64/18
f 72/65/20 69/61/20 71/60/20
f 70/66/15 65/64/15 69/63/15
f 71/67/21 65/68/21 67/69/21
f 68/69/22 70/70/22 72/67/22
f 74/71/19 75/72/19 73/73/19
f 76/74/18 79/75/18 75/76/18
f 80/77/20 77/73/20 79/72/20
f 78/78/15 73/76/15 77/75/15
f 79/79/21 73/80/21 75/81/21
f 76/81/22 78/82/22 80/79/22
f 2/1/1 4/4/1 3/2/1
f 4/4/2 6/15/2 5/5/2
f 6/6/3 8/9/3 7/7/3
f 8/9/4 10/11/4 9/10/4
f 10/11/5 12/13/5 11/12/5
f 12/13/6 14/22/6 13/14/6
f 14/15/7 16/4/7 15/16/7
f 16/4/8 18/1/8 17/18/8
f 18/1/9 20/20/9 19/19/9
f 20/20/10 22/26/10 21/21/10
f 22/22/11 24/13/11 23/12/11
f 24/13/12 26/11/12 25/10/12
f 26/11/13 28/9/13 27/7/13
f 28/9/14 30/6/14 29/8/14
f 6/25/15 4/83/15 2/84/15
f 2/84/15 32/31/15 30/85/15
f 30/85/15 28/86/15 26/87/15
f 26/87/15 24/30/15 22/23/15
f 22/23/15 20/88/15 18/89/15
f 18/89/15 16/29/15 14/24/15
f 14/24/15 12/90/15 10/91/15
f 10/91/15 8/92/15 6/25/15
f 6/25/15 2/84/15 30/85/15
f 30/85/15 26/87/15 22/23/15
f 22/23/15 18/89/15 14/24/15
f 14/24/15 10/91/15 6/25/15
f 6/25/15 30/85/15 22/23/15
f 30/26/16 32/20/16 31/27/16
f 32/20/17 2/1/17 1/3/17
f 31/31/18 1/84/18 3/83/18
f 3/83/18 5/25/18 7/92/18
f 7/92/18 9/91/18 11/90/18
f 11/90/18 13/24/18 15/29/18
f 15/29/18 17/89/18 19/88/18
f 19/88/18 21/23/18 23/30/18
f 23/30/18 25/87/18 27/86/18
f 27/86/18 29/85/18 31/31/18
f 31/31/18 3/83/18 7/92/18
f 7/92/18 11/90/18 15/29/18
f 15/29/18 19/88/18 23/30/18
f 23/30/18 27/86/18 31/31/18
f 31/31/18 7/92/18 15/29/18
f 34/32/1 36/93/1 35/33/1
f 35/33/2 36/93/2 38/35/2
f 38/37/3 40/40/3 39/38/3
f 40/40/4 42/42/4 41/41/4
f 42/42/5 44/44/5 43/43/5
f 44/44/6 46/94/6 45/45/6
f 45/36/7 46/95/7 48/46/7
f 48/46/8 50/47/8 49/34/8
f 50/47/9 52/49/9 51/48/9
f 52/49/10 54/96/10 53/50/10
f 53/45/11 54/94/11 56/44/11
f 56/44/12 58/42/12 57/41/12
f 58/42/13 60/40/13 59/38/13
f 59/38/14 60/40/14 62/37/14
f 38/53/15 36/97/15 34/98/15
f 34/98/15 64/58/15 62/99/15
f 62/99/15 60/100/15 58/101/15
f 58/101/15 56/57/15 54/51/15
f 54/51/15 52/102/15 50/103/15
f 50/103/15 48/56/15 46/52/15
f 46/52/15 44/104/15 42/105/15
f 42/105/15 40/106/15 38/53/15
f 38/53/15 34/98/15 62/99/15
f 62/99/15 58/101/15 54/51/15
f 54/51/15 50/103/15 46/52/15
f 46/52/15 42/105/15 38/53/15
f 38/53/15 62/99/15 54/51/15
f 62/54/16 64/55/16 63/48/16
f 64/55/17 34/32/17 33/34/17
f 63/58/18 33/98/18 35/97/18
f 35/97/18 37/53/18 39/106/18
f 39/106/18 41/105/18 43/104/18
f 43/104/18 45/52/18 47/56/18
f 47/56/18 49/103/18 51/102/18
f 51/102/18 53/51/18 55/57/18
f 55/57/18 57/101/18 59/100/18
f 59/100/18 61/99/18 63/58/18
f 63/58/18 35/97/18 39/106/18
f 39/106/18 43/104/18 47/56/18
f 47/56/18 51/102/18 55/57/18
f 55/57/18 59/100/18 63/58/18
f 63/58/18 39/106/18 47/56/18
f 66/59/19 68/65/19 67/60/19
f 68/62/18 72/66/18 71/63/18
f 72/65/20 70/59/20 69/61/20
f 70/66/15 66/62/15 65/64/15
f 71/67/21 69/70/21 65/68/21
f 68/69/22 66/68/22 70/70/22
f 74/71/19 76/77/19 75/72/19
f 76/74/18 80/78/18 79/75/18
f 80/77/20 78/71/20 77/73/20
f 78/78/15 74/74/15 73/76/15
f 79/79/21 77/82/21 73/80/21
f 76/81/22 74/80/22 78/82/22
