# Blender 5.2.0 LTS
# www.blender.org
o building_wall
v -5.460000 -1.800000 0.710000
v -5.460000 -1.760000 0.750000
v -5.500000 -1.760000 0.710000
v -5.460000 -1.788284 0.738284
v -5.483094 -1.783094 0.733094
v -5.488284 -1.760000 0.738284
v -5.488284 -1.788284 0.710000
v -5.460000 1.760000 0.750000
v -5.460000 1.800000 0.710000
v -5.500000 1.760000 0.710000
v -5.460000 1.788284 0.738284
v -5.483094 1.783094 0.733094
v -5.488284 1.788284 0.710000
v -5.488284 1.760000 0.738284
v -5.460000 -1.800000 -0.710000
v -5.500000 -1.760000 -0.710000
v -5.460000 -1.760000 -0.750000
v -5.488284 -1.788284 -0.710000
v -5.483094 -1.783094 -0.733094
v -5.488284 -1.760000 -0.738284
v -5.460000 -1.788284 -0.738284
v -5.460000 1.800000 -0.710000
v -5.460000 1.760000 -0.750000
v -5.500000 1.760000 -0.710000
v -5.460000 1.788284 -0.738284
v -5.483094 1.783094 -0.733094
v -5.488284 1.760000 -0.738284
v -5.488284 1.788284 -0.710000
v 5.460000 -1.800000 0.710000
v 5.500000 -1.760000 0.710000
v 5.460000 -1.760000 0.750000
v 5.488284 -1.788284 0.710000
v 5.483094 -1.783094 0.733094
v 5.488284 -1.760000 0.738284
v 5.460000 -1.788284 0.738284
v 5.460000 1.800000 0.710000
v 5.460000 1.760000 0.750000
v 5.500000 1.760000 0.710000
v 5.460000 1.788284 0.738284
v 5.483094 1.783094 0.733094
v 5.488284 1.760000 0.738284
v 5.488284 1.788284 0.710000
v 5.460000 -1.800000 -0.710000
v 5.460000 -1.760000 -0.750000
v 5.500000 -1.760000 -0.710000
v 5.460000 -1.788284 -0.738284
v 5.483094 -1.783094 -0.733094
v 5.488284 -1.760000 -0.738284
v 5.488284 -1.788284 -0.710000
v 5.460000 1.800000 -0.710000
v 5.500000 1.760000 -0.710000
v 5.460000 1.760000 -0.750000
v 5.488284 1.788284 -0.710000
v 5.483094 1.783094 -0.733094
v 5.488284 1.760000 -0.738284
v 5.460000 1.788284 -0.738284
v -4.985000 1.475000 0.735000
v -4.985000 1.515000 0.775000
v -5.025000 1.515000 0.735000
v -4.985001 1.486716 0.763284
v -5.008095 1.491906 0.758094
v -5.013285 1.515000 0.763284
v -5.013285 1.486716 0.735000
v -4.985000 2.585000 0.775000
v -4.985000 2.625000 0.735000
v -5.025000 2.585000 0.735000
v -4.985001 2.613284 0.763284
v -5.008095 2.608094 0.758094
v -5.013285 2.613284 0.735000
v -5.013285 2.585000 0.763284
v -4.985000 1.475000 -0.735000
v -5.025000 1.515000 -0.735000
v -4.985000 1.515000 -0.775000
v -5.013285 1.486716 -0.735000
v -5.008095 1.491906 -0.758094
v -5.013285 1.515000 -0.763284
v -4.985001 1.486716 -0.763284
v -4.985000 2.625000 -0.735000
v -4.985000 2.585000 -0.775000
v -5.025000 2.585000 -0.735000
v -4.985001 2.613284 -0.763284
v -5.008095 2.608094 -0.758094
v -5.013285 2.585000 -0.763284
v -5.013285 2.613284 -0.735000
v -4.215000 1.475000 0.735000
v -4.175000 1.515000 0.735000
v -4.215000 1.515000 0.775000
v -4.186716 1.486716 0.735000
v -4.191906 1.491906 0.758094
v -4.186716 1.515000 0.763284
v -4.215000 1.486716 0.763284
v -4.215000 2.625000 0.735000
v -4.215000 2.585000 0.775000
v -4.175000 2.585000 0.735000
v -4.215000 2.613284 0.763284
v -4.191906 2.608094 0.758094
v -4.186716 2.585000 0.763284
v -4.186716 2.613284 0.735000
v -4.215000 1.475000 -0.735000
v -4.215000 1.515000 -0.775000
v -4.175000 1.515000 -0.735000
v -4.215000 1.486716 -0.763284
v -4.191906 1.491906 -0.758094
v -4.186716 1.515000 -0.763284
v -4.186716 1.486716 -0.735000
v -4.215000 2.625000 -0.735000
v -4.175000 2.585000 -0.735000
v -4.215000 2.585000 -0.775000
v -4.186716 2.613284 -0.735000
v -4.191906 2.608094 -0.758094
v -4.186716 2.585000 -0.763284
v -4.215000 2.613284 -0.763284
v -2.685000 1.475000 0.735000
v -2.685000 1.515000 0.775000
v -2.725000 1.515000 0.735000
v -2.685000 1.486716 0.763284
v -2.708094 1.491906 0.758094
v -2.713284 1.515000 0.763284
v -2.713284 1.486716 0.735000
v -2.685000 2.585000 0.775000
v -2.685000 2.625000 0.735000
v -2.725000 2.585000 0.735000
v -2.685000 2.613284 0.763284
v -2.708094 2.608094 0.758094
v -2.713284 2.613284 0.735000
v -2.713284 2.585000 0.763284
v -2.685000 1.475000 -0.735000
v -2.725000 1.515000 -0.735000
v -2.685000 1.515000 -0.775000
v -2.713284 1.486716 -0.735000
v -2.708094 1.491906 -0.758094
v -2.713284 1.515000 -0.763284
v -2.685000 1.486716 -0.763284
v -2.685000 2.625000 -0.735000
v -2.685000 2.585000 -0.775000
v -2.725000 2.585000 -0.735000
v -2.685000 2.613284 -0.763284
v -2.708094 2.608094 -0.758094
v -2.713284 2.585000 -0.763284
v -2.713284 2.613284 -0.735000
v -1.915000 1.475000 0.735000
v -1.875000 1.515000 0.735000
v -1.915000 1.515000 0.775000
v -1.886716 1.486716 0.735000
v -1.891906 1.491906 0.758094
v -1.886716 1.515000 0.763284
v -1.915000 1.486716 0.763284
v -1.915000 2.625000 0.735000
v -1.915000 2.585000 0.775000
v -1.875000 2.585000 0.735000
v -1.915000 2.613284 0.763284
v -1.891906 2.608094 0.758094
v -1.886716 2.585000 0.763284
v -1.886716 2.613284 0.735000
v -1.915000 1.475000 -0.735000
v -1.915000 1.515000 -0.775000
v -1.875000 1.515000 -0.735000
v -1.915000 1.486716 -0.763284
v -1.891906 1.491906 -0.758094
v -1.886716 1.515000 -0.763284
v -1.886716 1.486716 -0.735000
v -1.915000 2.625000 -0.735000
v -1.875000 2.585000 -0.735000
v -1.915000 2.585000 -0.775000
v -1.886716 2.613284 -0.735000
v -1.891906 2.608094 -0.758094
v -1.886716 2.585000 -0.763284
v -1.915000 2.613284 -0.763284
v -0.385000 1.475000 0.735000
v -0.385000 1.515000 0.775000
v -0.425000 1.515000 0.735000
v -0.385000 1.486716 0.763284
v -0.408094 1.491906 0.758094
v -0.413284 1.515000 0.763284
v -0.413284 1.486716 0.735000
v -0.385000 2.585000 0.775000
v -0.385000 2.625000 0.735000
v -0.425000 2.585000 0.735000
v -0.385000 2.613284 0.763284
v -0.408094 2.608094 0.758094
v -0.413284 2.613284 0.735000
v -0.413284 2.585000 0.763284
v -0.385000 1.475000 -0.735000
v -0.425000 1.515000 -0.735000
v -0.385000 1.515000 -0.775000
v -0.413284 1.486716 -0.735000
v -0.408094 1.491906 -0.758094
v -0.413284 1.515000 -0.763284
v -0.385000 1.486716 -0.763284
v -0.385000 2.625000 -0.735000
v -0.385000 2.585000 -0.775000
v -0.425000 2.585000 -0.735000
v -0.385000 2.613284 -0.763284
v -0.408094 2.608094 -0.758094
v -0.413284 2.585000 -0.763284
v -0.413284 2.613284 -0.735000
v 0.385000 1.475000 0.735000
v 0.425000 1.515000 0.735000
v 0.385000 1.515000 0.775000
v 0.413284 1.486716 0.735000
v 0.408094 1.491906 0.758094
v 0.413284 1.515000 0.763284
v 0.385000 1.486716 0.763284
v 0.385000 2.625000 0.735000
v 0.385000 2.585000 0.775000
v 0.425000 2.585000 0.735000
v 0.385000 2.613284 0.763284
v 0.408094 2.608094 0.758094
v 0.413284 2.585000 0.763284
v 0.413284 2.613284 0.735000
v 0.385000 1.475000 -0.735000
v 0.385000 1.515000 -0.775000
v 0.425000 1.515000 -0.735000
v 0.385000 1.486716 -0.763284
v 0.408094 1.491906 -0.758094
v 0.413284 1.515000 -0.763284
v 0.413284 1.486716 -0.735000
v 0.385000 2.625000 -0.735000
v 0.425000 2.585000 -0.735000
v 0.385000 2.585000 -0.775000
v 0.413284 2.613284 -0.735000
v 0.408094 2.608094 -0.758094
v 0.413284 2.585000 -0.763284
v 0.385000 2.613284 -0.763284
v 1.915000 1.475000 0.735000
v 1.915000 1.515000 0.775000
v 1.875000 1.515000 0.735000
v 1.915000 1.486716 0.763284
v 1.891906 1.491906 0.758094
v 1.886716 1.515000 0.763284
v 1.886716 1.486716 0.735000
v 1.915000 2.585000 0.775000
v 1.915000 2.625000 0.735000
v 1.875000 2.585000 0.735000
v 1.915000 2.613284 0.763284
v 1.891906 2.608094 0.758094
v 1.886716 2.613284 0.735000
v 1.886716 2.585000 0.763284
v 1.915000 1.475000 -0.735000
v 1.875000 1.515000 -0.735000
v 1.915000 1.515000 -0.775000
v 1.886716 1.486716 -0.735000
v 1.891906 1.491906 -0.758094
v 1.886716 1.515000 -0.763284
v 1.915000 1.486716 -0.763284
v 1.915000 2.625000 -0.735000
v 1.915000 2.585000 -0.775000
v 1.875000 2.585000 -0.735000
v 1.915000 2.613284 -0.763284
v 1.891906 2.608094 -0.758094
v 1.886716 2.585000 -0.763284
v 1.886716 2.613284 -0.735000
v 2.685000 1.475000 0.735000
v 2.725000 1.515000 0.735000
v 2.685000 1.515000 0.775000
v 2.713284 1.486716 0.735000
v 2.708094 1.491906 0.758094
v 2.713284 1.515000 0.763284
v 2.685000 1.486716 0.763284
v 2.685000 2.625000 0.735000
v 2.685000 2.585000 0.775000
v 2.725000 2.585000 0.735000
v 2.685000 2.613284 0.763284
v 2.708094 2.608094 0.758094
v 2.713284 2.585000 0.763284
v 2.713284 2.613284 0.735000
v 2.685000 1.475000 -0.735000
v 2.685000 1.515000 -0.775000
v 2.725000 1.515000 -0.735000
v 2.685000 1.486716 -0.763284
v 2.708094 1.491906 -0.758094
v 2.713284 1.515000 -0.763284
v 2.713284 1.486716 -0.735000
v 2.685000 2.625000 -0.735000
v 2.725000 2.585000 -0.735000
v 2.685000 2.585000 -0.775000
v 2.713284 2.613284 -0.735000
v 2.708094 2.608094 -0.758094
v 2.713284 2.585000 -0.763284
v 2.685000 2.613284 -0.763284
v 4.215000 1.475000 0.735000
v 4.215000 1.515000 0.775000
v 4.175000 1.515000 0.735000
v 4.215000 1.486716 0.763284
v 4.191906 1.491906 0.758094
v 4.186716 1.515000 0.763284
v 4.186716 1.486716 0.735000
v 4.215000 2.585000 0.775000
v 4.215000 2.625000 0.735000
v 4.175000 2.585000 0.735000
v 4.215000 2.613284 0.763284
v 4.191906 2.608094 0.758094
v 4.186716 2.613284 0.735000
v 4.186716 2.585000 0.763284
v 4.215000 1.475000 -0.735000
v 4.175000 1.515000 -0.735000
v 4.215000 1.515000 -0.775000
v 4.186716 1.486716 -0.735000
v 4.191906 1.491906 -0.758094
v 4.186716 1.515000 -0.763284
v 4.215000 1.486716 -0.763284
v 4.215000 2.625000 -0.735000
v 4.215000 2.585000 -0.775000
v 4.175000 2.585000 -0.735000
v 4.215000 2.613284 -0.763284
v 4.191906 2.608094 -0.758094
v 4.186716 2.585000 -0.763284
v 4.186716 2.613284 -0.735000
v 4.985000 1.475000 0.735000
v 5.025000 1.515000 0.735000
v 4.985000 1.515000 0.775000
v 5.013285 1.486716 0.735000
v 5.008095 1.491906 0.758094
v 5.013285 1.515000 0.763284
v 4.985001 1.486716 0.763284
v 4.985000 2.625000 0.735000
v 4.985000 2.585000 0.775000
v 5.025000 2.585000 0.735000
v 4.985001 2.613284 0.763284
v 5.008095 2.608094 0.758094
v 5.013285 2.585000 0.763284
v 5.013285 2.613284 0.735000
v 4.985000 1.475000 -0.735000
v 4.985000 1.515000 -0.775000
v 5.025000 1.515000 -0.735000
v 4.985001 1.486716 -0.763284
v 5.008095 1.491906 -0.758094
v 5.013285 1.515000 -0.763284
v 5.013285 1.486716 -0.735000
v 4.985000 2.625000 -0.735000
v 5.025000 2.585000 -0.735000
v 4.985000 2.585000 -0.775000
v 5.013285 2.613284 -0.735000
v 5.008095 2.608094 -0.758094
v 5.013285 2.585000 -0.763284
v 4.985001 2.613284 -0.763284
v -1.010000 -1.600000 -0.790000
v -1.010000 -1.560000 -0.750000
v -1.050000 -1.560000 -0.790000
v -1.010000 -1.588284 -0.761716
v -1.033094 -1.583094 -0.766906
v -1.038284 -1.560000 -0.761716
v -1.038284 -1.588284 -0.790000
v -1.010000 0.560000 -0.750000
v -1.010000 0.600000 -0.790000
v -1.050000 0.560000 -0.790000
v -1.010000 0.588284 -0.761716
v -1.033094 0.583094 -0.766906
v -1.038284 0.588284 -0.790000
v -1.038284 0.560000 -0.761716
v -1.010000 -1.600000 -0.910000
v -1.050000 -1.560000 -0.910000
v -1.010000 -1.560000 -0.950000
v -1.038284 -1.588284 -0.910000
v -1.033094 -1.583094 -0.933094
v -1.038284 -1.560000 -0.938284
v -1.010000 -1.588284 -0.938284
v -1.010000 0.600000 -0.910000
v -1.010000 0.560000 -0.950000
v -1.050000 0.560000 -0.910000
v -1.010000 0.588284 -0.938284
v -1.033094 0.583094 -0.933094
v -1.038284 0.560000 -0.938284
v -1.038284 0.588284 -0.910000
v 1.010000 -1.600000 -0.790000
v 1.050000 -1.560000 -0.790000
v 1.010000 -1.560000 -0.750000
v 1.038284 -1.588284 -0.790000
v 1.033094 -1.583094 -0.766906
v 1.038284 -1.560000 -0.761716
v 1.010000 -1.588284 -0.761716
v 1.010000 0.600000 -0.790000
v 1.010000 0.560000 -0.750000
v 1.050000 0.560000 -0.790000
v 1.010000 0.588284 -0.761716
v 1.033094 0.583094 -0.766906
v 1.038284 0.560000 -0.761716
v 1.038284 0.588284 -0.790000
v 1.010000 -1.600000 -0.910000
v 1.010000 -1.560000 -0.950000
v 1.050000 -1.560000 -0.910000
v 1.010000 -1.588284 -0.938284
v 1.033094 -1.583094 -0.933094
v 1.038284 -1.560000 -0.938284
v 1.038284 -1.588284 -0.910000
v 1.010000 0.600000 -0.910000
v 1.050000 0.560000 -0.910000
v 1.010000 0.560000 -0.950000
v 1.038284 0.588284 -0.910000
v 1.033094 0.583094 -0.933094
v 1.038284 0.560000 -0.938284
v 1.010000 0.588284 -0.938284
vn -0.1794 -0.9673 0.1794
vn -0.3251 -0.8881 0.3251
vn -0.3791 -0.9152 0.1369
vn -0.1794 -0.1794 0.9673
vn -0.3251 -0.3251 0.8881
vn -0.1369 -0.3791 0.9152
vn -0.9673 -0.1794 0.1794
vn -0.8881 -0.3251 0.3251
vn -0.9152 -0.1369 0.3791
vn -0.1794 0.1794 0.9673
vn -0.3251 0.3251 0.8881
vn -0.3791 0.1369 0.9152
vn -0.1794 0.9673 0.1794
vn -0.3251 0.8881 0.3251
vn -0.1369 0.9152 0.3791
vn -0.9673 0.1794 0.1794
vn -0.8881 0.3251 0.3251
vn -0.9152 0.3791 0.1368
vn -0.1794 -0.9673 -0.1794
vn -0.3251 -0.8881 -0.3251
vn -0.1369 -0.9152 -0.3791
vn -0.9673 -0.1794 -0.1794
vn -0.8881 -0.3251 -0.3251
vn -0.9152 -0.3791 -0.1368
vn -0.1794 -0.1794 -0.9673
vn -0.3251 -0.3251 -0.8881
vn -0.3791 -0.1369 -0.9152
vn -0.1794 0.9673 -0.1794
vn -0.3251 0.8881 -0.3251
vn -0.3791 0.9152 -0.1369
vn -0.1794 0.1794 -0.9673
vn -0.3251 0.3251 -0.8881
vn -0.1369 0.3791 -0.9152
vn -0.9673 0.1794 -0.1794
vn -0.8881 0.3251 -0.3251
vn -0.9152 0.1369 -0.3791
vn 0.1794 -0.9673 0.1794
vn 0.3251 -0.8881 0.3251
vn 0.1369 -0.9152 0.3791
vn 0.9673 -0.1794 0.1794
vn 0.8881 -0.3251 0.3251
vn 0.9152 -0.3791 0.1368
vn 0.1794 -0.1794 0.9673
vn 0.3251 -0.3251 0.8881
vn 0.3791 -0.1369 0.9152
vn 0.1794 0.9673 0.1794
vn 0.3251 0.8881 0.3251
vn 0.3791 0.9152 0.1369
vn 0.1794 0.1794 0.9673
vn 0.3251 0.3251 0.8881
vn 0.1369 0.3791 0.9152
vn 0.9673 0.1794 0.1794
vn 0.8881 0.3251 0.3251
vn 0.9152 0.1369 0.3791
vn 0.1794 -0.9673 -0.1794
vn 0.3251 -0.8881 -0.3251
vn 0.3791 -0.9152 -0.1369
vn 0.1794 -0.1794 -0.9673
vn 0.3251 -0.3251 -0.8881
vn 0.1369 -0.3791 -0.9152
vn 0.9673 -0.1794 -0.1794
vn 0.8881 -0.3251 -0.3251
vn 0.9152 -0.1369 -0.3791
vn 0.1794 0.9673 -0.1794
vn 0.3251 0.8881 -0.3251
vn 0.1369 0.9152 -0.3791
vn 0.9673 0.1794 -0.1794
vn 0.8881 0.3251 -0.3251
vn 0.9152 0.3791 -0.1368
vn 0.1794 0.1794 -0.9673
vn 0.3251 0.3251 -0.8881
vn 0.3791 0.1369 -0.9152
vn -0.8881 -0.3250 0.3250
vn -0.9152 -0.1368 0.3791
vn -0.8881 0.3250 0.3250
vn -0.8881 -0.3250 -0.3250
vn -0.8881 0.3250 -0.3250
vn -0.9152 0.1368 -0.3791
vn 0.9152 -0.3791 0.1369
vn 0.1368 0.3791 0.9152
vn 0.9152 0.1368 0.3791
vn 0.9152 0.3791 -0.1369
vn -0.9152 0.3791 0.1369
vn -0.9152 -0.3791 -0.1369
vn -0.1368 0.3791 -0.9152
vn 0.8881 -0.3250 0.3250
vn 0.8881 0.3250 0.3250
vn 0.8881 -0.3250 -0.3250
vn 0.9152 -0.1368 -0.3791
vn 0.8881 0.3250 -0.3250
vn -0.3791 -0.9152 -0.1369
vn -0.9152 -0.3791 0.1368
vn -0.3791 -0.1369 0.9152
vn -0.9152 0.1368 0.3791
vn -0.3791 0.9152 0.1369
vn -0.9152 0.3791 -0.1368
vn -0.3791 0.1369 -0.9152
vn -0.9152 -0.1368 -0.3791
vn 0.1369 -0.9152 -0.3791
vn -0.1369 -0.3791 -0.9152
vn -0.1369 0.9152 -0.3791
vn 0.1369 0.3791 -0.9152
vn 0.9152 0.1368 -0.3791
vn 0.3791 -0.1369 -0.9152
vn 0.3791 -0.9152 0.1369
vn 0.9152 -0.3791 -0.1368
vn 0.3791 0.9152 -0.1369
vn 0.9152 0.3791 0.1368
vn 0.3791 0.1369 0.9152
vn 0.9152 -0.1368 0.3791
vn -0.1369 -0.9152 0.3791
vn 0.1369 -0.3791 0.9152
vn 0.1369 0.9152 0.3791
vn -0.1369 0.3791 0.9152
vn 0.1368 0.3791 -0.9152
vn 0.9152 -0.3791 -0.1369
vn 0.9152 0.3791 0.1369
vn -0.9152 -0.3791 0.1369
vn -0.9152 0.1369 0.3791
vn -0.9152 0.3791 -0.1369
vn -0.9152 -0.1369 -0.3791
vn 0.9152 0.1369 -0.3791
vn 0.9152 -0.1369 0.3791
vn -0.1368 0.3791 0.9152
vt -0.865000 0.322500
vt -0.870773 0.312500
vt -0.875000 0.322500
vt -0.865000 0.060000
vt -0.875000 0.054227
vt -0.865000 0.050000
vt 0.322500 0.060000
vt 0.316727 0.050000
vt 0.312500 0.060000
vt -0.865000 0.940000
vt -0.870773 0.950000
vt -0.875000 0.940000
vt -0.865000 0.322500
vt -0.875000 0.316727
vt -0.865000 0.312500
vt 0.322500 0.940000
vt 0.312500 0.945773
vt 0.322500 0.950000
vt -0.865000 0.677500
vt -0.875000 0.683273
vt -0.865000 0.687500
vt 0.677500 0.060000
vt 0.687500 0.054227
vt 0.677500 0.050000
vt -0.870773 0.050000
vt -0.875000 0.060000
vt -0.870773 0.687500
vt -0.875000 0.677500
vt -0.865000 0.940000
vt -0.875000 0.945773
vt -0.865000 0.950000
vt 0.677500 0.940000
vt 0.683273 0.950000
vt 0.687500 0.940000
vt 1.865000 0.322500
vt 1.875000 0.316727
vt 1.865000 0.312500
vt 0.312500 0.054227
vt 0.322500 0.050000
vt 1.865000 0.060000
vt 1.870774 0.050000
vt 1.875000 0.060000
vt 1.865000 0.322500
vt 1.870774 0.312500
vt 1.875000 0.322500
vt 1.865000 0.940000
vt 1.875000 0.945773
vt 1.865000 0.950000
vt 0.316727 0.950000
vt 0.312500 0.940000
vt 1.865000 0.677500
vt 1.870774 0.687500
vt 1.875000 0.677500
vt 1.875000 0.054227
vt 1.865000 0.050000
vt 0.683273 0.050000
vt 0.687500 0.060000
vt 1.875000 0.683273
vt 1.865000 0.687500
vt 0.687500 0.945773
vt 0.677500 0.950000
vt 1.865000 0.940000
vt 1.870774 0.950000
vt 1.875000 0.940000
vt 0.115000 -0.235000
vt 0.091905 -0.275000
vt 0.075000 -0.235000
vt 0.115000 -0.035000
vt 0.075000 -0.058094
vt 0.114999 -0.075000
vt -0.235000 -0.035000
vt -0.258094 -0.075000
vt -0.275000 -0.035000
vt 0.115000 1.035000
vt 0.091905 1.075000
vt 0.075000 1.035000
vt 0.115000 -0.235000
vt 0.075000 -0.258094
vt 0.114999 -0.275000
vt -0.235000 1.035000
vt -0.275000 1.058094
vt -0.235000 1.075000
vt 0.115000 1.235000
vt 0.075000 1.258094
vt 0.114999 1.275000
vt 1.235000 -0.035000
vt 1.275000 -0.058094
vt 1.235000 -0.075000
vt 0.115000 -0.035000
vt 0.091905 -0.075000
vt 0.075000 -0.035000
vt 0.115000 1.235000
vt 0.091905 1.275000
vt 0.075000 1.235000
vt 0.115000 1.035000
vt 0.075000 1.058094
vt 0.114999 1.075000
vt 1.235000 1.035000
vt 1.258094 1.075000
vt 1.275000 1.035000
vt 0.885000 -0.235000
vt 0.925000 -0.258094
vt 0.885000 -0.275000
vt -0.235000 -0.035000
vt -0.275000 -0.058094
vt -0.235000 -0.075000
vt 0.885000 -0.035000
vt 0.908094 -0.075000
vt 0.925000 -0.035000
vt 0.885000 -0.235000
vt 0.908094 -0.275000
vt 0.925000 -0.235000
vt 0.885000 1.035000
vt 0.925000 1.058094
vt 0.885000 1.075000
vt -0.235000 1.035000
vt -0.258094 1.075000
vt -0.275000 1.035000
vt 0.885000 1.235000
vt 0.908094 1.275000
vt 0.925000 1.235000
vt 0.885000 -0.035000
vt 0.925000 -0.058094
vt 0.885000 -0.075000
vt 1.258094 -0.075000
vt 1.275000 -0.035000
vt 0.885000 1.235000
vt 0.925000 1.258094
vt 0.885000 1.275000
vt 1.235000 1.035000
vt 1.275000 1.058094
vt 1.235000 1.075000
vt 0.885000 1.035000
vt 0.908094 1.075000
vt 0.925000 1.035000
vt 0.115000 -0.235000
vt 0.091906 -0.275000
vt 0.115000 -0.035000
vt 0.115000 -0.075000
vt 0.115000 1.035000
vt 0.091906 1.075000
vt 0.115000 -0.235000
vt 0.115000 -0.275000
vt 0.115000 1.235000
vt 0.115000 1.275000
vt 0.091906 -0.075000
vt 0.115000 1.235000
vt 0.091906 1.275000
vt 0.115000 1.035000
vt 0.115000 1.075000
vt 0.885000 -0.235000
vt 0.885000 -0.275000
vt 0.908094 -0.075000
vt 0.908094 -0.275000
vt 0.885000 1.075000
vt 0.908094 1.275000
vt 0.885000 -0.075000
vt 0.885000 1.275000
vt 0.908094 1.075000
vt 0.115000 -0.235000
vt 0.091906 -0.275000
vt 0.115000 -0.035000
vt 0.115000 -0.075000
vt 0.115000 1.035000
vt 0.091906 1.075000
vt 0.115000 -0.235000
vt 0.115000 -0.275000
vt 0.115000 1.235000
vt 0.115000 1.275000
vt 0.115000 -0.035000
vt 0.091906 -0.075000
vt 0.115000 1.235000
vt 0.091906 1.275000
vt 0.115000 1.035000
vt 0.115000 1.075000
vt 0.885000 -0.275000
vt 0.885000 -0.035000
vt 0.908094 -0.075000
vt 0.885000 -0.235000
vt 0.908094 -0.275000
vt 0.885000 1.075000
vt 0.885000 1.235000
vt 0.908094 1.275000
vt 0.885000 -0.075000
vt 0.885000 1.235000
vt 0.885000 1.275000
vt 0.908094 1.075000
vt 0.091906 -0.275000
vt 0.115000 -0.075000
vt 0.091906 1.075000
vt 0.115000 -0.275000
vt 0.115000 1.275000
vt 0.091906 -0.075000
vt 0.091906 1.275000
vt 0.115000 1.075000
vt 0.885000 -0.275000
vt 0.885000 1.075000
vt 0.885000 -0.075000
vt 0.885000 1.275000
vt 0.115000 -0.075000
vt 0.115000 -0.275000
vt 0.115000 1.275000
vt 0.115000 1.075000
vt 0.885001 -0.275000
vt 0.908095 -0.075000
vt 0.908095 -0.275000
vt 0.885001 1.075000
vt 0.908095 1.275000
vt 0.885001 -0.075000
vt 0.885001 1.275000
vt 0.908095 1.075000
vt -0.341667 0.450000
vt -0.360912 0.416667
vt -0.375000 0.450000
vt -0.341667 -0.383333
vt -0.375000 -0.402578
vt -0.341667 -0.416667
vt 0.450000 -0.383333
vt 0.430755 -0.416667
vt 0.416667 -0.383333
vt -0.341667 1.383333
vt -0.360912 1.416667
vt -0.375000 1.383333
vt -0.341667 0.450000
vt -0.375000 0.430755
vt -0.341667 0.416667
vt 0.450000 1.383333
vt 0.416667 1.402578
vt 0.450000 1.416667
vt -0.341667 0.550000
vt -0.375000 0.569245
vt -0.341667 0.583333
vt 0.550000 -0.383333
vt 0.583333 -0.402578
vt 0.550000 -0.416667
vt -0.341667 -0.383333
vt -0.360912 -0.416667
vt -0.375000 -0.383334
vt -0.341667 0.550000
vt -0.360912 0.583333
vt -0.375000 0.550000
vt -0.341667 1.383333
vt -0.375000 1.402578
vt -0.341667 1.416667
vt 0.550000 1.383333
vt 0.569245 1.416667
vt 0.583333 1.383333
vt 1.341667 0.450000
vt 1.375000 0.430755
vt 1.341667 0.416667
vt 0.416667 -0.402578
vt 0.450000 -0.416667
vt 1.341667 -0.383333
vt 1.360912 -0.416667
vt 1.375000 -0.383334
vt 1.341667 0.450000
vt 1.360912 0.416667
vt 1.375000 0.450000
vt 1.341667 1.383333
vt 1.375000 1.402578
vt 1.341667 1.416667
vt 0.430755 1.416667
vt 0.416667 1.383333
vt 1.341667 0.550000
vt 1.360912 0.583333
vt 1.375000 0.550000
vt 1.341667 -0.383333
vt 1.375000 -0.402578
vt 1.341667 -0.416667
vt 0.569245 -0.416667
vt 0.583333 -0.383334
vt 1.341667 0.550000
vt 1.375000 0.569245
vt 1.341667 0.583333
vt 0.583333 1.402578
vt 0.550000 1.416667
vt 1.360912 1.416667
vt 1.375000 1.383333
vt -0.875000 0.060000
vt -0.875000 0.940000
vt 0.687500 0.060000
vt 1.875000 0.060000
vt 0.312500 0.060000
vt -0.235000 -0.075000
vt 0.075000 -0.035000
vt 0.075000 -0.235000
vt 1.235000 1.075000
vt 1.275000 -0.035000
vt 0.885000 1.275000
vt 0.114999 1.275000
vt 0.885000 1.075000
vt 0.925000 -0.035000
vt 0.925000 -0.235000
vt 1.235000 -0.075000
vt -0.235000 1.075000
vt -0.275000 -0.035000
vt 0.114999 -0.275000
vt 0.885000 -0.075000
vt 0.885000 -0.275000
vt 0.885000 1.275000
vt 0.115000 -0.075000
vt 0.115000 1.275000
vt 0.115000 -0.275000
vt 0.885000 -0.075000
vt 0.885001 1.275000
vt 0.115000 -0.075000
vt 0.115000 1.275000
vt 0.115000 -0.275000
vt 0.885001 -0.275000
vt 0.115000 1.075000
vt -0.375000 0.550000
vt -0.375000 -0.383334
vt 0.550000 1.416667
vt 0.583333 -0.383334
vt 1.341667 0.583333
vt -0.341667 -0.416667
vt -0.341667 0.583333
vt 1.341667 1.416667
vt 0.550000 -0.416667
vt 1.375000 0.550000
vt 0.416667 -0.383334
vt -0.341667 0.416667
vt 1.341667 -0.416667
vt 1.341667 0.416667
vt -0.341667 1.416667
vt 0.114999 1.075000
vt 0.114999 -0.075000
vt 0.885001 -0.075000
vt 0.885001 1.075000
vt 0.450000 1.416667
vt 1.375000 -0.383334
s 1
f 1/1/1 5/2/2 7/3/3
f 2/4/4 5/5/5 4/6/6
f 3/7/7 5/8/8 6/9/9
f 8/10/10 12/11/11 14/12/12
f 9/13/13 12/14/14 11/15/15
f 10/16/16 12/17/17 13/18/18
f 15/19/19 19/20/20 21/21/21
f 16/22/22 19/23/23 18/24/24
f 17/4/25 19/25/26 20/26/27
f 22/19/28 26/27/29 28/28/30
f 23/29/31 26/30/32 25/31/33
f 24/32/34 26/33/35 27/34/36
f 29/35/37 33/36/38 35/37/39
f 30/7/40 33/38/41 32/39/42
f 31/40/43 33/41/44 34/42/45
f 36/43/46 40/44/47 42/45/48
f 37/46/49 40/47/50 39/48/51
f 38/16/52 40/49/53 41/50/54
f 43/51/55 47/52/56 49/53/57
f 44/40/58 47/54/59 46/55/60
f 45/22/61 47/56/62 48/57/63
f 50/51/64 54/58/65 56/59/66
f 51/32/67 54/60/68 53/61/69
f 52/62/70 54/63/71 55/64/72
f 57/65/1 61/66/2 63/67/3
f 58/68/4 61/69/5 60/70/6
f 59/71/7 61/72/73 62/73/74
f 64/74/10 68/75/11 70/76/12
f 65/77/13 68/78/14 67/79/15
f 66/80/16 68/81/75 69/82/18
f 71/83/19 75/84/20 77/85/21
f 72/86/22 75/87/76 74/88/24
f 73/89/25 75/90/26 76/91/27
f 78/92/28 82/93/29 84/94/30
f 79/95/31 82/96/32 81/97/33
f 80/98/34 82/99/77 83/100/78
f 85/101/37 89/102/38 91/103/39
f 86/104/40 89/105/41 88/106/79
f 87/107/43 89/108/44 90/109/45
f 92/110/46 96/111/47 98/112/48
f 93/113/49 96/114/50 95/115/80
f 94/116/52 96/117/53 97/118/81
f 99/119/55 103/120/56 105/121/57
f 100/122/58 103/123/59 102/124/60
f 101/86/61 103/125/62 104/126/63
f 106/127/64 110/128/65 112/129/66
f 107/130/67 110/131/68 109/132/82
f 108/133/70 110/134/71 111/135/72
f 113/136/1 117/137/2 119/67/3
f 114/138/4 117/69/5 116/139/6
f 115/71/7 117/72/8 118/73/9
f 120/140/10 124/141/11 126/76/12
f 121/142/13 124/78/14 123/143/15
f 122/80/16 124/81/17 125/82/83
f 127/144/19 131/84/20 133/145/21
f 128/86/22 131/87/23 130/88/84
f 129/138/25 131/146/26 132/91/27
f 134/147/28 138/148/29 140/94/30
f 135/149/31 138/96/32 137/150/33
f 136/98/34 138/99/35 139/100/36
f 141/151/37 145/102/38 147/152/39
f 142/104/40 145/105/41 144/106/79
f 143/107/43 145/153/44 146/109/45
f 148/110/46 152/154/47 154/112/48
f 149/113/49 152/114/50 151/155/51
f 150/116/52 152/117/53 153/118/54
f 155/119/55 159/156/56 161/121/57
f 156/107/58 159/123/59 158/157/60
f 157/86/61 159/125/62 160/126/63
f 162/127/64 166/128/65 168/158/66
f 163/130/67 166/131/68 165/132/82
f 164/113/70 166/159/71 167/135/72
f 169/160/1 173/161/2 175/67/3
f 170/162/4 173/69/5 172/163/6
f 171/71/7 173/72/8 174/73/9
f 176/164/10 180/165/11 182/76/12
f 177/166/13 180/78/14 179/167/15
f 178/80/16 180/81/17 181/82/83
f 183/168/19 187/84/20 189/169/21
f 184/86/22 187/87/23 186/88/84
f 185/170/25 187/171/26 188/91/27
f 190/172/28 194/173/29 196/94/30
f 191/174/31 194/96/32 193/175/33
f 192/98/34 194/99/35 195/100/36
f 197/151/37 201/102/38 203/176/39
f 198/104/40 201/105/41 200/106/79
f 199/177/43 201/178/44 202/109/45
f 204/179/46 208/180/47 210/112/48
f 205/113/49 208/114/50 207/181/51
f 206/116/52 208/117/53 209/118/54
f 211/182/55 215/183/56 217/121/57
f 212/177/58 215/123/59 214/184/60
f 213/86/61 215/125/62 216/126/63
f 218/185/64 222/128/65 224/186/66
f 219/130/67 222/131/68 221/132/82
f 220/113/70 222/187/71 223/135/72
f 225/136/1 229/188/2 231/67/3
f 226/138/4 229/69/5 228/189/6
f 227/71/7 229/72/8 230/73/9
f 232/140/10 236/190/11 238/76/12
f 233/142/13 236/78/14 235/191/15
f 234/80/16 236/81/17 237/82/83
f 239/144/19 243/84/20 245/192/21
f 240/86/22 243/87/23 242/88/84
f 241/138/25 243/193/26 244/91/27
f 246/147/28 250/194/29 252/94/30
f 247/149/31 250/96/32 249/195/33
f 248/98/34 250/99/35 251/100/36
f 253/151/37 257/102/38 259/196/39
f 254/104/40 257/105/41 256/106/79
f 255/107/43 257/108/44 258/109/45
f 260/110/46 264/111/47 266/112/48
f 261/113/49 264/114/50 263/197/51
f 262/116/52 264/117/53 265/118/54
f 267/119/55 271/120/56 273/121/57
f 268/107/58 271/123/59 270/198/60
f 269/86/61 271/125/62 272/126/63
f 274/127/64 278/128/65 280/199/66
f 275/130/67 278/131/68 277/132/82
f 276/113/70 278/134/71 279/135/72
f 281/65/1 285/137/2 287/67/3
f 282/68/4 285/69/5 284/200/6
f 283/71/7 285/72/8 286/73/9
f 288/74/10 292/141/11 294/76/12
f 289/77/13 292/78/14 291/201/15
f 290/80/16 292/81/17 293/82/83
f 295/83/19 299/84/20 301/202/21
f 296/86/22 299/87/23 298/88/84
f 297/89/25 299/146/26 300/91/27
f 302/92/28 306/148/29 308/94/30
f 303/95/31 306/96/32 305/203/85
f 304/98/34 306/99/35 307/100/78
f 309/101/37 313/102/38 315/204/39
f 310/104/40 313/105/86 312/106/42
f 311/107/43 313/205/44 314/109/45
f 316/110/46 320/206/47 322/112/48
f 317/113/49 320/114/50 319/207/51
f 318/116/52 320/117/87 321/118/81
f 323/119/55 327/208/56 329/121/57
f 324/122/58 327/123/59 326/209/60
f 325/86/61 327/125/88 328/126/89
f 330/127/64 334/128/65 336/210/66
f 331/130/67 334/131/90 333/132/69
f 332/133/70 334/211/71 335/135/72
f 337/212/1 341/213/2 343/214/3
f 338/215/4 341/216/5 340/217/6
f 339/218/7 341/219/8 342/220/9
f 344/221/10 348/222/11 350/223/12
f 345/224/13 348/225/14 347/226/15
f 346/227/16 348/228/17 349/229/83
f 351/230/19 355/231/20 357/232/21
f 352/233/22 355/234/23 354/235/84
f 353/236/25 355/237/26 356/238/27
f 358/239/28 362/240/29 364/241/30
f 359/242/31 362/243/32 361/244/33
f 360/245/34 362/246/35 363/247/36
f 365/248/37 369/249/38 371/250/39
f 366/218/40 369/251/41 368/252/79
f 367/253/43 369/254/44 370/255/45
f 372/256/46 376/257/47 378/258/48
f 373/259/49 376/260/50 375/261/51
f 374/227/52 376/262/53 377/263/54
f 379/264/55 383/265/56 385/266/57
f 380/267/58 383/268/59 382/269/60
f 381/233/61 383/270/62 384/271/63
f 386/272/64 390/273/65 392/274/66
f 387/245/67 390/275/68 389/276/82
f 388/259/70 390/277/71 391/278/72
f 1/1/1 18/28/91 15/19/19
f 7/39/92 16/22/22 18/24/24
f 8/10/10 6/279/93 2/4/4
f 14/50/94 3/7/7 6/9/9
f 22/19/28 13/3/95 9/13/13
f 28/61/96 10/16/16 13/18/18
f 17/4/25 27/280/97 23/29/31
f 20/281/98 24/32/34 27/34/36
f 15/19/19 46/59/99 43/51/55
f 21/6/100 44/40/58 46/55/60
f 50/51/64 25/21/101 22/19/28
f 56/48/102 23/29/31 25/31/33
f 45/22/61 55/34/103 51/32/67
f 48/282/104 52/62/70 55/64/72
f 43/51/55 32/45/105 29/35/37
f 49/24/106 30/7/40 32/39/42
f 36/43/46 53/53/107 50/51/64
f 42/18/108 51/32/67 53/61/69
f 31/40/43 41/64/109 37/46/49
f 34/283/110 38/16/52 41/50/54
f 29/35/37 4/15/111 1/1/1
f 35/55/112 2/4/4 4/6/6
f 9/13/13 39/37/113 36/43/46
f 11/31/114 37/46/49 39/48/51
f 57/65/1 74/94/91 71/83/19
f 63/284/92 72/86/22 74/88/24
f 64/74/10 62/285/93 58/68/4
f 70/118/94 59/71/7 62/73/74
f 78/92/28 69/286/95 65/77/13
f 84/287/96 66/80/16 69/82/18
f 73/89/25 83/76/97 79/95/31
f 76/288/98 80/98/34 83/100/78
f 71/83/19 102/289/99 99/119/55
f 102/124/60 73/89/25 100/122/58
f 78/92/28 112/129/66 81/290/101
f 112/291/115 79/95/31 81/97/33
f 101/86/61 111/100/103 107/130/67
f 104/292/104 108/133/70 111/135/72
f 99/119/55 88/293/105 85/101/37
f 105/294/116 86/104/40 88/106/79
f 92/110/46 109/121/107 106/127/64
f 98/295/117 107/130/67 109/132/82
f 87/107/43 97/135/109 93/113/49
f 90/296/110 94/116/52 97/118/81
f 57/65/1 91/103/39 60/297/111
f 91/298/112 58/68/4 60/70/6
f 65/77/13 95/299/113 92/110/46
f 95/115/80 64/74/10 93/113/49
f 113/136/1 130/94/91 127/144/19
f 119/284/118 128/86/22 130/88/84
f 120/140/10 118/285/93 114/138/4
f 126/118/119 115/71/7 118/73/9
f 134/147/28 125/286/95 121/142/13
f 140/287/120 122/80/16 125/82/83
f 129/138/25 139/76/97 135/149/31
f 132/288/121 136/98/34 139/100/36
f 155/119/55 133/145/21 158/300/99
f 133/139/100 156/107/58 158/157/60
f 162/127/64 137/145/101 134/147/28
f 137/150/33 164/113/70 135/149/31
f 157/86/61 167/100/122 163/130/67
f 160/292/104 164/113/70 167/135/72
f 155/119/55 144/293/105 141/151/37
f 161/294/116 142/104/40 144/106/79
f 148/110/46 165/121/107 162/127/64
f 154/295/117 163/130/67 165/132/82
f 143/107/43 153/135/109 149/113/49
f 146/296/123 150/116/52 153/118/54
f 141/151/37 116/143/111 113/136/1
f 116/139/6 143/107/43 114/138/4
f 148/110/46 123/143/15 151/176/113
f 123/150/114 149/113/49 151/155/51
f 169/160/1 186/94/91 183/168/19
f 175/284/118 184/86/22 186/88/84
f 176/164/10 174/285/93 170/162/4
f 182/118/119 171/71/7 174/73/9
f 190/172/28 181/286/95 177/166/13
f 196/287/120 178/80/16 181/82/83
f 185/170/25 195/76/97 191/174/31
f 188/288/121 192/98/34 195/100/36
f 183/168/19 214/300/99 211/182/55
f 189/301/100 212/177/58 214/184/60
f 218/185/64 193/302/101 190/172/28
f 224/181/102 191/174/31 193/175/33
f 213/86/61 223/100/122 219/130/67
f 216/292/104 220/113/70 223/135/72
f 211/182/55 200/293/105 197/151/37
f 217/294/116 198/104/40 200/106/79
f 204/179/46 221/121/107 218/185/64
f 210/295/117 219/130/67 221/132/82
f 199/177/43 209/135/109 205/113/49
f 202/296/123 206/116/52 209/118/54
f 197/151/37 172/303/111 169/160/1
f 203/304/112 170/162/4 172/163/6
f 177/166/13 207/176/113 204/179/46
f 179/175/114 205/113/49 207/181/51
f 225/136/1 242/94/91 239/144/19
f 231/284/118 240/86/22 242/88/84
f 232/140/10 230/285/93 226/138/4
f 238/118/119 227/71/7 230/73/9
f 246/147/28 237/286/95 233/142/13
f 252/287/120 234/80/16 237/82/83
f 241/138/25 251/76/97 247/149/31
f 244/288/121 248/98/34 251/100/36
f 239/144/19 270/199/99 267/119/55
f 270/198/60 241/138/25 268/107/58
f 246/147/28 280/199/66 249/302/101
f 280/197/102 247/149/31 249/195/33
f 269/86/61 279/100/122 275/130/67
f 272/292/104 276/113/70 279/135/72
f 267/119/55 256/293/105 253/151/37
f 273/294/116 254/104/40 256/106/79
f 260/110/46 277/121/107 274/127/64
f 266/295/117 275/130/67 277/132/82
f 255/107/43 265/135/109 261/113/49
f 258/296/123 262/116/52 265/118/54
f 225/136/1 259/196/39 228/303/111
f 259/198/112 226/138/4 228/189/6
f 233/142/13 263/196/113 260/110/46
f 263/197/51 232/140/10 261/113/49
f 281/65/1 298/94/91 295/83/19
f 287/284/118 296/86/22 298/88/84
f 288/74/10 286/285/93 282/68/4
f 294/118/94 283/71/7 286/73/9
f 302/92/28 293/286/95 289/77/13
f 308/287/120 290/80/16 293/82/83
f 297/89/25 307/76/97 303/95/31
f 300/288/98 304/98/34 307/100/78
f 323/119/55 301/202/21 326/305/99
f 301/306/100 324/122/58 326/209/60
f 330/127/64 305/307/101 302/92/28
f 305/203/85 332/133/70 303/95/31
f 325/86/61 335/100/103 331/130/67
f 328/292/104 332/133/70 335/135/72
f 323/119/55 312/293/105 309/101/37
f 329/294/106 310/104/40 312/106/42
f 316/110/46 333/121/107 330/127/64
f 322/295/108 331/130/67 333/132/69
f 311/107/43 321/135/109 317/113/49
f 314/296/110 318/116/52 321/118/81
f 309/101/37 284/308/111 281/65/1
f 284/200/6 311/107/43 282/68/4
f 316/110/46 291/201/15 319/309/113
f 291/310/124 317/113/49 319/207/51
f 337/212/1 354/311/91 351/230/19
f 354/235/84 339/218/7 352/233/22
f 344/221/10 342/312/93 338/215/4
f 350/263/119 339/218/7 342/220/9
f 358/239/28 349/214/95 345/224/13
f 364/313/120 346/227/16 349/229/83
f 353/236/25 363/223/97 359/242/31
f 356/314/121 360/245/34 363/247/36
f 351/230/19 382/315/99 379/264/55
f 357/316/100 380/267/58 382/269/60
f 386/272/64 361/317/101 358/239/28
f 392/318/102 359/242/31 361/244/33
f 381/233/61 391/247/122 387/245/67
f 391/278/72 380/267/58 388/259/70
f 379/264/55 368/258/105 365/248/37
f 385/319/116 366/218/40 368/252/79
f 372/256/46 389/320/107 386/272/64
f 389/276/82 374/227/52 387/245/67
f 367/253/43 377/278/109 373/259/49
f 370/321/123 374/227/52 377/263/54
f 365/248/37 340/322/111 337/212/1
f 371/323/112 338/215/4 340/217/6
f 345/224/13 375/324/113 372/256/46
f 347/325/114 373/259/49 375/261/51
f 43/51/55 1/1/1 15/19/19
f 10/16/16 16/22/22 3/7/7
f 37/46/49 2/4/4 31/40/43
f 22/19/28 36/43/46 50/51/64
f 23/29/31 44/40/58 17/4/25
f 51/32/67 30/7/40 45/22/61
f 99/119/55 57/65/1 71/83/19
f 66/80/16 72/86/22 59/71/7
f 93/113/49 58/68/4 87/107/43
f 78/92/28 92/110/46 106/127/64
f 79/95/31 100/122/58 73/89/25
f 107/130/67 86/104/40 101/86/61
f 155/119/55 113/136/1 127/144/19
f 122/80/16 128/86/22 115/71/7
f 149/113/49 114/138/4 143/107/43
f 134/147/28 148/110/46 162/127/64
f 135/149/31 156/107/58 129/138/25
f 163/130/67 142/104/40 157/86/61
f 211/182/55 169/160/1 183/168/19
f 178/80/16 184/86/22 171/71/7
f 205/113/49 170/162/4 199/177/43
f 190/172/28 204/179/46 218/185/64
f 191/174/31 212/177/58 185/170/25
f 219/130/67 198/104/40 213/86/61
f 267/119/55 225/136/1 239/144/19
f 234/80/16 240/86/22 227/71/7
f 261/113/49 226/138/4 255/107/43
f 246/147/28 260/110/46 274/127/64
f 247/149/31 268/107/58 241/138/25
f 275/130/67 254/104/40 269/86/61
f 323/119/55 281/65/1 295/83/19
f 290/80/16 296/86/22 283/71/7
f 317/113/49 282/68/4 311/107/43
f 302/92/28 316/110/46 330/127/64
f 303/95/31 324/122/58 297/89/25
f 331/130/67 310/104/40 325/86/61
f 379/264/55 337/212/1 351/230/19
f 346/227/16 352/233/22 339/218/7
f 373/259/49 338/215/4 367/253/43
f 358/239/28 372/256/46 386/272/64
f 359/242/31 380/267/58 353/236/25
f 387/245/67 366/218/40 381/233/61
f 1/1/1 4/15/111 5/2/2
f 2/4/4 6/279/93 5/5/5
f 3/7/7 7/39/92 5/8/8
f 8/10/10 11/31/114 12/11/11
f 9/13/13 13/3/95 12/14/14
f 10/16/16 14/50/94 12/17/17
f 15/19/19 18/28/91 19/20/20
f 16/22/22 20/281/98 19/23/23
f 17/4/25 21/6/100 19/25/26
f 22/19/28 25/21/101 26/27/29
f 23/29/31 27/280/97 26/30/32
f 24/32/34 28/61/96 26/33/35
f 29/35/37 32/45/105 33/36/38
f 30/7/40 34/283/110 33/38/41
f 31/40/43 35/55/112 33/41/44
f 36/43/46 39/37/113 40/44/47
f 37/46/49 41/64/109 40/47/50
f 38/16/52 42/18/108 40/49/53
f 43/51/55 46/59/99 47/52/56
f 44/40/58 48/282/104 47/54/59
f 45/22/61 49/24/106 47/56/62
f 50/51/64 53/53/107 54/58/65
f 51/32/67 55/34/103 54/60/68
f 52/62/70 56/48/102 54/63/71
f 57/65/1 60/297/111 61/66/2
f 58/68/4 62/285/93 61/69/5
f 59/71/7 63/284/92 61/72/73
f 64/74/10 67/326/114 68/75/11
f 65/77/13 69/286/95 68/78/14
f 66/80/16 70/118/94 68/81/75
f 71/83/19 74/94/91 75/84/20
f 72/86/22 76/288/98 75/87/76
f 73/89/25 77/327/100 75/90/26
f 78/92/28 81/290/101 82/93/29
f 79/95/31 83/76/97 82/96/32
f 80/98/34 84/287/96 82/99/77
f 85/101/37 88/293/105 89/102/38
f 86/104/40 90/296/110 89/105/41
f 87/107/43 91/298/112 89/108/44
f 92/110/46 95/299/113 96/111/47
f 93/113/49 97/135/109 96/114/50
f 94/116/52 98/295/117 96/117/53
f 99/119/55 102/289/99 103/120/56
f 100/122/58 104/292/104 103/123/59
f 101/86/61 105/294/116 103/125/62
f 106/127/64 109/121/107 110/128/65
f 107/130/67 111/100/103 110/131/68
f 108/133/70 112/291/115 110/134/71
f 113/136/1 116/143/111 117/137/2
f 114/138/4 118/285/93 117/69/5
f 115/71/7 119/284/118 117/72/8
f 120/140/10 123/150/114 124/141/11
f 121/142/13 125/286/95 124/78/14
f 122/80/16 126/118/119 124/81/17
f 127/144/19 130/94/91 131/84/20
f 128/86/22 132/288/121 131/87/23
f 129/138/25 133/139/100 131/146/26
f 134/147/28 137/145/101 138/148/29
f 135/149/31 139/76/97 138/96/32
f 136/98/34 140/287/120 138/99/35
f 141/151/37 144/293/105 145/102/38
f 142/104/40 146/296/123 145/105/41
f 143/107/43 147/304/112 145/153/44
f 148/110/46 151/176/113 152/154/47
f 149/113/49 153/135/109 152/114/50
f 150/116/52 154/295/117 152/117/53
f 155/119/55 158/300/99 159/156/56
f 156/107/58 160/292/104 159/123/59
f 157/86/61 161/294/116 159/125/62
f 162/127/64 165/121/107 166/128/65
f 163/130/67 167/100/122 166/131/68
f 164/113/70 168/181/102 166/159/71
f 169/160/1 172/303/111 173/161/2
f 170/162/4 174/285/93 173/69/5
f 171/71/7 175/284/118 173/72/8
f 176/164/10 179/175/114 180/165/11
f 177/166/13 181/286/95 180/78/14
f 178/80/16 182/118/119 180/81/17
f 183/168/19 186/94/91 187/84/20
f 184/86/22 188/288/121 187/87/23
f 185/170/25 189/301/100 187/171/26
f 190/172/28 193/302/101 194/173/29
f 191/174/31 195/76/97 194/96/32
f 192/98/34 196/287/120 194/99/35
f 197/151/37 200/293/105 201/102/38
f 198/104/40 202/296/123 201/105/41
f 199/177/43 203/304/112 201/178/44
f 204/179/46 207/176/113 208/180/47
f 205/113/49 209/135/109 208/114/50
f 206/116/52 210/295/117 208/117/53
f 211/182/55 214/300/99 215/183/56
f 212/177/58 216/292/104 215/123/59
f 213/86/61 217/294/116 215/125/62
f 218/185/64 221/121/107 222/128/65
f 219/130/67 223/100/122 222/131/68
f 220/113/70 224/181/102 222/187/71
f 225/136/1 228/303/111 229/188/2
f 226/138/4 230/285/93 229/69/5
f 227/71/7 231/284/118 229/72/8
f 232/140/10 235/175/114 236/190/11
f 233/142/13 237/286/95 236/78/14
f 234/80/16 238/118/119 236/81/17
f 239/144/19 242/94/91 243/84/20
f 240/86/22 244/288/121 243/87/23
f 241/138/25 245/301/100 243/193/26
f 246/147/28 249/302/101 250/194/29
f 247/149/31 251/76/97 250/96/32
f 248/98/34 252/287/120 250/99/35
f 253/151/37 256/293/105 257/102/38
f 254/104/40 258/296/123 257/105/41
f 255/107/43 259/198/112 257/108/44
f 260/110/46 263/196/113 264/111/47
f 261/113/49 265/135/109 264/114/50
f 262/116/52 266/295/117 264/117/53
f 267/119/55 270/199/99 271/120/56
f 268/107/58 272/292/104 271/123/59
f 269/86/61 273/294/116 271/125/62
f 274/127/64 277/121/107 278/128/65
f 275/130/67 279/100/122 278/131/68
f 276/113/70 280/197/102 278/134/71
f 281/65/1 284/308/111 285/137/2
f 282/68/4 286/285/93 285/69/5
f 283/71/7 287/284/118 285/72/8
f 288/74/10 291/310/124 292/141/11
f 289/77/13 293/286/95 292/78/14
f 290/80/16 294/118/94 292/81/17
f 295/83/19 298/94/91 299/84/20
f 296/86/22 300/288/98 299/87/23
f 297/89/25 301/306/100 299/146/26
f 302/92/28 305/307/101 306/148/29
f 303/95/31 307/76/97 306/96/32
f 304/98/34 308/287/120 306/99/35
f 309/101/37 312/293/105 313/102/38
f 310/104/40 314/296/110 313/105/86
f 311/107/43 315/328/112 313/205/44
f 316/110/46 319/309/113 320/206/47
f 317/113/49 321/135/109 320/114/50
f 318/116/52 322/295/108 320/117/87
f 323/119/55 326/305/99 327/208/56
f 324/122/58 328/292/104 327/123/59
f 325/86/61 329/294/106 327/125/88
f 330/127/64 333/121/107 334/128/65
f 331/130/67 335/100/103 334/131/90
f 332/133/70 336/329/102 334/211/71
f 337/212/1 340/322/111 341/213/2
f 338/215/4 342/312/93 341/216/5
f 339/218/7 343/252/118 341/219/8
f 344/221/10 347/325/114 348/222/11
f 345/224/13 349/214/95 348/225/14
f 346/227/16 350/263/119 348/228/17
f 351/230/19 354/311/91 355/231/20
f 352/233/22 356/314/121 355/234/23
f 353/236/25 357/316/100 355/237/26
f 358/239/28 361/317/101 362/240/29
f 359/242/31 363/223/97 362/243/32
f 360/245/34 364/313/120 362/246/35
f 365/248/37 368/258/105 369/249/38
f 366/218/40 370/321/123 369/251/41
f 367/253/43 371/323/112 369/254/44
f 372/256/46 375/324/113 376/257/47
f 373/259/49 377/278/109 376/260/50
f 374/227/52 378/330/117 376/262/53
f 379/264/55 382/315/99 383/265/56
f 380/267/58 384/331/104 383/268/59
f 381/233/61 385/319/116 383/270/62
f 386/272/64 389/320/107 390/273/65
f 387/245/67 391/247/122 390/275/68
f 388/259/70 392/318/102 390/277/71
f 1/1/1 7/3/3 18/28/91
f 7/39/92 3/7/7 16/22/22
f 8/10/10 14/12/12 6/279/93
f 14/50/94 10/16/16 3/7/7
f 22/19/28 28/28/30 13/3/95
f 28/61/96 24/32/34 10/16/16
f 17/4/25 20/26/27 27/280/97
f 20/281/98 16/22/22 24/32/34
f 15/19/19 21/21/21 46/59/99
f 21/6/100 17/4/25 44/40/58
f 50/51/64 56/59/66 25/21/101
f 56/48/102 52/62/70 23/29/31
f 45/22/61 48/57/63 55/34/103
f 48/282/104 44/40/58 52/62/70
f 43/51/55 49/53/57 32/45/105
f 49/24/106 45/22/61 30/7/40
f 36/43/46 42/45/48 53/53/107
f 42/18/108 38/16/52 51/32/67
f 31/40/43 34/42/45 41/64/109
f 34/283/110 30/7/40 38/16/52
f 29/35/37 35/37/39 4/15/111
f 35/55/112 31/40/43 2/4/4
f 9/13/13 11/15/15 39/37/113
f 11/31/114 8/10/10 37/46/49
f 57/65/1 63/67/3 74/94/91
f 63/284/92 59/71/7 72/86/22
f 64/74/10 70/76/12 62/285/93
f 70/118/94 66/80/16 59/71/7
f 78/92/28 84/94/30 69/286/95
f 84/287/96 80/98/34 66/80/16
f 73/89/25 76/91/27 83/76/97
f 76/288/98 72/86/22 80/98/34
f 71/83/19 77/85/21 102/289/99
f 102/124/60 77/327/100 73/89/25
f 78/92/28 106/127/64 112/129/66
f 112/291/115 108/133/70 79/95/31
f 101/86/61 104/126/63 111/100/103
f 104/292/104 100/122/58 108/133/70
f 99/119/55 105/121/57 88/293/105
f 105/294/116 101/86/61 86/104/40
f 92/110/46 98/112/48 109/121/107
f 98/295/117 94/116/52 107/130/67
f 87/107/43 90/109/45 97/135/109
f 90/296/110 86/104/40 94/116/52
f 57/65/1 85/101/37 91/103/39
f 91/298/112 87/107/43 58/68/4
f 65/77/13 67/79/15 95/299/113
f 95/115/80 67/326/114 64/74/10
f 113/136/1 119/67/3 130/94/91
f 119/284/118 115/71/7 128/86/22
f 120/140/10 126/76/12 118/285/93
f 126/118/119 122/80/16 115/71/7
f 134/147/28 140/94/30 125/286/95
f 140/287/120 136/98/34 122/80/16
f 129/138/25 132/91/27 139/76/97
f 132/288/121 128/86/22 136/98/34
f 155/119/55 127/144/19 133/145/21
f 133/139/100 129/138/25 156/107/58
f 162/127/64 168/158/66 137/145/101
f 137/150/33 168/181/102 164/113/70
f 157/86/61 160/126/63 167/100/122
f 160/292/104 156/107/58 164/113/70
f 155/119/55 161/121/57 144/293/105
f 161/294/116 157/86/61 142/104/40
f 148/110/46 154/112/48 165/121/107
f 154/295/117 150/116/52 163/130/67
f 143/107/43 146/109/45 153/135/109
f 146/296/123 142/104/40 150/116/52
f 141/151/37 147/152/39 116/143/111
f 116/139/6 147/304/112 143/107/43
f 148/110/46 121/142/13 123/143/15
f 123/150/114 120/140/10 149/113/49
f 169/160/1 175/67/3 186/94/91
f 175/284/118 171/71/7 184/86/22
f 176/164/10 182/76/12 174/285/93
f 182/118/119 178/80/16 171/71/7
f 190/172/28 196/94/30 181/286/95
f 196/287/120 192/98/34 178/80/16
f 185/170/25 188/91/27 195/76/97
f 188/288/121 184/86/22 192/98/34
f 183/168/19 189/169/21 214/300/99
f 189/301/100 185/170/25 212/177/58
f 218/185/64 224/186/66 193/302/101
f 224/181/102 220/113/70 191/174/31
f 213/86/61 216/126/63 223/100/122
f 216/292/104 212/177/58 220/113/70
f 211/182/55 217/121/57 200/293/105
f 217/294/116 213/86/61 198/104/40
f 204/179/46 210/112/48 221/121/107
f 210/295/117 206/116/52 219/130/67
f 199/177/43 202/109/45 209/135/109
f 202/296/123 198/104/40 206/116/52
f 197/151/37 203/176/39 172/303/111
f 203/304/112 199/177/43 170/162/4
f 177/166/13 179/167/15 207/176/113
f 179/175/114 176/164/10 205/113/49
f 225/136/1 231/67/3 242/94/91
f 231/284/118 227/71/7 240/86/22
f 232/140/10 238/76/12 230/285/93
f 238/118/119 234/80/16 227/71/7
f 246/147/28 252/94/30 237/286/95
f 252/287/120 248/98/34 234/80/16
f 241/138/25 244/91/27 251/76/97
f 244/288/121 240/86/22 248/98/34
f 239/144/19 245/192/21 270/199/99
f 270/198/60 245/301/100 241/138/25
f 246/147/28 274/127/64 280/199/66
f 280/197/102 276/113/70 247/149/31
f 269/86/61 272/126/63 279/100/122
f 272/292/104 268/107/58 276/113/70
f 267/119/55 273/121/57 256/293/105
f 273/294/116 269/86/61 254/104/40
f 260/110/46 266/112/48 277/121/107
f 266/295/117 262/116/52 275/130/67
f 255/107/43 258/109/45 265/135/109
f 258/296/123 254/104/40 262/116/52
f 225/136/1 253/151/37 259/196/39
f 259/198/112 255/107/43 226/138/4
f 233/142/13 235/191/15 263/196/113
f 263/197/51 235/175/114 232/140/10
f 281/65/1 287/67/3 298/94/91
f 287/284/118 283/71/7 296/86/22
f 288/74/10 294/76/12 286/285/93
f 294/118/94 290/80/16 283/71/7
f 302/92/28 308/94/30 293/286/95
f 308/287/120 304/98/34 290/80/16
f 297/89/25 300/91/27 307/76/97
f 300/288/98 296/86/22 304/98/34
f 323/119/55 295/83/19 301/202/21
f 301/306/100 297/89/25 324/122/58
f 330/127/64 336/210/66 305/307/101
f 305/203/85 336/329/102 332/133/70
f 325/86/61 328/126/89 335/100/103
f 328/292/104 324/122/58 332/133/70
f 323/119/55 329/121/57 312/293/105
f 329/294/106 325/86/61 310/104/40
f 316/110/46 322/112/48 333/121/107
f 322/295/108 318/116/52 331/130/67
f 311/107/43 314/109/45 321/135/109
f 314/296/110 310/104/40 318/116/52
f 309/101/37 315/204/39 284/308/111
f 284/200/6 315/328/112 311/107/43
f 316/110/46 289/77/13 291/201/15
f 291/310/124 288/74/10 317/113/49
f 337/212/1 343/214/3 354/311/91
f 354/235/84 343/252/118 339/218/7
f 344/221/10 350/223/12 342/312/93
f 350/263/119 346/227/16 339/218/7
f 358/239/28 364/241/30 349/214/95
f 364/313/120 360/245/34 346/227/16
f 353/236/25 356/238/27 363/223/97
f 356/314/121 352/233/22 360/245/34
f 351/230/19 357/232/21 382/315/99
f 357/316/100 353/236/25 380/267/58
f 386/272/64 392/274/66 361/317/101
f 392/318/102 388/259/70 359/242/31
f 381/233/61 384/271/63 391/247/122
f 391/278/72 384/331/104 380/267/58
f 379/264/55 385/266/57 368/258/105
f 385/319/116 381/233/61 366/218/40
f 372/256/46 378/258/48 389/320/107
f 389/276/82 378/330/117 374/227/52
f 367/253/43 370/255/45 377/278/109
f 370/321/123 366/218/40 374/227/52
f 365/248/37 371/250/39 340/322/111
f 371/323/112 367/253/43 338/215/4
f 345/224/13 347/226/15 375/324/113
f 347/325/114 344/221/10 373/259/49
f 43/51/55 29/35/37 1/1/1
f 10/16/16 24/32/34 16/22/22
f 37/46/49 8/10/10 2/4/4
f 22/19/28 9/13/13 36/43/46
f 23/29/31 52/62/70 44/40/58
f 51/32/67 38/16/52 30/7/40
f 99/119/55 85/101/37 57/65/1
f 66/80/16 80/98/34 72/86/22
f 93/113/49 64/74/10 58/68/4
f 78/92/28 65/77/13 92/110/46
f 79/95/31 108/133/70 100/122/58
f 107/130/67 94/116/52 86/104/40
f 155/119/55 141/151/37 113/136/1
f 122/80/16 136/98/34 128/86/22
f 149/113/49 120/140/10 114/138/4
f 134/147/28 121/142/13 148/110/46
f 135/149/31 164/113/70 156/107/58
f 163/130/67 150/116/52 142/104/40
f 211/182/55 197/151/37 169/160/1
f 178/80/16 192/98/34 184/86/22
f 205/113/49 176/164/10 170/162/4
f 190/172/28 177/166/13 204/179/46
f 191/174/31 220/113/70 212/177/58
f 219/130/67 206/116/52 198/104/40
f 267/119/55 253/151/37 225/136/1
f 234/80/16 248/98/34 240/86/22
f 261/113/49 232/140/10 226/138/4
f 246/147/28 233/142/13 260/110/46
f 247/149/31 276/113/70 268/107/58
f 275/130/67 262/116/52 254/104/40
f 323/119/55 309/101/37 281/65/1
f 290/80/16 304/98/34 296/86/22
f 317/113/49 288/74/10 282/68/4
f 302/92/28 289/77/13 316/110/46
f 303/95/31 332/133/70 324/122/58
f 331/130/67 318/116/52 310/104/40
f 379/264/55 365/248/37 337/212/1
f 346/227/16 360/245/34 352/233/22
f 373/259/49 344/221/10 338/215/4
f 358/239/28 345/224/13 372/256/46
f 359/242/31 388/259/70 380/267/58
f 387/245/67 374/227/52 366/218/40
