# Blender 5.2.0 LTS
# www.blender.org
o building_turret
v -1.040000 -0.000000 -1.040000
v 1.040000 -0.000000 -1.040000
v 1.040000 0.000000 1.040000
v -1.040000 0.000000 1.040000
v -1.040000 1.200000 -1.040000
v 1.040000 1.200000 -1.040000
v 1.040000 1.200000 1.040000
v -1.040000 1.200000 1.040000
v -0.940000 4.800000 -0.940000
v 0.940000 4.800000 -0.940000
v 0.940000 4.800000 0.940000
v -0.940000 4.800000 0.940000
v -0.940000 5.500000 -0.940000
v 0.940000 5.500000 -0.940000
v 0.940000 5.500000 0.940000
v -0.940000 5.500000 0.940000
v -1.079804 0.025860 -1.032394
v -1.100000 0.052800 -1.003199
v -1.084957 0.060254 -1.043586
v -1.043586 0.060254 -1.084957
v -1.003199 0.052800 -1.100000
v -1.032394 0.025860 -1.079804
v 1.032664 0.026478 -1.079928
v 1.003786 0.053876 -1.100000
v 1.043964 0.060893 -1.084911
v 1.085004 0.060426 -1.043633
v 1.100000 0.052800 -1.003199
v 1.079920 0.025935 -1.032372
v 1.084957 0.061063 1.044010
v 1.080043 0.026554 1.032643
v 1.100000 0.053876 1.003786
v 1.044010 0.061063 1.084957
v 1.003786 0.053876 1.100000
v 1.032643 0.026554 1.080043
v -1.084911 0.060893 1.043964
v -1.100000 0.053876 1.003786
v -1.079928 0.026478 1.032664
v -1.043633 0.060426 1.085004
v -1.032372 0.025935 1.079920
v -1.003199 0.052801 1.100000
v -1.084957 1.138937 -1.044010
v -1.100000 1.146124 -1.003786
v -1.080043 1.173446 -1.032643
v -1.032643 1.173446 -1.080043
v -1.003786 1.146124 -1.100000
v -1.044010 1.138937 -1.084957
v 1.079928 1.173522 -1.032664
v 1.100000 1.146124 -1.003786
v 1.084911 1.139107 -1.043964
v 1.043633 1.139574 -1.085004
v 1.003199 1.147199 -1.100000
v 1.032372 1.174065 -1.079920
v 1.043586 1.139745 1.084957
v 1.032394 1.174140 1.079804
v 1.003199 1.147200 1.100000
v 1.084957 1.139745 1.043586
v 1.100000 1.147200 1.003199
v 1.079804 1.174140 1.032394
v -1.085004 1.139574 1.043633
v -1.079920 1.174065 1.032372
v -1.100000 1.147200 1.003199
v -1.043964 1.139107 1.084911
v -1.003786 1.146124 1.100000
v -1.032664 1.173522 1.079928
v -0.651951 1.218507 -0.651951
v -0.618726 1.200000 -0.618727
v -0.684957 1.293567 -0.688401
v -0.692383 1.263110 -0.652341
v -0.688401 1.293567 -0.684957
v -0.652341 1.263110 -0.692384
v 0.687483 1.293356 -0.685315
v 0.650932 1.255897 -0.700134
v 0.684632 1.293308 -0.688035
v 0.692510 1.263262 -0.652483
v 0.618726 1.200000 -0.618727
v 0.651946 1.218532 -0.651904
v 0.684958 1.293094 0.687132
v 0.700268 1.256059 0.651071
v 0.687133 1.293094 0.684957
v 0.651072 1.256059 0.700268
v 0.618726 1.200000 0.618726
v 0.651897 1.218559 0.651897
v -0.685315 1.293356 0.687482
v -0.700134 1.255897 0.650930
v -0.618726 1.200000 0.618726
v -0.651904 1.218532 0.651946
v -0.652483 1.263262 0.692510
v -0.688035 1.293308 0.684632
v -0.684957 4.906907 -0.687134
v -0.700268 4.943941 -0.651072
v -0.618726 5.000000 -0.618727
v -0.651898 4.981441 -0.651898
v -0.687133 4.906907 -0.684958
v -0.651072 4.943941 -0.700268
v 0.618726 5.000000 -0.618727
v 0.651904 4.981468 -0.651947
v 0.685315 4.906644 -0.687483
v 0.700134 4.944104 -0.650932
v 0.688035 4.906693 -0.684632
v 0.652483 4.936738 -0.692510
v 0.688401 4.906434 0.684957
v 0.652341 4.936890 0.692383
v 0.684958 4.906434 0.688400
v 0.692383 4.936890 0.652339
v 0.618726 5.000000 0.618726
v 0.651951 4.981493 0.651950
v -0.692510 4.936738 0.652481
v -0.684632 4.906692 0.688034
v -0.687482 4.906644 0.685314
v -0.650932 4.944104 0.700134
v -0.618726 5.000000 0.618726
v -0.651946 4.981468 0.651904
v -0.996849 4.849164 -0.931008
v -0.976892 4.815529 -0.926165
v -1.000000 4.834208 -0.902264
v -0.930514 4.849269 -0.997344
v -0.902264 4.834208 -1.000000
v -0.926165 4.815529 -0.976893
v 0.932701 4.816598 -0.977451
v 0.902883 4.835982 -1.000000
v 0.930964 4.850565 -0.997343
v 0.996868 4.849231 -0.931010
v 1.000000 4.834208 -0.902264
v 0.978585 4.816241 -0.930831
v 0.978730 4.817165 0.932452
v 1.000000 4.835982 0.902883
v 0.997325 4.850619 0.930964
v 0.931422 4.850513 0.996867
v 0.902883 4.835982 1.000000
v 0.932452 4.817165 0.978729
v -0.997343 4.850565 0.930964
v -1.000000 4.835982 0.902883
v -0.977451 4.816598 0.932701
v -0.931009 4.849231 0.996868
v -0.930831 4.816241 0.978585
v -0.902264 4.834208 1.000000
v -0.997325 5.449381 -0.930966
v -1.000000 5.464018 -0.902885
v -0.978730 5.482835 -0.932453
v -0.931422 5.449487 -0.996868
v -0.932452 5.482835 -0.978730
v -0.902883 5.464018 -1.000000
v 0.977451 5.483402 -0.932702
v 1.000000 5.464018 -0.902885
v 0.997343 5.449435 -0.930966
v 0.931009 5.450768 -0.996869
v 0.902264 5.465792 -1.000000
v 0.930831 5.483758 -0.978585
v 0.926165 5.484471 0.976892
v 0.902264 5.465792 1.000000
v 0.930514 5.450730 0.997343
v 0.996849 5.450836 0.931007
v 1.000000 5.465792 0.902262
v 0.976892 5.484471 0.926164
v -0.996868 5.450768 0.931008
v -0.978585 5.483758 0.930830
v -1.000000 5.465792 0.902262
v -0.930964 5.449435 0.997342
v -0.902883 5.464018 1.000000
v -0.932701 5.483402 0.977451
v 0.191060 5.015043 -0.174753
v 0.194510 5.000000 -0.154327
v 0.154476 5.013163 -0.149921
v 0.100000 5.081274 -0.093727
v 0.117389 5.046951 -0.128050
v 0.191060 5.000247 -0.159958
v 0.154476 5.025079 -0.161837
v 0.194510 5.020673 -0.175000
v 1.609317 5.001918 -0.159957
v 1.605986 5.022947 -0.175000
v 1.645892 5.026468 -0.161774
v 1.682515 5.047025 -0.127975
v 1.700000 5.081274 -0.093727
v 1.609317 5.015043 -0.173082
v 1.645892 5.013227 -0.148532
v 1.605986 5.000000 -0.152053
v 1.700000 5.081274 0.093726
v 1.682566 5.046953 0.127982
v 1.608963 5.001138 0.160779
v 1.645855 5.026445 0.161805
v 1.605986 5.022947 0.175000
v 1.609285 5.015709 0.173875
v 1.605490 5.000000 0.154325
v 1.645562 5.013196 0.149896
v 0.100000 5.081274 0.093726
v 0.117434 5.047018 0.128047
v 0.191037 5.014219 0.173861
v 0.154145 5.013195 0.148554
v 0.194014 5.000000 0.152051
v 0.190715 5.001125 0.159289
v 0.194510 5.020673 0.175000
v 0.154438 5.025103 0.161804
v 0.100000 5.268726 -0.093727
v 0.117434 5.303047 -0.127983
v 0.154438 5.336804 -0.149897
v 0.194510 5.350000 -0.154327
v 0.190715 5.334291 -0.173876
v 0.191037 5.348862 -0.160781
v 0.194014 5.327053 -0.175000
v 0.154145 5.323555 -0.161806
v 1.608963 5.335780 -0.173862
v 1.605986 5.350000 -0.152053
v 1.645855 5.336805 -0.148555
v 1.700000 5.268726 -0.093727
v 1.682566 5.302982 -0.128047
v 1.645562 5.324896 -0.161805
v 1.605489 5.329326 -0.175000
v 1.609285 5.348875 -0.159292
v 1.608940 5.349752 0.159957
v 1.605489 5.329326 0.175000
v 1.645524 5.324920 0.161836
v 1.682610 5.303049 0.128049
v 1.700000 5.268726 0.093726
v 1.645524 5.336837 0.149920
v 1.605490 5.350000 0.154325
v 1.608940 5.334957 0.174751
v 0.117485 5.302975 0.127975
v 0.100000 5.268726 0.093726
v 0.154109 5.323532 0.161773
v 0.194014 5.327053 0.175000
v 0.190683 5.348082 0.159956
v 0.190683 5.334958 0.173081
v 0.194014 5.350000 0.152051
v 0.154109 5.336773 0.148531
vn -0.2918 -0.9109 -0.2918
vn 0.2941 -0.9094 0.2941
vn -0.2949 -0.9101 0.2910
vn 0.2910 -0.9101 -0.2949
vn -0.2941 0.9094 -0.2941
vn 0.2918 0.9109 0.2918
vn 0.2949 0.9101 -0.2910
vn -0.2910 0.9101 0.2949
vn -0.2569 -0.9317 -0.2569
vn 0.2272 -0.9470 0.2272
vn -0.2301 -0.9471 0.2237
vn 0.2237 -0.9471 -0.2301
vn -0.2272 0.9470 -0.2272
vn 0.2569 0.9317 0.2569
vn 0.2301 0.9471 -0.2237
vn -0.2237 0.9471 0.2301
vn -0.7343 -0.5917 -0.3327
vn -0.9507 -0.2764 -0.1410
vn -0.8225 -0.1402 -0.5512
vn -0.5512 -0.1402 -0.8225
vn -0.1410 -0.2764 -0.9507
vn -0.3327 -0.5917 -0.7343
vn 0.3327 -0.5870 -0.7381
vn 0.1423 -0.2708 -0.9521
vn 0.5528 -0.1391 -0.8216
vn 0.8232 -0.1399 -0.5502
vn 0.9509 -0.2758 -0.1405
vn 0.7346 -0.5912 -0.3329
vn 0.8223 -0.1387 0.5519
vn 0.7383 -0.5865 0.3329
vn 0.9523 -0.2702 0.1418
vn 0.5519 -0.1387 0.8223
vn 0.1418 -0.2702 0.9523
vn 0.3329 -0.5865 0.7384
vn -0.8216 -0.1391 0.5528
vn -0.9521 -0.2708 0.1423
vn -0.7381 -0.5870 0.3327
vn -0.5502 -0.1399 0.8232
vn -0.3329 -0.5912 0.7346
vn -0.1405 -0.2758 0.9509
vn -0.8223 0.1387 -0.5519
vn -0.9523 0.2702 -0.1418
vn -0.7384 0.5865 -0.3329
vn -0.3329 0.5865 -0.7384
vn -0.1418 0.2702 -0.9523
vn -0.5519 0.1387 -0.8223
vn 0.7381 0.5870 -0.3327
vn 0.9521 0.2708 -0.1423
vn 0.8216 0.1391 -0.5528
vn 0.5502 0.1399 -0.8232
vn 0.1405 0.2758 -0.9509
vn 0.3329 0.5912 -0.7346
vn 0.5512 0.1402 0.8225
vn 0.3327 0.5917 0.7343
vn 0.1410 0.2764 0.9507
vn 0.8225 0.1402 0.5512
vn 0.9507 0.2764 0.1410
vn 0.7343 0.5917 0.3327
vn -0.8232 0.1399 0.5502
vn -0.7346 0.5912 0.3329
vn -0.9509 0.2758 0.1405
vn -0.5528 0.1391 0.8216
vn -0.1423 0.2708 0.9521
vn -0.3327 0.5870 0.7380
vn -0.8652 -0.2098 -0.4554
vn -0.6035 -0.7357 -0.3074
vn -0.9001 -0.4250 -0.0960
vn -0.4487 -0.2092 -0.8689
vn -0.0930 -0.4267 -0.8996
vn -0.3077 -0.7359 -0.6032
vn 0.3392 -0.6949 -0.6341
vn 0.0809 -0.4093 -0.9088
vn 0.4405 -0.1763 -0.8802
vn 0.8764 -0.1777 -0.4475
vn 0.9066 -0.4135 -0.0844
vn 0.6284 -0.7038 -0.3314
vn 0.6411 -0.6878 0.3406
vn 0.9121 -0.4024 0.0789
vn 0.8815 -0.1703 0.4403
vn 0.4468 -0.1700 0.8783
vn 0.0819 -0.4007 0.9125
vn 0.3403 -0.6875 0.6415
vn -0.8802 -0.1763 0.4405
vn -0.9088 -0.4093 0.0809
vn -0.6341 -0.6949 0.3392
vn -0.4475 -0.1777 0.8764
vn -0.3314 -0.7038 0.6284
vn -0.0844 -0.4135 0.9066
vn -0.8815 0.1703 -0.4403
vn -0.9121 0.4024 -0.0789
vn -0.6411 0.6878 -0.3406
vn -0.4468 0.1700 -0.8783
vn -0.3403 0.6875 -0.6415
vn -0.0819 0.4007 -0.9125
vn 0.6341 0.6949 -0.3392
vn 0.9088 0.4093 -0.0809
vn 0.8802 0.1763 -0.4405
vn 0.4475 0.1777 -0.8764
vn 0.0844 0.4135 -0.9066
vn 0.3314 0.7038 -0.6284
vn 0.3077 0.7359 0.6032
vn 0.0930 0.4267 0.8996
vn 0.4487 0.2092 0.8689
vn 0.8652 0.2098 0.4554
vn 0.9001 0.4250 0.0960
vn 0.6035 0.7357 0.3074
vn -0.8764 0.1777 0.4475
vn -0.6284 0.7038 0.3314
vn -0.9066 0.4135 0.0844
vn -0.4405 0.1763 0.8802
vn -0.0809 0.4093 0.9088
vn -0.3392 0.6949 0.6341
vn 0.1711 -0.5831 0.7941
vn -0.1539 -0.9414 -0.3002
vn -0.5382 -0.7826 -0.3129
vn 0.1712 0.7943 -0.5830
vn -0.5382 -0.3129 -0.7826
vn -0.1539 -0.3002 -0.9414
vn -0.1786 0.7951 -0.5795
vn 0.1536 -0.2924 -0.9439
vn 0.5372 -0.3129 -0.7832
vn -0.1787 -0.5794 0.7952
vn 0.5372 -0.7832 -0.3129
vn 0.1536 -0.9439 -0.2924
vn -0.1722 0.8222 0.5425
vn 0.5378 -0.2964 0.7892
vn 0.1543 -0.2732 0.9495
vn -0.1687 -0.6185 -0.7675
vn 0.1536 -0.9354 0.3184
vn 0.5378 -0.7761 0.3292
vn 0.1722 -0.5425 -0.8222
vn -0.5378 -0.7892 0.2963
vn -0.1543 -0.9495 0.2732
vn 0.1687 0.7674 0.6186
vn -0.1536 -0.3184 0.9354
vn -0.5378 -0.3292 0.7761
vn -0.5378 0.7761 -0.3292
vn -0.1536 0.9354 -0.3184
vn 0.1686 0.6184 0.7675
vn 0.1720 -0.8222 -0.5427
vn -0.1543 0.2732 -0.9495
vn -0.5378 0.2964 -0.7892
vn -0.1720 0.5427 0.8222
vn 0.1543 0.9495 -0.2732
vn 0.5378 0.7892 -0.2964
vn 0.5378 0.3292 -0.7761
vn 0.1536 0.3184 -0.9354
vn -0.1686 -0.7675 -0.6184
vn -0.1711 -0.7941 0.5832
vn 0.1539 0.3001 0.9414
vn 0.5382 0.3129 0.7826
vn 0.5382 0.7826 0.3129
vn 0.1539 0.9414 0.3002
vn -0.1712 0.5830 -0.7943
vn -0.5372 0.3129 0.7832
vn -0.1536 0.2924 0.9439
vn 0.1787 -0.7952 0.5794
vn 0.1786 0.5795 -0.7951
vn -0.1536 0.9439 0.2924
vn -0.5372 0.7833 0.3129
vn -0.4238 0.3458 0.8371
vn -0.2516 -0.3941 -0.8839
vn -0.8839 -0.3941 -0.2516
vn -0.5833 0.6350 -0.5065
vn 0.8983 -0.3815 -0.2180
vn 0.2993 -0.4446 -0.8442
vn 0.5140 0.3272 -0.7929
vn 0.2695 -0.4338 0.8598
vn 0.8598 -0.4338 0.2695
vn -0.8441 -0.4441 0.3006
vn 0.9008 0.1208 0.4172
vn -0.4991 0.3241 -0.8036
vn -0.8598 0.4338 -0.2695
vn 0.7929 -0.3273 -0.5140
vn -0.5139 -0.3274 0.7929
vn 0.5065 -0.6347 0.5837
vn 0.2179 0.3815 -0.8983
vn 0.8442 0.4446 -0.2993
vn -0.8371 -0.3458 0.4238
vn 0.8839 0.3941 0.2516
vn 0.2516 0.3941 0.8839
vn -0.4172 -0.1207 -0.9008
vn -0.3006 0.4441 0.8440
vn -0.8981 0.3809 0.2198
vn -0.3557 -0.8301 0.4293
vn 0.1931 -0.9620 0.1931
vn 0.3623 -0.8588 0.3623
vn -0.4293 0.8301 0.3557
vn -0.1931 0.9620 -0.1931
vn -0.3623 0.8588 -0.3623
vn 0.3557 0.8301 -0.4293
vn 0.1929 0.9621 -0.1926
vn 0.4205 0.8040 0.4205
vn 0.9676 -0.1785 -0.1785
vn 0.8421 -0.3824 0.3803
vn 0.8426 -0.3808 -0.3808
vn 0.8416 0.3819 0.3819
vn 0.9679 0.1779 -0.1778
vn 0.8421 0.3803 -0.3824
vn 0.9679 -0.1778 0.1779
vn -0.1929 -0.9621 0.1926
vn -0.4205 -0.8040 -0.4205
vn -0.1924 -0.9623 -0.1924
vn 0.1926 -0.9621 -0.1929
vn 0.4293 -0.8301 -0.3557
vn 0.8371 0.3458 -0.4239
vn 0.4387 0.3485 0.8283
vn -0.7930 0.3274 0.5138
vn -0.2198 -0.3809 0.8981
vn 0.8036 -0.3241 0.4991
vn -0.1926 0.9621 0.1929
vn 0.1924 0.9623 0.1924
vn -0.8416 -0.3819 -0.3819
vn -0.9679 -0.1779 0.1778
vn -0.9680 -0.1773 -0.1773
vn -0.8421 -0.3803 0.3824
vn -0.9676 0.1784 0.1785
vn -0.9679 0.1778 -0.1779
vn -0.8421 0.3824 -0.3803
vn -0.2695 0.4338 -0.8598
vn -0.8283 -0.3485 -0.4387
vn 0.4239 -0.3458 -0.8371
vn 0.9680 0.1773 0.1773
vn -0.8426 0.3808 0.3808
s 1
f 1//1 3//2 4//3
f 1//1 2//4 3//2
f 5//5 7//6 6//7
f 5//5 8//8 7//6
f 9//9 11//10 12//11
f 9//9 10//12 11//10
f 13//13 15//14 14//15
f 13//13 16//16 15//14
f 17//17 18//18 19//19
f 20//20 21//21 22//22
f 23//23 24//24 25//25
f 26//26 27//27 28//28
f 29//29 30//30 31//31
f 32//32 33//33 34//34
f 35//35 36//36 37//37
f 38//38 39//39 40//40
f 41//41 42//42 43//43
f 44//44 45//45 46//46
f 47//47 48//48 49//49
f 50//50 51//51 52//52
f 53//53 54//54 55//55
f 56//56 57//57 58//58
f 59//59 60//60 61//61
f 62//62 63//63 64//64
f 113//65 114//66 115//67
f 116//68 117//69 118//70
f 119//71 120//72 121//73
f 122//74 123//75 124//76
f 125//77 126//78 127//79
f 128//80 129//81 130//82
f 131//83 132//84 133//85
f 134//86 135//87 136//88
f 137//89 138//90 139//91
f 140//92 141//93 142//94
f 143//95 144//96 145//97
f 146//98 147//99 148//100
f 149//101 150//102 151//103
f 152//104 153//105 154//106
f 155//107 156//108 157//109
f 158//110 159//111 160//112
f 161//113 162//114 163//115
f 166//116 167//117 168//118
f 169//119 170//120 171//121
f 174//122 175//123 176//124
f 179//125 180//126 181//127
f 182//128 183//129 184//130
f 187//131 188//132 189//133
f 190//134 191//135 192//136
f 195//137 196//138 197//139
f 198//140 199//141 200//142
f 201//143 202//144 203//145
f 206//146 207//147 208//148
f 209//149 210//150 211//151
f 214//152 215//153 216//154
f 219//155 220//156 221//157
f 222//158 223//159 224//160
f 20//20 17//17 19//19
f 26//26 23//23 25//25
f 32//32 30//30 29//29
f 37//37 38//38 35//35
f 44//44 41//41 43//43
f 50//50 47//47 49//49
f 56//56 54//54 53//53
f 59//59 64//64 60//60
f 67//161 70//162 68//163
f 71//164 74//165 72//166
f 77//167 80//168 78//169
f 84//170 88//171 83//172
f 90//173 93//174 89//175
f 97//176 100//177 98//178
f 101//179 104//180 102//181
f 108//182 110//183 107//184
f 113//65 118//70 114//66
f 122//74 119//71 121//73
f 128//80 125//77 127//79
f 133//85 134//86 131//83
f 139//91 140//92 137//89
f 146//98 143//95 145//97
f 152//104 149//101 151//103
f 155//107 160//112 156//108
f 163//115 166//116 161//113
f 171//121 174//122 169//119
f 179//125 184//130 180//126
f 187//131 192//136 188//132
f 197//139 200//142 195//137
f 203//145 208//148 201//143
f 211//151 216//154 209//149
f 221//157 224//160 219//155
f 40//40 34//34 33//33
f 61//61 43//43 42//42
f 44//44 51//51 45//45
f 47//47 57//57 48//48
f 20//20 45//45 21//21
f 26//26 48//48 27//27
f 31//31 56//56 29//29
f 63//63 38//38 40//40
f 86//185 81//186 82//187
f 112//188 91//189 92//190
f 91//189 96//191 92//190
f 95//192 106//193 96//191
f 68//163 89//175 67//161
f 100//177 71//164 72//166
f 104//180 77//167 78//169
f 83//172 107//184 84//170
f 129//81 135//87 130//82
f 138//90 156//108 139//91
f 148//100 142//94 141//93
f 154//106 144//96 143//95
f 115//67 137//89 113//65
f 122//74 144//96 123//75
f 151//103 129//81 128//80
f 159//111 134//86 136//88
f 168//118 169//119 166//116
f 173//194 178//195 172//196
f 189//133 163//115 162//114
f 191//135 179//125 181//127
f 195//137 223//159 196//138
f 221//157 210//150 209//149
f 198//140 207//147 199//141
f 212//197 204//198 205//199
f 167//117 199//141 168//118
f 205//199 173//194 172//196
f 177//200 212//197 178//195
f 220//156 192//136 191//135
f 37//37 18//18 17//17
f 59//59 36//36 35//35
f 21//21 23//23 22//22
f 24//24 50//50 25//25
f 42//42 19//19 18//18
f 27//27 30//30 28//28
f 53//53 33//33 32//32
f 64//64 55//55 54//54
f 85//201 65//202 66//203
f 65//202 75//204 66//203
f 76//205 81//186 75//204
f 93//174 70//162 69//206
f 97//176 74//165 73//207
f 79//208 102//181 80//168
f 87//209 109//210 88//171
f 111//211 106//193 105//212
f 114//66 132//84 115//67
f 155//107 132//84 131//83
f 120//72 118//70 117//69
f 120//72 146//98 121//73
f 116//68 142//94 117//69
f 126//78 124//76 123//75
f 153//105 127//79 126//78
f 149//101 159//111 150//102
f 187//131 183//129 182//128
f 174//122 162//114 161//113
f 184//130 176//124 175//123
f 165//213 185//214 164//215
f 186//216 218//217 185//214
f 170//120 206//146 171//121
f 193//218 165//213 164//215
f 218//217 194//219 193//218
f 211//151 181//127 180//126
f 196//138 201//143 197//139
f 202//144 214//152 203//145
f 215//153 222//158 216//154
f 4//3 17//17 1//1
f 1//1 17//17 22//22
f 4//3 37//37 17//17
f 19//19 46//46 20//20
f 18//18 61//61 42//42
f 18//18 36//36 61//61
f 19//19 41//41 46//46
f 22//22 2//4 1//1
f 21//21 45//45 51//51
f 22//22 23//23 2//4
f 21//21 51//51 24//24
f 23//23 28//28 2//4
f 25//25 49//49 26//26
f 25//25 50//50 49//49
f 28//28 3//2 2//4
f 27//27 48//48 57//57
f 27//27 57//57 31//31
f 28//28 30//30 3//2
f 30//30 34//34 3//2
f 56//56 32//32 29//29
f 39//39 3//2 34//34
f 56//56 53//53 32//32
f 40//40 33//33 55//55
f 62//62 35//35 38//38
f 37//37 4//3 39//39
f 62//62 59//59 35//35
f 40//40 55//55 63//63
f 39//39 4//3 3//2
f 43//43 5//5 44//44
f 60//60 5//5 43//43
f 5//5 52//52 44//44
f 6//7 58//58 47//47
f 6//7 47//47 52//52
f 5//5 6//7 52//52
f 8//8 54//54 7//6
f 54//54 58//58 7//6
f 8//8 64//64 54//54
f 6//7 7//6 58//58
f 60//60 8//8 5//5
f 60//60 64//64 8//8
f 72//166 65//202 70//162
f 65//202 68//163 70//162
f 72//166 76//205 65//202
f 65//202 84//170 68//163
f 65//202 86//185 84//170
f 66//203 81//186 85//201
f 66//203 75//204 81//186
f 68//163 84//170 107//184
f 89//175 69//206 67//161
f 68//163 107//184 90//173
f 89//175 93//174 69//206
f 70//162 100//177 72//166
f 70//162 94//220 100//177
f 72//166 74//165 76//205
f 99//221 73//207 71//164
f 78//169 76//205 74//165
f 99//221 97//176 73//207
f 74//165 104//180 78//169
f 74//165 98//178 104//180
f 78//169 82//187 76//205
f 78//169 80//168 82//187
f 103//222 79//208 77//167
f 80//168 86//185 82//187
f 103//222 101//179 79//208
f 80//168 87//209 86//185
f 87//209 80//168 102//181
f 88//171 108//182 83//172
f 84//170 86//185 87//209
f 87//209 102//181 110//183
f 88//171 109//210 108//182
f 90//173 92//190 94//220
f 90//173 112//188 92//190
f 90//173 107//184 112//188
f 91//189 111//211 105//212
f 96//191 94//220 92//190
f 91//189 105//212 95//192
f 96//191 100//177 94//220
f 96//191 98//178 100//177
f 106//193 98//178 96//191
f 106//193 104//180 98//178
f 106//193 110//183 102//181
f 102//181 104//180 106//193
f 106//193 112//188 110//183
f 107//184 110//183 112//188
f 12//11 114//66 9//9
f 9//9 114//66 118//70
f 12//11 133//85 114//66
f 137//89 116//68 113//65
f 115//67 157//109 138//90
f 115//67 132//84 157//109
f 118//70 10//12 9//9
f 137//89 140//92 116//68
f 118//70 119//71 10//12
f 117//69 147//99 120//72
f 117//69 142//94 147//99
f 119//71 124//76 10//12
f 121//73 145//97 122//74
f 121//73 146//98 145//97
f 124//76 11//10 10//12
f 123//75 144//96 153//105
f 123//75 153//105 126//78
f 124//76 125//77 11//10
f 125//77 130//82 11//10
f 127//79 151//103 128//80
f 127//79 152//104 151//103
f 135//87 11//10 130//82
f 136//88 129//81 150//102
f 158//110 131//83 134//86
f 133//85 12//11 135//87
f 158//110 155//107 131//83
f 136//88 150//102 159//111
f 135//87 12//11 11//10
f 139//91 13//13 141//93
f 156//108 13//13 139//91
f 13//13 148//100 141//93
f 14//15 154//106 143//95
f 14//15 143//95 148//100
f 13//13 14//15 148//100
f 16//16 149//101 15//14
f 149//101 154//106 15//14
f 16//16 160//112 149//101
f 14//15 15//14 154//106
f 156//108 16//16 13//13
f 156//108 160//112 16//16
f 169//119 161//113 166//116
f 163//115 165//213 167//117
f 169//119 174//122 161//113
f 188//132 165//213 163//115
f 162//114 183//129 189//133
f 162//114 176//124 183//129
f 188//132 186//216 165//213
f 165//213 200//142 167//117
f 164//215 218//217 193//218
f 164//215 185//214 218//217
f 165//213 194//219 200//142
f 168//118 199//141 207//147
f 168//118 207//147 170//120
f 171//121 172//196 175//123
f 171//121 205//199 172//196
f 171//121 206//146 205//199
f 178//195 175//123 172//196
f 173//194 204//198 213//223
f 173//194 213//223 177//200
f 178//195 184//130 175//123
f 178//195 180//126 184//130
f 212//197 180//126 178//195
f 190//134 182//128 179//125
f 212//197 211//151 180//126
f 191//135 181//127 210//150
f 190//134 187//131 182//128
f 219//155 186//216 192//136
f 186//216 188//132 192//136
f 219//155 217//224 186//216
f 191//135 210//150 220//156
f 194//219 195//137 200//142
f 194//219 224//160 195//137
f 194//219 217//224 224//160
f 196//138 223//159 215//153
f 197//139 208//148 198//140
f 197//139 201//143 208//148
f 196//138 215//153 202//144
f 203//145 205//199 206//146
f 203//145 212//197 205//199
f 203//145 214//152 212//197
f 216//154 221//157 209//149
f 211//151 212//197 214//152
f 216//154 222//158 221//157
f 217//224 219//155 224//160
f 20//20 22//22 17//17
f 26//26 28//28 23//23
f 32//32 34//34 30//30
f 37//37 39//39 38//38
f 44//44 46//46 41//41
f 50//50 52//52 47//47
f 56//56 58//58 54//54
f 59//59 62//62 64//64
f 67//161 69//206 70//162
f 71//164 73//207 74//165
f 77//167 79//208 80//168
f 84//170 87//209 88//171
f 90//173 94//220 93//174
f 97//176 99//221 100//177
f 101//179 103//222 104//180
f 108//182 109//210 110//183
f 113//65 116//68 118//70
f 122//74 124//76 119//71
f 128//80 130//82 125//77
f 133//85 135//87 134//86
f 139//91 141//93 140//92
f 146//98 148//100 143//95
f 152//104 154//106 149//101
f 155//107 158//110 160//112
f 163//115 167//117 166//116
f 171//121 175//123 174//122
f 179//125 182//128 184//130
f 187//131 190//134 192//136
f 197//139 198//140 200//142
f 203//145 206//146 208//148
f 211//151 214//152 216//154
f 221//157 222//158 224//160
f 40//40 39//39 34//34
f 61//61 60//60 43//43
f 44//44 52//52 51//51
f 47//47 58//58 57//57
f 20//20 46//46 45//45
f 26//26 49//49 48//48
f 31//31 57//57 56//56
f 63//63 62//62 38//38
f 86//185 85//201 81//186
f 112//188 111//211 91//189
f 91//189 95//192 96//191
f 95//192 105//212 106//193
f 68//163 90//173 89//175
f 100//177 99//221 71//164
f 104//180 103//222 77//167
f 83//172 108//182 107//184
f 129//81 136//88 135//87
f 138//90 157//109 156//108
f 148//100 147//99 142//94
f 154//106 153//105 144//96
f 115//67 138//90 137//89
f 122//74 145//97 144//96
f 151//103 150//102 129//81
f 159//111 158//110 134//86
f 168//118 170//120 169//119
f 173//194 177//200 178//195
f 189//133 188//132 163//115
f 191//135 190//134 179//125
f 195//137 224//160 223//159
f 221//157 220//156 210//150
f 198//140 208//148 207//147
f 212//197 213//223 204//198
f 167//117 200//142 199//141
f 205//199 204//198 173//194
f 177//200 213//223 212//197
f 220//156 219//155 192//136
f 37//37 36//36 18//18
f 59//59 61//61 36//36
f 21//21 24//24 23//23
f 24//24 51//51 50//50
f 42//42 41//41 19//19
f 27//27 31//31 30//30
f 53//53 55//55 33//33
f 64//64 63//63 55//55
f 85//201 86//185 65//202
f 65//202 76//205 75//204
f 76//205 82//187 81//186
f 93//174 94//220 70//162
f 97//176 98//178 74//165
f 79//208 101//179 102//181
f 87//209 110//183 109//210
f 111//211 112//188 106//193
f 114//66 133//85 132//84
f 155//107 157//109 132//84
f 120//72 119//71 118//70
f 120//72 147//99 146//98
f 116//68 140//92 142//94
f 126//78 125//77 124//76
f 153//105 152//104 127//79
f 149//101 160//112 159//111
f 187//131 189//133 183//129
f 174//122 176//124 162//114
f 184//130 183//129 176//124
f 165//213 186//216 185//214
f 186//216 217//224 218//217
f 170//120 207//147 206//146
f 193//218 194//219 165//213
f 218//217 217//224 194//219
f 211//151 210//150 181//127
f 196//138 202//144 201//143
f 202//144 215//153 214//152
f 215//153 223//159 222//158
