# Blender 5.2.0 LTS
# www.blender.org
o building_producer
v -3.033442 -0.000000 -2.348471
v 3.033694 -0.000000 -2.348145
v 3.033442 0.000000 2.348471
v -3.033694 0.000000 2.348145
v -3.033442 2.600000 -2.348471
v 3.033694 2.600000 -2.348145
v 3.033442 2.600000 2.348471
v -3.033694 2.600000 2.348145
v -2.233669 2.600000 -1.748089
v 2.233913 2.600000 -1.747778
v 2.233669 2.600000 1.748089
v -2.233913 2.600000 1.747778
v -2.233669 4.000000 -1.748089
v 2.233913 4.000000 -1.747778
v 2.233669 4.000000 1.748089
v -2.233913 4.000000 1.747778
v -1.040000 0.210000 2.400000
v 1.040000 0.210000 2.400000
v 1.040000 0.210000 2.800000
v -1.040000 0.210000 2.800000
v -1.040000 2.290000 2.400000
v 1.040000 2.290000 2.400000
v 1.040000 2.290000 2.800000
v -1.040000 2.290000 2.800000
v -3.071278 0.022021 -2.337109
v -3.100000 0.055510 -2.297519
v -3.081514 0.062669 -2.346742
v -3.046066 0.058575 -2.381746
v -2.996218 0.043521 -2.400000
v -3.030141 0.017088 -2.377463
v 3.030489 0.017901 -2.377604
v 2.996898 0.045142 -2.400000
v 3.046473 0.059407 -2.381685
v 3.081575 0.062932 -2.346802
v 3.100000 0.055510 -2.297519
v 3.071567 0.022127 -2.336914
v 3.081518 0.063551 2.347179
v 3.071652 0.022709 2.337250
v 3.100000 0.056672 2.298147
v 3.046530 0.059639 2.381742
v 2.996898 0.045143 2.400000
v 3.030377 0.017923 2.377779
v -3.081457 0.063291 2.347118
v -3.100000 0.056672 2.298147
v -3.071475 0.022539 2.337194
v -3.046122 0.058809 2.381803
v -3.029754 0.017028 2.377812
v -2.996218 0.043522 2.400000
v -3.081518 2.536448 -2.347180
v -3.100000 2.543328 -2.298149
v -3.073808 2.576010 -2.336618
v -3.030223 2.581176 -2.379252
v -2.996898 2.554856 -2.400000
v -3.046530 2.540360 -2.381743
v 3.070685 2.577932 -2.337424
v 3.100000 2.543328 -2.298149
v 3.081457 2.536709 -2.347119
v 3.046123 2.541191 -2.381804
v 2.996218 2.556478 -2.400000
v 3.023670 2.582720 -2.377647
v 3.046066 2.541425 2.381746
v 3.029791 2.581098 2.380540
v 2.996218 2.556479 2.400000
v 3.081514 2.537331 2.346741
v 3.100000 2.544490 2.297518
v 3.076864 2.574727 2.335431
v -3.081575 2.537068 2.346802
v -3.073921 2.576498 2.336216
v -3.100000 2.544490 2.297518
v -3.046473 2.540593 2.381685
v -2.996898 2.554858 2.400000
v -3.030218 2.580584 2.380096
v -2.271236 2.615942 -1.725831
v -2.300000 2.640337 -1.696277
v -2.281727 2.652559 -1.746090
v -2.246656 2.649449 -1.781533
v -2.197366 2.631236 -1.800000
v -2.225660 2.610254 -1.772507
v 2.231436 2.611317 -1.773179
v 2.198000 2.633321 -1.800000
v 2.247027 2.650526 -1.781476
v 2.281785 2.652910 -1.746147
v 2.300000 2.640337 -1.696277
v 2.271189 2.615878 -1.732016
v 2.281723 2.653835 1.746545
v 2.271419 2.616718 1.736707
v 2.300000 2.642071 1.696950
v 2.247088 2.650863 1.781536
v 2.198000 2.633323 1.800000
v 2.230956 2.613021 1.777136
v -2.281666 2.653488 1.746487
v -2.300000 2.642071 1.696950
v -2.271868 2.616871 1.736470
v -2.246717 2.649791 1.781593
v -2.230795 2.612201 1.777027
v -2.197366 2.631237 1.800000
v -2.281723 3.946165 -1.746546
v -2.300000 3.957929 -1.696951
v -2.271419 3.983282 -1.736708
v -2.230956 3.986979 -1.777136
v -2.198000 3.966677 -1.800000
v -2.247088 3.949136 -1.781537
v 2.271868 3.983129 -1.736472
v 2.300000 3.957929 -1.696951
v 2.281666 3.946511 -1.746489
v 2.246717 3.950208 -1.781594
v 2.197366 3.968762 -1.800000
v 2.230942 3.987785 -1.777038
v 2.246656 3.950551 1.781532
v 2.225660 3.989746 1.772506
v 2.197366 3.968764 1.800000
v 2.281727 3.947441 1.746090
v 2.300000 3.959663 1.696276
v 2.271236 3.984057 1.725830
v -2.281785 3.947090 1.746147
v -2.271189 3.984122 1.732015
v -2.300000 3.959663 1.696276
v -2.247027 3.949474 1.781476
v -2.198000 3.966679 1.800000
v -2.231436 3.988683 1.773179
v -3.209564 3.825596 -0.494133
v -3.232469 3.800000 -0.459844
v -3.254728 3.837063 -0.477111
v -3.277065 3.823807 -0.418912
v -3.296433 3.861672 -0.432306
v -3.256765 3.853294 -0.479883
v -3.213890 3.860000 -0.500000
v 3.213883 3.860366 -0.500082
v 3.256853 3.853259 -0.479777
v 3.277086 3.823767 -0.418339
v 3.296208 3.861587 -0.432577
v 3.209665 3.825463 -0.493016
v 3.254871 3.836817 -0.476443
v 3.232740 3.800000 -0.457937
v 3.277214 3.824434 0.419184
v 3.300157 3.862624 0.435890
v 3.256828 3.853528 0.479935
v 3.213890 3.860000 0.500000
v 3.254812 3.837461 0.477192
v 3.209564 3.825596 0.494132
v 3.232469 3.800000 0.459917
v -3.277236 3.824393 0.418612
v -3.300204 3.862540 0.436386
v -3.232740 3.800000 0.458010
v -3.209665 3.825463 0.493015
v -3.254953 3.837212 0.476529
v -3.213883 3.860366 0.500082
v -3.256917 3.853493 0.479830
v -3.300157 4.237376 -0.435891
v -3.277214 4.275566 -0.419185
v -3.232469 4.300000 -0.459919
v -3.209564 4.274404 -0.494133
v -3.254812 4.262538 -0.477193
v -3.213890 4.240000 -0.500000
v -3.256828 4.246472 -0.479936
v 3.209665 4.274538 -0.493016
v 3.232740 4.300000 -0.458012
v 3.254953 4.262788 -0.476530
v 3.277236 4.275608 -0.418614
v 3.300204 4.237460 -0.436387
v 3.256917 4.246506 -0.479831
v 3.214020 4.239634 -0.500000
v 3.213890 4.240000 0.500000
v 3.256765 4.246706 0.479882
v 3.296433 4.238328 0.432306
v 3.277065 4.276192 0.418911
v 3.254728 4.262938 0.477110
v 3.232469 4.300000 0.459842
v 3.209564 4.274404 0.494132
v -3.277086 4.276233 0.418338
v -3.296208 4.238413 0.432576
v -3.256853 4.246741 0.479776
v -3.214020 4.239634 0.500000
v -3.254871 4.263184 0.476442
v -3.209665 4.274538 0.493015
v -3.232740 4.300000 0.457935
v -3.155528 0.021668 -2.355528
v -3.114021 -0.000000 -2.314020
v -3.181630 0.096811 -2.399883
v -3.183919 0.051848 -2.370394
v -3.200000 0.101495 -2.373523
v -3.199883 0.096811 -2.381630
v -3.173523 0.101495 -2.400000
v -3.170393 0.051848 -2.383919
v -2.000951 0.096794 -2.382406
v -2.030810 0.051481 -2.383867
v -2.028744 0.100904 -2.400000
v -2.019040 0.096419 -2.399056
v -2.000000 0.101495 -2.373523
v -2.016133 0.051786 -2.370358
v -2.085979 -0.000000 -2.314020
v -2.044476 0.021715 -2.355454
v -2.016185 0.051421 -1.230845
v -2.000000 0.100904 -1.228744
v -2.018370 0.096394 -1.201696
v -2.001695 0.096394 -1.218370
v -2.028744 0.100904 -1.200000
v -2.030845 0.051421 -1.216185
v -2.085979 -0.000000 -1.285979
v -2.044555 0.021767 -1.244555
v -3.182406 0.096795 -1.200951
v -3.200000 0.100904 -1.228744
v -3.183867 0.051481 -1.230810
v -3.114021 -0.000000 -1.285979
v -3.155454 0.021715 -1.244476
v -3.170357 0.051786 -1.216133
v -3.173523 0.101495 -1.200000
v -3.199056 0.096419 -1.219041
v -3.181630 4.503605 -2.398305
v -3.200000 4.499096 -2.371256
v -3.183815 4.548579 -2.369155
v -3.114021 4.600000 -2.314021
v -3.155445 4.578232 -2.355445
v -3.198304 4.503605 -2.381630
v -3.169155 4.548579 -2.383815
v -3.171256 4.499096 -2.400000
v -2.085979 4.600000 -2.314021
v -2.044546 4.578285 -2.355525
v -2.017594 4.503205 -2.399050
v -2.016133 4.548519 -2.369190
v -2.000000 4.499096 -2.371256
v -2.000944 4.503580 -2.380960
v -2.026477 4.498505 -2.400000
v -2.029642 4.548213 -2.383868
v -2.029606 4.548152 -1.216081
v -2.026477 4.498505 -1.200000
v -2.000117 4.503189 -1.218371
v -2.018370 4.503189 -1.200117
v -2.000000 4.498505 -1.226477
v -2.016081 4.548152 -1.229607
v -2.085979 4.600000 -1.285980
v -2.044472 4.578332 -1.244472
v -3.183867 4.548213 -1.229643
v -3.200000 4.498505 -1.226477
v -3.180960 4.503580 -1.200944
v -3.199049 4.503205 -1.217595
v -3.171256 4.499096 -1.200000
v -3.169190 4.548519 -1.216133
v -3.114021 4.600000 -1.285980
v -3.155524 4.578285 -1.244547
v 2.044472 0.021668 -2.355528
v 2.085979 -0.000000 -2.314020
v 2.018370 0.096811 -2.399883
v 2.016081 0.051848 -2.370394
v 2.000000 0.101495 -2.373523
v 2.000117 0.096811 -2.381630
v 2.026477 0.101495 -2.400000
v 2.029606 0.051848 -2.383919
v 3.199049 0.096794 -2.382406
v 3.169190 0.051481 -2.383867
v 3.171256 0.100904 -2.400000
v 3.180959 0.096419 -2.399056
v 3.200000 0.101495 -2.373523
v 3.183867 0.051786 -2.370358
v 3.114021 -0.000000 -2.314020
v 3.155525 0.021715 -2.355454
v 3.181630 0.096394 -1.201696
v 3.183815 0.051421 -1.230845
v 3.200000 0.100904 -1.228744
v 3.198305 0.096394 -1.218370
v 3.171256 0.100904 -1.200000
v 3.169155 0.051421 -1.216185
v 3.114021 -0.000000 -1.285979
v 3.155445 0.021767 -1.244555
v 2.017594 0.096795 -1.200951
v 2.000000 0.100904 -1.228744
v 2.016133 0.051481 -1.230810
v 2.085979 -0.000000 -1.285979
v 2.044546 0.021715 -1.244475
v 2.029642 0.051786 -1.216133
v 2.026477 0.101495 -1.200000
v 2.000943 0.096419 -1.219041
v 2.018370 4.503605 -2.398305
v 2.000000 4.499096 -2.371256
v 2.016185 4.548579 -2.369155
v 2.085979 4.600000 -2.314021
v 2.044555 4.578233 -2.355445
v 2.001696 4.503605 -2.381630
v 2.030845 4.548579 -2.383815
v 2.028744 4.499096 -2.400000
v 3.114021 4.600000 -2.314021
v 3.155454 4.578285 -2.355525
v 3.182406 4.503205 -2.399050
v 3.183867 4.548519 -2.369190
v 3.200000 4.499096 -2.371256
v 3.199056 4.503580 -2.380960
v 3.173523 4.498505 -2.400000
v 3.170357 4.548213 -2.383868
v 3.199883 4.503189 -1.218371
v 3.170393 4.548152 -1.216081
v 3.173523 4.498505 -1.200000
v 3.181630 4.503189 -1.200118
v 3.200000 4.498505 -1.226477
v 3.183919 4.548152 -1.229607
v 3.114021 4.600000 -1.285980
v 3.155528 4.578331 -1.244472
v 2.016133 4.548213 -1.229643
v 2.000000 4.498505 -1.226477
v 2.019041 4.503580 -1.200944
v 2.000951 4.503205 -1.217595
v 2.028744 4.499096 -1.200000
v 2.030810 4.548519 -1.216133
v 2.085979 4.600000 -1.285980
v 2.044476 4.578285 -1.244547
v -1.037516 0.156129 2.442951
v -1.025946 0.179654 2.406312
v -1.001658 0.150000 2.417881
v -1.094390 0.213003 2.443130
v -1.100000 0.248342 2.417881
v -1.070346 0.224054 2.406312
v 1.093899 0.212482 2.443126
v 1.072221 0.216611 2.406702
v 1.100000 0.248342 2.417881
v 1.037304 0.155612 2.444821
v 1.002123 0.150000 2.420449
v 1.035776 0.179493 2.407275
v 1.094388 0.212696 2.755179
v 1.100000 0.247877 2.779552
v 1.070507 0.214224 2.792725
v 1.037518 0.156101 2.756874
v 1.033389 0.177780 2.793298
v 1.001658 0.150000 2.782120
v -1.093899 0.212235 2.755210
v -1.072259 0.214467 2.792307
v -1.100000 0.247877 2.779552
v -1.037304 0.155640 2.755030
v -1.002123 0.150000 2.779552
v -1.035533 0.177741 2.792307
v -1.070507 2.285776 2.407275
v -1.100000 2.252124 2.420448
v -1.094388 2.287305 2.444820
v -1.037518 2.343899 2.443126
v -1.001658 2.350000 2.417880
v -1.033389 2.322221 2.406702
v 1.037766 2.343899 2.444790
v 1.035533 2.322259 2.407692
v 1.002123 2.350000 2.420448
v 1.094361 2.287305 2.444970
v 1.100000 2.252124 2.420448
v 1.072259 2.285534 2.407692
v 1.093871 2.287516 2.757049
v 1.070347 2.275946 2.793688
v 1.100000 2.251658 2.782119
v 1.036997 2.344390 2.756869
v 1.001658 2.350000 2.782119
v 1.025946 2.320347 2.793688
v -1.093899 2.287518 2.756874
v -1.100000 2.251658 2.782119
v -1.072221 2.283389 2.793298
v -1.035776 2.320507 2.792725
v -1.002123 2.350000 2.779551
v -1.037304 2.344388 2.755179
v -2.152640 0.124236 1.247360
v -2.114021 0.100000 1.285979
v -2.200000 0.197132 1.270641
v -2.175448 0.155387 1.237675
v -2.162324 0.155387 1.224552
v -2.129359 0.197132 1.200000
v -1.471207 0.196720 1.200000
v -1.438045 0.155092 1.224545
v -1.424555 0.155432 1.237654
v -1.400000 0.197132 1.270641
v -1.485979 0.100000 1.285979
v -1.447362 0.124240 1.247371
v -1.400000 0.196721 1.928793
v -1.424550 0.155060 1.961899
v -1.471207 0.196721 2.000000
v -1.438101 0.155060 1.975451
v -1.485979 0.100000 1.914021
v -1.447374 0.124244 1.952626
v -2.200000 0.196721 1.928793
v -2.175456 0.155093 1.961955
v -2.114021 0.100000 1.914021
v -2.152629 0.124240 1.952638
v -2.129359 0.197132 2.000000
v -2.162346 0.155432 1.975446
v -2.200000 1.103280 1.271206
v -2.175450 1.144941 1.238101
v -2.114021 1.200000 1.285979
v -2.152626 1.175756 1.247374
v -2.128793 1.103280 1.200000
v -2.161898 1.144941 1.224549
v -1.485979 1.200000 1.285979
v -1.447371 1.175760 1.247362
v -1.400000 1.103280 1.271206
v -1.424545 1.144909 1.238045
v -1.470641 1.102868 1.200000
v -1.437654 1.144568 1.224555
v -1.470641 1.102868 2.000000
v -1.437675 1.144613 1.975448
v -1.400000 1.102868 1.929359
v -1.424552 1.144613 1.962324
v -1.485979 1.200000 1.914021
v -1.447360 1.175764 1.952640
v -2.175445 1.144568 1.962346
v -2.200000 1.102868 1.929359
v -2.128793 1.103280 2.000000
v -2.161955 1.144909 1.975455
v -2.114021 1.200000 1.914021
v -2.152638 1.175760 1.952629
v 1.447360 0.124237 1.247360
v 1.485979 0.100000 1.285979
v 1.400000 0.197132 1.270641
v 1.424552 0.155387 1.237675
v 1.437675 0.155387 1.224552
v 1.470641 0.197132 1.200000
v 2.128793 0.196720 1.200000
v 2.161955 0.155092 1.224545
v 2.175446 0.155432 1.237654
v 2.200000 0.197132 1.270641
v 2.114021 0.100000 1.285979
v 2.152638 0.124240 1.247372
v 2.200000 0.196721 1.928793
v 2.175450 0.155060 1.961899
v 2.128793 0.196721 2.000000
v 2.161899 0.155060 1.975451
v 2.114021 0.100000 1.914021
v 2.152626 0.124244 1.952626
v 1.400000 0.196721 1.928793
v 1.424545 0.155093 1.961955
v 1.485979 0.100000 1.914021
v 1.447372 0.124240 1.952638
v 1.470641 0.197132 2.000000
v 1.437654 0.155432 1.975445
v 1.400000 1.103280 1.271206
v 1.424549 1.144941 1.238101
v 1.485979 1.200000 1.285979
v 1.447374 1.175756 1.247374
v 1.471207 1.103280 1.200000
v 1.438102 1.144941 1.224549
v 2.114021 1.200000 1.285979
v 2.152628 1.175760 1.247362
v 2.200000 1.103280 1.271206
v 2.175456 1.144909 1.238045
v 2.129359 1.102868 1.200000
v 2.162346 1.144568 1.224554
v 2.129359 1.102868 2.000000
v 2.162324 1.144613 1.975448
v 2.200000 1.102868 1.929359
v 2.175448 1.144613 1.962325
v 2.114021 1.200000 1.914021
v 2.152640 1.175764 1.952640
v 1.424555 1.144568 1.962346
v 1.400000 1.102868 1.929359
v 1.471207 1.103280 2.000000
v 1.438045 1.144909 1.975455
v 1.485979 1.200000 1.914021
v 1.447362 1.175760 1.952628
vn -0.2790 -0.9207 -0.2728
vn 0.2811 -0.9185 0.2781
vn -0.2840 -0.9204 0.2689
vn 0.2788 -0.9193 -0.2778
vn -0.2811 0.9185 -0.2781
vn 0.2790 0.9207 0.2728
vn 0.2993 0.9062 -0.2988
vn -0.2788 0.9193 0.2778
vn -0.2885 -0.9199 -0.2657
vn 0.2312 -0.9468 0.2237
vn -0.2321 -0.9492 0.2126
vn 0.2389 -0.9436 -0.2293
vn -0.2312 0.9468 -0.2237
vn 0.2885 0.9199 0.2657
vn 0.2316 0.9494 -0.2122
vn -0.2389 0.9436 0.2293
vn -0.1704 -0.1704 -0.9705
vn 0.1293 0.1292 -0.9832
vn 0.1200 -0.1316 -0.9840
vn -0.1316 0.1200 -0.9840
vn -0.1292 -0.1293 0.9832
vn 0.1316 -0.1200 0.9840
vn 0.1704 0.1704 0.9705
vn -0.1200 0.1316 0.9840
vn -0.7152 -0.6207 -0.3213
vn -0.9415 -0.3065 -0.1401
vn -0.8262 -0.1495 -0.5431
vn -0.5582 -0.1418 -0.8175
vn -0.1400 -0.3057 -0.9418
vn -0.3469 -0.6121 -0.7106
vn 0.3464 -0.6055 -0.7165
vn 0.1411 -0.2970 -0.9444
vn 0.5597 -0.1405 -0.8167
vn 0.8268 -0.1489 -0.5424
vn 0.9420 -0.3051 -0.1397
vn 0.7162 -0.6193 -0.3217
vn 0.8260 -0.1478 0.5440
vn 0.7197 -0.6153 0.3217
vn 0.9435 -0.3000 0.1408
vn 0.5586 -0.1400 0.8175
vn 0.1407 -0.2955 0.9449
vn 0.3466 -0.6041 0.7176
vn -0.8252 -0.1487 0.5448
vn -0.9433 -0.3002 0.1413
vn -0.7196 -0.6158 0.3209
vn -0.5575 -0.1416 0.8180
vn -0.3448 -0.6141 0.7099
vn -0.1397 -0.3018 0.9431
vn -0.8262 0.1378 -0.5462
vn -0.9468 0.2900 -0.1395
vn -0.7283 0.6045 -0.3228
vn -0.3467 0.5940 -0.7259
vn -0.1386 0.2867 -0.9479
vn -0.5592 0.1319 -0.8185
vn 0.7083 0.6225 -0.3328
vn 0.9422 0.3036 -0.1418
vn 0.8251 0.1522 -0.5440
vn 0.5526 0.1675 -0.8164
vn 0.1477 0.3092 -0.9395
vn 0.3014 0.6357 -0.7107
vn 0.5586 0.1231 0.8203
vn 0.3460 0.5905 0.7291
vn 0.1355 0.2865 0.9484
vn 0.8266 0.1223 0.5493
vn 0.9507 0.2787 0.1363
vn 0.7391 0.5903 0.3244
vn -0.8271 0.1380 0.5449
vn -0.7261 0.6074 0.3222
vn -0.9457 0.2941 0.1382
vn -0.5617 0.1279 0.8174
vn -0.1377 0.2816 0.9496
vn -0.3480 0.5876 0.7305
vn -0.6275 -0.7296 -0.2719
vn -0.9111 -0.3844 -0.1485
vn -0.8101 -0.2237 -0.5419
vn -0.5706 -0.2184 -0.7916
vn -0.1578 -0.4073 -0.8996
vn -0.3269 -0.7269 -0.6039
vn 0.3512 -0.6932 -0.6294
vn 0.1500 -0.3879 -0.9094
vn 0.5689 -0.1797 -0.8025
vn 0.8191 -0.1891 -0.5415
vn 0.9134 -0.3816 -0.1418
vn 0.6465 -0.7026 -0.2973
vn 0.8253 -0.1611 0.5413
vn 0.6640 -0.6763 0.3191
vn 0.9188 -0.3695 0.1386
vn 0.5671 -0.1547 0.8090
vn 0.1441 -0.3683 0.9185
vn 0.3465 -0.6679 0.6587
vn -0.8250 -0.1594 0.5422
vn -0.9198 -0.3670 0.1385
vn -0.6668 -0.6742 0.3177
vn -0.5662 -0.1557 0.8094
vn -0.3480 -0.6780 0.6474
vn -0.1429 -0.3842 0.9121
vn -0.8253 0.1611 -0.5413
vn -0.9188 0.3695 -0.1386
vn -0.6640 0.6763 -0.3191
vn -0.3465 0.6679 -0.6587
vn -0.1441 0.3683 -0.9185
vn -0.5671 0.1547 -0.8090
vn 0.6670 0.6741 -0.3174
vn 0.9198 0.3670 -0.1385
vn 0.8250 0.1594 -0.5422
vn 0.5663 0.1550 -0.8095
vn 0.1427 0.3842 -0.9121
vn 0.3492 0.6772 -0.6477
vn 0.5706 0.2184 0.7916
vn 0.3269 0.7269 0.6039
vn 0.1578 0.4073 0.8996
vn 0.8101 0.2237 0.5419
vn 0.9111 0.3844 0.1485
vn 0.6275 0.7296 0.2719
vn -0.8191 0.1891 0.5415
vn -0.6465 0.7026 0.2973
vn -0.9134 0.3816 0.1418
vn -0.5689 0.1797 0.8025
vn -0.1500 0.3879 0.9094
vn -0.3512 0.6932 0.6294
vn -0.1629 -0.4962 -0.8528
vn -0.3225 -0.8743 -0.3627
vn -0.6049 -0.4065 -0.6847
vn 0.1609 -0.5148 -0.8421
vn 0.6001 -0.4226 -0.6792
vn 0.3194 -0.8787 -0.3549
vn 0.5882 -0.4157 0.6937
vn 0.1632 -0.4959 0.8529
vn 0.3248 -0.8734 0.3629
vn -0.3217 -0.8777 0.3551
vn -0.1613 -0.5145 0.8422
vn -0.5817 -0.4330 0.6886
vn -0.3248 0.8734 -0.3629
vn -0.1632 0.4959 -0.8529
vn -0.5882 0.4157 -0.6937
vn 0.1610 0.5139 -0.8426
vn 0.3217 0.8777 -0.3551
vn 0.5816 0.4330 -0.6887
vn 0.6049 0.4065 0.6847
vn 0.3225 0.8743 0.3628
vn 0.1629 0.4962 0.8528
vn -0.6000 0.4226 0.6793
vn -0.1607 0.5142 0.8425
vn -0.3194 0.8787 0.3549
vn -0.5752 0.1753 0.7990
vn -0.7878 -0.5306 -0.3127
vn -0.9471 -0.1469 -0.2853
vn 0.7989 0.1752 -0.5754
vn -0.2853 -0.1469 -0.9471
vn -0.3127 -0.5306 -0.7878
vn -0.8204 0.1768 -0.5437
vn 0.3000 -0.5311 -0.7924
vn 0.2645 -0.1474 -0.9530
vn 0.6026 0.1756 0.7785
vn 0.9428 -0.1465 -0.2994
vn 0.7831 -0.5301 -0.3252
vn 0.7879 -0.5305 0.3126
vn 0.9491 -0.1468 0.2788
vn 0.5718 0.1801 -0.8004
vn -0.8003 0.1800 0.5719
vn 0.2788 -0.1468 0.9491
vn 0.3126 -0.5305 0.7879
vn -0.5439 0.1768 -0.8204
vn -0.9530 -0.1474 0.2645
vn -0.7924 -0.5311 0.3000
vn -0.3252 -0.5301 0.7831
vn -0.2994 -0.1465 0.9428
vn 0.7786 0.1756 0.6025
vn -0.5719 -0.1800 0.8003
vn -0.9491 0.1467 -0.2788
vn -0.7879 0.5305 -0.3126
vn 0.8004 -0.1801 -0.5718
vn -0.3126 0.5305 -0.7879
vn -0.2788 0.1468 -0.9491
vn 0.5437 -0.1769 0.8204
vn 0.7924 0.5311 -0.3000
vn 0.9530 0.1474 -0.2645
vn -0.7785 -0.1756 -0.6026
vn 0.2994 0.1465 -0.9428
vn 0.3252 0.5301 -0.7831
vn 0.3127 0.5306 0.7878
vn 0.2853 0.1469 0.9471
vn -0.7990 -0.1753 0.5752
vn 0.5754 -0.1752 -0.7989
vn 0.9471 0.1469 0.2853
vn 0.7878 0.5306 0.3127
vn -0.7831 0.5301 0.3252
vn -0.9428 0.1465 0.2994
vn -0.6025 -0.1756 -0.7786
vn 0.8203 -0.1768 0.5439
vn -0.2645 0.1474 0.9530
vn -0.3000 0.5311 0.7924
vn -0.8205 0.1768 -0.5437
vn -0.5439 0.1768 -0.8203
vn 0.7786 0.1757 0.6025
vn -0.3001 0.5311 0.7924
vn -0.4955 -0.8362 -0.2351
vn -0.3016 -0.4568 -0.8369
vn -0.1489 -0.8213 -0.5508
vn -0.8395 -0.4907 -0.2332
vn -0.8207 -0.1477 -0.5519
vn -0.4572 -0.3019 -0.8366
vn 0.8513 -0.4884 -0.1918
vn 0.5032 -0.3337 -0.7971
vn 0.8305 -0.1269 -0.5424
vn 0.4811 -0.8565 -0.1873
vn 0.1238 -0.8407 -0.5271
vn 0.3365 -0.5191 -0.7857
vn 0.8565 -0.4811 0.1873
vn 0.8407 -0.1238 0.5271
vn 0.5191 -0.3365 0.7857
vn 0.4884 -0.8513 0.1918
vn 0.3337 -0.5032 0.7971
vn 0.1269 -0.8305 0.5424
vn -0.8547 -0.4865 0.1812
vn -0.5290 -0.3415 0.7769
vn -0.8448 -0.1218 0.5211
vn -0.4812 -0.8581 0.1795
vn -0.1206 -0.8445 0.5218
vn -0.3418 -0.5290 0.7768
vn -0.5191 0.3365 -0.7857
vn -0.8407 0.1238 -0.5271
vn -0.8565 0.4811 -0.1873
vn -0.4884 0.8513 -0.1918
vn -0.1269 0.8305 -0.5424
vn -0.3337 0.5032 -0.7971
vn 0.4865 0.8547 -0.1812
vn 0.3415 0.5290 -0.7769
vn 0.1218 0.8448 -0.5211
vn 0.8581 0.4812 -0.1795
vn 0.8445 0.1206 -0.5218
vn 0.5290 0.3418 -0.7768
vn 0.8362 0.4955 0.2351
vn 0.4568 0.3016 0.8369
vn 0.8213 0.1489 0.5508
vn 0.4907 0.8395 0.2332
vn 0.1477 0.8207 0.5519
vn 0.3019 0.4572 0.8366
vn -0.8513 0.4884 0.1918
vn -0.8305 0.1269 0.5424
vn -0.5032 0.3337 0.7971
vn -0.3365 0.5191 0.7857
vn -0.1238 0.8407 0.5271
vn -0.4810 0.8565 0.1873
vn -0.2155 -0.0897 -0.9724
vn -0.7202 -0.6795 -0.1397
vn 0.2147 -0.1027 -0.9713
vn 0.6030 -0.1261 -0.7877
vn 0.7210 -0.6790 -0.1380
vn 0.9214 -0.2323 -0.3117
vn 0.6983 -0.7030 0.1350
vn 0.9059 -0.2512 0.3408
vn 0.2150 -0.0898 0.9725
vn 0.5744 -0.1120 0.8109
vn -0.6974 -0.7042 0.1336
vn -0.9041 -0.2533 0.3441
vn -0.2142 -0.1028 0.9714
vn -0.6983 0.7030 -0.1350
vn -0.9059 0.2512 -0.3408
vn -0.2150 0.0898 -0.9725
vn 0.2144 0.1023 -0.9714
vn 0.6974 0.7042 -0.1336
vn 0.2155 0.0897 0.9724
vn 0.6049 0.1145 0.7880
vn 0.7202 0.6795 0.1397
vn 0.9218 0.2317 0.3108
vn -0.7210 0.6790 0.1380
vn -0.9214 0.2323 0.3117
vn -0.2149 0.1022 0.9713
vn -0.6028 0.1262 0.7879
vn 0.9041 0.2533 -0.3441
vn -0.5704 -0.1241 0.8120
vn -0.3786 -0.8434 0.3814
vn 0.1830 -0.9659 0.1830
vn 0.3792 -0.8440 0.3792
vn -0.3814 0.8434 0.3786
vn -0.1830 0.9659 -0.1830
vn -0.3792 0.8440 -0.3792
vn 0.3786 0.8434 -0.3814
vn 0.1826 0.9661 -0.1823
vn 0.3807 0.8427 0.3807
vn 0.2492 -0.1962 -0.9484
vn -0.4329 -0.3833 -0.8159
vn -0.2511 -0.1951 -0.9481
vn 0.9483 -0.1960 0.2496
vn 0.8145 -0.3816 -0.4370
vn 0.9481 -0.1954 -0.2510
vn -0.8159 -0.3833 -0.4329
vn -0.9484 -0.1962 0.2492
vn -0.9481 -0.1951 -0.2511
vn -0.4390 -0.7827 0.4412
vn 0.2127 -0.9537 0.2127
vn 0.4393 -0.7836 0.4393
vn -0.4412 0.7827 0.4390
vn -0.2127 0.9537 -0.2127
vn -0.4393 0.7836 -0.4393
vn 0.4329 0.3833 0.8159
vn -0.2492 0.1962 0.9484
vn 0.2511 0.1951 0.9481
vn 0.4390 0.7827 -0.4412
vn 0.2127 0.9537 -0.2126
vn 0.4406 0.7821 0.4406
vn -0.8159 0.3844 -0.4320
vn 0.2510 0.1954 -0.9481
vn 0.4281 -0.3860 -0.8172
vn 0.9481 0.1951 0.2511
vn 0.8159 -0.3844 0.4320
vn -0.8172 -0.3860 0.4281
vn -0.9481 0.1954 0.2510
vn 0.8145 -0.3815 -0.4370
vn 0.4389 0.7827 -0.4412
vn -0.9218 -0.2317 -0.3108
vn 0.5702 0.1241 -0.8121
vn -0.5744 0.1120 -0.8109
vn -0.6049 -0.1145 -0.7880
vn -0.1826 -0.9661 0.1823
vn -0.3807 -0.8427 -0.3807
vn -0.1820 -0.9663 -0.1820
vn 0.1823 -0.9661 -0.1826
vn 0.3814 -0.8434 -0.3786
vn -0.1823 0.9661 0.1826
vn 0.1820 0.9663 0.1820
vn -0.2127 -0.9537 0.2126
vn -0.4406 -0.7821 -0.4406
vn -0.2126 -0.9537 -0.2126
vn 0.2126 -0.9537 -0.2127
vn 0.4412 -0.7827 -0.4390
vn -0.4320 0.3844 -0.8159
vn 0.4370 0.3815 -0.8145
vn -0.2496 0.1960 -0.9483
vn -0.9483 0.1960 -0.2496
vn -0.8145 0.3815 0.4370
vn 0.8172 0.3860 -0.4281
vn 0.8159 0.3833 0.4329
vn 0.9484 0.1962 -0.2492
vn 0.2496 -0.1960 0.9483
vn -0.4370 -0.3816 0.8145
vn 0.4320 -0.3844 0.8159
vn -0.2510 -0.1954 0.9481
vn -0.4281 0.3860 0.8172
vn -0.2126 0.9537 0.2127
vn 0.2126 0.9537 0.2126
vn 0.4412 -0.7827 -0.4389
vn 0.8159 0.3833 0.4330
s 1
f 1//1 3//2 4//3
f 1//1 2//4 3//2
f 5//5 7//6 6//7
f 5//5 8//8 7//6
f 9//9 11//10 12//11
f 9//9 10//12 11//10
f 13//13 15//14 14//15
f 13//13 16//16 15//14
f 17//17 22//18 18//19
f 17//17 21//20 22//18
f 20//21 19//22 23//23
f 20//21 23//23 24//24
f 25//25 26//26 27//27
f 28//28 29//29 30//30
f 31//31 32//32 33//33
f 34//34 35//35 36//36
f 37//37 38//38 39//39
f 40//40 41//41 42//42
f 43//43 44//44 45//45
f 46//46 47//47 48//48
f 49//49 50//50 51//51
f 52//52 53//53 54//54
f 55//55 56//56 57//57
f 58//58 59//59 60//60
f 61//61 62//62 63//63
f 64//64 65//65 66//66
f 67//67 68//68 69//69
f 70//70 71//71 72//72
f 73//73 74//74 75//75
f 76//76 77//77 78//78
f 79//79 80//80 81//81
f 82//82 83//83 84//84
f 85//85 86//86 87//87
f 88//88 89//89 90//90
f 91//91 92//92 93//93
f 94//94 95//95 96//96
f 97//97 98//98 99//99
f 100//100 101//101 102//102
f 103//103 104//104 105//105
f 106//106 107//107 108//108
f 109//109 110//110 111//111
f 112//112 113//113 114//114
f 115//115 116//116 117//117
f 118//118 119//119 120//120
f 121//121 122//122 123//123
f 132//124 133//125 134//126
f 139//127 140//128 141//129
f 144//130 145//131 146//132
f 151//133 152//134 153//135
f 156//136 157//137 158//138
f 167//139 168//140 169//141
f 174//142 175//143 176//144
f 179//145 180//146 181//147
f 182//148 183//149 184//150
f 185//151 186//152 187//153
f 188//154 189//155 190//156
f 193//157 194//158 195//159
f 196//160 197//161 198//162
f 201//163 202//164 203//165
f 206//166 207//167 208//168
f 209//169 210//170 211//171
f 214//172 215//173 216//174
f 219//175 220//176 221//177
f 222//178 223//179 224//180
f 225//181 226//182 227//183
f 228//184 229//185 230//186
f 233//187 234//188 235//189
f 236//190 237//191 238//192
f 243//145 244//146 245//147
f 246//148 247//149 248//150
f 249//193 250//152 251//153
f 252//154 253//155 254//156
f 257//159 258//157 259//158
f 260//160 261//161 262//162
f 265//194 266//164 267//165
f 270//166 271//167 272//195
f 273//169 274//170 275//171
f 278//172 279//173 280//174
f 283//175 284//176 285//177
f 286//178 287//179 288//180
f 289//183 290//181 291//182
f 292//184 293//185 294//186
f 297//187 298//188 299//189
f 300//190 301//191 302//196
f 305//197 306//198 307//199
f 308//200 309//201 310//202
f 311//203 312//204 313//205
f 314//206 315//207 316//208
f 317//209 318//210 319//211
f 320//212 321//213 322//214
f 323//215 324//216 325//217
f 326//218 327//219 328//220
f 329//221 330//222 331//223
f 332//224 333//225 334//226
f 335//227 336//228 337//229
f 338//230 339//231 340//232
f 341//233 342//234 343//235
f 344//236 345//237 346//238
f 347//239 348//240 349//241
f 350//242 351//243 352//244
f 28//28 25//25 27//27
f 33//33 36//36 31//31
f 40//40 38//38 37//37
f 45//45 46//46 43//43
f 51//51 54//54 49//49
f 58//58 55//55 57//57
f 61//61 66//66 62//62
f 70//70 68//68 67//67
f 76//76 73//73 75//75
f 81//81 84//84 79//79
f 88//88 86//86 85//85
f 93//93 94//94 91//91
f 99//99 102//102 97//97
f 106//106 103//103 105//105
f 109//109 114//114 110//110
f 118//118 116//116 115//115
f 123//123 127//245 121//121
f 124//246 123//123 122//122
f 133//125 128//247 129//248
f 130//249 133//125 131//250
f 139//127 135//251 136//252
f 138//253 139//127 137//254
f 142//255 146//132 143//256
f 147//257 146//132 145//131
f 150//258 153//135 149//259
f 154//260 153//135 152//134
f 158//138 162//261 156//136
f 159//262 158//138 157//137
f 167//139 163//263 164//264
f 166//265 167//139 165//266
f 174//142 170//267 171//268
f 173//269 174//142 172//270
f 179//145 184//150 180//146
f 185//151 190//156 186//152
f 195//159 198//162 193//157
f 203//165 208//168 201//163
f 211//171 214//172 209//169
f 219//175 224//180 220//176
f 227//183 230//186 225//181
f 235//189 238//192 233//187
f 243//145 248//150 244//146
f 249//193 254//156 250//152
f 257//159 262//162 258//157
f 267//165 272//195 265//194
f 275//171 278//172 273//169
f 283//175 288//180 284//176
f 289//183 294//186 290//181
f 299//189 302//196 297//187
f 305//197 310//202 306//198
f 311//203 316//208 312//204
f 319//211 320//212 317//209
f 323//215 328//220 324//216
f 332//224 329//221 331//223
f 335//227 340//232 336//228
f 341//233 346//238 342//234
f 350//242 347//239 349//241
f 48//48 42//42 41//41
f 69//69 51//51 50//50
f 60//60 53//53 52//52
f 55//55 65//65 56//56
f 28//28 53//53 29//29
f 34//34 56//56 35//35
f 39//39 64//64 37//37
f 71//71 46//46 48//48
f 96//96 90//90 89//89
f 98//98 116//116 99//99
f 100//100 107//107 101//101
f 114//114 104//104 103//103
f 76//76 101//101 77//77
f 82//82 104//104 83//83
f 87//87 112//112 85//85
f 119//119 94//94 96//96
f 131//250 135//251 130//249
f 159//262 165//266 160//271
f 137//254 163//263 138//253
f 173//269 148//272 147//257
f 187//153 184//150 183//149
f 194//158 190//156 189//155
f 180//146 202//164 181//147
f 205//273 199//274 200//275
f 240//276 212//277 213//278
f 225//181 237//191 226//182
f 212//277 218//279 213//278
f 217//280 232//281 218//279
f 181//147 209//169 179//145
f 223//179 185//151 187//153
f 196//160 226//182 197//161
f 201//163 234//188 202//164
f 251//153 248//150 247//149
f 259//158 254//156 253//155
f 244//146 266//164 245//147
f 269//273 263//274 264//275
f 304//276 276//277 277//278
f 290//181 301//191 291//182
f 276//277 282//279 277//278
f 281//280 296//281 282//279
f 245//147 273//169 243//145
f 287//179 249//193 251//153
f 293//185 257//159 259//158
f 265//194 298//188 266//164
f 318//210 311//203 313//205
f 327//219 305//197 307//199
f 332//224 351//243 333//225
f 337//229 344//236 335//227
f 318//210 342//234 319//211
f 349//241 325//217 324//216
f 359//282 357//283 358//284
f 365//285 361//286 362//287
f 356//288 371//289 355//290
f 374//291 369//292 370//293
f 400//294 379//295 380//296
f 390//297 397//298 389//299
f 379//295 384//300 380//296
f 383//301 394//302 384//300
f 355//290 378//303 356//288
f 387//304 360//305 359//282
f 391//306 366//307 365//285
f 372//308 396//309 371//289
f 407//282 405//283 406//284
f 413//285 409//310 410//287
f 404//288 419//289 403//290
f 422//291 417//292 418//293
f 448//294 427//295 428//296
f 438//297 445//298 437//299
f 427//295 432//311 428//296
f 431//301 442//302 432//311
f 403//290 426//303 404//288
f 435//304 408//305 407//282
f 439//306 414//307 413//285
f 420//308 444//309 419//289
f 45//45 26//26 25//25
f 67//67 44//44 43//43
f 29//29 31//31 30//30
f 32//32 58//58 33//33
f 50//50 27//27 26//26
f 35//35 38//38 36//36
f 61//61 41//41 40//40
f 72//72 63//63 62//62
f 73//73 92//92 74//74
f 115//115 92//92 91//91
f 80//80 78//78 77//77
f 80//80 106//106 81//81
f 98//98 75//75 74//74
f 87//87 84//84 83//83
f 109//109 89//89 88//88
f 110//110 119//119 111//111
f 140//128 144//130 141//129
f 121//121 134//126 122//122
f 142//255 125//312 124//246
f 128//247 161//313 129//248
f 155//314 127//245 126//315
f 171//268 150//258 149//259
f 157//137 152//134 151//133
f 176//144 169//141 168//140
f 204//316 177//317 178//318
f 177//317 191//319 178//318
f 192//320 199//274 191//319
f 214//172 183//149 182//148
f 224//180 216//174 215//173
f 210//170 233//187 211//171
f 219//175 189//155 188//154
f 230//186 221//177 220//176
f 229//185 195//159 194//158
f 197//161 206//166 198//162
f 207//167 236//190 208//168
f 239//321 232//281 231//322
f 268//316 241//317 242//318
f 241//317 255//319 242//318
f 256//320 263//274 255//319
f 278//172 247//149 246//148
f 288//180 280//174 279//173
f 274//170 297//187 275//171
f 283//175 253//155 252//154
f 294//186 285//177 284//176
f 261//161 270//166 262//162
f 260//160 291//182 261//161
f 271//167 300//190 272//195
f 303//321 296//281 295//322
f 321//213 327//219 322//214
f 306//198 315//207 307//199
f 320//212 315//207 314//206
f 308//200 325//217 309//201
f 330//222 310//202 309//201
f 330//222 347//239 331//223
f 312//204 339//231 313//205
f 341//233 339//231 338//230
f 337//229 334//226 333//225
f 351//243 346//238 345//237
f 373//323 353//324 354//325
f 353//324 363//326 354//325
f 364//327 369//292 363//326
f 382//328 358//284 357//283
f 388//329 381//330 382//328
f 377//331 395//332 378//303
f 386//333 362//287 361//286
f 392//334 385//335 386//333
f 367//336 376//337 368//338
f 368//338 389//299 367//336
f 375//339 398//340 376//337
f 399//341 394//302 393//342
f 421//323 401//324 402//325
f 401//324 411//326 402//325
f 412//343 417//292 411//326
f 430//328 406//284 405//283
f 436//329 429//330 430//328
f 425//331 443//332 426//303
f 434//333 410//287 409//310
f 440//344 433//335 434//333
f 415//336 424//337 416//338
f 416//338 437//299 415//336
f 423//339 446//340 424//337
f 447//341 442//302 441//342
f 4//3 25//25 1//1
f 1//1 25//25 30//30
f 4//3 45//45 25//25
f 27//27 54//54 28//28
f 26//26 69//69 50//50
f 26//26 44//44 69//69
f 27//27 49//49 54//54
f 30//30 2//4 1//1
f 29//29 53//53 59//59
f 30//30 31//31 2//4
f 29//29 59//59 32//32
f 31//31 36//36 2//4
f 33//33 57//57 34//34
f 33//33 58//58 57//57
f 36//36 3//2 2//4
f 35//35 56//56 65//65
f 35//35 65//65 39//39
f 36//36 38//38 3//2
f 38//38 42//42 3//2
f 64//64 40//40 37//37
f 47//47 3//2 42//42
f 64//64 61//61 40//40
f 48//48 41//41 63//63
f 70//70 43//43 46//46
f 45//45 4//3 47//47
f 70//70 67//67 43//43
f 48//48 63//63 71//71
f 47//47 4//3 3//2
f 51//51 5//5 52//52
f 68//68 5//5 51//51
f 5//5 60//60 52//52
f 6//7 66//66 55//55
f 6//7 55//55 60//60
f 5//5 6//7 60//60
f 8//8 62//62 7//6
f 62//62 66//66 7//6
f 8//8 72//72 62//62
f 6//7 7//6 66//66
f 68//68 8//8 5//5
f 68//68 72//72 8//8
f 12//11 73//73 9//9
f 9//9 73//73 78//78
f 12//11 93//93 73//73
f 75//75 102//102 76//76
f 74//74 117//117 98//98
f 74//74 92//92 117//117
f 75//75 97//97 102//102
f 78//78 10//12 9//9
f 77//77 101//101 107//107
f 78//78 79//79 10//12
f 77//77 107//107 80//80
f 79//79 84//84 10//12
f 81//81 105//105 82//82
f 81//81 106//106 105//105
f 84//84 11//10 10//12
f 83//83 104//104 113//113
f 83//83 113//113 87//87
f 84//84 86//86 11//10
f 86//86 90//90 11//10
f 112//112 88//88 85//85
f 95//95 11//10 90//90
f 112//112 109//109 88//88
f 96//96 89//89 111//111
f 118//118 91//91 94//94
f 93//93 12//11 95//95
f 118//118 115//115 91//91
f 96//96 111//111 119//119
f 95//95 12//11 11//10
f 99//99 13//13 100//100
f 116//116 13//13 99//99
f 13//13 108//108 100//100
f 14//15 114//114 103//103
f 14//15 103//103 108//108
f 13//13 14//15 108//108
f 16//16 110//110 15//14
f 110//110 114//114 15//14
f 16//16 120//120 110//110
f 14//15 15//14 114//114
f 116//116 16//16 13//13
f 116//116 120//120 16//16
f 128//247 121//121 127//245
f 123//123 125//312 126//315
f 128//247 132//124 121//121
f 144//130 124//246 122//122
f 122//122 141//129 144//130
f 122//122 134//126 141//129
f 144//130 142//255 124//246
f 149//259 126//315 125//312
f 125//312 171//268 149//259
f 125//312 143//256 171//268
f 149//259 155//314 126//315
f 127//245 162//261 128//247
f 127//245 154//260 162//261
f 129//248 131//250 133//125
f 129//248 160//271 131//250
f 129//248 161//313 160//271
f 135//251 134//126 130//249
f 131//250 160//271 165//266
f 131//250 165//266 136//252
f 135//251 141//129 134//126
f 136//252 137//254 139//127
f 136//252 164//264 137//254
f 136//252 165//266 164//264
f 147//257 140//128 138//253
f 147//257 138//253 163//263
f 147//257 145//131 140//128
f 172//270 143//256 148//272
f 143//256 146//132 148//272
f 172//270 171//268 143//256
f 147//257 163//263 173//269
f 149//259 153//135 155//314
f 150//258 176//144 151//133
f 150//258 170//267 176//144
f 151//133 176//144 168//140
f 152//134 162//261 154//260
f 152//134 156//136 162//261
f 151//133 168//140 157//137
f 158//138 160//271 161//313
f 157//137 166//265 159//262
f 157//137 168//140 166//265
f 169//141 173//269 163//263
f 164//264 165//266 167//139
f 169//141 175//143 173//269
f 171//268 172//270 174//142
f 186//152 177//317 184//150
f 177//317 180//146 184//150
f 186//152 192//320 177//317
f 177//317 203//165 180//146
f 177//317 205//273 203//165
f 178//318 199//274 204//316
f 178//318 191//319 199//274
f 181//147 202//164 234//188
f 209//169 182//148 179//145
f 181//147 234//188 210//170
f 209//169 214//172 182//148
f 183//149 223//179 187//153
f 183//149 216//174 223//179
f 186//152 190//156 192//320
f 222//178 188//154 185//151
f 193//157 192//320 190//156
f 222//178 219//175 188//154
f 189//155 229//185 194//158
f 189//155 221//177 229//185
f 193//157 200//275 192//320
f 193//157 198//162 200//275
f 195//159 227//183 196//160
f 195//159 228//184 227//183
f 198//162 205//273 200//275
f 207//167 197//161 226//182
f 198//162 206//166 205//273
f 208//168 235//189 201//163
f 203//165 205//273 206//166
f 207//167 226//182 237//191
f 208//168 236//190 235//189
f 211//171 213//278 215//173
f 211//171 240//276 213//278
f 211//171 233//187 240//276
f 212//277 239//321 231//322
f 218//279 215//173 213//278
f 212//277 231//322 217//280
f 218//279 224//180 215//173
f 218//279 220//176 224//180
f 232//281 220//176 218//279
f 232//281 230//186 220//176
f 232//281 238//192 225//181
f 225//181 230//186 232//281
f 232//281 240//276 238//192
f 233//187 238//192 240//276
f 250//152 241//317 248//150
f 241//317 244//146 248//150
f 250//152 256//320 241//317
f 241//317 267//165 244//146
f 241//317 269//273 267//165
f 242//318 263//274 268//316
f 242//318 255//319 263//274
f 245//147 266//164 298//188
f 273//169 246//148 243//145
f 245//147 298//188 274//170
f 273//169 278//172 246//148
f 247//149 287//179 251//153
f 247//149 280//174 287//179
f 250//152 254//156 256//320
f 286//178 252//154 249//193
f 258//157 256//320 254//156
f 286//178 283//175 252//154
f 253//155 293//185 259//158
f 253//155 285//177 293//185
f 258//157 264//275 256//320
f 258//157 262//162 264//275
f 292//184 260//160 257//159
f 262//162 269//273 264//275
f 292//184 289//183 260//160
f 262//162 270//166 269//273
f 271//167 261//161 291//182
f 272//195 299//189 265//194
f 267//165 269//273 270//166
f 271//167 291//182 301//191
f 272//195 300//190 299//189
f 275//171 277//278 279//173
f 275//171 304//276 277//278
f 275//171 297//187 304//276
f 276//277 303//321 295//322
f 282//279 279//173 277//278
f 276//277 295//322 281//280
f 282//279 288//180 279//173
f 282//279 284//176 288//180
f 296//281 284//176 282//279
f 296//281 294//186 284//176
f 296//281 302//196 290//181
f 290//181 294//186 296//281
f 296//281 304//276 302//196
f 297//187 302//196 304//276
f 18//19 306//198 17//17
f 306//198 310//202 17//17
f 18//19 316//208 306//198
f 326//218 308//200 305//197
f 307//199 322//214 327//219
f 307//199 315//207 322//214
f 326//218 323//215 308//200
f 310//202 21//20 17//17
f 309//201 348//240 330//222
f 309//201 325//217 348//240
f 310//202 329//221 21//20
f 22//18 312//204 18//19
f 18//19 312//204 316//208
f 317//209 314//206 311//203
f 22//18 340//232 312//204
f 313//205 343//235 318//210
f 313//205 339//231 343//235
f 317//209 320//212 314//206
f 319//211 19//22 321//213
f 342//234 19//22 319//211
f 20//21 321//213 19//22
f 20//21 328//220 321//213
f 20//21 349//241 324//216
f 324//216 328//220 20//21
f 329//221 334//226 21//20
f 331//223 352//244 332//224
f 331//223 347//239 352//244
f 333//225 351//243 345//237
f 334//226 22//18 21//20
f 334//226 336//228 22//18
f 333//225 345//237 337//229
f 336//228 340//232 22//18
f 344//236 338//230 335//227
f 344//236 341//233 338//230
f 342//234 23//23 19//22
f 23//23 342//234 346//238
f 346//238 24//24 23//23
f 346//238 350//242 24//24
f 349//241 24//24 350//242
f 20//21 24//24 349//241
f 360//305 353//324 357//283
f 353//324 356//288 357//283
f 360//305 364//327 353//324
f 353//324 372//308 356//288
f 353//324 374//291 372//308
f 354//325 369//292 373//323
f 354//325 363//326 369//292
f 355//290 371//289 396//309
f 378//303 357//283 356//288
f 355//290 396//309 377//331
f 378//303 382//328 357//283
f 358//284 387//304 359//282
f 358//284 381//330 387//304
f 360//305 361//286 364//327
f 388//329 361//286 360//305
f 366//307 364//327 361//286
f 388//329 386//333 361//286
f 362//287 391//306 365//285
f 362//287 385//335 391//306
f 366//307 370//293 364//327
f 366//307 368//338 370//293
f 392//334 368//338 366//307
f 368//338 374//291 370//293
f 392//334 390//297 368//338
f 368//338 376//337 374//291
f 375//339 367//336 389//299
f 376//337 395//332 372//308
f 372//308 374//291 376//337
f 375//339 389//299 397//298
f 376//337 398//340 395//332
f 378//303 380//296 382//328
f 378//303 400//294 380//296
f 378//303 395//332 400//294
f 379//295 399//341 393//342
f 384//300 382//328 380//296
f 379//295 393//342 383//301
f 384//300 388//329 382//328
f 384//300 386//333 388//329
f 394//302 386//333 384//300
f 394//302 392//334 386//333
f 394//302 398//340 390//297
f 390//297 392//334 394//302
f 394//302 400//294 398//340
f 395//332 398//340 400//294
f 408//305 401//324 405//283
f 401//324 404//288 405//283
f 408//305 412//343 401//324
f 401//324 420//308 404//288
f 401//324 422//291 420//308
f 402//325 417//292 421//323
f 402//325 411//326 417//292
f 403//290 419//289 444//309
f 426//303 405//283 404//288
f 403//290 444//309 425//331
f 426//303 430//328 405//283
f 406//284 435//304 407//282
f 406//284 429//330 435//304
f 408//305 409//310 412//343
f 436//329 409//310 408//305
f 414//307 412//343 409//310
f 436//329 434//333 409//310
f 410//287 439//306 413//285
f 410//287 433//335 439//306
f 414//307 418//293 412//343
f 414//307 416//338 418//293
f 440//344 416//338 414//307
f 416//338 422//291 418//293
f 440//344 438//297 416//338
f 416//338 424//337 422//291
f 423//339 415//336 437//299
f 424//337 443//332 420//308
f 420//308 422//291 424//337
f 423//339 437//299 445//298
f 424//337 446//340 443//332
f 426//303 428//296 430//328
f 426//303 448//294 428//296
f 426//303 443//332 448//294
f 427//295 447//341 441//342
f 432//311 430//328 428//296
f 427//295 441//342 431//301
f 432//311 436//329 430//328
f 432//311 434//333 436//329
f 442//302 434//333 432//311
f 442//302 440//344 434//333
f 442//302 446//340 438//297
f 438//297 440//344 442//302
f 442//302 448//294 446//340
f 443//332 446//340 448//294
f 28//28 30//30 25//25
f 33//33 34//34 36//36
f 40//40 42//42 38//38
f 45//45 47//47 46//46
f 51//51 52//52 54//54
f 58//58 60//60 55//55
f 61//61 64//64 66//66
f 70//70 72//72 68//68
f 76//76 78//78 73//73
f 81//81 82//82 84//84
f 88//88 90//90 86//86
f 93//93 95//95 94//94
f 99//99 100//100 102//102
f 106//106 108//108 103//103
f 109//109 112//112 114//114
f 118//118 120//120 116//116
f 123//123 126//315 127//245
f 124//246 125//312 123//123
f 133//125 132//124 128//247
f 130//249 134//126 133//125
f 139//127 141//129 135//251
f 138//253 140//128 139//127
f 142//255 144//130 146//132
f 147//257 148//272 146//132
f 150//258 151//133 153//135
f 154//260 155//314 153//135
f 158//138 161//313 162//261
f 159//262 160//271 158//138
f 167//139 169//141 163//263
f 166//265 168//140 167//139
f 174//142 176//144 170//267
f 173//269 175//143 174//142
f 179//145 182//148 184//150
f 185//151 188//154 190//156
f 195//159 196//160 198//162
f 203//165 206//166 208//168
f 211//171 215//173 214//172
f 219//175 222//178 224//180
f 227//183 228//184 230//186
f 235//189 236//190 238//192
f 243//145 246//148 248//150
f 249//193 252//154 254//156
f 257//159 260//160 262//162
f 267//165 270//166 272//195
f 275//171 279//173 278//172
f 283//175 286//178 288//180
f 289//183 292//184 294//186
f 299//189 300//190 302//196
f 305//197 308//200 310//202
f 311//203 314//206 316//208
f 319//211 321//213 320//212
f 323//215 326//218 328//220
f 332//224 334//226 329//221
f 335//227 338//230 340//232
f 341//233 344//236 346//238
f 350//242 352//244 347//239
f 48//48 47//47 42//42
f 69//69 68//68 51//51
f 60//60 59//59 53//53
f 55//55 66//66 65//65
f 28//28 54//54 53//53
f 34//34 57//57 56//56
f 39//39 65//65 64//64
f 71//71 70//70 46//46
f 96//96 95//95 90//90
f 98//98 117//117 116//116
f 100//100 108//108 107//107
f 114//114 113//113 104//104
f 76//76 102//102 101//101
f 82//82 105//105 104//104
f 87//87 113//113 112//112
f 119//119 118//118 94//94
f 131//250 136//252 135//251
f 159//262 166//265 165//266
f 137//254 164//264 163//263
f 173//269 172//270 148//272
f 187//153 186//152 184//150
f 194//158 193//157 190//156
f 180//146 203//165 202//164
f 205//273 204//316 199//274
f 240//276 239//321 212//277
f 225//181 238//192 237//191
f 212//277 217//280 218//279
f 217//280 231//322 232//281
f 181//147 210//170 209//169
f 223//179 222//178 185//151
f 196//160 227//183 226//182
f 201//163 235//189 234//188
f 251//153 250//152 248//150
f 259//158 258//157 254//156
f 244//146 267//165 266//164
f 269//273 268//316 263//274
f 304//276 303//321 276//277
f 290//181 302//196 301//191
f 276//277 281//280 282//279
f 281//280 295//322 296//281
f 245//147 274//170 273//169
f 287//179 286//178 249//193
f 293//185 292//184 257//159
f 265//194 299//189 298//188
f 318//210 317//209 311//203
f 327//219 326//218 305//197
f 332//224 352//244 351//243
f 337//229 345//237 344//236
f 318//210 343//235 342//234
f 349//241 348//240 325//217
f 359//282 360//305 357//283
f 365//285 366//307 361//286
f 356//288 372//308 371//289
f 374//291 373//323 369//292
f 400//294 399//341 379//295
f 390//297 398//340 397//298
f 379//295 383//301 384//300
f 383//301 393//342 394//302
f 355//290 377//331 378//303
f 387//304 388//329 360//305
f 391//306 392//334 366//307
f 372//308 395//332 396//309
f 407//282 408//305 405//283
f 413//285 414//307 409//310
f 404//288 420//308 419//289
f 422//291 421//323 417//292
f 448//294 447//341 427//295
f 438//297 446//340 445//298
f 427//295 431//301 432//311
f 431//301 441//342 442//302
f 403//290 425//331 426//303
f 435//304 436//329 408//305
f 439//306 440//344 414//307
f 420//308 443//332 444//309
f 45//45 44//44 26//26
f 67//67 69//69 44//44
f 29//29 32//32 31//31
f 32//32 59//59 58//58
f 50//50 49//49 27//27
f 35//35 39//39 38//38
f 61//61 63//63 41//41
f 72//72 71//71 63//63
f 73//73 93//93 92//92
f 115//115 117//117 92//92
f 80//80 79//79 78//78
f 80//80 107//107 106//106
f 98//98 97//97 75//75
f 87//87 86//86 84//84
f 109//109 111//111 89//89
f 110//110 120//120 119//119
f 140//128 145//131 144//130
f 121//121 132//124 134//126
f 142//255 143//256 125//312
f 128//247 162//261 161//313
f 155//314 154//260 127//245
f 171//268 170//267 150//258
f 157//137 156//136 152//134
f 176//144 175//143 169//141
f 204//316 205//273 177//317
f 177//317 192//320 191//319
f 192//320 200//275 199//274
f 214//172 216//174 183//149
f 224//180 223//179 216//174
f 210//170 234//188 233//187
f 219//175 221//177 189//155
f 230//186 229//185 221//177
f 229//185 228//184 195//159
f 197//161 207//167 206//166
f 207//167 237//191 236//190
f 239//321 240//276 232//281
f 268//316 269//273 241//317
f 241//317 256//320 255//319
f 256//320 264//275 263//274
f 278//172 280//174 247//149
f 288//180 287//179 280//174
f 274//170 298//188 297//187
f 283//175 285//177 253//155
f 294//186 293//185 285//177
f 261//161 271//167 270//166
f 260//160 289//183 291//182
f 271//167 301//191 300//190
f 303//321 304//276 296//281
f 321//213 328//220 327//219
f 306//198 316//208 315//207
f 320//212 322//214 315//207
f 308//200 323//215 325//217
f 330//222 329//221 310//202
f 330//222 348//240 347//239
f 312//204 340//232 339//231
f 341//233 343//235 339//231
f 337//229 336//228 334//226
f 351//243 350//242 346//238
f 373//323 374//291 353//324
f 353//324 364//327 363//326
f 364//327 370//293 369//292
f 382//328 381//330 358//284
f 388//329 387//304 381//330
f 377//331 396//309 395//332
f 386//333 385//335 362//287
f 392//334 391//306 385//335
f 367//336 375//339 376//337
f 368//338 390//297 389//299
f 375//339 397//298 398//340
f 399//341 400//294 394//302
f 421//323 422//291 401//324
f 401//324 412//343 411//326
f 412//343 418//293 417//292
f 430//328 429//330 406//284
f 436//329 435//304 429//330
f 425//331 444//309 443//332
f 434//333 433//335 410//287
f 440//344 439//306 433//335
f 415//336 423//339 424//337
f 416//338 438//297 437//299
f 423//339 445//298 446//340
f 447//341 448//294 442//302
