# Blender 5.2.0 LTS
# www.blender.org
o crest_mundor_crown
v 0.000000 0.550000 -0.060000
v 0.000000 0.550000 0.060000
v 0.210476 0.508134 -0.060000
v 0.210476 0.508134 0.060000
v 0.388909 0.388909 -0.060000
v 0.388909 0.388909 0.060000
v 0.508134 0.210476 -0.060000
v 0.508134 0.210476 0.060000
v 0.550000 0.000000 -0.060000
v 0.550000 -0.000000 0.060000
v 0.508134 -0.210476 -0.060000
v 0.508134 -0.210476 0.060000
v 0.388909 -0.388909 -0.060000
v 0.388909 -0.388909 0.060000
v 0.210476 -0.508134 -0.060000
v 0.210476 -0.508134 0.060000
v 0.000000 -0.550000 -0.060000
v 0.000000 -0.550000 0.060000
v -0.210476 -0.508134 -0.060000
v -0.210476 -0.508134 0.060000
v -0.388909 -0.388909 -0.060000
v -0.388909 -0.388909 0.060000
v -0.508134 -0.210476 -0.060000
v -0.508134 -0.210476 0.060000
v -0.550000 0.000000 -0.060000
v -0.550000 -0.000000 0.060000
v -0.508134 0.210476 -0.060000
v -0.508134 0.210476 0.060000
v -0.388909 0.388909 -0.060000
v -0.388909 0.388909 0.060000
v -0.210476 0.508134 -0.060000
v -0.210476 0.508134 0.060000
v 0.000000 0.580000 -0.030000
v 0.000000 0.580000 0.030000
v 0.221956 0.535850 -0.030000
v 0.221956 0.535850 0.030000
v 0.410122 0.410122 -0.030000
v 0.410122 0.410122 0.030000
v 0.535850 0.221956 -0.030000
v 0.535850 0.221956 0.030000
v 0.580000 0.000000 -0.030000
v 0.580000 -0.000000 0.030000
v 0.535850 -0.221956 -0.030000
v 0.535850 -0.221956 0.030000
v 0.410122 -0.410122 -0.030000
v 0.410122 -0.410122 0.030000
v 0.221956 -0.535850 -0.030000
v 0.221956 -0.535850 0.030000
v 0.000000 -0.580000 -0.030000
v 0.000000 -0.580000 0.030000
v -0.221956 -0.535850 -0.030000
v -0.221956 -0.535850 0.030000
v -0.410122 -0.410122 -0.030000
v -0.410122 -0.410122 0.030000
v -0.535850 -0.221956 -0.030000
v -0.535850 -0.221956 0.030000
v -0.580000 0.000000 -0.030000
v -0.580000 -0.000000 0.030000
v -0.535850 0.221956 -0.030000
v -0.535850 0.221956 0.030000
v -0.410122 0.410122 -0.030000
v -0.410122 0.410122 0.030000
v -0.221956 0.535850 -0.030000
v -0.221956 0.535850 0.030000
v 0.000000 0.210000 -0.260000
v 0.000000 0.290000 -0.260000
v 0.140000 0.210000 -0.222487
v 0.140000 0.290000 -0.222487
v 0.242487 0.210000 -0.120000
v 0.242487 0.290000 -0.120000
v 0.280000 0.210000 0.020000
v 0.280000 0.290000 0.020000
v 0.242487 0.210000 0.160000
v 0.242487 0.290000 0.160000
v 0.140000 0.210000 0.262487
v 0.140000 0.290000 0.262487
v 0.000000 0.210000 0.300000
v 0.000000 0.290000 0.300000
v -0.140000 0.210000 0.262487
v -0.140000 0.290000 0.262487
v -0.242487 0.210000 0.160000
v -0.242487 0.290000 0.160000
v -0.280000 0.210000 0.020000
v -0.280000 0.290000 0.020000
v -0.242487 0.210000 -0.120000
v -0.242487 0.290000 -0.120000
v -0.140000 0.210000 -0.222487
v -0.140000 0.290000 -0.222487
v -0.154221 0.330000 0.050000
v -0.154221 0.510000 0.050000
v -0.154221 0.330000 -0.010000
v -0.154221 0.510000 -0.010000
v -0.094221 0.330000 0.050000
v -0.094221 0.510000 0.050000
v -0.094221 0.330000 -0.010000
v -0.094221 0.510000 -0.010000
v -0.095014 0.330000 0.050000
v -0.095014 0.510000 0.050000
v -0.095014 0.330000 -0.010000
v -0.095014 0.510000 -0.010000
v -0.035014 0.330000 0.050000
v -0.035014 0.510000 0.050000
v -0.035014 0.330000 -0.010000
v -0.035014 0.510000 -0.010000
v -0.030000 0.330000 0.050000
v -0.030000 0.510000 0.050000
v -0.030000 0.330000 -0.010000
v -0.030000 0.510000 -0.010000
v 0.030000 0.330000 0.050000
v 0.030000 0.510000 0.050000
v 0.030000 0.330000 -0.010000
v 0.030000 0.510000 -0.010000
v 0.035014 0.330000 0.050000
v 0.035014 0.510000 0.050000
v 0.035014 0.330000 -0.010000
v 0.035014 0.510000 -0.010000
v 0.095014 0.330000 0.050000
v 0.095014 0.510000 0.050000
v 0.095014 0.330000 -0.010000
v 0.095014 0.510000 -0.010000
v 0.094221 0.330000 0.050000
v 0.094221 0.510000 0.050000
v 0.094221 0.330000 -0.010000
v 0.094221 0.510000 -0.010000
v 0.154221 0.330000 0.050000
v 0.154221 0.510000 0.050000
v 0.154221 0.330000 -0.010000
v 0.154221 0.510000 -0.010000
vn 0.1951 0.9808 -0.0000
vn 0.5556 0.8315 -0.0000
vn 0.8315 0.5556 -0.0000
vn 0.9808 0.1951 -0.0000
vn 0.9808 -0.1951 -0.0000
vn 0.8315 -0.5556 -0.0000
vn 0.5556 -0.8315 -0.0000
vn 0.1951 -0.9808 -0.0000
vn -0.1951 -0.9808 -0.0000
vn -0.5556 -0.8315 -0.0000
vn -0.8315 -0.5556 -0.0000
vn -0.9808 -0.1951 -0.0000
vn -0.9808 0.1951 -0.0000
vn -0.8315 0.5556 -0.0000
vn -0.0000 -0.0000 1.0000
vn -0.5556 0.8315 -0.0000
vn -0.1951 0.9808 -0.0000
vn -0.0000 -0.0000 -1.0000
vn 0.2588 -0.0000 -0.9659
vn 0.7071 -0.0000 -0.7071
vn 0.9659 -0.0000 -0.2588
vn 0.9659 -0.0000 0.2588
vn 0.7071 -0.0000 0.7071
vn 0.2588 -0.0000 0.9659
vn -0.2588 -0.0000 0.9659
vn -0.7071 -0.0000 0.7071
vn -0.9659 -0.0000 0.2588
vn -0.9659 -0.0000 -0.2588
vn -0.0000 1.0000 -0.0000
vn -0.7071 -0.0000 -0.7071
vn -0.2588 -0.0000 -0.9659
vn -0.0000 -1.0000 -0.0000
vn -1.0000 -0.0000 -0.0000
vn 1.0000 -0.0000 -0.0000
vt 0.500000 0.470000
vt 0.605238 0.530000
vt 0.500000 0.530000
vt 0.605238 0.470000
vt 0.694454 0.530000
vt 0.470000 0.694454
vt 0.530000 0.605238
vt 0.530000 0.694454
vt 0.470000 0.605238
vt 0.530000 0.500000
vt 0.470000 0.500000
vt 0.530000 0.394762
vt 0.470000 0.394762
vt 0.530000 0.305546
vt 0.694454 0.470000
vt 0.605238 0.530000
vt 0.694454 0.530000
vt 0.500000 0.530000
vt 0.394762 0.530000
vt 0.394762 0.470000
vt 0.305546 0.530000
vt 0.470000 0.305546
vt 0.305546 0.305546
vt 0.694454 0.305546
vt 0.694454 0.694454
vt 0.305546 0.470000
vt 0.394762 0.530000
vt 0.305546 0.530000
vt 0.605238 0.245933
vt 0.245933 0.394762
vt 0.394762 0.754067
vt 0.500000 0.485000
vt 0.610978 0.515000
vt 0.500000 0.515000
vt 0.705061 0.485000
vt 0.705061 0.515000
vt 0.485000 0.705061
vt 0.515000 0.610978
vt 0.515000 0.705061
vt 0.485000 0.610978
vt 0.515000 0.500000
vt 0.485000 0.500000
vt 0.515000 0.389022
vt 0.485000 0.389022
vt 0.515000 0.294939
vt 0.610978 0.485000
vt 0.500000 0.485000
vt 0.389022 0.515000
vt 0.389022 0.485000
vt 0.294939 0.515000
vt 0.294939 0.294939
vt 0.705061 0.294939
vt 0.705061 0.705061
vt 0.294939 0.485000
vt 0.389022 0.485000
vt 0.610978 0.232075
vt 0.232075 0.389022
vt 0.389022 0.767925
vt 0.500000 0.520000
vt 0.570000 0.480000
vt 0.500000 0.480000
vt 0.570000 0.520000
vt 0.621244 0.480000
vt 0.430000 0.480000
vt 0.621244 0.520000
vt 0.430000 0.520000
vt 0.378756 0.480000
vt 0.378756 0.570000
vt 0.500000 0.360000
vt 0.621244 0.570000
vt 0.378756 0.520000
vt 0.640000 0.500000
vt 0.430000 0.378756
vt 0.430000 0.621244
vt 0.485000 0.545000
vt 0.515000 0.455000
vt 0.485000 0.455000
vt 0.515000 0.545000
vt 0.515000 0.515000
vt 0.485000 0.485000
vt 0.485000 0.515000
vt 0.515000 0.485000
vt 0.605238 0.754067
vt 0.500000 0.775000
vt 0.305546 0.694454
vt 0.245933 0.605238
vt 0.225000 0.500000
vt 0.394762 0.245933
vt 0.500000 0.225000
vt 0.754067 0.394762
vt 0.775000 0.500000
vt 0.754067 0.605238
vt 0.610978 0.485000
vt 0.485000 0.294939
vt 0.705061 0.485000
vt 0.294939 0.485000
vt 0.610978 0.767925
vt 0.500000 0.790000
vt 0.294939 0.705061
vt 0.232075 0.610978
vt 0.210000 0.500000
vt 0.389022 0.232075
vt 0.500000 0.210000
vt 0.767925 0.389022
vt 0.790000 0.500000
vt 0.767925 0.610978
vt 0.570000 0.621244
vt 0.500000 0.640000
vt 0.360000 0.500000
vt 0.378756 0.430000
vt 0.570000 0.378756
vt 0.621244 0.430000
s 0
f 2/1/1 3/2/1 1/3/1
f 4/4/2 5/5/2 3/2/2
f 6/6/3 7/7/3 5/8/3
f 8/9/4 9/10/4 7/7/4
f 10/11/5 11/12/5 9/10/5
f 12/13/6 13/14/6 11/12/6
f 14/15/7 15/16/7 13/17/7
f 16/4/8 17/18/8 15/16/8
f 18/1/9 19/19/9 17/18/9
f 20/20/10 21/21/10 19/19/10
f 22/22/11 23/12/11 21/14/11
f 24/13/12 25/10/12 23/12/12
f 26/11/13 27/7/13 25/10/13
f 28/9/14 29/8/14 27/7/14
f 22/23/15 14/24/15 6/25/15
f 30/26/16 31/27/16 29/28/16
f 32/20/17 1/3/17 31/27/17
f 15/29/18 23/30/18 31/31/18
f 34/32/1 35/33/1 33/34/1
f 35/33/2 38/35/2 37/36/2
f 38/37/3 39/38/3 37/39/3
f 40/40/4 41/41/4 39/38/4
f 42/42/5 43/43/5 41/41/5
f 44/44/6 45/45/6 43/43/6
f 45/36/7 48/46/7 47/33/7
f 48/46/8 49/34/8 47/33/8
f 50/47/9 51/48/9 49/34/9
f 52/49/10 53/50/10 51/48/10
f 53/45/11 56/44/11 55/43/11
f 56/44/12 57/41/12 55/43/12
f 58/42/13 59/38/13 57/41/13
f 59/38/14 62/37/14 61/39/14
f 54/51/15 46/52/15 38/53/15
f 62/54/16 63/48/16 61/50/16
f 64/55/17 33/34/17 63/48/17
f 47/56/18 55/57/18 63/58/18
f 66/59/19 67/60/19 65/61/19
f 68/62/20 69/63/20 67/60/20
f 70/62/21 71/61/21 69/60/21
f 72/59/22 73/64/22 71/61/22
f 74/65/23 75/60/23 73/63/23
f 76/62/24 77/61/24 75/60/24
f 78/59/25 79/64/25 77/61/25
f 80/66/26 81/67/26 79/64/26
f 82/66/27 83/61/27 81/64/27
f 84/59/28 85/60/28 83/61/28
f 86/68/29 78/69/29 70/70/29
f 86/71/30 87/64/30 85/67/30
f 88/66/31 65/61/31 87/64/31
f 71/72/32 79/73/32 87/74/32
f 90/75/33 91/76/33 89/77/33
f 92/75/18 95/76/18 91/77/18
f 96/78/34 93/77/34 95/76/34
f 94/78/15 89/77/15 93/76/15
f 95/79/32 89/80/32 91/81/32
f 92/81/29 94/82/29 96/79/29
f 98/75/33 99/76/33 97/77/33
f 100/75/18 103/76/18 99/77/18
f 104/78/34 101/77/34 103/76/34
f 102/78/15 97/77/15 101/76/15
f 103/79/32 97/80/32 99/81/32
f 100/81/29 102/82/29 104/79/29
f 106/75/33 107/76/33 105/77/33
f 108/75/18 111/76/18 107/77/18
f 112/78/34 109/77/34 111/76/34
f 110/78/15 105/77/15 109/76/15
f 111/79/32 105/80/32 107/81/32
f 108/81/29 110/82/29 112/79/29
f 114/75/33 115/76/33 113/77/33
f 116/75/18 119/76/18 115/77/18
f 120/78/34 117/77/34 119/76/34
f 118/78/15 113/77/15 117/76/15
f 119/79/32 113/80/32 115/81/32
f 116/81/29 118/82/29 120/79/29
f 122/75/33 123/76/33 121/77/33
f 124/75/18 127/76/18 123/77/18
f 128/78/34 125/77/34 127/76/34
f 126/78/15 121/77/15 125/76/15
f 127/79/32 121/80/32 123/81/32
f 124/81/29 126/82/29 128/79/29
f 2/1/1 4/4/1 3/2/1
f 4/4/2 6/15/2 5/5/2
f 6/6/3 8/9/3 7/7/3
f 8/9/4 10/11/4 9/10/4
f 10/11/5 12/13/5 11/12/5
f 12/13/6 14/22/6 13/14/6
f 14/15/7 16/4/7 15/16/7
f 16/4/8 18/1/8 17/18/8
f 18/1/9 20/20/9 19/19/9
f 20/20/10 22/26/10 21/21/10
f 22/22/11 24/13/11 23/12/11
f 24/13/12 26/11/12 25/10/12
f 26/11/13 28/9/13 27/7/13
f 28/9/14 30/6/14 29/8/14
f 6/25/15 4/83/15 2/84/15
f 2/84/15 32/31/15 30/85/15
f 30/85/15 28/86/15 26/87/15
f 26/87/15 24/30/15 22/23/15
f 22/23/15 20/88/15 18/89/15
f 18/89/15 16/29/15 14/24/15
f 14/24/15 12/90/15 10/91/15
f 10/91/15 8/92/15 6/25/15
f 6/25/15 2/84/15 30/85/15
f 30/85/15 26/87/15 22/23/15
f 22/23/15 18/89/15 14/24/15
f 14/24/15 10/91/15 6/25/15
f 6/25/15 30/85/15 22/23/15
f 30/26/16 32/20/16 31/27/16
f 32/20/17 2/1/17 1/3/17
f 31/31/18 1/84/18 3/83/18
f 3/83/18 5/25/18 7/92/18
f 7/92/18 9/91/18 11/90/18
f 11/90/18 13/24/18 15/29/18
f 15/29/18 17/89/18 19/88/18
f 19/88/18 21/23/18 23/30/18
f 23/30/18 25/87/18 27/86/18
f 27/86/18 29/85/18 31/31/18
f 31/31/18 3/83/18 7/92/18
f 7/92/18 11/90/18 15/29/18
f 15/29/18 19/88/18 23/30/18
f 23/30/18 27/86/18 31/31/18
f 31/31/18 7/92/18 15/29/18
f 34/32/1 36/93/1 35/33/1
f 35/33/2 36/93/2 38/35/2
f 38/37/3 40/40/3 39/38/3
f 40/40/4 42/42/4 41/41/4
f 42/42/5 44/44/5 43/43/5
f 44/44/6 46/94/6 45/45/6
f 45/36/7 46/95/7 48/46/7
f 48/46/8 50/47/8 49/34/8
f 50/47/9 52/49/9 51/48/9
f 52/49/10 54/96/10 53/50/10
f 53/45/11 54/94/11 56/44/11
f 56/44/12 58/42/12 57/41/12
f 58/42/13 60/40/13 59/38/13
f 59/38/14 60/40/14 62/37/14
f 38/53/15 36/97/15 34/98/15
f 34/98/15 64/58/15 62/99/15
f 62/99/15 60/100/15 58/101/15
f 58/101/15 56/57/15 54/51/15
f 54/51/15 52/102/15 50/103/15
f 50/103/15 48/56/15 46/52/15
f 46/52/15 44/104/15 42/105/15
f 42/105/15 40/106/15 38/53/15
f 38/53/15 34/98/15 62/99/15
f 62/99/15 58/101/15 54/51/15
f 54/51/15 50/103/15 46/52/15
f 46/52/15 42/105/15 38/53/15
f 38/53/15 62/99/15 54/51/15
f 62/54/16 64/55/16 63/48/16
f 64/55/17 34/32/17 33/34/17
f 63/58/18 33/98/18 35/97/18
f 35/97/18 37/53/18 39/106/18
f 39/106/18 41/105/18 43/104/18
f 43/104/18 45/52/18 47/56/18
f 47/56/18 49/103/18 51/102/18
f 51/102/18 53/51/18 55/57/18
f 55/57/18 57/101/18 59/100/18
f 59/100/18 61/99/18 63/58/18
f 63/58/18 35/97/18 39/106/18
f 39/106/18 43/104/18 47/56/18
f 47/56/18 51/102/18 55/57/18
f 55/57/18 59/100/18 63/58/18
f 63/58/18 39/106/18 47/56/18
f 66/59/19 68/62/19 67/60/19
f 68/62/20 70/65/20 69/63/20
f 70/62/21 72/59/21 71/61/21
f 72/59/22 74/66/22 73/64/22
f 74/65/23 76/62/23 75/60/23
f 76/62/24 78/59/24 77/61/24
f 78/59/25 80/66/25 79/64/25
f 80/66/26 82/71/26 81/67/26
f 82/66/27 84/59/27 83/61/27
f 84/59/28 86/62/28 85/60/28
f 70/70/29 68/107/29 66/108/29
f 66/108/29 88/74/29 86/68/29
f 86/68/29 84/109/29 82/110/29
f 82/110/29 80/73/29 78/69/29
f 78/69/29 76/111/29 74/112/29
f 74/112/29 72/72/29 70/70/29
f 70/70/29 66/108/29 86/68/29
f 86/68/29 82/110/29 78/69/29
f 78/69/29 74/112/29 70/70/29
f 86/71/30 88/66/30 87/64/30
f 88/66/31 66/59/31 65/61/31
f 87/74/32 65/108/32 67/107/32
f 67/107/32 69/70/32 71/72/32
f 71/72/32 73/112/32 75/111/32
f 75/111/32 77/69/32 79/73/32
f 79/73/32 81/110/32 83/109/32
f 83/109/32 85/68/32 87/74/32
f 87/74/32 67/107/32 71/72/32
f 71/72/32 75/111/32 79/73/32
f 79/73/32 83/109/32 87/74/32
f 90/75/33 92/78/33 91/76/33
f 92/75/18 96/78/18 95/76/18
f 96/78/34 94/75/34 93/77/34
f 94/78/15 90/75/15 89/77/15
f 95/79/32 93/82/32 89/80/32
f 92/81/29 90/80/29 94/82/29
f 98/75/33 100/78/33 99/76/33
f 100/75/18 104/78/18 103/76/18
f 104/78/34 102/75/34 101/77/34
f 102/78/15 98/75/15 97/77/15
f 103/79/32 101/82/32 97/80/32
f 100/81/29 98/80/29 102/82/29
f 106/75/33 108/78/33 107/76/33
f 108/75/18 112/78/18 111/76/18
f 112/78/34 110/75/34 109/77/34
f 110/78/15 106/75/15 105/77/15
f 111/79/32 109/82/32 105/80/32
f 108/81/29 106/80/29 110/82/29
f 114/75/33 116/78/33 115/76/33
f 116/75/18 120/78/18 119/76/18
f 120/78/34 118/75/34 117/77/34
f 118/78/15 114/75/15 113/77/15
f 119/79/32 117/82/32 113/80/32
f 116/81/29 114/80/29 118/82/29
f 122/75/33 124/78/33 123/76/33
f 124/75/18 128/78/18 127/76/18
f 128/78/34 126/75/34 125/77/34
f 126/78/15 122/75/15 121/77/15
f 127/79/32 125/82/32 121/80/32
f 124/81/29 122/80/29 126/82/29
