# Blender 5.2.0 LTS
# www.blender.org
o crest_uncrowned
v 0.000000 0.550000 -0.060000
v 0.000000 0.550000 0.060000
v 0.210476 0.508134 -0.060000
v 0.210476 0.508134 0.060000
v 0.388909 0.388909 -0.060000
v 0.388909 0.388909 0.060000
v 0.508134 0.210476 -0.060000
v 0.508134 0.210476 0.060000
v 0.550000 0.000000 -0.060000
v 0.550000 -0.000000 0.060000
v 0.508134 -0.210476 -0.060000
v 0.508134 -0.210476 0.060000
v 0.388909 -0.388909 -0.060000
v 0.388909 -0.388909 0.060000
v 0.210476 -0.508134 -0.060000
v 0.210476 -0.508134 0.060000
v 0.000000 -0.550000 -0.060000
v 0.000000 -0.550000 0.060000
v -0.210476 -0.508134 -0.060000
v -0.210476 -0.508134 0.060000
v -0.388909 -0.388909 -0.060000
v -0.388909 -0.388909 0.060000
v -0.508134 -0.210476 -0.060000
v -0.508134 -0.210476 0.060000
v -0.550000 0.000000 -0.060000
v -0.550000 -0.000000 0.060000
v -0.508134 0.210476 -0.060000
v -0.508134 0.210476 0.060000
v -0.388909 0.388909 -0.060000
v -0.388909 0.388909 0.060000
v -0.210476 0.508134 -0.060000
v -0.210476 0.508134 0.060000
v 0.000000 0.580000 -0.030000
v 0.000000 0.580000 0.030000
v 0.221956 0.535850 -0.030000
v 0.221956 0.535850 0.030000
v 0.410122 0.410122 -0.030000
v 0.410122 0.410122 0.030000
v 0.535850 0.221956 -0.030000
v 0.535850 0.221956 0.030000
v 0.580000 0.000000 -0.030000
v 0.580000 -0.000000 0.030000
v 0.535850 -0.221956 -0.030000
v 0.535850 -0.221956 0.030000
v 0.410122 -0.410122 -0.030000
v 0.410122 -0.410122 0.030000
v 0.221956 -0.535850 -0.030000
v 0.221956 -0.535850 0.030000
v 0.000000 -0.580000 -0.030000
v 0.000000 -0.580000 0.030000
v -0.221956 -0.535850 -0.030000
v -0.221956 -0.535850 0.030000
v -0.410122 -0.410122 -0.030000
v -0.410122 -0.410122 0.030000
v -0.535850 -0.221956 -0.030000
v -0.535850 -0.221956 0.030000
v -0.580000 0.000000 -0.030000
v -0.580000 -0.000000 0.030000
v -0.535850 0.221956 -0.030000
v -0.535850 0.221956 0.030000
v -0.410122 0.410122 -0.030000
v -0.410122 0.410122 0.030000
v -0.221956 0.535850 -0.030000
v -0.221956 0.535850 0.030000
v 0.000000 0.075000 -0.270000
v 0.000000 0.525000 0.030000
v 0.226274 0.075000 -0.176274
v 0.014142 0.525000 0.035858
v 0.320000 0.075000 0.050000
v 0.020000 0.525000 0.050000
v 0.226274 0.075000 0.276274
v 0.014142 0.525000 0.064142
v 0.000000 0.075000 0.370000
v 0.000000 0.525000 0.070000
v -0.226274 0.075000 0.276274
v -0.014142 0.525000 0.064142
v -0.320000 0.075000 0.050000
v -0.020000 0.525000 0.050000
v -0.226274 0.075000 -0.176274
v -0.014142 0.525000 0.035858
v 0.000000 0.230000 0.200000
v 0.000000 0.219282 0.160000
v 0.000000 0.190000 0.130718
v 0.000000 0.150000 0.120000
v 0.000000 0.110000 0.130718
v 0.000000 0.080718 0.160000
v 0.000000 0.070000 0.200000
v 0.028284 0.219282 0.171716
v 0.048990 0.190000 0.151010
v 0.056569 0.150000 0.143431
v 0.048990 0.110000 0.151010
v 0.028284 0.080718 0.171716
v 0.040000 0.219282 0.200000
v 0.069282 0.190000 0.200000
v 0.080000 0.150000 0.200000
v 0.069282 0.110000 0.200000
v 0.040000 0.080718 0.200000
v 0.028284 0.219282 0.228284
v 0.048990 0.190000 0.248990
v 0.056569 0.150000 0.256569
v 0.048990 0.110000 0.248990
v 0.028284 0.080718 0.228284
v 0.000000 0.219282 0.240000
v 0.000000 0.190000 0.269282
v 0.000000 0.150000 0.280000
v 0.000000 0.110000 0.269282
v 0.000000 0.080718 0.240000
v -0.028284 0.219282 0.228284
v -0.048990 0.190000 0.248990
v -0.056569 0.150000 0.256569
v -0.048990 0.110000 0.248990
v -0.028284 0.080718 0.228284
v -0.040000 0.219282 0.200000
v -0.069282 0.190000 0.200000
v -0.080000 0.150000 0.200000
v -0.069282 0.110000 0.200000
v -0.040000 0.080718 0.200000
v -0.028284 0.219282 0.171716
v -0.048990 0.190000 0.151010
v -0.056569 0.150000 0.143431
v -0.048990 0.110000 0.151010
v -0.028284 0.080718 0.171716
vn 0.1951 0.9808 -0.0000
vn 0.5556 0.8315 -0.0000
vn 0.8315 0.5556 -0.0000
vn 0.9808 0.1951 -0.0000
vn 0.9808 -0.1951 -0.0000
vn 0.8315 -0.5556 -0.0000
vn 0.5556 -0.8315 -0.0000
vn 0.1951 -0.9808 -0.0000
vn -0.1951 -0.9808 -0.0000
vn -0.5556 -0.8315 -0.0000
vn -0.8315 -0.5556 -0.0000
vn -0.9808 -0.1951 -0.0000
vn -0.9808 0.1951 -0.0000
vn -0.8315 0.5556 -0.0000
vn -0.0000 -0.0000 1.0000
vn -0.5556 0.8315 -0.0000
vn -0.1951 0.9808 -0.0000
vn -0.0000 -0.0000 -1.0000
vn 0.3258 0.5244 -0.7866
vn 0.7866 0.5244 -0.3258
vn 0.7866 0.5244 0.3258
vn 0.3258 0.5244 0.7866
vn -0.3258 0.5244 0.7866
vn -0.7866 0.5244 0.3258
vn -0.0000 1.0000 -0.0000
vn -0.7866 0.5244 -0.3258
vn -0.3258 0.5244 -0.7866
vn -0.0000 -1.0000 -0.0000
vn 0.2811 -0.6786 -0.6786
vn 0.3715 0.2403 -0.8968
vn 0.1066 0.9604 -0.2573
vn 0.1066 -0.9604 -0.2573
vn 0.3715 -0.2403 -0.8968
vn 0.2811 0.6786 -0.6786
vn 0.2573 0.9604 -0.1066
vn 0.2573 -0.9604 -0.1066
vn 0.8968 -0.2403 -0.3715
vn 0.6786 0.6786 -0.2811
vn 0.6786 -0.6786 -0.2811
vn 0.8968 0.2403 -0.3715
vn 0.2573 -0.9604 0.1066
vn 0.8968 -0.2403 0.3715
vn 0.6786 0.6786 0.2811
vn 0.6786 -0.6786 0.2811
vn 0.8968 0.2403 0.3715
vn 0.2573 0.9604 0.1066
vn 0.1066 -0.9604 0.2573
vn 0.3715 -0.2403 0.8968
vn 0.2811 0.6786 0.6786
vn 0.2811 -0.6786 0.6786
vn 0.3715 0.2403 0.8968
vn 0.1066 0.9604 0.2573
vn -0.1066 -0.9604 0.2573
vn -0.3715 -0.2403 0.8968
vn -0.2811 0.6786 0.6786
vn -0.2811 -0.6786 0.6786
vn -0.3715 0.2403 0.8968
vn -0.1066 0.9604 0.2573
vn -0.8968 -0.2403 0.3715
vn -0.6786 0.6786 0.2811
vn -0.6786 -0.6786 0.2811
vn -0.8968 0.2403 0.3715
vn -0.2573 0.9604 0.1066
vn -0.2573 -0.9604 0.1066
vn -0.6786 0.6786 -0.2811
vn -0.6786 -0.6786 -0.2811
vn -0.8968 0.2403 -0.3715
vn -0.2573 0.9604 -0.1066
vn -0.2573 -0.9604 -0.1066
vn -0.8968 -0.2403 -0.3715
vn -0.2811 -0.6786 -0.6786
vn -0.3715 0.2403 -0.8968
vn -0.1066 0.9604 -0.2573
vn -0.1066 -0.9604 -0.2573
vn -0.3715 -0.2403 -0.8968
vn -0.2811 0.6786 -0.6786
vt 0.500000 0.470000
vt 0.605238 0.530000
vt 0.500000 0.530000
vt 0.605238 0.470000
vt 0.694454 0.530000
vt 0.470000 0.694454
vt 0.530000 0.605238
vt 0.530000 0.694454
vt 0.470000 0.605238
vt 0.530000 0.500000
vt 0.470000 0.500000
vt 0.530000 0.394762
vt 0.470000 0.394762
vt 0.530000 0.305546
vt 0.694454 0.470000
vt 0.605238 0.530000
vt 0.694454 0.530000
vt 0.500000 0.530000
vt 0.394762 0.530000
vt 0.394762 0.470000
vt 0.305546 0.530000
vt 0.470000 0.305546
vt 0.305546 0.305546
vt 0.694454 0.305546
vt 0.694454 0.694454
vt 0.305546 0.470000
vt 0.394762 0.530000
vt 0.305546 0.530000
vt 0.605238 0.245933
vt 0.245933 0.394762
vt 0.394762 0.754067
vt 0.500000 0.485000
vt 0.610978 0.515000
vt 0.500000 0.515000
vt 0.705061 0.485000
vt 0.705061 0.515000
vt 0.485000 0.705061
vt 0.515000 0.610978
vt 0.515000 0.705061
vt 0.485000 0.610978
vt 0.515000 0.500000
vt 0.485000 0.500000
vt 0.515000 0.389022
vt 0.485000 0.389022
vt 0.515000 0.294939
vt 0.610978 0.485000
vt 0.500000 0.485000
vt 0.389022 0.515000
vt 0.389022 0.485000
vt 0.294939 0.515000
vt 0.294939 0.294939
vt 0.705061 0.294939
vt 0.705061 0.705061
vt 0.294939 0.485000
vt 0.389022 0.485000
vt 0.610978 0.232075
vt 0.232075 0.389022
vt 0.389022 0.767925
vt 0.500000 0.387500
vt 0.507071 0.612500
vt 0.613137 0.387500
vt 0.500000 0.612500
vt 0.386863 0.387500
vt 0.492929 0.612500
vt 0.490000 0.500000
vt 0.500000 0.490000
vt 0.510000 0.500000
vt 0.613137 0.386863
vt 0.386863 0.386863
vt 0.386863 0.613137
vt 0.500000 0.569282
vt 0.528284 0.528284
vt 0.500000 0.540000
vt 0.500000 0.500000
vt 0.548990 0.540000
vt 0.556569 0.500000
vt 0.548990 0.460000
vt 0.500000 0.460000
vt 0.548990 0.548990
vt 0.540000 0.500000
vt 0.569282 0.500000
vt 0.528284 0.471716
vt 0.451010 0.460000
vt 0.548990 0.451010
vt 0.443431 0.500000
vt 0.500000 0.430718
vt 0.471716 0.471716
vt 0.451010 0.451010
vt 0.451010 0.540000
vt 0.430718 0.500000
vt 0.460000 0.500000
vt 0.451010 0.548990
vt 0.471716 0.528284
vt 0.605238 0.754067
vt 0.500000 0.775000
vt 0.305546 0.694454
vt 0.245933 0.605238
vt 0.225000 0.500000
vt 0.394762 0.245933
vt 0.500000 0.225000
vt 0.754067 0.394762
vt 0.775000 0.500000
vt 0.754067 0.605238
vt 0.610978 0.485000
vt 0.485000 0.294939
vt 0.705061 0.485000
vt 0.294939 0.485000
vt 0.610978 0.767925
vt 0.500000 0.790000
vt 0.294939 0.705061
vt 0.232075 0.610978
vt 0.210000 0.500000
vt 0.389022 0.232075
vt 0.500000 0.210000
vt 0.767925 0.389022
vt 0.790000 0.500000
vt 0.767925 0.610978
vt 0.507071 0.507071
vt 0.500000 0.510000
vt 0.492929 0.507071
vt 0.492929 0.492929
vt 0.507071 0.492929
vt 0.500000 0.660000
vt 0.613137 0.613137
vt 0.660000 0.500000
vt 0.500000 0.340000
vt 0.340000 0.500000
s 0
f 2/1/1 3/2/1 1/3/1
f 4/4/2 5/5/2 3/2/2
f 6/6/3 7/7/3 5/8/3
f 8/9/4 9/10/4 7/7/4
f 10/11/5 11/12/5 9/10/5
f 12/13/6 13/14/6 11/12/6
f 14/15/7 15/16/7 13/17/7
f 16/4/8 17/18/8 15/16/8
f 18/1/9 19/19/9 17/18/9
f 20/20/10 21/21/10 19/19/10
f 22/22/11 23/12/11 21/14/11
f 24/13/12 25/10/12 23/12/12
f 26/11/13 27/7/13 25/10/13
f 28/9/14 29/8/14 27/7/14
f 22/23/15 14/24/15 6/25/15
f 30/26/16 31/27/16 29/28/16
f 32/20/17 1/3/17 31/27/17
f 15/29/18 23/30/18 31/31/18
f 34/32/1 35/33/1 33/34/1
f 35/33/2 38/35/2 37/36/2
f 38/37/3 39/38/3 37/39/3
f 40/40/4 41/41/4 39/38/4
f 42/42/5 43/43/5 41/41/5
f 44/44/6 45/45/6 43/43/6
f 45/36/7 48/46/7 47/33/7
f 48/46/8 49/34/8 47/33/8
f 50/47/9 51/48/9 49/34/9
f 52/49/10 53/50/10 51/48/10
f 53/45/11 56/44/11 55/43/11
f 56/44/12 57/41/12 55/43/12
f 58/42/13 59/38/13 57/41/13
f 59/38/14 62/37/14 61/39/14
f 54/51/15 46/52/15 38/53/15
f 62/54/16 63/48/16 61/50/16
f 64/55/17 33/34/17 63/48/17
f 47/56/18 55/57/18 63/58/18
f 65/59/19 68/60/19 67/61/19
f 67/61/20 70/62/20 69/59/20
f 70/62/21 71/63/21 69/59/21
f 72/60/22 73/59/22 71/61/22
f 74/62/23 75/63/23 73/59/23
f 76/64/24 77/59/24 75/63/24
f 78/65/25 74/66/25 70/67/25
f 78/62/26 79/61/26 77/59/26
f 80/64/27 65/59/27 79/63/27
f 71/68/28 75/69/28 79/70/28
f 85/71/29 92/72/29 86/73/29
f 84/74/30 89/75/30 90/76/30
f 82/73/31 81/74/31 88/72/31
f 87/74/32 86/73/32 92/72/32
f 84/74/33 91/77/33 85/78/33
f 82/73/34 89/79/34 83/71/34
f 88/72/35 81/74/35 93/80/35
f 87/74/36 92/72/36 97/80/36
f 91/77/37 95/74/37 96/78/37
f 88/72/38 94/81/38 89/79/38
f 91/79/39 97/80/39 92/72/39
f 89/75/40 95/74/40 90/76/40
f 87/74/41 97/80/41 102/82/41
f 95/74/42 101/83/42 96/78/42
f 94/81/43 98/82/43 99/84/43
f 96/81/44 102/82/44 97/80/44
f 94/73/45 100/85/45 95/74/45
f 93/80/46 81/74/46 98/82/46
f 87/74/47 102/82/47 107/78/47
f 100/76/48 106/78/48 101/77/48
f 99/84/49 103/78/49 104/86/49
f 102/82/50 106/86/50 107/78/50
f 99/75/51 105/74/51 100/76/51
f 98/82/52 81/74/52 103/78/52
f 87/74/53 107/78/53 112/87/53
f 105/74/54 111/83/54 106/78/54
f 103/78/55 109/88/55 104/86/55
f 107/78/56 111/88/56 112/87/56
f 105/74/57 109/89/57 110/85/57
f 103/78/58 81/74/58 108/87/58
f 110/85/59 116/78/59 111/83/59
f 108/87/60 114/90/60 109/88/60
f 111/88/61 117/91/61 112/87/61
f 109/89/62 115/74/62 110/85/62
f 108/87/63 81/74/63 113/91/63
f 87/74/64 112/87/64 117/91/64
f 113/91/65 119/92/65 114/90/65
f 116/90/66 122/93/66 117/91/66
f 115/74/67 119/75/67 120/76/67
f 113/91/68 81/74/68 118/93/68
f 87/74/69 117/91/69 122/93/69
f 115/74/70 121/77/70 116/78/70
f 122/93/71 85/71/71 86/73/71
f 120/85/72 83/73/72 84/74/72
f 118/93/73 81/74/73 82/73/73
f 87/74/74 122/93/74 86/73/74
f 120/85/75 85/78/75 121/83/75
f 119/92/76 82/73/76 83/71/76
f 2/1/1 4/4/1 3/2/1
f 4/4/2 6/15/2 5/5/2
f 6/6/3 8/9/3 7/7/3
f 8/9/4 10/11/4 9/10/4
f 10/11/5 12/13/5 11/12/5
f 12/13/6 14/22/6 13/14/6
f 14/15/7 16/4/7 15/16/7
f 16/4/8 18/1/8 17/18/8
f 18/1/9 20/20/9 19/19/9
f 20/20/10 22/26/10 21/21/10
f 22/22/11 24/13/11 23/12/11
f 24/13/12 26/11/12 25/10/12
f 26/11/13 28/9/13 27/7/13
f 28/9/14 30/6/14 29/8/14
f 6/25/15 4/94/15 2/95/15
f 2/95/15 32/31/15 30/96/15
f 30/96/15 28/97/15 26/98/15
f 26/98/15 24/30/15 22/23/15
f 22/23/15 20/99/15 18/100/15
f 18/100/15 16/29/15 14/24/15
f 14/24/15 12/101/15 10/102/15
f 10/102/15 8/103/15 6/25/15
f 6/25/15 2/95/15 30/96/15
f 30/96/15 26/98/15 22/23/15
f 22/23/15 18/100/15 14/24/15
f 14/24/15 10/102/15 6/25/15
f 6/25/15 30/96/15 22/23/15
f 30/26/16 32/20/16 31/27/16
f 32/20/17 2/1/17 1/3/17
f 31/31/18 1/95/18 3/94/18
f 3/94/18 5/25/18 7/103/18
f 7/103/18 9/102/18 11/101/18
f 11/101/18 13/24/18 15/29/18
f 15/29/18 17/100/18 19/99/18
f 19/99/18 21/23/18 23/30/18
f 23/30/18 25/98/18 27/97/18
f 27/97/18 29/96/18 31/31/18
f 31/31/18 3/94/18 7/103/18
f 7/103/18 11/101/18 15/29/18
f 15/29/18 19/99/18 23/30/18
f 23/30/18 27/97/18 31/31/18
f 31/31/18 7/103/18 15/29/18
f 34/32/1 36/104/1 35/33/1
f 35/33/2 36/104/2 38/35/2
f 38/37/3 40/40/3 39/38/3
f 40/40/4 42/42/4 41/41/4
f 42/42/5 44/44/5 43/43/5
f 44/44/6 46/105/6 45/45/6
f 45/36/7 46/106/7 48/46/7
f 48/46/8 50/47/8 49/34/8
f 50/47/9 52/49/9 51/48/9
f 52/49/10 54/107/10 53/50/10
f 53/45/11 54/105/11 56/44/11
f 56/44/12 58/42/12 57/41/12
f 58/42/13 60/40/13 59/38/13
f 59/38/14 60/40/14 62/37/14
f 38/53/15 36/108/15 34/109/15
f 34/109/15 64/58/15 62/110/15
f 62/110/15 60/111/15 58/112/15
f 58/112/15 56/57/15 54/51/15
f 54/51/15 52/113/15 50/114/15
f 50/114/15 48/56/15 46/52/15
f 46/52/15 44/115/15 42/116/15
f 42/116/15 40/117/15 38/53/15
f 38/53/15 34/109/15 62/110/15
f 62/110/15 58/112/15 54/51/15
f 54/51/15 50/114/15 46/52/15
f 46/52/15 42/116/15 38/53/15
f 38/53/15 62/110/15 54/51/15
f 62/54/16 64/55/16 63/48/16
f 64/55/17 34/32/17 33/34/17
f 63/58/18 33/109/18 35/108/18
f 35/108/18 37/53/18 39/117/18
f 39/117/18 41/116/18 43/115/18
f 43/115/18 45/52/18 47/56/18
f 47/56/18 49/114/18 51/113/18
f 51/113/18 53/51/18 55/57/18
f 55/57/18 57/112/18 59/111/18
f 59/111/18 61/110/18 63/58/18
f 63/58/18 35/108/18 39/117/18
f 39/117/18 43/115/18 47/56/18
f 47/56/18 51/113/18 55/57/18
f 55/57/18 59/111/18 63/58/18
f 63/58/18 39/117/18 47/56/18
f 65/59/19 66/62/19 68/60/19
f 67/61/20 68/60/20 70/62/20
f 70/62/21 72/64/21 71/63/21
f 72/60/22 74/62/22 73/59/22
f 74/62/23 76/64/23 75/63/23
f 76/64/24 78/62/24 77/59/24
f 70/67/25 68/118/25 66/119/25
f 66/119/25 80/120/25 78/65/25
f 78/65/25 76/121/25 74/66/25
f 74/66/25 72/122/25 70/67/25
f 70/67/25 66/119/25 78/65/25
f 78/62/26 80/60/26 79/61/26
f 80/64/27 66/62/27 65/59/27
f 79/70/28 65/123/28 67/124/28
f 67/124/28 69/125/28 71/68/28
f 71/68/28 73/126/28 75/69/28
f 75/69/28 77/127/28 79/70/28
f 79/70/28 67/124/28 71/68/28
f 85/71/29 91/79/29 92/72/29
f 84/74/30 83/73/30 89/75/30
f 84/74/33 90/76/33 91/77/33
f 82/73/34 88/72/34 89/79/34
f 91/77/37 90/76/37 95/74/37
f 88/72/38 93/80/38 94/81/38
f 91/79/39 96/81/39 97/80/39
f 89/75/40 94/73/40 95/74/40
f 95/74/42 100/85/42 101/83/42
f 94/81/43 93/80/43 98/82/43
f 96/81/44 101/84/44 102/82/44
f 94/73/45 99/89/45 100/85/45
f 100/76/48 105/74/48 106/78/48
f 99/84/49 98/82/49 103/78/49
f 102/82/50 101/84/50 106/86/50
f 99/75/51 104/73/51 105/74/51
f 105/74/54 110/85/54 111/83/54
f 103/78/55 108/87/55 109/88/55
f 107/78/56 106/86/56 111/88/56
f 105/74/57 104/73/57 109/89/57
f 110/85/59 115/74/59 116/78/59
f 108/87/60 113/91/60 114/90/60
f 111/88/61 116/90/61 117/91/61
f 109/89/62 114/73/62 115/74/62
f 113/91/65 118/93/65 119/92/65
f 116/90/66 121/92/66 122/93/66
f 115/74/67 114/73/67 119/75/67
f 115/74/70 120/76/70 121/77/70
f 122/93/71 121/92/71 85/71/71
f 120/85/72 119/89/72 83/73/72
f 120/85/75 84/74/75 85/78/75
f 119/92/76 118/93/76 82/73/76
