# Blender 5.2.0 LTS
# www.blender.org
o crest_outcast_host
v 0.000000 0.550000 -0.060000
v 0.000000 0.550000 0.060000
v 0.210476 0.508134 -0.060000
v 0.210476 0.508134 0.060000
v 0.388909 0.388909 -0.060000
v 0.388909 0.388909 0.060000
v 0.508134 0.210476 -0.060000
v 0.508134 0.210476 0.060000
v 0.550000 0.000000 -0.060000
v 0.550000 -0.000000 0.060000
v 0.508134 -0.210476 -0.060000
v 0.508134 -0.210476 0.060000
v 0.388909 -0.388909 -0.060000
v 0.388909 -0.388909 0.060000
v 0.210476 -0.508134 -0.060000
v 0.210476 -0.508134 0.060000
v 0.000000 -0.550000 -0.060000
v 0.000000 -0.550000 0.060000
v -0.210476 -0.508134 -0.060000
v -0.210476 -0.508134 0.060000
v -0.388909 -0.388909 -0.060000
v -0.388909 -0.388909 0.060000
v -0.508134 -0.210476 -0.060000
v -0.508134 -0.210476 0.060000
v -0.550000 0.000000 -0.060000
v -0.550000 -0.000000 0.060000
v -0.508134 0.210476 -0.060000
v -0.508134 0.210476 0.060000
v -0.388909 0.388909 -0.060000
v -0.388909 0.388909 0.060000
v -0.210476 0.508134 -0.060000
v -0.210476 0.508134 0.060000
v 0.000000 0.580000 -0.030000
v 0.000000 0.580000 0.030000
v 0.221956 0.535850 -0.030000
v 0.221956 0.535850 0.030000
v 0.410122 0.410122 -0.030000
v 0.410122 0.410122 0.030000
v 0.535850 0.221956 -0.030000
v 0.535850 0.221956 0.030000
v 0.580000 0.000000 -0.030000
v 0.580000 -0.000000 0.030000
v 0.535850 -0.221956 -0.030000
v 0.535850 -0.221956 0.030000
v 0.410122 -0.410122 -0.030000
v 0.410122 -0.410122 0.030000
v 0.221956 -0.535850 -0.030000
v 0.221956 -0.535850 0.030000
v 0.000000 -0.580000 -0.030000
v 0.000000 -0.580000 0.030000
v -0.221956 -0.535850 -0.030000
v -0.221956 -0.535850 0.030000
v -0.410122 -0.410122 -0.030000
v -0.410122 -0.410122 0.030000
v -0.535850 -0.221956 -0.030000
v -0.535850 -0.221956 0.030000
v -0.580000 0.000000 -0.030000
v -0.580000 -0.000000 0.030000
v -0.535850 0.221956 -0.030000
v -0.535850 0.221956 0.030000
v -0.410122 0.410122 -0.030000
v -0.410122 0.410122 0.030000
v -0.221956 0.535850 -0.030000
v -0.221956 0.535850 0.030000
v 0.000000 -0.185000 0.050000
v 0.177282 0.027822 0.123601
v -0.067714 0.027822 0.169090
v -0.219134 0.027822 0.050000
v -0.067714 0.027822 -0.069090
v 0.177282 0.027822 -0.023601
v 0.067714 0.372178 0.169090
v -0.177282 0.372178 0.123601
v -0.177282 0.372178 -0.023601
v 0.067714 0.372178 -0.069090
v 0.219134 0.372178 0.050000
v 0.000000 0.585000 0.050000
vn 0.1951 0.9808 -0.0000
vn 0.5556 0.8315 -0.0000
vn 0.8315 0.5556 -0.0000
vn 0.9808 0.1951 -0.0000
vn 0.9808 -0.1951 -0.0000
vn 0.8315 -0.5556 -0.0000
vn 0.5556 -0.8315 -0.0000
vn 0.1951 -0.9808 -0.0000
vn -0.1951 -0.9808 -0.0000
vn -0.5556 -0.8315 -0.0000
vn -0.8315 -0.5556 -0.0000
vn -0.9808 -0.1951 -0.0000
vn -0.9808 0.1951 -0.0000
vn -0.8315 0.5556 -0.0000
vn -0.0000 -0.0000 1.0000
vn -0.5556 0.8315 -0.0000
vn -0.1951 0.9808 -0.0000
vn -0.0000 -0.0000 -1.0000
vn 0.1638 -0.4415 0.8822
vn 0.7683 -0.6400 -0.0000
vn -0.5215 -0.5370 0.6631
vn -0.5215 -0.5370 -0.6631
vn 0.1638 -0.4415 -0.8822
vn 0.9927 -0.1206 -0.0000
vn 0.1821 -0.0716 0.9807
vn -0.6155 -0.0925 0.7827
vn -0.6155 -0.0925 -0.7827
vn 0.1821 -0.0716 -0.9807
vn 0.6155 0.0925 0.7827
vn -0.1821 0.0716 0.9807
vn -0.9927 0.1206 -0.0000
vn -0.1821 0.0716 -0.9807
vn 0.6155 0.0925 -0.7827
vn 0.5215 0.5370 0.6631
vn -0.1638 0.4415 0.8822
vn -0.7683 0.6400 -0.0000
vn -0.1638 0.4415 -0.8822
vn 0.5215 0.5370 -0.6631
vt 0.500000 0.470000
vt 0.605238 0.530000
vt 0.500000 0.530000
vt 0.605238 0.470000
vt 0.694454 0.530000
vt 0.470000 0.694454
vt 0.530000 0.605238
vt 0.530000 0.694454
vt 0.470000 0.605238
vt 0.530000 0.500000
vt 0.470000 0.500000
vt 0.530000 0.394762
vt 0.470000 0.394762
vt 0.530000 0.305546
vt 0.694454 0.470000
vt 0.605238 0.530000
vt 0.694454 0.530000
vt 0.500000 0.530000
vt 0.394762 0.530000
vt 0.394762 0.470000
vt 0.305546 0.530000
vt 0.470000 0.305546
vt 0.305546 0.305546
vt 0.694454 0.305546
vt 0.694454 0.694454
vt 0.305546 0.470000
vt 0.394762 0.530000
vt 0.305546 0.530000
vt 0.605238 0.245933
vt 0.245933 0.394762
vt 0.394762 0.754067
vt 0.500000 0.485000
vt 0.610978 0.515000
vt 0.500000 0.515000
vt 0.705061 0.485000
vt 0.705061 0.515000
vt 0.485000 0.705061
vt 0.515000 0.610978
vt 0.515000 0.705061
vt 0.485000 0.610978
vt 0.515000 0.500000
vt 0.485000 0.500000
vt 0.515000 0.389022
vt 0.485000 0.389022
vt 0.515000 0.294939
vt 0.610978 0.485000
vt 0.500000 0.485000
vt 0.389022 0.515000
vt 0.389022 0.485000
vt 0.294939 0.515000
vt 0.294939 0.294939
vt 0.705061 0.294939
vt 0.705061 0.705061
vt 0.294939 0.485000
vt 0.389022 0.485000
vt 0.610978 0.232075
vt 0.232075 0.389022
vt 0.389022 0.767925
vt 0.500000 0.307500
vt 0.588641 0.413911
vt 0.466143 0.413911
vt 0.463200 0.413911
vt 0.536800 0.413911
vt 0.390433 0.413911
vt 0.500000 0.586089
vt 0.533857 0.586089
vt 0.411359 0.586089
vt 0.609567 0.586089
vt 0.500000 0.413911
vt 0.463200 0.586089
vt 0.536800 0.586089
vt 0.500000 0.692500
vt 0.605238 0.754067
vt 0.500000 0.775000
vt 0.305546 0.694454
vt 0.245933 0.605238
vt 0.225000 0.500000
vt 0.394762 0.245933
vt 0.500000 0.225000
vt 0.754067 0.394762
vt 0.775000 0.500000
vt 0.754067 0.605238
vt 0.610978 0.485000
vt 0.485000 0.294939
vt 0.705061 0.485000
vt 0.294939 0.485000
vt 0.610978 0.767925
vt 0.500000 0.790000
vt 0.294939 0.705061
vt 0.232075 0.610978
vt 0.210000 0.500000
vt 0.389022 0.232075
vt 0.500000 0.210000
vt 0.767925 0.389022
vt 0.790000 0.500000
vt 0.767925 0.610978
s 0
f 2/1/1 3/2/1 1/3/1
f 4/4/2 5/5/2 3/2/2
f 6/6/3 7/7/3 5/8/3
f 8/9/4 9/10/4 7/7/4
f 10/11/5 11/12/5 9/10/5
f 12/13/6 13/14/6 11/12/6
f 14/15/7 15/16/7 13/17/7
f 16/4/8 17/18/8 15/16/8
f 18/1/9 19/19/9 17/18/9
f 20/20/10 21/21/10 19/19/10
f 22/22/11 23/12/11 21/14/11
f 24/13/12 25/10/12 23/12/12
f 26/11/13 27/7/13 25/10/13
f 28/9/14 29/8/14 27/7/14
f 22/23/15 14/24/15 6/25/15
f 30/26/16 31/27/16 29/28/16
f 32/20/17 1/3/17 31/27/17
f 15/29/18 23/30/18 31/31/18
f 34/32/1 35/33/1 33/34/1
f 35/33/2 38/35/2 37/36/2
f 38/37/3 39/38/3 37/39/3
f 40/40/4 41/41/4 39/38/4
f 42/42/5 43/43/5 41/41/5
f 44/44/6 45/45/6 43/43/6
f 45/36/7 48/46/7 47/33/7
f 48/46/8 49/34/8 47/33/8
f 50/47/9 51/48/9 49/34/9
f 52/49/10 53/50/10 51/48/10
f 53/45/11 56/44/11 55/43/11
f 56/44/12 57/41/12 55/43/12
f 58/42/13 59/38/13 57/41/13
f 59/38/14 62/37/14 61/39/14
f 54/51/15 46/52/15 38/53/15
f 62/54/16 63/48/16 61/50/16
f 64/55/17 33/34/17 63/48/17
f 47/56/18 55/57/18 63/58/18
f 65/59/19 66/60/19 67/61/19
f 66/62/20 65/59/20 70/63/20
f 65/59/21 67/61/21 68/64/21
f 65/59/22 68/64/22 69/61/22
f 65/59/23 69/61/23 70/60/23
f 66/62/24 70/63/24 75/65/24
f 67/61/25 66/60/25 71/66/25
f 68/64/26 67/61/26 72/67/26
f 69/61/27 68/64/27 73/67/27
f 70/60/28 69/61/28 74/66/28
f 66/60/29 75/68/29 71/66/29
f 67/61/30 71/66/30 72/67/30
f 68/69/31 72/70/31 73/71/31
f 69/61/32 73/67/32 74/66/32
f 70/60/33 74/66/33 75/68/33
f 71/66/34 75/68/34 76/72/34
f 72/67/35 71/66/35 76/72/35
f 73/71/36 72/70/36 76/72/36
f 74/66/37 73/67/37 76/72/37
f 75/68/38 74/66/38 76/72/38
f 2/1/1 4/4/1 3/2/1
f 4/4/2 6/15/2 5/5/2
f 6/6/3 8/9/3 7/7/3
f 8/9/4 10/11/4 9/10/4
f 10/11/5 12/13/5 11/12/5
f 12/13/6 14/22/6 13/14/6
f 14/15/7 16/4/7 15/16/7
f 16/4/8 18/1/8 17/18/8
f 18/1/9 20/20/9 19/19/9
f 20/20/10 22/26/10 21/21/10
f 22/22/11 24/13/11 23/12/11
f 24/13/12 26/11/12 25/10/12
f 26/11/13 28/9/13 27/7/13
f 28/9/14 30/6/14 29/8/14
f 6/25/15 4/73/15 2/74/15
f 2/74/15 32/31/15 30/75/15
f 30/75/15 28/76/15 26/77/15
f 26/77/15 24/30/15 22/23/15
f 22/23/15 20/78/15 18/79/15
f 18/79/15 16/29/15 14/24/15
f 14/24/15 12/80/15 10/81/15
f 10/81/15 8/82/15 6/25/15
f 6/25/15 2/74/15 30/75/15
f 30/75/15 26/77/15 22/23/15
f 22/23/15 18/79/15 14/24/15
f 14/24/15 10/81/15 6/25/15
f 6/25/15 30/75/15 22/23/15
f 30/26/16 32/20/16 31/27/16
f 32/20/17 2/1/17 1/3/17
f 31/31/18 1/74/18 3/73/18
f 3/73/18 5/25/18 7/82/18
f 7/82/18 9/81/18 11/80/18
f 11/80/18 13/24/18 15/29/18
f 15/29/18 17/79/18 19/78/18
f 19/78/18 21/23/18 23/30/18
f 23/30/18 25/77/18 27/76/18
f 27/76/18 29/75/18 31/31/18
f 31/31/18 3/73/18 7/82/18
f 7/82/18 11/80/18 15/29/18
f 15/29/18 19/78/18 23/30/18
f 23/30/18 27/76/18 31/31/18
f 31/31/18 7/82/18 15/29/18
f 34/32/1 36/83/1 35/33/1
f 35/33/2 36/83/2 38/35/2
f 38/37/3 40/40/3 39/38/3
f 40/40/4 42/42/4 41/41/4
f 42/42/5 44/44/5 43/43/5
f 44/44/6 46/84/6 45/45/6
f 45/36/7 46/85/7 48/46/7
f 48/46/8 50/47/8 49/34/8
f 50/47/9 52/49/9 51/48/9
f 52/49/10 54/86/10 53/50/10
f 53/45/11 54/84/11 56/44/11
f 56/44/12 58/42/12 57/41/12
f 58/42/13 60/40/13 59/38/13
f 59/38/14 60/40/14 62/37/14
f 38/53/15 36/87/15 34/88/15
f 34/88/15 64/58/15 62/89/15
f 62/89/15 60/90/15 58/91/15
f 58/91/15 56/57/15 54/51/15
f 54/51/15 52/92/15 50/93/15
f 50/93/15 48/56/15 46/52/15
f 46/52/15 44/94/15 42/95/15
f 42/95/15 40/96/15 38/53/15
f 38/53/15 34/88/15 62/89/15
f 62/89/15 58/91/15 54/51/15
f 54/51/15 50/93/15 46/52/15
f 46/52/15 42/95/15 38/53/15
f 38/53/15 62/89/15 54/51/15
f 62/54/16 64/55/16 63/48/16
f 64/55/17 34/32/17 33/34/17
f 63/58/18 33/88/18 35/87/18
f 35/87/18 37/53/18 39/96/18
f 39/96/18 41/95/18 43/94/18
f 43/94/18 45/52/18 47/56/18
f 47/56/18 49/93/18 51/92/18
f 51/92/18 53/51/18 55/57/18
f 55/57/18 57/91/18 59/90/18
f 59/90/18 61/89/18 63/58/18
f 63/58/18 35/87/18 39/96/18
f 39/96/18 43/94/18 47/56/18
f 47/56/18 51/92/18 55/57/18
f 55/57/18 59/90/18 63/58/18
f 63/58/18 39/96/18 47/56/18
