# Blender 5.2.0 LTS
# www.blender.org
o prop_rock
v 0.000000 -0.490000 0.000000
v 0.658483 -0.219138 0.368008
v -0.251513 -0.219138 0.595454
v -0.813928 -0.219136 0.000000
v -0.251513 -0.219138 -0.595454
v 0.658483 -0.219138 -0.368008
v 0.251513 0.219138 0.595454
v -0.658483 0.219138 0.368008
v -0.658483 0.219138 -0.368008
v 0.251513 0.219138 -0.595454
v 0.813928 0.219136 0.000000
v 0.000000 0.490000 0.000000
v -0.147835 -0.416821 0.349997
v 0.387044 -0.416821 0.216308
v 0.239211 -0.257611 0.566308
v 0.774090 -0.257611 0.000000
v 0.387044 -0.416821 -0.216308
v -0.478414 -0.416819 0.000000
v -0.626252 -0.257611 0.349998
v -0.147835 -0.416821 -0.349997
v -0.626252 -0.257611 -0.349998
v 0.239211 -0.257611 -0.566308
v 0.000000 0.000000 0.700000
v 0.534885 0.000000 0.566312
v -0.534885 0.000000 0.566312
v -0.534885 0.000000 -0.566312
v 0.534885 0.000000 -0.566312
v 0.000000 0.000000 -0.700000
v 0.626252 0.257611 0.349998
v -0.239211 0.257611 0.566308
v -0.774090 0.257611 0.000000
v -0.239211 0.257611 -0.566308
v 0.626252 0.257611 -0.349998
v 0.147835 0.416821 0.349997
v 0.478414 0.416819 0.000000
v -0.387044 0.416821 0.216308
v -0.387044 0.416821 -0.216308
v 0.147835 0.416821 -0.349997
v 0.450000 -0.392500 -0.200000
v 0.808186 -0.230812 0.012919
v 0.313188 -0.230812 0.144513
v 0.007259 -0.230811 -0.200000
v 0.313188 -0.230812 -0.544513
v 0.808186 -0.230812 -0.412919
v 0.586812 0.030812 0.144513
v 0.091814 0.030812 0.012919
v 0.091814 0.030812 -0.412919
v 0.586812 0.030812 -0.544513
v 0.892741 0.030811 -0.200000
v 0.450000 0.192500 -0.200000
v 0.369585 -0.348816 0.002498
v 0.660535 -0.348816 -0.074850
v 0.580120 -0.253778 0.127650
v 0.871071 -0.253778 -0.200000
v 0.660535 -0.348816 -0.325150
v 0.189764 -0.348816 -0.200000
v 0.109346 -0.253778 0.002499
v 0.369585 -0.348816 -0.402498
v 0.109346 -0.253778 -0.402499
v 0.580120 -0.253778 -0.527650
v 0.450000 -0.100000 0.205000
v 0.740954 -0.100000 0.127652
v 0.159046 -0.100000 0.127652
v 0.159046 -0.100000 -0.527652
v 0.740954 -0.100000 -0.527652
v 0.450000 -0.100000 -0.605000
v 0.790654 0.053778 0.002499
v 0.319880 0.053778 0.127650
v 0.028929 0.053778 -0.200000
v 0.319880 0.053778 -0.527650
v 0.790654 0.053778 -0.402499
v 0.530415 0.148816 0.002498
v 0.710236 0.148816 -0.200000
v 0.239465 0.148816 -0.074850
v 0.239465 0.148816 -0.325150
v 0.530415 0.148816 -0.402498
v -0.400000 -0.379000 0.150000
v -0.125029 -0.263469 0.369753
v -0.505027 -0.263469 0.505571
v -0.739882 -0.263468 0.150000
v -0.505027 -0.263469 -0.205571
v -0.125029 -0.263469 -0.069753
v -0.294973 -0.076531 0.505571
v -0.674971 -0.076531 0.369753
v -0.674971 -0.076531 -0.069753
v -0.294973 -0.076531 -0.205571
v -0.060118 -0.076532 0.150000
v -0.400000 0.039000 0.150000
v -0.461733 -0.347787 0.358998
v -0.238377 -0.347787 0.279167
v -0.300110 -0.279879 0.488167
v -0.076754 -0.279879 0.150000
v -0.238377 -0.347787 0.020833
v -0.599777 -0.347786 0.150000
v -0.661512 -0.279879 0.358999
v -0.461733 -0.347787 -0.058998
v -0.661512 -0.279879 -0.058999
v -0.300110 -0.279879 -0.188167
v -0.138488 -0.060121 0.358999
v -0.499890 -0.060121 0.488167
v -0.723246 -0.060121 0.150000
v -0.499890 -0.060121 -0.188167
v -0.138488 -0.060121 -0.058999
v -0.338267 0.007787 0.358998
v -0.200223 0.007786 0.150000
v -0.561623 0.007787 0.279167
v -0.561623 0.007787 0.020833
v -0.338267 0.007787 -0.058998
v 0.855434 -0.028274 0.192568
v 0.858595 0.029203 0.187482
v 0.846382 0.020548 0.226972
v 0.844863 0.000000 0.238119
v 0.847062 -0.019482 0.229795
v 0.860514 0.000272 0.200912
v 0.858595 0.029203 -0.187482
v 0.855434 -0.028274 -0.192568
v 0.847062 -0.019482 -0.229795
v 0.844863 0.000000 -0.238119
v 0.846382 0.020548 -0.226972
v 0.860514 0.000272 -0.200912
v -0.855434 0.028274 0.192568
v -0.858595 -0.029203 0.187482
v -0.846382 -0.020548 0.226972
v -0.844863 0.000000 0.238119
v -0.847062 0.019482 0.229795
v -0.860514 -0.000272 0.200912
v -0.858595 -0.029203 -0.187482
v -0.855434 0.028274 -0.192568
v -0.847062 0.019482 -0.229795
v -0.844863 0.000000 -0.238119
v -0.846382 -0.020548 -0.226972
v -0.860514 -0.000272 -0.200912
v 0.911547 -0.128546 -0.098082
v 0.914487 -0.070666 -0.102915
v 0.902683 -0.078620 -0.064096
v 0.900854 -0.100000 -0.052418
v 0.903330 -0.120268 -0.061251
v 0.916230 -0.099769 -0.089874
v 0.914487 -0.070666 -0.297085
v 0.911547 -0.128546 -0.301918
v 0.903330 -0.120268 -0.338749
v 0.900854 -0.100000 -0.347582
v 0.902683 -0.078620 -0.335904
v 0.916230 -0.099769 -0.310126
v -0.011547 -0.071454 -0.098082
v -0.014487 -0.129334 -0.102915
v -0.002683 -0.121380 -0.064096
v -0.000854 -0.100000 -0.052418
v -0.003330 -0.079732 -0.061251
v -0.016230 -0.100231 -0.089874
v -0.014487 -0.129334 -0.297085
v -0.011547 -0.071454 -0.301918
v -0.003330 -0.079732 -0.338749
v -0.000854 -0.100000 -0.347582
v -0.002683 -0.121380 -0.335904
v -0.016230 -0.100231 -0.310126
v -0.054967 -0.194431 0.279733
v -0.051770 -0.145610 0.268931
v -0.047250 -0.170012 0.276335
v -0.051770 -0.145610 0.031069
v -0.054967 -0.194431 0.020267
v -0.047250 -0.170012 0.023665
v -0.405126 -0.193713 0.551541
v -0.394874 -0.146287 0.551541
v -0.400000 -0.170000 0.558359
v -0.190246 -0.145966 0.478443
v -0.181923 -0.193958 0.471810
v -0.182173 -0.169978 0.480529
v -0.748230 -0.194390 0.268931
v -0.745033 -0.145569 0.279733
v -0.752750 -0.169988 0.276335
v -0.618077 -0.146042 0.471810
v -0.609755 -0.194035 0.478443
v -0.617827 -0.170022 0.480529
v -0.609755 -0.194034 -0.178443
v -0.618077 -0.146042 -0.171810
v -0.617827 -0.170022 -0.180529
v -0.745033 -0.145569 0.020267
v -0.748230 -0.194390 0.031069
v -0.752750 -0.169988 0.023665
v -0.181923 -0.193958 -0.171810
v -0.190246 -0.145966 -0.178443
v -0.182173 -0.169978 -0.180529
v -0.394874 -0.146287 -0.251541
v -0.405126 -0.193713 -0.251541
v -0.400000 -0.170000 -0.258359
vn 0.0007 -1.0000 -0.0000
vn 0.2725 -0.9292 0.2496
vn -0.1020 -0.9123 0.3967
vn 0.5978 -0.5925 0.5400
vn 0.7203 -0.6936 -0.0000
vn -0.3405 -0.9403 -0.0000
vn -0.1020 -0.9123 -0.3967
vn 0.2725 -0.9292 -0.2496
vn -0.2099 -0.5521 0.8069
vn 0.1939 -0.6308 0.7513
vn -0.0000 -0.0000 1.0000
vn -0.2099 -0.5521 -0.8069
vn -0.5507 -0.6677 -0.5009
vn -0.5072 -0.0035 -0.8618
vn 0.5978 -0.5925 -0.5400
vn 0.1939 -0.6308 -0.7513
vn 0.5072 0.0035 -0.8618
vn -0.5072 -0.0035 0.8618
vn -0.0000 -0.0000 -1.0000
vn 0.2099 0.5521 0.8069
vn 0.5507 0.6677 0.5009
vn 0.1020 0.9123 0.3967
vn -0.5978 0.5925 0.5400
vn -0.1939 0.6308 0.7513
vn -0.2725 0.9292 0.2496
vn -0.5978 0.5925 -0.5400
vn -0.7203 0.6936 -0.0000
vn -0.2725 0.9292 -0.2496
vn 0.2099 0.5521 -0.8069
vn -0.1939 0.6308 -0.7513
vn 0.1020 0.9123 -0.3967
vn 0.7845 0.6201 -0.0000
vn 0.5507 0.6677 -0.5009
vn 0.3405 0.9403 -0.0000
vn -0.0007 1.0000 -0.0000
vn 0.5072 0.0035 0.8618
vn -0.5507 -0.6677 0.5009
vn -0.7845 -0.6201 -0.0000
vn 0.0005 -1.0000 -0.0000
vn 0.2938 -0.9214 0.2542
vn -0.1105 -0.9074 0.4055
vn 0.6214 -0.5744 0.5329
vn 0.7422 -0.6702 -0.0000
vn -0.3665 -0.9304 -0.0000
vn -0.1105 -0.9074 -0.4055
vn 0.2938 -0.9214 -0.2542
vn -0.2222 -0.5430 0.8098
vn 0.2062 -0.6215 0.7558
vn -0.2222 -0.5430 -0.8098
vn -0.5753 -0.6505 -0.4959
vn -0.5265 -0.0027 -0.8502
vn 0.6214 -0.5744 -0.5329
vn 0.2062 -0.6215 -0.7558
vn 0.5265 0.0027 -0.8502
vn -0.5265 -0.0027 0.8502
vn 0.2222 0.5430 0.8098
vn 0.5753 0.6505 0.4959
vn 0.1105 0.9074 0.4055
vn -0.6214 0.5744 0.5329
vn -0.2062 0.6215 0.7558
vn -0.2938 0.9214 0.2542
vn -0.6214 0.5744 -0.5329
vn -0.7422 0.6702 -0.0000
vn -0.2938 0.9214 -0.2542
vn 0.2222 0.5430 -0.8098
vn -0.2062 0.6215 -0.7558
vn 0.1105 0.9074 -0.4055
vn 0.8034 0.5954 -0.0000
vn 0.5753 0.6505 -0.4959
vn 0.3665 0.9304 -0.0000
vn -0.0005 1.0000 -0.0000
vn 0.5265 0.0027 0.8502
vn -0.5753 -0.6505 0.4959
vn -0.8034 -0.5954 -0.0000
vn 0.0001 -1.0000 -0.0000
vn 0.2811 -0.9412 0.1872
vn -0.1080 -0.9463 0.3046
vn 0.6765 -0.5801 0.4537
vn 0.7520 -0.6592 -0.0000
vn -0.3462 -0.9382 -0.0000
vn -0.1080 -0.9463 -0.3046
vn 0.2811 -0.9412 -0.1872
vn 0.2666 0.5955 0.7578
vn 0.6190 0.6674 0.4140
vn 0.1080 0.9463 0.3046
vn -0.6765 0.5801 0.4537
vn -0.2434 0.6816 0.6901
vn -0.2811 0.9412 0.1872
vn -0.6765 0.5801 -0.4537
vn -0.7520 0.6592 -0.0000
vn -0.2811 0.9412 -0.1872
vn 0.2666 0.5955 -0.7578
vn -0.2434 0.6816 -0.6901
vn 0.1080 0.9463 -0.3046
vn 0.8210 0.5710 -0.0000
vn 0.6190 0.6674 -0.4140
vn 0.3462 0.9382 -0.0000
vn -0.0001 1.0000 -0.0000
vn 0.2434 -0.6816 -0.6901
vn 0.6765 -0.5801 -0.4537
vn -0.2666 -0.5955 -0.7578
vn -0.6190 -0.6674 -0.4140
vn -0.8210 -0.5710 -0.0000
vn -0.6190 -0.6674 0.4140
vn -0.2666 -0.5955 0.7578
vn 0.2434 -0.6816 0.6901
vn 0.9761 -0.0179 0.2164
vn 0.8279 0.3123 0.4659
vn 0.8521 -0.2718 0.4474
vn 0.9761 -0.0179 -0.2164
vn 0.8521 -0.2718 -0.4474
vn 0.8279 0.3123 -0.4659
vn -0.9761 0.0179 0.2164
vn -0.8279 -0.3123 0.4659
vn -0.8521 0.2718 0.4474
vn -0.9761 0.0179 -0.2164
vn -0.8521 0.2718 -0.4474
vn -0.8279 -0.3123 -0.4659
vn 0.9774 -0.0163 0.2106
vn 0.8419 0.2931 0.4531
vn 0.8643 -0.2542 0.4340
vn 0.9774 -0.0163 -0.2106
vn 0.8643 -0.2542 -0.4340
vn 0.8419 0.2931 -0.4531
vn -0.9774 0.0163 0.2106
vn -0.8419 -0.2931 0.4531
vn -0.8643 0.2542 0.4340
vn -0.9774 0.0163 -0.2106
vn -0.8643 0.2542 -0.4340
vn -0.8419 -0.2931 -0.4531
vn -0.9318 -0.3040 -0.1981
vn -0.9195 0.3558 -0.1671
vn 0.9195 -0.3558 -0.1671
vn 0.9195 -0.3558 0.1671
vn 0.9318 0.3040 0.1981
vn -0.9399 -0.2824 -0.1918
vn -0.9299 0.3304 -0.1616
vn 0.9299 -0.3304 -0.1616
vn 0.9299 -0.3304 0.1616
vn 0.9399 0.2824 0.1918
vn 0.5922 -0.3409 -0.7301
vn 0.9573 0.0014 -0.2890
vn 0.9012 -0.3272 -0.2842
vn 0.5701 0.3387 -0.7486
vn 0.9085 0.3285 -0.2585
vn -0.0152 -0.3479 -0.9374
vn -0.3344 0.1025 -0.9369
vn -0.3347 0.1028 -0.9367
vn 0.0152 0.3479 -0.9374
vn -0.9085 -0.3285 0.2585
vn -0.9573 -0.0014 -0.2890
vn -0.9085 -0.3285 -0.2585
vn -0.9573 -0.0014 0.2890
vn -0.9012 0.3272 -0.2842
vn -0.0152 -0.3479 0.9374
vn -0.3344 0.1025 0.9369
vn -0.5701 -0.3387 0.7486
vn 0.0152 0.3479 0.9374
vn -0.5922 0.3409 0.7301
vn 0.5922 -0.3409 0.7301
vn 0.9573 0.0014 0.2890
vn 0.8302 0.0990 0.5486
vn 0.5701 0.3387 0.7486
vn 0.3344 -0.1025 -0.9369
vn -0.5701 -0.3387 -0.7486
vn -0.8302 -0.0990 -0.5486
vn -0.5922 0.3409 -0.7301
vn -0.9012 0.3272 0.2842
vn 0.3344 -0.1025 0.9369
vn 0.3347 -0.1028 0.9367
vn 0.9012 -0.3272 0.2842
vn 0.9085 0.3285 0.2585
vn 0.8524 0.0460 0.5208
vn 0.9318 0.3040 -0.1981
vn 0.8524 0.0460 -0.5208
vn -0.9318 -0.3040 0.1981
vn -0.9195 0.3558 0.1671
vn -0.8524 -0.0460 0.5208
vn -0.8524 -0.0460 -0.5208
vn 0.8580 0.0437 0.5117
vn 0.9399 0.2824 -0.1918
vn 0.8580 0.0437 -0.5117
vn -0.9399 -0.2824 0.1918
vn -0.9299 0.3304 0.1616
vn -0.8580 -0.0437 0.5117
vn -0.8580 -0.0437 -0.5117
vn 0.8302 0.0990 -0.5486
vn -0.3347 0.1028 0.9367
vn 0.3347 -0.1028 -0.9367
vn -0.8302 -0.0990 0.5486
vt 0.500000 0.500000
vt 0.758029 0.355795
vt 0.401444 0.266669
vt 0.938988 0.254662
vt 1.016060 0.500000
vt 0.181057 0.500000
vt 0.401444 0.733331
vt 0.758029 0.644205
vt 0.332325 0.353908
vt 0.659474 0.328259
vt 0.082498 0.328260
vt 0.143410 0.500000
vt 0.938988 0.353908
vt 0.659474 0.328259
vt 0.856590 0.500000
vt 0.667675 0.103030
vt 0.917502 0.266668
vt 0.598556 0.266669
vt 0.061012 0.254662
vt 0.340526 0.122461
vt 0.241971 0.355795
vt 0.061012 0.745338
vt -0.016060 0.500000
vt 0.241971 0.644205
vt 0.667675 0.896970
vt 0.340526 0.877539
vt 0.598556 0.733331
vt 1.042619 0.500000
vt 0.917502 0.733332
vt 0.818943 0.500000
vt 0.667675 0.646092
vt 0.917502 0.671740
vt 0.340526 0.671741
vt 0.061012 0.646092
vt 0.340526 0.671741
vt 0.659474 0.877539
vt 0.938988 0.745338
vt 0.332325 0.896970
vt 0.082498 0.733332
vt -0.042619 0.500000
vt 0.082498 0.266668
vt 0.332325 0.103030
vt 0.659474 0.122461
vt 0.675446 0.395709
vt 0.432987 0.331252
vt 0.798488 0.322568
vt 0.850892 0.500000
vt 0.283136 0.500000
vt 0.432987 0.668748
vt 0.675446 0.604291
vt 0.385990 0.390990
vt 0.608433 0.371851
vt 0.216122 0.371852
vt 0.257538 0.500000
vt 0.798488 0.390990
vt 0.742462 0.500000
vt 0.614010 0.212906
vt 0.783878 0.331251
vt 0.567013 0.331252
vt 0.201512 0.322568
vt 0.391567 0.226959
vt 0.324554 0.395709
vt 0.201512 0.677432
vt 0.149108 0.500000
vt 0.324554 0.604291
vt 0.614010 0.787094
vt 0.391567 0.773041
vt 0.567013 0.668748
vt 0.868951 0.500000
vt 0.783878 0.668749
vt 0.716864 0.500000
vt 0.614010 0.609010
vt 0.783878 0.628148
vt 0.391567 0.628149
vt 0.201512 0.609010
vt 0.608433 0.773041
vt 0.798488 0.677432
vt 0.385990 0.787094
vt 0.216122 0.668749
vt 0.131049 0.500000
vt 0.216122 0.331251
vt 0.385990 0.212906
vt 0.608433 0.226959
vt 0.661623 0.370833
vt 0.438267 0.291002
vt 0.774971 0.280247
vt 0.823246 0.500000
vt 0.300223 0.500000
vt 0.438267 0.708998
vt 0.661623 0.629167
vt 0.605027 0.144429
vt 0.761512 0.291001
vt 0.561733 0.291002
vt 0.225029 0.280247
vt 0.400110 0.161833
vt 0.338377 0.370833
vt 0.225029 0.719753
vt 0.176754 0.500000
vt 0.338377 0.629167
vt 0.605027 0.855571
vt 0.400110 0.838167
vt 0.561733 0.708998
vt 0.839882 0.500000
vt 0.761512 0.708999
vt 0.699777 0.500000
vt 0.599890 0.838167
vt 0.774971 0.719753
vt 0.394973 0.855571
vt 0.238488 0.708999
vt 0.160118 0.500000
vt 0.238488 0.291001
vt 0.394973 0.144429
vt 0.599890 0.161833
vt 0.366059 0.499707
vt 0.348685 0.513699
vt 0.346803 0.487012
vt 0.633941 0.500302
vt 0.653197 0.487012
vt 0.651315 0.513699
vt 0.366059 0.500293
vt 0.348685 0.486301
vt 0.346803 0.512988
vt 0.633941 0.499698
vt 0.653197 0.512988
vt 0.651315 0.486301
vt 0.408228 0.499689
vt 0.386747 0.517816
vt 0.384376 0.483110
vt 0.591771 0.500320
vt 0.615624 0.483110
vt 0.613253 0.517816
vt 0.408229 0.500311
vt 0.386747 0.482184
vt 0.384376 0.516890
vt 0.591771 0.499680
vt 0.615624 0.516890
vt 0.613253 0.482184
vt 0.624988 0.480531
vt 0.628379 0.518230
vt 0.628379 0.481770
vt 0.371621 0.481151
vt 0.375012 0.518564
vt 0.580905 0.475555
vt 0.584932 0.523133
vt 0.584932 0.476867
vt 0.415068 0.476212
vt 0.419095 0.523484
vt 0.825845 0.474303
vt 0.628754 0.500000
vt 0.631308 0.473913
vt 0.832401 0.526607
vt 0.620474 0.526054
vt 0.494855 0.474456
vt 0.279125 0.500000
vt 0.505145 0.525544
vt 0.379526 0.473946
vt 0.620474 0.473946
vt 0.371246 0.500000
vt 0.631307 0.526087
vt 0.494855 0.474456
vt 0.279125 0.500000
vt 0.288618 0.474753
vt 0.280329 0.525750
vt 0.174155 0.474303
vt 0.371246 0.500000
vt 0.164607 0.500000
vt 0.167599 0.526607
vt 0.720875 0.500000
vt 0.719671 0.474250
vt 0.711382 0.525247
vt 0.832401 0.473393
vt 0.835393 0.500000
vt 0.825845 0.525697
vt 0.167599 0.473393
vt 0.174155 0.525697
vt 0.368693 0.526087
vt 0.368692 0.473913
vt 0.379526 0.526054
vt 0.254662 0.353908
vt 0.341254 0.500000
vt 0.122459 0.500000
vt 0.266668 0.671740
vt 0.624988 0.519469
vt 0.500000 0.646090
vt 0.500000 0.328260
vt 0.745338 0.353908
vt 0.658746 0.500000
vt 0.733332 0.671740
vt 0.500000 0.353910
vt 0.375012 0.481436
vt 0.371621 0.518849
vt 0.500000 0.671740
vt 0.254662 0.646092
vt 0.266668 0.328260
vt 0.745338 0.646092
vt 0.877541 0.500000
vt 0.733332 0.328260
vt 0.322568 0.390990
vt 0.377015 0.500000
vt 0.226957 0.500000
vt 0.331251 0.628148
vt 0.580905 0.524445
vt 0.500000 0.609009
vt 0.500000 0.371852
vt 0.677432 0.390990
vt 0.622985 0.500000
vt 0.668749 0.628148
vt 0.500000 0.390991
vt 0.419095 0.476516
vt 0.415068 0.523788
vt 0.500000 0.628148
vt 0.377015 0.500000
vt 0.322568 0.609010
vt 0.331251 0.371852
vt 0.677432 0.609010
vt 0.773043 0.500000
vt 0.668749 0.371852
vt 0.280247 0.406531
vt 0.291001 0.609879
vt 0.500000 0.593468
vt 0.500000 0.390121
vt 0.719753 0.406531
vt 0.708999 0.609879
vt 0.394973 0.406531
vt 0.400110 0.609879
vt 0.605027 0.593469
vt 0.599890 0.390121
vt 0.761512 0.609879
vt 0.774971 0.406531
vt 0.500000 0.406532
vt 0.500000 0.609879
vt 0.280247 0.593469
vt 0.291001 0.390121
vt 0.225029 0.593469
vt 0.238488 0.390121
vt 0.288618 0.474753
vt 0.280329 0.525750
vt 0.719753 0.593469
vt 0.708999 0.390121
vt 0.164607 0.500000
s 1
f 1/1/1 14/2/2 13/3/3
f 2/4/4 14/2/2 16/5/5
f 1/1/1 13/3/3 18/6/6
f 1/1/1 18/6/6 20/7/7
f 1/1/1 20/7/7 17/8/8
f 3/9/9 15/10/10 23/1/11
f 5/9/12 21/11/13 26/12/14
f 6/13/15 22/14/16 27/15/17
f 3/9/9 23/1/11 25/12/18
f 5/9/12 26/12/14 28/1/19
f 7/16/20 29/17/21 34/18/22
f 8/19/23 30/20/24 36/21/25
f 9/22/26 31/23/27 37/24/28
f 10/25/29 32/26/30 38/27/31
f 11/28/32 33/29/33 35/30/34
f 35/30/34 38/27/31 12/1/35
f 35/30/34 33/29/33 38/27/31
f 33/29/33 10/25/29 38/27/31
f 38/27/31 37/24/28 12/1/35
f 38/27/31 32/26/30 37/24/28
f 32/26/30 9/22/26 37/24/28
f 37/24/28 36/21/25 12/1/35
f 37/24/28 31/23/27 36/21/25
f 31/23/27 8/19/23 36/21/25
f 36/21/25 34/18/22 12/1/35
f 36/21/25 30/20/24 34/18/22
f 30/20/24 7/16/20 34/18/22
f 34/18/22 35/30/34 12/1/35
f 34/18/22 29/17/21 35/30/34
f 29/17/21 11/28/32 35/30/34
f 27/15/17 10/31/29 33/32/33
f 28/1/19 32/33/30 10/31/29
f 28/1/19 26/12/14 32/33/30
f 26/12/14 9/34/26 32/33/30
f 25/12/18 30/35/24 8/34/23
f 25/12/18 23/1/11 30/35/24
f 23/1/11 7/31/20 30/35/24
f 24/15/36 29/32/21 7/31/20
f 27/15/17 28/1/19 10/31/29
f 27/15/17 22/14/16 28/1/19
f 22/14/16 5/9/12 28/1/19
f 19/11/37 3/9/9 25/12/18
f 23/1/11 24/15/36 7/31/20
f 23/1/11 15/10/10 24/15/36
f 15/10/10 2/13/4 24/15/36
f 17/8/8 22/36/16 6/37/15
f 17/8/8 20/7/7 22/36/16
f 20/7/7 5/38/12 22/36/16
f 20/7/7 21/39/13 5/38/12
f 20/7/7 18/6/6 21/39/13
f 18/6/6 4/40/38 21/39/13
f 18/6/6 19/41/37 4/40/38
f 18/6/6 13/3/3 19/41/37
f 13/3/3 3/42/9 19/41/37
f 16/5/5 17/8/8 6/37/15
f 16/5/5 14/2/2 17/8/8
f 14/2/2 1/1/1 17/8/8
f 13/3/3 15/43/10 3/42/9
f 13/3/3 14/2/2 15/43/10
f 14/2/2 2/4/4 15/43/10
f 39/1/39 52/44/40 51/45/41
f 40/46/42 52/44/40 54/47/43
f 39/1/39 51/45/41 56/48/44
f 39/1/39 56/48/44 58/49/45
f 39/1/39 58/49/45 55/50/46
f 41/51/47 53/52/48 61/1/11
f 43/51/49 59/53/50 64/54/51
f 44/55/52 60/52/53 65/56/54
f 41/51/47 61/1/11 63/54/55
f 43/51/49 64/54/51 66/1/19
f 45/57/56 67/58/57 72/59/58
f 46/60/59 68/61/60 74/62/61
f 47/63/62 69/64/63 75/65/64
f 48/66/65 70/67/66 76/68/67
f 49/69/68 71/70/69 73/71/70
f 73/71/70 76/68/67 50/1/71
f 73/71/70 71/70/69 76/68/67
f 71/70/69 48/66/65 76/68/67
f 76/68/67 75/65/64 50/1/71
f 76/68/67 70/67/66 75/65/64
f 70/67/66 47/63/62 75/65/64
f 75/65/64 74/62/61 50/1/71
f 75/65/64 69/64/63 74/62/61
f 69/64/63 46/60/59 74/62/61
f 74/62/61 72/59/58 50/1/71
f 74/62/61 68/61/60 72/59/58
f 68/61/60 45/57/56 72/59/58
f 72/59/58 73/71/70 50/1/71
f 72/59/58 67/58/57 73/71/70
f 67/58/57 49/69/68 73/71/70
f 65/56/54 48/72/65 71/73/69
f 66/1/19 70/74/66 48/72/65
f 66/1/19 64/54/51 70/74/66
f 64/54/51 47/75/62 70/74/66
f 63/54/55 68/74/60 46/75/59
f 63/54/55 61/1/11 68/74/60
f 61/1/11 45/72/56 68/74/60
f 62/56/72 67/73/57 45/72/56
f 65/56/54 66/1/19 48/72/65
f 65/56/54 60/52/53 66/1/19
f 60/52/53 43/51/49 66/1/19
f 57/53/73 41/51/47 63/54/55
f 61/1/11 62/56/72 45/72/56
f 61/1/11 53/52/48 62/56/72
f 53/52/48 40/55/42 62/56/72
f 55/50/46 60/76/53 44/77/52
f 55/50/46 58/49/45 60/76/53
f 58/49/45 43/78/49 60/76/53
f 58/49/45 59/79/50 43/78/49
f 58/49/45 56/48/44 59/79/50
f 56/48/44 42/80/74 59/79/50
f 56/48/44 57/81/73 42/80/74
f 56/48/44 51/45/41 57/81/73
f 51/45/41 41/82/47 57/81/73
f 54/47/43 55/50/46 44/77/52
f 54/47/43 52/44/40 55/50/46
f 52/44/40 39/1/39 55/50/46
f 51/45/41 53/83/48 41/82/47
f 51/45/41 52/44/40 53/83/48
f 52/44/40 40/46/42 53/83/48
f 77/1/75 90/84/76 89/85/77
f 78/86/78 90/84/76 92/87/79
f 77/1/75 89/85/77 94/88/80
f 77/1/75 94/88/80 96/89/81
f 77/1/75 96/89/81 93/90/82
f 83/91/83 99/92/84 104/93/85
f 84/94/86 100/95/87 106/96/88
f 85/97/89 101/98/90 107/99/91
f 86/100/92 102/101/93 108/102/94
f 87/103/95 103/104/96 105/105/97
f 105/105/97 108/102/94 88/1/98
f 105/105/97 103/104/96 108/102/94
f 103/104/96 86/100/92 108/102/94
f 108/102/94 107/99/91 88/1/98
f 108/102/94 102/101/93 107/99/91
f 102/101/93 85/97/89 107/99/91
f 107/99/91 106/96/88 88/1/98
f 107/99/91 101/98/90 106/96/88
f 101/98/90 84/94/86 106/96/88
f 106/96/88 104/93/85 88/1/98
f 106/96/88 100/95/87 104/93/85
f 100/95/87 83/91/83 104/93/85
f 104/93/85 105/105/97 88/1/98
f 104/93/85 99/92/84 105/105/97
f 99/92/84 87/103/95 105/105/97
f 93/90/82 98/106/99 82/107/100
f 93/90/82 96/89/81 98/106/99
f 96/89/81 81/108/101 98/106/99
f 96/89/81 97/109/102 81/108/101
f 96/89/81 94/88/80 97/109/102
f 94/88/80 80/110/103 97/109/102
f 94/88/80 95/111/104 80/110/103
f 94/88/80 89/85/77 95/111/104
f 89/85/77 79/112/105 95/111/104
f 92/87/79 93/90/82 82/107/100
f 92/87/79 90/84/76 93/90/82
f 90/84/76 77/1/75 93/90/82
f 89/85/77 91/113/106 79/112/105
f 89/85/77 90/84/76 91/113/106
f 90/84/76 78/86/78 91/113/106
f 114/114/107 111/115/108 113/116/109
f 120/117/110 117/118/111 119/119/112
f 126/120/113 123/121/114 125/122/115
f 132/123/116 129/124/117 131/125/118
f 138/126/119 135/127/120 137/128/121
f 144/129/122 141/130/123 143/131/124
f 150/132/125 147/133/126 149/134/127
f 156/135/128 153/136/129 155/137/130
f 127/138/131 126/120/113 132/123/116
f 126/120/113 128/139/132 132/123/116
f 116/140/133 114/114/107 109/141/134
f 120/117/110 110/142/135 114/114/107
f 151/143/136 150/132/125 156/135/128
f 150/132/125 152/144/137 156/135/128
f 140/145/138 138/126/119 133/146/139
f 144/129/122 134/147/140 138/126/119
f 181/148/141 162/149/142 161/150/143
f 162/149/142 182/151/144 160/152/145
f 185/153/146 177/154/147 186/1/148
f 177/154/147 184/155/149 186/1/148
f 169/156/150 180/149/151 179/157/152
f 171/158/153 178/159/154 180/149/151
f 163/160/155 174/161/156 173/162/157
f 174/161/156 164/155/158 172/163/159
f 167/164/160 159/165/161 168/166/162
f 159/165/161 166/167/163 168/166/162
f 185/153/146 183/168/164 181/169/141
f 183/168/164 184/155/149 182/170/144
f 175/171/165 180/149/151 177/172/166
f 180/149/151 176/173/167 177/172/166
f 173/174/157 171/158/153 169/156/150
f 171/158/153 172/175/159 170/176/168
f 163/160/155 168/168/169 165/1/170
f 168/168/169 164/155/158 165/1/170
f 161/150/143 159/165/161 157/177/171
f 162/149/142 158/178/172 159/165/161
f 2/179/4 112/180/173 24/181/36
f 112/180/173 29/182/21 24/181/36
f 110/142/135 115/183/174 11/184/32
f 109/141/134 16/185/5 116/140/133
f 2/179/4 109/141/134 113/116/109
f 110/142/135 29/182/21 111/115/108
f 6/186/15 118/187/175 117/118/111
f 115/183/174 33/188/33 11/184/32
f 118/187/175 33/188/33 119/119/112
f 6/186/15 116/140/133 16/185/5
f 4/189/38 122/190/176 127/138/131
f 128/139/132 121/191/177 31/192/27
f 124/180/178 8/193/23 125/122/115
f 124/180/178 19/194/37 25/181/18
f 19/194/37 122/190/176 4/189/38
f 121/191/177 8/193/23 31/192/27
f 130/187/179 9/195/26 26/196/14
f 128/139/132 9/195/26 129/124/117
f 21/197/13 130/187/179 26/196/14
f 21/197/13 127/138/131 131/125/118
f 40/198/42 136/199/180 62/200/72
f 136/199/180 67/201/57 62/200/72
f 134/147/140 139/202/181 49/203/68
f 133/146/139 54/204/43 140/145/138
f 40/198/42 133/146/139 137/128/121
f 134/147/140 67/201/57 135/127/120
f 44/205/52 142/206/182 141/130/123
f 139/202/181 71/207/69 49/203/68
f 142/206/182 71/207/69 143/131/124
f 44/205/52 140/145/138 54/204/43
f 42/208/74 146/209/183 151/143/136
f 152/144/137 145/210/184 69/211/63
f 148/212/185 46/213/59 149/134/127
f 148/212/185 57/214/73 63/200/55
f 57/214/73 146/209/183 42/208/74
f 145/210/184 46/213/59 69/211/63
f 154/206/186 47/215/62 64/216/51
f 152/144/137 47/215/62 153/136/129
f 59/217/50 154/206/186 64/216/51
f 59/217/50 151/143/136 155/137/130
f 78/218/78 157/177/171 167/164/160
f 166/167/163 158/178/172 99/219/84
f 158/178/172 160/152/145 87/220/95
f 157/177/171 92/221/79 161/150/143
f 78/218/78 92/221/79 157/177/171
f 158/178/172 87/220/95 99/219/84
f 82/222/100 181/148/141 161/150/143
f 160/152/145 103/223/96 87/220/95
f 160/152/145 182/151/144 103/223/96
f 92/221/79 82/222/100 161/150/143
f 79/224/105 163/160/155 173/162/157
f 172/163/159 164/155/158 100/225/87
f 164/155/158 166/170/163 83/226/83
f 163/160/155 91/227/106 167/169/160
f 79/224/105 91/227/106 163/160/155
f 164/155/158 83/226/83 100/225/87
f 166/170/163 99/228/84 83/226/83
f 91/227/106 78/229/78 167/169/160
f 80/230/103 169/156/150 179/157/152
f 178/159/154 170/176/168 101/231/90
f 170/176/168 172/175/159 84/232/86
f 169/156/150 95/233/104 173/174/157
f 80/230/103 95/233/104 169/156/150
f 170/176/168 84/232/86 101/231/90
f 172/163/159 100/225/87 84/234/86
f 95/235/104 79/224/105 173/162/157
f 81/224/101 175/236/165 185/153/146
f 184/155/149 176/237/167 102/225/93
f 176/173/167 178/159/154 85/238/89
f 175/171/165 97/239/102 179/157/152
f 81/224/101 97/235/102 175/236/165
f 176/237/167 85/234/89 102/225/93
f 178/159/154 101/231/90 85/238/89
f 97/239/102 80/230/103 179/157/152
f 182/170/144 184/155/149 86/226/92
f 181/169/141 98/227/99 185/153/146
f 82/229/100 98/227/99 181/169/141
f 182/170/144 86/226/92 103/228/96
f 184/155/149 102/225/93 86/226/92
f 98/227/99 81/224/101 185/153/146
f 113/116/109 109/141/134 114/114/107
f 114/114/107 110/142/135 111/115/108
f 111/115/108 112/180/173 113/116/109
f 119/119/112 115/183/174 120/117/110
f 120/117/110 116/140/133 117/118/111
f 117/118/111 118/187/175 119/119/112
f 125/122/115 121/191/177 126/120/113
f 126/120/113 122/190/176 123/121/114
f 123/121/114 124/180/178 125/122/115
f 131/125/118 127/138/131 132/123/116
f 132/123/116 128/139/132 129/124/117
f 129/124/117 130/187/179 131/125/118
f 137/128/121 133/146/139 138/126/119
f 138/126/119 134/147/140 135/127/120
f 135/127/120 136/199/180 137/128/121
f 143/131/124 139/202/181 144/129/122
f 144/129/122 140/145/138 141/130/123
f 141/130/123 142/206/182 143/131/124
f 149/134/127 145/210/184 150/132/125
f 150/132/125 146/209/183 147/133/126
f 147/133/126 148/212/185 149/134/127
f 155/137/130 151/143/136 156/135/128
f 156/135/128 152/144/137 153/136/129
f 153/136/129 154/206/186 155/137/130
f 127/138/131 122/190/176 126/120/113
f 126/120/113 121/191/177 128/139/132
f 116/140/133 120/117/110 114/114/107
f 120/117/110 115/183/174 110/142/135
f 151/143/136 146/209/183 150/132/125
f 150/132/125 145/210/184 152/144/137
f 140/145/138 144/129/122 138/126/119
f 144/129/122 139/202/181 134/147/140
f 181/148/141 183/172/187 162/149/142
f 162/149/142 183/172/187 182/151/144
f 185/153/146 175/236/165 177/154/147
f 177/154/147 176/237/167 184/155/149
f 169/156/150 171/158/153 180/149/151
f 171/158/153 170/176/168 178/159/154
f 163/160/155 165/1/188 174/161/156
f 174/161/156 165/1/188 164/155/158
f 167/164/160 157/177/171 159/165/161
f 159/165/161 158/178/172 166/167/163
f 185/153/146 186/1/189 183/168/164
f 183/168/164 186/1/189 184/155/149
f 175/171/165 179/157/152 180/149/151
f 180/149/151 178/159/154 176/173/167
f 173/174/157 174/240/190 171/158/153
f 171/158/153 174/240/190 172/175/159
f 163/160/155 167/169/160 168/168/169
f 168/168/169 166/170/163 164/155/158
f 161/150/143 162/149/142 159/165/161
f 162/149/142 160/152/145 158/178/172
f 2/179/4 113/116/109 112/180/173
f 112/180/173 111/115/108 29/182/21
f 2/179/4 16/185/5 109/141/134
f 110/142/135 11/184/32 29/182/21
f 6/186/15 27/196/17 118/187/175
f 115/183/174 119/119/112 33/188/33
f 118/187/175 27/196/17 33/188/33
f 6/186/15 117/118/111 116/140/133
f 124/180/178 25/181/18 8/193/23
f 124/180/178 123/121/114 19/194/37
f 19/194/37 123/121/114 122/190/176
f 121/191/177 125/122/115 8/193/23
f 130/187/179 129/124/117 9/195/26
f 128/139/132 31/192/27 9/195/26
f 21/197/13 131/125/118 130/187/179
f 21/197/13 4/189/38 127/138/131
f 40/198/42 137/128/121 136/199/180
f 136/199/180 135/127/120 67/201/57
f 40/198/42 54/204/43 133/146/139
f 134/147/140 49/203/68 67/201/57
f 44/205/52 65/216/54 142/206/182
f 139/202/181 143/131/124 71/207/69
f 142/206/182 65/216/54 71/207/69
f 44/205/52 141/130/123 140/145/138
f 148/212/185 63/200/55 46/213/59
f 148/212/185 147/133/126 57/214/73
f 57/214/73 147/133/126 146/209/183
f 145/210/184 149/134/127 46/213/59
f 154/206/186 153/136/129 47/215/62
f 152/144/137 69/211/63 47/215/62
f 59/217/50 155/137/130 154/206/186
f 59/217/50 42/208/74 151/143/136
