# Blender 5.2.0 LTS
# www.blender.org
o resource_gold
v 0.000000 -0.405000 0.000000
v 0.390748 -0.181124 0.236576
v -0.149250 -0.181124 0.382792
v -0.482990 -0.181122 0.000000
v -0.149250 -0.181124 -0.382792
v 0.390748 -0.181124 -0.236576
v 0.149250 0.181124 0.382792
v -0.390748 0.181124 0.236576
v -0.390748 0.181124 -0.236576
v 0.149250 0.181124 -0.382792
v 0.482990 0.181122 0.000000
v 0.000000 0.405000 0.000000
v -0.087726 -0.344515 0.224998
v 0.229674 -0.344515 0.139055
v 0.141949 -0.212924 0.364055
v 0.459350 -0.212923 0.000000
v 0.229674 -0.344515 -0.139055
v -0.283894 -0.344514 0.000000
v -0.371622 -0.212923 0.224999
v -0.087726 -0.344515 -0.224998
v -0.371622 -0.212923 -0.224999
v 0.141949 -0.212924 -0.364055
v 0.513571 0.000000 0.139056
v 0.513571 0.000000 -0.139056
v 0.000000 0.000000 0.450000
v 0.317404 0.000000 0.364058
v -0.513571 0.000000 0.139056
v -0.317404 0.000000 0.364058
v -0.317404 0.000000 -0.364058
v -0.513571 0.000000 -0.139056
v 0.317404 0.000000 -0.364058
v 0.000000 0.000000 -0.450000
v 0.371622 0.212923 0.224999
v -0.141949 0.212924 0.364055
v -0.459350 0.212923 0.000000
v -0.141949 0.212924 -0.364055
v 0.371622 0.212923 -0.224999
v 0.087726 0.344515 0.224998
v 0.283894 0.344514 0.000000
v -0.229674 0.344515 0.139055
v -0.229674 0.344515 -0.139055
v 0.087726 0.344515 -0.224998
v 0.677936 0.378626 -0.058054
v 0.362938 0.378626 0.029675
v 0.362938 0.378626 -0.429675
v 0.677936 0.378626 -0.341946
v 0.537062 0.821374 0.029675
v 0.222064 0.821374 -0.058054
v 0.222064 0.821374 -0.341946
v 0.537062 0.821374 -0.429675
v 0.532804 0.339760 0.018433
v 0.717954 0.339761 -0.200000
v 0.233220 0.339761 -0.065001
v 0.233220 0.339761 -0.334999
v 0.532804 0.339760 -0.418433
v 0.749583 0.600000 -0.116567
v 0.749583 0.600000 -0.283433
v 0.450000 0.600000 0.070000
v 0.635152 0.600000 0.018435
v 0.150417 0.600000 -0.116567
v 0.264848 0.600000 0.018435
v 0.264848 0.600000 -0.418435
v 0.150417 0.600000 -0.283433
v 0.635152 0.600000 -0.418435
v 0.450000 0.600000 -0.470000
v 0.666780 0.860239 -0.065001
v 0.367196 0.860240 0.018433
v 0.182046 0.860239 -0.200000
v 0.367196 0.860240 -0.418433
v 0.666780 0.860239 -0.334999
v -0.220907 0.268876 0.268288
v -0.468406 0.268876 0.341396
v -0.621370 0.268878 0.150000
v -0.468406 0.268876 -0.041396
v -0.220907 0.268876 0.031712
v -0.331594 0.631124 0.341396
v -0.579093 0.631124 0.268288
v -0.579093 0.631124 0.031712
v -0.331594 0.631124 -0.041396
v -0.178630 0.631122 0.150000
v -0.334940 0.237076 0.332028
v -0.189465 0.237077 0.150000
v -0.570327 0.237077 0.262499
v -0.570327 0.237077 0.037501
v -0.334940 0.237076 -0.032028
v -0.164613 0.450000 0.219528
v -0.164613 0.450000 0.080472
v -0.400000 0.450000 0.375000
v -0.254523 0.450000 0.332029
v -0.635387 0.450000 0.219528
v -0.545477 0.450000 0.332029
v -0.545477 0.450000 -0.032029
v -0.635387 0.450000 0.080472
v -0.254523 0.450000 -0.032029
v -0.400000 0.450000 -0.075000
v -0.229673 0.662923 0.262499
v -0.465060 0.662924 0.332028
v -0.610535 0.662923 0.150000
v -0.465060 0.662924 -0.032028
v -0.229673 0.662923 0.037501
v 0.230249 1.109126 0.032802
v 0.050250 1.109126 0.083977
v 0.050250 1.109126 -0.183977
v 0.230249 1.109126 -0.132802
v 0.149750 1.390874 0.083977
v -0.030249 1.390874 0.032802
v -0.030249 1.390874 -0.132802
v 0.149750 1.390874 -0.183977
v 0.147316 1.084393 0.077419
v 0.253117 1.084393 -0.050000
v -0.023874 1.084393 0.028750
v -0.023874 1.084393 -0.128750
v 0.147316 1.084393 -0.177419
v 0.271190 1.250000 -0.001331
v 0.271190 1.250000 -0.098669
v 0.100000 1.250000 0.107500
v 0.205801 1.250000 0.077420
v -0.071190 1.250000 -0.001331
v -0.005801 1.250000 0.077420
v -0.005801 1.250000 -0.177420
v -0.071190 1.250000 -0.098669
v 0.205801 1.250000 -0.177420
v 0.100000 1.250000 -0.207500
v 0.223874 1.415607 0.028750
v 0.052684 1.415607 0.077419
v -0.053117 1.415607 -0.050000
v 0.052684 1.415607 -0.177419
v 0.223874 1.415607 -0.128750
v -0.018594 1.609438 -0.097953
v -0.131094 1.609438 -0.065786
v -0.131094 1.609438 -0.234214
v -0.018594 1.609438 -0.202047
v -0.068906 1.790562 -0.065786
v -0.181406 1.790562 -0.097953
v -0.181406 1.790562 -0.202047
v -0.068906 1.790562 -0.234214
v -0.070427 1.593538 -0.069908
v -0.004302 1.593539 -0.150000
v -0.177421 1.593539 -0.100500
v -0.177421 1.593539 -0.199500
v -0.070427 1.593538 -0.230092
v 0.006994 1.700000 -0.119408
v 0.006994 1.700000 -0.180592
v -0.100000 1.700000 -0.051000
v -0.033874 1.700000 -0.069907
v -0.206994 1.700000 -0.119408
v -0.166126 1.700000 -0.069907
v -0.166126 1.700000 -0.230093
v -0.206994 1.700000 -0.180592
v -0.033874 1.700000 -0.230093
v -0.100000 1.700000 -0.249000
v -0.022579 1.806462 -0.100500
v -0.129573 1.806462 -0.069908
v -0.195698 1.806462 -0.150000
v -0.129573 1.806462 -0.230092
v -0.022579 1.806462 -0.199500
v 0.459673 0.123781 -0.172018
v 0.422095 0.124610 -0.181097
v 0.422095 0.124610 -0.218903
v 0.459673 0.123781 -0.227982
v 0.486580 0.125184 -0.200000
v 0.177545 0.373071 -0.219303
v 0.177545 0.373071 -0.180698
v 0.166752 0.397290 -0.192966
v 0.166752 0.397290 -0.207034
v 0.722455 0.826929 -0.219303
v 0.722455 0.826929 -0.180698
v 0.733248 0.802710 -0.192966
v 0.733248 0.802710 -0.207034
v 0.477905 1.075390 -0.218903
v 0.440327 1.076219 -0.227982
v 0.413420 1.074816 -0.200000
v 0.440327 1.076219 -0.172018
v 0.477905 1.075390 -0.181097
v 0.384496 0.178926 -0.081908
v 0.421501 0.178926 -0.071316
v 0.410718 0.193201 -0.057596
v 0.395621 0.196764 -0.056544
v 0.384479 0.192860 -0.065001
v 0.559613 0.178926 -0.109781
v 0.583977 0.178926 -0.139347
v 0.595868 0.193201 -0.123972
v 0.592207 0.196419 -0.111442
v 0.579241 0.193809 -0.104074
v 0.583977 0.178926 -0.260653
v 0.559613 0.178926 -0.290219
v 0.579241 0.193809 -0.295926
v 0.592207 0.196419 -0.288558
v 0.595868 0.193201 -0.276028
v 0.289636 0.187694 -0.183168
v 0.289636 0.187694 -0.216833
v 0.421501 0.178926 -0.328684
v 0.384496 0.178926 -0.318092
v 0.384479 0.192860 -0.334999
v 0.395621 0.196764 -0.343456
v 0.410718 0.193201 -0.342404
v 0.515504 1.021074 -0.081908
v 0.478499 1.021074 -0.071316
v 0.489282 1.006799 -0.057596
v 0.504379 1.003236 -0.056544
v 0.515521 1.007140 -0.065001
v 0.610364 1.012305 -0.183167
v 0.610364 1.012305 -0.216833
v 0.340387 1.021074 -0.109781
v 0.316023 1.021074 -0.139347
v 0.304132 1.006799 -0.123972
v 0.307793 1.003581 -0.111442
v 0.320759 1.006191 -0.104074
v 0.316023 1.021074 -0.260653
v 0.340387 1.021074 -0.290219
v 0.320759 1.006191 -0.295926
v 0.307793 1.003581 -0.288558
v 0.304132 1.006799 -0.276028
v 0.478499 1.021074 -0.328684
v 0.515504 1.021074 -0.318092
v 0.515521 1.007140 -0.334999
v 0.504379 1.003236 -0.343456
v 0.489282 1.006799 -0.342404
v -0.390193 0.064173 0.179000
v -0.427232 0.064700 0.168953
v -0.427232 0.064700 0.131047
v -0.390193 0.064173 0.121000
v -0.365105 0.065050 0.150000
v -0.372768 0.835300 0.131047
v -0.409807 0.835827 0.121000
v -0.434895 0.834950 0.150000
v -0.409807 0.835827 0.179000
v -0.372768 0.835300 0.168953
v -0.454344 0.105485 0.244811
v -0.417656 0.105485 0.255837
v -0.428659 0.119922 0.270127
v -0.443279 0.123282 0.271092
v -0.454270 0.119706 0.262499
v -0.318295 0.105485 0.226488
v -0.294733 0.105485 0.196480
v -0.283184 0.119922 0.211900
v -0.286786 0.123072 0.224776
v -0.299257 0.120293 0.232187
v -0.294733 0.105485 0.103520
v -0.318295 0.105485 0.073512
v -0.299257 0.120293 0.067813
v -0.286786 0.123072 0.075224
v -0.283184 0.119922 0.088100
v -0.514970 0.105486 0.131047
v -0.514970 0.105486 0.168953
v -0.534643 0.120294 0.162659
v -0.539870 0.122947 0.150000
v -0.534643 0.120294 0.137341
v -0.417656 0.105485 0.044163
v -0.454344 0.105485 0.055189
v -0.454270 0.119706 0.037501
v -0.443279 0.123282 0.028908
v -0.428659 0.119922 0.029873
v -0.345656 0.794515 0.244811
v -0.382344 0.794515 0.255837
v -0.371341 0.780078 0.270127
v -0.356721 0.776718 0.271092
v -0.345730 0.780294 0.262499
v -0.285030 0.794514 0.131047
v -0.285030 0.794514 0.168953
v -0.265357 0.779706 0.162659
v -0.260130 0.777053 0.150000
v -0.265357 0.779706 0.137341
v -0.481705 0.794515 0.226488
v -0.505267 0.794515 0.196480
v -0.516816 0.780078 0.211900
v -0.513214 0.776928 0.224776
v -0.500743 0.779707 0.232187
v -0.505267 0.794515 0.103520
v -0.481705 0.794515 0.073512
v -0.500743 0.779707 0.067813
v -0.513214 0.776928 0.075224
v -0.516816 0.780078 0.088100
v -0.382344 0.794515 0.044163
v -0.345656 0.794515 0.055189
v -0.345730 0.780294 0.037501
v -0.356721 0.776718 0.028908
v -0.371341 0.780078 0.029873
v 0.109662 0.955583 -0.021930
v 0.072496 0.956417 -0.031240
v 0.072496 0.956417 -0.068760
v 0.109662 0.955583 -0.078070
v 0.135779 0.956986 -0.050000
v -0.051900 1.103066 -0.069297
v -0.051900 1.103066 -0.030703
v -0.062361 1.127987 -0.043484
v -0.062361 1.127987 -0.056516
v 0.251900 1.396934 -0.069297
v 0.251900 1.396934 -0.030703
v 0.262361 1.372013 -0.043484
v 0.262361 1.372013 -0.056516
v 0.127504 1.543583 -0.068759
v 0.090338 1.544417 -0.078070
v 0.064221 1.543014 -0.050000
v 0.090338 1.544417 -0.021930
v 0.127504 1.543583 -0.031241
v 0.056567 0.982044 0.011659
v 0.093214 0.982044 0.022365
v 0.081953 0.997011 0.035866
v 0.067830 1.000189 0.036635
v 0.057180 0.996729 0.028749
v 0.152724 0.982044 0.005446
v 0.176558 0.982044 -0.024076
v 0.187754 0.997011 -0.008448
v 0.184114 0.999928 0.003473
v 0.172141 0.997504 0.010564
v 0.176558 0.982044 -0.075924
v 0.152724 0.982044 -0.105446
v 0.172141 0.997504 -0.110564
v 0.184114 0.999928 -0.103473
v 0.187754 0.997011 -0.091552
v 0.010772 0.991160 -0.033342
v 0.010772 0.991160 -0.066658
v 0.093214 0.982044 -0.122365
v 0.056567 0.982044 -0.111659
v 0.057180 0.996729 -0.128749
v 0.067830 1.000189 -0.136635
v 0.081953 0.997011 -0.135866
v 0.143433 1.517956 0.011659
v 0.106786 1.517956 0.022365
v 0.118047 1.502989 0.035866
v 0.132170 1.499811 0.036635
v 0.142820 1.503271 0.028749
v 0.189228 1.508840 -0.033342
v 0.189228 1.508840 -0.066658
v 0.047276 1.517956 0.005446
v 0.023442 1.517956 -0.024076
v 0.012246 1.502989 -0.008448
v 0.015886 1.500072 0.003473
v 0.027859 1.502496 0.010564
v 0.023442 1.517956 -0.075924
v 0.047276 1.517956 -0.105446
v 0.027859 1.502496 -0.110564
v 0.015886 1.500072 -0.103473
v 0.012246 1.502989 -0.091552
v 0.106786 1.517956 -0.122365
v 0.143433 1.517956 -0.111659
v 0.142820 1.503271 -0.128749
v 0.132170 1.499811 -0.136635
v 0.118047 1.502989 -0.135866
v -0.090342 1.518580 -0.121901
v -0.127392 1.519410 -0.131279
v -0.127392 1.519410 -0.168721
v -0.090342 1.518580 -0.178099
v -0.064442 1.519974 -0.150000
v -0.191578 1.603240 -0.169296
v -0.191578 1.603240 -0.130704
v -0.201953 1.628345 -0.143613
v -0.201953 1.628345 -0.156387
v -0.008422 1.796760 -0.169296
v -0.008422 1.796760 -0.130704
v 0.001953 1.771655 -0.143613
v 0.001953 1.771655 -0.156387
v -0.072608 1.880590 -0.168721
v -0.109658 1.881420 -0.178099
v -0.135558 1.880026 -0.150000
v -0.109658 1.881420 -0.121901
v -0.072608 1.880590 -0.131279
v -0.132428 1.527743 -0.117641
v -0.095880 1.527743 -0.106904
v -0.107266 1.542882 -0.093461
v -0.121135 1.545961 -0.092759
v -0.131647 1.542616 -0.100500
v -0.075846 1.527743 -0.112633
v -0.052151 1.527743 -0.142142
v -0.041141 1.542883 -0.126447
v -0.044767 1.545720 -0.114687
v -0.056485 1.543345 -0.107670
v -0.052151 1.527743 -0.157858
v -0.075846 1.527743 -0.187367
v -0.056485 1.543345 -0.192330
v -0.044767 1.545720 -0.185313
v -0.041141 1.542883 -0.173553
v -0.153701 1.536949 -0.133383
v -0.153701 1.536949 -0.166617
v -0.095880 1.527743 -0.193096
v -0.132428 1.527743 -0.182360
v -0.131647 1.542616 -0.199500
v -0.121135 1.545961 -0.207241
v -0.107266 1.542882 -0.206539
v -0.067572 1.872257 -0.117641
v -0.104120 1.872257 -0.106904
v -0.092734 1.857118 -0.093461
v -0.078865 1.854039 -0.092759
v -0.068353 1.857384 -0.100500
v -0.046299 1.863051 -0.133383
v -0.046299 1.863051 -0.166617
v -0.124154 1.872257 -0.112633
v -0.147849 1.872257 -0.142142
v -0.158859 1.857118 -0.126447
v -0.155233 1.854280 -0.114687
v -0.143515 1.856655 -0.107670
v -0.147849 1.872257 -0.157858
v -0.124154 1.872258 -0.187367
v -0.143515 1.856655 -0.192330
v -0.155233 1.854280 -0.185313
v -0.158859 1.857118 -0.173553
v -0.104120 1.872258 -0.193096
v -0.067572 1.872257 -0.182360
v -0.068353 1.857384 -0.199500
v -0.078865 1.854039 -0.207241
v -0.092734 1.857118 -0.206539
vn 0.0004 -1.0000 -0.0000
vn 0.6577 -0.5105 0.5539
vn -0.2358 -0.4814 0.8442
vn -0.8481 -0.5299 -0.0000
vn -0.2358 -0.4814 -0.8442
vn 0.6577 -0.5105 -0.5539
vn 0.2358 0.4814 0.8442
vn -0.6577 0.5105 0.5539
vn -0.6577 0.5105 -0.5539
vn 0.2358 0.4814 -0.8442
vn 0.8481 0.5299 -0.0000
vn -0.0004 1.0000 -0.0000
vn -0.1314 -0.8728 0.4701
vn 0.3499 -0.8891 0.2950
vn 0.2221 -0.5604 0.7979
vn 0.7946 -0.6071 -0.0000
vn 0.3499 -0.8891 -0.2950
vn -0.4369 -0.8995 -0.0000
vn -0.6176 -0.5883 0.5219
vn -0.1314 -0.8728 -0.4701
vn -0.6176 -0.5883 -0.5219
vn 0.2221 -0.5604 -0.7979
vn 0.9372 -0.0017 0.3489
vn 0.9372 -0.0017 -0.3489
vn -0.0000 -0.0000 1.0000
vn 0.5325 0.0022 0.8464
vn -0.9372 0.0017 0.3489
vn -0.5325 -0.0022 0.8464
vn -0.5325 -0.0022 -0.8464
vn -0.9372 0.0017 -0.3489
vn 0.5325 0.0022 -0.8464
vn -0.0000 -0.0000 -1.0000
vn 0.6176 0.5883 0.5219
vn -0.2221 0.5604 0.7979
vn -0.7946 0.6071 -0.0000
vn -0.2221 0.5604 -0.7979
vn 0.6176 0.5883 -0.5219
vn 0.1314 0.8728 0.4701
vn 0.4369 0.8995 -0.0000
vn -0.3499 0.8891 0.2950
vn -0.3499 0.8891 -0.2950
vn 0.1314 0.8728 -0.4701
vn 0.7364 -0.3056 0.6036
vn -0.2642 -0.2859 0.9211
vn -0.2642 -0.2859 -0.9211
vn 0.7364 -0.3056 -0.6036
vn 0.2642 0.2859 0.9211
vn -0.7364 0.3056 0.6036
vn -0.7364 0.3056 -0.6036
vn 0.2642 0.2859 -0.9211
vn 0.2582 -0.3559 0.8982
vn 0.9185 -0.3955 -0.0000
vn -0.7175 -0.3828 0.5819
vn -0.7175 -0.3828 -0.5819
vn 0.2582 -0.3559 -0.8982
vn 0.9393 -0.0008 0.3430
vn 0.9393 -0.0008 -0.3430
vn 0.5409 0.0010 0.8411
vn -0.9393 0.0008 0.3430
vn -0.5409 -0.0010 0.8411
vn -0.5409 -0.0010 -0.8411
vn -0.9393 0.0008 -0.3430
vn 0.5409 0.0010 -0.8411
vn 0.7175 0.3828 0.5819
vn -0.2582 0.3559 0.8982
vn -0.9185 0.3955 -0.0000
vn -0.2582 0.3559 -0.8982
vn 0.7175 0.3828 -0.5819
vn 0.7508 -0.3011 0.5879
vn -0.2759 -0.2888 0.9167
vn -0.9510 -0.3092 -0.0000
vn -0.2759 -0.2888 -0.9167
vn 0.7508 -0.3011 -0.5879
vn 0.2759 0.2888 0.9167
vn -0.7508 0.3011 0.5879
vn -0.7508 0.3011 -0.5879
vn 0.2759 0.2888 -0.9167
vn 0.9510 0.3092 -0.0000
vn 0.2693 -0.3597 0.8934
vn 0.9233 -0.3840 -0.0000
vn -0.7305 -0.3744 0.5711
vn -0.7305 -0.3744 -0.5711
vn 0.2693 -0.3597 -0.8934
vn 0.9440 -0.0004 0.3300
vn 0.9440 -0.0004 -0.3300
vn 0.5589 0.0006 0.8292
vn -0.9440 0.0004 0.3300
vn -0.5589 -0.0006 0.8292
vn -0.5589 -0.0006 -0.8292
vn -0.9440 0.0004 -0.3300
vn 0.5589 0.0006 -0.8292
vn 0.7305 0.3744 0.5711
vn -0.2693 0.3597 0.8934
vn -0.9233 0.3840 -0.0000
vn -0.2693 0.3597 -0.8934
vn 0.7305 0.3744 -0.5711
vn 0.7471 -0.2805 0.6026
vn -0.2701 -0.2644 0.9258
vn -0.2701 -0.2644 -0.9258
vn 0.7471 -0.2805 -0.6026
vn 0.2701 0.2644 0.9258
vn -0.7471 0.2805 0.6026
vn -0.7471 0.2805 -0.6026
vn 0.2701 0.2644 -0.9258
vn 0.2647 -0.3325 0.9052
vn 0.9307 -0.3659 -0.0000
vn -0.7316 -0.3588 0.5797
vn -0.7316 -0.3588 -0.5797
vn 0.2647 -0.3325 -0.9052
vn 0.9410 -0.0006 0.3385
vn 0.9410 -0.0006 -0.3385
vn 0.5472 0.0008 0.8370
vn -0.9410 0.0006 0.3385
vn -0.5472 -0.0008 0.8370
vn -0.5472 -0.0008 -0.8370
vn -0.9410 0.0006 -0.3385
vn 0.5472 0.0008 -0.8370
vn 0.7316 0.3588 0.5797
vn -0.2647 0.3325 0.9052
vn -0.9307 0.3659 -0.0000
vn -0.2647 0.3325 -0.9052
vn 0.7316 0.3588 -0.5797
vn 0.7499 -0.2741 0.6021
vn -0.2717 -0.2590 0.9269
vn -0.2717 -0.2590 -0.9269
vn 0.7499 -0.2741 -0.6021
vn 0.2717 0.2590 0.9269
vn -0.7499 0.2741 0.6021
vn -0.7499 0.2741 -0.6021
vn 0.2717 0.2590 -0.9269
vn 0.2665 -0.3266 0.9068
vn 0.9336 -0.3583 -0.0000
vn -0.7365 -0.3569 0.5747
vn -0.7365 -0.3569 -0.5747
vn 0.2665 -0.3266 -0.9068
vn 0.9414 -0.0005 0.3372
vn 0.9414 -0.0005 -0.3372
vn 0.5489 0.0007 0.8359
vn -0.9414 0.0005 0.3372
vn -0.5489 -0.0007 0.8359
vn -0.5489 -0.0007 -0.8359
vn -0.9414 0.0005 -0.3372
vn 0.5489 0.0007 -0.8359
vn 0.7365 0.3569 0.5747
vn -0.2665 0.3266 0.9068
vn -0.9336 0.3583 -0.0000
vn -0.2665 0.3266 -0.9068
vn 0.7365 0.3569 -0.5747
vn 0.0727 -0.9633 0.2584
vn -0.2266 -0.9569 0.1816
vn -0.2317 -0.9554 -0.1831
vn 0.0773 -0.9597 -0.2700
vn 0.2813 -0.9596 0.0009
vn -0.9012 -0.3874 -0.1942
vn -0.9012 -0.3874 0.1942
vn -0.9603 -0.2407 0.1406
vn -0.9603 -0.2407 -0.1406
vn 0.9012 0.3874 -0.1942
vn 0.9012 0.3874 0.1942
vn 0.9603 0.2407 0.1406
vn 0.9603 0.2407 -0.1406
vn 0.2317 0.9554 -0.1831
vn -0.0769 0.9577 -0.2773
vn -0.2919 0.9565 -0.0000
vn -0.0769 0.9577 0.2773
vn 0.2317 0.9554 0.1831
vn -0.3680 -0.7867 0.4956
vn 0.0358 -0.7702 0.6368
vn 0.0100 -0.6068 0.7948
vn -0.2206 -0.5791 0.7848
vn -0.4106 -0.6374 0.6520
vn 0.3019 -0.7816 0.5459
vn 0.5672 -0.8085 0.1568
vn 0.7046 -0.6668 0.2429
vn 0.5924 -0.6236 0.5100
vn 0.4044 -0.6465 0.6469
vn 0.5680 -0.8082 -0.1557
vn 0.2965 -0.7832 -0.5465
vn 0.3968 -0.6219 -0.6751
vn 0.6024 -0.6177 -0.5056
vn 0.6935 -0.6759 -0.2494
vn -0.6561 -0.7282 0.1982
vn -0.6561 -0.7282 -0.1982
vn 0.0327 -0.7690 -0.6384
vn -0.3675 -0.7870 -0.4955
vn -0.4186 -0.6317 -0.6525
vn -0.2145 -0.5830 -0.7837
vn -0.0039 -0.6206 -0.7841
vn 0.3680 0.7867 0.4956
vn -0.0358 0.7702 0.6368
vn -0.0100 0.6068 0.7948
vn 0.2206 0.5791 0.7848
vn 0.4106 0.6374 0.6520
vn 0.6561 0.7282 0.1982
vn 0.6561 0.7282 -0.1982
vn -0.3019 0.7816 0.5459
vn -0.5672 0.8085 0.1568
vn -0.7046 0.6668 0.2429
vn -0.5925 0.6236 0.5100
vn -0.4044 0.6465 0.6469
vn -0.5680 0.8082 -0.1557
vn -0.2965 0.7832 -0.5465
vn -0.3968 0.6219 -0.6751
vn -0.6024 0.6177 -0.5055
vn -0.6935 0.6759 -0.2494
vn -0.0327 0.7690 -0.6384
vn 0.3675 0.7870 -0.4955
vn 0.4186 0.6317 -0.6525
vn 0.2145 0.5830 -0.7837
vn 0.0039 0.6206 -0.7841
vn 0.0791 -0.9608 0.2658
vn -0.2227 -0.9584 0.1783
vn -0.2261 -0.9575 -0.1793
vn 0.0817 -0.9587 -0.2723
vn 0.2848 -0.9586 0.0006
vn 0.2261 0.9575 -0.1793
vn -0.0815 0.9575 -0.2766
vn -0.2925 0.9563 -0.0000
vn -0.0815 0.9575 0.2766
vn 0.2261 0.9575 0.1793
vn -0.3783 -0.7843 0.4917
vn 0.0390 -0.7756 0.6300
vn 0.0137 -0.6152 0.7883
vn -0.2319 -0.5887 0.7744
vn -0.4267 -0.6404 0.6386
vn 0.3126 -0.7822 0.5389
vn 0.5808 -0.7994 0.1537
vn 0.7207 -0.6524 0.2345
vn 0.6117 -0.6165 0.4958
vn 0.4200 -0.6460 0.6374
vn 0.5816 -0.7987 -0.1540
vn 0.3082 -0.7837 -0.5392
vn 0.4133 -0.6249 -0.6624
vn 0.6199 -0.6128 -0.4901
vn 0.7072 -0.6641 -0.2427
vn -0.5521 -0.7970 -0.2450
vn -0.5496 -0.7982 0.2465
vn -0.7083 -0.6478 0.2805
vn -0.7761 -0.6306 -0.0056
vn -0.6988 -0.6671 -0.2580
vn 0.0363 -0.7744 -0.6316
vn -0.3782 -0.7850 -0.4907
vn -0.4393 -0.6311 -0.6393
vn -0.2248 -0.5910 -0.7747
vn -0.0009 -0.6298 -0.7768
vn 0.3783 0.7843 0.4917
vn -0.0390 0.7756 0.6300
vn -0.0137 0.6152 0.7883
vn 0.2319 0.5887 0.7744
vn 0.4267 0.6404 0.6386
vn 0.5521 0.7970 -0.2450
vn 0.5496 0.7982 0.2465
vn 0.7083 0.6478 0.2805
vn 0.7761 0.6306 -0.0056
vn 0.6988 0.6671 -0.2580
vn -0.3126 0.7822 0.5389
vn -0.5808 0.7994 0.1537
vn -0.7207 0.6524 0.2345
vn -0.6117 0.6165 0.4958
vn -0.4200 0.6460 0.6374
vn -0.5816 0.7987 -0.1540
vn -0.3082 0.7837 -0.5392
vn -0.4133 0.6249 -0.6624
vn -0.6199 0.6128 -0.4901
vn -0.7072 0.6641 -0.2427
vn -0.0363 0.7744 -0.6316
vn 0.3782 0.7850 -0.4907
vn 0.4393 0.6311 -0.6393
vn 0.2248 0.5910 -0.7747
vn 0.0009 0.6298 -0.7768
vn 0.0805 -0.9569 0.2791
vn -0.2583 -0.9468 0.1919
vn -0.2635 -0.9451 -0.1934
vn 0.0850 -0.9531 -0.2904
vn 0.3059 -0.9521 0.0009
vn -0.9120 -0.3624 -0.1921
vn -0.9120 -0.3624 0.1921
vn -0.9644 -0.2244 0.1399
vn -0.9644 -0.2244 -0.1399
vn 0.9120 0.3624 -0.1922
vn 0.9120 0.3624 0.1921
vn 0.9644 0.2244 0.1399
vn 0.9644 0.2244 -0.1399
vn 0.2635 0.9451 -0.1934
vn -0.0846 0.9509 -0.2976
vn -0.3170 0.9484 -0.0000
vn -0.0846 0.9509 0.2976
vn 0.2635 0.9451 0.1934
vn -0.3946 -0.7640 0.5104
vn 0.0383 -0.7468 0.6639
vn 0.0159 -0.5790 0.8152
vn -0.2303 -0.5583 0.7970
vn -0.4302 -0.6111 0.6644
vn 0.3210 -0.7574 0.5686
vn 0.6015 -0.7820 0.1629
vn 0.7356 -0.6321 0.2437
vn 0.6129 -0.5974 0.5171
vn 0.4200 -0.6198 0.6629
vn 0.6023 -0.7815 -0.1625
vn 0.3159 -0.7591 -0.5692
vn 0.4115 -0.5924 -0.6926
vn 0.6236 -0.5919 -0.5106
vn 0.7213 -0.6451 -0.2523
vn -0.6921 -0.6919 0.2056
vn -0.6921 -0.6919 -0.2056
vn 0.0351 -0.7454 -0.6657
vn -0.3944 -0.7646 -0.5097
vn -0.4429 -0.6013 -0.6650
vn -0.2220 -0.5619 -0.7969
vn -0.0009 -0.5967 -0.8025
vn 0.3946 0.7640 0.5104
vn -0.0383 0.7468 0.6639
vn -0.0159 0.5790 0.8152
vn 0.2303 0.5583 0.7970
vn 0.4302 0.6111 0.6644
vn 0.6921 0.6919 0.2056
vn 0.6921 0.6919 -0.2056
vn -0.3210 0.7574 0.5686
vn -0.6015 0.7820 0.1629
vn -0.7356 0.6321 0.2437
vn -0.6129 0.5974 0.5171
vn -0.4200 0.6198 0.6629
vn -0.6023 0.7815 -0.1625
vn -0.3159 0.7591 -0.5692
vn -0.4115 0.5924 -0.6926
vn -0.6236 0.5919 -0.5106
vn -0.7213 0.6451 -0.2523
vn -0.0351 0.7454 -0.6657
vn 0.3944 0.7646 -0.5097
vn 0.4429 0.6013 -0.6650
vn 0.2220 0.5619 -0.7969
vn 0.0009 0.5967 -0.8025
vn 0.0826 -0.9550 0.2848
vn -0.2913 -0.9375 0.1903
vn -0.2964 -0.9356 -0.1918
vn 0.0871 -0.9513 -0.2958
vn 0.3124 -0.9499 0.0010
vn -0.9120 -0.3634 -0.1904
vn -0.9120 -0.3634 0.1904
vn -0.9654 -0.2203 0.1397
vn -0.9654 -0.2203 -0.1397
vn 0.9120 0.3634 -0.1904
vn 0.9120 0.3634 0.1904
vn 0.9654 0.2203 0.1397
vn 0.9654 0.2203 -0.1397
vn 0.2964 0.9356 -0.1918
vn -0.0867 0.9490 -0.3030
vn -0.3237 0.9462 -0.0000
vn -0.0867 0.9490 0.3030
vn 0.2964 0.9356 0.1918
vn -0.4122 -0.7623 0.4989
vn 0.0389 -0.7406 0.6708
vn 0.0175 -0.5719 0.8201
vn -0.2329 -0.5532 0.7998
vn -0.4352 -0.6044 0.6673
vn 0.3260 -0.7509 0.5743
vn 0.6104 -0.7748 0.1645
vn 0.7433 -0.6230 0.2436
vn 0.6181 -0.5907 0.5186
vn 0.4240 -0.6130 0.6667
vn 0.6112 -0.7742 -0.1643
vn 0.3209 -0.7527 -0.5749
vn 0.4153 -0.5848 -0.6968
vn 0.6290 -0.5854 -0.5116
vn 0.7282 -0.6370 -0.2529
vn -0.7159 -0.6656 0.2108
vn -0.7159 -0.6656 -0.2108
vn 0.0358 -0.7392 -0.6726
vn -0.4120 -0.7630 -0.4981
vn -0.4492 -0.5934 -0.6679
vn -0.2239 -0.5567 -0.8000
vn -0.0001 -0.5906 -0.8070
vn 0.4122 0.7623 0.4989
vn -0.0389 0.7406 0.6708
vn -0.0175 0.5719 0.8201
vn 0.2329 0.5532 0.7998
vn 0.4352 0.6044 0.6673
vn 0.7159 0.6656 0.2108
vn 0.7159 0.6656 -0.2108
vn -0.3260 0.7509 0.5743
vn -0.6104 0.7748 0.1645
vn -0.7433 0.6230 0.2436
vn -0.6181 0.5907 0.5186
vn -0.4240 0.6130 0.6667
vn -0.6112 0.7742 -0.1643
vn -0.3210 0.7527 -0.5749
vn -0.4153 0.5848 -0.6968
vn -0.6290 0.5854 -0.5116
vn -0.7282 0.6370 -0.2529
vn -0.0358 0.7392 -0.6726
vn 0.4120 0.7630 -0.4981
vn 0.4492 0.5934 -0.6679
vn 0.2239 0.5567 -0.8000
vn 0.0001 0.5906 -0.8070
vt 0.500000 0.500000
vt 0.729674 0.360945
vt 0.412274 0.275002
vt 0.890748 0.263424
vt 0.959350 0.500000
vt 0.216106 0.500000
vt 0.412274 0.724998
vt 0.729674 0.639055
vt 0.263424 0.318876
vt 0.500000 0.287077
vt 0.360944 0.500000
vt 0.350751 0.318876
vt 0.641949 0.287076
vt 0.500000 0.318878
vt 0.275001 0.287077
vt 0.128378 0.287077
vt 0.182596 0.500000
vt 0.890748 0.318876
vt 0.817404 0.500000
vt 0.135942 0.500000
vt 0.639056 0.500000
vt 0.736576 0.318876
vt 0.864058 0.500000
vt 0.649249 0.117208
vt 0.871622 0.275001
vt 0.587726 0.275002
vt 0.109252 0.263424
vt 0.358051 0.135945
vt 0.270326 0.360945
vt 0.109252 0.736576
vt 0.040650 0.500000
vt 0.270326 0.639055
vt 0.649249 0.681124
vt 0.358051 0.712924
vt 0.587726 0.844515
vt 0.982990 0.500000
vt 0.871622 0.724999
vt 0.783894 0.500000
vt 0.587726 0.724998
vt 0.649249 0.882792
vt 0.358051 0.864055
vt 0.724999 0.712923
vt 0.500000 0.681122
vt 0.871622 0.712923
vt 0.109252 0.681124
vt 0.500000 0.712923
vt 0.736576 0.681124
vt 0.263424 0.681124
vt 0.275001 0.712923
vt 0.724999 0.287077
vt 0.128378 0.287077
vt 0.641949 0.864055
vt 0.890748 0.736576
vt 0.412274 0.155485
vt 0.128378 0.724999
vt 0.350751 0.882792
vt 0.017010 0.500000
vt 0.128378 0.275001
vt 0.350751 0.117208
vt 0.641949 0.135945
vt 0.358054 0.278626
vt 0.500000 0.239761
vt 0.416567 0.500000
vt 0.412938 0.278626
vt 0.582804 0.239760
vt 0.283220 0.239761
vt 0.314848 0.500000
vt 0.727936 0.278626
vt 0.685152 0.500000
vt 0.281565 0.500000
vt 0.641946 0.278626
vt 0.718435 0.500000
vt 0.583433 0.500000
vt 0.634999 0.760239
vt 0.587062 0.721374
vt 0.716780 0.760239
vt 0.417196 0.760240
vt 0.272064 0.721374
vt 0.500000 0.760239
vt 0.641946 0.721374
vt 0.358054 0.721374
vt 0.417196 0.760240
vt 0.716780 0.760239
vt 0.365001 0.760239
vt 0.634999 0.239761
vt 0.365001 0.239761
vt 0.283220 0.239761
vt 0.381712 0.318876
vt 0.430472 0.500000
vt 0.431594 0.318876
vt 0.565060 0.287076
vt 0.387501 0.287077
vt 0.329673 0.287077
vt 0.354523 0.500000
vt 0.679093 0.318876
vt 0.645477 0.500000
vt 0.317971 0.500000
vt 0.569528 0.500000
vt 0.618288 0.318876
vt 0.682029 0.500000
vt 0.612499 0.712923
vt 0.568406 0.681124
vt 0.670327 0.712923
vt 0.434940 0.712924
vt 0.320907 0.681124
vt 0.618288 0.681124
vt 0.381712 0.681124
vt 0.434940 0.712924
vt 0.387501 0.712923
vt 0.612499 0.287077
vt 0.329673 0.287077
vt 0.417198 0.359126
vt 0.500000 0.334393
vt 0.451331 0.500000
vt 0.450250 0.359126
vt 0.547316 0.334393
vt 0.376126 0.334393
vt 0.394199 0.500000
vt 0.630249 0.359126
vt 0.605801 0.500000
vt 0.372580 0.500000
vt 0.582802 0.359126
vt 0.627420 0.500000
vt 0.548669 0.500000
vt 0.578750 0.665607
vt 0.549750 0.640874
vt 0.623874 0.665607
vt 0.452684 0.665607
vt 0.369751 0.640874
vt 0.500000 0.665607
vt 0.582802 0.640874
vt 0.417198 0.640874
vt 0.452684 0.665607
vt 0.623874 0.665607
vt 0.421250 0.665607
vt 0.578750 0.334393
vt 0.421250 0.334393
vt 0.376126 0.334393
vt 0.447953 0.409438
vt 0.500000 0.393539
vt 0.469408 0.500000
vt 0.468906 0.409438
vt 0.529573 0.393538
vt 0.422579 0.393538
vt 0.433874 0.500000
vt 0.581406 0.409438
vt 0.566126 0.500000
vt 0.419907 0.500000
vt 0.552047 0.409438
vt 0.580093 0.500000
vt 0.530592 0.500000
vt 0.549500 0.606462
vt 0.531094 0.590562
vt 0.577421 0.606462
vt 0.470427 0.606462
vt 0.418594 0.590562
vt 0.500000 0.606462
vt 0.552047 0.590562
vt 0.447953 0.590562
vt 0.450500 0.606462
vt 0.549500 0.393538
vt 0.450500 0.393538
vt 0.472095 0.481097
vt 0.509673 0.527982
vt 0.536580 0.500000
vt 0.481359 0.271845
vt 0.507034 0.297290
vt 0.519302 0.273071
vt 0.481359 0.728155
vt 0.507034 0.702710
vt 0.519302 0.726929
vt 0.490327 0.527982
vt 0.490327 0.472018
vt 0.527905 0.481097
vt 0.465248 0.372654
vt 0.448826 0.365001
vt 0.438654 0.368540
vt 0.631182 0.433494
vt 0.633977 0.416567
vt 0.626353 0.414444
vt 0.609613 0.590219
vt 0.633977 0.583433
vt 0.434496 0.618092
vt 0.448826 0.634999
vt 0.536524 0.917097
vt 0.554379 0.903236
vt 0.559528 0.907539
vt 0.366023 0.921074
vt 0.357793 0.903581
vt 0.370759 0.906191
vt 0.583433 0.921074
vt 0.588558 0.903581
vt 0.576028 0.906799
vt 0.551174 0.921074
vt 0.554379 0.903236
vt 0.539283 0.906799
vt 0.472768 0.481047
vt 0.509807 0.529000
vt 0.534895 0.500000
vt 0.490194 0.529000
vt 0.490193 0.471000
vt 0.527232 0.481047
vt 0.482344 0.394163
vt 0.459792 0.387501
vt 0.602395 0.447735
vt 0.605267 0.430472
vt 0.597667 0.428227
vt 0.581705 0.576488
vt 0.605267 0.569528
vt 0.385030 0.481047
vt 0.369882 0.500000
vt 0.451431 0.597735
vt 0.459792 0.612499
vt 0.468342 0.609973
vt 0.387501 0.844515
vt 0.387501 0.833981
vt 0.387501 0.830294
vt 0.487811 0.841341
vt 0.500000 0.827053
vt 0.508440 0.830238
vt 0.394733 0.844515
vt 0.386786 0.826928
vt 0.399257 0.829707
vt 0.569528 0.844515
vt 0.574776 0.826928
vt 0.561900 0.830078
vt 0.594811 0.844515
vt 0.612499 0.833981
vt 0.612499 0.842989
vt 0.472496 0.481240
vt 0.509662 0.528070
vt 0.535779 0.500000
vt 0.519297 0.353066
vt 0.493484 0.377987
vt 0.506516 0.377987
vt 0.481370 0.648066
vt 0.506516 0.622013
vt 0.519297 0.646934
vt 0.490338 0.528070
vt 0.490339 0.471930
vt 0.527503 0.481241
vt 0.486948 0.428790
vt 0.470758 0.421251
vt 0.465217 0.427924
vt 0.573853 0.468214
vt 0.576558 0.451331
vt 0.569343 0.449279
vt 0.552724 0.555446
vt 0.576558 0.548669
vt 0.456567 0.561659
vt 0.470758 0.578749
vt 0.421251 0.767956
vt 0.421251 0.756714
vt 0.421251 0.753271
vt 0.423442 0.767956
vt 0.415886 0.750072
vt 0.427859 0.752496
vt 0.548669 0.767956
vt 0.553473 0.750072
vt 0.541552 0.752989
vt 0.561659 0.767956
vt 0.578749 0.756714
vt 0.578749 0.765468
vt 0.472608 0.481279
vt 0.509658 0.528099
vt 0.535558 0.500000
vt 0.519296 0.403240
vt 0.493613 0.428345
vt 0.506387 0.428345
vt 0.519296 0.596760
vt 0.493613 0.571655
vt 0.506387 0.571655
vt 0.490342 0.528099
vt 0.490342 0.471901
vt 0.527392 0.481279
vt 0.497851 0.458010
vt 0.481724 0.450500
vt 0.476304 0.457065
vt 0.545169 0.486277
vt 0.547849 0.469408
vt 0.540740 0.467375
vt 0.524154 0.537367
vt 0.547849 0.530592
vt 0.467572 0.532359
vt 0.481724 0.549500
vt 0.502149 0.458010
vt 0.518276 0.450500
vt 0.523696 0.457065
vt 0.452151 0.492142
vt 0.452151 0.469408
vt 0.471517 0.532827
vt 0.452151 0.530592
vt 0.452151 0.523553
vt 0.532428 0.532359
vt 0.518276 0.549500
vt 0.434496 0.381908
vt 0.472095 0.518903
vt 0.338586 0.482277
vt 0.338586 0.517723
vt 0.465248 0.627346
vt 0.527905 0.518903
vt 0.661415 0.482277
vt 0.661414 0.517723
vt 0.609613 0.409781
vt 0.509673 0.472018
vt 0.517937 0.085647
vt 0.528499 0.371316
vt 0.517937 0.914353
vt 0.463420 0.500000
vt 0.390387 0.409781
vt 0.390387 0.590219
vt 0.528499 0.628684
vt 0.451431 0.402266
vt 0.472768 0.518953
vt 0.384132 0.512636
vt 0.482344 0.605837
vt 0.614970 0.518953
vt 0.614970 0.481047
vt 0.581705 0.423512
vt 0.509806 0.471000
vt 0.517656 0.394163
vt 0.465105 0.500000
vt 0.418295 0.423512
vt 0.418295 0.576488
vt 0.527232 0.518953
vt 0.517656 0.605837
vt 0.456567 0.438341
vt 0.409045 0.518092
vt 0.409045 0.481908
vt 0.486948 0.571210
vt 0.472496 0.518760
vt 0.527503 0.518759
vt 0.590955 0.481908
vt 0.590955 0.518092
vt 0.552724 0.444554
vt 0.509662 0.471930
vt 0.517414 0.239876
vt 0.481370 0.351934
vt 0.506786 0.427635
vt 0.482586 0.760124
vt 0.464221 0.500000
vt 0.447276 0.444554
vt 0.447276 0.555446
vt 0.506786 0.572365
vt 0.467572 0.467641
vt 0.472608 0.518721
vt 0.444532 0.481925
vt 0.444532 0.518075
vt 0.497851 0.541990
vt 0.527392 0.518721
vt 0.555468 0.481925
vt 0.555468 0.518075
vt 0.524154 0.462633
vt 0.509658 0.471901
vt 0.517376 0.335687
vt 0.481371 0.402132
vt 0.517376 0.664313
vt 0.481371 0.597868
vt 0.464442 0.500000
vt 0.471517 0.467173
vt 0.502149 0.541990
vt 0.631182 0.566507
vt 0.482063 0.085647
vt 0.492966 0.297290
vt 0.492966 0.702710
vt 0.482063 0.914353
vt 0.565504 0.381908
vt 0.366023 0.560653
vt 0.366023 0.439347
vt 0.565504 0.618092
vt 0.283220 0.365001
vt 0.460718 0.093201
vt 0.445621 0.096764
vt 0.471501 0.078926
vt 0.629241 0.093809
vt 0.434479 0.092860
vt 0.642207 0.096419
vt 0.411442 0.096419
vt 0.423972 0.093201
vt 0.560653 0.078926
vt 0.576028 0.093201
vt 0.588558 0.096419
vt 0.642207 0.096419
vt 0.609613 0.078926
vt 0.460718 0.093201
vt 0.438653 0.631460
vt 0.283220 0.634999
vt 0.434479 0.092860
vt 0.445621 0.096764
vt 0.539282 0.906799
vt 0.565521 0.365001
vt 0.565521 0.634999
vt 0.411442 0.903581
vt 0.423972 0.906799
vt 0.439347 0.921074
vt 0.357793 0.903581
vt 0.370759 0.906191
vt 0.390387 0.921074
vt 0.559527 0.907539
vt 0.602395 0.552265
vt 0.554344 0.405189
vt 0.394733 0.546480
vt 0.394733 0.453520
vt 0.554344 0.594811
vt 0.481047 0.155486
vt 0.387501 0.169706
vt 0.456721 0.173282
vt 0.482344 0.155485
vt 0.600743 0.170293
vt 0.445730 0.169706
vt 0.613214 0.173072
vt 0.425224 0.173072
vt 0.438100 0.169922
vt 0.546480 0.155485
vt 0.561900 0.169922
vt 0.574776 0.173072
vt 0.581705 0.155485
vt 0.471341 0.169922
vt 0.594811 0.155485
vt 0.512659 0.170294
vt 0.500000 0.172947
vt 0.445730 0.169706
vt 0.456721 0.173282
vt 0.543279 0.826718
vt 0.528659 0.830078
vt 0.487341 0.829706
vt 0.554270 0.830294
vt 0.517656 0.844515
vt 0.612499 0.830293
vt 0.425224 0.826928
vt 0.438100 0.830078
vt 0.453520 0.844515
vt 0.386786 0.826928
vt 0.399257 0.829707
vt 0.528659 0.830078
vt 0.418295 0.844515
vt 0.554270 0.830294
vt 0.543279 0.826718
vt 0.573853 0.531786
vt 0.482586 0.239876
vt 0.493484 0.622013
vt 0.517414 0.760124
vt 0.543433 0.438341
vt 0.423442 0.525924
vt 0.423442 0.474076
vt 0.543433 0.561659
vt 0.421251 0.246729
vt 0.467830 0.250189
vt 0.493214 0.232044
vt 0.572141 0.247504
vt 0.457180 0.246729
vt 0.584114 0.249928
vt 0.446527 0.249928
vt 0.458448 0.247011
vt 0.525924 0.232044
vt 0.541552 0.247011
vt 0.553473 0.249928
vt 0.552724 0.232044
vt 0.481953 0.247011
vt 0.578749 0.246729
vt 0.467830 0.250189
vt 0.532170 0.749811
vt 0.518047 0.752989
vt 0.438341 0.767956
vt 0.506786 0.767956
vt 0.578749 0.753271
vt 0.446527 0.750072
vt 0.458448 0.752989
vt 0.474076 0.767956
vt 0.415886 0.750072
vt 0.447276 0.767956
vt 0.542820 0.753271
vt 0.545169 0.513723
vt 0.482624 0.335687
vt 0.482624 0.664313
vt 0.532428 0.467640
vt 0.452151 0.507858
vt 0.450500 0.342616
vt 0.478865 0.345961
vt 0.504120 0.327742
vt 0.543515 0.343345
vt 0.468353 0.342616
vt 0.555233 0.345720
vt 0.464687 0.345720
vt 0.476447 0.342883
vt 0.507858 0.327743
vt 0.523553 0.342882
vt 0.535313 0.345720
vt 0.555233 0.345720
vt 0.524154 0.327743
vt 0.492734 0.342882
vt 0.549500 0.342616
vt 0.478865 0.345961
vt 0.521135 0.654039
vt 0.507266 0.657118
vt 0.450500 0.657384
vt 0.467641 0.672257
vt 0.456485 0.656655
vt 0.495880 0.672258
vt 0.549500 0.657384
vt 0.532359 0.672257
vt 0.464687 0.654280
vt 0.476447 0.657118
vt 0.444767 0.654280
vt 0.523553 0.657117
vt 0.492142 0.672257
vt 0.444767 0.654280
vt 0.456485 0.656655
vt 0.535313 0.654280
vt 0.475846 0.672258
vt 0.521135 0.654039
vt 0.531647 0.657384
vt 0.626353 0.585556
vt 0.379390 0.917350
vt 0.359653 0.907534
vt 0.570482 0.918064
vt 0.587090 0.908593
vt 0.468342 0.390027
vt 0.597667 0.571773
vt 0.374292 0.494482
vt 0.405189 0.844515
vt 0.387501 0.842989
vt 0.509477 0.844514
vt 0.407615 0.840911
vt 0.388661 0.831076
vt 0.556328 0.841342
vt 0.573345 0.831724
vt 0.612499 0.844515
vt 0.569343 0.550721
vt 0.465217 0.572076
vt 0.421251 0.765468
vt 0.436385 0.764364
vt 0.417434 0.753735
vt 0.535856 0.764927
vt 0.552275 0.754532
vt 0.578749 0.767956
vt 0.540740 0.532625
vt 0.476304 0.542935
vt 0.452151 0.476447
vt 0.523696 0.542935
vt 0.609613 0.078926
vt 0.439347 0.078926
vt 0.629241 0.093809
vt 0.716780 0.365001
vt 0.716780 0.634999
vt 0.487341 0.170294
vt 0.405189 0.155485
vt 0.471341 0.169922
vt 0.581705 0.155485
vt 0.453520 0.155485
vt 0.600743 0.170293
vt 0.612499 0.169706
vt 0.518953 0.155486
vt 0.438341 0.232044
vt 0.481953 0.247011
vt 0.552724 0.232044
vt 0.474076 0.232044
vt 0.572141 0.247504
vt 0.493214 0.232044
vt 0.561659 0.232044
vt 0.506786 0.767956
vt 0.467640 0.327743
vt 0.492734 0.342882
vt 0.492142 0.327743
vt 0.543515 0.343345
vt 0.532359 0.327743
vt 0.468353 0.342616
vt 0.531647 0.657384
vt 0.475846 0.672257
vt 0.507858 0.672257
vt 0.495880 0.672258
s 1
f 1/1/1 14/2/14 13/3/13
f 2/4/2 14/2/14 16/5/16
f 1/1/1 13/3/13 18/6/18
f 1/1/1 18/6/18 20/7/20
f 1/1/1 20/7/20 17/8/17
f 2/9/2 16/10/16 23/11/23
f 3/12/3 15/13/15 25/1/25
f 4/14/4 19/15/19 27/11/27
f 5/12/5 21/16/21 29/17/29
f 6/18/6 22/13/22 31/19/31
f 2/9/2 23/11/23 26/20/26
f 3/12/3 25/1/25 28/17/28
f 4/14/4 27/11/27 30/21/30
f 5/12/5 29/17/29 32/1/32
f 6/22/6 31/23/31 24/21/24
f 7/24/7 33/25/33 38/26/38
f 8/27/8 34/28/34 40/29/40
f 9/30/9 35/31/35 41/32/41
f 10/33/10 36/34/36 42/35/42
f 11/36/11 37/37/37 39/38/39
f 39/38/39 42/39/42 12/1/12
f 39/38/39 37/37/37 42/39/42
f 37/37/37 10/40/10 42/39/42
f 42/39/42 41/32/41 12/1/12
f 42/39/42 36/41/36 41/32/41
f 36/41/36 9/30/9 41/32/41
f 41/32/41 40/29/40 12/1/12
f 41/32/41 35/31/35 40/29/40
f 35/31/35 8/27/8 40/29/40
f 40/29/40 38/26/38 12/1/12
f 40/29/40 34/28/34 38/26/38
f 34/34/34 7/33/7 38/35/38
f 38/26/38 39/38/39 12/1/12
f 38/26/38 33/25/33 39/38/39
f 33/25/33 11/36/11 39/38/39
f 24/21/24 37/42/37 11/43/11
f 24/21/24 31/23/31 37/42/37
f 31/19/31 10/33/10 37/44/37
f 32/1/32 36/34/36 10/33/10
f 32/1/32 29/17/29 36/34/36
f 29/17/29 9/45/9 36/34/36
f 30/21/30 35/46/35 9/47/9
f 30/21/30 27/11/27 35/46/35
f 27/11/27 8/48/8 35/46/35
f 28/17/28 34/34/34 8/45/8
f 28/17/28 25/1/25 34/34/34
f 25/1/25 7/33/7 34/34/34
f 26/19/26 33/44/33 7/33/7
f 26/20/26 23/11/23 33/49/33
f 23/11/23 11/43/11 33/49/33
f 31/19/31 32/1/32 10/33/10
f 31/19/31 22/13/22 32/1/32
f 22/13/22 5/12/5 32/1/32
f 29/23/29 30/21/30 9/47/9
f 29/23/29 21/50/21 30/21/30
f 21/50/21 4/14/4 30/21/30
f 27/11/27 28/20/28 8/48/8
f 27/11/27 19/15/19 28/20/28
f 19/51/19 3/12/3 28/17/28
f 25/1/25 26/19/26 7/33/7
f 25/1/25 15/13/15 26/19/26
f 15/13/15 2/18/2 26/19/26
f 23/11/23 24/21/24 11/43/11
f 23/11/23 16/10/16 24/21/24
f 16/10/16 6/22/6 24/21/24
f 17/8/17 22/52/22 6/53/6
f 17/8/17 20/7/20 22/52/22
f 20/54/20 5/12/5 22/13/22
f 20/7/20 21/55/21 5/56/5
f 20/7/20 18/6/18 21/55/21
f 18/6/18 4/57/4 21/55/21
f 18/6/18 19/58/19 4/57/4
f 18/6/18 13/3/13 19/58/19
f 13/3/13 3/59/3 19/58/19
f 16/5/16 17/8/17 6/53/6
f 16/5/16 14/2/14 17/8/17
f 14/2/14 1/1/1 17/8/17
f 13/54/13 15/13/15 3/12/3
f 13/3/13 14/2/14 15/60/15
f 14/2/14 2/4/2 15/60/15
f 43/61/43 52/62/52 56/63/56
f 44/64/44 51/65/51 58/1/25
f 45/64/45 54/66/54 62/67/61
f 46/68/46 55/65/55 64/69/63
f 43/61/43 56/63/56 59/70/58
f 44/64/44 58/1/25 61/67/60
f 45/64/45 62/67/61 65/1/32
f 46/71/46 64/72/63 57/73/57
f 57/73/57 64/72/63 70/74/68
f 64/69/63 50/75/50 70/76/68
f 65/1/32 69/77/67 50/75/50
f 65/1/32 62/67/61 69/77/67
f 62/67/61 49/78/49 69/77/67
f 63/73/62 68/79/66 49/80/49
f 63/73/62 60/63/59 68/79/66
f 60/63/59 48/81/48 68/79/66
f 61/67/60 67/82/65 48/78/48
f 61/67/60 58/1/25 67/82/65
f 58/1/25 47/75/47 67/82/65
f 59/69/58 66/83/64 47/75/47
f 59/70/58 56/63/56 66/84/64
f 64/69/63 65/1/32 50/75/50
f 64/69/63 55/65/55 65/1/32
f 55/65/55 45/64/45 65/1/32
f 62/72/61 63/73/62 49/80/49
f 62/72/61 54/85/54 63/73/62
f 60/63/59 61/70/60 48/81/48
f 60/63/59 53/86/53 61/70/60
f 53/87/53 44/64/44 61/67/60
f 58/1/25 59/69/58 47/75/47
f 58/1/25 51/65/51 59/69/58
f 51/65/51 43/68/43 59/69/58
f 56/63/56 52/62/52 57/73/57
f 52/62/52 46/71/46 57/73/57
f 71/88/69 82/10/80 86/89/84
f 72/90/70 81/91/79 88/1/25
f 73/14/71 83/92/81 90/89/87
f 74/90/72 84/93/82 92/94/89
f 75/95/73 85/91/83 94/96/91
f 71/88/69 86/89/84 89/97/86
f 72/90/70 88/1/25 91/94/88
f 73/14/71 90/89/87 93/98/90
f 74/90/72 92/94/89 95/1/32
f 75/99/73 94/100/91 87/98/85
f 87/98/85 100/101/96 80/43/78
f 87/98/85 94/100/91 100/101/96
f 94/96/91 79/102/77 100/103/96
f 95/1/32 99/104/95 79/102/77
f 95/1/32 92/94/89 99/104/95
f 92/94/89 78/105/76 99/104/95
f 93/98/90 98/46/94 78/106/76
f 93/98/90 90/89/87 98/46/94
f 90/89/87 77/107/75 98/46/94
f 91/94/88 97/108/93 77/105/75
f 91/94/88 88/1/25 97/108/93
f 88/1/25 76/102/74 97/108/93
f 89/96/86 96/103/92 76/102/74
f 89/97/86 86/89/84 96/109/92
f 86/89/84 80/43/78 96/109/92
f 94/96/91 95/1/32 79/102/77
f 94/96/91 85/91/83 95/1/32
f 85/91/83 74/90/72 95/1/32
f 92/100/89 93/98/90 78/106/76
f 92/100/89 84/110/82 93/98/90
f 84/110/82 73/14/71 93/98/90
f 90/89/87 91/97/88 77/107/75
f 90/89/87 83/92/81 91/97/88
f 83/111/81 72/90/70 91/94/88
f 88/1/25 89/96/86 76/102/74
f 88/1/25 81/91/79 89/96/86
f 81/91/79 71/95/69 89/96/86
f 86/89/84 87/98/85 80/43/78
f 86/89/84 82/10/80 87/98/85
f 82/10/80 75/99/73 87/98/85
f 101/112/97 110/113/106 114/114/110
f 102/115/98 109/116/105 116/1/25
f 103/115/99 112/117/108 120/118/115
f 104/119/100 113/116/109 122/120/117
f 101/112/97 114/114/110 117/121/112
f 102/115/98 116/1/25 119/118/114
f 103/115/99 120/118/115 123/1/32
f 104/122/100 122/123/117 115/124/111
f 115/124/111 122/123/117 128/125/122
f 122/120/117 108/126/104 128/127/122
f 123/1/32 127/128/121 108/126/104
f 123/1/32 120/118/115 127/128/121
f 120/118/115 107/129/103 127/128/121
f 121/124/116 126/130/120 107/131/103
f 121/124/116 118/114/113 126/130/120
f 118/114/113 106/132/102 126/130/120
f 119/118/114 125/133/119 106/129/102
f 119/118/114 116/1/25 125/133/119
f 116/1/25 105/126/101 125/133/119
f 117/120/112 124/134/118 105/126/101
f 117/121/112 114/114/110 124/135/118
f 122/120/117 123/1/32 108/126/104
f 122/120/117 113/116/109 123/1/32
f 113/116/109 103/115/99 123/1/32
f 120/123/115 121/124/116 107/131/103
f 120/123/115 112/136/108 121/124/116
f 118/114/113 119/121/114 106/132/102
f 118/114/113 111/137/107 119/121/114
f 111/138/107 102/115/98 119/118/114
f 116/1/25 117/120/112 105/126/101
f 116/1/25 109/116/105 117/120/112
f 109/116/105 101/119/97 117/120/112
f 114/114/110 110/113/106 115/124/111
f 110/113/106 104/122/100 115/124/111
f 129/139/123 138/140/132 142/141/136
f 130/142/124 137/143/131 144/1/25
f 131/142/125 140/144/134 148/145/141
f 132/146/126 141/143/135 150/147/143
f 129/139/123 142/141/136 145/148/138
f 130/142/124 144/1/25 147/145/140
f 131/142/125 148/145/141 151/1/32
f 132/149/126 150/150/143 143/151/137
f 143/151/137 150/150/143 156/152/148
f 150/147/143 136/153/130 156/154/148
f 151/1/32 155/155/147 136/153/130
f 151/1/32 148/145/141 155/155/147
f 148/145/141 135/156/129 155/155/147
f 149/151/142 154/157/146 135/158/129
f 149/151/142 146/141/139 154/157/146
f 146/141/139 134/159/128 154/157/146
f 147/145/140 153/155/145 134/156/128
f 147/145/140 144/1/25 153/155/145
f 144/1/25 133/153/127 153/155/145
f 145/147/138 152/154/144 133/153/127
f 145/148/138 142/141/136 152/160/144
f 150/147/143 151/1/32 136/153/130
f 150/147/143 141/143/135 151/1/32
f 141/143/135 131/142/125 151/1/32
f 148/150/141 149/151/142 135/158/129
f 148/150/141 140/161/134 149/151/142
f 146/141/139 147/148/140 134/159/128
f 146/141/139 139/162/133 147/148/140
f 139/144/133 130/142/124 147/145/140
f 144/1/25 145/147/138 133/153/127
f 144/1/25 137/143/131 145/147/138
f 137/143/131 129/146/123 145/147/138
f 142/141/136 138/140/132 143/151/137
f 138/140/132 132/149/126 143/151/137
f 158/163/150 160/164/152 161/165/153
f 163/166/155 165/167/157 162/168/154
f 167/169/159 169/170/161 166/171/158
f 171/172/163 173/173/165 174/174/166
f 176/175/168 178/176/170 179/177/171
f 181/178/173 183/179/175 184/180/176
f 186/181/178 188/182/180 189/182/181
f 193/183/185 195/184/187 196/184/188
f 198/185/190 200/186/192 201/187/193
f 205/188/197 207/189/199 208/190/200
f 210/191/202 212/192/204 213/193/205
f 215/194/207 217/195/209 218/196/210
f 220/197/212 222/198/214 223/199/215
f 225/200/217 227/201/219 228/202/220
f 230/203/222 232/204/224 233/204/225
f 235/205/227 237/206/229 238/207/230
f 240/208/232 242/209/234 243/209/235
f 245/210/237 247/211/239 248/211/240
f 250/212/242 252/213/244 253/214/245
f 255/215/247 257/216/249 258/217/250
f 260/218/252 262/219/254 263/220/255
f 265/221/257 267/222/259 268/223/260
f 270/224/262 272/225/264 273/226/265
f 275/227/267 277/228/269 278/229/270
f 280/230/272 282/231/274 283/232/275
f 284/233/276 286/234/278 287/235/279
f 289/236/281 291/237/283 288/238/280
f 293/239/285 295/240/287 296/241/288
f 298/242/290 300/243/292 301/244/293
f 303/245/295 305/246/297 306/247/298
f 308/248/300 310/249/302 311/249/303
f 315/250/307 317/251/309 318/251/310
f 320/252/312 322/253/314 323/254/315
f 327/255/319 329/256/321 330/257/322
f 332/258/324 334/259/326 335/260/327
f 337/261/329 339/262/331 340/263/332
f 342/264/334 344/265/336 345/266/337
f 346/267/338 348/268/340 349/269/341
f 350/270/342 352/271/344 353/272/345
f 355/273/347 357/274/349 358/275/350
f 360/276/352 362/277/354 363/278/355
f 365/279/357 367/280/359 368/281/360
f 370/282/362 372/283/364 373/283/365
f 377/284/369 379/285/371 380/285/372
f 382/286/374 384/287/376 385/288/377
f 389/289/381 391/290/383 392/290/384
f 394/291/386 396/292/388 397/293/389
f 399/294/391 401/295/393 402/295/394
f 158/163/150 176/175/168 175/296/167
f 159/297/151 190/298/182 191/299/183
f 192/300/184 159/297/151 193/183/185
f 170/301/162 202/302/194 203/303/195
f 161/165/153 180/304/172 157/305/149
f 186/181/178 161/165/153 160/164/152
f 191/306/183 163/166/155 162/168/154
f 198/307/190 174/174/166 173/173/165
f 203/308/195 167/169/159 166/171/158
f 172/309/164 204/310/196 173/173/165
f 210/311/202 172/309/164 171/172/163
f 170/301/162 214/312/206 171/172/163
f 220/197/212 230/203/222 229/313/221
f 221/314/213 245/210/237 244/315/236
f 249/316/241 221/314/213 250/212/242
f 259/317/251 228/202/220 260/318/252
f 223/199/215 234/319/226 219/320/211
f 240/208/232 223/199/215 222/198/214
f 255/321/247 228/202/220 227/201/219
f 226/322/218 264/323/256 227/201/219
f 270/324/262 226/322/218 225/200/217
f 224/325/216 274/326/266 225/200/217
f 280/230/272 298/242/290 297/327/289
f 313/328/305 280/230/272 312/329/304
f 314/330/306 281/331/273 315/250/307
f 292/332/284 324/333/316 325/334/317
f 283/232/275 302/335/294 279/336/271
f 308/248/300 283/232/275 282/231/274
f 313/337/305 285/338/277 284/233/276
f 320/339/312 296/241/288 295/240/287
f 288/238/280 324/340/316 289/236/281
f 294/341/286 326/342/318 295/240/287
f 332/343/324 294/341/286 293/239/285
f 292/332/284 336/344/328 293/239/285
f 342/264/334 360/276/352 359/345/351
f 343/346/335 374/347/366 375/348/367
f 376/349/368 343/346/335 377/284/369
f 354/350/346 386/351/378 387/352/379
f 345/266/337 364/353/356 341/354/333
f 370/282/362 345/266/337 344/265/336
f 375/355/367 347/356/339 346/267/338
f 382/286/374 358/275/350 357/274/349
f 387/357/379 351/358/343 350/270/342
f 356/359/348 388/360/380 357/274/349
f 394/291/386 356/359/348 355/273/347
f 354/350/346 398/361/390 355/273/347
f 158/163/150 175/296/167 190/298/182
f 159/297/151 191/299/183 193/183/185
f 160/164/152 192/300/184 186/181/178
f 157/305/149 180/304/172 176/175/168
f 181/178/173 161/165/153 185/362/177
f 190/363/182 53/86/53 163/166/155
f 191/306/183 162/168/154 54/85/54
f 54/85/54 165/167/157 63/73/62
f 164/364/156 53/86/53 60/63/59
f 164/364/156 63/73/62 165/167/157
f 57/73/57 168/365/160 56/63/56
f 168/365/160 66/84/64 56/63/56
f 66/84/64 167/169/159 202/366/194
f 70/74/68 169/170/161 57/73/57
f 166/171/158 70/74/68 203/308/195
f 197/367/189 202/302/194 174/174/166
f 204/310/196 198/307/190 173/173/165
f 209/368/201 205/369/197 172/309/164
f 214/312/206 210/311/202 171/172/163
f 203/303/195 215/370/207 170/301/162
f 190/298/182 179/177/171 53/371/53
f 177/372/169 44/64/44 178/373/170
f 176/374/168 184/375/176 51/65/51
f 179/376/171 44/64/44 53/87/53
f 183/377/175 51/65/51 184/375/176
f 183/378/175 52/62/52 43/61/43
f 182/379/174 185/380/177 189/381/181
f 52/62/52 188/382/180 46/71/46
f 188/383/180 55/65/55 46/68/46
f 186/384/178 196/385/188 55/65/55
f 194/386/186 191/299/183 54/387/54
f 194/388/186 45/64/45 195/389/187
f 196/385/188 45/64/45 55/65/55
f 47/75/47 199/390/191 67/82/65
f 201/391/193 202/302/194 197/367/189
f 47/75/47 201/187/193 200/186/192
f 208/190/200 199/390/191 198/185/190
f 203/303/195 216/392/208 215/370/207
f 68/79/66 207/393/199 206/394/198
f 67/82/65 207/189/199 48/78/48
f 213/193/205 206/394/198 205/395/197
f 69/77/67 212/396/204 211/397/203
f 68/79/66 212/192/204 49/80/49
f 218/196/210 211/397/203 210/398/202
f 50/75/50 216/399/208 70/76/68
f 50/75/50 218/196/210 217/195/209
f 220/197/212 229/313/221 245/210/237
f 221/314/213 244/315/236 250/212/242
f 222/198/214 249/316/241 240/208/232
f 219/320/211 234/319/226 230/203/222
f 235/205/227 223/199/215 239/400/231
f 254/401/246 260/318/252 228/202/220
f 264/323/256 255/321/247 227/201/219
f 269/402/261 265/403/257 226/322/218
f 274/326/266 270/324/262 225/200/217
f 259/317/251 275/404/267 224/325/216
f 245/405/237 233/406/225 83/92/81
f 232/407/224 81/91/79 72/90/70
f 230/408/222 238/409/230 81/91/79
f 233/410/225 72/90/70 83/111/81
f 237/411/229 81/91/79 238/409/230
f 237/412/229 82/10/80 71/88/69
f 236/413/228 239/414/231 243/415/235
f 82/10/80 242/416/234 75/99/73
f 242/411/234 85/91/83 75/95/73
f 240/417/232 253/418/245 85/91/83
f 250/419/242 248/420/240 84/110/82
f 247/421/239 83/92/81 73/14/71
f 247/421/239 84/110/82 248/420/240
f 251/422/243 74/90/72 252/423/244
f 252/423/244 85/91/83 253/418/245
f 97/108/93 257/424/249 256/425/248
f 258/217/250 261/426/253 260/218/252
f 76/102/74 258/427/250 257/424/249
f 268/223/260 256/425/248 255/428/247
f 100/101/96 262/219/254 80/43/78
f 263/220/255 276/429/268 275/227/267
f 96/109/92 262/219/254 261/426/253
f 98/46/94 267/430/259 266/431/258
f 97/108/93 267/222/259 77/105/75
f 273/226/265 266/431/258 265/432/257
f 99/104/95 272/433/264 271/434/263
f 98/46/94 272/225/264 78/106/76
f 278/435/270 271/434/263 270/436/262
f 79/102/77 276/437/268 100/103/96
f 99/104/95 277/438/269 79/102/77
f 280/230/272 297/327/289 312/329/304
f 281/331/273 313/328/305 315/250/307
f 282/231/274 314/330/306 308/248/300
f 279/336/271 302/335/294 298/242/290
f 303/245/295 283/232/275 307/439/299
f 312/440/304 111/137/107 285/338/277
f 313/337/305 284/233/276 112/136/108
f 112/136/108 287/235/279 121/124/116
f 286/234/278 111/137/107 118/114/113
f 286/234/278 121/124/116 287/235/279
f 115/124/111 290/441/282 114/114/110
f 290/441/282 124/135/118 114/114/110
f 124/135/118 289/236/281 324/340/316
f 128/125/122 291/237/283 115/124/111
f 288/238/280 128/125/122 325/442/317
f 319/443/311 324/333/316 296/241/288
f 326/342/318 320/339/312 295/240/287
f 331/444/323 327/445/319 294/341/286
f 336/344/328 332/343/324 293/239/285
f 325/334/317 337/446/329 292/332/284
f 312/440/304 301/447/293 111/137/107
f 300/448/292 109/116/105 102/115/98
f 298/449/290 306/450/298 109/116/105
f 300/448/292 111/138/107 301/451/293
f 305/452/297 109/116/105 306/450/298
f 305/453/297 110/113/106 101/112/97
f 304/454/296 307/455/299 311/456/303
f 110/113/106 310/457/302 104/122/100
f 310/452/302 113/116/109 104/119/100
f 308/458/300 318/459/310 113/116/109
f 316/460/308 313/337/305 112/136/108
f 317/461/309 112/117/108 103/115/99
f 317/461/309 113/116/109 318/459/310
f 125/133/119 322/462/314 321/463/313
f 323/254/315 324/340/316 319/464/311
f 124/134/118 322/462/314 105/126/101
f 330/257/322 321/463/313 320/465/312
f 325/442/317 338/466/330 337/261/329
f 126/130/120 329/467/321 328/468/320
f 125/133/119 329/256/321 106/129/102
f 335/260/327 328/468/320 327/469/319
f 127/128/121 334/470/326 333/257/325
f 126/130/120 334/259/326 107/131/103
f 340/463/332 333/257/325 332/471/324
f 128/127/122 339/462/331 338/472/330
f 127/128/121 339/462/331 108/126/104
f 342/264/334 359/345/351 374/347/366
f 343/346/335 375/348/367 377/284/369
f 344/265/336 376/349/368 370/282/362
f 341/354/333 364/353/356 360/276/352
f 365/279/357 345/266/337 369/473/361
f 374/474/366 139/162/133 347/356/339
f 375/355/367 346/267/338 140/161/134
f 140/161/134 349/269/341 149/151/142
f 348/268/340 139/162/133 146/141/139
f 348/268/340 149/151/142 349/269/341
f 143/151/137 352/271/344 142/141/136
f 352/271/344 152/160/144 142/141/136
f 152/160/144 351/358/343 386/475/378
f 156/152/148 353/272/345 143/151/137
f 350/270/342 156/152/148 387/357/379
f 381/476/373 386/351/378 358/275/350
f 388/360/380 382/286/374 357/274/349
f 393/477/385 389/289/381 356/359/348
f 398/361/390 394/291/386 355/273/347
f 387/352/379 399/294/391 354/350/346
f 374/474/366 363/478/355 139/162/133
f 362/479/354 137/143/131 130/142/124
f 360/480/352 368/481/360 137/143/131
f 362/479/354 139/144/133 363/482/355
f 367/483/359 137/143/131 368/481/360
f 367/484/359 138/140/132 129/139/123
f 366/485/358 369/486/361 373/487/365
f 138/140/132 372/488/364 132/149/126
f 372/489/364 141/143/135 132/146/126
f 370/490/362 380/491/372 141/143/135
f 378/492/370 375/355/367 140/161/134
f 379/493/371 140/144/134 131/142/125
f 379/493/371 141/143/135 380/491/372
f 153/155/145 384/494/376 383/495/375
f 385/496/377 386/475/378 381/497/373
f 152/154/144 384/494/376 133/153/127
f 392/498/384 383/495/375 382/499/374
f 387/357/379 400/500/392 399/501/391
f 154/157/146 391/502/383 390/503/382
f 153/155/145 391/504/383 134/156/128
f 397/505/389 390/503/382 389/506/381
f 155/155/147 396/507/388 395/508/387
f 154/157/146 396/509/388 135/158/129
f 402/495/394 395/508/387 394/510/386
f 156/154/148 401/511/393 400/512/392
f 155/155/147 401/511/393 136/153/130
f 161/165/153 157/305/149 158/163/150
f 158/163/150 159/297/151 160/164/152
f 163/166/155 164/364/156 165/167/157
f 167/169/159 168/365/160 169/170/161
f 174/174/166 170/301/162 171/172/163
f 171/172/163 172/309/164 173/173/165
f 179/177/171 175/296/167 176/175/168
f 176/175/168 177/176/169 178/176/170
f 184/180/176 180/304/172 181/178/173
f 181/178/173 182/179/174 183/179/175
f 189/182/181 185/362/177 186/181/178
f 186/181/178 187/513/179 188/182/180
f 196/184/188 192/300/184 193/183/185
f 193/183/185 194/386/186 195/184/187
f 201/187/193 197/194/189 198/185/190
f 198/185/190 199/390/191 200/186/192
f 208/190/200 204/514/196 205/188/197
f 205/188/197 206/515/198 207/189/199
f 213/193/205 209/516/201 210/191/202
f 210/191/202 211/517/203 212/192/204
f 218/196/210 214/185/206 215/194/207
f 215/194/207 216/399/208 217/195/209
f 223/199/215 219/320/211 220/197/212
f 220/197/212 221/314/213 222/198/214
f 228/202/220 224/325/216 225/200/217
f 225/200/217 226/322/218 227/201/219
f 233/204/225 229/313/221 230/203/222
f 230/203/222 231/518/223 232/204/224
f 238/207/230 234/319/226 235/205/227
f 235/205/227 236/206/228 237/206/229
f 243/209/235 239/400/231 240/208/232
f 240/208/232 241/519/233 242/209/234
f 248/211/240 244/315/236 245/210/237
f 245/210/237 246/520/238 247/211/239
f 253/214/245 249/316/241 250/212/242
f 250/212/242 251/213/243 252/213/244
f 258/217/250 254/521/246 255/215/247
f 255/215/247 256/522/248 257/216/249
f 263/220/255 259/523/251 260/218/252
f 260/218/252 261/426/253 262/219/254
f 268/223/260 264/524/256 265/221/257
f 265/221/257 266/525/258 267/222/259
f 273/226/265 269/526/261 270/224/262
f 270/224/262 271/527/263 272/225/264
f 278/229/270 274/528/266 275/227/267
f 275/227/267 276/429/268 277/228/269
f 283/232/275 279/336/271 280/230/272
f 280/230/272 281/331/273 282/231/274
f 284/233/276 285/338/277 286/234/278
f 289/236/281 290/441/282 291/237/283
f 296/241/288 292/332/284 293/239/285
f 293/239/285 294/341/286 295/240/287
f 301/244/293 297/327/289 298/242/290
f 298/242/290 299/243/291 300/243/292
f 306/247/298 302/335/294 303/245/295
f 303/245/295 304/246/296 305/246/297
f 311/249/303 307/439/299 308/248/300
f 308/248/300 309/529/301 310/249/302
f 318/251/310 314/330/306 315/250/307
f 315/250/307 316/530/308 317/251/309
f 323/254/315 319/464/311 320/252/312
f 320/252/312 321/531/313 322/253/314
f 330/257/322 326/532/318 327/255/319
f 327/255/319 328/533/320 329/256/321
f 335/260/327 331/534/323 332/258/324
f 332/258/324 333/535/325 334/259/326
f 340/263/332 336/536/328 337/261/329
f 337/261/329 338/466/330 339/262/331
f 345/266/337 341/354/333 342/264/334
f 342/264/334 343/346/335 344/265/336
f 346/267/338 347/356/339 348/268/340
f 350/270/342 351/358/343 352/271/344
f 358/275/350 354/350/346 355/273/347
f 355/273/347 356/359/348 357/274/349
f 363/278/355 359/345/351 360/276/352
f 360/276/352 361/277/353 362/277/354
f 368/281/360 364/353/356 365/279/357
f 365/279/357 366/280/358 367/280/359
f 373/283/365 369/473/361 370/282/362
f 370/282/362 371/537/363 372/283/364
f 380/285/372 376/349/368 377/284/369
f 377/284/369 378/538/370 379/285/371
f 385/288/377 381/476/373 382/286/374
f 382/286/374 383/287/375 384/287/376
f 392/290/384 388/360/380 389/289/381
f 389/289/381 390/539/382 391/290/383
f 397/293/389 393/477/385 394/291/386
f 394/291/386 395/292/387 396/292/388
f 402/295/394 398/361/390 399/294/391
f 399/294/391 400/540/392 401/295/393
f 158/163/150 157/305/149 176/175/168
f 159/297/151 158/163/150 190/298/182
f 192/300/184 160/164/152 159/297/151
f 170/301/162 174/174/166 202/302/194
f 161/165/153 181/178/173 180/304/172
f 186/181/178 185/362/177 161/165/153
f 191/306/183 190/363/182 163/166/155
f 198/307/190 197/367/189 174/174/166
f 203/308/195 202/366/194 167/169/159
f 172/309/164 205/369/197 204/310/196
f 210/311/202 209/368/201 172/309/164
f 170/301/162 215/370/207 214/312/206
f 220/197/212 219/320/211 230/203/222
f 221/314/213 220/197/212 245/210/237
f 249/316/241 222/198/214 221/314/213
f 259/317/251 224/325/216 228/202/220
f 223/199/215 235/205/227 234/319/226
f 240/208/232 239/400/231 223/199/215
f 255/321/247 254/401/246 228/202/220
f 226/322/218 265/403/257 264/323/256
f 270/324/262 269/402/261 226/322/218
f 224/325/216 275/404/267 274/326/266
f 280/230/272 279/336/271 298/242/290
f 313/328/305 281/331/273 280/230/272
f 314/330/306 282/231/274 281/331/273
f 292/332/284 296/241/288 324/333/316
f 283/232/275 303/245/295 302/335/294
f 308/248/300 307/439/299 283/232/275
f 313/337/305 312/440/304 285/338/277
f 320/339/312 319/443/311 296/241/288
f 288/238/280 325/442/317 324/340/316
f 294/341/286 327/445/319 326/342/318
f 332/343/324 331/444/323 294/341/286
f 292/332/284 337/446/329 336/344/328
f 342/264/334 341/354/333 360/276/352
f 343/346/335 342/264/334 374/347/366
f 376/349/368 344/265/336 343/346/335
f 354/350/346 358/275/350 386/351/378
f 345/266/337 365/279/357 364/353/356
f 370/282/362 369/473/361 345/266/337
f 375/355/367 374/474/366 347/356/339
f 382/286/374 381/476/373 358/275/350
f 387/357/379 386/475/378 351/358/343
f 356/359/348 389/289/381 388/360/380
f 394/291/386 393/477/385 356/359/348
f 354/350/346 399/294/391 398/361/390
f 54/85/54 162/168/154 165/167/157
f 164/364/156 163/166/155 53/86/53
f 164/364/156 60/63/59 63/73/62
f 57/73/57 169/170/161 168/365/160
f 168/365/160 167/169/159 66/84/64
f 70/74/68 166/171/158 169/170/161
f 190/298/182 175/296/167 179/177/171
f 177/372/169 51/65/51 44/64/44
f 51/65/51 177/372/169 176/374/168
f 176/374/168 180/541/172 184/375/176
f 179/376/171 178/373/170 44/64/44
f 183/377/175 43/68/43 51/65/51
f 183/378/175 182/379/174 52/62/52
f 189/381/181 52/62/52 182/379/174
f 182/379/174 181/542/173 185/380/177
f 52/62/52 189/381/181 188/382/180
f 188/383/180 187/543/179 55/65/55
f 55/65/55 187/543/179 186/384/178
f 186/384/178 192/374/184 196/385/188
f 194/386/186 193/183/185 191/299/183
f 194/388/186 54/66/54 45/64/45
f 196/385/188 195/389/187 45/64/45
f 47/75/47 200/186/192 199/390/191
f 201/391/193 66/544/64 202/302/194
f 47/75/47 66/83/64 201/187/193
f 198/185/190 204/514/196 208/190/200
f 208/190/200 67/82/65 199/390/191
f 203/303/195 70/545/68 216/392/208
f 68/79/66 48/81/48 207/393/199
f 67/82/65 208/190/200 207/189/199
f 205/395/197 209/516/201 213/193/205
f 213/193/205 68/79/66 206/394/198
f 69/77/67 49/78/49 212/396/204
f 68/79/66 213/193/205 212/192/204
f 210/398/202 214/185/206 218/196/210
f 218/196/210 69/77/67 211/397/203
f 50/75/50 217/195/209 216/399/208
f 50/75/50 69/77/67 218/196/210
f 83/92/81 246/546/238 245/405/237
f 245/405/237 229/547/221 233/406/225
f 232/407/224 231/548/223 81/91/79
f 81/91/79 231/548/223 230/408/222
f 230/408/222 234/549/226 238/409/230
f 233/410/225 232/407/224 72/90/70
f 237/411/229 71/95/69 81/91/79
f 237/412/229 236/413/228 82/10/80
f 243/415/235 82/10/80 236/413/228
f 236/413/228 235/550/227 239/414/231
f 82/10/80 243/415/235 242/416/234
f 242/411/234 241/551/233 85/91/83
f 85/91/83 241/551/233 240/417/232
f 240/417/232 249/408/241 253/418/245
f 84/110/82 251/552/243 250/419/242
f 250/419/242 244/553/236 248/420/240
f 247/421/239 246/546/238 83/92/81
f 247/421/239 73/14/71 84/110/82
f 251/422/243 84/93/82 74/90/72
f 252/423/244 74/90/72 85/91/83
f 97/108/93 76/102/74 257/424/249
f 260/218/252 254/521/246 258/217/250
f 258/217/250 96/109/92 261/426/253
f 76/102/74 96/103/92 258/427/250
f 255/428/247 264/524/256 268/223/260
f 268/223/260 97/108/93 256/425/248
f 100/101/96 263/220/255 262/219/254
f 275/227/267 259/523/251 263/220/255
f 263/220/255 100/101/96 276/429/268
f 96/109/92 80/43/78 262/219/254
f 98/46/94 77/107/75 267/430/259
f 97/108/93 268/223/260 267/222/259
f 265/432/257 269/526/261 273/226/265
f 273/226/265 98/46/94 266/431/258
f 99/104/95 78/105/76 272/433/264
f 98/46/94 273/226/265 272/225/264
f 270/436/262 274/428/266 278/435/270
f 278/435/270 99/104/95 271/434/263
f 79/102/77 277/438/269 276/437/268
f 99/104/95 278/435/270 277/438/269
f 112/136/108 284/233/276 287/235/279
f 286/234/278 285/338/277 111/137/107
f 286/234/278 118/114/113 121/124/116
f 115/124/111 291/237/283 290/441/282
f 290/441/282 289/236/281 124/135/118
f 128/125/122 288/238/280 291/237/283
f 312/440/304 297/554/289 301/447/293
f 300/448/292 299/555/291 109/116/105
f 109/116/105 299/555/291 298/449/290
f 298/449/290 302/556/294 306/450/298
f 300/448/292 102/115/98 111/138/107
f 305/452/297 101/119/97 109/116/105
f 305/453/297 304/454/296 110/113/106
f 311/456/303 110/113/106 304/454/296
f 304/454/296 303/557/295 307/455/299
f 110/113/106 311/456/303 310/457/302
f 310/452/302 309/558/301 113/116/109
f 113/116/109 309/558/301 308/458/300
f 308/458/300 314/559/306 318/459/310
f 316/460/308 315/560/307 313/337/305
f 317/461/309 316/451/308 112/117/108
f 317/461/309 103/115/99 113/116/109
f 125/133/119 105/126/101 322/462/314
f 323/254/315 124/135/118 324/340/316
f 124/134/118 323/472/315 322/462/314
f 320/465/312 326/532/318 330/257/322
f 330/257/322 125/133/119 321/463/313
f 325/442/317 128/125/122 338/466/330
f 126/130/120 106/132/102 329/467/321
f 125/133/119 330/257/322 329/256/321
f 327/469/319 331/534/323 335/260/327
f 335/260/327 126/130/120 328/468/320
f 127/128/121 107/129/103 334/470/326
f 126/130/120 335/260/327 334/259/326
f 332/471/324 336/561/328 340/463/332
f 340/463/332 127/128/121 333/257/325
f 128/127/122 108/126/104 339/462/331
f 127/128/121 340/463/332 339/462/331
f 140/161/134 346/267/338 349/269/341
f 348/268/340 347/356/339 139/162/133
f 348/268/340 146/141/139 149/151/142
f 143/151/137 353/272/345 352/271/344
f 352/271/344 351/358/343 152/160/144
f 156/152/148 350/270/342 353/272/345
f 374/474/366 359/562/351 363/478/355
f 362/479/354 361/563/353 137/143/131
f 137/143/131 361/563/353 360/480/352
f 360/480/352 364/490/356 368/481/360
f 362/479/354 130/142/124 139/144/133
f 367/483/359 129/146/123 137/143/131
f 367/484/359 366/485/358 138/140/132
f 373/487/365 138/140/132 366/485/358
f 366/485/358 365/564/357 369/486/361
f 138/140/132 373/487/365 372/488/364
f 372/489/364 371/565/363 141/143/135
f 141/143/135 371/565/363 370/490/362
f 370/490/362 376/480/368 380/491/372
f 378/492/370 377/566/369 375/355/367
f 379/493/371 378/567/370 140/144/134
f 379/493/371 131/142/125 141/143/135
f 153/155/145 133/153/127 384/494/376
f 385/496/377 152/160/144 386/475/378
f 152/154/144 385/568/377 384/494/376
f 382/499/374 388/569/380 392/498/384
f 392/498/384 153/155/145 383/495/375
f 387/357/379 156/152/148 400/500/392
f 154/157/146 134/159/128 391/502/383
f 153/155/145 392/498/384 391/504/383
f 389/506/381 393/570/385 397/505/389
f 397/505/389 154/157/146 390/503/382
f 155/155/147 135/156/129 396/507/388
f 154/157/146 397/505/389 396/509/388
f 394/510/386 398/571/390 402/495/394
f 402/495/394 155/155/147 395/508/387
f 156/154/148 136/153/130 401/511/393
f 155/155/147 402/495/394 401/511/393
