# Asterra barn
o scenery_barn
v -3.20000 0.00000 -2.10000
v 3.20000 0.00000 -2.10000
v 3.20000 0.00000 2.10000
v -3.20000 0.00000 2.10000
v -3.20000 2.60000 -2.10000
v 3.20000 2.60000 -2.10000
v 3.20000 2.60000 2.10000
v -3.20000 2.60000 2.10000
v -3.40000 2.60000 -2.30000
v 3.40000 2.60000 -2.30000
v 3.40000 2.60000 2.30000
v -3.40000 2.60000 2.30000
v -3.40000 3.80000 -2.30000
v 3.40000 3.80000 -2.30000
v 3.40000 3.80000 2.30000
v -3.40000 3.80000 2.30000
v -0.80000 0.90000 2.05000
v 0.80000 0.90000 2.05000
v 0.80000 0.90000 2.25000
v -0.80000 0.90000 2.25000
v -0.80000 2.50000 2.05000
v 0.80000 2.50000 2.05000
v 0.80000 2.50000 2.25000
v -0.80000 2.50000 2.25000
v -2.65000 2.80000 -0.25000
v -2.15000 2.80000 -0.25000
v -2.15000 2.80000 0.25000
v -2.65000 2.80000 0.25000
v -2.65000 4.20000 -0.25000
v -2.15000 4.20000 -0.25000
v -2.15000 4.20000 0.25000
v -2.65000 4.20000 0.25000
f 1 2 3
f 1 3 4
f 5 8 7
f 5 7 6
f 1 5 6
f 1 6 2
f 4 3 7
f 4 7 8
f 1 4 8
f 1 8 5
f 2 6 7
f 2 7 3
f 9 10 11
f 9 11 12
f 13 16 15
f 13 15 14
f 9 13 14
f 9 14 10
f 12 11 15
f 12 15 16
f 9 12 16
f 9 16 13
f 10 14 15
f 10 15 11
f 17 18 19
f 17 19 20
f 21 24 23
f 21 23 22
f 17 21 22
f 17 22 18
f 20 19 23
f 20 23 24
f 17 20 24
f 17 24 21
f 18 22 23
f 18 23 19
f 25 26 27
f 25 27 28
f 29 32 31
f 29 31 30
f 25 29 30
f 25 30 26
f 28 27 31
f 28 31 32
f 25 28 32
f 25 32 29
f 26 30 31
f 26 31 27
