# Asterra farmhouse and pen
o scenery_farm
v -2.60000 0.00000 -2.20000
v 2.60000 0.00000 -2.20000
v 2.60000 0.00000 2.20000
v -2.60000 0.00000 2.20000
v -2.60000 2.20000 -2.20000
v 2.60000 2.20000 -2.20000
v 2.60000 2.20000 2.20000
v -2.60000 2.20000 2.20000
v -2.80000 2.20000 -2.40000
v 2.80000 2.20000 -2.40000
v 2.80000 2.20000 2.40000
v -2.80000 2.20000 2.40000
v -2.80000 3.30000 -2.40000
v 2.80000 3.30000 -2.40000
v 2.80000 3.30000 2.40000
v -2.80000 3.30000 2.40000
v 1.65000 2.60000 -0.75000
v 2.35000 2.60000 -0.75000
v 2.35000 2.60000 -0.05000
v 1.65000 2.60000 -0.05000
v 1.65000 4.20000 -0.75000
v 2.35000 4.20000 -0.75000
v 2.35000 4.20000 -0.05000
v 1.65000 4.20000 -0.05000
v -3.10000 0.15000 -4.80000
v 3.10000 0.15000 -4.80000
v 3.10000 0.15000 -2.40000
v -3.10000 0.15000 -2.40000
v -3.10000 0.85000 -4.80000
v 3.10000 0.85000 -4.80000
v 3.10000 0.85000 -2.40000
v -3.10000 0.85000 -2.40000
v 1.05000 0.70000 -4.10000
v 2.55000 0.70000 -4.10000
v 2.55000 0.70000 -2.90000
v 1.05000 0.70000 -2.90000
v 1.05000 1.60000 -4.10000
v 2.55000 1.60000 -4.10000
v 2.55000 1.60000 -2.90000
v 1.05000 1.60000 -2.90000
f 1 2 3
f 1 3 4
f 5 8 7
f 5 7 6
f 1 5 6
f 1 6 2
f 4 3 7
f 4 7 8
f 1 4 8
f 1 8 5
f 2 6 7
f 2 7 3
f 9 10 11
f 9 11 12
f 13 16 15
f 13 15 14
f 9 13 14
f 9 14 10
f 12 11 15
f 12 15 16
f 9 12 16
f 9 16 13
f 10 14 15
f 10 15 11
f 17 18 19
f 17 19 20
f 21 24 23
f 21 23 22
f 17 21 22
f 17 22 18
f 20 19 23
f 20 23 24
f 17 20 24
f 17 24 21
f 18 22 23
f 18 23 19
f 25 26 27
f 25 27 28
f 29 32 31
f 29 31 30
f 25 29 30
f 25 30 26
f 28 27 31
f 28 31 32
f 25 28 32
f 25 32 29
f 26 30 31
f 26 31 27
f 33 34 35
f 33 35 36
f 37 40 39
f 37 39 38
f 33 37 38
f 33 38 34
f 36 35 39
f 36 39 40
f 33 36 40
f 33 40 37
f 34 38 39
f 34 39 35
