# Blender 5.2.0 LTS
# www.blender.org
o unit_outcast_nature_cub
v 0.000000 0.760000 0.000000
v 0.000000 0.080000 0.000000
v 0.320000 0.750000 0.000000
v 0.320000 0.350000 0.000000
v 0.106312 0.703579 -0.146326
v 0.091000 0.718516 -0.125251
v 0.099181 0.712457 -0.136511
v 0.181918 0.590000 -0.226040
v 0.158761 0.590000 -0.242864
v 0.166838 0.600607 -0.229633
v 0.171471 0.590000 -0.236010
v 0.208692 0.420000 -0.262892
v 0.185535 0.420000 -0.279716
v 0.198246 0.420000 -0.272862
v 0.158761 0.250000 -0.242864
v 0.181918 0.250000 -0.226040
v 0.166838 0.239393 -0.229633
v 0.171471 0.250000 -0.236010
v 0.091000 0.121484 -0.125251
v 0.106312 0.136421 -0.146326
v 0.099181 0.127543 -0.136511
v 0.147242 0.718516 -0.047842
v 0.172017 0.703579 -0.055892
v 0.160479 0.712457 -0.052143
v 0.280037 0.590000 -0.075941
v 0.271192 0.590000 -0.103164
v 0.269950 0.600607 -0.087712
v 0.277447 0.590000 -0.090148
v 0.323359 0.420000 -0.090018
v 0.314514 0.420000 -0.117240
v 0.320769 0.420000 -0.104224
v 0.271192 0.250000 -0.103164
v 0.280037 0.250000 -0.075941
v 0.269950 0.239393 -0.087712
v 0.277447 0.250000 -0.090148
v 0.172017 0.136421 -0.055892
v 0.147242 0.121484 -0.047842
v 0.160479 0.127543 -0.052143
v 0.147242 0.718516 0.047842
v 0.172017 0.703579 0.055892
v 0.160479 0.712457 0.052143
v 0.271192 0.590000 0.103164
v 0.280037 0.590000 0.075941
v 0.269950 0.600607 0.087712
v 0.277447 0.590000 0.090148
v 0.314514 0.420000 0.117240
v 0.323359 0.420000 0.090018
v 0.320769 0.420000 0.104224
v 0.280037 0.250000 0.075941
v 0.271192 0.250000 0.103164
v 0.269950 0.239393 0.087712
v 0.277447 0.250000 0.090148
v 0.172017 0.136421 0.055892
v 0.147242 0.121484 0.047842
v 0.160479 0.127543 0.052143
v 0.091000 0.718516 0.125251
v 0.106312 0.703579 0.146326
v 0.099181 0.712457 0.136511
v 0.158761 0.590000 0.242864
v 0.181918 0.590000 0.226040
v 0.166838 0.600607 0.229633
v 0.171471 0.590000 0.236010
v 0.185535 0.420000 0.279716
v 0.208692 0.420000 0.262892
v 0.198246 0.420000 0.272862
v 0.181918 0.250000 0.226040
v 0.158761 0.250000 0.242864
v 0.166838 0.239393 0.229633
v 0.171471 0.250000 0.236010
v 0.106312 0.136421 0.146326
v 0.091000 0.121484 0.125251
v 0.099181 0.127543 0.136511
v 0.000000 0.718516 0.154819
v 0.000000 0.703579 0.180869
v 0.000000 0.712457 0.168737
v -0.014312 0.590000 0.289799
v 0.014312 0.590000 0.289799
v 0.000000 0.600607 0.283842
v 0.000000 0.590000 0.291725
v -0.014312 0.420000 0.335350
v 0.014312 0.420000 0.335350
v 0.000000 0.420000 0.337276
v 0.014312 0.250000 0.289799
v -0.014312 0.250000 0.289799
v 0.000000 0.239393 0.283842
v 0.000000 0.250000 0.291725
v 0.000000 0.136421 0.180869
v 0.000000 0.121484 0.154819
v 0.000000 0.127543 0.168737
v -0.091000 0.718516 0.125251
v -0.106312 0.703579 0.146326
v -0.099181 0.712457 0.136511
v -0.181918 0.590000 0.226040
v -0.158761 0.590000 0.242864
v -0.166838 0.600607 0.229633
v -0.171471 0.590000 0.236010
v -0.208692 0.420000 0.262892
v -0.185535 0.420000 0.279716
v -0.198246 0.420000 0.272862
v -0.158761 0.250000 0.242864
v -0.181918 0.250000 0.226040
v -0.166838 0.239393 0.229633
v -0.171471 0.250000 0.236010
v -0.106312 0.136421 0.146326
v -0.091000 0.121484 0.125251
v -0.099181 0.127543 0.136511
v -0.147242 0.718516 0.047842
v -0.172017 0.703579 0.055892
v -0.160479 0.712457 0.052143
v -0.280037 0.590000 0.075941
v -0.271192 0.590000 0.103164
v -0.269950 0.600607 0.087712
v -0.277447 0.590000 0.090148
v -0.323359 0.420000 0.090018
v -0.314514 0.420000 0.117240
v -0.320769 0.420000 0.104224
v -0.271192 0.250000 0.103164
v -0.280037 0.250000 0.075941
v -0.269950 0.239393 0.087712
v -0.277447 0.250000 0.090148
v -0.172017 0.136421 0.055892
v -0.147242 0.121484 0.047842
v -0.160479 0.127543 0.052143
v -0.147242 0.718516 -0.047842
v -0.172017 0.703579 -0.055892
v -0.160479 0.712457 -0.052143
v -0.271192 0.590000 -0.103164
v -0.280037 0.590000 -0.075941
v -0.269950 0.600607 -0.087712
v -0.277447 0.590000 -0.090148
v -0.314514 0.420000 -0.117240
v -0.323359 0.420000 -0.090018
v -0.320769 0.420000 -0.104224
v -0.280037 0.250000 -0.075941
v -0.271192 0.250000 -0.103164
v -0.269950 0.239393 -0.087712
v -0.277447 0.250000 -0.090148
v -0.172017 0.136421 -0.055892
v -0.147242 0.121484 -0.047842
v -0.160479 0.127543 -0.052143
v -0.091000 0.718516 -0.125251
v -0.106312 0.703579 -0.146326
v -0.099181 0.712457 -0.136511
v -0.158761 0.590000 -0.242864
v -0.181918 0.590000 -0.226040
v -0.166838 0.600607 -0.229633
v -0.171472 0.590000 -0.236010
v -0.185535 0.420000 -0.279716
v -0.208692 0.420000 -0.262892
v -0.198246 0.420000 -0.272862
v -0.181918 0.250000 -0.226040
v -0.158761 0.250000 -0.242864
v -0.166838 0.239393 -0.229633
v -0.171472 0.250000 -0.236010
v -0.106312 0.136421 -0.146326
v -0.091000 0.121484 -0.125251
v -0.099181 0.127543 -0.136511
v -0.000000 0.718516 -0.154819
v -0.000000 0.703579 -0.180869
v -0.000000 0.712457 -0.168737
v 0.014312 0.590000 -0.289799
v -0.014312 0.590000 -0.289799
v -0.000000 0.600607 -0.283842
v -0.000000 0.590000 -0.291725
v 0.014312 0.420000 -0.335350
v -0.014312 0.420000 -0.335350
v -0.000000 0.420000 -0.337276
v -0.014312 0.250000 -0.289799
v 0.014312 0.250000 -0.289799
v -0.000000 0.239393 -0.283842
v -0.000000 0.250000 -0.291725
v -0.000000 0.136421 -0.180869
v -0.000000 0.121484 -0.154819
v -0.000000 0.127543 -0.168737
v 0.305837 0.712187 -0.105151
v 0.320000 0.727383 -0.084407
v 0.334163 0.712187 -0.105151
v 0.312584 0.721202 -0.095588
v 0.320000 0.719504 -0.099243
v 0.327416 0.721202 -0.095588
v 0.320000 0.713402 -0.106366
v 0.334153 0.650000 -0.167343
v 0.305847 0.650000 -0.167343
v 0.320000 0.650000 -0.169771
v 0.334145 0.550000 -0.194141
v 0.305855 0.550000 -0.194141
v 0.320000 0.550000 -0.196568
v 0.334153 0.450000 -0.167343
v 0.305847 0.450000 -0.167343
v 0.320000 0.450000 -0.169771
v 0.305837 0.387813 -0.105151
v 0.334163 0.387813 -0.105151
v 0.320000 0.372617 -0.084407
v 0.320000 0.386598 -0.106366
v 0.320000 0.380496 -0.099243
v 0.327416 0.378798 -0.095588
v 0.312584 0.378798 -0.095588
v 0.404368 0.712187 -0.064339
v 0.384339 0.712187 -0.084368
v 0.379685 0.727383 -0.059685
v 0.395212 0.713402 -0.075212
v 0.390175 0.719504 -0.070175
v 0.382347 0.721202 -0.072835
v 0.392835 0.721202 -0.062347
v 0.448337 0.650000 -0.108321
v 0.428321 0.650000 -0.128337
v 0.440046 0.650000 -0.120046
v 0.467280 0.550000 -0.127277
v 0.447277 0.550000 -0.147280
v 0.458995 0.550000 -0.138995
v 0.448337 0.450000 -0.108321
v 0.428321 0.450000 -0.128337
v 0.440046 0.450000 -0.120046
v 0.404368 0.387813 -0.064339
v 0.379685 0.372617 -0.059685
v 0.384339 0.387813 -0.084368
v 0.392835 0.378798 -0.062347
v 0.390175 0.380496 -0.070175
v 0.382347 0.378798 -0.072835
v 0.395212 0.386598 -0.075212
v 0.425151 0.712187 0.014163
v 0.425151 0.712187 -0.014163
v 0.404407 0.727383 0.000000
v 0.426366 0.713402 0.000000
v 0.419243 0.719504 0.000000
v 0.415588 0.721202 -0.007416
v 0.415588 0.721202 0.007416
v 0.487343 0.650000 0.014153
v 0.487343 0.650000 -0.014153
v 0.489771 0.650000 0.000000
v 0.514141 0.550000 0.014144
v 0.514141 0.550000 -0.014144
v 0.516568 0.550000 0.000000
v 0.487343 0.450000 0.014153
v 0.487343 0.450000 -0.014153
v 0.489771 0.450000 0.000000
v 0.425151 0.387813 0.014163
v 0.404407 0.372617 0.000000
v 0.425151 0.387813 -0.014163
v 0.415588 0.378798 0.007416
v 0.419243 0.380496 -0.000000
v 0.415588 0.378798 -0.007416
v 0.426366 0.386598 0.000000
v 0.384339 0.712187 0.084368
v 0.404368 0.712187 0.064339
v 0.379685 0.727383 0.059685
v 0.395212 0.713402 0.075212
v 0.390175 0.719504 0.070175
v 0.392835 0.721202 0.062347
v 0.382347 0.721202 0.072835
v 0.428321 0.650000 0.128337
v 0.448337 0.650000 0.108321
v 0.440046 0.650000 0.120046
v 0.447277 0.550000 0.147280
v 0.467280 0.550000 0.127277
v 0.458995 0.550000 0.138995
v 0.428321 0.450000 0.128337
v 0.448337 0.450000 0.108321
v 0.440046 0.450000 0.120046
v 0.384339 0.387813 0.084368
v 0.379685 0.372617 0.059685
v 0.404368 0.387813 0.064339
v 0.382347 0.378798 0.072835
v 0.390175 0.380496 0.070175
v 0.392835 0.378798 0.062347
v 0.395212 0.386598 0.075212
v 0.305837 0.712187 0.105151
v 0.334163 0.712187 0.105151
v 0.320000 0.727383 0.084407
v 0.320000 0.713402 0.106366
v 0.320000 0.719504 0.099243
v 0.327416 0.721202 0.095588
v 0.312584 0.721202 0.095588
v 0.305847 0.650000 0.167343
v 0.334153 0.650000 0.167343
v 0.320000 0.650000 0.169771
v 0.305855 0.550000 0.194141
v 0.334145 0.550000 0.194141
v 0.320000 0.550000 0.196568
v 0.305847 0.450000 0.167343
v 0.334153 0.450000 0.167343
v 0.320000 0.450000 0.169771
v 0.305837 0.387813 0.105151
v 0.320000 0.372617 0.084407
v 0.334163 0.387813 0.105151
v 0.312584 0.378798 0.095588
v 0.320000 0.380496 0.099243
v 0.327416 0.378798 0.095588
v 0.320000 0.386598 0.106366
v 0.235632 0.712187 0.064339
v 0.255661 0.712187 0.084368
v 0.260315 0.727383 0.059685
v 0.244788 0.713402 0.075212
v 0.249825 0.719504 0.070175
v 0.257653 0.721202 0.072835
v 0.247165 0.721202 0.062347
v 0.191663 0.650000 0.108321
v 0.211679 0.650000 0.128337
v 0.199954 0.650000 0.120046
v 0.172720 0.550000 0.127277
v 0.192723 0.550000 0.147280
v 0.181005 0.550000 0.138995
v 0.191663 0.450000 0.108321
v 0.211679 0.450000 0.128337
v 0.199954 0.450000 0.120046
v 0.235632 0.387813 0.064339
v 0.260315 0.372617 0.059685
v 0.255661 0.387813 0.084368
v 0.247165 0.378798 0.062347
v 0.249825 0.380496 0.070175
v 0.257653 0.378798 0.072835
v 0.244788 0.386598 0.075212
v 0.214849 0.712187 -0.014163
v 0.214849 0.712187 0.014163
v 0.235593 0.727383 0.000000
v 0.213634 0.713402 -0.000000
v 0.220757 0.719504 0.000000
v 0.224412 0.721202 0.007416
v 0.224412 0.721202 -0.007416
v 0.152657 0.650000 -0.014153
v 0.152657 0.650000 0.014153
v 0.150229 0.650000 0.000000
v 0.125859 0.550000 -0.014144
v 0.125859 0.550000 0.014144
v 0.123432 0.550000 0.000000
v 0.152657 0.450000 -0.014153
v 0.152657 0.450000 0.014153
v 0.150229 0.450000 0.000000
v 0.214849 0.387813 -0.014163
v 0.235593 0.372617 0.000000
v 0.214849 0.387813 0.014163
v 0.224412 0.378798 -0.007416
v 0.220757 0.380496 0.000000
v 0.224412 0.378798 0.007416
v 0.213634 0.386598 0.000000
v 0.255661 0.712187 -0.084368
v 0.235632 0.712187 -0.064339
v 0.260315 0.727383 -0.059685
v 0.244788 0.713402 -0.075212
v 0.249825 0.719504 -0.070175
v 0.247165 0.721202 -0.062347
v 0.257653 0.721202 -0.072835
v 0.211679 0.650000 -0.128337
v 0.191663 0.650000 -0.108321
v 0.199954 0.650000 -0.120046
v 0.192723 0.550000 -0.147280
v 0.172720 0.550000 -0.127277
v 0.181005 0.550000 -0.138995
v 0.211679 0.450000 -0.128337
v 0.191663 0.450000 -0.108321
v 0.199954 0.450000 -0.120046
v 0.255661 0.387813 -0.084368
v 0.260315 0.372617 -0.059685
v 0.235632 0.387813 -0.064339
v 0.257653 0.378798 -0.072835
v 0.249825 0.380496 -0.070175
v 0.247165 0.378798 -0.062347
v 0.244788 0.386598 -0.075212
v 0.240000 0.660000 -0.115000
v 0.240000 0.675000 -0.100000
v 0.225000 0.675000 -0.115000
v 0.240000 0.664393 -0.104393
v 0.231340 0.666340 -0.106340
v 0.229393 0.675000 -0.104393
v 0.229393 0.664393 -0.115000
v 0.240000 0.765000 -0.100000
v 0.240000 0.780000 -0.115000
v 0.225000 0.765000 -0.115000
v 0.240000 0.775607 -0.104393
v 0.231340 0.773660 -0.106340
v 0.229393 0.775607 -0.115000
v 0.229393 0.765000 -0.104393
v 0.240000 0.660000 -0.125000
v 0.225000 0.675000 -0.125000
v 0.240000 0.675000 -0.140000
v 0.229393 0.664393 -0.125000
v 0.231340 0.666340 -0.133660
v 0.229393 0.675000 -0.135607
v 0.240000 0.664393 -0.135607
v 0.240000 0.780000 -0.125000
v 0.240000 0.765000 -0.140000
v 0.225000 0.765000 -0.125000
v 0.240000 0.775607 -0.135607
v 0.231340 0.773660 -0.133660
v 0.229393 0.765000 -0.135607
v 0.229393 0.775607 -0.125000
v 0.280000 0.660000 -0.115000
v 0.295000 0.675000 -0.115000
v 0.280000 0.675000 -0.100000
v 0.290607 0.664393 -0.115000
v 0.288660 0.666340 -0.106340
v 0.290607 0.675000 -0.104393
v 0.280000 0.664393 -0.104393
v 0.280000 0.780000 -0.115000
v 0.280000 0.765000 -0.100000
v 0.295000 0.765000 -0.115000
v 0.280000 0.775607 -0.104393
v 0.288660 0.773660 -0.106340
v 0.290607 0.765000 -0.104393
v 0.290607 0.775607 -0.115000
v 0.280000 0.660000 -0.125000
v 0.280000 0.675000 -0.140000
v 0.295000 0.675000 -0.125000
v 0.280000 0.664393 -0.135607
v 0.288660 0.666340 -0.133660
v 0.290607 0.675000 -0.135607
v 0.290607 0.664393 -0.125000
v 0.280000 0.780000 -0.125000
v 0.295000 0.765000 -0.125000
v 0.280000 0.765000 -0.140000
v 0.290607 0.775607 -0.125000
v 0.288660 0.773660 -0.133660
v 0.290607 0.765000 -0.135607
v 0.280000 0.775607 -0.135607
v 0.240000 0.660000 0.125000
v 0.240000 0.675000 0.140000
v 0.225000 0.675000 0.125000
v 0.240000 0.664393 0.135607
v 0.231340 0.666340 0.133660
v 0.229393 0.675000 0.135607
v 0.229393 0.664393 0.125000
v 0.240000 0.765000 0.140000
v 0.240000 0.780000 0.125000
v 0.225000 0.765000 0.125000
v 0.240000 0.775607 0.135607
v 0.231340 0.773660 0.133660
v 0.229393 0.775607 0.125000
v 0.229393 0.765000 0.135607
v 0.240000 0.660000 0.115000
v 0.225000 0.675000 0.115000
v 0.240000 0.675000 0.100000
v 0.229393 0.664393 0.115000
v 0.231340 0.666340 0.106340
v 0.229393 0.675000 0.104393
v 0.240000 0.664393 0.104393
v 0.240000 0.780000 0.115000
v 0.240000 0.765000 0.100000
v 0.225000 0.765000 0.115000
v 0.240000 0.775607 0.104393
v 0.231340 0.773660 0.106340
v 0.229393 0.765000 0.104393
v 0.229393 0.775607 0.115000
v 0.280000 0.660000 0.125000
v 0.295000 0.675000 0.125000
v 0.280000 0.675000 0.140000
v 0.290607 0.664393 0.125000
v 0.288660 0.666340 0.133660
v 0.290607 0.675000 0.135607
v 0.280000 0.664393 0.135607
v 0.280000 0.780000 0.125000
v 0.280000 0.765000 0.140000
v 0.295000 0.765000 0.125000
v 0.280000 0.775607 0.135607
v 0.288660 0.773660 0.133660
v 0.290607 0.765000 0.135607
v 0.290607 0.775607 0.125000
v 0.280000 0.660000 0.115000
v 0.280000 0.675000 0.100000
v 0.295000 0.675000 0.115000
v 0.280000 0.664393 0.104393
v 0.288660 0.666340 0.106340
v 0.290607 0.675000 0.104393
v 0.290607 0.664393 0.115000
v 0.280000 0.780000 0.115000
v 0.295000 0.765000 0.115000
v 0.280000 0.765000 0.100000
v 0.290607 0.775607 0.115000
v 0.288660 0.773660 0.106340
v 0.290607 0.765000 0.104393
v 0.280000 0.775607 0.104393
v -0.175000 0.070000 -0.115000
v -0.175000 0.085000 -0.100000
v -0.190000 0.085000 -0.115000
v -0.175000 0.074393 -0.104393
v -0.183660 0.076340 -0.106340
v -0.185607 0.085000 -0.104393
v -0.185607 0.074393 -0.115000
v -0.175000 0.155000 -0.100000
v -0.175000 0.170000 -0.115000
v -0.190000 0.155000 -0.115000
v -0.175000 0.165607 -0.104393
v -0.183660 0.163660 -0.106340
v -0.185607 0.165607 -0.115000
v -0.185607 0.155000 -0.104393
v -0.175000 0.070000 -0.245000
v -0.190000 0.085000 -0.245000
v -0.175000 0.085000 -0.260000
v -0.185607 0.074393 -0.245000
v -0.183660 0.076340 -0.253660
v -0.185607 0.085000 -0.255607
v -0.175000 0.074393 -0.255607
v -0.175000 0.170000 -0.245000
v -0.175000 0.155000 -0.260000
v -0.190000 0.155000 -0.245000
v -0.175000 0.165607 -0.255607
v -0.183660 0.163660 -0.253660
v -0.185607 0.155000 -0.255607
v -0.185607 0.165607 -0.245000
v -0.065000 0.070000 -0.115000
v -0.050000 0.085000 -0.115000
v -0.065000 0.085000 -0.100000
v -0.054393 0.074393 -0.115000
v -0.056340 0.076340 -0.106340
v -0.054393 0.085000 -0.104393
v -0.065000 0.074393 -0.104393
v -0.065000 0.170000 -0.115000
v -0.065000 0.155000 -0.100000
v -0.050000 0.155000 -0.115000
v -0.065000 0.165607 -0.104393
v -0.056340 0.163660 -0.106340
v -0.054393 0.155000 -0.104393
v -0.054393 0.165607 -0.115000
v -0.065000 0.070000 -0.245000
v -0.065000 0.085000 -0.260000
v -0.050000 0.085000 -0.245000
v -0.065000 0.074393 -0.255607
v -0.056340 0.076340 -0.253660
v -0.054393 0.085000 -0.255607
v -0.054393 0.074393 -0.245000
v -0.065000 0.170000 -0.245000
v -0.050000 0.155000 -0.245000
v -0.065000 0.155000 -0.260000
v -0.054393 0.165607 -0.245000
v -0.056340 0.163660 -0.253660
v -0.054393 0.155000 -0.255607
v -0.065000 0.165607 -0.255607
v 0.065000 0.070000 -0.115000
v 0.065000 0.085000 -0.100000
v 0.050000 0.085000 -0.115000
v 0.065000 0.074393 -0.104393
v 0.056340 0.076340 -0.106340
v 0.054393 0.085000 -0.104393
v 0.054393 0.074393 -0.115000
v 0.065000 0.155000 -0.100000
v 0.065000 0.170000 -0.115000
v 0.050000 0.155000 -0.115000
v 0.065000 0.165607 -0.104393
v 0.056340 0.163660 -0.106340
v 0.054393 0.165607 -0.115000
v 0.054393 0.155000 -0.104393
v 0.065000 0.070000 -0.245000
v 0.050000 0.085000 -0.245000
v 0.065000 0.085000 -0.260000
v 0.054393 0.074393 -0.245000
v 0.056340 0.076340 -0.253660
v 0.054393 0.085000 -0.255607
v 0.065000 0.074393 -0.255607
v 0.065000 0.170000 -0.245000
v 0.065000 0.155000 -0.260000
v 0.050000 0.155000 -0.245000
v 0.065000 0.165607 -0.255607
v 0.056340 0.163660 -0.253660
v 0.054393 0.155000 -0.255607
v 0.054393 0.165607 -0.245000
v 0.175000 0.070000 -0.115000
v 0.190000 0.085000 -0.115000
v 0.175000 0.085000 -0.100000
v 0.185607 0.074393 -0.115000
v 0.183660 0.076340 -0.106340
v 0.185607 0.085000 -0.104393
v 0.175000 0.074393 -0.104393
v 0.175000 0.170000 -0.115000
v 0.175000 0.155000 -0.100000
v 0.190000 0.155000 -0.115000
v 0.175000 0.165607 -0.104393
v 0.183660 0.163660 -0.106340
v 0.185607 0.155000 -0.104393
v 0.185607 0.165607 -0.115000
v 0.175000 0.070000 -0.245000
v 0.175000 0.085000 -0.260000
v 0.190000 0.085000 -0.245000
v 0.175000 0.074393 -0.255607
v 0.183660 0.076340 -0.253660
v 0.185607 0.085000 -0.255607
v 0.185607 0.074393 -0.245000
v 0.175000 0.170000 -0.245000
v 0.190000 0.155000 -0.245000
v 0.175000 0.155000 -0.260000
v 0.185607 0.165607 -0.245000
v 0.183660 0.163660 -0.253660
v 0.185607 0.155000 -0.255607
v 0.175000 0.165607 -0.255607
vn 0.6764 0.4674 -0.5692
vn 0.5309 0.4293 -0.7307
vn 0.4325 0.6771 -0.5953
vn 0.3323 0.4674 -0.8192
vn 0.3323 -0.4674 -0.8192
vn 0.5309 -0.4293 -0.7307
vn 0.4325 -0.6771 -0.5953
vn 0.6764 -0.4674 -0.5692
vn 0.8818 0.4674 -0.0629
vn 0.8590 0.4293 -0.2791
vn 0.6998 0.6771 -0.2274
vn 0.7504 0.4674 -0.4674
vn 0.7504 -0.4674 -0.4674
vn 0.8590 -0.4293 -0.2791
vn 0.6998 -0.6771 -0.2274
vn 0.8818 -0.4674 -0.0629
vn 0.7504 0.4674 0.4674
vn 0.8590 0.4293 0.2791
vn 0.6998 0.6771 0.2274
vn 0.8818 0.4674 0.0629
vn 0.8818 -0.4674 0.0629
vn 0.8590 -0.4293 0.2791
vn 0.6998 -0.6771 0.2274
vn 0.7504 -0.4674 0.4674
vn 0.3323 0.4674 0.8192
vn 0.5309 0.4293 0.7307
vn 0.4325 0.6771 0.5953
vn 0.6764 0.4674 0.5692
vn 0.6764 -0.4674 0.5692
vn 0.5309 -0.4293 0.7307
vn 0.4325 -0.6771 0.5953
vn 0.3323 -0.4674 0.8192
vn -0.2126 0.4674 0.8581
vn -0.0000 0.4293 0.9032
vn -0.0000 0.6771 0.7358
vn 0.2126 0.4674 0.8581
vn 0.2126 -0.4674 0.8581
vn -0.0000 -0.4293 0.9032
vn -0.0000 -0.6771 0.7358
vn -0.2126 -0.4674 0.8581
vn -0.6764 0.4674 0.5692
vn -0.5309 0.4293 0.7307
vn -0.4325 0.6771 0.5953
vn -0.3323 0.4674 0.8192
vn -0.3323 -0.4674 0.8192
vn -0.5309 -0.4293 0.7307
vn -0.4325 -0.6771 0.5953
vn -0.6764 -0.4674 0.5692
vn -0.8818 0.4674 0.0629
vn -0.8590 0.4293 0.2791
vn -0.6998 0.6771 0.2274
vn -0.7504 0.4674 0.4674
vn -0.7504 -0.4674 0.4674
vn -0.8590 -0.4293 0.2791
vn -0.6998 -0.6771 0.2274
vn -0.8818 -0.4674 0.0629
vn -0.7504 0.4674 -0.4674
vn -0.8590 0.4293 -0.2791
vn -0.6998 0.6771 -0.2274
vn -0.8818 0.4674 -0.0629
vn -0.8818 -0.4674 -0.0629
vn -0.8590 -0.4293 -0.2791
vn -0.6998 -0.6771 -0.2274
vn -0.7504 -0.4674 -0.4674
vn -0.3323 0.4674 -0.8192
vn -0.5309 0.4293 -0.7307
vn -0.4325 0.6771 -0.5953
vn -0.6764 0.4674 -0.5692
vn -0.6764 -0.4674 -0.5692
vn -0.5309 -0.4293 -0.7307
vn -0.4325 -0.6771 -0.5953
vn -0.3323 -0.4674 -0.8192
vn 0.2126 0.4674 -0.8581
vn -0.0000 0.4293 -0.9032
vn -0.0000 0.6771 -0.7358
vn -0.2126 0.4674 -0.8581
vn -0.2126 -0.4674 -0.8581
vn -0.0000 -0.4293 -0.9032
vn -0.0000 -0.6771 -0.7358
vn 0.2126 -0.4674 -0.8581
vn -0.2023 0.7319 -0.6507
vn -0.0000 0.8110 -0.5851
vn -0.0000 0.7338 -0.6794
vn -0.0000 0.9337 -0.3580
vn -0.1404 0.8455 -0.5152
vn 0.2023 0.7319 -0.6507
vn 0.1404 0.8455 -0.5152
vn -0.2023 -0.7319 -0.6507
vn -0.0000 -0.8110 -0.5851
vn -0.1404 -0.8455 -0.5152
vn 0.2023 -0.7319 -0.6507
vn -0.0000 -0.7338 -0.6794
vn -0.0000 -0.9337 -0.3580
vn 0.1404 -0.8455 -0.5152
vn 0.6032 0.7319 -0.3171
vn 0.4137 0.8110 -0.4137
vn 0.4635 0.8455 -0.2650
vn 0.3171 0.7319 -0.6032
vn 0.4804 0.7338 -0.4804
vn 0.2531 0.9337 -0.2531
vn 0.2650 0.8455 -0.4635
vn 0.6032 -0.7319 -0.3171
vn 0.4137 -0.8110 -0.4137
vn 0.4804 -0.7338 -0.4804
vn 0.2531 -0.9337 -0.2531
vn 0.4635 -0.8455 -0.2650
vn 0.3171 -0.7319 -0.6032
vn 0.2650 -0.8455 -0.4635
vn 0.6507 0.7319 0.2023
vn 0.5851 0.8110 -0.0000
vn 0.5152 0.8455 0.1404
vn 0.6507 0.7319 -0.2023
vn 0.6794 0.7338 -0.0000
vn 0.3580 0.9337 -0.0000
vn 0.5152 0.8455 -0.1404
vn 0.6507 -0.7319 0.2023
vn 0.5851 -0.8110 -0.0000
vn 0.6794 -0.7338 -0.0000
vn 0.3580 -0.9337 -0.0000
vn 0.5152 -0.8455 0.1404
vn 0.6507 -0.7319 -0.2023
vn 0.5152 -0.8455 -0.1404
vn 0.3171 0.7319 0.6032
vn 0.4137 0.8110 0.4137
vn 0.2650 0.8455 0.4635
vn 0.6032 0.7319 0.3171
vn 0.4804 0.7338 0.4804
vn 0.2531 0.9337 0.2531
vn 0.4635 0.8455 0.2650
vn 0.3171 -0.7319 0.6032
vn 0.4137 -0.8110 0.4137
vn 0.4804 -0.7338 0.4804
vn 0.2531 -0.9337 0.2531
vn 0.2650 -0.8455 0.4635
vn 0.6032 -0.7319 0.3171
vn 0.4635 -0.8455 0.2650
vn -0.2023 0.7319 0.6507
vn -0.0000 0.8110 0.5851
vn -0.1404 0.8455 0.5152
vn 0.2023 0.7319 0.6507
vn -0.0000 0.7338 0.6794
vn -0.0000 0.9337 0.3580
vn 0.1404 0.8455 0.5152
vn -0.2023 -0.7319 0.6507
vn -0.0000 -0.8110 0.5851
vn -0.0000 -0.7338 0.6794
vn -0.0000 -0.9337 0.3580
vn -0.1404 -0.8455 0.5152
vn 0.2023 -0.7319 0.6507
vn 0.1404 -0.8455 0.5152
vn -0.6032 0.7319 0.3171
vn -0.4137 0.8110 0.4137
vn -0.4635 0.8455 0.2650
vn -0.3171 0.7319 0.6032
vn -0.4804 0.7338 0.4804
vn -0.2531 0.9337 0.2531
vn -0.2650 0.8455 0.4635
vn -0.6032 -0.7319 0.3171
vn -0.4137 -0.8110 0.4137
vn -0.4804 -0.7338 0.4804
vn -0.2531 -0.9337 0.2531
vn -0.4635 -0.8455 0.2650
vn -0.3171 -0.7319 0.6032
vn -0.2650 -0.8455 0.4635
vn -0.6507 0.7319 -0.2023
vn -0.5851 0.8110 -0.0000
vn -0.5152 0.8455 -0.1404
vn -0.6507 0.7319 0.2023
vn -0.6794 0.7338 -0.0000
vn -0.3580 0.9337 -0.0000
vn -0.5152 0.8455 0.1404
vn -0.6507 -0.7319 -0.2023
vn -0.5851 -0.8110 -0.0000
vn -0.6794 -0.7338 -0.0000
vn -0.3580 -0.9337 -0.0000
vn -0.5152 -0.8455 -0.1404
vn -0.6507 -0.7319 0.2023
vn -0.5152 -0.8455 0.1404
vn -0.3171 0.7319 -0.6032
vn -0.4137 0.8110 -0.4137
vn -0.2650 0.8455 -0.4635
vn -0.6032 0.7319 -0.3171
vn -0.4804 0.7338 -0.4804
vn -0.2531 0.9337 -0.2531
vn -0.4635 0.8455 -0.2650
vn -0.3171 -0.7319 -0.6032
vn -0.4137 -0.8110 -0.4137
vn -0.4804 -0.7338 -0.4804
vn -0.2531 -0.9337 -0.2531
vn -0.2650 -0.8455 -0.4635
vn -0.6032 -0.7319 -0.3171
vn -0.4635 -0.8455 -0.2650
vn -0.1794 -0.9673 0.1794
vn -0.3251 -0.8881 0.3251
vn -0.3791 -0.9152 0.1369
vn -0.1794 -0.1794 0.9673
vn -0.3251 -0.3251 0.8881
vn -0.1369 -0.3791 0.9152
vn -0.9673 -0.1794 0.1794
vn -0.8881 -0.3251 0.3251
vn -0.9152 -0.1369 0.3791
vn -0.1794 0.1794 0.9673
vn -0.3251 0.3251 0.8881
vn -0.3791 0.1369 0.9152
vn -0.1794 0.9673 0.1794
vn -0.3251 0.8881 0.3251
vn -0.1369 0.9152 0.3791
vn -0.9673 0.1794 0.1794
vn -0.8881 0.3251 0.3251
vn -0.9152 0.3791 0.1369
vn -0.1794 -0.9673 -0.1794
vn -0.3251 -0.8881 -0.3251
vn -0.1369 -0.9152 -0.3791
vn -0.9673 -0.1794 -0.1794
vn -0.8881 -0.3251 -0.3251
vn -0.9152 -0.3791 -0.1369
vn -0.1794 -0.1794 -0.9673
vn -0.3251 -0.3251 -0.8881
vn -0.3791 -0.1369 -0.9152
vn -0.1794 0.9673 -0.1794
vn -0.3251 0.8881 -0.3251
vn -0.3791 0.9152 -0.1369
vn -0.1794 0.1794 -0.9673
vn -0.3251 0.3251 -0.8881
vn -0.1369 0.3791 -0.9152
vn -0.9673 0.1794 -0.1794
vn -0.8881 0.3251 -0.3251
vn -0.9152 0.1369 -0.3791
vn 0.1794 -0.9673 0.1794
vn 0.3251 -0.8881 0.3251
vn 0.1369 -0.9152 0.3791
vn 0.9673 -0.1794 0.1794
vn 0.8881 -0.3251 0.3251
vn 0.9152 -0.3791 0.1369
vn 0.1794 -0.1794 0.9673
vn 0.3251 -0.3251 0.8881
vn 0.3791 -0.1369 0.9152
vn 0.1794 0.9673 0.1794
vn 0.3251 0.8881 0.3251
vn 0.3791 0.9152 0.1369
vn 0.1794 0.1794 0.9673
vn 0.3251 0.3251 0.8881
vn 0.1369 0.3791 0.9152
vn 0.9673 0.1794 0.1794
vn 0.8881 0.3251 0.3251
vn 0.9152 0.1369 0.3791
vn 0.1794 -0.9673 -0.1794
vn 0.3251 -0.8881 -0.3251
vn 0.3791 -0.9152 -0.1369
vn 0.1794 -0.1794 -0.9673
vn 0.3251 -0.3251 -0.8881
vn 0.1369 -0.3791 -0.9152
vn 0.9673 -0.1794 -0.1794
vn 0.8881 -0.3251 -0.3251
vn 0.9152 -0.1369 -0.3791
vn 0.1794 0.9673 -0.1794
vn 0.3251 0.8881 -0.3251
vn 0.1369 0.9152 -0.3791
vn 0.9673 0.1794 -0.1794
vn 0.8881 0.3251 -0.3251
vn 0.9152 0.3791 -0.1369
vn 0.1794 0.1794 -0.9673
vn 0.3251 0.3251 -0.8881
vn 0.3791 0.1369 -0.9152
vn 0.9152 -0.3791 0.1368
vn 0.7507 -0.0000 -0.6607
vn 0.3964 -0.0000 -0.9181
vn 0.5878 -0.0000 -0.8090
vn 0.9956 -0.0000 -0.0933
vn 0.8603 -0.0000 -0.5098
vn 0.9511 -0.0000 -0.3090
vn 0.6271 0.7518 -0.2038
vn 0.3022 0.8578 -0.4159
vn 0.4889 0.8578 -0.1589
vn 0.3262 0.9393 -0.1060
vn 0.6271 -0.7518 -0.2038
vn 0.3022 -0.8578 -0.4159
vn 0.3876 -0.7518 -0.5334
vn 0.4889 -0.8578 -0.1589
vn 0.2016 -0.9393 -0.2775
vn 0.8603 -0.0000 0.5098
vn 0.9956 -0.0000 0.0933
vn 0.9511 -0.0000 0.3090
vn 0.4889 -0.8578 0.1589
vn 0.3262 -0.9393 -0.1060
vn 0.3262 0.9393 0.1060
vn 0.4889 0.8578 0.1589
vn 0.3964 -0.0000 0.9181
vn 0.7507 -0.0000 0.6607
vn 0.5878 -0.0000 0.8090
vn 0.3876 -0.7518 0.5334
vn 0.6271 -0.7518 0.2037
vn 0.3022 -0.8578 0.4159
vn 0.3262 -0.9393 0.1060
vn 0.2016 0.9393 0.2775
vn 0.3022 0.8578 0.4159
vn 0.6271 0.7518 0.2037
vn -0.2190 -0.0000 0.9757
vn 0.2190 -0.0000 0.9757
vn -0.0000 -0.0000 1.0000
vn -0.0000 -0.7518 0.6593
vn -0.0000 -0.9393 0.3430
vn 0.2016 -0.9393 0.2775
vn -0.0000 0.8578 0.5141
vn 0.3876 0.7518 0.5334
vn -0.7507 -0.0000 0.6607
vn -0.3964 -0.0000 0.9181
vn -0.5878 -0.0000 0.8090
vn -0.2016 0.9393 0.2775
vn -0.0000 0.9393 0.3430
vn -0.3022 0.8578 0.4159
vn -0.0000 0.7518 0.6594
vn -0.2016 -0.9393 0.2775
vn -0.0000 -0.8578 0.5141
vn -0.3022 -0.8578 0.4159
vn -0.3876 -0.7518 0.5334
vn -0.9956 -0.0000 0.0933
vn -0.8603 -0.0000 0.5098
vn -0.9511 -0.0000 0.3090
vn -0.4889 0.8578 0.1589
vn -0.3876 0.7518 0.5334
vn -0.4889 -0.8578 0.1589
vn -0.3262 -0.9393 0.1060
vn -0.6271 -0.7518 0.2037
vn -0.8603 -0.0000 -0.5098
vn -0.9956 -0.0000 -0.0933
vn -0.9511 -0.0000 -0.3090
vn -0.3262 -0.9393 -0.1060
vn -0.4889 -0.8578 -0.1588
vn -0.6271 -0.7518 -0.2038
vn -0.6271 0.7518 0.2038
vn -0.4889 0.8578 -0.1589
vn -0.6271 0.7518 -0.2037
vn -0.3262 0.9393 -0.1060
vn -0.3964 -0.0000 -0.9181
vn -0.7507 -0.0000 -0.6607
vn -0.5878 -0.0000 -0.8090
vn -0.3022 -0.8578 -0.4159
vn -0.2016 -0.9393 -0.2775
vn -0.3876 -0.7518 -0.5334
vn -0.3022 0.8578 -0.4159
vn -0.3876 0.7518 -0.5334
vn -0.2016 0.9393 -0.2775
vn 0.2190 -0.0000 -0.9757
vn -0.2190 -0.0000 -0.9757
vn -0.0000 -0.0000 -1.0000
vn -0.0000 -0.9393 -0.3430
vn -0.0000 -0.8578 -0.5141
vn -0.0000 -0.7518 -0.6593
vn -0.0000 0.8578 -0.5141
vn -0.0000 0.7518 -0.6594
vn -0.0000 0.9393 -0.3430
vn 0.3876 0.7518 -0.5334
vn 0.2016 0.9393 -0.2775
vn 0.2416 0.4801 -0.8433
vn -0.2416 0.4801 -0.8433
vn 0.2728 -0.0000 -0.9621
vn -0.0000 0.4883 -0.8727
vn -0.2728 -0.0000 -0.9621
vn -0.0000 -0.4883 -0.8727
vn 0.2416 -0.4801 -0.8433
vn -0.2416 -0.4801 -0.8433
vn 0.7671 0.4801 -0.4254
vn 0.4254 0.4801 -0.7671
vn 0.8732 -0.0000 -0.4874
vn 0.6171 0.4883 -0.6171
vn 0.4874 -0.0000 -0.8732
vn 0.6171 -0.4883 -0.6171
vn 0.7071 -0.0000 -0.7071
vn 0.7671 -0.4801 -0.4254
vn 0.4254 -0.4801 -0.7671
vn 0.8433 0.4801 0.2416
vn 0.8433 0.4801 -0.2416
vn 0.9621 -0.0000 0.2728
vn 0.8727 0.4883 -0.0000
vn 0.9621 -0.0000 -0.2728
vn 0.8727 -0.4883 -0.0000
vn 1.0000 -0.0000 -0.0000
vn 0.8433 -0.4801 0.2416
vn 0.8433 -0.4801 -0.2416
vn 0.4254 0.4801 0.7671
vn 0.7671 0.4801 0.4254
vn 0.4874 -0.0000 0.8732
vn 0.6171 0.4883 0.6171
vn 0.8732 -0.0000 0.4874
vn 0.6171 -0.4883 0.6171
vn 0.7071 -0.0000 0.7071
vn 0.4254 -0.4801 0.7671
vn 0.7671 -0.4801 0.4254
vn -0.2416 0.4801 0.8433
vn 0.2416 0.4801 0.8433
vn -0.2728 -0.0000 0.9621
vn -0.0000 0.4883 0.8727
vn 0.2728 -0.0000 0.9621
vn -0.0000 -0.4883 0.8727
vn -0.2416 -0.4801 0.8433
vn 0.2416 -0.4801 0.8433
vn -0.7671 0.4801 0.4254
vn -0.4254 0.4801 0.7671
vn -0.8732 -0.0000 0.4874
vn -0.6171 0.4883 0.6171
vn -0.4874 -0.0000 0.8732
vn -0.6171 -0.4883 0.6171
vn -0.7071 -0.0000 0.7071
vn -0.7671 -0.4801 0.4254
vn -0.4254 -0.4801 0.7671
vn -0.8433 0.4801 -0.2416
vn -0.8433 0.4801 0.2416
vn -0.9621 -0.0000 -0.2728
vn -0.8727 0.4883 -0.0000
vn -0.9621 -0.0000 0.2728
vn -0.8727 -0.4883 -0.0000
vn -1.0000 -0.0000 -0.0000
vn -0.8433 -0.4801 -0.2416
vn -0.8433 -0.4801 0.2416
vn -0.4254 0.4801 -0.7671
vn -0.7671 0.4801 -0.4254
vn -0.4874 -0.0000 -0.8732
vn -0.6171 0.4883 -0.6171
vn -0.8732 -0.0000 -0.4874
vn -0.6171 -0.4883 -0.6171
vn -0.7071 -0.0000 -0.7071
vn -0.4254 -0.4801 -0.7671
vn -0.7671 -0.4801 -0.4254
vn -0.3791 -0.9152 -0.1369
vn -0.3791 -0.1369 0.9152
vn -0.9152 0.1369 0.3791
vn -0.3791 0.9152 0.1369
vn -0.9152 0.3791 -0.1369
vn -0.3791 0.1369 -0.9152
vn -0.9152 -0.1369 -0.3791
vn 0.1369 -0.9152 -0.3791
vn -0.1369 -0.3791 -0.9152
vn -0.1369 0.9152 -0.3791
vn 0.9152 0.1369 -0.3791
vn 0.3791 -0.1369 -0.9152
vn 0.3791 -0.9152 0.1369
vn 0.9152 -0.3791 -0.1368
vn 0.3791 0.9152 -0.1369
vn 0.3791 0.1369 0.9152
vn 0.9152 -0.1369 0.3791
vn -0.1369 -0.9152 0.3791
vn 0.1369 0.9152 0.3791
vn -0.1369 0.3791 0.9152
vn -0.9152 -0.3791 0.1369
vn 0.9152 0.3791 0.1369
vn 0.9152 -0.3791 -0.1369
vn 0.1369 -0.3791 0.9152
vn -0.0000 1.0000 -0.0000
vn -0.0000 -1.0000 -0.0000
vn -0.3262 0.9393 0.1060
vn 0.1369 0.3791 -0.9152
vt 0.636416 0.452385
vt 0.634169 0.445105
vt 0.640314 0.443558
vt 0.633714 0.437631
vt 0.501322 0.438033
vt 0.501658 0.430478
vt 0.508071 0.431689
vt 0.502468 0.423493
vt 0.681909 0.535592
vt 0.676283 0.530706
vt 0.681291 0.526846
vt 0.671894 0.524497
vt 0.514032 0.357066
vt 0.515385 0.351624
vt 0.521427 0.354965
vt 0.508273 0.289076
vt 0.507330 0.283289
vt 0.514570 0.286288
vt 0.761020 0.578661
vt 0.754164 0.578036
vt 0.757068 0.572897
vt 0.747517 0.575463
vt 0.500871 0.214033
vt 0.500606 0.206864
vt 0.507111 0.206297
vt 0.500871 0.199260
vt 0.709821 0.251684
vt 0.704513 0.255771
vt 0.699995 0.250979
vt 0.698796 0.258053
vt 0.507330 0.119413
vt 0.508273 0.112080
vt 0.514570 0.114074
vt 0.509645 0.105563
vt 0.767598 0.184496
vt 0.764635 0.191495
vt 0.758492 0.188440
vt 0.760468 0.197537
vt 0.074358 0.077605
vt 0.080596 0.074597
vt 0.080883 0.080543
vt 0.087663 0.073351
vt 0.789434 0.092288
vt 0.789946 0.099526
vt 0.783120 0.098955
vt 0.788921 0.107020
vt 0.164907 0.073351
vt 0.172290 0.074597
vt 0.170099 0.080543
vt 0.179291 0.077605
vt 0.083637 0.600909
vt 0.082151 0.606207
vt 0.076086 0.602836
vt 0.770780 0.014993
vt 0.773288 0.021077
vt 0.764471 0.016707
vt 0.247227 0.120540
vt 0.252935 0.125565
vt 0.248565 0.130134
vt 0.257195 0.131678
vt 0.097592 0.521273
vt 0.097224 0.528796
vt 0.090751 0.527517
vt 0.096334 0.535697
vt 0.289873 0.201149
vt 0.291726 0.208032
vt 0.286307 0.210373
vt 0.291619 0.214915
vt 0.096334 0.426515
vt 0.097224 0.433390
vt 0.090751 0.434688
vt 0.097592 0.440902
vt 0.270890 0.441104
vt 0.270522 0.433592
vt 0.274861 0.434903
vt 0.515385 0.601280
vt 0.514032 0.596175
vt 0.521427 0.597876
vt 0.641918 0.360824
vt 0.643907 0.353929
vt 0.649790 0.354846
vt 0.647561 0.348046
vt 0.502468 0.532622
vt 0.501658 0.525838
vt 0.508071 0.524472
vt 0.501322 0.518366
vt 0.892972 0.805615
vt 0.894351 0.812712
vt 0.889864 0.811448
vt 0.902561 0.815855
vt 0.897820 0.810220
vt 0.887227 0.818188
vt 0.894812 0.816804
vt 0.638369 0.725145
vt 0.642153 0.733287
vt 0.638769 0.732614
vt 0.650015 0.733188
vt 0.643720 0.729393
vt 0.640470 0.739492
vt 0.644867 0.736826
vt 0.890480 0.860288
vt 0.892576 0.851651
vt 0.895791 0.854750
vt 0.885958 0.846030
vt 0.887962 0.853182
vt 0.901051 0.848973
vt 0.893423 0.847284
vt 0.681351 0.761629
vt 0.672765 0.759272
vt 0.676530 0.757243
vt 0.666507 0.761592
vt 0.673777 0.762330
vt 0.671903 0.751767
vt 0.668829 0.757166
vt 0.919910 0.890552
vt 0.916757 0.883360
vt 0.921076 0.883546
vt 0.907770 0.882961
vt 0.913879 0.887167
vt 0.921617 0.875942
vt 0.914719 0.879571
vt 0.042457 0.798127
vt 0.037127 0.803005
vt 0.035597 0.798882
vt 0.040571 0.809135
vt 0.041381 0.804229
vt 0.029500 0.798746
vt 0.034596 0.804553
vt 0.821587 0.712319
vt 0.813848 0.708613
vt 0.816750 0.706188
vt 0.945630 0.894773
vt 0.952729 0.889264
vt 0.952432 0.893495
vt 0.952211 0.880963
vt 0.949233 0.888167
vt 0.085207 0.802423
vt 0.076803 0.805624
vt 0.078120 0.801689
vt 0.335348 0.770356
vt 0.328293 0.766884
vt 0.330607 0.764288
vt 0.070826 0.800000
vt 0.072438 0.806279
vt 0.854541 0.689320
vt 0.845816 0.691405
vt 0.847060 0.687117
vt 0.844445 0.700016
vt 0.849408 0.694828
vt 0.839829 0.685183
vt 0.841772 0.692718
vt 0.353275 0.730130
vt 0.348607 0.737808
vt 0.346861 0.733486
vt 0.352625 0.745627
vt 0.352725 0.737821
vt 0.341402 0.737210
vt 0.346507 0.741528
vt 0.869804 0.649769
vt 0.863877 0.655618
vt 0.862427 0.651793
vt 0.867455 0.663732
vt 0.868765 0.656472
vt 0.855190 0.654746
vt 0.861197 0.659105
vt 0.395479 0.728779
vt 0.387121 0.731803
vt 0.388140 0.727050
vt 0.385382 0.740519
vt 0.390552 0.734661
vt 0.380813 0.725837
vt 0.382872 0.733120
vt 0.651763 0.817170
vt 0.647182 0.811845
vt 0.651449 0.810918
vt 0.865210 0.625885
vt 0.857452 0.622215
vt 0.861879 0.620672
vt 0.849726 0.626337
vt 0.857398 0.625647
vt 0.428767 0.754737
vt 0.421275 0.752386
vt 0.424746 0.749111
vt 0.414430 0.758026
vt 0.421930 0.756659
vt 0.419899 0.743496
vt 0.417286 0.750773
vt 0.694522 0.815741
vt 0.686384 0.811985
vt 0.689848 0.810227
vt 0.679793 0.817269
vt 0.687234 0.816051
vt 0.925261 0.795987
vt 0.921042 0.789352
vt 0.925335 0.790090
vt 0.433640 0.792799
vt 0.431062 0.787501
vt 0.435235 0.786745
vt 0.422754 0.787891
vt 0.428478 0.790929
vt 0.435765 0.779844
vt 0.429591 0.784145
vt 0.878751 0.554398
vt 0.873334 0.549512
vt 0.878005 0.548371
vt 0.868686 0.552476
vt 0.872689 0.554243
vt 0.876204 0.544171
vt 0.870888 0.547012
vt 0.282157 0.907205
vt 0.287362 0.902507
vt 0.288180 0.906552
vt 0.284067 0.896158
vt 0.282650 0.901721
vt 0.291888 0.902991
vt 0.289531 0.898741
vt 0.883763 0.553742
vt 0.887027 0.547719
vt 0.888333 0.552194
vt 0.953930 0.491335
vt 0.959609 0.495737
vt 0.955288 0.496234
vt 0.901488 0.269934
vt 0.898784 0.275771
vt 0.897095 0.271299
vt 0.118906 0.950230
vt 0.113262 0.947036
vt 0.117872 0.945965
vt 0.965010 0.444977
vt 0.959609 0.441036
vt 0.963123 0.439206
vt 0.953930 0.445462
vt 0.959843 0.445836
vt 0.878751 0.573919
vt 0.873334 0.577486
vt 0.872689 0.573764
vt 0.574352 0.933060
vt 0.580010 0.937619
vt 0.575556 0.938994
vt 0.585253 0.933740
vt 0.580357 0.932828
vt 0.125262 0.970026
vt 0.128923 0.975816
vt 0.124923 0.976090
vt 0.261727 0.903459
vt 0.258086 0.897140
vt 0.262220 0.897975
vt 0.574352 0.886992
vt 0.580010 0.882685
vt 0.580357 0.886759
vt 0.924650 0.275827
vt 0.927012 0.270929
vt 0.929690 0.272684
vt 0.921186 0.266556
vt 0.922461 0.272448
vt 0.931409 0.266889
vt 0.927240 0.266129
vt 0.120217 0.969707
vt 0.115141 0.974946
vt 0.114180 0.970269
vt 0.118363 0.980082
vt 0.119878 0.975771
vt 0.917416 0.220532
vt 0.922517 0.216048
vt 0.923470 0.220105
vt 0.928383 0.554398
vt 0.922966 0.549512
vt 0.927637 0.548371
vt 0.918318 0.552476
vt 0.922321 0.554243
vt 0.925836 0.544172
vt 0.920520 0.547012
vt 0.217199 0.907205
vt 0.222405 0.902507
vt 0.223223 0.906553
vt 0.219109 0.896158
vt 0.217692 0.901721
vt 0.226930 0.902991
vt 0.224573 0.898741
vt 0.933394 0.553742
vt 0.936659 0.547719
vt 0.937965 0.552195
vt 0.953647 0.384490
vt 0.959327 0.388892
vt 0.955006 0.389389
vt 0.509918 0.936425
vt 0.507215 0.942261
vt 0.505525 0.937789
vt 0.973988 0.547780
vt 0.968344 0.544586
vt 0.972953 0.543515
vt 0.964727 0.338132
vt 0.959327 0.334191
vt 0.962840 0.332361
vt 0.953647 0.338617
vt 0.959561 0.338991
vt 0.928383 0.573919
vt 0.922966 0.577486
vt 0.922321 0.573764
vt 0.965921 0.266570
vt 0.971579 0.271129
vt 0.967125 0.272503
vt 0.976822 0.267249
vt 0.971927 0.266337
vt 0.980344 0.567575
vt 0.984005 0.573366
vt 0.980004 0.573639
vt 0.196769 0.903459
vt 0.193128 0.897140
vt 0.197262 0.897975
vt 0.965921 0.220501
vt 0.971579 0.216194
vt 0.971927 0.220269
vt 0.533081 0.942317
vt 0.535443 0.937420
vt 0.538121 0.939175
vt 0.529617 0.933046
vt 0.530892 0.938939
vt 0.539840 0.933380
vt 0.535671 0.932619
vt 0.975299 0.567257
vt 0.970222 0.572496
vt 0.969261 0.567819
vt 0.973445 0.577632
vt 0.974959 0.573321
vt 0.525847 0.887022
vt 0.530948 0.882539
vt 0.531901 0.886595
vt 0.562945 0.781638
vt 0.568493 0.776901
vt 0.569018 0.781681
vt 0.566157 0.771908
vt 0.563886 0.775647
vt 0.573416 0.780441
vt 0.571290 0.774801
vt 0.254303 0.718389
vt 0.258342 0.712657
vt 0.260033 0.716421
vt 0.253725 0.707193
vt 0.253572 0.712931
vt 0.262862 0.712128
vt 0.259624 0.708505
vt 0.562945 0.847349
vt 0.568493 0.851368
vt 0.563886 0.852082
vt 0.117483 0.905126
vt 0.114059 0.911444
vt 0.112868 0.907260
vt 0.941478 0.080788
vt 0.947001 0.084086
vt 0.942377 0.085299
vt 0.019184 0.916536
vt 0.016351 0.922370
vt 0.014993 0.917837
vt 0.154964 0.910196
vt 0.157978 0.904228
vt 0.160353 0.907398
vt 0.152690 0.899341
vt 0.153279 0.905237
vt 0.509717 0.774667
vt 0.506884 0.768833
vt 0.510658 0.768676
vt 0.908955 0.454012
vt 0.914198 0.448982
vt 0.914994 0.453574
vt 0.911019 0.443287
vt 0.909490 0.448026
vt 0.072412 0.843853
vt 0.077960 0.839834
vt 0.078485 0.843810
vt 0.197233 0.720758
vt 0.192286 0.715399
vt 0.196502 0.715301
vt 0.873417 0.449443
vt 0.869866 0.443283
vt 0.873952 0.443457
vt 0.947471 0.023465
vt 0.942847 0.020605
vt 0.944872 0.018125
vt 0.937890 0.025943
vt 0.943883 0.025290
vt 0.939288 0.015811
vt 0.938096 0.019878
vt 0.072412 0.909565
vt 0.077960 0.914301
vt 0.073353 0.915555
vt 0.082883 0.910762
vt 0.078485 0.909522
vt 0.901983 0.025125
vt 0.898056 0.019584
vt 0.902190 0.019060
vt 0.249377 0.791983
vt 0.254926 0.787246
vt 0.255451 0.792026
vt 0.252590 0.782253
vt 0.250318 0.785992
vt 0.259848 0.790786
vt 0.257722 0.785146
vt 0.567870 0.708043
vt 0.571909 0.702312
vt 0.573601 0.706076
vt 0.567292 0.696848
vt 0.567139 0.702586
vt 0.576430 0.701783
vt 0.573192 0.698159
vt 0.249377 0.857695
vt 0.254926 0.861713
vt 0.250318 0.862427
vt 0.873300 0.397878
vt 0.869877 0.404196
vt 0.868686 0.400013
vt 0.941478 0.181080
vt 0.947000 0.184378
vt 0.942377 0.185591
vt 0.331069 0.927957
vt 0.328236 0.933791
vt 0.326877 0.929258
vt 0.910782 0.402948
vt 0.913795 0.396980
vt 0.916171 0.400151
vt 0.908507 0.392094
vt 0.909096 0.397990
vt 0.196150 0.785012
vt 0.193317 0.779178
vt 0.197090 0.779021
vt 0.465023 0.865836
vt 0.470266 0.860805
vt 0.471061 0.865398
vt 0.467086 0.855110
vt 0.465557 0.859850
vt 0.384297 0.855274
vt 0.389845 0.851255
vt 0.390370 0.855231
vt 0.510801 0.710413
vt 0.505853 0.705054
vt 0.510070 0.704955
vt 0.429484 0.861267
vt 0.425934 0.855106
vt 0.430019 0.855281
vt 0.947471 0.123757
vt 0.942847 0.120897
vt 0.944872 0.118417
vt 0.937890 0.126235
vt 0.943883 0.125582
vt 0.939288 0.116103
vt 0.938096 0.120170
vt 0.384297 0.920986
vt 0.389845 0.925722
vt 0.385238 0.926976
vt 0.394768 0.922183
vt 0.390370 0.920943
vt 0.901983 0.125417
vt 0.898056 0.119876
vt 0.902190 0.119351
vt 0.409634 0.416054
vt 0.327213 0.429096
vt 0.328023 0.422111
vt 0.408488 0.430595
vt 0.326877 0.436652
vt 0.408824 0.423039
vt 0.627578 0.569711
vt 0.617563 0.558616
vt 0.415394 0.296101
vt 0.416337 0.301887
vt 0.423341 0.337314
vt 0.424694 0.331873
vt 0.738396 0.480289
vt 0.720004 0.425644
vt 0.744364 0.475157
vt 0.750247 0.469718
vt 0.582099 0.398471
vt 0.579638 0.449194
vt 0.573589 0.447361
vt 0.063712 0.282761
vt 0.110933 0.307213
vt 0.110358 0.312241
vt 0.407739 0.199234
vt 0.326877 0.196534
vt 0.327143 0.188930
vt 0.407739 0.214007
vt 0.327143 0.203703
vt 0.407474 0.206838
vt 0.578649 0.248779
vt 0.580101 0.196709
vt 0.584535 0.244261
vt 0.041275 0.235061
vt 0.068135 0.280164
vt 0.791579 0.494837
vt 0.789411 0.502533
vt 0.417709 0.090738
vt 0.334544 0.101750
vt 0.335916 0.095234
vt 0.415394 0.104587
vt 0.333601 0.109083
vt 0.416337 0.097254
vt 0.578649 0.139042
vt 0.573896 0.197808
vt 0.051617 0.187361
vt 0.047548 0.236398
vt 0.836105 0.490050
vt 0.837940 0.497316
vt 0.786683 0.509633
vt 0.840809 0.213388
vt 0.833679 0.226429
vt 0.100450 0.014993
vt 0.093383 0.016239
vt 0.528343 0.040928
vt 0.437751 0.019689
vt 0.439542 0.014993
vt 0.089356 0.150372
vt 0.047370 0.181972
vt 0.092976 0.165584
vt 0.057037 0.192633
vt 0.645371 0.178299
vt 0.683728 0.148272
vt 0.648953 0.185451
vt 0.653323 0.192056
vt 0.866597 0.106820
vt 0.866084 0.121551
vt 0.206396 0.019247
vt 0.199395 0.016239
vt 0.192012 0.014993
vt 0.690711 0.095379
vt 0.677278 0.144187
vt 0.698368 0.095076
vt 0.690598 0.152205
vt 0.141638 0.165584
vt 0.090787 0.157880
vt 0.143824 0.157880
vt 0.146206 0.150372
vt 0.174094 0.620453
vt 0.847459 0.022409
vt 0.296892 0.081278
vt 0.292631 0.075165
vt 0.286923 0.070141
vt 0.687283 0.046181
vt 0.706291 0.095184
vt 0.190469 0.187361
vt 0.184437 0.192633
vt 0.196206 0.181972
vt 0.190402 0.528731
vt 0.189144 0.543155
vt 0.270522 0.528998
vt 0.190034 0.536254
vt 0.205023 0.236398
vt 0.212907 0.235061
vt 0.220256 0.233102
vt 0.694408 0.042774
vt 0.654705 0.020264
vt 0.659488 0.014993
vt 0.650648 0.026737
vt 0.189144 0.419076
vt 0.190402 0.433462
vt 0.190034 0.425950
vt 0.202565 0.282761
vt 0.195535 0.280164
vt 0.209171 0.284231
vt 0.024338 0.510826
vt 0.018172 0.453677
vt 0.024338 0.451674
vt 0.759111 0.337090
vt 0.808303 0.338253
vt 0.763777 0.343039
vt 0.408488 0.525817
vt 0.327213 0.524456
vt 0.326877 0.516984
vt 0.409634 0.540073
vt 0.328023 0.531240
vt 0.408824 0.533290
vt 0.159595 0.307213
vt 0.163395 0.312241
vt 0.587578 0.547988
vt 0.573589 0.506484
vt 0.579638 0.504352
vt 0.754203 0.332294
vt 0.725637 0.372907
vt 0.718323 0.370687
vt 0.733065 0.375902
vt 0.712285 0.427216
vt 0.727897 0.424289
vt 0.845964 0.808090
vt 0.851705 0.795525
vt 0.697748 0.650584
vt 0.726168 0.612158
vt 0.732134 0.616683
vt 0.686118 0.642552
vt 0.720496 0.608646
vt 0.660650 0.691138
vt 0.691786 0.646062
vt 0.666616 0.695662
vt 0.654978 0.687625
vt 0.848101 0.874591
vt 0.843583 0.860342
vt 0.756536 0.702325
vt 0.778536 0.656610
vt 0.782655 0.661408
vt 0.747100 0.692475
vt 0.773213 0.651552
vt 0.713018 0.735589
vt 0.752419 0.697530
vt 0.717136 0.740387
vt 0.707695 0.730532
vt 0.892681 0.924727
vt 0.880550 0.917141
vt 0.027933 0.702855
vt 0.033162 0.655737
vt 0.040269 0.655775
vt 0.014993 0.703472
vt 0.027320 0.656393
vt 0.022465 0.757551
vt 0.020831 0.702817
vt 0.029572 0.757589
vt 0.016624 0.758207
vt 0.692935 0.777991
vt 0.341798 0.804444
vt 0.372720 0.817727
vt 0.368533 0.820556
vt 0.835669 0.754665
vt 0.815146 0.713271
vt 0.940952 0.932650
vt 0.106260 0.709497
vt 0.101034 0.660217
vt 0.107882 0.661711
vt 0.091896 0.707077
vt 0.093510 0.659289
vt 0.090337 0.762031
vt 0.099416 0.708004
vt 0.097185 0.763524
vt 0.082813 0.761103
vt 0.329494 0.771072
vt 0.343672 0.800221
vt 0.337155 0.798558
vt 0.888656 0.720886
vt 0.878567 0.731574
vt 0.926006 0.748246
vt 0.884192 0.727006
vt 0.915922 0.758927
vt 0.338296 0.655073
vt 0.332050 0.692786
vt 0.331607 0.657645
vt 0.144366 0.778089
vt 0.157177 0.724630
vt 0.161973 0.726597
vt 0.338742 0.690212
vt 0.326877 0.697287
vt 0.326877 0.758000
vt 0.812640 0.699818
vt 0.915240 0.658909
vt 0.912893 0.672863
vt 0.957469 0.676606
vt 0.915089 0.665787
vt 0.955123 0.690552
vt 0.415033 0.648330
vt 0.397935 0.682513
vt 0.407892 0.645751
vt 0.400386 0.645392
vt 0.405081 0.685094
vt 0.390425 0.682154
vt 0.634882 0.857121
vt 0.645218 0.815902
vt 0.906618 0.614086
vt 0.629830 0.911582
vt 0.628012 0.856634
vt 0.617563 0.909959
vt 0.622607 0.855498
vt 0.634089 0.958393
vt 0.622964 0.911095
vt 0.456361 0.717725
vt 0.470095 0.681514
vt 0.475540 0.686520
vt 0.459774 0.723948
vt 0.450912 0.712715
vt 0.702206 0.855781
vt 0.687487 0.857309
vt 0.707740 0.910281
vt 0.695073 0.856873
vt 0.693029 0.911807
vt 0.701150 0.958632
vt 0.700611 0.911371
vt 0.470783 0.784015
vt 0.473102 0.777794
vt 0.472907 0.771068
vt 0.953492 0.794711
vt 0.955855 0.801009
vt 0.682135 0.811027
vt 0.405477 0.812620
vt 0.412577 0.813689
vt 0.618999 0.715231
vt 0.912056 0.788913
vt 0.883017 0.547714
vt 0.881216 0.543515
vt 0.289141 0.939120
vt 0.283117 0.939772
vt 0.946439 0.443243
vt 0.949636 0.490504
vt 0.946439 0.489116
vt 0.290911 0.894996
vt 0.955288 0.439549
vt 0.949636 0.444631
vt 0.950994 0.438718
vt 0.965010 0.490850
vt 0.959843 0.491710
vt 0.883763 0.573263
vt 0.888333 0.571715
vt 0.902762 0.275827
vt 0.112868 0.950792
vt 0.898104 0.218955
vt 0.897718 0.223910
vt 0.927639 0.220865
vt 0.883017 0.577588
vt 0.878005 0.578244
vt 0.571029 0.939689
vt 0.123408 0.980400
vt 0.585253 0.887671
vt 0.868686 0.571997
vt 0.263637 0.892413
vt 0.932649 0.547715
vt 0.930848 0.543515
vt 0.224183 0.939120
vt 0.218160 0.939772
vt 0.946156 0.336398
vt 0.949353 0.383659
vt 0.946156 0.382271
vt 0.220489 0.892413
vt 0.950711 0.331873
vt 0.949353 0.337786
vt 0.964727 0.384005
vt 0.959561 0.384864
vt 0.933394 0.573263
vt 0.937965 0.571715
vt 0.511193 0.942317
vt 0.967950 0.548342
vt 0.506535 0.885445
vt 0.506148 0.890401
vt 0.536070 0.887356
vt 0.927637 0.578244
vt 0.961395 0.267265
vt 0.976822 0.221181
vt 0.918318 0.571997
vt 0.198679 0.892413
vt 0.569018 0.847393
vt 0.573416 0.846152
vt 0.266360 0.740960
vt 0.260629 0.742927
vt 0.155150 0.839120
vt 0.119091 0.848284
vt 0.119943 0.844905
vt 0.260460 0.655737
vt 0.160353 0.842882
vt 0.154298 0.842500
vt 0.119757 0.915980
vt 0.118072 0.911022
vt 0.510658 0.845111
vt 0.509717 0.840378
vt 0.020125 0.922526
vt 0.900683 0.079069
vt 0.905571 0.079970
vt 0.903381 0.014993
vt 0.505525 0.773365
vt 0.916453 0.513092
vt 0.082883 0.845050
vt 0.875481 0.438718
vt 0.512930 0.764937
vt 0.196655 0.709562
vt 0.255451 0.857738
vt 0.259848 0.856498
vt 0.579927 0.730615
vt 0.574197 0.732582
vt 0.910967 0.331873
vt 0.874908 0.341037
vt 0.875760 0.337657
vt 0.574027 0.645392
vt 0.916171 0.335634
vt 0.910115 0.335252
vt 0.875575 0.408733
vt 0.873889 0.403774
vt 0.197091 0.855456
vt 0.196150 0.850724
vt 0.332010 0.933947
vt 0.900683 0.179361
vt 0.905571 0.180262
vt 0.903381 0.115285
vt 0.191958 0.783711
vt 0.466482 0.925353
vt 0.431548 0.850541
vt 0.510222 0.699217
vt 0.809631 0.412036
vt 0.120774 0.245555
vt 0.333601 0.272959
vt 0.838700 0.504041
vt 0.831698 0.571063
vt 0.614521 0.101423
vt 0.773644 0.290612
vt 0.526552 0.045625
vt 0.014993 0.130134
vt 0.680539 0.050517
vt 0.269632 0.535899
vt 0.256935 0.601111
vt 0.270890 0.521475
vt 0.276557 0.284386
vt 0.014993 0.403959
vt 0.083637 0.361684
vt 0.174094 0.342227
vt 0.423341 0.615407
vt 0.944050 0.836085
vt 0.747536 0.845433
vt 0.762198 0.897848
vt 0.642443 0.620198
vt 0.618624 0.669019
vt 0.377254 0.784666
vt 0.812640 0.888489
vt 0.851623 0.939608
vt 0.738877 0.771094
vt 0.812640 0.653957
vt 0.139567 0.776121
vt 0.107790 0.809135
vt 0.947111 0.622757
vt 0.693564 0.959067
vt 0.640959 0.958880
vt 0.262688 0.936027
vt 0.569825 0.887687
vt 0.569825 0.933756
vt 0.197730 0.936027
vt 0.961395 0.221197
vt 0.203560 0.745297
vt 0.874876 0.508961
vt 0.910415 0.513530
vt 0.517127 0.734951
vt 0.430943 0.920785
vt 0.955855 0.886322
vt 0.079968 0.807548
vt 0.853850 0.620906
vt 0.918713 0.791935
vt 0.583264 0.939474
vt 0.129926 0.971263
vt 0.256916 0.900820
vt 0.575556 0.882067
vt 0.112868 0.977605
vt 0.917803 0.215577
vt 0.955006 0.332704
vt 0.974834 0.272984
vt 0.985007 0.568812
vt 0.191958 0.900820
vt 0.967125 0.215577
vt 0.967950 0.575155
vt 0.526233 0.882067
vt 0.947471 0.080135
vt 0.158745 0.899723
vt 0.916453 0.445990
vt 0.073353 0.839120
vt 0.191958 0.719247
vt 0.868686 0.447621
vt 0.080757 0.916402
vt 0.897095 0.024224
vt 0.947471 0.180427
vt 0.914562 0.392475
vt 0.472521 0.857814
vt 0.385238 0.850541
vt 0.505525 0.708902
vt 0.424753 0.859445
vt 0.392642 0.927823
vt 0.897095 0.124516
vt 0.621952 0.564825
vt 0.587578 0.403584
vt 0.584535 0.141884
vt 0.837846 0.220387
vt 0.867110 0.114057
vt 0.172608 0.625752
vt 0.844951 0.016325
vt 0.269632 0.426717
vt 0.018172 0.508861
vt 0.807640 0.331873
vt 0.582099 0.553258
vt 0.847794 0.801157
vt 0.844758 0.867769
vt 0.886123 0.922012
vt 0.686459 0.780242
vt 0.829507 0.756442
vt 0.947658 0.932112
vt 0.921545 0.754362
vt 0.957318 0.683480
vt 0.904098 0.608646
vt 0.708284 0.957540
vt 0.617563 0.721761
vt 0.285447 0.892413
vt 0.225953 0.894996
vt 0.932649 0.577588
vt 0.962599 0.273198
vt 0.978490 0.577950
vt 0.266360 0.657049
vt 0.505525 0.839077
vt 0.579927 0.646704
vt 0.191958 0.849422
vt 0.472521 0.924916
vt 0.394768 0.856471
vt 0.199362 0.775282
vt 0.339587 0.355684
vt 0.838700 0.564121
vt 0.017310 0.120540
vt 0.014993 0.558821
vt 0.268911 0.290612
vt 0.076086 0.359808
vt 0.718675 0.810227
vt 0.782655 0.739215
vt 0.150264 0.674307
vt 0.123951 0.950549
vt 0.979033 0.548099
vt 0.019184 0.850824
vt 0.331069 0.862245
s 1
f 8/1/1 11/2/2 10/3/3
f 11/2/2 9/4/4 10/3/3
f 15/5/5 18/6/6 17/7/7
f 18/6/6 16/8/8 17/7/7
f 25/9/9 28/10/10 27/11/11
f 28/10/10 26/12/12 27/11/11
f 32/13/13 35/14/14 34/15/15
f 35/16/14 33/17/16 34/18/15
f 42/19/17 45/20/18 44/21/19
f 45/20/18 43/22/20 44/21/19
f 49/23/21 52/24/22 51/25/23
f 52/24/22 50/26/24 51/25/23
f 59/27/25 62/28/26 61/29/27
f 62/28/26 60/30/28 61/29/27
f 66/31/29 69/32/30 68/33/31
f 69/32/30 67/34/32 68/33/31
f 76/35/33 79/36/34 78/37/35
f 79/36/34 77/38/36 78/37/35
f 83/39/37 86/40/38 85/41/39
f 86/40/38 84/42/40 85/41/39
f 93/43/41 96/44/42 95/45/43
f 96/44/42 94/46/44 95/45/43
f 100/47/45 103/48/46 102/49/47
f 103/48/46 101/50/48 102/49/47
f 110/51/49 113/52/50 112/53/51
f 113/54/50 111/55/52 112/56/51
f 117/57/53 120/58/54 119/59/55
f 120/58/54 118/60/56 119/59/55
f 127/61/57 130/62/58 129/63/59
f 130/62/58 128/64/60 129/63/59
f 134/65/61 137/66/62 136/67/63
f 137/66/62 135/68/64 136/67/63
f 144/69/65 147/70/66 146/71/67
f 147/70/66 145/72/68 146/71/67
f 151/73/69 154/74/70 153/75/71
f 154/76/70 152/77/72 153/78/71
f 161/79/73 164/80/74 163/81/75
f 164/80/74 162/82/76 163/81/75
f 168/83/77 171/84/78 170/85/79
f 171/84/78 169/86/80 170/85/79
f 175/87/81 179/88/82 181/89/83
f 176/90/84 179/88/82 178/91/85
f 177/92/86 179/88/82 180/93/87
f 191/94/88 195/95/89 197/96/90
f 192/97/91 195/95/89 194/98/92
f 193/99/93 195/95/89 196/100/94
f 198/101/95 202/102/96 204/103/97
f 199/104/98 202/102/96 201/105/99
f 200/106/100 202/102/96 203/107/101
f 214/108/102 218/109/103 220/110/104
f 215/111/105 218/109/103 217/112/106
f 216/113/107 218/109/103 219/114/108
f 221/115/109 225/116/110 227/117/111
f 222/118/112 225/116/110 224/119/113
f 223/120/114 225/116/110 226/121/115
f 237/122/116 241/123/117 243/124/118
f 238/125/119 241/123/117 240/126/120
f 239/127/121 241/123/117 242/128/122
f 244/129/123 248/130/124 250/131/125
f 245/132/126 248/133/124 247/134/127
f 246/135/128 248/133/124 249/136/129
f 260/137/130 264/138/131 266/139/132
f 261/140/133 264/141/131 263/142/134
f 262/143/135 264/138/131 265/144/136
f 267/145/137 271/146/138 273/147/139
f 268/148/140 271/146/138 270/149/141
f 269/150/142 271/146/138 272/151/143
f 283/152/144 287/153/145 289/154/146
f 284/155/147 287/153/145 286/156/148
f 285/157/149 287/153/145 288/158/150
f 290/159/151 294/160/152 296/161/153
f 291/162/154 294/160/152 293/163/155
f 292/164/156 294/160/152 295/165/157
f 306/166/158 310/167/159 312/168/160
f 307/169/161 310/167/159 309/170/162
f 308/171/163 310/167/159 311/172/164
f 313/173/165 317/174/166 319/175/167
f 314/176/168 317/177/166 316/178/169
f 315/179/170 317/177/166 318/180/171
f 329/181/172 333/182/173 335/183/174
f 330/184/175 333/182/173 332/185/176
f 331/186/177 333/182/173 334/187/178
f 336/188/179 340/189/180 342/190/181
f 337/191/182 340/189/180 339/192/183
f 338/193/184 340/194/180 341/195/185
f 352/196/186 356/197/187 358/198/188
f 353/199/189 356/197/187 355/200/190
f 354/201/191 356/197/187 357/202/192
f 359/203/193 363/204/194 365/205/195
f 360/206/196 363/204/197 362/207/198
f 361/208/199 363/204/200 364/209/201
f 366/210/202 370/211/203 372/212/204
f 367/213/205 370/211/206 369/214/207
f 368/215/208 370/211/209 371/216/210
f 373/217/211 377/218/212 379/219/213
f 374/220/214 377/221/215 376/222/216
f 375/223/217 377/224/218 378/225/219
f 380/226/220 384/227/221 386/228/222
f 381/229/223 384/230/224 383/231/225
f 382/232/226 384/230/227 385/233/228
f 387/234/229 391/235/230 393/236/231
f 388/237/232 391/238/233 390/239/234
f 389/240/235 391/238/236 392/241/237
f 394/242/238 398/243/239 400/244/240
f 395/245/241 398/246/242 397/247/243
f 396/248/244 398/249/245 399/250/246
f 401/251/247 405/252/248 407/253/249
f 402/254/250 405/252/251 404/255/252
f 403/256/253 405/252/254 406/257/255
f 408/258/256 412/259/257 414/260/258
f 409/261/259 412/259/260 411/262/261
f 410/263/262 412/264/263 413/265/264
f 415/266/193 419/267/194 421/268/195
f 416/269/196 419/267/197 418/270/198
f 417/271/199 419/267/200 420/272/201
f 422/273/202 426/274/203 428/275/204
f 423/276/205 426/274/206 425/277/207
f 424/278/208 426/274/209 427/279/210
f 429/280/211 433/281/212 435/282/213
f 430/283/214 433/284/215 432/285/216
f 431/286/217 433/287/218 434/288/219
f 436/289/220 440/290/221 442/291/222
f 437/292/223 440/293/224 439/294/225
f 438/295/226 440/293/227 441/296/228
f 443/297/229 447/298/230 449/299/231
f 444/300/232 447/301/233 446/302/265
f 445/303/235 447/301/236 448/304/237
f 450/305/238 454/306/239 456/307/240
f 451/308/241 454/309/242 453/310/243
f 452/311/244 454/312/245 455/313/246
f 457/314/247 461/315/248 463/316/249
f 458/317/250 461/315/251 460/318/252
f 459/319/253 461/315/254 462/320/255
f 464/321/256 468/322/257 470/323/258
f 465/324/259 468/322/260 467/325/261
f 466/326/262 468/327/263 469/328/264
f 471/329/193 475/330/194 477/331/195
f 472/332/196 475/330/197 474/333/198
f 473/334/199 475/330/200 476/335/201
f 478/336/202 482/337/203 484/338/204
f 479/339/205 482/337/206 481/340/207
f 480/341/208 482/337/209 483/342/210
f 485/343/211 489/344/212 491/345/213
f 486/346/214 489/347/215 488/348/216
f 487/349/217 489/350/218 490/351/219
f 492/352/220 496/353/221 498/354/222
f 493/355/223 496/356/224 495/357/225
f 494/358/226 496/356/227 497/359/228
f 499/360/229 503/361/230 505/362/231
f 500/363/232 503/364/233 502/365/234
f 501/366/235 503/364/236 504/367/237
f 506/368/238 510/369/239 512/370/240
f 507/371/241 510/372/242 509/373/243
f 508/374/244 510/375/245 511/376/246
f 513/377/247 517/378/248 519/379/249
f 514/380/250 517/378/251 516/381/252
f 515/382/253 517/378/254 518/383/255
f 520/384/256 524/385/257 526/386/258
f 521/387/259 524/385/260 523/388/261
f 522/389/262 524/390/263 525/391/264
f 527/392/193 531/393/194 533/394/195
f 528/395/196 531/393/197 530/396/198
f 529/397/199 531/393/200 532/398/201
f 534/399/202 538/400/203 540/401/204
f 535/402/205 538/400/206 537/403/207
f 536/404/208 538/400/209 539/405/210
f 541/406/211 545/407/212 547/408/213
f 542/409/214 545/410/215 544/411/216
f 543/412/217 545/413/218 546/414/219
f 548/415/220 552/416/221 554/417/222
f 549/418/223 552/419/224 551/420/225
f 550/421/226 552/419/227 553/422/228
f 555/423/229 559/424/230 561/425/231
f 556/426/232 559/427/233 558/428/234
f 557/429/235 559/427/236 560/430/237
f 562/431/238 566/432/239 568/433/240
f 563/434/241 566/435/242 565/436/243
f 564/437/244 566/438/245 567/439/246
f 569/440/247 573/441/248 575/442/249
f 570/443/250 573/441/251 572/444/252
f 571/445/253 573/441/254 574/446/255
f 576/447/256 580/448/257 582/449/258
f 577/450/259 580/448/260 579/451/261
f 578/452/262 580/453/263 581/454/264
f 12/455/266 11/456/2 8/457/1
f 11/456/2 13/458/267 9/459/4
f 12/455/266 18/6/6 14/460/268
f 18/6/6 13/458/267 14/460/268
f 29/461/269 28/10/10 25/9/9
f 28/10/10 30/462/270 26/12/12
f 29/463/269 35/16/14 31/464/271
f 35/14/14 30/465/270 31/466/271
f 23/467/272 7/468/273 24/469/274
f 7/468/273 22/470/275 24/469/274
f 36/471/276 21/472/277 20/473/278
f 38/474/279 19/475/280 21/476/277
f 46/477/281 45/478/18 42/479/17
f 45/478/18 47/480/282 43/481/20
f 46/477/281 52/24/22 48/482/283
f 52/24/22 47/480/282 48/482/283
f 36/483/276 55/484/284 38/485/279
f 55/486/284 37/487/285 38/474/279
f 39/488/286 24/469/274 22/470/275
f 41/489/287 23/467/272 24/469/274
f 63/490/288 62/491/26 59/492/25
f 62/491/26 64/493/289 60/494/28
f 63/490/288 69/32/30 65/495/290
f 69/32/30 64/493/289 65/495/290
f 70/496/291 55/484/284 53/497/292
f 72/498/293 54/499/294 55/486/284
f 56/500/295 41/489/287 39/488/286
f 58/501/296 40/502/297 41/489/287
f 80/503/298 79/36/34 76/35/33
f 79/36/34 81/504/299 77/38/36
f 80/505/298 86/40/38 82/506/300
f 86/507/38 81/508/299 82/509/300
f 87/510/301 72/498/293 70/511/291
f 72/498/293 88/512/302 71/513/303
f 56/514/295 75/515/304 58/516/296
f 75/515/304 57/517/305 58/516/296
f 97/518/306 96/44/42 93/43/41
f 96/44/42 98/519/307 94/46/44
f 97/520/306 103/48/46 99/521/308
f 103/48/46 98/522/307 99/521/308
f 90/523/309 75/515/304 73/524/310
f 92/525/311 74/526/312 75/515/304
f 105/527/313 89/528/314 106/529/315
f 89/528/314 104/530/316 106/529/315
f 114/531/317 113/52/50 110/51/49
f 113/54/50 115/532/318 111/55/52
f 114/533/317 120/58/54 116/534/319
f 120/58/54 115/535/318 116/534/319
f 90/523/309 109/536/320 92/525/311
f 109/536/320 91/537/321 92/525/311
f 105/527/313 123/538/322 122/539/323
f 106/529/315 121/540/324 123/538/322
f 131/541/325 130/62/58 127/61/57
f 130/62/58 132/542/326 128/64/60
f 131/541/325 137/543/62 133/544/327
f 137/543/62 132/542/326 133/544/327
f 139/545/328 123/538/322 140/546/329
f 123/538/322 138/547/330 140/546/329
f 108/548/331 126/549/332 125/550/333
f 109/536/320 124/551/334 126/549/332
f 148/552/335 147/70/66 144/69/65
f 147/70/66 149/553/336 145/72/68
f 148/552/335 154/74/70 150/554/337
f 154/74/70 149/553/336 150/554/337
f 139/545/328 157/555/338 156/556/339
f 140/546/329 155/557/340 157/555/338
f 125/558/333 143/559/341 142/560/342
f 143/561/341 124/562/334 141/563/343
f 165/564/344 164/565/74 161/566/73
f 164/565/74 166/567/345 162/568/76
f 165/564/344 171/84/78 167/569/346
f 171/84/78 166/567/345 167/569/346
f 173/570/347 157/555/338 174/571/348
f 157/572/338 172/573/349 174/574/348
f 142/575/342 160/576/350 159/577/351
f 160/576/350 141/563/343 158/578/352
f 173/570/347 21/476/277 19/475/280
f 174/574/348 20/473/278 21/472/277
f 159/577/351 7/468/273 5/579/353
f 160/576/350 6/580/354 7/468/273
f 182/581/355 181/89/83 177/92/86
f 181/89/83 183/582/356 175/87/81
f 185/583/357 184/584/358 182/585/355
f 184/584/358 186/586/359 183/587/356
f 185/583/357 190/588/360 187/589/346
f 190/588/360 186/586/359 187/589/346
f 188/590/361 194/98/92 190/588/360
f 194/98/92 189/591/362 190/588/360
f 205/592/363 201/105/99 198/101/95
f 201/105/99 206/593/364 199/104/98
f 208/594/365 207/595/366 205/596/363
f 207/595/366 209/597/367 206/598/364
f 208/594/365 213/599/368 210/600/369
f 213/599/368 209/597/367 210/600/369
f 211/601/370 220/110/104 213/599/368
f 220/110/104 212/602/371 213/599/368
f 215/111/105 196/100/94 219/114/108
f 196/100/94 216/113/107 219/114/108
f 199/104/98 180/93/87 203/107/101
f 203/107/101 176/90/84 200/106/100
f 228/603/372 224/119/113 221/115/109
f 224/119/113 229/604/373 222/118/112
f 231/605/374 230/606/375 228/607/372
f 230/606/375 232/608/376 229/609/373
f 231/605/374 236/610/377 233/611/378
f 236/610/377 232/608/376 233/611/378
f 234/612/379 243/124/118 236/610/377
f 243/124/118 235/613/380 236/610/377
f 198/101/95 226/121/115 222/118/112
f 204/103/97 223/120/114 226/121/115
f 239/614/121 217/112/106 214/108/102
f 242/615/122 215/616/105 217/617/106
f 251/618/381 247/619/127 244/129/123
f 247/134/127 252/620/382 245/132/126
f 254/621/383 253/622/384 251/623/381
f 253/622/384 255/624/385 252/625/382
f 254/621/383 259/626/386 256/627/387
f 259/626/386 255/624/385 256/627/387
f 257/628/388 266/139/132 259/626/386
f 266/139/132 258/629/389 259/626/386
f 262/143/135 240/126/120 237/122/116
f 265/630/136 238/631/119 240/632/120
f 223/120/114 249/136/129 227/117/111
f 249/136/129 221/115/109 227/117/111
f 274/633/390 270/149/141 267/145/137
f 270/149/141 275/634/391 268/148/140
f 277/635/392 276/636/393 274/633/390
f 276/636/393 278/637/394 275/634/391
f 277/638/392 282/639/395 279/640/300
f 282/641/395 278/642/394 279/643/300
f 280/644/396 289/154/146 282/639/395
f 289/154/146 281/645/397 282/639/395
f 285/157/149 263/142/134 260/646/130
f 263/142/134 284/155/147 261/140/133
f 269/150/142 250/131/125 246/647/128
f 272/151/143 244/129/123 250/131/125
f 297/648/398 293/163/155 290/159/151
f 293/163/155 298/649/399 291/162/154
f 300/650/400 299/651/401 297/648/398
f 299/651/401 301/652/402 298/649/399
f 300/653/400 305/654/403 302/655/404
f 305/654/403 301/656/402 302/655/404
f 303/657/405 312/168/160 305/654/403
f 312/168/160 304/658/406 305/654/403
f 283/152/144 311/172/164 286/156/148
f 311/172/164 284/155/147 286/156/148
f 292/164/156 273/147/139 269/150/142
f 273/147/139 291/162/154 267/145/137
f 320/659/407 316/660/169 313/173/165
f 316/178/169 321/661/408 314/176/168
f 323/662/409 322/663/410 320/659/407
f 322/663/410 324/664/411 321/665/408
f 323/662/409 328/666/412 325/667/413
f 328/668/412 324/669/411 325/670/413
f 326/671/414 335/183/174 328/668/412
f 335/183/174 327/672/415 328/668/412
f 315/179/170 296/161/153 292/164/156
f 318/180/171 290/159/151 296/161/153
f 307/169/161 334/187/178 330/184/175
f 309/170/162 331/186/177 334/187/178
f 343/673/416 339/192/183 336/188/179
f 339/192/183 344/674/417 337/191/182
f 346/675/418 345/676/419 343/673/416
f 345/676/419 347/677/420 344/674/417
f 346/675/418 351/678/421 348/679/422
f 351/678/421 347/677/420 348/679/422
f 349/680/423 358/198/188 351/681/421
f 358/198/188 350/682/424 351/681/421
f 338/193/184 319/683/167 315/684/170
f 341/685/185 313/173/165 319/175/167
f 330/184/175 357/202/192 353/199/189
f 357/202/192 329/181/172 354/201/191
f 193/686/93 355/200/190 197/687/90
f 197/96/90 352/688/186 191/94/88
f 336/689/179 178/91/85 175/87/81
f 178/91/85 338/193/184 176/90/84
f 359/203/193 376/690/425 373/217/211
f 376/690/216 361/208/199 374/691/214
f 366/210/202 364/692/426 360/693/196
f 372/694/427 361/695/199 364/696/201
f 367/213/205 386/697/222 371/216/428
f 386/698/429 368/699/208 371/700/210
f 375/701/217 385/233/430 381/229/223
f 378/702/431 382/232/226 385/233/228
f 401/703/247 379/219/213 404/704/432
f 379/705/433 402/254/250 404/255/252
f 408/258/256 383/706/434 380/226/220
f 383/707/225 410/263/262 381/708/223
f 403/256/253 413/265/435 409/709/259
f 406/257/436 410/263/262 413/265/264
f 387/234/229 407/710/249 390/711/437
f 407/712/438 388/237/232 390/239/234
f 394/242/238 411/262/439 408/258/256
f 411/262/261 396/713/244 409/261/259
f 389/240/235 399/250/440 395/714/241
f 392/241/441 396/248/244 399/250/246
f 387/234/229 362/207/442 359/203/193
f 362/207/198 389/715/235 360/206/196
f 394/716/238 369/214/207 397/247/443
f 369/214/444 395/245/241 397/247/243
f 429/280/211 421/268/195 432/717/425
f 421/268/445 430/718/214 432/717/216
f 422/273/202 420/719/426 416/720/196
f 428/721/427 417/722/199 420/723/201
f 436/724/220 427/279/428 423/276/205
f 427/725/210 438/295/226 424/726/208
f 431/727/217 441/296/430 437/292/223
f 434/728/431 438/295/226 441/296/228
f 457/729/247 435/282/213 460/730/432
f 435/731/433 458/317/250 460/318/252
f 464/321/256 439/732/434 436/289/220
f 439/733/225 466/326/262 437/734/223
f 459/319/253 469/328/435 465/735/259
f 462/320/436 466/326/262 469/328/264
f 457/729/247 446/736/437 443/297/229
f 446/302/265 459/737/253 444/300/232
f 464/321/256 456/307/240 467/325/439
f 456/307/446 465/324/259 467/325/261
f 445/303/235 455/313/440 451/738/241
f 448/304/441 452/311/244 455/313/246
f 443/297/229 418/270/442 415/266/193
f 418/270/198 445/739/235 416/269/196
f 450/740/238 425/277/207 453/310/443
f 425/277/444 451/308/241 453/310/243
f 471/329/193 488/741/425 485/343/211
f 477/331/445 486/742/214 488/741/216
f 478/336/202 476/743/426 472/744/196
f 484/745/427 473/746/199 476/747/201
f 492/748/220 483/342/428 479/339/205
f 483/749/210 494/358/226 480/750/208
f 487/751/217 497/359/430 493/355/223
f 490/752/431 494/358/226 497/359/228
f 485/343/211 516/753/432 513/754/247
f 516/381/252 487/349/217 514/380/250
f 520/384/256 495/755/434 492/352/220
f 495/756/225 522/389/262 493/757/223
f 515/382/253 525/391/435 521/758/259
f 518/383/436 522/389/262 525/391/264
f 513/754/247 502/759/437 499/360/229
f 519/760/447 500/363/232 502/365/234
f 506/368/238 523/388/439 520/384/256
f 523/388/261 508/761/244 521/387/259
f 501/366/235 511/376/440 507/762/241
f 504/367/441 508/374/244 511/376/246
f 499/360/229 474/333/442 471/329/193
f 474/333/198 501/763/235 472/332/196
f 506/764/238 481/340/207 509/373/443
f 481/340/444 507/371/241 509/373/243
f 541/406/211 533/394/195 544/765/425
f 533/394/445 542/766/214 544/765/216
f 534/399/202 532/767/426 528/768/196
f 540/769/427 529/770/199 532/771/201
f 548/772/220 539/405/428 535/402/205
f 539/773/210 550/421/226 536/774/208
f 543/775/217 553/422/430 549/418/223
f 546/776/431 550/421/226 553/422/228
f 541/406/211 572/777/432 569/778/247
f 572/444/252 543/412/217 570/443/250
f 576/447/256 551/779/434 548/415/220
f 551/780/225 578/452/262 549/781/223
f 571/445/253 581/454/435 577/782/259
f 574/446/436 578/452/262 581/454/264
f 569/778/247 558/783/437 555/423/229
f 558/428/234 571/784/253 556/426/232
f 562/431/238 579/451/439 576/447/256
f 568/433/446 577/450/259 579/451/261
f 557/429/235 567/439/440 563/785/241
f 560/430/441 564/437/244 567/439/246
f 555/423/229 530/396/442 527/392/193
f 561/425/448 528/395/196 530/396/198
f 535/402/205 565/436/443 562/786/238
f 537/403/444 563/434/241 565/436/243
f 10/3/3 23/467/272 26/12/12
f 6/580/354 1/787/449 22/470/275
f 158/578/352 1/787/449 6/580/354
f 163/81/75 5/579/353 9/4/4
f 161/566/73 13/458/267 165/564/344
f 8/457/1 30/465/270 12/455/266
f 165/564/344 15/5/5 169/86/80
f 16/8/8 30/465/270 32/13/13
f 170/85/79 15/5/5 20/473/278
f 17/7/7 32/13/13 36/471/276
f 2/788/450 19/475/280 37/487/285
f 2/788/450 173/570/347 19/475/280
f 27/11/11 40/502/297 43/22/20
f 22/470/275 1/787/449 39/488/286
f 25/789/9 47/480/282 29/463/269
f 29/463/269 49/23/21 33/17/16
f 34/18/15 49/23/21 53/497/292
f 2/788/450 37/487/285 54/499/294
f 44/21/19 57/790/305 60/791/28
f 39/488/286 1/787/449 56/500/295
f 46/477/281 60/494/28 64/493/289
f 46/477/281 66/31/29 50/26/24
f 51/25/23 66/31/29 70/496/291
f 2/788/450 54/499/294 71/513/303
f 61/29/27 74/526/312 77/38/36
f 56/514/295 1/792/449 73/524/310
f 59/27/25 81/504/299 63/793/288
f 63/490/288 83/794/37 67/34/32
f 68/795/31 83/39/37 87/510/301
f 2/788/450 71/513/303 88/512/302
f 78/37/35 91/537/321 94/46/44
f 73/524/310 1/792/449 90/523/309
f 76/35/33 98/519/307 80/503/298
f 84/42/40 98/522/307 100/47/45
f 85/41/39 100/47/45 104/530/316
f 2/788/450 88/512/302 105/527/313
f 95/45/43 108/548/331 111/55/52
f 90/523/309 1/792/449 107/796/451
f 93/43/41 115/532/318 97/518/306
f 97/520/306 117/57/53 101/50/48
f 102/49/47 117/57/53 121/540/324
f 2/788/450 105/527/313 122/539/323
f 112/53/51 125/558/333 128/64/60
f 107/796/451 1/792/449 124/551/334
f 110/51/49 132/542/326 114/531/317
f 114/531/317 134/797/61 118/798/56
f 119/59/55 134/65/61 138/547/330
f 2/788/450 122/539/323 139/545/328
f 129/63/59 142/560/342 145/72/68
f 124/562/334 1/787/449 141/563/343
f 127/61/57 149/553/336 131/541/325
f 131/541/325 151/73/69 135/799/64
f 136/67/63 151/800/69 155/557/340
f 2/788/450 139/545/328 156/556/339
f 146/71/67 159/801/351 162/802/76
f 141/563/343 1/787/449 158/578/352
f 144/69/65 166/803/345 148/552/335
f 148/804/335 168/83/77 152/77/72
f 153/78/71 168/83/77 172/573/349
f 2/788/450 156/556/339 173/570/347
f 338/193/184 3/805/449 176/90/84
f 176/90/84 3/805/449 200/106/100
f 336/188/179 183/806/356 343/673/416
f 177/92/86 206/593/364 182/581/355
f 343/673/416 186/807/359 346/675/418
f 182/585/355 209/597/367 185/583/357
f 346/808/418 189/591/362 349/809/423
f 185/583/357 212/602/371 188/590/361
f 352/688/186 189/591/362 191/94/88
f 188/590/361 216/113/107 192/97/91
f 4/810/450 353/199/189 193/686/93
f 4/810/450 193/686/93 215/616/105
f 205/592/363 222/118/112 229/604/373
f 200/106/100 3/805/449 223/120/114
f 208/811/365 229/604/373 232/812/376
f 208/594/365 235/813/380 211/601/370
f 211/601/370 239/614/121 214/108/102
f 4/810/450 215/616/105 238/631/119
f 221/115/109 252/620/382 228/603/372
f 223/120/114 3/805/449 246/135/128
f 228/607/372 255/624/385 231/605/374
f 231/605/374 258/629/389 234/612/379
f 234/612/379 262/143/135 237/122/116
f 4/810/450 238/631/119 261/140/133
f 244/129/123 275/634/391 251/618/381
f 246/647/128 3/814/449 269/150/142
f 251/623/381 278/642/394 254/621/383
f 254/621/383 281/815/397 257/628/388
f 260/137/130 281/815/397 285/816/149
f 4/810/450 261/140/133 284/155/147
f 274/633/390 291/162/154 298/649/399
f 269/150/142 3/814/449 292/164/156
f 274/633/390 301/652/402 277/635/392
f 277/638/392 304/658/406 280/644/396
f 280/644/396 308/171/163 283/152/144
f 4/810/450 284/155/147 307/169/161
f 290/159/151 321/661/408 297/648/398
f 292/164/156 3/814/449 315/179/170
f 297/648/398 324/817/411 300/650/400
f 300/653/400 327/672/415 303/657/405
f 306/166/158 327/672/415 331/186/177
f 4/810/450 307/169/161 330/184/175
f 313/173/165 344/674/417 320/659/407
f 315/684/170 3/805/449 338/193/184
f 320/659/407 347/677/420 323/662/409
f 323/662/409 350/818/424 326/819/414
f 326/671/414 354/201/191 329/181/172
f 4/810/450 330/184/175 353/199/189
f 401/703/247 359/203/193 373/217/211
f 368/699/208 374/220/214 361/695/199
f 395/245/241 360/693/196 389/820/235
f 380/226/220 394/242/238 408/258/256
f 381/708/223 402/254/250 375/223/217
f 409/821/259 388/237/232 403/822/253
f 457/729/247 415/266/193 429/280/211
f 424/726/208 430/283/214 417/722/199
f 451/308/241 416/720/196 445/823/235
f 436/289/220 450/305/238 464/321/256
f 437/734/223 458/317/250 431/286/217
f 465/824/259 444/300/232 459/737/253
f 513/754/247 471/329/193 485/343/211
f 480/750/208 486/346/214 473/746/199
f 507/371/241 472/744/196 501/825/235
f 492/352/220 506/368/238 520/384/256
f 493/757/223 514/380/250 487/349/217
f 521/826/259 500/363/232 515/827/253
f 569/778/247 527/392/193 541/406/211
f 536/774/208 542/409/214 529/770/199
f 563/434/241 528/768/196 557/828/235
f 548/415/220 562/431/238 576/447/256
f 549/781/223 570/443/250 543/412/217
f 577/829/259 556/426/232 571/784/253
f 175/87/81 178/91/85 179/88/82
f 176/90/84 180/93/87 179/88/82
f 177/92/86 181/89/83 179/88/82
f 191/94/88 194/98/92 195/95/89
f 192/97/91 196/100/94 195/95/89
f 193/99/93 197/96/90 195/95/89
f 198/101/95 201/105/99 202/102/96
f 199/104/98 203/107/101 202/102/96
f 200/106/100 204/103/97 202/102/96
f 214/108/102 217/112/106 218/109/103
f 215/111/105 219/114/108 218/109/103
f 216/113/107 220/110/104 218/109/103
f 221/115/109 224/119/113 225/116/110
f 222/118/112 226/121/115 225/116/110
f 223/120/114 227/117/111 225/116/110
f 237/122/116 240/126/120 241/123/117
f 238/125/119 242/128/122 241/123/117
f 239/127/121 243/124/118 241/123/117
f 244/129/123 247/619/127 248/130/124
f 245/132/126 249/136/129 248/133/124
f 246/135/128 250/830/125 248/133/124
f 260/137/130 263/831/134 264/138/131
f 261/140/133 265/630/136 264/141/131
f 262/143/135 266/139/132 264/138/131
f 267/145/137 270/149/141 271/146/138
f 268/148/140 272/151/143 271/146/138
f 269/150/142 273/147/139 271/146/138
f 283/152/144 286/156/148 287/153/145
f 284/155/147 288/158/150 287/153/145
f 285/157/149 289/154/146 287/153/145
f 290/159/151 293/163/155 294/160/152
f 291/162/154 295/165/157 294/160/152
f 292/164/156 296/161/153 294/160/152
f 306/166/158 309/170/162 310/167/159
f 307/169/161 311/172/164 310/167/159
f 308/171/163 312/168/160 310/167/159
f 313/173/165 316/660/169 317/174/166
f 314/176/168 318/180/171 317/177/166
f 315/179/170 319/832/167 317/177/166
f 329/181/172 332/185/176 333/182/173
f 330/184/175 334/187/178 333/182/173
f 331/186/177 335/183/174 333/182/173
f 336/188/179 339/192/183 340/189/180
f 337/191/182 341/685/185 340/189/180
f 338/193/184 342/833/181 340/194/180
f 352/196/186 355/200/190 356/197/187
f 353/199/189 357/202/192 356/197/187
f 354/201/191 358/198/188 356/197/187
f 359/203/193 362/207/442 363/204/194
f 360/206/196 364/209/426 363/204/197
f 361/208/199 365/205/445 363/204/200
f 366/210/202 369/214/444 370/211/203
f 367/213/205 371/216/428 370/211/206
f 368/215/208 372/212/427 370/211/209
f 373/217/211 376/690/425 377/218/212
f 374/220/214 378/702/431 377/221/215
f 375/223/217 379/705/433 377/224/218
f 380/226/220 383/706/434 384/227/221
f 381/229/223 385/233/430 384/230/224
f 382/232/226 386/698/429 384/230/227
f 387/234/229 390/711/437 391/235/230
f 388/237/232 392/241/441 391/238/233
f 389/240/235 393/834/448 391/238/236
f 394/242/238 397/835/443 398/243/239
f 395/245/241 399/836/440 398/246/242
f 396/248/244 400/837/446 398/249/245
f 401/251/247 404/255/432 405/252/248
f 402/254/250 406/257/436 405/252/251
f 403/256/253 407/253/438 405/252/254
f 408/258/256 411/262/439 412/259/257
f 409/261/259 413/838/435 412/259/260
f 410/263/262 414/839/452 412/264/263
f 415/266/193 418/270/442 419/267/194
f 416/269/196 420/272/426 419/267/197
f 417/271/199 421/268/445 419/267/200
f 422/273/202 425/277/444 426/274/203
f 423/276/205 427/279/428 426/274/206
f 424/278/208 428/275/427 426/274/209
f 429/280/211 432/717/425 433/281/212
f 430/283/214 434/728/431 433/284/215
f 431/286/217 435/731/433 433/287/218
f 436/289/220 439/732/434 440/290/221
f 437/292/223 441/296/430 440/293/224
f 438/295/226 442/840/429 440/293/227
f 443/297/229 446/736/437 447/298/230
f 444/300/232 448/304/441 447/301/233
f 445/303/235 449/841/448 447/301/236
f 450/305/238 453/842/443 454/306/239
f 451/308/241 455/843/440 454/309/242
f 452/311/244 456/844/446 454/312/245
f 457/314/247 460/318/432 461/315/248
f 458/317/250 462/320/436 461/315/251
f 459/319/253 463/316/447 461/315/254
f 464/321/256 467/325/439 468/322/257
f 465/324/259 469/845/435 468/322/260
f 466/326/262 470/846/452 468/327/263
f 471/329/193 474/333/442 475/330/194
f 472/332/196 476/335/426 475/330/197
f 473/334/199 477/331/445 475/330/200
f 478/336/202 481/340/444 482/337/203
f 479/339/205 483/342/428 482/337/206
f 480/341/208 484/338/427 482/337/209
f 485/343/211 488/741/425 489/344/212
f 486/346/214 490/752/431 489/347/215
f 487/349/217 491/847/433 489/350/218
f 492/352/220 495/755/434 496/353/221
f 493/355/223 497/359/430 496/356/224
f 494/358/226 498/848/429 496/356/227
f 499/360/229 502/759/437 503/361/230
f 500/363/232 504/367/441 503/364/233
f 501/366/235 505/849/448 503/364/236
f 506/368/238 509/850/443 510/369/239
f 507/371/241 511/851/440 510/372/242
f 508/374/244 512/852/446 510/375/245
f 513/377/247 516/381/432 517/378/248
f 514/380/250 518/383/436 517/378/251
f 515/382/253 519/379/447 517/378/254
f 520/384/256 523/388/439 524/385/257
f 521/387/259 525/853/435 524/385/260
f 522/389/262 526/854/452 524/390/263
f 527/392/193 530/396/442 531/393/194
f 528/395/196 532/398/426 531/393/197
f 529/397/199 533/394/445 531/393/200
f 534/399/202 537/403/444 538/400/203
f 535/402/205 539/405/428 538/400/206
f 536/404/208 540/401/427 538/400/209
f 541/406/211 544/765/425 545/407/212
f 542/409/214 546/776/431 545/410/215
f 543/412/217 547/855/433 545/413/218
f 548/415/220 551/779/434 552/416/221
f 549/418/223 553/422/430 552/419/224
f 550/421/226 554/856/429 552/419/227
f 555/423/229 558/783/437 559/424/230
f 556/426/232 560/430/441 559/427/233
f 557/429/235 561/857/448 559/427/236
f 562/431/238 565/858/443 566/432/239
f 563/434/241 567/859/440 566/435/242
f 564/437/244 568/860/446 566/438/245
f 569/440/247 572/444/432 573/441/248
f 570/443/250 574/446/436 573/441/251
f 571/445/253 575/442/447 573/441/254
f 576/447/256 579/451/439 580/448/257
f 577/450/259 581/861/435 580/448/260
f 578/452/262 582/862/452 580/453/263
f 12/455/266 14/460/268 11/456/2
f 11/456/2 14/460/268 13/458/267
f 12/455/266 16/8/8 18/6/6
f 18/6/6 15/5/5 13/458/267
f 29/461/269 31/863/271 28/10/10
f 28/10/10 31/863/271 30/462/270
f 29/463/269 33/17/16 35/16/14
f 35/14/14 32/13/13 30/465/270
f 23/467/272 5/579/353 7/468/273
f 7/468/273 6/580/354 22/470/275
f 36/471/276 38/864/279 21/472/277
f 38/474/279 37/487/285 19/475/280
f 46/477/281 48/482/283 45/478/18
f 45/478/18 48/482/283 47/480/282
f 46/477/281 50/26/24 52/24/22
f 52/24/22 49/23/21 47/480/282
f 36/483/276 53/497/292 55/484/284
f 55/486/284 54/499/294 37/487/285
f 39/488/286 41/489/287 24/469/274
f 41/489/287 40/502/297 23/467/272
f 63/490/288 65/495/290 62/491/26
f 62/491/26 65/495/290 64/493/289
f 63/490/288 67/34/32 69/32/30
f 69/32/30 66/31/29 64/493/289
f 70/496/291 72/865/293 55/484/284
f 72/498/293 71/513/303 54/499/294
f 56/500/295 58/501/296 41/489/287
f 58/501/296 57/790/305 40/502/297
f 80/503/298 82/866/300 79/36/34
f 79/36/34 82/866/300 81/504/299
f 80/505/298 84/42/40 86/40/38
f 86/507/38 83/794/37 81/508/299
f 87/510/301 89/528/314 72/498/293
f 72/498/293 89/528/314 88/512/302
f 56/514/295 73/524/310 75/515/304
f 75/515/304 74/526/312 57/517/305
f 97/518/306 99/867/308 96/44/42
f 96/44/42 99/867/308 98/519/307
f 97/520/306 101/50/48 103/48/46
f 103/48/46 100/47/45 98/522/307
f 90/523/309 92/525/311 75/515/304
f 92/525/311 91/537/321 74/526/312
f 105/527/313 88/512/302 89/528/314
f 89/528/314 87/510/301 104/530/316
f 114/531/317 116/868/319 113/52/50
f 113/54/50 116/869/319 115/532/318
f 114/533/317 118/60/56 120/58/54
f 120/58/54 117/57/53 115/535/318
f 90/523/309 107/796/451 109/536/320
f 109/536/320 108/548/331 91/537/321
f 105/527/313 106/529/315 123/538/322
f 106/529/315 104/530/316 121/540/324
f 131/541/325 133/544/327 130/62/58
f 130/62/58 133/544/327 132/542/326
f 131/541/325 135/799/64 137/543/62
f 137/543/62 134/797/61 132/542/326
f 139/545/328 122/539/323 123/538/322
f 123/538/322 121/540/324 138/547/330
f 108/548/331 109/536/320 126/549/332
f 109/536/320 107/796/451 124/551/334
f 148/552/335 150/554/337 147/70/66
f 147/70/66 150/554/337 149/553/336
f 148/552/335 152/870/72 154/74/70
f 154/74/70 151/73/69 149/553/336
f 139/545/328 140/546/329 157/555/338
f 140/546/329 138/547/330 155/557/340
f 125/558/333 126/871/332 143/559/341
f 143/561/341 126/872/332 124/562/334
f 165/564/344 167/569/346 164/565/74
f 164/565/74 167/569/346 166/567/345
f 165/564/344 169/86/80 171/84/78
f 171/84/78 168/83/77 166/567/345
f 173/570/347 156/556/339 157/555/338
f 157/572/338 155/873/340 172/573/349
f 142/575/342 143/561/341 160/576/350
f 160/576/350 143/561/341 141/563/343
f 173/570/347 174/571/348 21/476/277
f 174/574/348 172/573/349 20/473/278
f 159/577/351 160/576/350 7/468/273
f 160/576/350 158/578/352 6/580/354
f 182/581/355 184/874/358 181/89/83
f 181/89/83 184/874/358 183/582/356
f 185/583/357 187/589/346 184/584/358
f 184/584/358 187/589/346 186/586/359
f 185/583/357 188/590/361 190/588/360
f 190/588/360 189/591/362 186/586/359
f 188/590/361 192/97/91 194/98/92
f 194/98/92 191/94/88 189/591/362
f 205/592/363 207/875/366 201/105/99
f 201/105/99 207/875/366 206/593/364
f 208/594/365 210/600/369 207/595/366
f 207/595/366 210/600/369 209/597/367
f 208/594/365 211/601/370 213/599/368
f 213/599/368 212/602/371 209/597/367
f 211/601/370 214/108/102 220/110/104
f 220/110/104 216/113/107 212/602/371
f 215/111/105 193/99/93 196/100/94
f 196/100/94 192/97/91 216/113/107
f 199/104/98 177/92/86 180/93/87
f 203/107/101 180/93/87 176/90/84
f 228/603/372 230/876/375 224/119/113
f 224/119/113 230/876/375 229/604/373
f 231/605/374 233/611/378 230/606/375
f 230/606/375 233/611/378 232/608/376
f 231/605/374 234/612/379 236/610/377
f 236/610/377 235/613/380 232/608/376
f 234/612/379 237/122/116 243/124/118
f 243/124/118 239/127/121 235/613/380
f 198/101/95 204/103/97 226/121/115
f 204/103/97 200/106/100 223/120/114
f 239/614/121 242/877/122 217/112/106
f 242/615/122 238/631/119 215/616/105
f 251/618/381 253/878/384 247/619/127
f 247/134/127 253/879/384 252/620/382
f 254/621/383 256/627/387 253/622/384
f 253/622/384 256/627/387 255/624/385
f 254/621/383 257/628/388 259/626/386
f 259/626/386 258/629/389 255/624/385
f 257/628/388 260/137/130 266/139/132
f 266/139/132 262/143/135 258/629/389
f 262/143/135 265/144/136 240/126/120
f 265/630/136 261/140/133 238/631/119
f 223/120/114 246/135/128 249/136/129
f 249/136/129 245/132/126 221/115/109
f 274/633/390 276/636/393 270/149/141
f 270/149/141 276/636/393 275/634/391
f 277/635/392 279/880/300 276/636/393
f 276/636/393 279/880/300 278/637/394
f 277/638/392 280/644/396 282/639/395
f 282/641/395 281/815/397 278/642/394
f 280/644/396 283/152/144 289/154/146
f 289/154/146 285/157/149 281/645/397
f 285/157/149 288/158/150 263/142/134
f 263/142/134 288/158/150 284/155/147
f 269/150/142 272/151/143 250/131/125
f 272/151/143 268/148/140 244/129/123
f 297/648/398 299/651/401 293/163/155
f 293/163/155 299/651/401 298/649/399
f 300/650/400 302/881/404 299/651/401
f 299/651/401 302/881/404 301/652/402
f 300/653/400 303/657/405 305/654/403
f 305/654/403 304/658/406 301/656/402
f 303/657/405 306/166/158 312/168/160
f 312/168/160 308/171/163 304/658/406
f 283/152/144 308/171/163 311/172/164
f 311/172/164 307/169/161 284/155/147
f 292/164/156 295/165/157 273/147/139
f 273/147/139 295/165/157 291/162/154
f 320/659/407 322/663/410 316/660/169
f 316/178/169 322/882/410 321/661/408
f 323/662/409 325/667/413 322/663/410
f 322/663/410 325/667/413 324/664/411
f 323/662/409 326/819/414 328/666/412
f 328/668/412 327/672/415 324/669/411
f 326/671/414 329/181/172 335/183/174
f 335/183/174 331/186/177 327/672/415
f 315/179/170 318/180/171 296/161/153
f 318/180/171 314/176/168 290/159/151
f 307/169/161 309/170/162 334/187/178
f 309/170/162 306/166/158 331/186/177
f 343/673/416 345/676/419 339/192/183
f 339/192/183 345/676/419 344/674/417
f 346/675/418 348/679/422 345/676/419
f 345/676/419 348/679/422 347/677/420
f 346/675/418 349/883/423 351/678/421
f 351/678/421 350/818/424 347/677/420
f 349/680/423 352/196/186 358/198/188
f 358/198/188 354/201/191 350/682/424
f 338/193/184 341/195/185 319/683/167
f 341/685/185 337/191/182 313/173/165
f 330/184/175 332/185/176 357/202/192
f 357/202/192 332/185/176 329/181/172
f 193/686/93 353/199/189 355/200/190
f 197/96/90 355/884/190 352/688/186
f 336/689/179 342/833/181 178/91/85
f 178/91/85 342/833/181 338/193/184
f 359/203/193 365/205/195 376/690/425
f 376/690/216 365/205/445 361/208/199
f 366/210/202 372/212/204 364/692/426
f 372/694/427 368/699/208 361/695/199
f 367/213/205 380/885/220 386/697/222
f 386/698/429 382/232/226 368/699/208
f 375/701/217 378/702/219 385/233/430
f 378/702/431 374/220/214 382/232/226
f 401/703/247 373/217/211 379/219/213
f 379/705/433 375/223/217 402/254/250
f 408/258/256 414/260/258 383/706/434
f 383/707/225 414/839/452 410/263/262
f 403/256/253 406/257/255 413/265/435
f 406/257/436 402/254/250 410/263/262
f 387/234/229 401/703/247 407/710/249
f 407/712/438 403/822/253 388/237/232
f 394/242/238 400/244/240 411/262/439
f 411/262/261 400/244/446 396/713/244
f 389/240/235 392/241/237 399/250/440
f 392/241/441 388/237/232 396/248/244
f 387/234/229 393/236/231 362/207/442
f 362/207/198 393/236/448 389/715/235
f 394/716/238 367/213/205 369/214/207
f 369/214/444 366/210/202 395/245/241
f 429/280/211 415/266/193 421/268/195
f 421/268/445 417/271/199 430/718/214
f 422/273/202 428/275/204 420/719/426
f 428/721/427 424/726/208 417/722/199
f 436/724/220 442/886/222 427/279/428
f 427/725/210 442/840/429 438/295/226
f 431/727/217 434/728/219 441/296/430
f 434/728/431 430/283/214 438/295/226
f 457/729/247 429/280/211 435/282/213
f 435/731/433 431/286/217 458/317/250
f 464/321/256 470/323/258 439/732/434
f 439/733/225 470/846/452 466/326/262
f 459/319/253 462/320/255 469/328/435
f 462/320/436 458/317/250 466/326/262
f 457/729/247 463/887/249 446/736/437
f 446/302/265 463/888/447 459/737/253
f 464/321/256 450/305/238 456/307/240
f 456/307/446 452/889/244 465/324/259
f 445/303/235 448/304/237 455/313/440
f 448/304/441 444/300/232 452/311/244
f 443/297/229 449/299/231 418/270/442
f 418/270/198 449/299/448 445/739/235
f 450/740/238 423/276/205 425/277/207
f 425/277/444 422/273/202 451/308/241
f 471/329/193 477/331/195 488/741/425
f 477/331/445 473/334/199 486/742/214
f 478/336/202 484/338/204 476/743/426
f 484/745/427 480/750/208 473/746/199
f 492/748/220 498/890/222 483/342/428
f 483/749/210 498/848/429 494/358/226
f 487/751/217 490/752/219 497/359/430
f 490/752/431 486/346/214 494/358/226
f 485/343/211 491/345/213 516/753/432
f 516/381/252 491/847/433 487/349/217
f 520/384/256 526/386/258 495/755/434
f 495/756/225 526/854/452 522/389/262
f 515/382/253 518/383/255 525/391/435
f 518/383/436 514/380/250 522/389/262
f 513/754/247 519/891/249 502/759/437
f 519/760/447 515/827/253 500/363/232
f 506/368/238 512/370/240 523/388/439
f 523/388/261 512/370/446 508/761/244
f 501/366/235 504/367/237 511/376/440
f 504/367/441 500/363/232 508/374/244
f 499/360/229 505/362/231 474/333/442
f 474/333/198 505/362/448 501/763/235
f 506/764/238 479/339/205 481/340/207
f 481/340/444 478/336/202 507/371/241
f 541/406/211 527/392/193 533/394/195
f 533/394/445 529/397/199 542/766/214
f 534/399/202 540/401/204 532/767/426
f 540/769/427 536/774/208 529/770/199
f 548/772/220 554/892/222 539/405/428
f 539/773/210 554/856/429 550/421/226
f 543/775/217 546/776/219 553/422/430
f 546/776/431 542/409/214 550/421/226
f 541/406/211 547/408/213 572/777/432
f 572/444/252 547/855/433 543/412/217
f 576/447/256 582/449/258 551/779/434
f 551/780/225 582/862/452 578/452/262
f 571/445/253 574/446/255 581/454/435
f 574/446/436 570/443/250 578/452/262
f 569/778/247 575/893/249 558/783/437
f 558/428/234 575/894/447 571/784/253
f 562/431/238 568/433/240 579/451/439
f 568/433/446 564/895/244 577/450/259
f 557/429/235 560/430/237 567/439/440
f 560/430/441 556/426/232 564/437/244
f 555/423/229 561/425/231 530/396/442
f 561/425/448 557/896/235 528/395/196
f 535/402/205 537/403/207 565/436/443
f 537/403/444 534/399/202 563/434/241
f 26/12/12 8/1/1 10/3/3
f 10/3/3 5/579/353 23/467/272
f 23/467/272 27/11/11 26/12/12
f 9/4/4 161/79/73 163/81/75
f 163/81/75 159/577/351 5/579/353
f 5/579/353 10/3/3 9/4/4
f 161/566/73 9/459/4 13/458/267
f 8/457/1 26/897/12 30/465/270
f 165/564/344 13/458/267 15/5/5
f 16/8/8 12/455/266 30/465/270
f 20/473/278 172/573/349 170/85/79
f 170/85/79 169/86/80 15/5/5
f 15/5/5 17/7/7 20/473/278
f 36/471/276 20/473/278 17/7/7
f 17/7/7 16/8/8 32/13/13
f 32/13/13 34/15/15 36/471/276
f 43/22/20 25/9/9 27/11/11
f 27/11/11 23/467/272 40/502/297
f 40/502/297 44/21/19 43/22/20
f 25/789/9 43/481/20 47/480/282
f 29/463/269 47/480/282 49/23/21
f 53/497/292 36/483/276 34/18/15
f 34/18/15 33/17/16 49/23/21
f 49/23/21 51/25/23 53/497/292
f 60/791/28 42/19/17 44/21/19
f 44/21/19 40/502/297 57/790/305
f 57/790/305 61/898/27 60/791/28
f 46/477/281 42/479/17 60/494/28
f 46/477/281 64/493/289 66/31/29
f 70/496/291 53/497/292 51/25/23
f 51/25/23 50/26/24 66/31/29
f 66/31/29 68/33/31 70/496/291
f 77/38/36 59/27/25 61/29/27
f 61/29/27 57/517/305 74/526/312
f 74/526/312 78/37/35 77/38/36
f 59/27/25 77/38/36 81/504/299
f 63/490/288 81/508/299 83/794/37
f 87/510/301 70/511/291 68/795/31
f 68/795/31 67/899/32 83/39/37
f 83/39/37 85/41/39 87/510/301
f 94/46/44 76/35/33 78/37/35
f 78/37/35 74/526/312 91/537/321
f 91/537/321 95/45/43 94/46/44
f 76/35/33 94/46/44 98/519/307
f 84/42/40 80/505/298 98/522/307
f 104/530/316 87/510/301 85/41/39
f 85/41/39 84/42/40 100/47/45
f 100/47/45 102/49/47 104/530/316
f 111/55/52 93/43/41 95/45/43
f 95/45/43 91/537/321 108/548/331
f 108/548/331 112/56/51 111/55/52
f 93/43/41 111/55/52 115/532/318
f 97/520/306 115/535/318 117/57/53
f 121/540/324 104/530/316 102/49/47
f 102/49/47 101/50/48 117/57/53
f 117/57/53 119/59/55 121/540/324
f 128/64/60 110/51/49 112/53/51
f 112/53/51 108/900/331 125/558/333
f 125/558/333 129/63/59 128/64/60
f 110/51/49 128/64/60 132/542/326
f 114/531/317 132/542/326 134/797/61
f 138/547/330 121/540/324 119/59/55
f 119/59/55 118/60/56 134/65/61
f 134/65/61 136/67/63 138/547/330
f 145/72/68 127/61/57 129/63/59
f 129/63/59 125/558/333 142/560/342
f 142/560/342 146/71/67 145/72/68
f 127/61/57 145/72/68 149/553/336
f 131/541/325 149/553/336 151/73/69
f 155/557/340 138/547/330 136/67/63
f 136/67/63 135/68/64 151/800/69
f 151/800/69 153/901/71 155/557/340
f 162/802/76 144/69/65 146/71/67
f 146/71/67 142/560/342 159/801/351
f 159/801/351 163/902/75 162/802/76
f 144/69/65 162/802/76 166/803/345
f 148/804/335 166/567/345 168/83/77
f 172/573/349 155/873/340 153/78/71
f 153/78/71 152/77/72 168/83/77
f 168/83/77 170/85/79 172/573/349
f 336/188/179 175/903/81 183/806/356
f 177/92/86 199/104/98 206/593/364
f 343/673/416 183/806/356 186/807/359
f 182/585/355 206/598/364 209/597/367
f 346/808/418 186/586/359 189/591/362
f 185/583/357 209/597/367 212/602/371
f 352/688/186 349/809/423 189/591/362
f 188/590/361 212/602/371 216/113/107
f 205/592/363 198/101/95 222/118/112
f 208/811/365 205/592/363 229/604/373
f 208/594/365 232/904/376 235/813/380
f 211/601/370 235/813/380 239/614/121
f 221/115/109 245/132/126 252/620/382
f 228/607/372 252/625/382 255/624/385
f 231/605/374 255/624/385 258/629/389
f 234/612/379 258/629/389 262/143/135
f 244/129/123 268/148/140 275/634/391
f 251/623/381 275/905/391 278/642/394
f 254/621/383 278/642/394 281/815/397
f 260/137/130 257/628/388 281/815/397
f 274/633/390 267/145/137 291/162/154
f 274/633/390 298/649/399 301/652/402
f 277/638/392 301/656/402 304/658/406
f 280/644/396 304/658/406 308/171/163
f 290/159/151 314/176/168 321/661/408
f 297/648/398 321/661/408 324/817/411
f 300/653/400 324/669/411 327/672/415
f 306/166/158 303/657/405 327/672/415
f 313/173/165 337/191/182 344/674/417
f 320/659/407 344/674/417 347/677/420
f 323/662/409 347/677/420 350/818/424
f 326/671/414 350/682/424 354/201/191
f 401/703/247 387/234/229 359/203/193
f 368/699/208 382/232/226 374/220/214
f 395/245/241 366/210/202 360/693/196
f 380/226/220 367/906/205 394/242/238
f 381/708/223 410/263/262 402/254/250
f 409/821/259 396/248/244 388/237/232
f 457/729/247 443/297/229 415/266/193
f 424/726/208 438/295/226 430/283/214
f 451/308/241 422/273/202 416/720/196
f 436/289/220 423/907/205 450/305/238
f 437/734/223 466/326/262 458/317/250
f 465/824/259 452/311/244 444/300/232
f 513/754/247 499/360/229 471/329/193
f 480/750/208 494/358/226 486/346/214
f 507/371/241 478/336/202 472/744/196
f 492/352/220 479/908/205 506/368/238
f 493/757/223 522/389/262 514/380/250
f 521/826/259 508/374/244 500/363/232
f 569/778/247 555/423/229 527/392/193
f 536/774/208 550/421/226 542/409/214
f 563/434/241 534/399/202 528/768/196
f 548/415/220 535/909/205 562/431/238
f 549/781/223 578/452/262 570/443/250
f 577/829/259 564/437/244 556/426/232
