# Blender 5.2.0 LTS
# www.blender.org
o unit_royal_builder_mallet
v -0.145000 0.000000 -0.024176
v -0.135000 0.009239 -0.031173
v -0.135000 -0.009239 -0.031173
v -0.144239 0.003536 -0.026368
v -0.142071 0.006533 -0.028467
v -0.144239 -0.003536 -0.026368
v -0.143320 0.000000 -0.028688
v -0.141563 0.002623 -0.030288
v -0.140774 0.000000 -0.031095
v -0.135000 0.005000 -0.032832
v -0.135000 0.000000 -0.033415
v -0.138827 0.008536 -0.030155
v -0.138923 0.004063 -0.031765
v -0.138724 0.000000 -0.032274
v -0.138827 -0.008536 -0.030155
v -0.142071 -0.006533 -0.028467
v -0.135000 -0.005000 -0.032832
v -0.138923 -0.004063 -0.031765
v -0.141563 -0.002623 -0.030288
v 0.705000 -0.000000 -0.024176
v 0.695000 -0.009239 -0.031173
v 0.695000 0.009239 -0.031173
v 0.704239 -0.003536 -0.026368
v 0.702071 -0.006533 -0.028467
v 0.704239 0.003536 -0.026368
v 0.703320 -0.000000 -0.028688
v 0.701563 -0.002623 -0.030288
v 0.700774 -0.000000 -0.031095
v 0.695000 -0.005000 -0.032832
v 0.695000 -0.000000 -0.033415
v 0.698827 -0.008536 -0.030155
v 0.698923 -0.004063 -0.031765
v 0.698724 -0.000000 -0.032274
v 0.698827 0.008536 -0.030155
v 0.702071 0.006533 -0.028467
v 0.695000 0.005000 -0.032832
v 0.698923 0.004063 -0.031765
v 0.701563 0.002623 -0.030288
v -0.145000 -0.017095 -0.017095
v -0.135000 -0.015510 -0.028576
v -0.135000 -0.028576 -0.015510
v -0.144239 -0.017318 -0.021145
v -0.142071 -0.017095 -0.024749
v -0.144239 -0.021145 -0.017318
v -0.143132 -0.020659 -0.020659
v -0.141648 -0.020153 -0.023478
v -0.140751 -0.022206 -0.022206
v -0.135000 -0.019337 -0.026408
v -0.135000 -0.023164 -0.023164
v -0.138827 -0.016460 -0.027358
v -0.138692 -0.019800 -0.025073
v -0.138598 -0.022801 -0.022801
v -0.138827 -0.027358 -0.016460
v -0.142071 -0.024749 -0.017095
v -0.135000 -0.026408 -0.019337
v -0.138692 -0.025073 -0.019800
v -0.141648 -0.023478 -0.020153
v 0.705000 -0.017095 -0.017095
v 0.695000 -0.028576 -0.015510
v 0.695000 -0.015510 -0.028576
v 0.704239 -0.021145 -0.017318
v 0.702071 -0.024749 -0.017095
v 0.704239 -0.017318 -0.021145
v 0.703132 -0.020659 -0.020659
v 0.701648 -0.023478 -0.020153
v 0.700751 -0.022206 -0.022206
v 0.695000 -0.026408 -0.019337
v 0.695000 -0.023164 -0.023164
v 0.698827 -0.027358 -0.016460
v 0.698692 -0.025073 -0.019800
v 0.698598 -0.022801 -0.022801
v 0.698827 -0.016460 -0.027358
v 0.702071 -0.017095 -0.024749
v 0.695000 -0.019337 -0.026408
v 0.698692 -0.019800 -0.025073
v 0.701648 -0.020153 -0.023478
v -0.145000 -0.024176 0.000000
v -0.135000 -0.031173 -0.009239
v -0.135000 -0.031173 0.009239
v -0.144239 -0.026368 -0.003536
v -0.142071 -0.028467 -0.006533
v -0.144239 -0.026368 0.003536
v -0.143320 -0.028688 0.000000
v -0.141563 -0.030288 -0.002623
v -0.140774 -0.031095 0.000000
v -0.135000 -0.032832 -0.005000
v -0.135000 -0.033415 -0.000000
v -0.138827 -0.030155 -0.008536
v -0.138923 -0.031765 -0.004063
v -0.138724 -0.032274 -0.000000
v -0.138827 -0.030155 0.008536
v -0.142071 -0.028467 0.006533
v -0.135000 -0.032832 0.005000
v -0.138923 -0.031765 0.004063
v -0.141563 -0.030288 0.002623
v 0.705000 -0.024176 -0.000000
v 0.695000 -0.031173 0.009239
v 0.695000 -0.031173 -0.009239
v 0.704239 -0.026368 0.003536
v 0.702071 -0.028467 0.006533
v 0.704239 -0.026368 -0.003536
v 0.703320 -0.028688 0.000000
v 0.701563 -0.030288 0.002623
v 0.700774 -0.031095 0.000000
v 0.695000 -0.032832 0.005000
v 0.695000 -0.033415 0.000000
v 0.698827 -0.030155 0.008536
v 0.698923 -0.031765 0.004063
v 0.698724 -0.032274 0.000000
v 0.698827 -0.030155 -0.008536
v 0.702071 -0.028467 -0.006533
v 0.695000 -0.032832 -0.005000
v 0.698923 -0.031765 -0.004063
v 0.701563 -0.030288 -0.002623
v -0.145000 -0.017095 0.017095
v -0.135000 -0.028576 0.015510
v -0.135000 -0.015510 0.028576
v -0.144239 -0.021145 0.017318
v -0.142071 -0.024749 0.017095
v -0.144239 -0.017318 0.021145
v -0.143132 -0.020659 0.020659
v -0.141648 -0.023478 0.020153
v -0.140751 -0.022206 0.022206
v -0.135000 -0.026408 0.019337
v -0.135000 -0.023164 0.023164
v -0.138827 -0.027358 0.016460
v -0.138692 -0.025073 0.019800
v -0.138598 -0.022801 0.022801
v -0.138827 -0.016460 0.027358
v -0.142071 -0.017095 0.024749
v -0.135000 -0.019337 0.026408
v -0.138692 -0.019800 0.025073
v -0.141648 -0.020153 0.023478
v 0.705000 -0.017095 0.017095
v 0.695000 -0.015510 0.028576
v 0.695000 -0.028576 0.015510
v 0.704239 -0.017318 0.021145
v 0.702071 -0.017095 0.024749
v 0.704239 -0.021145 0.017318
v 0.703132 -0.020659 0.020659
v 0.701648 -0.020153 0.023478
v 0.700751 -0.022206 0.022206
v 0.695000 -0.019337 0.026408
v 0.695000 -0.023164 0.023164
v 0.698827 -0.016460 0.027358
v 0.698692 -0.019800 0.025073
v 0.698598 -0.022801 0.022801
v 0.698827 -0.027358 0.016460
v 0.702071 -0.024749 0.017095
v 0.695000 -0.026408 0.019337
v 0.698692 -0.025073 0.019800
v 0.701648 -0.023478 0.020153
v -0.145000 0.000000 0.024176
v -0.135000 -0.009239 0.031173
v -0.135000 0.009239 0.031173
v -0.144239 -0.002706 0.027197
v -0.142071 -0.005412 0.029588
v -0.144239 0.002706 0.027197
v -0.143132 0.000000 0.029216
v -0.141648 -0.002351 0.030851
v -0.140751 0.000000 0.031404
v -0.135000 -0.005000 0.032346
v -0.135000 0.000000 0.032758
v -0.138827 -0.007706 0.030984
v -0.138692 -0.003729 0.031730
v -0.138598 0.000000 0.032245
v -0.138827 0.007706 0.030984
v -0.142071 0.005412 0.029588
v -0.135000 0.005000 0.032346
v -0.138692 0.003729 0.031730
v -0.141648 0.002351 0.030851
v 0.705000 -0.000000 0.024176
v 0.695000 0.009239 0.031173
v 0.695000 -0.009239 0.031173
v 0.704239 0.002706 0.027197
v 0.702071 0.005412 0.029588
v 0.704239 -0.002706 0.027197
v 0.703132 -0.000000 0.029216
v 0.701648 0.002351 0.030851
v 0.700751 -0.000000 0.031404
v 0.695000 0.005000 0.032346
v 0.695000 -0.000000 0.032758
v 0.698827 0.007706 0.030984
v 0.698692 0.003729 0.031730
v 0.698598 -0.000000 0.032245
v 0.698827 -0.007706 0.030984
v 0.702071 -0.005412 0.029588
v 0.695000 -0.005000 0.032346
v 0.698692 -0.003729 0.031730
v 0.701648 -0.002351 0.030851
v -0.145000 0.017095 0.017095
v -0.135000 0.015510 0.028576
v -0.135000 0.028576 0.015510
v -0.144239 0.017318 0.021145
v -0.142071 0.017095 0.024749
v -0.144239 0.021145 0.017318
v -0.143132 0.020659 0.020659
v -0.141648 0.020153 0.023478
v -0.140751 0.022206 0.022206
v -0.135000 0.019337 0.026408
v -0.135000 0.023164 0.023164
v -0.138827 0.016460 0.027358
v -0.138692 0.019800 0.025073
v -0.138598 0.022801 0.022801
v -0.138827 0.027358 0.016460
v -0.142071 0.024749 0.017095
v -0.135000 0.026408 0.019337
v -0.138692 0.025073 0.019800
v -0.141648 0.023478 0.020153
v 0.705000 0.017095 0.017095
v 0.695000 0.028576 0.015510
v 0.695000 0.015510 0.028576
v 0.704239 0.021145 0.017318
v 0.702071 0.024749 0.017095
v 0.704239 0.017318 0.021145
v 0.703132 0.020659 0.020659
v 0.701648 0.023478 0.020153
v 0.700751 0.022206 0.022206
v 0.695000 0.026408 0.019337
v 0.695000 0.023164 0.023164
v 0.698827 0.027358 0.016460
v 0.698692 0.025073 0.019800
v 0.698598 0.022801 0.022801
v 0.698827 0.016460 0.027358
v 0.702071 0.017095 0.024749
v 0.695000 0.019337 0.026408
v 0.698692 0.019800 0.025073
v 0.701648 0.020153 0.023478
v -0.145000 0.024176 -0.000000
v -0.135000 0.031173 0.009239
v -0.135000 0.031173 -0.009239
v -0.144239 0.026368 0.003536
v -0.142071 0.028467 0.006533
v -0.144239 0.026368 -0.003536
v -0.143320 0.028688 0.000000
v -0.141563 0.030288 0.002623
v -0.140774 0.031095 0.000000
v -0.135000 0.032832 0.005000
v -0.135000 0.033415 0.000000
v -0.138827 0.030155 0.008536
v -0.138923 0.031765 0.004063
v -0.138724 0.032274 0.000000
v -0.138827 0.030155 -0.008536
v -0.142071 0.028467 -0.006533
v -0.135000 0.032832 -0.005000
v -0.138923 0.031765 -0.004063
v -0.141563 0.030288 -0.002623
v 0.705000 0.024176 0.000000
v 0.695000 0.031173 -0.009239
v 0.695000 0.031173 0.009239
v 0.704239 0.026368 -0.003536
v 0.702071 0.028467 -0.006533
v 0.704239 0.026368 0.003536
v 0.703320 0.028688 0.000000
v 0.701563 0.030288 -0.002623
v 0.700774 0.031095 0.000000
v 0.695000 0.032832 -0.005000
v 0.695000 0.033415 -0.000000
v 0.698827 0.030155 -0.008536
v 0.698923 0.031765 -0.004063
v 0.698724 0.032274 -0.000000
v 0.698827 0.030155 0.008536
v 0.702071 0.028467 0.006533
v 0.695000 0.032832 0.005000
v 0.698923 0.031765 0.004063
v 0.701563 0.030288 0.002623
v -0.145000 0.017095 -0.017095
v -0.135000 0.028576 -0.015510
v -0.135000 0.015510 -0.028576
v -0.144239 0.021145 -0.017318
v -0.142071 0.024749 -0.017095
v -0.144239 0.017318 -0.021145
v -0.143132 0.020659 -0.020659
v -0.141648 0.023478 -0.020153
v -0.140751 0.022206 -0.022206
v -0.135000 0.026408 -0.019337
v -0.135000 0.023164 -0.023164
v -0.138827 0.027358 -0.016460
v -0.138692 0.025073 -0.019800
v -0.138598 0.022801 -0.022801
v -0.138827 0.016460 -0.027358
v -0.142071 0.017095 -0.024749
v -0.135000 0.019337 -0.026408
v -0.138692 0.019800 -0.025073
v -0.141648 0.020153 -0.023478
v 0.705000 0.017095 -0.017095
v 0.695000 0.015510 -0.028576
v 0.695000 0.028576 -0.015510
v 0.704239 0.017318 -0.021145
v 0.702071 0.017095 -0.024749
v 0.704239 0.021145 -0.017318
v 0.703132 0.020659 -0.020659
v 0.701648 0.020153 -0.023478
v 0.700751 0.022206 -0.022206
v 0.695000 0.019337 -0.026408
v 0.695000 0.023164 -0.023164
v 0.698827 0.016460 -0.027358
v 0.698692 0.019800 -0.025073
v 0.698598 0.022801 -0.022801
v 0.698827 0.027358 -0.016460
v 0.702071 0.024749 -0.017095
v 0.695000 0.026408 -0.019337
v 0.698692 0.025073 -0.019800
v 0.701648 0.023478 -0.020153
v 0.590000 -0.160000 0.060000
v 0.590000 -0.150000 0.070000
v 0.580000 -0.150000 0.060000
v 0.590000 -0.159239 0.063827
v 0.590000 -0.157071 0.067071
v 0.586173 -0.159239 0.060000
v 0.586077 -0.158320 0.063923
v 0.586276 -0.156563 0.066563
v 0.584227 -0.155773 0.065774
v 0.586173 -0.150000 0.069239
v 0.582929 -0.150000 0.067071
v 0.590000 -0.153827 0.069239
v 0.586077 -0.153923 0.068320
v 0.583438 -0.153724 0.066563
v 0.580761 -0.153827 0.060000
v 0.582929 -0.157071 0.060000
v 0.580761 -0.150000 0.063827
v 0.581680 -0.153923 0.063923
v 0.583438 -0.156563 0.063724
v 0.590000 0.150000 0.070000
v 0.590000 0.160000 0.060000
v 0.580000 0.150000 0.060000
v 0.590000 0.153827 0.069239
v 0.590000 0.157071 0.067071
v 0.586173 0.150000 0.069239
v 0.586077 0.153923 0.068320
v 0.586276 0.156563 0.066563
v 0.584227 0.155773 0.065774
v 0.586173 0.159239 0.060000
v 0.582929 0.157071 0.060000
v 0.590000 0.159239 0.063827
v 0.586077 0.158320 0.063923
v 0.583438 0.156563 0.063724
v 0.580761 0.150000 0.063827
v 0.582929 0.150000 0.067071
v 0.580761 0.153827 0.060000
v 0.581680 0.153923 0.063923
v 0.583438 0.153724 0.066563
v 0.590000 -0.160000 -0.060000
v 0.580000 -0.150000 -0.060000
v 0.590000 -0.150000 -0.070000
v 0.586173 -0.159239 -0.060000
v 0.582929 -0.157071 -0.060000
v 0.590000 -0.159239 -0.063827
v 0.586077 -0.158320 -0.063923
v 0.583438 -0.156563 -0.063724
v 0.584227 -0.155773 -0.065774
v 0.580761 -0.150000 -0.063827
v 0.582929 -0.150000 -0.067071
v 0.580761 -0.153827 -0.060000
v 0.581680 -0.153923 -0.063923
v 0.583438 -0.153724 -0.066563
v 0.590000 -0.153827 -0.069239
v 0.590000 -0.157071 -0.067071
v 0.586173 -0.150000 -0.069239
v 0.586077 -0.153923 -0.068320
v 0.586276 -0.156563 -0.066563
v 0.590000 0.160000 -0.060000
v 0.590000 0.150000 -0.070000
v 0.580000 0.150000 -0.060000
v 0.590000 0.159239 -0.063827
v 0.590000 0.157071 -0.067071
v 0.586173 0.159239 -0.060000
v 0.586077 0.158320 -0.063923
v 0.586276 0.156563 -0.066563
v 0.584227 0.155773 -0.065774
v 0.586173 0.150000 -0.069239
v 0.582929 0.150000 -0.067071
v 0.590000 0.153827 -0.069239
v 0.586077 0.153923 -0.068320
v 0.583438 0.153724 -0.066563
v 0.580761 0.153827 -0.060000
v 0.582929 0.157071 -0.060000
v 0.580761 0.150000 -0.063827
v 0.581680 0.153923 -0.063923
v 0.583438 0.156563 -0.063724
v 0.770000 -0.160000 0.060000
v 0.780000 -0.150000 0.060000
v 0.770000 -0.150000 0.070000
v 0.773827 -0.159239 0.060000
v 0.777071 -0.157071 0.060000
v 0.770000 -0.159239 0.063827
v 0.773923 -0.158320 0.063923
v 0.776563 -0.156563 0.063724
v 0.775773 -0.155773 0.065774
v 0.779239 -0.150000 0.063827
v 0.777071 -0.150000 0.067071
v 0.779239 -0.153827 0.060000
v 0.778320 -0.153923 0.063923
v 0.776563 -0.153724 0.066563
v 0.770000 -0.153827 0.069239
v 0.770000 -0.157071 0.067071
v 0.773827 -0.150000 0.069239
v 0.773923 -0.153923 0.068320
v 0.773724 -0.156563 0.066563
v 0.770000 0.160000 0.060000
v 0.770000 0.150000 0.070000
v 0.780000 0.150000 0.060000
v 0.770000 0.159239 0.063827
v 0.770000 0.157071 0.067071
v 0.773827 0.159239 0.060000
v 0.773923 0.158320 0.063923
v 0.773724 0.156563 0.066563
v 0.775773 0.155773 0.065774
v 0.773827 0.150000 0.069239
v 0.777071 0.150000 0.067071
v 0.770000 0.153827 0.069239
v 0.773923 0.153923 0.068320
v 0.776563 0.153724 0.066563
v 0.779239 0.153827 0.060000
v 0.777071 0.157071 0.060000
v 0.779239 0.150000 0.063827
v 0.778320 0.153923 0.063923
v 0.776563 0.156563 0.063724
v 0.770000 -0.160000 -0.060000
v 0.770000 -0.150000 -0.070000
v 0.780000 -0.150000 -0.060000
v 0.770000 -0.159239 -0.063827
v 0.770000 -0.157071 -0.067071
v 0.773827 -0.159239 -0.060000
v 0.773923 -0.158320 -0.063923
v 0.773724 -0.156563 -0.066563
v 0.775773 -0.155773 -0.065774
v 0.773827 -0.150000 -0.069239
v 0.777071 -0.150000 -0.067071
v 0.770000 -0.153827 -0.069239
v 0.773923 -0.153923 -0.068320
v 0.776563 -0.153724 -0.066563
v 0.779239 -0.153827 -0.060000
v 0.777071 -0.157071 -0.060000
v 0.779239 -0.150000 -0.063827
v 0.778320 -0.153923 -0.063923
v 0.776563 -0.156563 -0.063724
v 0.770000 0.160000 -0.060000
v 0.780000 0.150000 -0.060000
v 0.770000 0.150000 -0.070000
v 0.773827 0.159239 -0.060000
v 0.777071 0.157071 -0.060000
v 0.770000 0.159239 -0.063827
v 0.773923 0.158320 -0.063923
v 0.776563 0.156563 -0.063724
v 0.775773 0.155773 -0.065774
v 0.779239 0.150000 -0.063827
v 0.777071 0.150000 -0.067071
v 0.779239 0.153827 -0.060000
v 0.778320 0.153923 -0.063923
v 0.776563 0.153724 -0.066563
v 0.770000 0.153827 -0.069239
v 0.770000 0.157071 -0.067071
v 0.773827 0.150000 -0.069239
v 0.773923 0.153923 -0.068320
v 0.773724 0.156563 -0.066563
vn -0.9846 -0.0000 -0.1749
vn -0.1521 0.3694 -0.9167
vn -0.1521 -0.3694 -0.9167
vn -0.9077 0.1126 -0.4043
vn -0.7073 0.2361 -0.6663
vn -0.9077 -0.1126 -0.4043
vn -0.8273 -0.0000 -0.5618
vn -0.6652 0.1529 -0.7308
vn -0.5806 -0.0000 -0.8142
vn -0.1508 0.2423 -0.9584
vn -0.1451 -0.0000 -0.9894
vn -0.4371 0.3159 -0.8421
vn -0.4331 0.2110 -0.8763
vn -0.3921 -0.0000 -0.9199
vn -0.4371 -0.3159 -0.8421
vn -0.7073 -0.2361 -0.6663
vn -0.1508 -0.2423 -0.9584
vn -0.4331 -0.2110 -0.8763
vn -0.6652 -0.1529 -0.7308
vn 0.9846 -0.0000 -0.1749
vn 0.1521 -0.3694 -0.9167
vn 0.1521 0.3694 -0.9167
vn 0.9077 -0.1126 -0.4043
vn 0.7073 -0.2361 -0.6663
vn 0.9077 0.1126 -0.4043
vn 0.8273 -0.0000 -0.5618
vn 0.6652 -0.1529 -0.7308
vn 0.5806 -0.0000 -0.8142
vn 0.1508 -0.2423 -0.9584
vn 0.1451 -0.0000 -0.9894
vn 0.4371 -0.3159 -0.8421
vn 0.4331 -0.2110 -0.8763
vn 0.3921 -0.0000 -0.9199
vn 0.4371 0.3159 -0.8421
vn 0.7073 0.2361 -0.6663
vn 0.1508 0.2423 -0.9584
vn 0.4331 0.2110 -0.8763
vn 0.6652 0.1529 -0.7308
vn -0.9883 -0.1079 -0.1079
vn -0.1025 -0.4200 -0.9017
vn -0.1025 -0.9017 -0.4200
vn -0.9163 -0.2286 -0.3287
vn -0.6811 -0.3192 -0.6590
vn -0.9163 -0.3287 -0.2286
vn -0.8235 -0.4011 -0.4011
vn -0.5875 -0.4800 -0.6515
vn -0.4768 -0.6215 -0.6216
vn -0.0944 -0.5736 -0.8137
vn -0.0832 -0.7047 -0.7047
vn -0.3714 -0.4120 -0.8321
vn -0.2992 -0.5570 -0.7747
vn -0.2502 -0.6846 -0.6846
vn -0.3714 -0.8321 -0.4120
vn -0.6811 -0.6590 -0.3192
vn -0.0944 -0.8137 -0.5736
vn -0.2992 -0.7747 -0.5570
vn -0.5875 -0.6515 -0.4800
vn 0.9883 -0.1079 -0.1078
vn 0.1025 -0.9017 -0.4200
vn 0.1025 -0.4200 -0.9017
vn 0.9163 -0.3287 -0.2286
vn 0.6811 -0.6590 -0.3192
vn 0.9163 -0.2286 -0.3287
vn 0.8235 -0.4011 -0.4011
vn 0.5875 -0.6515 -0.4800
vn 0.4768 -0.6215 -0.6215
vn 0.0944 -0.8137 -0.5736
vn 0.0832 -0.7047 -0.7047
vn 0.3714 -0.8321 -0.4120
vn 0.2992 -0.7747 -0.5570
vn 0.2501 -0.6846 -0.6846
vn 0.3714 -0.4120 -0.8321
vn 0.6811 -0.3192 -0.6590
vn 0.0944 -0.5736 -0.8137
vn 0.2992 -0.5570 -0.7747
vn 0.5875 -0.4800 -0.6515
vn -0.9846 -0.1749 -0.0000
vn -0.1521 -0.9167 -0.3694
vn -0.1521 -0.9167 0.3694
vn -0.9077 -0.4043 -0.1126
vn -0.7073 -0.6663 -0.2361
vn -0.9077 -0.4043 0.1126
vn -0.8273 -0.5618 -0.0000
vn -0.6652 -0.7308 -0.1529
vn -0.5806 -0.8142 -0.0000
vn -0.1508 -0.9584 -0.2423
vn -0.1451 -0.9894 -0.0000
vn -0.4371 -0.8421 -0.3159
vn -0.4331 -0.8763 -0.2110
vn -0.3921 -0.9199 -0.0000
vn -0.4371 -0.8421 0.3159
vn -0.7073 -0.6663 0.2361
vn -0.1508 -0.9584 0.2423
vn -0.4331 -0.8763 0.2110
vn -0.6652 -0.7308 0.1529
vn 0.9846 -0.1749 -0.0000
vn 0.1521 -0.9167 0.3694
vn 0.1521 -0.9167 -0.3694
vn 0.9077 -0.4043 0.1126
vn 0.7073 -0.6663 0.2361
vn 0.9077 -0.4043 -0.1126
vn 0.8273 -0.5618 -0.0000
vn 0.6652 -0.7308 0.1529
vn 0.5806 -0.8142 -0.0000
vn 0.1508 -0.9584 0.2423
vn 0.1451 -0.9894 -0.0000
vn 0.4371 -0.8421 0.3159
vn 0.4331 -0.8763 0.2110
vn 0.3921 -0.9199 -0.0000
vn 0.4371 -0.8421 -0.3159
vn 0.7073 -0.6663 -0.2361
vn 0.1508 -0.9584 -0.2423
vn 0.4331 -0.8763 -0.2110
vn 0.6652 -0.7308 -0.1529
vn -0.9883 -0.1085 0.1070
vn -0.1025 -0.9017 0.4200
vn -0.0895 -0.4310 0.8979
vn -0.9163 -0.3287 0.2286
vn -0.6811 -0.6590 0.3192
vn -0.9161 -0.2347 0.3251
vn -0.8235 -0.4011 0.4011
vn -0.5875 -0.6515 0.4800
vn -0.4768 -0.6215 0.6216
vn -0.0944 -0.8137 0.5736
vn -0.0832 -0.7047 0.7047
vn -0.3714 -0.8321 0.4120
vn -0.2992 -0.7747 0.5570
vn -0.2502 -0.6846 0.6846
vn -0.3633 -0.4350 0.8239
vn -0.6770 -0.3368 0.6544
vn -0.0944 -0.5736 0.8137
vn -0.2992 -0.5570 0.7747
vn -0.5875 -0.4800 0.6515
vn 0.9883 -0.1085 0.1070
vn 0.0895 -0.4310 0.8979
vn 0.1025 -0.9017 0.4200
vn 0.9161 -0.2347 0.3251
vn 0.6770 -0.3368 0.6544
vn 0.9163 -0.3287 0.2286
vn 0.8235 -0.4011 0.4011
vn 0.5875 -0.4800 0.6515
vn 0.4768 -0.6215 0.6215
vn 0.0944 -0.5736 0.8137
vn 0.0832 -0.7047 0.7047
vn 0.3633 -0.4350 0.8239
vn 0.2992 -0.5570 0.7747
vn 0.2501 -0.6846 0.6846
vn 0.3714 -0.8321 0.4120
vn 0.6811 -0.6590 0.3192
vn 0.0944 -0.8137 0.5736
vn 0.2992 -0.7747 0.5570
vn 0.5875 -0.6515 0.4800
vn -0.9883 -0.0000 0.1523
vn -0.0895 -0.3302 0.9397
vn -0.0895 0.3302 0.9397
vn -0.9161 -0.0639 0.3959
vn -0.6770 -0.2246 0.7009
vn -0.9161 0.0639 0.3959
vn -0.8235 -0.0000 0.5673
vn -0.5875 -0.1213 0.8001
vn -0.4768 -0.0000 0.8790
vn -0.0944 -0.1698 0.9810
vn -0.0832 -0.0000 0.9965
vn -0.3633 -0.2750 0.8902
vn -0.2992 -0.1539 0.9417
vn -0.2502 -0.0000 0.9682
vn -0.3633 0.2750 0.8902
vn -0.6770 0.2246 0.7009
vn -0.0944 0.1698 0.9810
vn -0.2992 0.1539 0.9417
vn -0.5875 0.1213 0.8001
vn 0.9883 -0.0000 0.1523
vn 0.0895 0.3302 0.9397
vn 0.0895 -0.3302 0.9397
vn 0.9161 0.0639 0.3959
vn 0.6770 0.2246 0.7009
vn 0.9161 -0.0639 0.3958
vn 0.8235 -0.0000 0.5673
vn 0.5875 0.1213 0.8001
vn 0.4768 -0.0000 0.8790
vn 0.0944 0.1698 0.9810
vn 0.0832 -0.0000 0.9965
vn 0.3633 0.2750 0.8902
vn 0.2992 0.1539 0.9417
vn 0.2501 -0.0000 0.9682
vn 0.3633 -0.2750 0.8902
vn 0.6770 -0.2246 0.7009
vn 0.0944 -0.1698 0.9810
vn 0.2992 -0.1539 0.9417
vn 0.5875 -0.1213 0.8001
vn -0.9883 0.1085 0.1070
vn -0.0895 0.4310 0.8979
vn -0.1025 0.9017 0.4200
vn -0.9161 0.2347 0.3251
vn -0.6770 0.3368 0.6544
vn -0.9163 0.3287 0.2286
vn -0.8235 0.4011 0.4011
vn -0.5875 0.4800 0.6515
vn -0.4768 0.6215 0.6216
vn -0.0944 0.5736 0.8137
vn -0.0832 0.7047 0.7047
vn -0.3633 0.4350 0.8239
vn -0.2992 0.5570 0.7747
vn -0.2501 0.6846 0.6846
vn -0.3714 0.8321 0.4120
vn -0.6811 0.6590 0.3192
vn -0.0944 0.8137 0.5736
vn -0.2992 0.7747 0.5570
vn -0.5875 0.6515 0.4800
vn 0.9883 0.1085 0.1070
vn 0.1025 0.9017 0.4200
vn 0.0895 0.4310 0.8979
vn 0.9163 0.3287 0.2286
vn 0.6811 0.6590 0.3192
vn 0.9161 0.2347 0.3251
vn 0.8235 0.4011 0.4011
vn 0.5875 0.6515 0.4800
vn 0.4768 0.6215 0.6215
vn 0.0944 0.8137 0.5736
vn 0.0832 0.7047 0.7047
vn 0.3714 0.8321 0.4120
vn 0.2992 0.7747 0.5570
vn 0.2501 0.6846 0.6846
vn 0.3633 0.4350 0.8239
vn 0.6770 0.3368 0.6544
vn 0.0944 0.5736 0.8137
vn 0.2992 0.5570 0.7747
vn 0.5875 0.4800 0.6515
vn -0.9846 0.1749 -0.0000
vn -0.1521 0.9167 0.3694
vn -0.1521 0.9167 -0.3694
vn -0.9077 0.4043 0.1126
vn -0.7073 0.6663 0.2361
vn -0.9077 0.4043 -0.1126
vn -0.8273 0.5618 -0.0000
vn -0.6652 0.7308 0.1529
vn -0.5806 0.8142 -0.0000
vn -0.1508 0.9584 0.2423
vn -0.1451 0.9894 -0.0000
vn -0.4371 0.8421 0.3159
vn -0.4331 0.8763 0.2110
vn -0.3921 0.9199 -0.0000
vn -0.4371 0.8421 -0.3159
vn -0.7073 0.6663 -0.2361
vn -0.1508 0.9584 -0.2423
vn -0.4331 0.8763 -0.2110
vn -0.6652 0.7308 -0.1529
vn 0.9846 0.1749 -0.0000
vn 0.1521 0.9167 -0.3694
vn 0.1521 0.9167 0.3694
vn 0.9077 0.4043 -0.1126
vn 0.7073 0.6663 -0.2361
vn 0.9077 0.4043 0.1126
vn 0.8273 0.5618 -0.0000
vn 0.6652 0.7308 -0.1529
vn 0.5806 0.8142 -0.0000
vn 0.1508 0.9584 -0.2423
vn 0.1451 0.9894 -0.0000
vn 0.4371 0.8421 -0.3159
vn 0.4331 0.8763 -0.2110
vn 0.3921 0.9199 -0.0000
vn 0.4371 0.8421 0.3159
vn 0.7073 0.6663 0.2361
vn 0.1508 0.9584 0.2423
vn 0.4331 0.8763 0.2110
vn 0.6652 0.7308 0.1529
vn -0.9883 0.1078 -0.1078
vn -0.1025 0.9017 -0.4200
vn -0.1025 0.4200 -0.9017
vn -0.9163 0.3287 -0.2286
vn -0.6811 0.6590 -0.3192
vn -0.9163 0.2286 -0.3287
vn -0.8235 0.4011 -0.4011
vn -0.5875 0.6515 -0.4800
vn -0.4768 0.6215 -0.6216
vn -0.0944 0.8137 -0.5736
vn -0.0832 0.7047 -0.7047
vn -0.3714 0.8321 -0.4120
vn -0.2992 0.7747 -0.5570
vn -0.2501 0.6846 -0.6846
vn -0.3714 0.4120 -0.8321
vn -0.6811 0.3192 -0.6590
vn -0.0944 0.5736 -0.8137
vn -0.2992 0.5570 -0.7747
vn -0.5875 0.4800 -0.6515
vn 0.9883 0.1079 -0.1078
vn 0.1025 0.4200 -0.9017
vn 0.1025 0.9017 -0.4200
vn 0.9163 0.2286 -0.3287
vn 0.6811 0.3192 -0.6590
vn 0.9163 0.3287 -0.2286
vn 0.8235 0.4011 -0.4011
vn 0.5875 0.4800 -0.6515
vn 0.4768 0.6215 -0.6216
vn 0.0944 0.5736 -0.8137
vn 0.0832 0.7047 -0.7047
vn 0.3714 0.4120 -0.8321
vn 0.2992 0.5570 -0.7747
vn 0.2501 0.6846 -0.6846
vn 0.3714 0.8321 -0.4120
vn 0.6811 0.6590 -0.3192
vn 0.0944 0.8137 -0.5736
vn 0.2992 0.7747 -0.5570
vn 0.5875 0.6515 -0.4800
vn -0.0970 -0.9905 0.0970
vn -0.0970 -0.0970 0.9905
vn -0.9906 -0.0970 0.0970
vn -0.0972 -0.9206 0.3783
vn -0.0919 -0.7041 0.7041
vn -0.3783 -0.9206 0.0972
vn -0.3703 -0.8519 0.3703
vn -0.3266 -0.6683 0.6683
vn -0.5773 -0.5773 0.5774
vn -0.3783 -0.0972 0.9206
vn -0.7041 -0.0919 0.7041
vn -0.0972 -0.3783 0.9206
vn -0.3703 -0.3703 0.8519
vn -0.6683 -0.3266 0.6683
vn -0.9206 -0.3783 0.0972
vn -0.7041 -0.7041 0.0919
vn -0.9206 -0.0972 0.3783
vn -0.8519 -0.3703 0.3703
vn -0.6683 -0.6683 0.3266
vn -0.0970 0.0970 0.9905
vn -0.0970 0.9905 0.0970
vn -0.9905 0.0970 0.0970
vn -0.0972 0.3783 0.9206
vn -0.0919 0.7041 0.7041
vn -0.3783 0.0972 0.9206
vn -0.3703 0.3703 0.8519
vn -0.3266 0.6683 0.6683
vn -0.5773 0.5773 0.5774
vn -0.3783 0.9206 0.0972
vn -0.7041 0.7041 0.0919
vn -0.0972 0.9206 0.3783
vn -0.3703 0.8519 0.3703
vn -0.6683 0.6683 0.3266
vn -0.9206 0.0972 0.3783
vn -0.7041 0.0919 0.7041
vn -0.9206 0.3783 0.0972
vn -0.8519 0.3703 0.3703
vn -0.6683 0.3266 0.6683
vn -0.0970 -0.9905 -0.0970
vn -0.9905 -0.0970 -0.0970
vn -0.0970 -0.0970 -0.9905
vn -0.3783 -0.9206 -0.0972
vn -0.7041 -0.7041 -0.0919
vn -0.0972 -0.9206 -0.3783
vn -0.3703 -0.8519 -0.3703
vn -0.6683 -0.6683 -0.3266
vn -0.5773 -0.5773 -0.5774
vn -0.9206 -0.0972 -0.3783
vn -0.7041 -0.0919 -0.7041
vn -0.9206 -0.3783 -0.0972
vn -0.8519 -0.3703 -0.3703
vn -0.6683 -0.3266 -0.6683
vn -0.0972 -0.3783 -0.9206
vn -0.0919 -0.7041 -0.7041
vn -0.3783 -0.0972 -0.9206
vn -0.3703 -0.3703 -0.8519
vn -0.3266 -0.6683 -0.6683
vn -0.0970 0.9905 -0.0970
vn -0.0970 0.0970 -0.9905
vn -0.9906 0.0970 -0.0970
vn -0.0972 0.9206 -0.3783
vn -0.0919 0.7041 -0.7041
vn -0.3783 0.9206 -0.0972
vn -0.3703 0.8519 -0.3703
vn -0.3266 0.6683 -0.6683
vn -0.5773 0.5773 -0.5774
vn -0.3783 0.0972 -0.9206
vn -0.7041 0.0919 -0.7041
vn -0.0972 0.3783 -0.9206
vn -0.3703 0.3703 -0.8519
vn -0.6683 0.3266 -0.6683
vn -0.9206 0.3783 -0.0972
vn -0.7041 0.7041 -0.0919
vn -0.9206 0.0972 -0.3783
vn -0.8519 0.3703 -0.3703
vn -0.6683 0.6683 -0.3266
vn 0.0970 -0.9905 0.0970
vn 0.9905 -0.0970 0.0970
vn 0.0970 -0.0970 0.9905
vn 0.3783 -0.9206 0.0972
vn 0.7041 -0.7041 0.0919
vn 0.0972 -0.9206 0.3783
vn 0.3703 -0.8519 0.3703
vn 0.6683 -0.6683 0.3266
vn 0.5774 -0.5774 0.5773
vn 0.9206 -0.0972 0.3783
vn 0.7041 -0.0919 0.7041
vn 0.9206 -0.3783 0.0972
vn 0.8519 -0.3703 0.3703
vn 0.6683 -0.3266 0.6683
vn 0.0972 -0.3783 0.9206
vn 0.0919 -0.7041 0.7041
vn 0.3783 -0.0972 0.9206
vn 0.3703 -0.3703 0.8519
vn 0.3266 -0.6683 0.6683
vn 0.0970 0.9905 0.0970
vn 0.0970 0.0970 0.9905
vn 0.9906 0.0970 0.0970
vn 0.0972 0.9206 0.3783
vn 0.0919 0.7041 0.7041
vn 0.3783 0.9206 0.0972
vn 0.3703 0.8519 0.3703
vn 0.3266 0.6683 0.6683
vn 0.5774 0.5774 0.5773
vn 0.3783 0.0972 0.9206
vn 0.7041 0.0919 0.7041
vn 0.0972 0.3783 0.9206
vn 0.3703 0.3703 0.8519
vn 0.6683 0.3266 0.6683
vn 0.9206 0.3783 0.0972
vn 0.7041 0.7041 0.0919
vn 0.9206 0.0972 0.3783
vn 0.8519 0.3703 0.3703
vn 0.6683 0.6683 0.3266
vn 0.0970 -0.9905 -0.0970
vn 0.0970 -0.0970 -0.9905
vn 0.9906 -0.0970 -0.0970
vn 0.0972 -0.9206 -0.3783
vn 0.0919 -0.7041 -0.7041
vn 0.3783 -0.9206 -0.0972
vn 0.3703 -0.8519 -0.3703
vn 0.3266 -0.6683 -0.6683
vn 0.5774 -0.5774 -0.5773
vn 0.3783 -0.0972 -0.9206
vn 0.7041 -0.0919 -0.7041
vn 0.0972 -0.3783 -0.9206
vn 0.3703 -0.3703 -0.8519
vn 0.6683 -0.3266 -0.6683
vn 0.9206 -0.3783 -0.0972
vn 0.7041 -0.7041 -0.0919
vn 0.9206 -0.0972 -0.3783
vn 0.8519 -0.3703 -0.3703
vn 0.6683 -0.6683 -0.3266
vn 0.0970 0.9905 -0.0970
vn 0.9905 0.0970 -0.0970
vn 0.0970 0.0970 -0.9905
vn 0.3783 0.9206 -0.0972
vn 0.7041 0.7041 -0.0919
vn 0.0972 0.9206 -0.3783
vn 0.3703 0.8519 -0.3703
vn 0.6683 0.6683 -0.3266
vn 0.5774 0.5774 -0.5773
vn 0.9206 0.0972 -0.3783
vn 0.7041 0.0919 -0.7041
vn 0.9206 0.3783 -0.0972
vn 0.8519 0.3703 -0.3703
vn 0.6683 0.3266 -0.6683
vn 0.0972 0.3783 -0.9206
vn 0.0919 0.7041 -0.7041
vn 0.3783 0.0972 -0.9206
vn 0.3703 0.3703 -0.8519
vn 0.3266 0.6683 -0.6683
vt 0.403925 0.489042
vt 0.405793 0.484161
vt 0.408655 0.488135
vt 0.401010 0.485208
vt 0.403620 0.481344
vt 0.409292 0.483516
vt 0.412766 0.487103
vt 0.672688 0.009895
vt 0.672688 0.012844
vt 0.669652 0.011930
vt 0.678477 0.019528
vt 0.682570 0.015097
vt 0.683385 0.019528
vt 0.672688 0.019528
vt 0.677392 0.014986
vt 0.680252 0.011341
vt 0.675725 0.011930
vt 0.662806 0.015097
vt 0.666899 0.019528
vt 0.661992 0.019528
vt 0.665125 0.011341
vt 0.667985 0.014986
vt 0.672688 0.015217
vt 0.383916 0.453856
vt 0.382048 0.458737
vt 0.379186 0.454764
vt 0.386831 0.457690
vt 0.384221 0.461554
vt 0.378549 0.459383
vt 0.375075 0.455796
vt 0.672688 0.990105
vt 0.672688 0.987156
vt 0.675725 0.988070
vt 0.666899 0.980472
vt 0.662806 0.984903
vt 0.661992 0.980472
vt 0.672688 0.980472
vt 0.667985 0.985014
vt 0.665125 0.988659
vt 0.669652 0.988070
vt 0.682570 0.984903
vt 0.678477 0.980472
vt 0.683385 0.980472
vt 0.680252 0.988659
vt 0.677392 0.985014
vt 0.672688 0.984783
vt 0.419479 0.503774
vt 0.424807 0.501394
vt 0.423950 0.505208
vt 0.421396 0.499486
vt 0.425428 0.498134
vt 0.427647 0.503106
vt 0.427756 0.506938
vt 0.427122 0.500358
vt 0.650301 0.019528
vt 0.653631 0.015097
vt 0.654731 0.019528
vt 0.645870 0.019528
vt 0.649765 0.015253
vt 0.652896 0.011341
vt 0.646979 0.012870
vt 0.649356 0.011831
vt 0.544892 0.015097
vt 0.548223 0.019528
vt 0.543792 0.019528
vt 0.545627 0.011341
vt 0.548759 0.015253
vt 0.552653 0.019528
vt 0.551544 0.012870
vt 0.552233 0.015363
vt 0.405331 0.453275
vt 0.407708 0.458605
vt 0.403895 0.457747
vt 0.409617 0.455193
vt 0.410965 0.459227
vt 0.405994 0.461446
vt 0.402162 0.461554
vt 0.408740 0.460921
vt 0.548223 0.980472
vt 0.544892 0.984903
vt 0.543792 0.980472
vt 0.552653 0.980472
vt 0.548759 0.984747
vt 0.545627 0.988659
vt 0.551544 0.987130
vt 0.549167 0.988169
vt 0.653631 0.984903
vt 0.650301 0.980472
vt 0.654731 0.980472
vt 0.652896 0.988659
vt 0.649765 0.984747
vt 0.645870 0.980472
vt 0.646979 0.987130
vt 0.646290 0.984637
vt 0.420060 0.525189
vt 0.424940 0.527054
vt 0.420967 0.529918
vt 0.423893 0.522272
vt 0.427755 0.524879
vt 0.425584 0.530550
vt 0.421997 0.534025
vt 0.525835 0.009895
vt 0.525835 0.012844
vt 0.522799 0.011930
vt 0.531624 0.019528
vt 0.535717 0.015097
vt 0.536532 0.019528
vt 0.525835 0.019528
vt 0.530539 0.014986
vt 0.533399 0.011341
vt 0.528872 0.011930
vt 0.515953 0.015097
vt 0.520047 0.019528
vt 0.515139 0.019528
vt 0.518272 0.011341
vt 0.521132 0.014986
vt 0.525835 0.015217
vt 0.420062 0.437722
vt 0.424941 0.439591
vt 0.420969 0.442452
vt 0.423895 0.434807
vt 0.427755 0.437419
vt 0.425584 0.443091
vt 0.421997 0.446565
vt 0.525835 0.990105
vt 0.525835 0.987157
vt 0.528872 0.988070
vt 0.520046 0.980472
vt 0.515953 0.984903
vt 0.515139 0.980472
vt 0.525835 0.980472
vt 0.521132 0.985014
vt 0.518272 0.988659
vt 0.522799 0.988070
vt 0.535717 0.984903
vt 0.531624 0.980472
vt 0.536532 0.980472
vt 0.533399 0.988659
vt 0.530539 0.985014
vt 0.525835 0.984783
vt 0.405328 0.540742
vt 0.407707 0.546068
vt 0.403894 0.545213
vt 0.409615 0.542659
vt 0.410966 0.546686
vt 0.405994 0.548905
vt 0.402162 0.549015
vt 0.408741 0.548379
vt 0.503448 0.019528
vt 0.506778 0.015097
vt 0.507879 0.019528
vt 0.499017 0.019528
vt 0.502912 0.015253
vt 0.506043 0.011341
vt 0.500126 0.012870
vt 0.502503 0.011831
vt 0.727058 0.984685
vt 0.723727 0.980255
vt 0.728158 0.980255
vt 0.726322 0.988441
vt 0.723191 0.984529
vt 0.719297 0.980255
vt 0.720405 0.986913
vt 0.719716 0.984420
vt 0.419481 0.416307
vt 0.424808 0.413931
vt 0.423952 0.417743
vt 0.421398 0.412021
vt 0.425428 0.410675
vt 0.427647 0.415646
vt 0.427756 0.419478
vt 0.427121 0.412901
vt 0.723727 0.019311
vt 0.727058 0.014880
vt 0.728158 0.019311
vt 0.719297 0.019311
vt 0.723191 0.015036
vt 0.726322 0.011124
vt 0.720405 0.012652
vt 0.722782 0.011614
vt 0.506778 0.984903
vt 0.503448 0.980472
vt 0.507878 0.980472
vt 0.506043 0.988659
vt 0.502912 0.984747
vt 0.499017 0.980472
vt 0.500126 0.987130
vt 0.499437 0.984637
vt 0.383913 0.541323
vt 0.381828 0.546770
vt 0.379737 0.543469
vt 0.385589 0.545709
vt 0.383694 0.549511
vt 0.378610 0.547564
vt 0.375823 0.544932
vt 0.746114 0.989670
vt 0.746114 0.986913
vt 0.748837 0.987952
vt 0.740326 0.980255
vt 0.737193 0.984685
vt 0.735418 0.980255
vt 0.746114 0.980255
vt 0.741798 0.984529
vt 0.739849 0.988441
vt 0.743392 0.987952
vt 0.755036 0.984685
vt 0.751903 0.980255
vt 0.756811 0.980255
vt 0.752380 0.988441
vt 0.750431 0.984529
vt 0.746114 0.984420
vt 0.403928 0.401575
vt 0.406013 0.396128
vt 0.408104 0.399429
vt 0.402252 0.397189
vt 0.404147 0.393388
vt 0.409231 0.395334
vt 0.412018 0.397967
vt 0.746114 0.009895
vt 0.746114 0.012652
vt 0.743392 0.011614
vt 0.751903 0.019311
vt 0.755036 0.014880
vt 0.756811 0.019311
vt 0.746114 0.019311
vt 0.750431 0.015036
vt 0.752380 0.011124
vt 0.748837 0.011614
vt 0.737193 0.014880
vt 0.740326 0.019311
vt 0.735418 0.019311
vt 0.739849 0.011124
vt 0.741798 0.015036
vt 0.746114 0.015145
vt 0.368360 0.526592
vt 0.363033 0.528968
vt 0.363889 0.525156
vt 0.366443 0.530877
vt 0.362413 0.532224
vt 0.360194 0.527252
vt 0.360085 0.523421
vt 0.360720 0.529998
vt 0.768502 0.980255
vt 0.765171 0.984685
vt 0.764071 0.980255
vt 0.772932 0.980255
vt 0.769038 0.984529
vt 0.765907 0.988441
vt 0.771824 0.986913
vt 0.769447 0.987952
vt 0.580205 0.984903
vt 0.576874 0.980472
vt 0.581305 0.980472
vt 0.579470 0.988659
vt 0.576338 0.984747
vt 0.572444 0.980472
vt 0.573553 0.987130
vt 0.572864 0.984637
vt 0.382513 0.402156
vt 0.380134 0.396831
vt 0.383948 0.397686
vt 0.378226 0.400240
vt 0.376875 0.396212
vt 0.381847 0.393993
vt 0.385679 0.393884
vt 0.379100 0.394520
vt 0.576874 0.019528
vt 0.580205 0.015097
vt 0.581305 0.019528
vt 0.572444 0.019528
vt 0.576338 0.015253
vt 0.579470 0.011341
vt 0.573553 0.012870
vt 0.575930 0.011831
vt 0.765171 0.014880
vt 0.768502 0.019311
vt 0.764071 0.019311
vt 0.765907 0.011124
vt 0.769038 0.015036
vt 0.772932 0.019311
vt 0.771824 0.012652
vt 0.772513 0.015145
vt 0.367779 0.505177
vt 0.362900 0.503308
vt 0.366872 0.500446
vt 0.363946 0.508092
vt 0.360086 0.505479
vt 0.362257 0.499808
vt 0.365844 0.496334
vt 0.599262 0.990105
vt 0.599262 0.987156
vt 0.602298 0.988070
vt 0.593473 0.980472
vt 0.589380 0.984903
vt 0.588565 0.980472
vt 0.599262 0.980472
vt 0.594558 0.985014
vt 0.591698 0.988659
vt 0.596225 0.988070
vt 0.609144 0.984903
vt 0.605051 0.980472
vt 0.609958 0.980472
vt 0.606825 0.988659
vt 0.603965 0.985014
vt 0.599262 0.984783
vt 0.367781 0.417710
vt 0.362902 0.415844
vt 0.366874 0.412981
vt 0.363948 0.420626
vt 0.360086 0.418020
vt 0.362257 0.412348
vt 0.365844 0.408873
vt 0.599262 0.009895
vt 0.599262 0.012843
vt 0.596225 0.011930
vt 0.605051 0.019528
vt 0.609144 0.015097
vt 0.609958 0.019528
vt 0.599262 0.019528
vt 0.603965 0.014986
vt 0.606825 0.011341
vt 0.602298 0.011930
vt 0.589380 0.015097
vt 0.593473 0.019528
vt 0.588565 0.019528
vt 0.591698 0.011341
vt 0.594558 0.014986
vt 0.599262 0.015217
vt 0.382510 0.489623
vt 0.380133 0.484293
vt 0.383946 0.485151
vt 0.378224 0.487705
vt 0.376876 0.483672
vt 0.381847 0.481453
vt 0.385679 0.481344
vt 0.379101 0.481977
vt 0.621649 0.980472
vt 0.618319 0.984903
vt 0.617219 0.980472
vt 0.626080 0.980472
vt 0.622185 0.984747
vt 0.619054 0.988659
vt 0.624971 0.987130
vt 0.622594 0.988169
vt 0.691745 0.015097
vt 0.695076 0.019528
vt 0.690645 0.019528
vt 0.692480 0.011341
vt 0.695612 0.015253
vt 0.699506 0.019528
vt 0.698397 0.012870
vt 0.699086 0.015363
vt 0.368362 0.439125
vt 0.363034 0.441505
vt 0.363891 0.437690
vt 0.366445 0.443412
vt 0.362413 0.444764
vt 0.360194 0.439793
vt 0.360085 0.435960
vt 0.360719 0.442540
vt 0.695076 0.980472
vt 0.691745 0.984903
vt 0.690645 0.980472
vt 0.699506 0.980472
vt 0.695612 0.984747
vt 0.692480 0.988659
vt 0.698397 0.987130
vt 0.696020 0.988169
vt 0.618319 0.015097
vt 0.621649 0.019528
vt 0.617219 0.019528
vt 0.619054 0.011341
vt 0.622185 0.015253
vt 0.626080 0.019528
vt 0.624971 0.012870
vt 0.625660 0.015363
vt 0.796479 0.018082
vt 0.800909 0.013651
vt 0.800909 0.018082
vt 0.792723 0.018082
vt 0.796368 0.013540
vt 0.800909 0.009895
vt 0.794225 0.011397
vt 0.796598 0.010484
vt 0.230910 0.365411
vt 0.226479 0.369842
vt 0.226479 0.365411
vt 0.234666 0.365411
vt 0.231021 0.369953
vt 0.226479 0.373598
vt 0.233164 0.372095
vt 0.230790 0.373009
vt 0.193174 0.753334
vt 0.188744 0.748904
vt 0.193173 0.748904
vt 0.193177 0.757090
vt 0.188634 0.753445
vt 0.184990 0.748904
vt 0.186494 0.755588
vt 0.185580 0.753215
vt 0.226479 0.013651
vt 0.230910 0.018082
vt 0.226479 0.018082
vt 0.226479 0.009895
vt 0.231021 0.013540
vt 0.234666 0.018082
vt 0.233164 0.011397
vt 0.234077 0.013771
vt 0.800909 0.475471
vt 0.796479 0.471040
vt 0.800909 0.471040
vt 0.800909 0.479227
vt 0.796368 0.475582
vt 0.792723 0.471040
vt 0.794225 0.477725
vt 0.793312 0.475351
vt 0.188744 0.401575
vt 0.193174 0.397144
vt 0.193173 0.401575
vt 0.184990 0.401575
vt 0.188634 0.397033
vt 0.193177 0.393388
vt 0.186494 0.394890
vt 0.188866 0.393977
vt 0.939841 0.013651
vt 0.944272 0.018082
vt 0.939841 0.018082
vt 0.939841 0.009895
vt 0.944383 0.013540
vt 0.948028 0.018082
vt 0.946525 0.011397
vt 0.947439 0.013771
vt 0.336537 0.748904
vt 0.332106 0.753334
vt 0.332105 0.748904
vt 0.340295 0.748904
vt 0.336649 0.753445
vt 0.332109 0.757090
vt 0.338794 0.755588
vt 0.336420 0.756502
vt 0.262643 0.369842
vt 0.258212 0.365411
vt 0.262643 0.365411
vt 0.262643 0.373598
vt 0.258101 0.369953
vt 0.254456 0.365411
vt 0.255959 0.372095
vt 0.255045 0.369722
vt 0.944272 0.471040
vt 0.939841 0.475471
vt 0.939841 0.471040
vt 0.948028 0.471040
vt 0.944383 0.475582
vt 0.939841 0.479227
vt 0.946525 0.477725
vt 0.944152 0.478638
vt 0.258212 0.018082
vt 0.262643 0.013651
vt 0.262643 0.018082
vt 0.254456 0.018082
vt 0.258101 0.013540
vt 0.262643 0.009895
vt 0.255959 0.011397
vt 0.258332 0.010484
vt 0.332106 0.397144
vt 0.336537 0.401575
vt 0.332105 0.401575
vt 0.332109 0.393388
vt 0.336649 0.397033
vt 0.340295 0.401575
vt 0.338794 0.394890
vt 0.339707 0.397263
vt 0.800909 0.230910
vt 0.796479 0.226479
vt 0.800909 0.226479
vt 0.800909 0.234666
vt 0.796368 0.231021
vt 0.792723 0.226479
vt 0.794225 0.233164
vt 0.793312 0.230790
vt 0.161447 0.748904
vt 0.157016 0.753334
vt 0.157017 0.748904
vt 0.165200 0.748904
vt 0.161556 0.753445
vt 0.157013 0.757090
vt 0.163696 0.755588
vt 0.161324 0.756502
vt 0.018082 0.369842
vt 0.013651 0.365411
vt 0.018082 0.365411
vt 0.018082 0.373598
vt 0.013540 0.369953
vt 0.009895 0.365411
vt 0.011397 0.372095
vt 0.010484 0.369722
vt 0.796479 0.262643
vt 0.800909 0.258212
vt 0.800909 0.262643
vt 0.792723 0.262643
vt 0.796368 0.258101
vt 0.800909 0.254456
vt 0.794225 0.255959
vt 0.796598 0.255045
vt 0.013651 0.018082
vt 0.018082 0.013651
vt 0.018082 0.018082
vt 0.009895 0.018082
vt 0.013540 0.013540
vt 0.018082 0.009895
vt 0.011397 0.011397
vt 0.013771 0.010484
vt 0.157016 0.397144
vt 0.161447 0.401575
vt 0.157017 0.401575
vt 0.157013 0.393388
vt 0.161556 0.397033
vt 0.165200 0.401575
vt 0.163696 0.394890
vt 0.164611 0.397263
vt 0.944272 0.226479
vt 0.939841 0.230910
vt 0.939841 0.226479
vt 0.948028 0.226479
vt 0.944383 0.231021
vt 0.939841 0.234666
vt 0.946525 0.233164
vt 0.944152 0.234077
vt 0.475471 0.365411
vt 0.471040 0.369842
vt 0.471040 0.365411
vt 0.479227 0.365411
vt 0.475582 0.369953
vt 0.471040 0.373598
vt 0.477725 0.372095
vt 0.475351 0.373009
vt 0.018084 0.753334
vt 0.013654 0.748904
vt 0.018085 0.748904
vt 0.018082 0.757090
vt 0.013542 0.753445
vt 0.009895 0.748904
vt 0.011396 0.755588
vt 0.010483 0.753215
vt 0.939841 0.258212
vt 0.944272 0.262643
vt 0.939841 0.262643
vt 0.939841 0.254456
vt 0.944383 0.258101
vt 0.948028 0.262643
vt 0.946525 0.255959
vt 0.947439 0.258332
vt 0.013654 0.401575
vt 0.018084 0.397144
vt 0.018085 0.401575
vt 0.009895 0.401575
vt 0.013542 0.397033
vt 0.018082 0.393388
vt 0.011396 0.394890
vt 0.013770 0.393977
vt 0.471040 0.013651
vt 0.475471 0.018082
vt 0.471040 0.018082
vt 0.471040 0.009895
vt 0.475582 0.013540
vt 0.479227 0.018082
vt 0.477725 0.011397
vt 0.478638 0.013771
vt 0.389202 0.461203
vt 0.427405 0.519898
vt 0.427405 0.432437
vt 0.387526 0.549412
vt 0.400315 0.393487
vt 0.360436 0.510461
vt 0.360436 0.423001
vt 0.398639 0.481695
vt 0.422648 0.495495
vt 0.646290 0.015363
vt 0.549168 0.011831
vt 0.413605 0.456446
vt 0.552233 0.984637
vt 0.649356 0.988169
vt 0.413605 0.543907
vt 0.499437 0.015363
vt 0.722782 0.987952
vt 0.422648 0.408034
vt 0.719716 0.015145
vt 0.502503 0.988169
vt 0.365193 0.534864
vt 0.772513 0.984420
vt 0.575930 0.988169
vt 0.374236 0.398992
vt 0.572864 0.015363
vt 0.769447 0.011614
vt 0.374236 0.486452
vt 0.625660 0.984637
vt 0.696020 0.011831
vt 0.365193 0.447404
vt 0.699086 0.984637
vt 0.622594 0.011831
vt 0.793312 0.013771
vt 0.234077 0.369722
vt 0.188866 0.756502
vt 0.230790 0.010484
vt 0.796598 0.478638
vt 0.185580 0.397263
vt 0.944152 0.010484
vt 0.339707 0.753215
vt 0.258332 0.373009
vt 0.947439 0.475351
vt 0.255045 0.013771
vt 0.336420 0.393977
vt 0.796598 0.234077
vt 0.164611 0.753215
vt 0.013771 0.373009
vt 0.793312 0.258332
vt 0.010484 0.013771
vt 0.161324 0.393977
vt 0.947439 0.230790
vt 0.478638 0.369722
vt 0.013770 0.756502
vt 0.944152 0.255045
vt 0.010483 0.397263
vt 0.475351 0.010484
s 1
f 1/1/1 7/2/7 6/3/6
f 4/4/4 8/5/8 7/2/7
f 6/3/6 19/6/19 16/7/16
f 7/8/7 9/9/9 19/10/19
f 10/11/10 12/12/12 2/13/2
f 11/14/11 13/15/13 10/11/10
f 13/15/13 5/16/5 12/12/12
f 13/15/13 9/9/9 8/17/8
f 15/18/15 17/19/17 3/20/3
f 16/21/16 18/22/18 15/18/15
f 18/22/18 11/14/11 17/19/17
f 18/22/18 9/9/9 14/23/14
f 20/24/20 26/25/26 25/26/25
f 23/27/23 27/28/27 26/25/26
f 25/26/25 38/29/38 35/30/35
f 26/31/26 28/32/28 38/33/38
f 29/34/29 31/35/31 21/36/21
f 30/37/30 32/38/32 29/34/29
f 32/38/32 24/39/24 31/35/31
f 32/38/32 28/32/28 27/40/27
f 34/41/34 36/42/36 22/43/22
f 35/44/35 37/45/37 34/41/34
f 37/45/37 30/37/30 36/42/36
f 37/45/37 28/32/28 33/46/33
f 39/47/39 45/48/45 44/49/44
f 42/50/42 46/51/46 45/48/45
f 44/49/44 57/52/57 54/53/54
f 45/48/45 47/54/47 57/52/57
f 48/55/48 50/56/50 40/57/40
f 49/58/49 51/59/51 48/55/48
f 51/59/51 43/60/43 50/56/50
f 51/59/51 47/61/47 46/62/46
f 53/63/53 55/64/55 41/65/41
f 54/66/54 56/67/56 53/63/53
f 56/67/56 49/68/49 55/64/55
f 56/67/56 47/69/47 52/70/52
f 58/71/58 64/72/64 63/73/63
f 61/74/61 65/75/65 64/72/64
f 63/73/63 76/76/76 73/77/73
f 64/72/64 66/78/66 76/76/76
f 67/79/67 69/80/69 59/81/59
f 68/82/68 70/83/70 67/79/67
f 70/83/70 62/84/62 69/80/69
f 70/83/70 66/85/66 65/86/65
f 72/87/72 74/88/74 60/89/60
f 73/90/73 75/91/75 72/87/72
f 75/91/75 68/92/68 74/88/74
f 75/91/75 66/93/66 71/94/71
f 77/95/77 83/96/83 82/97/82
f 80/98/80 84/99/84 83/96/83
f 82/97/82 95/100/95 92/101/92
f 83/102/83 85/103/85 95/104/95
f 86/105/86 88/106/88 78/107/78
f 87/108/87 89/109/89 86/105/86
f 89/109/89 81/110/81 88/106/88
f 89/109/89 85/103/85 84/111/84
f 91/112/91 93/113/93 79/114/79
f 92/115/92 94/116/94 91/112/91
f 94/116/94 87/108/87 93/113/93
f 94/116/94 85/103/85 90/117/90
f 96/118/96 102/119/102 101/120/101
f 99/121/99 103/122/103 102/119/102
f 101/120/101 114/123/114 111/124/111
f 102/125/102 104/126/104 114/127/114
f 105/128/105 107/129/107 97/130/97
f 106/131/106 108/132/108 105/128/105
f 108/132/108 100/133/100 107/129/107
f 108/132/108 104/126/104 103/134/103
f 110/135/110 112/136/112 98/137/98
f 111/138/111 113/139/113 110/135/110
f 113/139/113 106/131/106 112/136/112
f 113/139/113 104/126/104 109/140/109
f 115/141/115 121/142/121 120/143/120
f 118/144/118 122/145/122 121/142/121
f 120/143/120 133/146/133 130/147/130
f 121/142/121 123/148/123 133/146/133
f 124/149/124 126/150/126 116/151/116
f 125/152/125 127/153/127 124/149/124
f 127/153/127 119/154/119 126/150/126
f 127/153/127 123/155/123 122/156/122
f 129/157/129 131/158/131 117/159/117
f 130/160/130 132/161/132 129/157/129
f 132/161/132 125/162/125 131/158/131
f 132/161/132 123/163/123 128/164/128
f 134/165/134 140/166/140 139/167/139
f 137/168/137 141/169/141 140/166/140
f 139/167/139 152/170/152 149/171/149
f 140/166/140 142/172/142 152/170/152
f 143/173/143 145/174/145 135/175/135
f 144/176/144 146/177/146 143/173/143
f 146/177/146 138/178/138 145/174/145
f 146/177/146 142/179/142 141/180/141
f 148/181/148 150/182/150 136/183/136
f 149/184/149 151/185/151 148/181/148
f 151/185/151 144/186/144 150/182/150
f 151/185/151 142/187/142 147/188/147
f 153/189/153 159/190/159 158/191/158
f 156/192/156 160/193/160 159/190/159
f 158/191/158 171/194/171 168/195/168
f 159/196/159 161/197/161 171/198/171
f 162/199/162 164/200/164 154/201/154
f 163/202/163 165/203/165 162/199/162
f 165/203/165 157/204/157 164/200/164
f 165/203/165 161/197/161 160/205/160
f 167/206/167 169/207/169 155/208/155
f 168/209/168 170/210/170 167/206/167
f 170/210/170 163/202/163 169/207/169
f 170/210/170 161/197/161 166/211/166
f 172/212/172 178/213/178 177/214/177
f 175/215/175 179/216/179 178/213/178
f 177/214/177 190/217/190 187/218/187
f 178/219/178 180/220/180 190/221/190
f 181/222/181 183/223/183 173/224/173
f 182/225/182 184/226/184 181/222/181
f 184/226/184 176/227/176 183/223/183
f 184/226/184 180/220/180 179/228/179
f 186/229/186 188/230/188 174/231/174
f 187/232/187 189/233/189 186/229/186
f 189/233/189 182/225/182 188/230/188
f 189/233/189 180/220/180 185/234/185
f 191/235/191 197/236/197 196/237/196
f 194/238/194 198/239/198 197/236/197
f 196/237/196 209/240/209 206/241/206
f 197/236/197 199/242/199 209/240/209
f 200/243/200 202/244/202 192/245/192
f 201/246/201 203/247/203 200/243/200
f 203/247/203 195/248/195 202/244/202
f 203/247/203 199/249/199 198/250/198
f 205/251/205 207/252/207 193/253/193
f 206/254/206 208/255/208 205/251/205
f 208/255/208 201/256/201 207/252/207
f 208/255/208 199/257/199 204/258/204
f 210/259/210 216/260/216 215/261/215
f 213/262/213 217/263/217 216/260/216
f 215/261/215 228/264/228 225/265/225
f 216/260/216 218/266/218 228/264/228
f 219/267/219 221/268/221 211/269/211
f 220/270/220 222/271/222 219/267/219
f 222/271/222 214/272/214 221/268/221
f 222/271/222 218/273/218 217/274/217
f 224/275/224 226/276/226 212/277/212
f 225/278/225 227/279/227 224/275/224
f 227/279/227 220/280/220 226/276/226
f 227/279/227 218/281/218 223/282/223
f 229/283/229 235/284/235 234/285/234
f 232/286/232 236/287/236 235/284/235
f 234/285/234 247/288/247 244/289/244
f 235/290/235 237/291/237 247/292/247
f 238/293/238 240/294/240 230/295/230
f 239/296/239 241/297/241 238/293/238
f 241/297/241 233/298/233 240/294/240
f 241/297/241 237/291/237 236/299/236
f 243/300/243 245/301/245 231/302/231
f 244/303/244 246/304/246 243/300/243
f 246/304/246 239/296/239 245/301/245
f 246/304/246 237/291/237 242/305/242
f 248/306/248 254/307/254 253/308/253
f 251/309/251 255/310/255 254/307/254
f 253/308/253 266/311/266 263/312/263
f 254/313/254 256/314/256 266/315/266
f 257/316/257 259/317/259 249/318/249
f 258/319/258 260/320/260 257/316/257
f 260/320/260 252/321/252 259/317/259
f 260/320/260 256/314/256 255/322/255
f 262/323/262 264/324/264 250/325/250
f 263/326/263 265/327/265 262/323/262
f 265/327/265 258/319/258 264/324/264
f 265/327/265 256/314/256 261/328/261
f 267/329/267 273/330/273 272/331/272
f 270/332/270 274/333/274 273/330/273
f 272/331/272 285/334/285 282/335/282
f 273/330/273 275/336/275 285/334/285
f 276/337/276 278/338/278 268/339/268
f 277/340/277 279/341/279 276/337/276
f 279/341/279 271/342/271 278/338/278
f 279/341/279 275/343/275 274/344/274
f 281/345/281 283/346/283 269/347/269
f 282/348/282 284/349/284 281/345/281
f 284/349/284 277/350/277 283/346/283
f 284/349/284 275/351/275 280/352/280
f 286/353/286 292/354/292 291/355/291
f 289/356/289 293/357/293 292/354/292
f 291/355/291 304/358/304 301/359/301
f 292/354/292 294/360/294 304/358/304
f 295/361/295 297/362/297 287/363/287
f 296/364/296 298/365/298 295/361/295
f 298/365/298 290/366/290 297/362/297
f 298/365/298 294/367/294 293/368/293
f 300/369/300 302/370/302 288/371/288
f 301/372/301 303/373/303 300/369/300
f 303/373/303 296/374/296 302/370/302
f 303/373/303 294/375/294 299/376/299
f 308/377/308 310/378/310 305/379/305
f 309/380/309 311/381/311 308/377/308
f 311/381/311 320/382/320 310/378/310
f 311/381/311 313/383/313 323/384/323
f 314/385/314 316/386/316 306/387/306
f 315/388/315 317/389/317 314/385/314
f 317/389/317 309/390/309 316/386/316
f 317/389/317 313/391/313 312/392/312
f 319/393/319 321/394/321 307/395/307
f 320/396/320 322/397/322 319/393/319
f 322/397/322 315/398/315 321/394/321
f 322/397/322 313/399/313 318/400/318
f 327/401/327 329/402/329 324/403/324
f 328/404/328 330/405/330 327/401/327
f 330/405/330 339/406/339 329/402/329
f 330/405/330 332/407/332 342/408/342
f 333/409/333 335/410/335 325/411/325
f 334/412/334 336/413/336 333/409/333
f 336/413/336 328/414/328 335/410/335
f 336/413/336 332/415/332 331/416/331
f 338/417/338 340/418/340 326/419/326
f 339/420/339 341/421/341 338/417/338
f 341/421/341 334/422/334 340/418/340
f 341/421/341 332/423/332 337/424/337
f 346/425/346 348/426/348 343/427/343
f 347/428/347 349/429/349 346/425/346
f 349/429/349 358/430/358 348/426/348
f 349/429/349 351/431/351 361/432/361
f 352/433/352 354/434/354 344/435/344
f 353/436/353 355/437/355 352/433/352
f 355/437/355 347/438/347 354/434/354
f 355/437/355 351/439/351 350/440/350
f 357/441/357 359/442/359 345/443/345
f 358/444/358 360/445/360 357/441/357
f 360/445/360 353/446/353 359/442/359
f 360/445/360 351/447/351 356/448/356
f 365/449/365 367/450/367 362/451/362
f 366/452/366 368/453/368 365/449/365
f 368/453/368 377/454/377 367/450/367
f 368/453/368 370/455/370 380/456/380
f 371/457/371 373/458/373 363/459/363
f 372/460/372 374/461/374 371/457/371
f 374/461/374 366/462/366 373/458/373
f 374/461/374 370/463/370 369/464/369
f 376/465/376 378/466/378 364/467/364
f 377/468/377 379/469/379 376/465/376
f 379/469/379 372/470/372 378/466/378
f 379/469/379 370/471/370 375/472/375
f 384/473/384 386/474/386 381/475/381
f 385/476/385 387/477/387 384/473/384
f 387/477/387 396/478/396 386/474/386
f 387/477/387 389/479/389 399/480/399
f 390/481/390 392/482/392 382/483/382
f 391/484/391 393/485/393 390/481/390
f 393/485/393 385/486/385 392/482/392
f 393/485/393 389/487/389 388/488/388
f 395/489/395 397/490/397 383/491/383
f 396/492/396 398/493/398 395/489/395
f 398/493/398 391/494/391 397/490/397
f 398/493/398 389/495/389 394/496/394
f 403/497/403 405/498/405 400/499/400
f 404/500/404 406/501/406 403/497/403
f 406/501/406 415/502/415 405/498/405
f 406/501/406 408/503/408 418/504/418
f 409/505/409 411/506/411 401/507/401
f 410/508/410 412/509/412 409/505/409
f 412/509/412 404/510/404 411/506/411
f 412/509/412 408/511/408 407/512/407
f 414/513/414 416/514/416 402/515/402
f 415/516/415 417/517/417 414/513/414
f 417/517/417 410/518/410 416/514/416
f 417/517/417 408/519/408 413/520/413
f 422/521/422 424/522/424 419/523/419
f 423/524/423 425/525/425 422/521/422
f 425/525/425 434/526/434 424/522/424
f 425/525/425 427/527/427 437/528/437
f 428/529/428 430/530/430 420/531/420
f 429/532/429 431/533/431 428/529/428
f 431/533/431 423/534/423 430/530/430
f 431/533/431 427/535/427 426/536/426
f 433/537/433 435/538/435 421/539/421
f 434/540/434 436/541/436 433/537/433
f 436/541/436 429/542/429 435/538/435
f 436/541/436 427/543/427 432/544/432
f 441/545/441 443/546/443 438/547/438
f 442/548/442 444/549/444 441/545/441
f 444/549/444 453/550/453 443/546/443
f 444/549/444 446/551/446 456/552/456
f 447/553/447 449/554/449 439/555/439
f 448/556/448 450/557/450 447/553/447
f 450/557/450 442/558/442 449/554/449
f 450/557/450 446/559/446 445/560/445
f 452/561/452 454/562/454 440/563/440
f 453/564/453 455/565/455 452/561/452
f 455/565/455 448/566/448 454/562/454
f 455/565/455 446/567/446 451/568/451
f 40/57/40 15/18/15 3/20/3
f 50/56/50 16/21/16 15/18/15
f 16/7/16 42/50/42 6/3/6
f 6/3/6 39/47/39 1/1/1
f 60/89/60 31/35/31 72/87/72
f 72/87/72 24/39/24 73/90/73
f 24/569/24 63/73/63 73/77/73
f 23/27/23 58/71/58 63/73/63
f 22/43/22 10/11/10 2/13/2
f 36/42/36 11/14/11 10/11/10
f 30/37/30 17/19/17 11/14/11
f 29/34/29 3/20/3 17/19/17
f 41/65/41 67/79/67 59/81/59
f 55/64/55 68/82/68 67/79/67
f 49/58/49 74/88/74 68/92/68
f 48/55/48 60/89/60 74/88/74
f 41/65/41 88/106/88 53/63/53
f 53/63/53 81/110/81 54/66/54
f 81/570/81 44/49/44 54/53/54
f 80/98/80 39/47/39 44/49/44
f 59/81/59 110/135/110 98/137/98
f 69/80/69 111/138/111 110/135/110
f 111/124/111 61/74/61 101/120/101
f 101/120/101 58/71/58 96/118/96
f 97/130/97 93/113/93 105/128/105
f 93/113/93 106/131/106 105/128/105
f 87/108/87 112/136/112 106/131/106
f 86/105/86 98/137/98 112/136/112
f 116/151/116 91/112/91 79/114/79
f 126/150/126 92/115/92 91/112/91
f 92/101/92 118/144/118 82/97/82
f 82/97/82 115/141/115 77/95/77
f 136/183/136 107/129/107 148/181/148
f 148/181/148 100/133/100 149/184/149
f 100/571/100 139/167/139 149/171/149
f 99/121/99 134/165/134 139/167/139
f 117/159/117 143/173/143 135/175/135
f 131/158/131 144/176/144 143/173/143
f 125/152/125 150/182/150 144/186/144
f 124/149/124 136/183/136 150/182/150
f 154/201/154 129/157/129 117/159/117
f 164/200/164 130/160/130 129/157/129
f 157/572/157 120/143/120 130/147/130
f 156/192/156 115/141/115 120/143/120
f 174/231/174 145/174/145 186/229/186
f 186/229/186 138/178/138 187/232/187
f 187/218/187 137/168/137 177/214/177
f 137/168/137 172/212/172 177/214/177
f 155/208/155 181/222/181 173/224/173
f 169/207/169 182/225/182 181/222/181
f 163/202/163 188/230/188 182/225/182
f 162/199/162 174/231/174 188/230/188
f 155/208/155 202/244/202 167/206/167
f 167/206/167 195/248/195 168/209/168
f 168/195/168 194/238/194 158/191/158
f 194/238/194 153/189/153 158/191/158
f 212/277/212 183/223/183 224/275/224
f 183/223/183 225/278/225 224/275/224
f 176/573/176 215/261/215 225/265/225
f 175/215/175 210/259/210 215/261/215
f 193/253/193 219/267/219 211/269/211
f 207/252/207 220/270/220 219/267/219
f 201/246/201 226/276/226 220/280/220
f 200/243/200 212/277/212 226/276/226
f 193/253/193 240/294/240 205/251/205
f 205/251/205 233/298/233 206/254/206
f 233/574/233 196/237/196 206/241/206
f 232/286/232 191/235/191 196/237/196
f 211/269/211 262/323/262 250/325/250
f 221/268/221 263/326/263 262/323/262
f 263/312/263 213/262/213 253/308/253
f 253/308/253 210/259/210 248/306/248
f 231/302/231 257/316/257 249/318/249
f 245/301/245 258/319/258 257/316/257
f 239/296/239 264/324/264 258/319/258
f 238/293/238 250/325/250 264/324/264
f 268/339/268 243/300/243 231/302/231
f 278/338/278 244/303/244 243/300/243
f 244/289/244 270/332/270 234/285/234
f 234/285/234 267/329/267 229/283/229
f 288/371/288 259/317/259 300/369/300
f 300/369/300 252/321/252 301/372/301
f 252/575/252 291/355/291 301/359/301
f 251/309/251 286/353/286 291/355/291
f 269/347/269 295/361/295 287/363/287
f 283/346/283 296/364/296 295/361/295
f 277/340/277 302/370/302 296/374/296
f 276/337/276 288/371/288 302/370/302
f 269/347/269 12/12/12 281/345/281
f 281/345/281 5/16/5 282/348/282
f 5/576/5 272/331/272 282/335/282
f 4/4/4 267/329/267 272/331/272
f 287/363/287 34/41/34 22/43/22
f 297/362/297 35/44/35 34/41/34
f 35/30/35 289/356/289 25/26/25
f 25/26/25 286/353/286 20/24/20
f 305/379/305 346/425/346 343/427/343
f 310/378/310 347/428/347 346/425/346
f 320/396/320 354/434/354 347/438/347
f 319/393/319 344/435/344 354/434/354
f 324/403/324 314/385/314 306/387/306
f 329/402/329 315/388/315 314/385/314
f 339/420/339 321/394/321 315/398/315
f 338/417/338 307/395/307 321/394/321
f 362/451/362 333/409/333 325/411/325
f 367/450/367 334/412/334 333/409/333
f 377/468/377 340/418/340 334/422/334
f 376/465/376 326/419/326 340/418/340
f 345/443/345 371/457/371 363/459/363
f 359/442/359 372/460/372 371/457/371
f 353/436/353 378/466/378 372/470/372
f 352/433/352 364/467/364 378/466/378
f 343/427/343 422/521/422 419/523/419
f 348/426/348 423/524/423 422/521/422
f 358/444/358 430/530/430 423/534/423
f 357/441/357 420/531/420 430/530/430
f 438/547/438 365/449/365 362/451/362
f 443/546/443 366/452/366 365/449/365
f 453/564/453 373/458/373 366/462/366
f 452/561/452 363/459/363 373/458/373
f 421/539/421 447/553/447 439/555/439
f 435/538/435 448/556/448 447/553/447
f 429/532/429 454/562/454 448/566/448
f 428/529/428 440/563/440 454/562/454
f 419/523/419 384/473/384 381/475/381
f 424/522/424 385/476/385 384/473/384
f 434/540/434 392/482/392 385/486/385
f 433/537/433 382/483/382 392/482/392
f 400/499/400 441/545/441 438/547/438
f 405/498/405 442/548/442 441/545/441
f 415/516/415 449/554/449 442/558/442
f 414/513/414 439/555/439 449/554/449
f 383/491/383 409/505/409 401/507/401
f 397/490/397 410/508/410 409/505/409
f 391/484/391 416/514/416 410/518/410
f 390/481/390 402/515/402 416/514/416
f 381/475/381 308/377/308 305/379/305
f 386/474/386 309/380/309 308/377/308
f 396/492/396 316/386/316 309/390/309
f 395/489/395 306/387/306 316/386/316
f 325/411/325 403/497/403 400/499/400
f 335/410/335 404/500/404 403/497/403
f 328/404/328 411/506/411 404/510/404
f 327/401/327 401/507/401 411/506/411
f 115/141/115 191/235/191 267/329/267
f 21/36/21 40/57/40 3/20/3
f 287/363/287 2/13/2 269/347/269
f 248/306/248 172/212/172 96/118/96
f 59/81/59 78/107/78 41/65/41
f 97/130/97 116/151/116 79/114/79
f 135/175/135 154/201/154 117/159/117
f 173/224/173 192/245/192 155/208/155
f 211/269/211 230/295/230 193/253/193
f 249/318/249 268/339/268 231/302/231
f 419/523/419 305/379/305 343/427/343
f 326/419/326 344/435/344 307/395/307
f 401/507/401 306/387/306 383/491/383
f 362/451/362 400/499/400 438/547/438
f 363/459/363 420/531/420 345/443/345
f 439/555/439 382/483/382 421/539/421
f 1/1/1 4/4/4 7/2/7
f 4/4/4 5/576/5 8/5/8
f 6/3/6 7/2/7 19/6/19
f 7/8/7 8/17/8 9/9/9
f 10/11/10 13/15/13 12/12/12
f 11/14/11 14/23/14 13/15/13
f 13/15/13 8/17/8 5/16/5
f 13/15/13 14/23/14 9/9/9
f 15/18/15 18/22/18 17/19/17
f 16/21/16 19/10/19 18/22/18
f 18/22/18 14/23/14 11/14/11
f 18/22/18 19/10/19 9/9/9
f 20/24/20 23/27/23 26/25/26
f 23/27/23 24/569/24 27/28/27
f 25/26/25 26/25/26 38/29/38
f 26/31/26 27/40/27 28/32/28
f 29/34/29 32/38/32 31/35/31
f 30/37/30 33/46/33 32/38/32
f 32/38/32 27/40/27 24/39/24
f 32/38/32 33/46/33 28/32/28
f 34/41/34 37/45/37 36/42/36
f 35/44/35 38/33/38 37/45/37
f 37/45/37 33/46/33 30/37/30
f 37/45/37 38/33/38 28/32/28
f 39/47/39 42/50/42 45/48/45
f 42/50/42 43/577/43 46/51/46
f 44/49/44 45/48/45 57/52/57
f 45/48/45 46/51/46 47/54/47
f 48/55/48 51/59/51 50/56/50
f 49/58/49 52/578/52 51/59/51
f 51/59/51 46/62/46 43/60/43
f 51/59/51 52/578/52 47/61/47
f 53/63/53 56/67/56 55/64/55
f 54/66/54 57/579/57 56/67/56
f 56/67/56 52/70/52 49/68/49
f 56/67/56 57/579/57 47/69/47
f 58/71/58 61/74/61 64/72/64
f 61/74/61 62/580/62 65/75/65
f 63/73/63 64/72/64 76/76/76
f 64/72/64 65/75/65 66/78/66
f 67/79/67 70/83/70 69/80/69
f 68/82/68 71/581/71 70/83/70
f 70/83/70 65/86/65 62/84/62
f 70/83/70 71/581/71 66/85/66
f 72/87/72 75/91/75 74/88/74
f 73/90/73 76/582/76 75/91/75
f 75/91/75 71/94/71 68/92/68
f 75/91/75 76/582/76 66/93/66
f 77/95/77 80/98/80 83/96/83
f 80/98/80 81/570/81 84/99/84
f 82/97/82 83/96/83 95/100/95
f 83/102/83 84/111/84 85/103/85
f 86/105/86 89/109/89 88/106/88
f 87/108/87 90/117/90 89/109/89
f 89/109/89 84/111/84 81/110/81
f 89/109/89 90/117/90 85/103/85
f 91/112/91 94/116/94 93/113/93
f 92/115/92 95/104/95 94/116/94
f 94/116/94 90/117/90 87/108/87
f 94/116/94 95/104/95 85/103/85
f 96/118/96 99/121/99 102/119/102
f 99/121/99 100/571/100 103/122/103
f 101/120/101 102/119/102 114/123/114
f 102/125/102 103/134/103 104/126/104
f 105/128/105 108/132/108 107/129/107
f 106/131/106 109/140/109 108/132/108
f 108/132/108 103/134/103 100/133/100
f 108/132/108 109/140/109 104/126/104
f 110/135/110 113/139/113 112/136/112
f 111/138/111 114/127/114 113/139/113
f 113/139/113 109/140/109 106/131/106
f 113/139/113 114/127/114 104/126/104
f 115/141/115 118/144/118 121/142/121
f 118/144/118 119/583/119 122/145/122
f 120/143/120 121/142/121 133/146/133
f 121/142/121 122/145/122 123/148/123
f 124/149/124 127/153/127 126/150/126
f 125/152/125 128/584/128 127/153/127
f 127/153/127 122/156/122 119/154/119
f 127/153/127 128/584/128 123/155/123
f 129/157/129 132/161/132 131/158/131
f 130/160/130 133/585/133 132/161/132
f 132/161/132 128/164/128 125/162/125
f 132/161/132 133/585/133 123/163/123
f 134/165/134 137/168/137 140/166/140
f 137/168/137 138/586/138 141/169/141
f 139/167/139 140/166/140 152/170/152
f 140/166/140 141/169/141 142/172/142
f 143/173/143 146/177/146 145/174/145
f 144/176/144 147/587/147 146/177/146
f 146/177/146 141/180/141 138/178/138
f 146/177/146 147/587/147 142/179/142
f 148/181/148 151/185/151 150/182/150
f 149/184/149 152/588/152 151/185/151
f 151/185/151 147/188/147 144/186/144
f 151/185/151 152/588/152 142/187/142
f 153/189/153 156/192/156 159/190/159
f 156/192/156 157/572/157 160/193/160
f 158/191/158 159/190/159 171/194/171
f 159/196/159 160/205/160 161/197/161
f 162/199/162 165/203/165 164/200/164
f 163/202/163 166/211/166 165/203/165
f 165/203/165 160/205/160 157/204/157
f 165/203/165 166/211/166 161/197/161
f 167/206/167 170/210/170 169/207/169
f 168/209/168 171/198/171 170/210/170
f 170/210/170 166/211/166 163/202/163
f 170/210/170 171/198/171 161/197/161
f 172/212/172 175/215/175 178/213/178
f 175/215/175 176/573/176 179/216/179
f 177/214/177 178/213/178 190/217/190
f 178/219/178 179/228/179 180/220/180
f 181/222/181 184/226/184 183/223/183
f 182/225/182 185/234/185 184/226/184
f 184/226/184 179/228/179 176/227/176
f 184/226/184 185/234/185 180/220/180
f 186/229/186 189/233/189 188/230/188
f 187/232/187 190/221/190 189/233/189
f 189/233/189 185/234/185 182/225/182
f 189/233/189 190/221/190 180/220/180
f 191/235/191 194/238/194 197/236/197
f 194/238/194 195/589/195 198/239/198
f 196/237/196 197/236/197 209/240/209
f 197/236/197 198/239/198 199/242/199
f 200/243/200 203/247/203 202/244/202
f 201/246/201 204/590/204 203/247/203
f 203/247/203 198/250/198 195/248/195
f 203/247/203 204/590/204 199/249/199
f 205/251/205 208/255/208 207/252/207
f 206/254/206 209/591/209 208/255/208
f 208/255/208 204/258/204 201/256/201
f 208/255/208 209/591/209 199/257/199
f 210/259/210 213/262/213 216/260/216
f 213/262/213 214/592/214 217/263/217
f 215/261/215 216/260/216 228/264/228
f 216/260/216 217/263/217 218/266/218
f 219/267/219 222/271/222 221/268/221
f 220/270/220 223/593/223 222/271/222
f 222/271/222 217/274/217 214/272/214
f 222/271/222 223/593/223 218/273/218
f 224/275/224 227/279/227 226/276/226
f 225/278/225 228/594/228 227/279/227
f 227/279/227 223/282/223 220/280/220
f 227/279/227 228/594/228 218/281/218
f 229/283/229 232/286/232 235/284/235
f 232/286/232 233/574/233 236/287/236
f 234/285/234 235/284/235 247/288/247
f 235/290/235 236/299/236 237/291/237
f 238/293/238 241/297/241 240/294/240
f 239/296/239 242/305/242 241/297/241
f 241/297/241 236/299/236 233/298/233
f 241/297/241 242/305/242 237/291/237
f 243/300/243 246/304/246 245/301/245
f 244/303/244 247/292/247 246/304/246
f 246/304/246 242/305/242 239/296/239
f 246/304/246 247/292/247 237/291/237
f 248/306/248 251/309/251 254/307/254
f 251/309/251 252/575/252 255/310/255
f 253/308/253 254/307/254 266/311/266
f 254/313/254 255/322/255 256/314/256
f 257/316/257 260/320/260 259/317/259
f 258/319/258 261/328/261 260/320/260
f 260/320/260 255/322/255 252/321/252
f 260/320/260 261/328/261 256/314/256
f 262/323/262 265/327/265 264/324/264
f 263/326/263 266/315/266 265/327/265
f 265/327/265 261/328/261 258/319/258
f 265/327/265 266/315/266 256/314/256
f 267/329/267 270/332/270 273/330/273
f 270/332/270 271/595/271 274/333/274
f 272/331/272 273/330/273 285/334/285
f 273/330/273 274/333/274 275/336/275
f 276/337/276 279/341/279 278/338/278
f 277/340/277 280/596/280 279/341/279
f 279/341/279 274/344/274 271/342/271
f 279/341/279 280/596/280 275/343/275
f 281/345/281 284/349/284 283/346/283
f 282/348/282 285/597/285 284/349/284
f 284/349/284 280/352/280 277/350/277
f 284/349/284 285/597/285 275/351/275
f 286/353/286 289/356/289 292/354/292
f 289/356/289 290/598/290 293/357/293
f 291/355/291 292/354/292 304/358/304
f 292/354/292 293/357/293 294/360/294
f 295/361/295 298/365/298 297/362/297
f 296/364/296 299/599/299 298/365/298
f 298/365/298 293/368/293 290/366/290
f 298/365/298 299/599/299 294/367/294
f 300/369/300 303/373/303 302/370/302
f 301/372/301 304/600/304 303/373/303
f 303/373/303 299/376/299 296/374/296
f 303/373/303 304/600/304 294/375/294
f 308/377/308 311/381/311 310/378/310
f 309/380/309 312/601/312 311/381/311
f 311/381/311 323/384/323 320/382/320
f 311/381/311 312/601/312 313/383/313
f 314/385/314 317/389/317 316/386/316
f 315/388/315 318/602/318 317/389/317
f 317/389/317 312/392/312 309/390/309
f 317/389/317 318/602/318 313/391/313
f 319/393/319 322/397/322 321/394/321
f 320/396/320 323/603/323 322/397/322
f 322/397/322 318/400/318 315/398/315
f 322/397/322 323/603/323 313/399/313
f 327/401/327 330/405/330 329/402/329
f 328/404/328 331/604/331 330/405/330
f 330/405/330 342/408/342 339/406/339
f 330/405/330 331/604/331 332/407/332
f 333/409/333 336/413/336 335/410/335
f 334/412/334 337/605/337 336/413/336
f 336/413/336 331/416/331 328/414/328
f 336/413/336 337/605/337 332/415/332
f 338/417/338 341/421/341 340/418/340
f 339/420/339 342/606/342 341/421/341
f 341/421/341 337/424/337 334/422/334
f 341/421/341 342/606/342 332/423/332
f 346/425/346 349/429/349 348/426/348
f 347/428/347 350/607/350 349/429/349
f 349/429/349 361/432/361 358/430/358
f 349/429/349 350/607/350 351/431/351
f 352/433/352 355/437/355 354/434/354
f 353/436/353 356/608/356 355/437/355
f 355/437/355 350/440/350 347/438/347
f 355/437/355 356/608/356 351/439/351
f 357/441/357 360/445/360 359/442/359
f 358/444/358 361/609/361 360/445/360
f 360/445/360 356/448/356 353/446/353
f 360/445/360 361/609/361 351/447/351
f 365/449/365 368/453/368 367/450/367
f 366/452/366 369/610/369 368/453/368
f 368/453/368 380/456/380 377/454/377
f 368/453/368 369/610/369 370/455/370
f 371/457/371 374/461/374 373/458/373
f 372/460/372 375/611/375 374/461/374
f 374/461/374 369/464/369 366/462/366
f 374/461/374 375/611/375 370/463/370
f 376/465/376 379/469/379 378/466/378
f 377/468/377 380/612/380 379/469/379
f 379/469/379 375/472/375 372/470/372
f 379/469/379 380/612/380 370/471/370
f 384/473/384 387/477/387 386/474/386
f 385/476/385 388/613/388 387/477/387
f 387/477/387 399/480/399 396/478/396
f 387/477/387 388/613/388 389/479/389
f 390/481/390 393/485/393 392/482/392
f 391/484/391 394/614/394 393/485/393
f 393/485/393 388/488/388 385/486/385
f 393/485/393 394/614/394 389/487/389
f 395/489/395 398/493/398 397/490/397
f 396/492/396 399/615/399 398/493/398
f 398/493/398 394/496/394 391/494/391
f 398/493/398 399/615/399 389/495/389
f 403/497/403 406/501/406 405/498/405
f 404/500/404 407/616/407 406/501/406
f 406/501/406 418/504/418 415/502/415
f 406/501/406 407/616/407 408/503/408
f 409/505/409 412/509/412 411/506/411
f 410/508/410 413/617/413 412/509/412
f 412/509/412 407/512/407 404/510/404
f 412/509/412 413/617/413 408/511/408
f 414/513/414 417/517/417 416/514/416
f 415/516/415 418/618/418 417/517/417
f 417/517/417 413/520/413 410/518/410
f 417/517/417 418/618/418 408/519/408
f 422/521/422 425/525/425 424/522/424
f 423/524/423 426/619/426 425/525/425
f 425/525/425 437/528/437 434/526/434
f 425/525/425 426/619/426 427/527/427
f 428/529/428 431/533/431 430/530/430
f 429/532/429 432/620/432 431/533/431
f 431/533/431 426/536/426 423/534/423
f 431/533/431 432/620/432 427/535/427
f 433/537/433 436/541/436 435/538/435
f 434/540/434 437/621/437 436/541/436
f 436/541/436 432/544/432 429/542/429
f 436/541/436 437/621/437 427/543/427
f 441/545/441 444/549/444 443/546/443
f 442/548/442 445/622/445 444/549/444
f 444/549/444 456/552/456 453/550/453
f 444/549/444 445/622/445 446/551/446
f 447/553/447 450/557/450 449/554/449
f 448/556/448 451/623/451 450/557/450
f 450/557/450 445/560/445 442/558/442
f 450/557/450 451/623/451 446/559/446
f 452/561/452 455/565/455 454/562/454
f 453/564/453 456/624/456 455/565/455
f 455/565/455 451/568/451 448/566/448
f 455/565/455 456/624/456 446/567/446
f 40/57/40 50/56/50 15/18/15
f 50/56/50 43/60/43 16/21/16
f 16/7/16 43/577/43 42/50/42
f 6/3/6 42/50/42 39/47/39
f 60/89/60 21/36/21 31/35/31
f 72/87/72 31/35/31 24/39/24
f 24/569/24 23/27/23 63/73/63
f 23/27/23 20/24/20 58/71/58
f 22/43/22 36/42/36 10/11/10
f 36/42/36 30/37/30 11/14/11
f 30/37/30 29/34/29 17/19/17
f 29/34/29 21/36/21 3/20/3
f 41/65/41 55/64/55 67/79/67
f 55/64/55 49/68/49 68/82/68
f 49/58/49 48/55/48 74/88/74
f 48/55/48 40/57/40 60/89/60
f 41/65/41 78/107/78 88/106/88
f 53/63/53 88/106/88 81/110/81
f 81/570/81 80/98/80 44/49/44
f 80/98/80 77/95/77 39/47/39
f 59/81/59 69/80/69 110/135/110
f 69/80/69 62/84/62 111/138/111
f 111/124/111 62/580/62 61/74/61
f 101/120/101 61/74/61 58/71/58
f 97/130/97 79/114/79 93/113/93
f 93/113/93 87/108/87 106/131/106
f 87/108/87 86/105/86 112/136/112
f 86/105/86 78/107/78 98/137/98
f 116/151/116 126/150/126 91/112/91
f 126/150/126 119/154/119 92/115/92
f 92/101/92 119/583/119 118/144/118
f 82/97/82 118/144/118 115/141/115
f 136/183/136 97/130/97 107/129/107
f 148/181/148 107/129/107 100/133/100
f 100/571/100 99/121/99 139/167/139
f 99/121/99 96/118/96 134/165/134
f 117/159/117 131/158/131 143/173/143
f 131/158/131 125/162/125 144/176/144
f 125/152/125 124/149/124 150/182/150
f 124/149/124 116/151/116 136/183/136
f 154/201/154 164/200/164 129/157/129
f 164/200/164 157/204/157 130/160/130
f 157/572/157 156/192/156 120/143/120
f 156/192/156 153/189/153 115/141/115
f 174/231/174 135/175/135 145/174/145
f 186/229/186 145/174/145 138/178/138
f 187/218/187 138/586/138 137/168/137
f 137/168/137 134/165/134 172/212/172
f 155/208/155 169/207/169 181/222/181
f 169/207/169 163/202/163 182/225/182
f 163/202/163 162/199/162 188/230/188
f 162/199/162 154/201/154 174/231/174
f 155/208/155 192/245/192 202/244/202
f 167/206/167 202/244/202 195/248/195
f 168/195/168 195/589/195 194/238/194
f 194/238/194 191/235/191 153/189/153
f 212/277/212 173/224/173 183/223/183
f 183/223/183 176/227/176 225/278/225
f 176/573/176 175/215/175 215/261/215
f 175/215/175 172/212/172 210/259/210
f 193/253/193 207/252/207 219/267/219
f 207/252/207 201/256/201 220/270/220
f 201/246/201 200/243/200 226/276/226
f 200/243/200 192/245/192 212/277/212
f 193/253/193 230/295/230 240/294/240
f 205/251/205 240/294/240 233/298/233
f 233/574/233 232/286/232 196/237/196
f 232/286/232 229/283/229 191/235/191
f 211/269/211 221/268/221 262/323/262
f 221/268/221 214/272/214 263/326/263
f 263/312/263 214/592/214 213/262/213
f 253/308/253 213/262/213 210/259/210
f 231/302/231 245/301/245 257/316/257
f 245/301/245 239/296/239 258/319/258
f 239/296/239 238/293/238 264/324/264
f 238/293/238 230/295/230 250/325/250
f 268/339/268 278/338/278 243/300/243
f 278/338/278 271/342/271 244/303/244
f 244/289/244 271/595/271 270/332/270
f 234/285/234 270/332/270 267/329/267
f 288/371/288 249/318/249 259/317/259
f 300/369/300 259/317/259 252/321/252
f 252/575/252 251/309/251 291/355/291
f 251/309/251 248/306/248 286/353/286
f 269/347/269 283/346/283 295/361/295
f 283/346/283 277/350/277 296/364/296
f 277/340/277 276/337/276 302/370/302
f 276/337/276 268/339/268 288/371/288
f 269/347/269 2/13/2 12/12/12
f 281/345/281 12/12/12 5/16/5
f 5/576/5 4/4/4 272/331/272
f 4/4/4 1/1/1 267/329/267
f 287/363/287 297/362/297 34/41/34
f 297/362/297 290/366/290 35/44/35
f 35/30/35 290/598/290 289/356/289
f 25/26/25 289/356/289 286/353/286
f 305/379/305 310/378/310 346/425/346
f 310/378/310 320/382/320 347/428/347
f 320/396/320 319/393/319 354/434/354
f 319/393/319 307/395/307 344/435/344
f 324/403/324 329/402/329 314/385/314
f 329/402/329 339/406/339 315/388/315
f 339/420/339 338/417/338 321/394/321
f 338/417/338 326/419/326 307/395/307
f 362/451/362 367/450/367 333/409/333
f 367/450/367 377/454/377 334/412/334
f 377/468/377 376/465/376 340/418/340
f 376/465/376 364/467/364 326/419/326
f 345/443/345 359/442/359 371/457/371
f 359/442/359 353/446/353 372/460/372
f 353/436/353 352/433/352 378/466/378
f 352/433/352 344/435/344 364/467/364
f 343/427/343 348/426/348 422/521/422
f 348/426/348 358/430/358 423/524/423
f 358/444/358 357/441/357 430/530/430
f 357/441/357 345/443/345 420/531/420
f 438/547/438 443/546/443 365/449/365
f 443/546/443 453/550/453 366/452/366
f 453/564/453 452/561/452 373/458/373
f 452/561/452 440/563/440 363/459/363
f 421/539/421 435/538/435 447/553/447
f 435/538/435 429/542/429 448/556/448
f 429/532/429 428/529/428 454/562/454
f 428/529/428 420/531/420 440/563/440
f 419/523/419 424/522/424 384/473/384
f 424/522/424 434/526/434 385/476/385
f 434/540/434 433/537/433 392/482/392
f 433/537/433 421/539/421 382/483/382
f 400/499/400 405/498/405 441/545/441
f 405/498/405 415/502/415 442/548/442
f 415/516/415 414/513/414 449/554/449
f 414/513/414 402/515/402 439/555/439
f 383/491/383 397/490/397 409/505/409
f 397/490/397 391/494/391 410/508/410
f 391/484/391 390/481/390 416/514/416
f 390/481/390 382/483/382 402/515/402
f 381/475/381 386/474/386 308/377/308
f 386/474/386 396/478/396 309/380/309
f 396/492/396 395/489/395 316/386/316
f 395/489/395 383/491/383 306/387/306
f 325/411/325 335/410/335 403/497/403
f 335/410/335 328/414/328 404/500/404
f 328/404/328 327/401/327 411/506/411
f 327/401/327 324/403/324 401/507/401
f 267/329/267 1/1/1 39/47/39
f 39/47/39 77/95/77 115/141/115
f 115/141/115 153/189/153 191/235/191
f 191/235/191 229/283/229 267/329/267
f 267/329/267 39/47/39 115/141/115
f 21/36/21 60/89/60 40/57/40
f 287/363/287 22/43/22 2/13/2
f 96/118/96 58/71/58 20/24/20
f 20/24/20 286/353/286 248/306/248
f 248/306/248 210/259/210 172/212/172
f 172/212/172 134/165/134 96/118/96
f 96/118/96 20/24/20 248/306/248
f 59/81/59 98/137/98 78/107/78
f 97/130/97 136/183/136 116/151/116
f 135/175/135 174/231/174 154/201/154
f 173/224/173 212/277/212 192/245/192
f 211/269/211 250/325/250 230/295/230
f 249/318/249 288/371/288 268/339/268
f 419/523/419 381/475/381 305/379/305
f 326/419/326 364/467/364 344/435/344
f 401/507/401 324/403/324 306/387/306
f 362/451/362 325/411/325 400/499/400
f 363/459/363 440/563/440 420/531/420
f 439/555/439 402/515/402 382/483/382
