# Blender 5.2.0 LTS
# www.blender.org
o unit_archer
v -0.221801 0.005864 -0.186424
v -0.210274 -0.000000 -0.176630
v -0.244755 0.042740 -0.203628
v -0.245479 0.030782 -0.196968
v -0.250000 0.043917 -0.196825
v -0.242346 0.042801 -0.205634
v -0.230187 0.032905 -0.207590
v 0.236449 0.042699 -0.210000
v 0.233815 0.030832 -0.206164
v 0.229655 0.035337 -0.209593
v 0.229621 0.035877 -0.210000
v 0.244662 0.042642 -0.203496
v 0.250000 0.043917 -0.196825
v 0.245463 0.030750 -0.196938
v 0.210382 -0.000000 -0.176501
v 0.221900 0.005868 -0.186300
v 0.245442 0.030550 0.196312
v 0.250000 0.043647 0.195924
v 0.244791 0.042505 0.202939
v 0.241658 0.042578 0.205590
v 0.229547 0.030923 0.209915
v 0.210274 0.000000 0.176630
v 0.221788 0.005883 0.186398
v -0.244901 0.042604 0.203066
v -0.250000 0.043647 0.195924
v -0.245472 0.030569 0.196306
v -0.210382 0.000000 0.176501
v -0.221879 0.005873 0.186307
v -0.237170 0.042934 0.209945
v -0.234386 0.031044 0.206172
v -0.230279 0.036106 0.210000
v -0.234809 0.042536 0.210000
v -0.237101 0.042934 0.210000
v -0.244791 1.357495 -0.202939
v -0.250000 1.356353 -0.195924
v -0.245442 1.369450 -0.196312
v -0.210274 1.400000 -0.176630
v -0.221788 1.394117 -0.186398
v -0.241658 1.357422 -0.205590
v -0.229547 1.369077 -0.209915
v 0.210382 1.400000 -0.176501
v 0.221879 1.394127 -0.186307
v 0.244901 1.357396 -0.203066
v 0.245472 1.369431 -0.196306
v 0.250000 1.356353 -0.195924
v 0.234386 1.368956 -0.206172
v 0.237170 1.357066 -0.209945
v 0.237101 1.357066 -0.210000
v 0.234809 1.357464 -0.210000
v 0.230279 1.363894 -0.210000
v 0.230187 1.367095 0.207590
v 0.242346 1.357199 0.205634
v 0.244755 1.357260 0.203628
v 0.250000 1.356083 0.196825
v 0.245479 1.369218 0.196968
v 0.210274 1.400000 0.176630
v 0.221801 1.394136 0.186424
v -0.245463 1.369250 0.196938
v -0.250000 1.356083 0.196825
v -0.244662 1.357358 0.203496
v -0.233815 1.369168 0.206164
v -0.236449 1.357301 0.210000
v -0.229621 1.364123 0.210000
v -0.229655 1.364663 0.209593
v -0.210382 1.400000 0.176500
v -0.221900 1.394132 0.186300
v -0.163217 1.406434 -0.163217
v -0.153175 1.400000 -0.153175
v -0.183566 1.426783 -0.163217
v -0.190000 1.436825 -0.153175
v -0.163217 1.426783 -0.183566
v -0.153175 1.436825 -0.190000
v 0.153175 1.436825 -0.190000
v 0.163217 1.426783 -0.183566
v 0.183566 1.426783 -0.163217
v 0.190000 1.436825 -0.153175
v 0.153175 1.400000 -0.153175
v 0.163217 1.406434 -0.163217
v 0.190000 1.436825 0.153175
v 0.183566 1.426783 0.163217
v 0.153175 1.436825 0.190000
v 0.163217 1.426783 0.183565
v 0.153175 1.400000 0.153175
v 0.163217 1.406434 0.163217
v -0.190000 1.436825 0.153175
v -0.183566 1.426783 0.163217
v -0.153175 1.400000 0.153175
v -0.163217 1.406434 0.163217
v -0.153175 1.436825 0.190000
v -0.163217 1.426783 0.183565
v -0.190000 1.743175 -0.153175
v -0.183566 1.753217 -0.163217
v -0.163217 1.773566 -0.163217
v -0.153175 1.780000 -0.153175
v -0.153175 1.743175 -0.190000
v -0.163217 1.753217 -0.183566
v 0.153175 1.780000 -0.153175
v 0.163217 1.773566 -0.163217
v 0.190000 1.743175 -0.153175
v 0.183566 1.753217 -0.163217
v 0.153175 1.743175 -0.190000
v 0.163217 1.753217 -0.183566
v 0.163217 1.753217 0.183565
v 0.153175 1.743175 0.190000
v 0.190000 1.743175 0.153175
v 0.183566 1.753217 0.163217
v 0.163217 1.773566 0.163217
v 0.153175 1.780000 0.153175
v -0.190000 1.743175 0.153175
v -0.183566 1.753217 0.163217
v -0.153175 1.743175 0.190000
v -0.163217 1.753217 0.183565
v -0.153175 1.780000 0.153175
v -0.163217 1.773566 0.163217
v 0.036825 0.850000 0.536825
v 0.026783 0.856435 0.526783
v 0.000000 0.886825 0.536825
v 0.006434 0.876783 0.526783
v 0.026783 0.876783 0.506434
v 0.036825 0.886825 0.500000
v 0.063175 0.886825 0.500000
v 0.073217 0.876783 0.506434
v 0.100000 0.886825 0.536825
v 0.093566 0.876783 0.526783
v 0.063175 0.850000 0.536825
v 0.073217 0.856435 0.526783
v 0.100000 0.886825 0.563175
v 0.093566 0.876783 0.573217
v 0.063175 0.886825 0.600000
v 0.073217 0.876783 0.593566
v 0.073217 0.856435 0.573217
v 0.063175 0.850000 0.563175
v 0.000000 0.886825 0.563175
v 0.006434 0.876783 0.573217
v 0.036825 0.850000 0.563175
v 0.026783 0.856435 0.573217
v 0.036825 0.886825 0.600000
v 0.026783 0.876783 0.593566
v 0.000000 1.963175 0.536825
v 0.006434 1.973217 0.526783
v 0.026783 1.993566 0.526783
v 0.036825 2.000000 0.536825
v 0.036825 1.963175 0.500000
v 0.026783 1.973217 0.506434
v 0.063175 2.000000 0.536825
v 0.073217 1.993566 0.526783
v 0.100000 1.963175 0.536825
v 0.093566 1.973217 0.526783
v 0.063175 1.963175 0.500000
v 0.073217 1.973217 0.506434
v 0.063175 1.963175 0.600000
v 0.073217 1.973217 0.593565
v 0.100000 1.963175 0.563175
v 0.093566 1.973217 0.573217
v 0.063175 2.000000 0.563175
v 0.073217 1.993566 0.573217
v 0.000000 1.963175 0.563175
v 0.006434 1.973217 0.573217
v 0.036825 1.963175 0.600000
v 0.026783 1.973217 0.593565
v 0.036825 2.000000 0.563175
v 0.026783 1.993566 0.573217
v 0.036825 0.850000 -0.563175
v 0.026783 0.856434 -0.573217
v 0.000000 0.886825 -0.563175
v 0.006434 0.876783 -0.573217
v 0.026783 0.876783 -0.593566
v 0.036825 0.886825 -0.600000
v 0.063175 0.886825 -0.600000
v 0.073217 0.876783 -0.593566
v 0.100000 0.886825 -0.563175
v 0.093566 0.876783 -0.573217
v 0.063175 0.850000 -0.563175
v 0.073217 0.856434 -0.573217
v 0.100000 0.886825 -0.536825
v 0.093566 0.876783 -0.526783
v 0.063175 0.886825 -0.500000
v 0.073217 0.876783 -0.506435
v 0.073217 0.856434 -0.526783
v 0.063175 0.850000 -0.536825
v 0.000000 0.886825 -0.536825
v 0.006434 0.876783 -0.526783
v 0.036825 0.850000 -0.536825
v 0.026783 0.856434 -0.526783
v 0.026783 0.876783 -0.506435
v 0.036825 0.886825 -0.500000
v 0.000000 1.963175 -0.563175
v 0.006434 1.973217 -0.573217
v 0.026783 1.993566 -0.573217
v 0.036825 2.000000 -0.563175
v 0.036825 1.963175 -0.600000
v 0.026783 1.973217 -0.593566
v 0.063175 2.000000 -0.563175
v 0.073217 1.993566 -0.573217
v 0.100000 1.963175 -0.563175
v 0.093566 1.973217 -0.573217
v 0.063175 1.963175 -0.600000
v 0.073217 1.973217 -0.593566
v 0.063175 1.963175 -0.500000
v 0.073217 1.973217 -0.506435
v 0.100000 1.963175 -0.536825
v 0.093566 1.973217 -0.526783
v 0.063175 2.000000 -0.536825
v 0.073217 1.993566 -0.526783
v 0.000000 1.963175 -0.536825
v 0.006434 1.973217 -0.526783
v 0.036825 1.963175 -0.500000
v 0.026783 1.973217 -0.506435
v 0.036825 2.000000 -0.536825
v 0.026783 1.993566 -0.526783
v 0.036783 1.356434 -0.523217
v 0.046825 1.350000 -0.513175
v 0.016434 1.376783 -0.523217
v 0.010000 1.386825 -0.513175
v 0.036783 1.376783 -0.543566
v 0.046825 1.386825 -0.550000
v 0.053175 1.386825 -0.550000
v 0.063217 1.376783 -0.543566
v 0.083566 1.376783 -0.523217
v 0.090000 1.386825 -0.513175
v 0.053175 1.350000 -0.513175
v 0.063217 1.356434 -0.523217
v 0.090000 1.386825 0.513175
v 0.083566 1.376783 0.523217
v 0.053175 1.386825 0.550000
v 0.063217 1.376783 0.543566
v 0.053175 1.350000 0.513175
v 0.063217 1.356434 0.523217
v 0.010000 1.386825 0.513175
v 0.016434 1.376783 0.523217
v 0.046825 1.350000 0.513175
v 0.036783 1.356434 0.523217
v 0.046825 1.386825 0.550000
v 0.036783 1.376783 0.543565
v 0.010000 1.393175 -0.513175
v 0.016434 1.403217 -0.523217
v 0.036783 1.423566 -0.523217
v 0.046825 1.430000 -0.513175
v 0.046825 1.393175 -0.550000
v 0.036783 1.403217 -0.543566
v 0.053175 1.430000 -0.513175
v 0.063217 1.423566 -0.523217
v 0.090000 1.393175 -0.513175
v 0.083566 1.403217 -0.523217
v 0.053175 1.393175 -0.550000
v 0.063217 1.403217 -0.543566
v 0.063217 1.403217 0.543565
v 0.053175 1.393175 0.550000
v 0.090000 1.393175 0.513175
v 0.083566 1.403217 0.523217
v 0.063217 1.423566 0.523217
v 0.053175 1.430000 0.513175
v 0.010000 1.393175 0.513175
v 0.016434 1.403217 0.523217
v 0.046825 1.393175 0.550000
v 0.036783 1.403217 0.543565
v 0.046825 1.430000 0.513175
v 0.036783 1.423566 0.523217
v 0.036783 0.356434 -0.523217
v 0.046825 0.350000 -0.513175
v 0.016434 0.376783 -0.523217
v 0.010000 0.386825 -0.513175
v 0.036783 0.376783 -0.543566
v 0.046825 0.386825 -0.550000
v 0.053175 0.386825 -0.550000
v 0.063217 0.376783 -0.543566
v 0.083566 0.376783 -0.523217
v 0.090000 0.386825 -0.513175
v 0.053175 0.350000 -0.513175
v 0.063217 0.356434 -0.523217
v 0.090000 0.386825 0.513175
v 0.083566 0.376783 0.523217
v 0.053175 0.386825 0.550000
v 0.063217 0.376783 0.543566
v 0.053175 0.350000 0.513175
v 0.063217 0.356434 0.523217
v 0.010000 0.386825 0.513175
v 0.016434 0.376783 0.523217
v 0.046825 0.350000 0.513175
v 0.036783 0.356434 0.523217
v 0.046825 0.386825 0.550000
v 0.036783 0.376783 0.543566
v 0.010000 0.393175 -0.513175
v 0.016434 0.403217 -0.523217
v 0.036783 0.423566 -0.523217
v 0.046825 0.430000 -0.513175
v 0.046825 0.393175 -0.550000
v 0.036783 0.403217 -0.543566
v 0.053175 0.430000 -0.513175
v 0.063217 0.423566 -0.523217
v 0.090000 0.393175 -0.513175
v 0.083566 0.403217 -0.523217
v 0.053175 0.393175 -0.550000
v 0.063217 0.403217 -0.543566
v 0.063217 0.403217 0.543566
v 0.053175 0.393175 0.550000
v 0.090000 0.393175 0.513175
v 0.083566 0.403217 0.523217
v 0.063217 0.423566 0.523217
v 0.053175 0.430000 0.513175
v 0.010000 0.393175 0.513175
v 0.016434 0.403217 0.523217
v 0.046825 0.393175 0.550000
v 0.036783 0.403217 0.543566
v 0.046825 0.430000 0.513175
v 0.036783 0.423566 0.523217
v 0.215477 0.904826 -0.039917
v 0.215921 0.900000 -0.034048
v 0.203898 0.904238 -0.031559
v 0.175000 0.936825 -0.003175
v 0.180357 0.925614 -0.014386
v 0.215477 0.900083 -0.035174
v 0.203898 0.908441 -0.035762
v 0.215921 0.905952 -0.040000
v 0.684664 0.901021 -0.035174
v 0.684662 0.907112 -0.040000
v 0.696232 0.909277 -0.035754
v 0.719604 0.925641 -0.014359
v 0.725000 0.936825 -0.003175
v 0.684664 0.904826 -0.038980
v 0.696232 0.904246 -0.030723
v 0.684662 0.900000 -0.032889
v 0.725000 0.936825 0.003175
v 0.719626 0.925614 0.014362
v 0.696227 0.909273 0.035758
v 0.684265 0.905846 0.040000
v 0.684140 0.900010 0.035125
v 0.696107 0.904243 0.031555
v 0.175000 0.936825 0.003175
v 0.180374 0.925638 0.014386
v 0.203773 0.904242 0.030727
v 0.215735 0.900000 0.034154
v 0.215860 0.904875 0.039990
v 0.203893 0.908445 0.035757
v 0.175000 0.943175 -0.003175
v 0.180374 0.954386 -0.014362
v 0.203893 0.975757 -0.031555
v 0.215477 0.979983 -0.035112
v 0.215735 0.974154 -0.040000
v 0.203773 0.970727 -0.035758
v 0.684265 0.980000 -0.034155
v 0.696227 0.975758 -0.030727
v 0.725000 0.943175 -0.003175
v 0.719626 0.954362 -0.014387
v 0.696107 0.971555 -0.035757
v 0.684523 0.975112 -0.039983
v 0.684523 0.979917 0.035174
v 0.684079 0.974048 0.040000
v 0.696102 0.971559 0.035762
v 0.719643 0.954386 0.014386
v 0.725000 0.943175 0.003175
v 0.696102 0.975762 0.031559
v 0.684079 0.980000 0.034048
v 0.684523 0.975174 0.039917
v 0.180396 0.954359 0.014359
v 0.175000 0.943175 0.003175
v 0.203768 0.970723 0.035754
v 0.215338 0.972888 0.040000
v 0.215336 0.978979 0.035174
v 0.215336 0.975174 0.038979
v 0.215338 0.980000 0.032888
v 0.203768 0.975754 0.030723
vn -0.7043 -0.1723 -0.6887
vn -0.7454 -0.5385 -0.3930
vn -0.9417 -0.1468 -0.3029
vn 0.3652 -0.1394 -0.9204
vn 0.1645 -0.5435 -0.8232
vn 0.1869 -0.3612 -0.9136
vn 0.6911 -0.1716 -0.7021
vn 0.9392 -0.1463 -0.3106
vn 0.7697 -0.5241 -0.3646
vn 0.7748 -0.5243 0.3533
vn 0.9445 -0.1473 0.2935
vn 0.7128 -0.1711 0.6802
vn -0.7258 -0.1725 0.6660
vn -0.9469 -0.1475 0.2857
vn -0.7765 -0.5254 0.3478
vn -0.3336 -0.5486 0.7667
vn -0.0600 -0.1214 0.9908
vn -0.3428 -0.1678 0.9243
vn -0.7128 0.1711 -0.6802
vn -0.9445 0.1473 -0.2935
vn -0.7748 0.5243 -0.3533
vn 0.7258 0.1725 -0.6660
vn 0.7765 0.5254 -0.3478
vn 0.9469 0.1475 -0.2857
vn 0.5536 0.2381 -0.7980
vn 0.0102 0.0102 -0.9999
vn 0.1021 0.3277 -0.9392
vn 0.7043 0.1723 0.6887
vn 0.9417 0.1468 0.3029
vn 0.7454 0.5385 0.3930
vn -0.7697 0.5241 0.3646
vn -0.9392 0.1463 0.3106
vn -0.6911 0.1716 0.7021
vn -0.3652 0.1394 0.9204
vn -0.1645 0.5435 0.8232
vn -0.3170 0.5529 0.7706
vn 0.1912 -0.6028 0.7747
vn -0.1788 -0.9257 -0.3334
vn -0.5617 -0.7673 -0.3094
vn 0.1913 0.7748 -0.6026
vn -0.5617 -0.3094 -0.7673
vn -0.1788 -0.3334 -0.9257
vn -0.2391 0.7632 -0.6003
vn 0.1860 -0.3267 -0.9266
vn 0.5631 -0.3107 -0.7657
vn -0.2390 -0.6004 0.7632
vn 0.5631 -0.7657 -0.3107
vn 0.1860 -0.9266 -0.3267
vn -0.1913 -0.7746 0.6028
vn 0.1788 0.3334 0.9257
vn 0.5617 0.3094 0.7673
vn 0.5617 0.7673 0.3094
vn 0.1788 0.9257 0.3334
vn -0.1914 0.6025 -0.7748
vn -0.5631 0.3107 0.7657
vn -0.1860 0.3267 0.9266
vn 0.2390 -0.7632 0.6003
vn 0.2390 0.6003 -0.7632
vn -0.1860 0.9266 0.3267
vn -0.5631 0.7657 0.3107
vn -0.4417 -0.1581 -0.8831
vn 0.3170 -0.5529 -0.7706
vn 0.5292 -0.1389 0.8370
vn -0.5292 0.1389 -0.8370
vn 0.3339 0.5549 -0.7620
vn 0.4417 0.1581 0.8831
vn 0.1925 0.3696 0.9090
vn 0.1972 -0.3465 0.9171
vn 0.5649 -0.7524 0.3388
vn 0.5616 -0.2814 0.7781
vn -0.1972 -0.9171 0.3465
vn -0.5649 -0.3388 0.7524
vn -0.5616 -0.7781 0.2814
vn -0.1952 0.3440 -0.9185
vn -0.5681 0.7499 -0.3389
vn -0.2069 0.8803 -0.4270
vn 0.5681 0.3389 -0.7499
vn 0.1952 0.9185 -0.3440
vn 0.5616 0.7781 -0.2814
vn -0.3808 -0.8246 0.4184
vn 0.1742 -0.9619 0.2105
vn 0.3867 -0.8362 0.3889
vn -0.3867 0.8362 -0.3889
vn -0.1741 0.9622 0.2092
vn -0.1742 0.9619 -0.2105
vn 0.3808 0.8246 -0.4184
vn 0.1745 0.9622 -0.2092
vn 0.3824 0.8213 0.4233
vn 0.2607 -0.3952 0.8808
vn 0.2162 -0.2162 -0.9521
vn -0.4131 -0.4131 -0.8116
vn -0.2162 -0.2162 -0.9521
vn 0.9521 -0.2162 0.2162
vn 0.8116 -0.4131 -0.4131
vn 0.9521 -0.2162 -0.2162
vn -0.2162 -0.9521 0.2162
vn -0.4131 -0.8116 -0.4131
vn -0.2162 -0.9521 -0.2162
vn -0.2162 -0.2162 0.9521
vn 0.4131 -0.4131 0.8116
vn 0.2162 -0.2162 0.9521
vn -0.9521 0.2162 0.2162
vn -0.8116 0.4131 -0.4131
vn -0.9521 0.2162 -0.2162
vn -0.2162 0.9521 0.2162
vn 0.4131 0.8116 0.4131
vn 0.2162 0.9521 0.2162
vn 0.2162 0.9521 -0.2162
vn -0.4131 0.8116 -0.4131
vn -0.2162 0.9521 -0.2162
vn 0.4131 0.8116 -0.4131
vn -0.8116 -0.4131 -0.4131
vn -0.9521 -0.2162 -0.2162
vn 0.2162 0.2162 -0.9521
vn 0.4131 -0.4131 -0.8116
vn 0.9521 0.2162 0.2162
vn 0.8116 -0.4131 0.4131
vn -0.2162 0.2162 0.9521
vn -0.4131 -0.4131 0.8116
vn 0.4131 -0.8116 -0.4131
vn 0.4131 -0.8116 0.4131
vn 0.2162 -0.9521 -0.2162
vn -0.9521 -0.2162 0.2162
vn -0.8116 0.4131 0.4131
vn -0.4131 0.4131 0.8116
vn 0.2162 0.2162 0.9521
vn 0.4131 0.4131 0.8116
vn -0.8116 -0.4131 0.4131
vn -0.4131 -0.8116 0.4131
vn 0.2162 -0.9521 0.2162
vn 0.4131 0.4131 -0.8116
vn 0.9710 -0.1696 0.1686
vn 0.8465 -0.3764 -0.3764
vn 0.9707 -0.1699 -0.1699
vn 0.8463 0.3767 0.3767
vn 0.9710 0.1686 -0.1696
vn 0.8465 0.3756 -0.3774
vn -0.5616 0.2814 -0.7781
vn 0.8465 -0.3774 0.3756
vn -0.1978 -0.4244 0.8836
vn -0.1745 -0.9622 0.2092
vn -0.3824 -0.8213 -0.4233
vn -0.1736 -0.9623 -0.2095
vn 0.3807 -0.8248 -0.4181
vn 0.1741 -0.9622 -0.2092
vn -0.1925 -0.3696 -0.9090
vn 0.1736 0.9623 0.2095
vn -0.3807 0.8248 0.4181
vn -0.4131 0.4131 -0.8116
vn -0.2162 0.2162 -0.9521
vn 0.8116 0.4131 -0.4131
vn 0.8116 0.4131 0.4131
vn 0.9521 0.2162 -0.2162
vn -0.4131 0.8116 0.4131
vn -0.8463 -0.3767 -0.3767
vn -0.9710 -0.1686 0.1696
vn -0.9712 -0.1684 -0.1684
vn -0.8465 0.3764 0.3764
vn -0.8465 -0.3756 0.3774
vn -0.9710 0.1696 -0.1686
vn -0.8465 0.3774 -0.3756
vn -0.2607 0.3952 -0.8808
vn 0.3127 0.5361 -0.7841
vn -0.1320 -0.3215 0.9377
vn -0.6303 -0.1835 0.7543
vn -0.1869 0.3611 0.9136
vn 0.1978 -0.8836 0.4244
vn -0.9707 0.1699 0.1699
vn 0.2069 0.4270 -0.8803
vn 0.9712 0.1684 0.1684
s 1
f 3//1 4//2 5//3
f 8//4 10//5 11//6
f 12//7 13//8 14//9
f 17//10 18//11 19//12
f 24//13 25//14 26//15
f 30//16 32//17 33//18
f 34//19 35//20 36//21
f 43//22 44//23 45//24
f 47//25 49//26 50//27
f 53//28 54//29 55//30
f 58//31 59//32 60//33
f 62//34 64//35 61//36
f 307//37 308//38 309//39
f 312//40 313//41 314//42
f 315//43 316//44 317//45
f 320//46 321//47 322//48
f 347//49 348//50 349//51
f 352//52 353//53 354//54
f 357//55 358//56 359//57
f 360//58 361//59 362//60
f 6//61 4//2 3//1
f 12//7 9//62 8//4
f 20//63 17//10 19//12
f 30//16 24//13 26//15
f 36//21 39//64 34//19
f 43//22 46//65 44//23
f 52//66 55//30 51//67
f 60//33 61//36 58//31
f 309//39 312//40 307//37
f 317//45 320//46 315//43
f 326//68 328//69 325//70
f 332//71 334//72 331//73
f 339//74 337//75 338//76
f 345//77 341//78 342//79
f 349//51 354//54 347//49
f 359//57 362//60 357//55
f 18//11 14//9 13//8
f 4//2 25//14 5//3
f 28//80 22//81 23//82
f 38//83 65//84 37//85
f 37//85 42//86 38//83
f 41//87 57//88 42//86
f 5//3 34//19 3//1
f 20//63 51//67 21//89
f 24//13 59//32 25//14
f 73//90 71//91 72//92
f 79//93 75//94 76//95
f 87//96 67//97 68//98
f 89//99 82//100 81//101
f 109//102 92//103 91//104
f 113//105 107//106 108//107
f 97//108 93//109 94//110
f 108//107 98//111 97//108
f 91//104 69//112 70//113
f 101//114 74//115 73//90
f 105//116 80//117 79//93
f 111//118 90//119 89//99
f 126//120 115//98 116//97
f 131//121 125//122 126//120
f 118//112 133//123 117//113
f 137//99 130//100 129//101
f 139//104 158//124 140//103
f 160//125 151//126 152//127
f 142//110 146//111 141//109
f 155//107 146//111 145//108
f 139//104 118//112 117//113
f 149//114 122//115 121//90
f 153//116 128//117 127//93
f 159//118 138//119 137//99
f 174//120 163//98 164//97
f 179//121 173//122 174//120
f 182//128 165//113 166//112
f 184//129 180//130 179//121
f 205//102 188//103 187//104
f 208//125 199//126 200//127
f 193//108 189//109 190//110
f 193//108 204//106 194//111
f 187//104 166//112 165//113
f 197//114 170//115 169//90
f 201//116 176//117 175//93
f 186//99 208//125 185//119
f 217//90 215//91 216//92
f 223//93 219//94 220//95
f 231//96 211//97 212//98
f 225//101 234//119 226//100
f 253//102 236//103 235//104
f 257//105 251//106 252//107
f 238//110 242//111 237//109
f 252//107 242//111 241//108
f 235//104 213//112 214//113
f 217//90 246//131 218//115
f 249//116 224//117 223//93
f 255//118 234//119 233//99
f 265//90 263//91 264//92
f 271//93 267//94 268//95
f 279//96 259//97 260//98
f 273//101 282//119 274//100
f 301//102 284//103 283//104
f 305//105 299//106 300//107
f 289//108 285//109 286//110
f 300//107 290//111 289//108
f 262//113 284//103 261//112
f 293//114 266//115 265//90
f 297//116 272//117 271//93
f 281//99 304//125 282//119
f 314//42 315//43 312//40
f 323//132 318//133 319//134
f 308//38 331//73 309//39
f 337//75 361//59 338//76
f 359//57 348//50 347//49
f 350//135 343//136 344//137
f 340//138 314//42 313//41
f 318//133 343//136 319//134
f 323//132 350//135 324//139
f 358//56 334//72 333//140
f 27//141 1//142 2//143
f 16//144 2//143 1//142
f 23//82 15//145 16//144
f 39//64 7//146 6//61
f 35//20 58//31 36//21
f 43//22 13//8 12//7
f 55//30 45//24 44//23
f 54//29 19//12 18//11
f 56//147 66//148 57//88
f 88//129 83//130 84//121
f 78//120 68//98 67//97
f 84//121 77//122 78//120
f 86//128 70//113 69//112
f 110//124 85//123 86//128
f 96//149 72//92 71//91
f 102//131 95//150 96//149
f 100//151 76//95 75//94
f 106//152 99//153 100//151
f 103//127 81//101 82//100
f 112//125 104//126 103//127
f 114//154 94//110 93//109
f 135//96 116//97 115//98
f 131//121 135//96 132//130
f 134//128 157//102 133//123
f 121//90 119//91 120//92
f 144//149 120//92 119//91
f 144//149 149//114 143//150
f 124//94 147//153 123//95
f 154//152 147//153 148//151
f 123//95 128//117 124//94
f 152//127 129//101 130//100
f 162//154 142//110 141//109
f 161//105 156//106 155//107
f 183//96 164//97 163//98
f 206//124 181//123 182//128
f 168//92 170//115 167//91
f 192//149 168//92 167//91
f 198//131 191//150 192//149
f 172//94 195//153 171//95
f 202//152 195//153 196//151
f 175//93 172//94 171//95
f 186//99 178//100 177//101
f 178//100 199//126 177//101
f 189//109 209//105 190//110
f 209//105 204//106 203//107
f 232//129 227//130 228//121
f 211//97 221//122 212//98
f 228//121 221//122 222//120
f 230//128 214//113 213//112
f 254//124 229//123 230//128
f 240//149 216//92 215//91
f 240//149 245//114 239//150
f 244//151 220//95 219//94
f 250//152 243//153 244//151
f 247//127 225//101 226//100
f 256//125 248//126 247//127
f 258//154 238//110 237//109
f 280//129 275//130 276//121
f 270//120 260//98 259//97
f 276//121 269//122 270//120
f 278//128 262//113 261//112
f 302//124 277//123 278//128
f 288//149 264//92 263//91
f 288//149 293//114 287//150
f 267//94 291//153 268//95
f 298//152 291//153 292//151
f 274//100 296//126 273//101
f 304//125 296//126 295//127
f 306//154 286//110 285//109
f 320//46 308//38 307//37
f 328//69 322//48 321//47
f 311//155 329//156 310//157
f 355//158 329//156 330//159
f 316//44 345//77 317//45
f 335//160 311//155 310//157
f 335//160 355//158 336//161
f 325//70 348//50 326//68
f 353//53 342//79 341//78
f 353//53 360//58 354//54
f 11//6 1//142 7//146
f 1//142 4//2 7//146
f 10//5 16//144 1//142
f 1//142 26//15 4//2
f 1//142 28//80 26//15
f 2//143 22//81 27//141
f 2//143 15//145 22//81
f 5//3 25//14 59//32
f 34//19 6//61 3//1
f 5//3 59//32 35//20
f 34//19 39//64 6//61
f 49//26 8//4 11//6
f 40//162 49//26 7//146
f 9//62 14//9 16//144
f 47//25 8//4 48//163
f 17//10 16//144 14//9
f 47//25 43//22 12//7
f 13//8 54//29 18//11
f 13//8 45//24 54//29
f 17//10 23//82 16//144
f 17//10 21//89 23//82
f 19//12 52//66 20//63
f 19//12 53//28 52//66
f 21//89 28//80 23//82
f 32//17 21//89 51//67
f 31//164 28//80 21//89
f 29//165 60//33 24//13
f 26//15 28//80 30//16
f 32//17 63//166 62//34
f 29//165 62//34 60//33
f 36//21 38//83 40//162
f 36//21 66//148 38//83
f 36//21 58//31 66//148
f 37//85 65//84 56//147
f 42//86 40//162 38//83
f 37//85 56//147 41//87
f 42//86 50//27 40//162
f 42//86 44//23 46//65
f 57//88 44//23 42//86
f 57//88 55//30 44//23
f 57//88 63//166 51//67
f 51//67 55//30 57//88
f 66//148 64//35 57//88
f 58//31 61//36 66//148
f 74//115 67//97 71//91
f 67//97 69//112 71//91
f 74//115 78//120 67//97
f 88//129 69//112 67//97
f 68//98 83//130 87//96
f 68//98 77//122 83//130
f 88//129 86//128 69//112
f 92//103 71//91 69//112
f 70//113 109//102 91//104
f 70//113 85//123 109//102
f 92//103 96//149 71//91
f 72//92 101//114 73//90
f 72//92 95//150 101//114
f 74//115 75//94 78//120
f 102//131 75//94 74//115
f 80//117 78//120 75//94
f 102//131 100//151 75//94
f 76//95 105//116 79//93
f 76//95 99//153 105//116
f 80//117 84//121 78//120
f 80//117 82//100 84//121
f 106//152 82//100 80//117
f 90//119 84//121 82//100
f 106//152 103//127 82//100
f 89//99 81//101 104//126
f 90//119 88//129 84//121
f 112//125 86//128 90//119
f 86//128 88//129 90//119
f 112//125 110//124 86//128
f 89//99 104//126 111//118
f 92//103 93//109 96//149
f 110//124 93//109 92//103
f 110//124 114//154 93//109
f 98//111 96//149 93//109
f 94//110 108//107 97//108
f 94//110 113//105 108//107
f 98//111 102//131 96//149
f 98//111 100//151 102//131
f 107//106 100//151 98//111
f 107//106 106//152 100//151
f 114//154 103//127 107//106
f 103//127 106//152 107//106
f 114//154 112//125 103//127
f 110//124 112//125 114//154
f 119//91 126//120 116//97
f 116//97 118//112 119//91
f 115//98 125//122 132//130
f 116//97 134//128 118//112
f 116//97 136//129 134//128
f 115//98 132//130 135//96
f 117//113 133//123 157//102
f 140//103 119//91 118//112
f 117//113 157//102 139//104
f 140//103 144//149 119//91
f 119//91 122//115 126//120
f 120//92 149//114 121//90
f 120//92 143//150 149//114
f 122//115 124//94 126//120
f 150//131 124//94 122//115
f 124//94 131//121 126//120
f 150//131 148//151 124//94
f 123//95 153//116 127//93
f 123//95 147//153 153//116
f 124//94 128//117 131//121
f 128//117 130//100 131//121
f 154//152 130//100 128//117
f 138//119 131//121 130//100
f 154//152 152//127 130//100
f 137//99 129//101 151//126
f 138//119 136//129 131//121
f 160//125 134//128 138//119
f 134//128 136//129 138//119
f 160//125 158//124 134//128
f 137//99 151//126 159//118
f 140//103 141//109 144//149
f 158//124 141//109 140//103
f 158//124 162//154 141//109
f 146//111 144//149 141//109
f 142//110 155//107 145//108
f 142//110 161//105 155//107
f 146//111 150//131 144//149
f 146//111 148//151 150//131
f 156//106 148//151 146//111
f 156//106 154//152 148//151
f 156//106 160//125 152//127
f 152//127 154//152 156//106
f 156//106 162//154 160//125
f 158//124 160//125 162//154
f 167//91 174//120 164//97
f 164//97 166//112 167//91
f 163//98 173//122 180//130
f 164//97 182//128 166//112
f 164//97 184//129 182//128
f 163//98 180//130 183//96
f 165//113 181//123 205//102
f 188//103 167//91 166//112
f 165//113 205//102 187//104
f 188//103 192//149 167//91
f 167//91 170//115 174//120
f 168//92 197//114 169//90
f 168//92 191//150 197//114
f 170//115 172//94 174//120
f 198//131 172//94 170//115
f 172//94 179//121 174//120
f 198//131 196//151 172//94
f 171//95 201//116 175//93
f 171//95 195//153 201//116
f 172//94 176//117 179//121
f 176//117 178//100 179//121
f 202//152 178//100 176//117
f 178//100 184//129 179//121
f 202//152 200//127 178//100
f 178//100 185//119 184//129
f 186//99 177//101 199//126
f 208//125 182//128 185//119
f 182//128 184//129 185//119
f 208//125 206//124 182//128
f 186//99 199//126 207//118
f 188//103 189//109 192//149
f 206//124 189//109 188//103
f 206//124 210//154 189//109
f 194//111 192//149 189//109
f 190//110 203//107 193//108
f 190//110 209//105 203//107
f 194//111 198//131 192//149
f 194//111 196//151 198//131
f 204//106 196//151 194//111
f 204//106 202//152 196//151
f 204//106 208//125 200//127
f 200//127 202//152 204//106
f 204//106 210//154 208//125
f 206//124 208//125 210//154
f 218//115 211//97 215//91
f 211//97 213//112 215//91
f 218//115 222//120 211//97
f 232//129 213//112 211//97
f 212//98 227//130 231//96
f 212//98 221//122 227//130
f 232//129 230//128 213//112
f 236//103 215//91 213//112
f 214//113 253//102 235//104
f 214//113 229//123 253//102
f 236//103 240//149 215//91
f 216//92 245//114 217//90
f 216//92 239//150 245//114
f 218//115 219//94 222//120
f 246//131 219//94 218//115
f 224//117 222//120 219//94
f 246//131 244//151 219//94
f 220//95 249//116 223//93
f 220//95 243//153 249//116
f 224//117 228//121 222//120
f 224//117 226//100 228//121
f 250//152 226//100 224//117
f 234//119 228//121 226//100
f 250//152 247//127 226//100
f 233//99 225//101 248//126
f 234//119 232//129 228//121
f 256//125 230//128 234//119
f 230//128 232//129 234//119
f 256//125 254//124 230//128
f 233//99 248//126 255//118
f 236//103 237//109 240//149
f 254//124 237//109 236//103
f 254//124 258//154 237//109
f 242//111 240//149 237//109
f 238//110 252//107 241//108
f 238//110 257//105 252//107
f 242//111 246//131 240//149
f 242//111 244//151 246//131
f 251//106 244//151 242//111
f 251//106 250//152 244//151
f 258//154 247//127 251//106
f 247//127 250//152 251//106
f 258//154 256//125 247//127
f 254//124 256//125 258//154
f 266//115 259//97 263//91
f 259//97 261//112 263//91
f 266//115 270//120 259//97
f 280//129 261//112 259//97
f 260//98 275//130 279//96
f 260//98 269//122 275//130
f 280//129 278//128 261//112
f 284//103 263//91 261//112
f 262//113 301//102 283//104
f 262//113 277//123 301//102
f 284//103 288//149 263//91
f 264//92 293//114 265//90
f 264//92 287//150 293//114
f 266//115 267//94 270//120
f 294//131 267//94 266//115
f 272//117 270//120 267//94
f 294//131 292//151 267//94
f 268//95 297//116 271//93
f 268//95 291//153 297//116
f 272//117 276//121 270//120
f 272//117 274//100 276//121
f 298//152 274//100 272//117
f 282//119 276//121 274//100
f 298//152 295//127 274//100
f 281//99 273//101 296//126
f 282//119 280//129 276//121
f 304//125 278//128 282//119
f 278//128 280//129 282//119
f 304//125 302//124 278//128
f 281//99 296//126 303//118
f 284//103 285//109 288//149
f 302//124 285//109 284//103
f 302//124 306//154 285//109
f 290//111 288//149 285//109
f 286//110 300//107 289//108
f 286//110 305//105 300//107
f 290//111 294//131 288//149
f 290//111 292//151 294//131
f 299//106 292//151 290//111
f 299//106 298//152 292//151
f 306//154 295//127 299//106
f 295//127 298//152 299//106
f 306//154 304//125 295//127
f 302//124 304//125 306//154
f 315//43 307//37 312//40
f 309//39 311//155 313//41
f 315//43 320//46 307//37
f 331//73 311//155 309//39
f 308//38 327//167 332//71
f 308//38 322//48 327//167
f 331//73 330//159 311//155
f 311//155 340//138 313//41
f 310//157 356//168 335//160
f 310//157 329//156 356//168
f 311//155 336//161 340//138
f 314//42 339//74 346//169
f 314//42 346//169 316//44
f 317//45 318//133 321//47
f 317//45 344//137 318//133
f 317//45 345//77 344//137
f 324//139 321//47 318//133
f 319//134 343//136 351//170
f 319//134 351//170 323//132
f 324//139 328//69 321//47
f 324//139 325//70 328//69
f 350//135 325//70 324//139
f 333//140 327//167 326//68
f 350//135 349//51 325//70
f 333//140 326//68 348//50
f 333//140 332//71 327//167
f 357//55 330//159 334//72
f 330//159 331//73 334//72
f 357//55 355//158 330//159
f 333//140 348//50 358//56
f 336//161 337//75 340//138
f 336//161 362//60 337//75
f 336//161 355//158 362//60
f 338//76 361//59 353//53
f 338//76 346//169 339//74
f 338//76 341//78 346//169
f 338//76 353//53 341//78
f 342//79 344//137 345//77
f 342//79 350//135 344//137
f 342//79 352//52 350//135
f 354//54 359//57 347//49
f 349//51 350//135 352//52
f 354//54 360//58 359//57
f 355//158 357//55 362//60
f 8//4 9//62 10//5
f 33//18 29//165 30//16
f 30//16 31//164 32//17
f 50//27 46//65 47//25
f 47//25 48//163 49//26
f 62//34 63//166 64//35
f 6//61 7//146 4//2
f 12//7 14//9 9//62
f 20//63 21//89 17//10
f 30//16 29//165 24//13
f 36//21 40//162 39//64
f 43//22 47//25 46//65
f 52//66 53//28 55//30
f 60//33 62//34 61//36
f 309//39 313//41 312//40
f 317//45 321//47 320//46
f 326//68 327//167 328//69
f 332//71 333//140 334//72
f 339//74 340//138 337//75
f 345//77 346//169 341//78
f 349//51 352//52 354//54
f 359//57 360//58 362//60
f 18//11 17//10 14//9
f 4//2 26//15 25//14
f 28//80 27//141 22//81
f 38//83 66//148 65//84
f 37//85 41//87 42//86
f 41//87 56//147 57//88
f 5//3 35//20 34//19
f 20//63 52//66 51//67
f 24//13 60//33 59//32
f 73//90 74//115 71//91
f 79//93 80//117 75//94
f 87//96 88//129 67//97
f 89//99 90//119 82//100
f 109//102 110//124 92//103
f 113//105 114//154 107//106
f 97//108 98//111 93//109
f 108//107 107//106 98//111
f 91//104 92//103 69//112
f 101//114 102//131 74//115
f 105//116 106//152 80//117
f 111//118 112//125 90//119
f 126//120 125//122 115//98
f 131//121 132//130 125//122
f 118//112 134//128 133//123
f 137//99 138//119 130//100
f 139//104 157//102 158//124
f 160//125 159//118 151//126
f 142//110 145//108 146//111
f 155//107 156//106 146//111
f 139//104 140//103 118//112
f 149//114 150//131 122//115
f 153//116 154//152 128//117
f 159//118 160//125 138//119
f 174//120 173//122 163//98
f 179//121 180//130 173//122
f 182//128 181//123 165//113
f 184//129 183//96 180//130
f 205//102 206//124 188//103
f 208//125 207//118 199//126
f 193//108 194//111 189//109
f 193//108 203//107 204//106
f 187//104 188//103 166//112
f 197//114 198//131 170//115
f 201//116 202//152 176//117
f 186//99 207//118 208//125
f 217//90 218//115 215//91
f 223//93 224//117 219//94
f 231//96 232//129 211//97
f 225//101 233//99 234//119
f 253//102 254//124 236//103
f 257//105 258//154 251//106
f 238//110 241//108 242//111
f 252//107 251//106 242//111
f 235//104 236//103 213//112
f 217//90 245//114 246//131
f 249//116 250//152 224//117
f 255//118 256//125 234//119
f 265//90 266//115 263//91
f 271//93 272//117 267//94
f 279//96 280//129 259//97
f 273//101 281//99 282//119
f 301//102 302//124 284//103
f 305//105 306//154 299//106
f 289//108 290//111 285//109
f 300//107 299//106 290//111
f 262//113 283//104 284//103
f 293//114 294//131 266//115
f 297//116 298//152 272//117
f 281//99 303//118 304//125
f 314//42 316//44 315//43
f 323//132 324//139 318//133
f 308//38 332//71 331//73
f 337//75 362//60 361//59
f 359//57 358//56 348//50
f 350//135 351//170 343//136
f 340//138 339//74 314//42
f 318//133 344//137 343//136
f 323//132 351//170 350//135
f 358//56 357//55 334//72
f 27//141 28//80 1//142
f 16//144 15//145 2//143
f 23//82 22//81 15//145
f 39//64 40//162 7//146
f 35//20 59//32 58//31
f 43//22 45//24 13//8
f 55//30 54//29 45//24
f 54//29 53//28 19//12
f 56//147 65//84 66//148
f 88//129 87//96 83//130
f 78//120 77//122 68//98
f 84//121 83//130 77//122
f 86//128 85//123 70//113
f 110//124 109//102 85//123
f 96//149 95//150 72//92
f 102//131 101//114 95//150
f 100//151 99//153 76//95
f 106//152 105//116 99//153
f 103//127 104//126 81//101
f 112//125 111//118 104//126
f 114//154 113//105 94//110
f 135//96 136//129 116//97
f 131//121 136//129 135//96
f 134//128 158//124 157//102
f 121//90 122//115 119//91
f 144//149 143//150 120//92
f 144//149 150//131 149//114
f 124//94 148//151 147//153
f 154//152 153//116 147//153
f 123//95 127//93 128//117
f 152//127 151//126 129//101
f 162//154 161//105 142//110
f 161//105 162//154 156//106
f 183//96 184//129 164//97
f 206//124 205//102 181//123
f 168//92 169//90 170//115
f 192//149 191//150 168//92
f 198//131 197//114 191//150
f 172//94 196//151 195//153
f 202//152 201//116 195//153
f 175//93 176//117 172//94
f 186//99 185//119 178//100
f 178//100 200//127 199//126
f 189//109 210//154 209//105
f 209//105 210//154 204//106
f 232//129 231//96 227//130
f 211//97 222//120 221//122
f 228//121 227//130 221//122
f 230//128 229//123 214//113
f 254//124 253//102 229//123
f 240//149 239//150 216//92
f 240//149 246//131 245//114
f 244//151 243//153 220//95
f 250//152 249//116 243//153
f 247//127 248//126 225//101
f 256//125 255//118 248//126
f 258//154 257//105 238//110
f 280//129 279//96 275//130
f 270//120 269//122 260//98
f 276//121 275//130 269//122
f 278//128 277//123 262//113
f 302//124 301//102 277//123
f 288//149 287//150 264//92
f 288//149 294//131 293//114
f 267//94 292//151 291//153
f 298//152 297//116 291//153
f 274//100 295//127 296//126
f 304//125 303//118 296//126
f 306//154 305//105 286//110
f 320//46 322//48 308//38
f 328//69 327//167 322//48
f 311//155 330//159 329//156
f 355//158 356//168 329//156
f 316//44 346//169 345//77
f 335//160 336//161 311//155
f 335//160 356//168 355//158
f 325//70 349//51 348//50
f 353//53 352//52 342//79
f 353//53 361//59 360//58
f 11//6 10//5 1//142
f 10//5 9//62 16//144
f 11//6 7//146 49//26
f 49//26 48//163 8//4
f 40//162 50//27 49//26
f 47//25 12//7 8//4
f 32//17 31//164 21//89
f 31//164 30//16 28//80
f 62//34 33//18 32//17
f 32//17 51//67 63//166
f 29//165 33//18 62//34
f 42//86 46//65 50//27
f 57//88 64//35 63//166
f 66//148 61//36 64//35
