# Blender 5.2.0 LTS
# www.blender.org
o unit_outcast_sky_eye
v 0.000000 0.750000 0.000000
v 0.000000 0.350000 0.000000
v 0.063038 0.715959 -0.086764
v 0.052830 0.725917 -0.072714
v 0.058284 0.721877 -0.080221
v 0.107704 0.650000 -0.132010
v 0.092266 0.650000 -0.143226
v 0.097651 0.657071 -0.134405
v 0.100740 0.650000 -0.138657
v 0.123454 0.550000 -0.153687
v 0.108016 0.550000 -0.164904
v 0.116490 0.550000 -0.160334
v 0.092266 0.450000 -0.143226
v 0.107704 0.450000 -0.132010
v 0.097651 0.442929 -0.134405
v 0.100740 0.450000 -0.138657
v 0.052830 0.374083 -0.072714
v 0.063038 0.384041 -0.086764
v 0.058284 0.378123 -0.080221
v 0.085480 0.725917 -0.027774
v 0.101997 0.715959 -0.033141
v 0.094305 0.721877 -0.030642
v 0.164728 0.650000 -0.043491
v 0.158831 0.650000 -0.061639
v 0.158003 0.657071 -0.051338
v 0.163001 0.650000 -0.052962
v 0.190211 0.550000 -0.051771
v 0.184315 0.550000 -0.069920
v 0.188484 0.550000 -0.061242
v 0.158831 0.450000 -0.061639
v 0.164728 0.450000 -0.043491
v 0.158003 0.442929 -0.051338
v 0.163001 0.450000 -0.052962
v 0.101997 0.384041 -0.033141
v 0.085480 0.374083 -0.027774
v 0.094305 0.378123 -0.030642
v 0.085480 0.725917 0.027774
v 0.101997 0.715959 0.033141
v 0.094305 0.721877 0.030642
v 0.158831 0.650000 0.061639
v 0.164728 0.650000 0.043491
v 0.158003 0.657071 0.051338
v 0.163001 0.650000 0.052962
v 0.184315 0.550000 0.069920
v 0.190211 0.550000 0.051771
v 0.188484 0.550000 0.061242
v 0.164728 0.450000 0.043491
v 0.158831 0.450000 0.061639
v 0.158003 0.442929 0.051338
v 0.163001 0.450000 0.052962
v 0.101997 0.384041 0.033141
v 0.085480 0.374083 0.027774
v 0.094305 0.378123 0.030642
v 0.052830 0.725917 0.072714
v 0.063038 0.715959 0.086764
v 0.058284 0.721877 0.080221
v 0.092266 0.650000 0.143226
v 0.107704 0.650000 0.132010
v 0.097651 0.657071 0.134405
v 0.100740 0.650000 0.138657
v 0.108016 0.550000 0.164903
v 0.123454 0.550000 0.153687
v 0.116490 0.550000 0.160334
v 0.107704 0.450000 0.132010
v 0.092266 0.450000 0.143226
v 0.097651 0.442929 0.134405
v 0.100740 0.450000 0.138657
v 0.063038 0.384041 0.086764
v 0.052830 0.374083 0.072714
v 0.058284 0.378123 0.080221
v 0.000000 0.725917 0.089879
v 0.000000 0.715959 0.107246
v 0.000000 0.721877 0.099158
v -0.009541 0.650000 0.170105
v 0.009541 0.650000 0.170105
v 0.000000 0.657071 0.166134
v 0.000000 0.650000 0.171389
v -0.009541 0.550000 0.196900
v 0.009541 0.550000 0.196900
v 0.000000 0.550000 0.198184
v 0.009541 0.450000 0.170105
v -0.009541 0.450000 0.170105
v 0.000000 0.442929 0.166134
v 0.000000 0.450000 0.171389
v 0.000000 0.384041 0.107246
v 0.000000 0.374083 0.089879
v 0.000000 0.378123 0.099158
v -0.052830 0.725917 0.072714
v -0.063038 0.715959 0.086764
v -0.058284 0.721877 0.080221
v -0.107704 0.650000 0.132010
v -0.092266 0.650000 0.143226
v -0.097651 0.657071 0.134405
v -0.100740 0.650000 0.138657
v -0.123454 0.550000 0.153687
v -0.108016 0.550000 0.164904
v -0.116490 0.550000 0.160334
v -0.092266 0.450000 0.143226
v -0.107704 0.450000 0.132010
v -0.097651 0.442929 0.134405
v -0.100740 0.450000 0.138657
v -0.063038 0.384041 0.086764
v -0.052830 0.374083 0.072714
v -0.058284 0.378123 0.080221
v -0.085480 0.725917 0.027774
v -0.101997 0.715959 0.033141
v -0.094305 0.721877 0.030642
v -0.164728 0.650000 0.043491
v -0.158831 0.650000 0.061639
v -0.158003 0.657071 0.051338
v -0.163001 0.650000 0.052962
v -0.190211 0.550000 0.051771
v -0.184315 0.550000 0.069920
v -0.188484 0.550000 0.061242
v -0.158831 0.450000 0.061640
v -0.164728 0.450000 0.043491
v -0.158003 0.442929 0.051338
v -0.163001 0.450000 0.052962
v -0.101997 0.384041 0.033141
v -0.085480 0.374083 0.027774
v -0.094305 0.378123 0.030642
v -0.085480 0.725917 -0.027774
v -0.101997 0.715959 -0.033141
v -0.094305 0.721877 -0.030642
v -0.158831 0.650000 -0.061639
v -0.164728 0.650000 -0.043491
v -0.158003 0.657071 -0.051338
v -0.163001 0.650000 -0.052962
v -0.184315 0.550000 -0.069920
v -0.190211 0.550000 -0.051771
v -0.188484 0.550000 -0.061242
v -0.164728 0.450000 -0.043491
v -0.158831 0.450000 -0.061639
v -0.158003 0.442929 -0.051338
v -0.163001 0.450000 -0.052962
v -0.101997 0.384041 -0.033141
v -0.085480 0.374083 -0.027774
v -0.094305 0.378123 -0.030642
v -0.052830 0.725917 -0.072714
v -0.063038 0.715959 -0.086764
v -0.058284 0.721877 -0.080221
v -0.092266 0.650000 -0.143226
v -0.107704 0.650000 -0.132010
v -0.097651 0.657071 -0.134405
v -0.100740 0.650000 -0.138657
v -0.108016 0.550000 -0.164903
v -0.123454 0.550000 -0.153687
v -0.116490 0.550000 -0.160334
v -0.107704 0.450000 -0.132010
v -0.092266 0.450000 -0.143226
v -0.097651 0.442929 -0.134405
v -0.100740 0.450000 -0.138657
v -0.063038 0.384041 -0.086764
v -0.052830 0.374083 -0.072714
v -0.058284 0.378123 -0.080221
v -0.000000 0.725917 -0.089879
v -0.000000 0.715959 -0.107246
v -0.000000 0.721877 -0.099158
v 0.009541 0.650000 -0.170105
v -0.009541 0.650000 -0.170105
v -0.000000 0.657071 -0.166134
v -0.000000 0.650000 -0.171389
v 0.009541 0.550000 -0.196900
v -0.009541 0.550000 -0.196900
v -0.000000 0.550000 -0.198184
v -0.009541 0.450000 -0.170105
v 0.009541 0.450000 -0.170105
v -0.000000 0.442929 -0.166134
v -0.000000 0.450000 -0.171389
v -0.000000 0.384041 -0.107246
v -0.000000 0.374083 -0.089879
v -0.000000 0.378123 -0.099158
v 0.000000 0.607639 0.200000
v -0.008112 0.612863 0.209949
v 0.008112 0.612863 0.209949
v -0.005736 0.611729 0.202914
v -0.000000 0.614371 0.204205
v -0.000000 0.615423 0.209949
v 0.005736 0.611729 0.202914
v 0.000000 0.587639 0.360000
v 0.008112 0.595350 0.350051
v -0.008112 0.595350 0.350051
v 0.005736 0.592458 0.357086
v -0.000000 0.595423 0.355795
v -0.000000 0.597910 0.350051
v -0.005736 0.592458 0.357086
v 0.026287 0.588541 0.200000
v 0.028748 0.597870 0.209949
v 0.033761 0.582440 0.209949
v 0.028404 0.595260 0.202914
v 0.032689 0.590621 0.204205
v 0.033689 0.590946 0.209949
v 0.031949 0.584350 0.202914
v 0.007265 0.582361 0.360000
v 0.017106 0.577029 0.350051
v 0.012092 0.592458 0.350051
v 0.013621 0.578394 0.357086
v 0.014668 0.584766 0.355795
v 0.017034 0.585535 0.350051
v 0.010076 0.589305 0.357086
v 0.016246 0.557639 0.200000
v 0.025879 0.558181 0.209949
v 0.012754 0.548645 0.209949
v 0.023290 0.557702 0.202914
v 0.020203 0.552193 0.204205
v 0.020821 0.551342 0.209949
v 0.014010 0.550959 0.202914
v 0.004490 0.573820 0.360000
v 0.002460 0.562814 0.350051
v 0.015585 0.572349 0.350051
v 0.002682 0.566550 0.357086
v 0.009065 0.567523 0.355795
v 0.010527 0.565510 0.350051
v 0.011963 0.573293 0.357086
v -0.016246 0.557639 0.200000
v -0.012754 0.548645 0.209949
v -0.025879 0.558181 0.209949
v -0.014010 0.550959 0.202914
v -0.020203 0.552193 0.204205
v -0.020821 0.551342 0.209949
v -0.023290 0.557702 0.202914
v -0.004490 0.573820 0.360000
v -0.015585 0.572349 0.350051
v -0.002460 0.562813 0.350051
v -0.011963 0.573293 0.357086
v -0.009065 0.567523 0.355795
v -0.010527 0.565510 0.350051
v -0.002682 0.566550 0.357086
v -0.026287 0.588541 0.200000
v -0.033761 0.582440 0.209949
v -0.028748 0.597870 0.209949
v -0.031949 0.584350 0.202914
v -0.032689 0.590621 0.204205
v -0.033689 0.590946 0.209949
v -0.028404 0.595260 0.202914
v -0.007265 0.582361 0.360000
v -0.012092 0.592458 0.350051
v -0.017106 0.577029 0.350051
v -0.010076 0.589305 0.357086
v -0.014668 0.584766 0.355795
v -0.017034 0.585535 0.350051
v -0.013621 0.578395 0.357086
v -0.656090 0.480000 0.029769
v -0.654011 0.490000 0.039550
v -0.665872 0.490000 0.031848
v -0.654620 0.482929 0.036685
v -0.660537 0.484226 0.036617
v -0.661537 0.490000 0.038156
v -0.663007 0.482929 0.031239
v -0.654011 0.670000 0.039550
v -0.656090 0.680000 0.029769
v -0.665872 0.670000 0.031848
v -0.654620 0.677071 0.036685
v -0.660537 0.675774 0.036617
v -0.663007 0.677071 0.031239
v -0.661537 0.670000 0.038156
v -0.662328 0.480000 0.000424
v -0.672109 0.490000 0.002504
v -0.664407 0.490000 -0.009357
v -0.669244 0.482929 0.001895
v -0.669176 0.484226 -0.004023
v -0.670714 0.490000 -0.005022
v -0.663798 0.482929 -0.006492
v -0.662328 0.680000 0.000424
v -0.664407 0.670000 -0.009357
v -0.672109 0.670000 0.002504
v -0.663798 0.677071 -0.006492
v -0.669176 0.675774 -0.004023
v -0.670714 0.670000 -0.005022
v -0.669244 0.677071 0.001895
v -0.137672 0.480000 -0.080424
v -0.127891 0.490000 -0.082503
v -0.135593 0.490000 -0.070643
v -0.130756 0.482929 -0.081895
v -0.130824 0.484226 -0.075977
v -0.129285 0.490000 -0.074978
v -0.136202 0.482929 -0.073508
v -0.137672 0.680000 -0.080424
v -0.135593 0.670000 -0.070643
v -0.127891 0.670000 -0.082503
v -0.136202 0.677071 -0.073508
v -0.130824 0.675774 -0.075977
v -0.129285 0.670000 -0.074978
v -0.130756 0.677071 -0.081895
v -0.143910 0.480000 -0.109769
v -0.145989 0.490000 -0.119550
v -0.134128 0.490000 -0.111848
v -0.145380 0.482929 -0.116685
v -0.139463 0.484226 -0.116617
v -0.138463 0.490000 -0.118156
v -0.136993 0.482929 -0.111239
v -0.143910 0.680000 -0.109769
v -0.134128 0.670000 -0.111848
v -0.145989 0.670000 -0.119550
v -0.136993 0.677071 -0.111239
v -0.139463 0.675774 -0.116617
v -0.138463 0.670000 -0.118156
v -0.145380 0.677071 -0.116685
v 0.137672 0.480000 -0.080424
v 0.135593 0.490000 -0.070643
v 0.127891 0.490000 -0.082503
v 0.136202 0.482929 -0.073508
v 0.130824 0.484226 -0.075977
v 0.129285 0.490000 -0.074978
v 0.130756 0.482929 -0.081895
v 0.135593 0.670000 -0.070643
v 0.137672 0.680000 -0.080424
v 0.127891 0.670000 -0.082503
v 0.136202 0.677071 -0.073508
v 0.130824 0.675774 -0.075977
v 0.130756 0.677071 -0.081895
v 0.129285 0.670000 -0.074978
v 0.143910 0.480000 -0.109769
v 0.134128 0.490000 -0.111848
v 0.145989 0.490000 -0.119550
v 0.136993 0.482929 -0.111239
v 0.139463 0.484226 -0.116617
v 0.138463 0.490000 -0.118156
v 0.145380 0.482929 -0.116685
v 0.143910 0.680000 -0.109769
v 0.145989 0.670000 -0.119550
v 0.134128 0.670000 -0.111848
v 0.145380 0.677071 -0.116685
v 0.139463 0.675774 -0.116617
v 0.138463 0.670000 -0.118156
v 0.136993 0.677071 -0.111239
v 0.656090 0.480000 0.029769
v 0.665872 0.490000 0.031848
v 0.654011 0.490000 0.039550
v 0.663007 0.482929 0.031239
v 0.660537 0.484226 0.036617
v 0.661537 0.490000 0.038156
v 0.654620 0.482929 0.036685
v 0.656090 0.680000 0.029769
v 0.654011 0.670000 0.039550
v 0.665872 0.670000 0.031848
v 0.654620 0.677071 0.036685
v 0.660537 0.675774 0.036617
v 0.661537 0.670000 0.038156
v 0.663007 0.677071 0.031239
v 0.662328 0.480000 0.000424
v 0.664407 0.490000 -0.009357
v 0.672109 0.490000 0.002504
v 0.663798 0.482929 -0.006492
v 0.669176 0.484226 -0.004023
v 0.670714 0.490000 -0.005022
v 0.669244 0.482929 0.001895
v 0.662328 0.680000 0.000424
v 0.672109 0.670000 0.002504
v 0.664407 0.670000 -0.009357
v 0.669244 0.677071 0.001895
v 0.669176 0.675774 -0.004023
v 0.670714 0.670000 -0.005022
v 0.663798 0.677071 -0.006492
v -0.050000 0.095000 -0.027639
v -0.058090 0.105000 -0.034122
v -0.041910 0.105000 -0.034122
v -0.055721 0.097929 -0.032098
v -0.050000 0.099226 -0.034904
v -0.050000 0.105000 -0.036682
v -0.044279 0.097929 -0.032098
v -0.050000 0.345000 -0.027639
v -0.041910 0.335000 -0.034122
v -0.058090 0.335000 -0.034122
v -0.044279 0.342071 -0.032098
v -0.050000 0.340773 -0.034904
v -0.050000 0.335000 -0.036682
v -0.055721 0.342071 -0.032098
v -0.042735 0.095000 -0.022361
v -0.039069 0.105000 -0.032058
v -0.034069 0.105000 -0.016670
v -0.040262 0.097929 -0.029179
v -0.035826 0.099226 -0.024605
v -0.034134 0.105000 -0.025155
v -0.036726 0.097929 -0.018298
v -0.042735 0.345000 -0.022361
v -0.034069 0.335000 -0.016670
v -0.039069 0.335000 -0.032058
v -0.036726 0.342071 -0.018298
v -0.035826 0.340773 -0.024605
v -0.034134 0.335000 -0.025155
v -0.040262 0.342071 -0.029179
v -0.045510 0.095000 -0.013820
v -0.035154 0.105000 -0.013330
v -0.048244 0.105000 -0.003820
v -0.038261 0.097929 -0.013575
v -0.041240 0.099226 -0.007943
v -0.040194 0.105000 -0.006504
v -0.047517 0.097929 -0.006850
v -0.045510 0.345000 -0.013820
v -0.048244 0.335000 -0.003820
v -0.035154 0.335000 -0.013330
v -0.047517 0.342071 -0.006850
v -0.041240 0.340773 -0.007943
v -0.040195 0.335000 -0.006504
v -0.038261 0.342071 -0.013575
v -0.054490 0.095000 -0.013820
v -0.051756 0.105000 -0.003820
v -0.064846 0.105000 -0.013330
v -0.052483 0.097929 -0.006850
v -0.058760 0.099226 -0.007943
v -0.059806 0.105000 -0.006504
v -0.061739 0.097929 -0.013575
v -0.054490 0.345000 -0.013820
v -0.064846 0.335000 -0.013330
v -0.051756 0.335000 -0.003820
v -0.061739 0.342071 -0.013575
v -0.058760 0.340773 -0.007943
v -0.059806 0.335000 -0.006504
v -0.052483 0.342071 -0.006850
v -0.057265 0.095000 -0.022361
v -0.065931 0.105000 -0.016670
v -0.060931 0.105000 -0.032058
v -0.063274 0.097929 -0.018298
v -0.064174 0.099226 -0.024605
v -0.065866 0.105000 -0.025155
v -0.059738 0.097929 -0.029179
v -0.057265 0.345000 -0.022361
v -0.060931 0.335000 -0.032058
v -0.065931 0.335000 -0.016670
v -0.059738 0.342071 -0.029179
v -0.064174 0.340773 -0.024605
v -0.065866 0.335000 -0.025155
v -0.063274 0.342071 -0.018298
v 0.050000 0.095000 -0.027639
v 0.041910 0.105000 -0.034122
v 0.058090 0.105000 -0.034122
v 0.044279 0.097929 -0.032098
v 0.050000 0.099226 -0.034904
v 0.050000 0.105000 -0.036682
v 0.055721 0.097929 -0.032098
v 0.050000 0.345000 -0.027639
v 0.058090 0.335000 -0.034122
v 0.041910 0.335000 -0.034122
v 0.055721 0.342071 -0.032098
v 0.050000 0.340773 -0.034904
v 0.050000 0.335000 -0.036682
v 0.044279 0.342071 -0.032098
v 0.057265 0.095000 -0.022361
v 0.060931 0.105000 -0.032058
v 0.065931 0.105000 -0.016670
v 0.059738 0.097929 -0.029179
v 0.064174 0.099226 -0.024605
v 0.065866 0.105000 -0.025155
v 0.063274 0.097929 -0.018298
v 0.057265 0.345000 -0.022361
v 0.065931 0.335000 -0.016670
v 0.060931 0.335000 -0.032058
v 0.063274 0.342071 -0.018298
v 0.064174 0.340773 -0.024605
v 0.065866 0.335000 -0.025155
v 0.059738 0.342071 -0.029179
v 0.054490 0.095000 -0.013820
v 0.064846 0.105000 -0.013330
v 0.051756 0.105000 -0.003820
v 0.061739 0.097929 -0.013575
v 0.058760 0.099226 -0.007943
v 0.059806 0.105000 -0.006504
v 0.052483 0.097929 -0.006850
v 0.054490 0.345000 -0.013820
v 0.051756 0.335000 -0.003820
v 0.064846 0.335000 -0.013330
v 0.052483 0.342071 -0.006850
v 0.058760 0.340773 -0.007943
v 0.059806 0.335000 -0.006504
v 0.061739 0.342071 -0.013575
v 0.045510 0.095000 -0.013820
v 0.048244 0.105000 -0.003820
v 0.035154 0.105000 -0.013330
v 0.047517 0.097929 -0.006850
v 0.041240 0.099226 -0.007943
v 0.040195 0.105000 -0.006504
v 0.038261 0.097929 -0.013575
v 0.045510 0.345000 -0.013820
v 0.035154 0.335000 -0.013330
v 0.048244 0.335000 -0.003820
v 0.038261 0.342071 -0.013575
v 0.041240 0.340773 -0.007943
v 0.040194 0.335000 -0.006504
v 0.047517 0.342071 -0.006850
v 0.042735 0.095000 -0.022361
v 0.034069 0.105000 -0.016670
v 0.039069 0.105000 -0.032058
v 0.036726 0.097929 -0.018298
v 0.035826 0.099226 -0.024605
v 0.034134 0.105000 -0.025155
v 0.040262 0.097929 -0.029179
v 0.042735 0.345000 -0.022361
v 0.039069 0.335000 -0.032058
v 0.034069 0.335000 -0.016670
v 0.040262 0.342071 -0.029179
v 0.035826 0.340773 -0.024605
v 0.034134 0.335000 -0.025155
v 0.036726 0.342071 -0.018298
vn 0.6764 0.4674 -0.5692
vn 0.5309 0.4293 -0.7307
vn 0.4325 0.6771 -0.5953
vn 0.3323 0.4674 -0.8192
vn 0.3323 -0.4674 -0.8192
vn 0.5309 -0.4293 -0.7307
vn 0.4325 -0.6771 -0.5953
vn 0.6764 -0.4674 -0.5692
vn 0.8818 0.4674 -0.0629
vn 0.8590 0.4293 -0.2791
vn 0.6998 0.6771 -0.2274
vn 0.7504 0.4674 -0.4674
vn 0.7504 -0.4674 -0.4674
vn 0.8590 -0.4293 -0.2791
vn 0.6998 -0.6771 -0.2274
vn 0.8818 -0.4674 -0.0629
vn 0.7504 0.4674 0.4674
vn 0.8590 0.4293 0.2791
vn 0.6998 0.6771 0.2274
vn 0.8818 0.4674 0.0629
vn 0.8818 -0.4674 0.0629
vn 0.8590 -0.4293 0.2791
vn 0.6998 -0.6771 0.2274
vn 0.7504 -0.4674 0.4674
vn 0.3323 0.4674 0.8192
vn 0.5309 0.4293 0.7307
vn 0.4325 0.6771 0.5953
vn 0.6764 0.4674 0.5692
vn 0.6764 -0.4674 0.5692
vn 0.5309 -0.4293 0.7307
vn 0.4325 -0.6771 0.5953
vn 0.3323 -0.4674 0.8192
vn -0.2126 0.4674 0.8581
vn -0.0000 0.4293 0.9032
vn -0.0000 0.6771 0.7358
vn 0.2126 0.4674 0.8581
vn 0.2126 -0.4674 0.8581
vn -0.0000 -0.4293 0.9032
vn -0.0000 -0.6771 0.7358
vn -0.2126 -0.4674 0.8581
vn -0.6764 0.4674 0.5692
vn -0.5309 0.4293 0.7307
vn -0.4325 0.6771 0.5953
vn -0.3323 0.4674 0.8192
vn -0.3323 -0.4674 0.8192
vn -0.5309 -0.4293 0.7307
vn -0.4325 -0.6771 0.5953
vn -0.6764 -0.4674 0.5692
vn -0.8818 0.4674 0.0629
vn -0.8590 0.4293 0.2791
vn -0.6998 0.6771 0.2274
vn -0.7504 0.4674 0.4674
vn -0.7504 -0.4674 0.4674
vn -0.8590 -0.4293 0.2791
vn -0.6998 -0.6771 0.2274
vn -0.8818 -0.4674 0.0629
vn -0.7504 0.4674 -0.4674
vn -0.8590 0.4293 -0.2791
vn -0.6998 0.6771 -0.2274
vn -0.8818 0.4674 -0.0629
vn -0.8818 -0.4674 -0.0629
vn -0.8590 -0.4293 -0.2791
vn -0.6998 -0.6771 -0.2274
vn -0.7504 -0.4674 -0.4674
vn -0.3323 0.4674 -0.8192
vn -0.5309 0.4293 -0.7307
vn -0.4325 0.6771 -0.5953
vn -0.6764 0.4674 -0.5692
vn -0.6764 -0.4674 -0.5692
vn -0.5309 -0.4293 -0.7307
vn -0.4325 -0.6771 -0.5953
vn -0.3323 -0.4674 -0.8192
vn 0.2126 0.4674 -0.8581
vn -0.0000 0.4293 -0.9032
vn -0.0000 0.6771 -0.7358
vn -0.2126 0.4674 -0.8581
vn -0.2126 -0.4674 -0.8581
vn -0.0000 -0.4293 -0.9032
vn -0.0000 -0.6771 -0.7358
vn 0.2126 -0.4674 -0.8581
vn -0.0000 0.2916 -0.9566
vn -0.0000 0.5298 -0.8481
vn 0.1659 0.4073 -0.8981
vn -0.4620 0.8831 -0.0825
vn -0.3232 0.9217 -0.2143
vn -0.4527 0.8436 -0.2888
vn 0.4620 0.8831 -0.0825
vn 0.3232 0.9217 -0.2143
vn -0.0000 0.9996 -0.0275
vn -0.0000 0.2614 0.9652
vn -0.0000 0.4753 0.8798
vn -0.1485 0.3763 0.9145
vn 0.4450 0.8508 0.2797
vn 0.3020 0.8579 0.4156
vn 0.4275 0.7762 0.4635
vn -0.4450 0.8507 0.2797
vn -0.3020 0.8579 0.4156
vn -0.0000 0.9665 0.2567
vn 0.2773 0.0901 -0.9566
vn 0.5038 0.1637 -0.8481
vn 0.4386 -0.0319 -0.8981
vn 0.6971 0.7122 -0.0825
vn 0.7768 0.5922 -0.2143
vn 0.6624 0.6913 -0.2888
vn 0.9826 -0.1665 -0.0825
vn 0.9765 -0.0225 -0.2143
vn 0.9507 0.3089 -0.0275
vn 0.2486 0.0808 0.9652
vn 0.4521 0.1469 0.8798
vn 0.3120 0.2575 0.9145
vn 0.9466 -0.1603 0.2797
vn 0.9093 -0.0221 0.4156
vn 0.8703 -0.1667 0.4635
vn 0.6716 0.6861 0.2797
vn 0.7226 0.5523 0.4156
vn 0.9192 0.2987 0.2567
vn 0.1714 -0.2359 -0.9566
vn 0.3114 -0.4286 -0.8481
vn 0.1052 -0.4270 -0.8981
vn 0.8928 -0.4429 -0.0825
vn 0.8033 -0.5557 -0.2143
vn 0.8621 -0.4163 -0.2888
vn 0.1453 -0.9859 -0.0825
vn 0.2803 -0.9357 -0.2143
vn 0.5876 -0.8087 -0.0275
vn 0.1536 -0.2115 0.9652
vn 0.2794 -0.3846 0.8798
vn 0.3413 -0.2172 0.9145
vn 0.1401 -0.9498 0.2797
vn 0.2600 -0.8716 0.4156
vn 0.1104 -0.8792 0.4635
vn 0.8600 -0.4267 0.2797
vn 0.7486 -0.5166 0.4156
vn 0.5681 -0.7819 0.2567
vn -0.1714 -0.2359 -0.9566
vn -0.3114 -0.4286 -0.8481
vn -0.3736 -0.2320 -0.8981
vn -0.1453 -0.9859 -0.0825
vn -0.2803 -0.9357 -0.2143
vn -0.1296 -0.9486 -0.2888
vn -0.8928 -0.4429 -0.0825
vn -0.8033 -0.5557 -0.2143
vn -0.5876 -0.8087 -0.0275
vn -0.1536 -0.2115 0.9652
vn -0.2794 -0.3845 0.8798
vn -0.1011 -0.3917 0.9145
vn -0.8600 -0.4267 0.2797
vn -0.7486 -0.5166 0.4156
vn -0.8021 -0.3767 0.4635
vn -0.1401 -0.9498 0.2797
vn -0.2600 -0.8716 0.4156
vn -0.5681 -0.7819 0.2567
vn -0.2773 0.0901 -0.9566
vn -0.5038 0.1637 -0.8481
vn -0.3361 0.2836 -0.8981
vn -0.9826 -0.1665 -0.0825
vn -0.9765 -0.0225 -0.2143
vn -0.9422 -0.1699 -0.2888
vn -0.6971 0.7122 -0.0825
vn -0.7768 0.5922 -0.2143
vn -0.9507 0.3089 -0.0275
vn -0.2486 0.0808 0.9652
vn -0.4521 0.1469 0.8798
vn -0.4038 -0.0249 0.9145
vn -0.6716 0.6861 0.2797
vn -0.7226 0.5523 0.4156
vn -0.6061 0.6464 0.4635
vn -0.9466 -0.1603 0.2797
vn -0.9093 -0.0221 0.4156
vn -0.9192 0.2987 0.2567
vn -0.1382 -0.9673 0.2128
vn -0.2504 -0.8881 0.3855
vn -0.3423 -0.9152 0.2127
vn 0.0256 -0.1794 0.9834
vn -0.1333 -0.3251 0.9363
vn 0.0564 -0.3791 0.9236
vn -0.9089 -0.1794 0.3766
vn -0.8011 -0.3251 0.5026
vn -0.8164 -0.1369 0.5611
vn 0.0256 0.1794 0.9834
vn -0.1333 0.3251 0.9363
vn -0.1805 0.1369 0.9740
vn -0.1382 0.9673 0.2128
vn -0.2504 0.8881 0.3855
vn -0.0551 0.9152 0.3992
vn -0.9089 0.1794 0.3766
vn -0.8011 0.3251 0.5026
vn -0.8667 0.3791 0.3241
vn -0.2128 -0.9673 -0.1382
vn -0.3855 -0.8881 -0.2504
vn -0.2127 -0.9152 -0.3423
vn -0.9834 -0.1794 0.0256
vn -0.9363 -0.3251 -0.1333
vn -0.9236 -0.3791 0.0564
vn -0.3766 -0.1794 -0.9089
vn -0.5026 -0.3251 -0.8011
vn -0.5611 -0.1369 -0.8164
vn -0.2128 0.9673 -0.1382
vn -0.3855 0.8881 -0.2504
vn -0.3992 0.9152 -0.0551
vn -0.3766 0.1794 -0.9089
vn -0.5026 0.3251 -0.8011
vn -0.3241 0.3791 -0.8667
vn -0.9834 0.1794 0.0256
vn -0.9363 0.3251 -0.1333
vn -0.9740 0.1369 -0.1805
vn 0.2128 -0.9673 0.1382
vn 0.3855 -0.8881 0.2504
vn 0.2127 -0.9152 0.3423
vn 0.9834 -0.1794 -0.0256
vn 0.9363 -0.3251 0.1333
vn 0.9236 -0.3791 -0.0564
vn 0.3766 -0.1794 0.9089
vn 0.5026 -0.3251 0.8011
vn 0.5611 -0.1369 0.8164
vn 0.2128 0.9673 0.1382
vn 0.3855 0.8881 0.2504
vn 0.3992 0.9152 0.0551
vn 0.3766 0.1794 0.9089
vn 0.5026 0.3251 0.8011
vn 0.3241 0.3791 0.8667
vn 0.9834 0.1794 -0.0256
vn 0.9363 0.3251 0.1333
vn 0.9740 0.1369 0.1805
vn 0.1382 -0.9673 -0.2128
vn 0.2504 -0.8881 -0.3855
vn 0.3423 -0.9152 -0.2127
vn -0.0256 -0.1794 -0.9834
vn 0.1333 -0.3251 -0.9363
vn -0.0564 -0.3791 -0.9236
vn 0.9089 -0.1794 -0.3766
vn 0.8011 -0.3251 -0.5026
vn 0.8164 -0.1369 -0.5611
vn 0.1382 0.9673 -0.2128
vn 0.2504 0.8881 -0.3855
vn 0.0551 0.9152 -0.3992
vn 0.9089 0.1794 -0.3766
vn 0.8011 0.3251 -0.5026
vn 0.8667 0.3791 -0.3241
vn -0.0256 0.1794 -0.9834
vn 0.1333 0.3251 -0.9363
vn 0.1805 0.1369 -0.9740
vn -0.2128 -0.9673 0.1382
vn -0.3855 -0.8881 0.2504
vn -0.3992 -0.9152 0.0551
vn -0.3766 -0.1794 0.9089
vn -0.5026 -0.3251 0.8011
vn -0.3241 -0.3791 0.8667
vn -0.9834 -0.1794 -0.0256
vn -0.9363 -0.3251 0.1333
vn -0.9740 -0.1369 0.1805
vn -0.3766 0.1794 0.9089
vn -0.5026 0.3251 0.8011
vn -0.5611 0.1369 0.8164
vn -0.2128 0.9673 0.1382
vn -0.3855 0.8881 0.2504
vn -0.2127 0.9152 0.3423
vn -0.9834 0.1794 -0.0256
vn -0.9363 0.3251 0.1333
vn -0.9236 0.3791 -0.0564
vn -0.1382 -0.9673 -0.2128
vn -0.2504 -0.8881 -0.3855
vn -0.0551 -0.9152 -0.3993
vn -0.9089 -0.1794 -0.3766
vn -0.8011 -0.3251 -0.5026
vn -0.8667 -0.3791 -0.3241
vn 0.0256 -0.1794 -0.9834
vn -0.1333 -0.3251 -0.9363
vn -0.1805 -0.1369 -0.9740
vn -0.1382 0.9673 -0.2128
vn -0.2504 0.8881 -0.3855
vn -0.3423 0.9152 -0.2127
vn 0.0256 0.1794 -0.9834
vn -0.1333 0.3251 -0.9363
vn 0.0564 0.3791 -0.9236
vn -0.9089 0.1794 -0.3766
vn -0.8011 0.3251 -0.5026
vn -0.8164 0.1369 -0.5611
vn 0.1382 -0.9673 0.2128
vn 0.2504 -0.8881 0.3855
vn 0.0551 -0.9152 0.3992
vn 0.9089 -0.1794 0.3766
vn 0.8011 -0.3251 0.5026
vn 0.8667 -0.3791 0.3241
vn -0.0256 -0.1794 0.9834
vn 0.1333 -0.3251 0.9363
vn 0.1805 -0.1369 0.9740
vn 0.1382 0.9673 0.2128
vn 0.2504 0.8881 0.3855
vn 0.3423 0.9152 0.2127
vn -0.0256 0.1794 0.9834
vn 0.1333 0.3251 0.9363
vn -0.0564 0.3791 0.9236
vn 0.9089 0.1794 0.3766
vn 0.8011 0.3251 0.5026
vn 0.8164 0.1369 0.5611
vn 0.2128 -0.9673 -0.1382
vn 0.3855 -0.8881 -0.2504
vn 0.3992 -0.9152 -0.0551
vn 0.3766 -0.1794 -0.9089
vn 0.5026 -0.3251 -0.8011
vn 0.3241 -0.3791 -0.8667
vn 0.9834 -0.1794 0.0256
vn 0.9363 -0.3251 -0.1333
vn 0.9740 -0.1369 -0.1805
vn 0.2128 0.9673 -0.1382
vn 0.3855 0.8881 -0.2504
vn 0.2127 0.9152 -0.3423
vn 0.9834 0.1794 0.0257
vn 0.9362 0.3251 -0.1333
vn 0.9236 0.3791 0.0564
vn 0.3766 0.1794 -0.9089
vn 0.5026 0.3251 -0.8011
vn 0.5611 0.1369 -0.8164
vn -0.0000 -0.9610 -0.2767
vn -0.0000 -0.8643 -0.5029
vn 0.1574 -0.9059 -0.3931
vn -0.4557 -0.1831 -0.8711
vn -0.3148 -0.3201 -0.8936
vn -0.4423 -0.3807 -0.8121
vn 0.4557 -0.1831 -0.8711
vn 0.3148 -0.3201 -0.8936
vn 0.2988 -0.1382 -0.9443
vn -0.0000 0.9610 -0.2767
vn -0.0000 0.8643 -0.5029
vn -0.1574 0.9059 -0.3931
vn 0.4557 0.1831 -0.8711
vn 0.3148 0.3201 -0.8936
vn 0.4423 0.3807 -0.8121
vn -0.4557 0.1831 -0.8711
vn -0.3148 0.3201 -0.8936
vn -0.2988 0.1382 -0.9443
vn 0.2631 -0.9610 -0.0855
vn 0.4783 -0.8643 -0.1554
vn 0.4225 -0.9059 0.0282
vn 0.6877 -0.1831 -0.7025
vn 0.7526 -0.3201 -0.5755
vn 0.6357 -0.3807 -0.6716
vn 0.9693 -0.1831 0.1642
vn 0.9471 -0.3201 0.0232
vn 0.9904 -0.1382 -0.0076
vn 0.2632 0.9610 -0.0855
vn 0.4783 0.8643 -0.1554
vn 0.3252 0.9059 -0.2712
vn 0.9693 0.1831 0.1642
vn 0.9471 0.3201 0.0232
vn 0.9090 0.3807 0.1697
vn 0.6877 0.1831 -0.7025
vn 0.7526 0.3201 -0.5755
vn 0.8057 0.1382 -0.5760
vn 0.1626 -0.9610 0.2239
vn 0.2956 -0.8643 0.4068
vn 0.1037 -0.9059 0.4106
vn 0.8807 -0.1831 0.4369
vn 0.7799 -0.3201 0.5379
vn 0.8351 -0.3807 0.3970
vn 0.1434 -0.1831 0.9726
vn 0.2706 -0.3201 0.9079
vn 0.3133 -0.1382 0.9395
vn 0.1626 0.9610 0.2239
vn 0.2956 0.8643 0.4069
vn 0.3584 0.9059 0.2255
vn 0.1434 0.1831 0.9726
vn 0.2706 0.3201 0.9079
vn 0.1195 0.3807 0.9170
vn 0.8807 0.1831 0.4369
vn 0.7799 0.3201 0.5379
vn 0.7967 0.1382 0.5883
vn -0.1626 -0.9610 0.2238
vn -0.2956 -0.8643 0.4068
vn -0.3584 -0.9059 0.2255
vn -0.1434 -0.1831 0.9726
vn -0.2706 -0.3201 0.9079
vn -0.1195 -0.3807 0.9170
vn -0.8807 -0.1831 0.4369
vn -0.7799 -0.3201 0.5379
vn -0.7967 -0.1382 0.5883
vn -0.1626 0.9610 0.2239
vn -0.2956 0.8643 0.4069
vn -0.1037 0.9059 0.4106
vn -0.8807 0.1831 0.4369
vn -0.7799 0.3201 0.5379
vn -0.8351 0.3807 0.3970
vn -0.1434 0.1831 0.9726
vn -0.2706 0.3201 0.9079
vn -0.3133 0.1382 0.9395
vn -0.2632 -0.9610 -0.0855
vn -0.4783 -0.8643 -0.1554
vn -0.3252 -0.9059 -0.2712
vn -0.9693 -0.1831 0.1642
vn -0.9471 -0.3201 0.0232
vn -0.9090 -0.3807 0.1697
vn -0.6877 -0.1831 -0.7025
vn -0.7526 -0.3201 -0.5755
vn -0.8057 -0.1382 -0.5760
vn -0.2632 0.9610 -0.0855
vn -0.4783 0.8643 -0.1554
vn -0.4225 0.9059 0.0282
vn -0.6877 0.1831 -0.7025
vn -0.7526 0.3201 -0.5755
vn -0.6357 0.3807 -0.6716
vn -0.9693 0.1831 0.1642
vn -0.9471 0.3201 0.0232
vn -0.9904 0.1382 -0.0076
vn 0.2631 0.9610 -0.0855
vn 0.7968 0.1382 0.5883
vn -0.1626 -0.9610 0.2239
vn 0.7507 -0.0000 -0.6607
vn 0.3964 -0.0000 -0.9181
vn 0.5878 -0.0000 -0.8090
vn 0.9956 -0.0000 -0.0933
vn 0.8603 -0.0000 -0.5098
vn 0.9511 -0.0000 -0.3090
vn 0.2016 0.9393 -0.2775
vn 0.4889 0.8578 -0.1588
vn 0.3022 0.8578 -0.4159
vn 0.3876 0.7518 -0.5334
vn 0.2016 -0.9393 -0.2775
vn 0.4889 -0.8578 -0.1589
vn 0.3262 -0.9393 -0.1060
vn 0.3022 -0.8578 -0.4159
vn 0.6271 -0.7518 -0.2037
vn 0.8603 -0.0000 0.5098
vn 0.9956 -0.0000 0.0933
vn 0.9511 -0.0000 0.3090
vn 0.4889 -0.8578 0.1588
vn 0.3262 -0.9393 0.1060
vn 0.6271 -0.7518 0.2038
vn 0.6271 0.7518 -0.2038
vn 0.4889 0.8578 0.1589
vn 0.6271 0.7518 0.2037
vn 0.3262 0.9393 0.1060
vn 0.3964 -0.0000 0.9181
vn 0.7507 -0.0000 0.6607
vn 0.5878 -0.0000 0.8090
vn 0.3022 -0.8578 0.4159
vn 0.2016 -0.9393 0.2775
vn 0.3876 -0.7518 0.5334
vn 0.3876 0.7518 0.5334
vn 0.3022 0.8578 0.4159
vn 0.2016 0.9393 0.2775
vn -0.2190 -0.0000 0.9757
vn 0.2190 -0.0000 0.9757
vn -0.0000 -0.0000 1.0000
vn -0.0000 -0.8578 0.5141
vn -0.0000 -0.9393 0.3430
vn -0.0000 -0.7518 0.6593
vn -0.0000 0.8578 0.5141
vn -0.0000 0.7518 0.6593
vn -0.0000 0.9393 0.3430
vn -0.7507 -0.0000 0.6607
vn -0.3964 -0.0000 0.9181
vn -0.5878 -0.0000 0.8090
vn -0.3022 -0.8578 0.4159
vn -0.2016 -0.9393 0.2775
vn -0.3876 -0.7518 0.5334
vn -0.3022 0.8578 0.4159
vn -0.3876 0.7518 0.5334
vn -0.2016 0.9393 0.2775
vn -0.9956 -0.0000 0.0933
vn -0.8603 -0.0000 0.5098
vn -0.9511 -0.0000 0.3090
vn -0.4889 0.8578 0.1589
vn -0.6271 0.7518 0.2038
vn -0.3262 0.9393 0.1060
vn -0.6271 -0.7518 0.2038
vn -0.4889 -0.8578 0.1589
vn -0.8603 -0.0000 -0.5098
vn -0.9956 -0.0000 -0.0933
vn -0.9511 -0.0000 -0.3090
vn -0.4889 0.8578 -0.1589
vn -0.6271 0.7518 -0.2037
vn -0.3262 0.9393 -0.1060
vn -0.4889 -0.8578 -0.1589
vn -0.3262 -0.9393 0.1060
vn -0.3964 -0.0000 -0.9181
vn -0.7507 -0.0000 -0.6607
vn -0.5878 -0.0000 -0.8090
vn -0.3876 -0.7518 -0.5334
vn -0.6271 -0.7518 -0.2037
vn -0.3022 -0.8578 -0.4159
vn -0.3262 -0.9393 -0.1060
vn -0.2016 0.9393 -0.2775
vn -0.3022 0.8578 -0.4159
vn 0.2190 -0.0000 -0.9757
vn -0.2190 -0.0000 -0.9757
vn -0.0000 -0.0000 -1.0000
vn -0.0000 -0.7518 -0.6594
vn -0.0000 -0.8578 -0.5141
vn -0.2016 -0.9393 -0.2775
vn -0.0000 0.9393 -0.3430
vn -0.0000 0.8578 -0.5141
vn -0.3876 0.7518 -0.5334
vn -0.0000 -0.9393 -0.3430
vn -0.0000 0.7518 -0.6593
vn 0.4527 0.8436 -0.2888
vn 0.6061 0.6464 0.4635
vn 0.9422 -0.1699 -0.2888
vn 0.8021 -0.3767 0.4635
vn 0.4038 -0.0249 0.9145
vn 0.1296 -0.9486 -0.2888
vn -0.1052 -0.4270 -0.8981
vn -0.1104 -0.8792 0.4635
vn 0.1011 -0.3917 0.9145
vn -0.8621 -0.4163 -0.2888
vn -0.8703 -0.1667 0.4635
vn -0.3413 -0.2172 0.9145
vn -0.6624 0.6913 -0.2888
vn -0.4275 0.7762 0.4635
vn -0.3120 0.2575 0.9145
vn -0.3992 -0.9152 -0.0551
vn -0.1805 -0.1369 0.9740
vn -0.3423 0.9152 0.2127
vn -0.5611 0.1369 -0.8164
vn -0.9740 -0.1369 -0.1805
vn 0.0551 -0.9152 -0.3993
vn -0.3241 -0.3791 -0.8667
vn -0.2127 0.9152 -0.3423
vn 0.8164 0.1369 -0.5611
vn 0.1805 -0.1369 -0.9740
vn 0.3992 -0.9152 0.0551
vn 0.8667 -0.3791 -0.3241
vn 0.3423 0.9152 -0.2127
vn 0.9236 0.3791 -0.0564
vn 0.5611 0.1369 0.8164
vn 0.9740 -0.1369 0.1805
vn -0.0551 -0.9152 0.3992
vn 0.3241 -0.3791 0.8667
vn 0.2127 0.9152 0.3423
vn 0.0564 0.3791 0.9236
vn -0.3423 -0.9152 -0.2127
vn -0.9236 -0.3791 -0.0564
vn -0.5611 -0.1369 0.8164
vn -0.9740 0.1369 0.1805
vn -0.3992 0.9152 0.0551
vn -0.8667 0.3791 -0.3241
vn -0.1805 0.1369 -0.9740
vn -0.8164 -0.1369 -0.5611
vn 0.2127 -0.9152 -0.3423
vn -0.0551 0.9152 -0.3992
vn 0.3241 0.3791 -0.8667
vn 0.9740 0.1369 -0.1805
vn 0.5611 -0.1369 -0.8164
vn 0.3423 -0.9152 0.2127
vn 0.9236 -0.3791 0.0564
vn 0.3993 0.9152 -0.0551
vn 0.1805 0.1369 0.9740
vn 0.8164 -0.1369 0.5611
vn -0.2127 -0.9152 0.3423
vn -0.0564 -0.3791 0.9236
vn 0.0551 0.9152 0.3992
vn -0.3241 0.3791 0.8667
vn 0.4423 -0.3807 -0.8121
vn 0.3252 -0.9059 -0.2712
vn 0.6357 0.3807 -0.6716
vn 0.1574 0.9059 -0.3931
vn -0.2988 -0.1382 -0.9443
vn 0.2988 0.1382 -0.9443
vn 0.9904 0.1382 -0.0076
vn 0.9090 -0.3807 0.1697
vn 0.3584 -0.9059 0.2255
vn 0.8351 0.3807 0.3970
vn 0.3133 0.1382 0.9395
vn 0.7967 -0.1382 0.5883
vn 0.1195 -0.3807 0.9170
vn -0.1037 -0.9059 0.4106
vn -0.1195 0.3807 0.9170
vn 0.1037 0.9059 0.4106
vn -0.7968 0.1382 0.5883
vn -0.8351 -0.3807 0.3970
vn -0.4225 -0.9059 0.0282
vn -0.9090 0.3807 0.1697
vn -0.3584 0.9059 0.2255
vn -0.8057 0.1382 -0.5760
vn -0.6357 -0.3807 -0.6716
vn -0.1574 -0.9059 -0.3931
vn -0.4423 0.3807 -0.8121
vn 0.4225 0.9059 0.0282
vn -0.3252 0.9059 -0.2712
vn -0.0000 1.0000 -0.0000
vn 0.3262 0.9393 -0.1060
vn 0.3876 -0.7518 -0.5334
vn -0.0000 -1.0000 -0.0000
vn -0.1659 0.4073 -0.8981
vn 0.1485 0.3763 0.9145
vn 0.3361 0.2836 -0.8981
vn 0.3736 -0.2320 -0.8981
vn -0.4386 -0.0319 -0.8981
vn -0.8667 -0.3791 0.3241
vn -0.8164 0.1369 0.5611
vn -0.9236 0.3791 0.0564
vn -0.0564 0.3791 -0.9236
vn 0.0564 -0.3791 -0.9236
vn 0.8667 0.3791 0.3241
vn 0.8057 -0.1382 -0.5760
vn -0.3133 -0.1382 0.9395
vn -0.9904 -0.1382 -0.0076
vt 0.695357 0.596875
vt 0.694090 0.601766
vt 0.688952 0.598992
vt 0.540878 0.409071
vt 0.536597 0.411917
vt 0.536160 0.406518
vt 0.611354 0.523684
vt 0.615635 0.520838
vt 0.616203 0.526189
vt 0.188669 0.222614
vt 0.182972 0.225686
vt 0.186656 0.219776
vt 0.705731 0.534012
vt 0.705417 0.540459
vt 0.699931 0.539565
vt 0.704658 0.546531
vt 0.127359 0.243760
vt 0.120945 0.244624
vt 0.121008 0.241112
vt 0.834865 0.544047
vt 0.835180 0.537600
vt 0.838533 0.543406
vt 0.704658 0.464051
vt 0.705417 0.469591
vt 0.699931 0.470869
vt 0.705731 0.475817
vt 0.058917 0.225693
vt 0.053221 0.222622
vt 0.055361 0.219784
vt 0.048539 0.218153
vt 0.204086 0.482626
vt 0.199108 0.485961
vt 0.197894 0.481016
vt 0.194836 0.488805
vt 0.270045 0.600265
vt 0.274317 0.597421
vt 0.278421 0.600356
vt 0.279295 0.594086
vt 0.262146 0.443553
vt 0.256942 0.447080
vt 0.253955 0.443326
vt 0.251578 0.450698
vt 0.326787 0.562157
vt 0.332151 0.558539
vt 0.334482 0.562667
vt 0.337355 0.555013
vt 0.695602 0.834107
vt 0.694268 0.839183
vt 0.689120 0.836448
vt 0.310691 0.410528
vt 0.306283 0.413538
vt 0.306056 0.407895
vt 0.381492 0.524997
vt 0.385900 0.521988
vt 0.386583 0.527236
vt 0.053221 0.036179
vt 0.058917 0.033107
vt 0.055361 0.039058
vt 0.706520 0.769868
vt 0.706190 0.776330
vt 0.700676 0.775522
vt 0.705391 0.782494
vt 0.114531 0.015032
vt 0.120945 0.014168
vt 0.121008 0.017722
vt 0.835086 0.781918
vt 0.835417 0.775456
vt 0.838686 0.781505
vt 0.705391 0.700497
vt 0.706190 0.705877
vt 0.700676 0.707229
vt 0.706520 0.712014
vt 0.182972 0.033099
vt 0.188669 0.036171
vt 0.186656 0.039050
vt 0.193350 0.040640
vt 0.434728 0.479968
vt 0.429653 0.483372
vt 0.428345 0.478541
vt 0.425231 0.486346
vt 0.499988 0.598113
vt 0.504410 0.595139
vt 0.508389 0.598211
vt 0.509485 0.591735
vt 0.493266 0.440783
vt 0.488111 0.444223
vt 0.485011 0.440592
vt 0.482732 0.447820
vt 0.557489 0.559587
vt 0.562868 0.555990
vt 0.565054 0.560263
vt 0.568024 0.552550
vt 0.427812 0.807935
vt 0.428767 0.803498
vt 0.431981 0.806394
vt 0.497668 0.654342
vt 0.492223 0.650458
vt 0.496081 0.649617
vt 0.486761 0.654319
vt 0.492215 0.654312
vt 0.113519 0.809471
vt 0.109526 0.806041
vt 0.113689 0.804599
vt 0.486564 0.748631
vt 0.492009 0.752503
vt 0.488151 0.753384
vt 0.497471 0.748653
vt 0.492018 0.748624
vt 0.440504 0.825501
vt 0.444550 0.825344
vt 0.442926 0.829247
vt 0.199054 0.370048
vt 0.204448 0.373791
vt 0.200662 0.374830
vt 0.209953 0.370048
vt 0.204435 0.369878
vt 0.112708 0.815433
vt 0.107888 0.818079
vt 0.107888 0.813687
vt 0.210792 0.277476
vt 0.205356 0.273628
vt 0.209292 0.272961
vt 0.199893 0.277476
vt 0.205274 0.277306
vt 0.427812 0.843245
vt 0.428767 0.847408
vt 0.424730 0.846979
vt 0.224216 0.371043
vt 0.227043 0.375367
vt 0.224037 0.375923
vt 0.794930 0.370311
vt 0.789921 0.374139
vt 0.789506 0.370285
vt 0.118129 0.818081
vt 0.118832 0.823423
vt 0.114765 0.822066
vt 0.801850 0.275992
vt 0.797409 0.272086
vt 0.801701 0.271227
vt 0.213544 0.277668
vt 0.215495 0.274335
vt 0.217048 0.278127
vt 0.407276 0.836644
vt 0.403229 0.839200
vt 0.402540 0.835085
vt 0.812079 0.370311
vt 0.817087 0.374139
vt 0.812923 0.375018
vt 0.757715 0.276823
vt 0.760410 0.273637
vt 0.761169 0.277406
vt 0.122291 0.813754
vt 0.127234 0.814689
vt 0.124816 0.818156
vt 0.748907 0.370824
vt 0.750881 0.375346
vt 0.747728 0.375848
vt 0.805158 0.275992
vt 0.809599 0.272086
vt 0.810582 0.275967
vt 0.407276 0.814821
vt 0.403229 0.812062
vt 0.407021 0.810002
vt 0.743559 0.275750
vt 0.737986 0.271936
vt 0.741870 0.271227
vt 0.732659 0.276057
vt 0.738059 0.275653
vt 0.119442 0.808433
vt 0.121483 0.803945
vt 0.124151 0.807360
vt 0.735277 0.370924
vt 0.740819 0.374583
vt 0.737044 0.375839
vt 0.746177 0.370617
vt 0.740677 0.370521
vt 0.960937 0.018929
vt 0.957017 0.015039
vt 0.960910 0.014169
vt 0.419658 0.373251
vt 0.415799 0.377406
vt 0.414920 0.373457
vt 0.419555 0.770832
vt 0.415840 0.773695
vt 0.414920 0.770202
vt 0.540672 0.373150
vt 0.544577 0.377299
vt 0.540688 0.378081
vt 0.902918 0.769425
vt 0.899007 0.773313
vt 0.898144 0.769429
vt 0.419555 0.654716
vt 0.415840 0.650130
vt 0.419666 0.649601
vt 0.981105 0.018928
vt 0.984947 0.015038
vt 0.985832 0.018922
vt 0.439692 0.771154
vt 0.443729 0.774141
vt 0.439804 0.775162
vt 0.381822 0.374911
vt 0.385714 0.378644
vt 0.381829 0.379558
vt 0.923086 0.769426
vt 0.926939 0.773314
vt 0.923066 0.774184
vt 0.260805 0.374888
vt 0.256933 0.378620
vt 0.256058 0.374787
vt 0.439692 0.655038
vt 0.443729 0.650577
vt 0.444550 0.654560
vt 0.960937 0.375259
vt 0.957017 0.379133
vt 0.956157 0.375254
vt 0.132459 0.771558
vt 0.136622 0.774647
vt 0.132669 0.775609
vt 0.419658 0.018796
vt 0.415799 0.015230
vt 0.419674 0.014269
vt 0.902918 0.413094
vt 0.899007 0.409219
vt 0.902897 0.408344
vt 0.540672 0.018695
vt 0.544577 0.015122
vt 0.545442 0.018893
vt 0.132459 0.655009
vt 0.136622 0.650621
vt 0.137396 0.654618
vt 0.981105 0.375258
vt 0.984947 0.379131
vt 0.981078 0.380007
vt 0.381822 0.019039
vt 0.385714 0.015018
vt 0.386583 0.018940
vt 0.112404 0.770978
vt 0.108848 0.773844
vt 0.107888 0.770315
vt 0.923086 0.413095
vt 0.926939 0.409219
vt 0.927820 0.413099
vt 0.112404 0.654429
vt 0.108848 0.649819
vt 0.112614 0.649324
vt 0.260805 0.019016
vt 0.256933 0.014995
vt 0.260812 0.014168
vt 0.981051 0.769435
vt 0.984971 0.773309
vt 0.981078 0.774183
vt 0.139953 0.277187
vt 0.143810 0.274391
vt 0.144690 0.277812
vt 0.238207 0.773457
vt 0.233570 0.776820
vt 0.233063 0.773412
vt 0.018939 0.276867
vt 0.015033 0.274051
vt 0.018922 0.272961
vt 0.923046 0.018918
vt 0.926957 0.015043
vt 0.927820 0.018922
vt 0.238207 0.657341
vt 0.233570 0.653255
vt 0.237509 0.652261
vt 0.960883 0.769434
vt 0.957041 0.773308
vt 0.956157 0.769428
vt 0.578533 0.014168
vt 0.574666 0.018221
vt 0.573779 0.016012
vt 0.578559 0.022860
vt 0.578551 0.017716
vt 0.902877 0.018919
vt 0.899025 0.015043
vt 0.902898 0.014169
vt 0.699576 0.022697
vt 0.703447 0.018048
vt 0.704323 0.021982
vt 0.257069 0.655328
vt 0.259692 0.650467
vt 0.260817 0.654334
vt 0.981051 0.413105
vt 0.984971 0.409215
vt 0.985832 0.413099
vt 0.564204 0.771232
vt 0.567026 0.773922
vt 0.563599 0.775306
vt 0.139953 0.615856
vt 0.143810 0.620440
vt 0.139936 0.620987
vt 0.923046 0.375249
vt 0.926957 0.379137
vt 0.923066 0.380007
vt 0.018939 0.615537
vt 0.015033 0.620099
vt 0.014168 0.616136
vt 0.564204 0.654684
vt 0.567026 0.649896
vt 0.568124 0.653786
vt 0.960883 0.413104
vt 0.957041 0.409214
vt 0.960910 0.408344
vt 0.578541 0.355327
vt 0.574648 0.357932
vt 0.573779 0.354625
vt 0.545008 0.772899
vt 0.540441 0.776230
vt 0.539879 0.772788
vt 0.902877 0.375249
vt 0.899025 0.379137
vt 0.898144 0.375254
vt 0.545008 0.656351
vt 0.540441 0.652205
vt 0.544403 0.651268
vt 0.699558 0.355164
vt 0.703428 0.357758
vt 0.699550 0.358891
vt 0.605599 0.851221
vt 0.604913 0.856015
vt 0.601371 0.853615
vt 0.067142 0.808706
vt 0.072596 0.812588
vt 0.068500 0.813465
vt 0.077884 0.808712
vt 0.072785 0.808702
vt 0.549606 0.810115
vt 0.550293 0.805310
vt 0.553835 0.807713
vt 0.077884 0.654078
vt 0.072596 0.650192
vt 0.076096 0.649328
vt 0.067142 0.654072
vt 0.072785 0.654069
vt 0.601267 0.847016
vt 0.596461 0.847811
vt 0.597659 0.843712
vt 0.187714 0.804687
vt 0.192921 0.808871
vt 0.189557 0.808997
vt 0.198350 0.805302
vt 0.192670 0.805448
vt 0.544267 0.812936
vt 0.539879 0.810814
vt 0.543268 0.808183
vt 0.198350 0.656379
vt 0.192921 0.652471
vt 0.197078 0.651352
vt 0.187714 0.655763
vt 0.192670 0.656524
vt 0.603928 0.841596
vt 0.601652 0.837239
vt 0.605932 0.837122
vt 0.289153 0.809606
vt 0.293608 0.813513
vt 0.291213 0.814357
vt 0.298585 0.809650
vt 0.293012 0.809640
vt 0.545301 0.818884
vt 0.541896 0.822418
vt 0.540451 0.818377
vt 0.298585 0.655020
vt 0.293608 0.651120
vt 0.297882 0.650250
vt 0.200508 0.656121
vt 0.203692 0.651187
vt 0.204727 0.655087
vt 0.609905 0.842452
vt 0.613312 0.838908
vt 0.614756 0.842952
vt 0.300933 0.809648
vt 0.305320 0.813503
vt 0.301202 0.814385
vt 0.907264 0.957081
vt 0.903138 0.959934
vt 0.902194 0.956472
vt 0.551278 0.819740
vt 0.553556 0.824087
vt 0.549276 0.824207
vt 0.903214 0.808766
vt 0.898884 0.804174
vt 0.902918 0.803622
vt 0.300933 0.655018
vt 0.305320 0.651110
vt 0.306122 0.654999
vt 0.610938 0.848400
vt 0.615327 0.850513
vt 0.611938 0.853146
vt 0.909596 0.957124
vt 0.914774 0.960150
vt 0.910516 0.961117
vt 0.065037 0.808709
vt 0.062093 0.812608
vt 0.061028 0.808724
vt 0.553938 0.814320
vt 0.558746 0.813513
vt 0.557548 0.817616
vt 0.915219 0.807165
vt 0.910521 0.804390
vt 0.913056 0.802520
vt 0.905546 0.808809
vt 0.911169 0.808399
vt 0.194999 0.851868
vt 0.194312 0.856662
vt 0.190770 0.854262
vt 0.020283 0.808706
vt 0.025737 0.812588
vt 0.021641 0.813465
vt 0.031025 0.808712
vt 0.025925 0.808702
vt 0.242204 0.810641
vt 0.241516 0.805836
vt 0.245590 0.807149
vt 0.031025 0.654078
vt 0.025737 0.650192
vt 0.029236 0.649328
vt 0.020283 0.654072
vt 0.025925 0.654069
vt 0.190666 0.847662
vt 0.185860 0.848458
vt 0.187058 0.844359
vt 0.598036 0.804040
vt 0.603244 0.808224
vt 0.599880 0.808350
vt 0.608672 0.804655
vt 0.602993 0.804801
vt 0.237871 0.814846
vt 0.233063 0.814039
vt 0.235579 0.810564
vt 0.608672 0.655732
vt 0.603244 0.651824
vt 0.607400 0.650705
vt 0.598036 0.655116
vt 0.602993 0.655877
vt 0.193327 0.842243
vt 0.191051 0.837886
vt 0.195331 0.837769
vt 0.334458 0.809606
vt 0.338913 0.813513
vt 0.336518 0.814357
vt 0.343890 0.809650
vt 0.338317 0.809640
vt 0.240531 0.820265
vt 0.238253 0.824613
vt 0.235733 0.821139
vt 0.343890 0.655020
vt 0.338913 0.651120
vt 0.343187 0.650250
vt 0.610831 0.655474
vt 0.614015 0.650540
vt 0.615049 0.654440
vt 0.199304 0.843099
vt 0.202711 0.839555
vt 0.204155 0.843599
vt 0.346238 0.809648
vt 0.350625 0.813503
vt 0.346507 0.814385
vt 0.482007 0.936297
vt 0.477881 0.939151
vt 0.476937 0.935688
vt 0.246508 0.819410
vt 0.249914 0.822944
vt 0.245839 0.824260
vt 0.477957 0.787982
vt 0.473627 0.783390
vt 0.477661 0.782838
vt 0.346238 0.655018
vt 0.350625 0.651110
vt 0.351427 0.654999
vt 0.200337 0.849047
vt 0.204727 0.851160
vt 0.201337 0.853793
vt 0.484339 0.936340
vt 0.489518 0.939367
vt 0.485259 0.940334
vt 0.018178 0.808709
vt 0.015233 0.812608
vt 0.014168 0.808724
vt 0.247542 0.813462
vt 0.251931 0.811340
vt 0.251931 0.815614
vt 0.489962 0.786381
vt 0.485264 0.783606
vt 0.487799 0.781737
vt 0.480289 0.788025
vt 0.485912 0.787615
vt 0.762947 0.612167
vt 0.584554 0.460669
vt 0.823539 0.605354
vt 0.761680 0.617058
vt 0.588835 0.457823
vt 0.775091 0.539720
vt 0.774018 0.552238
vt 0.774777 0.546166
vt 0.801274 0.067670
vt 0.762073 0.074185
vt 0.801258 0.061455
vt 0.801233 0.056051
vt 0.157144 0.178503
vt 0.121592 0.196272
vt 0.121628 0.190046
vt 0.160774 0.183538
vt 0.121538 0.201693
vt 0.774018 0.458679
vt 0.775091 0.470445
vt 0.834865 0.473178
vt 0.774777 0.464218
vt 0.082410 0.183542
vt 0.086112 0.178507
vt 0.079160 0.187925
vt 0.651627 0.529908
vt 0.646398 0.487619
vt 0.651627 0.485562
vt 0.743805 0.109421
vt 0.737855 0.107516
vt 0.234320 0.543481
vt 0.225071 0.549660
vt 0.229342 0.546816
vt 0.058194 0.150211
vt 0.064163 0.148295
vt 0.052969 0.151874
vt 0.732659 0.150430
vt 0.737855 0.148716
vt 0.743805 0.146766
vt 0.301422 0.498330
vt 0.290854 0.505474
vt 0.296218 0.501856
vt 0.058194 0.109009
vt 0.064163 0.110948
vt 0.052969 0.107312
vt 0.762073 0.182050
vt 0.758852 0.186482
vt 0.765756 0.176980
vt 0.763066 0.849838
vt 0.353963 0.462600
vt 0.823165 0.844771
vt 0.761732 0.854914
vt 0.358371 0.459590
vt 0.082410 0.075675
vt 0.086112 0.080733
vt 0.079160 0.071259
vt 0.801258 0.194783
vt 0.801233 0.200255
vt 0.801275 0.188522
vt 0.775848 0.775773
vt 0.774719 0.788398
vt 0.775517 0.782235
vt 0.840443 0.182054
vt 0.843614 0.186487
vt 0.836793 0.176984
vt 0.121538 0.057486
vt 0.121592 0.062941
vt 0.774719 0.695387
vt 0.775848 0.706904
vt 0.835086 0.711465
vt 0.775517 0.700767
vt 0.652000 0.767040
vt 0.646713 0.725175
vt 0.652000 0.722954
vt 0.858744 0.146772
vt 0.864660 0.148723
vt 0.160774 0.075670
vt 0.121628 0.069191
vt 0.465297 0.540336
vt 0.455799 0.546714
vt 0.460222 0.543740
vt 0.190107 0.107304
vt 0.163916 0.071254
vt 0.184989 0.109002
vt 0.157144 0.080729
vt 0.858744 0.109427
vt 0.864660 0.107522
vt 0.869807 0.150437
vt 0.532974 0.495031
vt 0.522440 0.502068
vt 0.527819 0.498471
vt 0.190107 0.151866
vt 0.184989 0.150204
vt 0.179093 0.110942
vt 0.836793 0.079213
vt 0.840443 0.074189
vt 0.869807 0.105876
vt 0.179093 0.148288
vt 0.843614 0.069824
vt 0.185874 0.375923
vt 0.185592 0.371043
vt 0.485233 0.753400
vt 0.483888 0.748645
vt 0.208368 0.374830
vt 0.212292 0.273170
vt 0.111527 0.820485
vt 0.796426 0.275967
vt 0.794085 0.375018
vt 0.407021 0.841287
vt 0.805307 0.271227
vt 0.122330 0.820740
vt 0.752362 0.371407
vt 0.757420 0.272407
vt 0.744751 0.375622
vt 0.125853 0.810539
vt 0.511542 0.654476
vt 0.511321 0.649765
vt 0.732659 0.371281
vt 0.734190 0.376229
vt 0.117226 0.803979
vt 0.981078 0.014168
vt 0.419674 0.378182
vt 0.902897 0.774183
vt 0.260812 0.379536
vt 0.444550 0.770676
vt 0.985832 0.375252
vt 0.386583 0.374811
vt 0.927820 0.769430
vt 0.107888 0.653766
vt 0.381829 0.014191
vt 0.960910 0.380007
vt 0.112614 0.775030
vt 0.923066 0.408345
vt 0.132669 0.649903
vt 0.540688 0.014168
vt 0.137396 0.771167
vt 0.956157 0.018923
vt 0.414920 0.019002
vt 0.898144 0.413098
vt 0.545442 0.373348
vt 0.960910 0.774183
vt 0.237509 0.777499
vt 0.257069 0.771444
vt 0.256371 0.775486
vt 0.139936 0.273281
vt 0.233063 0.657297
vt 0.923066 0.014168
vt 0.256371 0.650248
vt 0.699569 0.017553
vt 0.260817 0.770450
vt 0.956157 0.413098
vt 0.898144 0.018923
vt 0.704304 0.354449
vt 0.539879 0.656239
vt 0.578533 0.359055
vt 0.981078 0.408345
vt 0.544403 0.776973
vt 0.902898 0.380008
vt 0.018922 0.620667
vt 0.568124 0.770335
vt 0.985832 0.769430
vt 0.144690 0.616481
vt 0.927820 0.375253
vt 0.014168 0.277467
vt 0.078453 0.813478
vt 0.076096 0.813470
vt 0.598975 0.851290
vt 0.186138 0.655290
vt 0.189557 0.650917
vt 0.546220 0.806623
vt 0.200131 0.809068
vt 0.197078 0.809432
vt 0.599131 0.840715
vt 0.200131 0.650988
vt 0.293012 0.655010
vt 0.204727 0.804011
vt 0.297882 0.814388
vt 0.609237 0.837595
vt 0.301202 0.650247
vt 0.545971 0.823734
vt 0.898144 0.808157
vt 0.907218 0.961056
vt 0.615327 0.846242
vt 0.906216 0.803683
vt 0.556076 0.820613
vt 0.061028 0.654091
vt 0.065037 0.654076
vt 0.065523 0.813471
vt 0.608986 0.854706
vt 0.068500 0.649324
vt 0.031594 0.813478
vt 0.029236 0.813470
vt 0.597651 0.649601
vt 0.599880 0.650270
vt 0.237975 0.808239
vt 0.610831 0.804398
vt 0.607400 0.808785
vt 0.188530 0.841362
vt 0.610454 0.650341
vt 0.234262 0.818142
vt 0.338317 0.655010
vt 0.343187 0.814388
vt 0.198636 0.838242
vt 0.346507 0.650247
vt 0.472887 0.787373
vt 0.481961 0.940273
vt 0.480959 0.782899
vt 0.014168 0.654091
vt 0.018178 0.654076
vt 0.018664 0.813471
vt 0.198385 0.855353
vt 0.018664 0.649329
vt 0.021641 0.649324
vt 0.248541 0.808709
vt 0.801374 0.127959
vt 0.765756 0.079209
vt 0.866641 0.038132
vt 0.807374 0.014168
vt 0.834107 0.550118
vt 0.824806 0.600462
vt 0.227228 0.163926
vt 0.193350 0.218144
vt 0.163916 0.187920
vt 0.121845 0.129689
vt 0.835180 0.479404
vt 0.644540 0.452172
vt 0.695357 0.420233
vt 0.762947 0.406518
vt 0.186138 0.575427
vt 0.237339 0.621911
vt 0.014168 0.170844
vt 0.228136 0.412604
vt 0.352952 0.597581
vt 0.735337 0.218846
vt 0.794545 0.242891
vt 0.014789 0.094908
vt 0.048539 0.040648
vt 0.834288 0.788082
vt 0.824498 0.839695
vt 0.835417 0.717602
vt 0.644540 0.690952
vt 0.695602 0.658500
vt 0.763066 0.645395
vt 0.465647 0.621264
vt 0.227721 0.087949
vt 0.457880 0.411279
vt 0.581947 0.596767
vt 0.472887 0.654396
vt 0.500147 0.748679
vt 0.079551 0.808718
vt 0.200508 0.805045
vt 0.032691 0.808718
vt 0.424730 0.804063
vt 0.488368 0.649601
vt 0.108372 0.810126
vt 0.495864 0.753400
vt 0.442926 0.821542
vt 0.201586 0.272961
vt 0.431981 0.844548
vt 0.227721 0.371502
vt 0.817503 0.370285
vt 0.402540 0.816266
vt 0.734163 0.271444
vt 0.419666 0.774839
vt 0.414920 0.654086
vt 0.439804 0.649923
vt 0.256058 0.018915
vt 0.573797 0.022158
vt 0.563599 0.649600
vt 0.539879 0.815088
vt 0.306122 0.809628
vt 0.915219 0.956713
vt 0.556230 0.810038
vt 0.188375 0.851937
vt 0.242534 0.824733
vt 0.351427 0.809628
vt 0.251359 0.818903
vt 0.204727 0.846889
vt 0.489962 0.935930
vt 0.758852 0.069819
vt 0.834107 0.467639
vt 0.646398 0.528620
vt 0.732659 0.105869
vt 0.834288 0.706085
vt 0.646713 0.765936
vt 0.187328 0.650247
vt 0.065523 0.649329
vt 0.596461 0.654643
vt 0.610454 0.808421
vt 0.615049 0.803364
vt 0.644540 0.568270
vt 0.862991 0.032242
vt 0.800989 0.016797
vt 0.227721 0.170831
vt 0.114531 0.243761
vt 0.688952 0.419145
vt 0.014789 0.163939
vt 0.191946 0.436934
vt 0.316762 0.621911
vt 0.738928 0.224817
vt 0.800989 0.240181
vt 0.014168 0.087961
vt 0.644540 0.806370
vt 0.127359 0.015031
vt 0.689120 0.657655
vt 0.414920 0.574273
vt 0.227228 0.094895
vt 0.421300 0.435777
vt 0.545367 0.621264
vt 0.079551 0.654084
vt 0.032691 0.654084
s 1
f 6/1/1 9/2/2 8/3/3
f 9/4/2 7/5/4 8/6/3
f 13/7/5 16/8/6 15/9/7
f 16/10/6 14/11/8 15/12/7
f 23/13/9 26/14/10 25/15/11
f 26/14/10 24/16/12 25/15/11
f 30/17/13 33/18/14 32/19/15
f 33/20/14 31/21/16 32/22/15
f 40/23/17 43/24/18 42/25/19
f 43/24/18 41/26/20 42/25/19
f 47/27/21 50/28/22 49/29/23
f 50/28/22 48/30/24 49/29/23
f 57/31/25 60/32/26 59/33/27
f 60/32/26 58/34/28 59/33/27
f 64/35/29 67/36/30 66/37/31
f 67/36/30 65/38/32 66/37/31
f 74/39/33 77/40/34 76/41/35
f 77/40/34 75/42/36 76/41/35
f 81/43/37 84/44/38 83/45/39
f 84/44/38 82/46/40 83/45/39
f 91/47/41 94/48/42 93/49/43
f 94/50/42 92/51/44 93/52/43
f 98/53/45 101/54/46 100/55/47
f 101/56/46 99/57/48 100/58/47
f 108/59/49 111/60/50 110/61/51
f 111/60/50 109/62/52 110/61/51
f 115/63/53 118/64/54 117/65/55
f 118/66/54 116/67/56 117/68/55
f 125/69/57 128/70/58 127/71/59
f 128/70/58 126/72/60 127/71/59
f 132/73/61 135/74/62 134/75/63
f 135/74/62 133/76/64 134/75/63
f 142/77/65 145/78/66 144/79/67
f 145/78/66 143/80/68 144/79/67
f 149/81/69 152/82/70 151/83/71
f 152/82/70 150/84/72 151/83/71
f 159/85/73 162/86/74 161/87/75
f 162/86/74 160/88/76 161/87/75
f 166/89/77 169/90/78 168/91/79
f 169/90/78 167/92/80 168/91/79
f 173/93/81 177/94/82 179/95/83
f 174/96/84 177/97/85 176/98/86
f 175/99/87 177/97/88 178/100/89
f 180/101/90 184/102/91 186/103/92
f 181/104/93 184/105/94 183/106/95
f 182/107/96 184/105/97 185/108/98
f 187/109/99 191/110/100 193/111/101
f 188/112/102 191/113/103 190/114/104
f 189/115/105 191/113/106 192/116/107
f 194/117/108 198/118/109 200/119/110
f 195/120/111 198/121/112 197/122/113
f 196/123/114 198/121/115 199/124/116
f 201/125/117 205/126/118 207/127/119
f 202/128/120 205/129/121 204/130/122
f 203/131/123 205/132/124 206/133/125
f 208/134/126 212/135/127 214/136/128
f 209/137/129 212/138/130 211/139/131
f 210/140/132 212/141/133 213/142/134
f 215/143/135 219/144/136 221/145/137
f 216/146/138 219/147/139 218/148/140
f 217/149/141 219/150/142 220/151/143
f 222/152/144 226/153/145 228/154/146
f 223/155/147 226/156/148 225/157/149
f 224/158/150 226/159/151 227/160/152
f 229/161/153 233/162/154 235/163/155
f 230/164/156 233/165/157 232/166/158
f 231/167/159 233/165/160 234/168/161
f 236/169/162 240/170/163 242/171/164
f 237/172/165 240/173/166 239/174/167
f 238/175/168 240/173/169 241/176/170
f 243/177/171 247/178/172 249/179/173
f 244/180/174 247/181/175 246/182/176
f 245/183/177 247/184/178 248/185/179
f 250/186/180 254/187/181 256/188/182
f 251/189/183 254/190/184 253/191/185
f 252/192/186 254/193/187 255/194/188
f 257/195/189 261/196/190 263/197/191
f 258/198/192 261/199/193 260/200/194
f 259/201/195 261/202/196 262/203/197
f 264/204/198 268/205/199 270/206/200
f 265/207/201 268/208/202 267/209/203
f 266/210/204 268/211/205 269/212/206
f 271/213/207 275/214/208 277/215/209
f 272/216/210 275/217/211 274/218/212
f 273/219/213 275/220/214 276/221/215
f 278/222/216 282/223/217 284/224/218
f 279/225/219 282/226/220 281/227/221
f 280/228/222 282/229/223 283/230/224
f 285/231/225 289/232/226 291/233/227
f 286/234/228 289/235/229 288/236/230
f 287/237/231 289/238/232 290/239/233
f 292/240/234 296/241/235 298/242/236
f 293/243/237 296/244/238 295/245/239
f 294/246/240 296/247/241 297/248/242
f 299/249/243 303/250/244 305/251/245
f 300/252/246 303/253/247 302/254/248
f 301/255/249 303/256/250 304/257/251
f 306/258/252 310/259/253 312/260/254
f 307/261/255 310/262/256 309/263/257
f 308/264/258 310/265/259 311/266/260
f 313/267/261 317/268/262 319/269/263
f 314/270/264 317/271/265 316/272/266
f 315/273/267 317/271/268 318/274/269
f 320/275/270 324/276/271 326/277/272
f 321/278/273 324/279/274 323/280/275
f 322/281/276 324/282/277 325/283/278
f 327/284/279 331/285/280 333/286/281
f 328/287/282 331/288/283 330/289/284
f 329/290/285 331/291/286 332/292/287
f 334/293/288 338/294/289 340/295/290
f 335/296/291 338/297/292 337/298/293
f 336/299/294 338/300/295 339/301/296
f 341/302/297 345/303/298 347/304/299
f 342/305/300 345/306/301 344/307/302
f 343/308/303 345/309/304 346/310/305
f 348/311/306 352/312/307 354/313/308
f 349/314/309 352/315/310 351/316/311
f 350/317/312 352/318/313 353/319/314
f 355/320/315 359/321/316 361/322/317
f 356/323/318 359/324/319 358/325/320
f 357/326/321 359/324/322 360/327/323
f 362/328/324 366/329/325 368/330/326
f 363/331/327 366/332/328 365/333/329
f 364/334/330 366/332/331 367/335/332
f 369/336/333 373/337/334 375/338/335
f 370/339/336 373/340/337 372/341/338
f 371/342/339 373/340/340 374/343/341
f 376/344/342 380/345/343 382/346/344
f 377/347/345 380/348/346 379/349/347
f 378/350/348 380/348/349 381/351/350
f 383/352/351 387/353/352 389/354/353
f 384/355/354 387/356/355 386/357/356
f 385/358/357 387/356/358 388/359/359
f 390/360/360 394/361/361 396/362/362
f 391/363/363 394/364/364 393/365/365
f 392/366/366 394/367/367 395/368/368
f 397/369/369 401/370/370 403/371/371
f 398/372/372 401/373/373 400/374/374
f 399/375/375 401/376/376 402/377/377
f 404/378/378 408/379/379 410/380/380
f 405/381/381 408/382/382 407/383/383
f 406/384/384 408/385/385 409/386/386
f 411/387/387 415/388/388 417/389/389
f 412/390/390 415/391/391 414/392/392
f 413/393/393 415/394/394 416/395/395
f 418/396/396 422/397/397 424/398/398
f 419/399/399 422/400/400 421/401/401
f 420/402/402 422/400/403 423/403/404
f 425/404/315 429/405/316 431/406/317
f 426/407/318 429/408/319 428/409/320
f 427/410/321 429/408/322 430/411/323
f 432/412/324 436/413/325 438/414/326
f 433/415/327 436/416/328 435/417/329
f 434/418/330 436/416/331 437/419/332
f 439/420/333 443/421/334 445/422/335
f 440/423/336 443/424/337 442/425/338
f 441/426/339 443/424/340 444/427/341
f 446/428/405 450/429/343 452/430/344
f 447/431/345 450/432/346 449/433/347
f 448/434/348 450/432/349 451/435/350
f 453/436/351 457/437/352 459/438/353
f 454/439/354 457/440/355 456/441/356
f 455/442/357 457/440/358 458/443/359
f 460/444/360 464/445/361 466/446/362
f 461/447/363 464/448/364 463/449/365
f 462/450/366 464/451/367 465/452/406
f 467/453/407 471/454/370 473/455/371
f 468/456/372 471/457/373 470/458/374
f 469/459/375 471/460/376 472/461/377
f 474/462/378 478/463/379 480/464/380
f 475/465/381 478/466/382 477/467/383
f 476/468/384 478/469/385 479/470/386
f 481/471/387 485/472/388 487/473/389
f 482/474/390 485/475/391 484/476/392
f 483/477/393 485/478/394 486/479/395
f 488/480/396 492/481/397 494/482/398
f 489/483/399 492/484/400 491/485/401
f 490/486/402 492/484/403 493/487/404
f 10/488/408 9/2/2 6/1/1
f 9/4/2 11/489/409 7/5/4
f 10/488/408 16/490/6 12/491/410
f 16/8/6 11/489/409 12/492/410
f 27/493/411 26/14/10 23/13/9
f 26/14/10 28/494/412 24/16/12
f 27/493/411 33/20/14 29/495/413
f 33/20/14 28/494/412 29/495/413
f 4/496/414 22/497/415 5/498/416
f 22/497/415 3/499/417 5/498/416
f 17/500/418 36/501/419 35/502/420
f 19/503/421 34/504/422 36/501/419
f 44/505/423 43/24/18 40/23/17
f 43/24/18 45/506/424 41/26/20
f 44/505/423 50/507/22 46/508/425
f 50/507/22 45/506/424 46/508/425
f 35/502/420 53/509/426 52/510/427
f 36/501/419 51/511/428 53/509/426
f 21/512/429 39/513/430 38/514/431
f 22/497/415 37/515/432 39/516/430
f 61/517/433 60/32/26 57/31/25
f 60/32/26 62/518/434 58/34/28
f 61/517/433 67/36/30 63/519/435
f 67/36/30 62/518/434 63/519/435
f 52/510/427 70/520/436 69/521/437
f 53/509/426 68/522/438 70/520/436
f 55/523/439 39/516/430 56/524/440
f 39/516/430 54/525/441 56/524/440
f 78/526/442 77/40/34 74/39/33
f 77/40/34 79/527/443 75/42/36
f 78/526/442 84/44/38 80/528/444
f 84/44/38 79/527/443 80/528/444
f 69/521/437 87/529/445 86/530/446
f 70/520/436 85/531/447 87/529/445
f 55/523/439 73/532/448 72/533/449
f 73/532/448 54/525/441 71/534/450
f 95/535/451 94/48/42 91/47/41
f 94/50/42 96/536/452 92/51/44
f 95/535/451 101/537/46 97/538/453
f 101/54/46 96/536/452 97/539/453
f 86/530/446 104/540/454 103/541/455
f 87/529/445 102/542/456 104/540/454
f 72/533/449 90/543/457 89/544/458
f 90/543/457 71/534/450 88/545/459
f 112/546/460 111/60/50 108/59/49
f 111/60/50 113/547/461 109/62/52
f 112/546/460 118/66/54 114/548/462
f 118/66/54 113/547/461 114/548/462
f 89/544/458 107/549/463 106/550/464
f 90/543/457 105/551/465 107/549/463
f 119/552/466 104/540/454 102/542/456
f 121/553/467 103/541/455 104/540/454
f 129/554/468 128/70/58 125/69/57
f 128/70/58 130/555/469 126/72/60
f 129/554/468 135/556/62 131/557/470
f 135/556/62 130/555/469 131/557/470
f 106/558/464 124/559/471 123/560/472
f 107/549/463 122/561/473 124/562/471
f 119/552/466 138/563/474 121/553/467
f 138/563/474 120/564/475 121/553/467
f 146/565/476 145/78/66 142/77/65
f 145/78/66 147/566/477 143/80/68
f 146/565/476 152/82/70 148/567/478
f 152/82/70 147/566/477 148/567/478
f 153/568/479 138/563/474 136/569/480
f 155/570/481 137/571/482 138/563/474
f 139/572/483 124/562/471 122/561/473
f 141/573/484 123/574/472 124/562/471
f 163/575/485 162/86/74 159/85/73
f 162/86/74 164/576/486 160/88/76
f 163/575/485 169/90/78 165/577/487
f 169/90/78 164/576/486 165/577/487
f 170/578/488 155/570/481 153/568/479
f 172/579/489 154/580/490 155/570/481
f 156/581/491 141/573/484 139/572/483
f 158/582/492 140/583/493 141/573/484
f 170/578/488 19/503/421 172/579/489
f 172/579/489 17/500/418 171/584/494
f 4/496/414 158/582/492 156/581/491
f 5/498/416 157/585/495 158/582/492
f 188/112/102 179/586/496 175/587/87
f 179/95/83 187/109/99 173/93/81
f 181/104/93 200/588/497 196/589/114
f 200/119/110 180/101/90 194/117/108
f 174/96/84 185/108/98 178/100/89
f 185/108/98 175/99/87 178/100/89
f 189/115/105 199/124/116 195/120/111
f 199/124/116 188/112/102 196/123/114
f 202/128/120 193/590/498 189/115/105
f 193/111/101 201/125/117 187/109/99
f 210/140/132 197/122/113 214/591/499
f 197/592/500 208/134/126 214/136/128
f 203/131/123 213/593/134 209/137/129
f 213/142/134 202/128/120 210/140/132
f 216/146/138 207/594/501 203/131/123
f 218/595/502 201/125/117 207/127/119
f 209/137/129 228/596/503 224/158/150
f 211/597/504 222/152/144 228/154/146
f 217/149/141 227/598/152 223/155/147
f 227/160/152 216/146/138 224/158/150
f 230/164/156 221/599/505 217/149/141
f 221/145/137 229/161/153 215/143/135
f 223/155/147 242/600/506 238/175/168
f 225/601/507 236/169/162 242/171/164
f 231/167/159 241/176/170 237/172/165
f 241/176/170 230/164/156 238/175/168
f 231/602/159 176/98/86 235/603/508
f 235/163/155 173/93/81 229/161/153
f 182/604/96 239/174/167 186/605/509
f 239/606/510 180/101/90 186/103/92
f 243/177/171 260/607/511 257/195/189
f 260/200/194 245/183/177 258/198/192
f 250/186/180 248/608/512 244/180/174
f 248/185/179 252/192/186 245/183/177
f 251/189/183 270/206/200 255/609/513
f 255/194/188 266/210/204 252/192/186
f 265/207/201 262/203/197 269/610/514
f 262/611/515 266/210/204 269/212/206
f 257/195/189 288/612/516 285/231/225
f 263/613/517 286/234/228 288/236/230
f 292/240/234 267/614/518 264/204/198
f 267/209/203 294/246/240 265/207/201
f 293/243/237 290/239/233 297/615/519
f 290/616/520 294/246/240 297/248/242
f 271/213/207 291/233/227 274/617/521
f 291/618/522 272/216/210 274/218/212
f 278/222/216 295/619/523 292/240/234
f 284/620/524 293/243/237 295/245/239
f 279/225/219 276/221/215 283/621/525
f 276/622/526 280/228/222 283/230/224
f 271/213/207 246/623/527 243/177/171
f 277/624/528 244/180/174 246/182/176
f 251/189/183 281/625/529 278/222/216
f 253/626/530 279/225/219 281/227/221
f 299/249/243 316/627/531 313/267/261
f 305/628/532 314/629/264 316/630/266
f 306/258/252 304/631/533 300/252/246
f 312/632/534 301/255/249 304/257/251
f 307/261/255 326/277/272 311/633/535
f 326/634/536 308/264/258 311/266/260
f 321/278/273 318/274/269 325/635/537
f 318/636/538 322/281/276 325/283/278
f 313/267/261 344/637/539 341/302/297
f 344/307/302 315/273/267 342/305/300
f 348/311/306 323/638/540 320/275/270
f 354/639/541 321/278/273 323/280/275
f 349/314/309 346/310/305 353/640/542
f 346/641/543 350/317/312 353/319/314
f 327/284/279 347/304/299 330/642/544
f 347/643/545 328/287/282 330/289/284
f 334/293/288 351/644/546 348/311/306
f 351/316/311 336/299/294 349/314/309
f 335/296/291 332/292/287 339/645/547
f 332/646/548 336/299/294 339/301/296
f 327/284/279 302/647/549 299/249/243
f 333/648/550 300/252/246 302/254/248
f 307/261/255 337/649/551 334/293/288
f 309/650/552 335/296/291 337/298/293
f 357/326/321 372/651/338 361/652/553
f 372/653/554 355/320/315 361/322/317
f 363/654/327 382/655/555 378/350/348
f 365/656/556 376/344/342 382/346/344
f 356/323/318 367/335/332 360/327/557
f 367/335/558 357/326/321 360/327/323
f 371/342/339 381/351/559 377/347/345
f 381/351/350 370/339/336 378/350/348
f 371/342/339 386/657/356 375/658/560
f 386/659/561 369/336/333 375/338/335
f 392/366/366 379/349/347 396/660/562
f 396/362/362 376/344/342 390/360/360
f 385/358/357 395/661/563 391/363/363
f 388/662/564 392/366/366 395/368/368
f 398/372/372 389/663/565 385/358/357
f 400/664/566 383/352/351 389/354/353
f 406/384/384 393/365/365 410/665/567
f 393/666/568 404/378/378 410/380/380
f 399/375/375 409/667/569 405/381/381
f 409/386/386 398/372/372 406/384/384
f 399/375/375 414/392/392 403/668/570
f 414/669/571 397/369/369 403/371/371
f 405/381/381 424/670/572 420/402/402
f 407/671/573 418/396/396 424/398/398
f 413/393/393 423/672/574 419/673/399
f 423/403/404 412/390/390 420/402/402
f 413/393/393 358/325/320 417/674/575
f 358/675/576 411/387/387 417/389/389
f 419/673/399 368/676/577 364/334/330
f 368/330/326 418/396/396 362/328/324
f 427/410/321 442/677/338 431/678/553
f 431/406/317 439/420/333 425/404/315
f 448/434/348 435/679/329 452/680/555
f 435/681/556 446/428/405 452/430/344
f 426/407/318 437/419/332 430/411/557
f 437/419/558 427/410/321 430/411/323
f 441/426/339 451/435/559 447/431/345
f 451/435/350 440/423/336 448/434/348
f 454/682/354 445/683/560 441/426/339
f 456/684/561 439/420/333 445/422/335
f 462/450/366 449/433/347 466/685/562
f 449/686/578 460/444/360 466/446/362
f 455/442/357 465/687/563 461/447/363
f 465/452/406 454/682/354 462/450/366
f 455/442/357 470/458/374 459/688/565
f 470/689/566 453/436/351 459/438/353
f 461/447/363 480/690/567 476/468/384
f 480/464/380 460/444/360 474/462/378
f 469/459/375 479/691/569 475/465/381
f 479/470/386 468/456/372 476/468/384
f 469/459/375 484/476/392 473/692/570
f 473/455/371 481/471/387 467/453/407
f 475/465/381 494/693/572 490/486/402
f 494/482/398 474/462/378 488/480/396
f 483/477/393 493/694/574 489/695/399
f 493/487/404 482/474/390 490/486/402
f 426/407/318 487/696/575 483/477/393
f 428/697/576 481/471/387 487/473/389
f 434/418/330 491/698/401 438/699/577
f 491/700/579 432/412/324 438/414/326
f 8/3/3 21/512/429 24/16/12
f 4/496/414 1/701/580 20/702/581
f 156/581/491 1/701/580 4/496/414
f 161/703/75 3/499/417 7/704/4
f 163/575/485 7/5/4 11/489/409
f 6/1/1 28/494/412 10/488/408
f 163/575/485 13/7/5 167/92/80
f 10/488/408 30/705/13 14/706/8
f 168/707/79 13/708/5 18/709/582
f 15/12/7 30/17/13 34/504/422
f 2/710/583 17/500/418 35/502/420
f 2/710/583 171/584/494 17/500/418
f 25/15/11 38/514/431 41/26/20
f 20/702/581 1/701/580 37/515/432
f 27/493/411 41/26/20 45/506/424
f 27/493/411 47/711/21 31/21/16
f 32/19/15 47/27/21 51/511/428
f 2/710/583 35/502/420 52/510/427
f 42/25/19 55/712/439 58/713/28
f 37/515/432 1/701/580 54/525/441
f 40/23/17 62/714/434 44/505/423
f 44/715/423 64/35/29 48/716/24
f 49/29/23 64/717/29 68/522/438
f 2/710/583 52/510/427 69/521/437
f 59/33/27 72/718/449 75/42/36
f 54/525/441 1/701/580 71/534/450
f 57/31/25 79/527/443 61/517/433
f 61/517/433 81/43/37 65/38/32
f 66/37/31 81/43/37 85/719/447
f 2/710/583 69/521/437 86/530/446
f 76/720/35 89/544/458 92/721/44
f 71/534/450 1/701/580 88/545/459
f 74/39/33 96/536/452 78/526/442
f 78/526/442 98/53/45 82/46/40
f 83/722/39 98/723/45 102/542/456
f 2/710/583 86/530/446 103/541/455
f 93/49/43 106/558/464 109/62/52
f 88/545/459 1/701/580 105/551/465
f 91/47/41 113/547/461 95/535/451
f 95/535/451 115/724/53 99/725/48
f 100/58/47 115/63/53 119/552/466
f 2/710/583 103/541/455 120/564/475
f 110/61/51 123/560/472 126/72/60
f 105/551/465 1/701/580 122/561/473
f 108/59/49 130/555/469 112/546/460
f 116/67/56 130/555/469 132/726/61
f 117/65/55 132/73/61 136/569/480
f 2/710/583 120/564/475 137/571/482
f 127/71/59 140/727/493 143/728/68
f 122/561/473 1/701/580 139/572/483
f 129/554/468 143/728/68 147/729/477
f 133/730/64 147/566/477 149/81/69
f 134/75/63 149/731/69 153/568/479
f 2/710/583 137/571/482 154/580/490
f 144/79/67 157/732/495 160/88/76
f 139/572/483 1/701/580 156/581/491
f 142/77/65 164/576/486 146/565/476
f 146/565/476 166/89/77 150/84/72
f 151/83/71 166/89/77 170/733/488
f 2/710/583 154/580/490 171/584/494
f 187/109/99 215/143/135 229/161/153
f 175/99/87 196/589/114 188/734/102
f 237/735/165 174/96/84 231/602/159
f 180/101/90 222/152/144 208/134/126
f 189/115/105 210/140/132 202/128/120
f 203/131/123 224/158/150 216/146/138
f 223/155/147 230/164/156 217/149/141
f 257/195/189 271/213/207 243/177/171
f 252/192/186 258/198/192 245/183/177
f 279/225/219 244/180/174 273/219/213
f 264/204/198 278/222/216 292/240/234
f 265/207/201 286/234/228 259/201/195
f 293/243/237 272/216/210 287/237/231
f 341/302/297 299/249/243 313/267/261
f 308/264/258 314/629/264 301/255/249
f 335/296/291 300/252/246 329/290/285
f 348/311/306 307/261/255 334/293/288
f 321/278/273 342/305/300 315/273/267
f 349/314/309 328/287/282 343/308/303
f 369/336/333 397/369/369 411/387/387
f 363/331/327 370/736/336 357/326/321
f 419/673/399 356/323/318 413/393/393
f 362/328/324 404/378/378 390/360/360
f 377/347/345 384/737/354 371/342/339
f 391/363/363 398/372/372 385/358/357
f 405/381/381 412/390/390 399/375/375
f 439/420/333 467/453/407 481/471/387
f 433/415/327 440/738/336 427/410/321
f 489/695/399 426/407/318 483/477/393
f 432/412/324 474/462/378 460/444/360
f 447/431/345 454/682/354 441/426/339
f 461/447/363 468/456/372 455/442/357
f 475/465/381 482/474/390 469/459/375
f 173/93/81 176/739/584 177/94/82
f 174/96/84 178/100/89 177/97/85
f 175/99/87 179/740/496 177/97/88
f 180/101/90 183/741/585 184/102/91
f 181/104/93 185/108/98 184/105/94
f 182/107/96 186/742/509 184/105/97
f 187/109/99 190/743/586 191/110/100
f 188/112/102 192/116/107 191/113/103
f 189/115/105 193/590/498 191/113/106
f 194/117/108 197/592/500 198/118/109
f 195/120/111 199/124/116 198/121/112
f 196/123/114 200/744/497 198/121/115
f 201/125/117 204/745/587 205/126/118
f 202/128/120 206/746/125 205/129/121
f 203/131/123 207/594/501 205/132/124
f 208/134/126 211/597/504 212/135/127
f 209/137/129 213/593/134 212/138/130
f 210/140/132 214/591/499 212/141/133
f 215/143/135 218/595/502 219/144/136
f 216/146/138 220/747/143 219/147/139
f 217/149/141 221/599/505 219/150/142
f 222/152/144 225/601/507 226/153/145
f 223/155/147 227/598/152 226/156/148
f 224/158/150 228/596/503 226/159/151
f 229/161/153 232/748/588 233/162/154
f 230/164/156 234/168/161 233/165/157
f 231/167/159 235/749/508 233/165/160
f 236/169/162 239/606/510 240/170/163
f 237/172/165 241/176/170 240/173/166
f 238/175/168 242/600/506 240/173/169
f 243/177/171 246/623/527 247/178/172
f 244/180/174 248/608/512 247/181/175
f 245/183/177 249/750/589 247/184/178
f 250/186/180 253/626/530 254/187/181
f 251/189/183 255/609/513 254/190/184
f 252/192/186 256/751/590 254/193/187
f 257/195/189 260/607/511 261/196/190
f 258/198/192 262/611/515 261/199/193
f 259/201/195 263/613/517 261/202/196
f 264/204/198 267/614/518 268/205/199
f 265/207/201 269/610/514 268/208/202
f 266/210/204 270/752/591 268/211/205
f 271/213/207 274/617/521 275/214/208
f 272/216/210 276/622/526 275/217/211
f 273/219/213 277/624/528 275/220/214
f 278/222/216 281/625/529 282/223/217
f 279/225/219 283/621/525 282/226/220
f 280/228/222 284/620/524 282/229/223
f 285/231/225 288/612/516 289/232/226
f 286/234/228 290/616/520 289/235/229
f 287/237/231 291/618/522 289/238/232
f 292/240/234 295/619/523 296/241/235
f 293/243/237 297/615/519 296/244/238
f 294/246/240 298/753/592 296/247/241
f 299/249/243 302/647/549 303/250/244
f 300/252/246 304/631/533 303/253/247
f 301/255/249 305/628/532 303/256/250
f 306/258/252 309/650/552 310/259/253
f 307/261/255 311/633/535 310/262/256
f 308/264/258 312/632/534 310/265/259
f 313/267/261 316/627/531 317/268/262
f 314/270/264 318/274/538 317/271/265
f 315/273/267 319/754/593 317/271/268
f 320/275/270 323/638/540 324/276/271
f 321/278/273 325/635/537 324/279/274
f 322/281/276 326/634/536 324/282/277
f 327/284/279 330/642/544 331/285/280
f 328/287/282 332/646/548 331/288/283
f 329/290/285 333/648/550 331/291/286
f 334/293/288 337/649/551 338/294/289
f 335/296/291 339/645/547 338/297/292
f 336/299/294 340/755/594 338/300/295
f 341/302/297 344/637/539 345/303/298
f 342/305/300 346/641/543 345/306/301
f 343/308/303 347/643/545 345/309/304
f 348/311/306 351/644/546 352/312/307
f 349/314/309 353/640/542 352/315/310
f 350/317/312 354/639/541 352/318/313
f 355/320/315 358/675/576 359/321/316
f 356/323/318 360/327/557 359/324/319
f 357/326/321 361/652/553 359/324/322
f 362/328/324 365/656/556 366/329/325
f 363/331/327 367/335/558 366/332/328
f 364/334/330 368/676/577 366/332/331
f 369/336/333 372/653/554 373/337/334
f 370/339/336 374/343/595 373/340/337
f 371/342/339 375/658/560 373/340/340
f 376/344/342 379/756/578 380/345/343
f 377/347/345 381/351/559 380/348/346
f 378/350/348 382/655/555 380/348/349
f 383/352/351 386/659/561 387/353/352
f 384/355/354 388/359/564 387/356/355
f 385/358/357 389/663/565 387/356/358
f 390/360/360 393/666/568 394/361/361
f 391/363/363 395/661/563 394/364/364
f 392/366/366 396/660/562 394/367/367
f 397/369/369 400/664/566 401/370/370
f 398/372/372 402/757/596 401/373/373
f 399/375/375 403/668/570 401/376/376
f 404/378/378 407/671/573 408/379/379
f 405/381/381 409/667/569 408/382/382
f 406/384/384 410/665/567 408/385/385
f 411/387/387 414/669/571 415/388/388
f 412/390/390 416/758/597 415/391/391
f 413/393/393 417/674/575 415/394/394
f 418/396/396 421/759/579 422/397/397
f 419/399/399 423/403/574 422/400/400
f 420/402/402 424/670/572 422/400/403
f 425/404/315 428/697/576 429/405/316
f 426/407/318 430/411/557 429/408/319
f 427/410/321 431/678/553 429/408/322
f 432/412/324 435/681/556 436/413/325
f 433/415/327 437/419/558 436/416/328
f 434/418/330 438/699/577 436/416/331
f 439/420/333 442/760/554 443/421/334
f 440/423/336 444/427/595 443/424/337
f 441/426/339 445/683/560 443/424/340
f 446/428/405 449/686/578 450/429/343
f 447/431/345 451/435/559 450/432/346
f 448/434/348 452/680/555 450/432/349
f 453/436/351 456/684/561 457/437/352
f 454/439/354 458/443/564 457/440/355
f 455/442/357 459/688/565 457/440/358
f 460/444/360 463/761/568 464/445/361
f 461/447/363 465/687/563 464/448/364
f 462/450/366 466/685/562 464/451/367
f 467/453/407 470/689/566 471/454/370
f 468/456/372 472/762/596 471/457/373
f 469/459/375 473/692/570 471/460/376
f 474/462/378 477/763/573 478/463/379
f 475/465/381 479/691/569 478/466/382
f 476/468/384 480/690/567 478/469/385
f 481/471/387 484/764/571 485/472/388
f 482/474/390 486/765/597 485/475/391
f 483/477/393 487/696/575 485/478/394
f 488/480/396 491/700/579 492/481/397
f 489/483/399 493/487/574 492/484/400
f 490/486/402 494/693/572 492/484/403
f 10/488/408 12/491/410 9/2/2
f 9/4/2 12/492/410 11/489/409
f 10/488/408 14/706/8 16/490/6
f 16/8/6 13/7/5 11/489/409
f 27/493/411 29/495/413 26/14/10
f 26/14/10 29/495/413 28/494/412
f 27/493/411 31/21/16 33/20/14
f 33/20/14 30/705/13 28/494/412
f 4/496/414 20/702/581 22/497/415
f 22/497/415 21/766/429 3/499/417
f 17/500/418 19/503/421 36/501/419
f 19/503/421 18/709/582 34/504/422
f 44/505/423 46/508/425 43/24/18
f 43/24/18 46/508/425 45/506/424
f 44/505/423 48/767/24 50/507/22
f 50/507/22 47/711/21 45/506/424
f 35/502/420 36/501/419 53/509/426
f 36/501/419 34/504/422 51/511/428
f 21/512/429 22/768/415 39/513/430
f 22/497/415 20/702/581 37/515/432
f 61/517/433 63/519/435 60/32/26
f 60/32/26 63/519/435 62/518/434
f 61/517/433 65/38/32 67/36/30
f 67/36/30 64/35/29 62/518/434
f 52/510/427 53/509/426 70/520/436
f 53/509/426 51/511/428 68/522/438
f 55/523/439 38/769/431 39/516/430
f 39/516/430 37/515/432 54/525/441
f 78/526/442 80/528/444 77/40/34
f 77/40/34 80/528/444 79/527/443
f 78/526/442 82/46/40 84/44/38
f 84/44/38 81/43/37 79/527/443
f 69/521/437 70/520/436 87/529/445
f 70/520/436 68/522/438 85/531/447
f 55/523/439 56/524/440 73/532/448
f 73/532/448 56/524/440 54/525/441
f 95/535/451 97/538/453 94/48/42
f 94/50/42 97/539/453 96/536/452
f 95/535/451 99/725/48 101/537/46
f 101/54/46 98/53/45 96/536/452
f 86/530/446 87/529/445 104/540/454
f 87/529/445 85/531/447 102/542/456
f 72/533/449 73/532/448 90/543/457
f 90/543/457 73/532/448 71/534/450
f 112/546/460 114/548/462 111/60/50
f 111/60/50 114/548/462 113/547/461
f 112/546/460 116/67/56 118/66/54
f 118/66/54 115/724/53 113/547/461
f 89/544/458 90/543/457 107/549/463
f 90/543/457 88/545/459 105/551/465
f 119/552/466 121/553/467 104/540/454
f 121/553/467 120/564/475 103/541/455
f 129/554/468 131/557/470 128/70/58
f 128/70/58 131/557/470 130/555/469
f 129/554/468 133/770/64 135/556/62
f 135/556/62 132/726/61 130/555/469
f 106/558/464 107/771/463 124/559/471
f 107/549/463 105/551/465 122/561/473
f 119/552/466 136/569/480 138/563/474
f 138/563/474 137/571/482 120/564/475
f 146/565/476 148/567/478 145/78/66
f 145/78/66 148/567/478 147/566/477
f 146/565/476 150/84/72 152/82/70
f 152/82/70 149/81/69 147/566/477
f 153/568/479 155/570/481 138/563/474
f 155/570/481 154/580/490 137/571/482
f 139/572/483 141/573/484 124/562/471
f 141/573/484 140/583/493 123/574/472
f 163/575/485 165/577/487 162/86/74
f 162/86/74 165/577/487 164/576/486
f 163/575/485 167/92/80 169/90/78
f 169/90/78 166/89/77 164/576/486
f 170/578/488 172/579/489 155/570/481
f 172/579/489 171/584/494 154/580/490
f 156/581/491 158/582/492 141/573/484
f 158/582/492 157/585/495 140/583/493
f 170/578/488 18/709/582 19/503/421
f 172/579/489 19/503/421 17/500/418
f 4/496/414 5/498/416 158/582/492
f 5/498/416 3/499/417 157/585/495
f 188/112/102 190/114/104 179/586/496
f 179/95/83 190/743/586 187/109/99
f 181/104/93 183/106/95 200/588/497
f 200/119/110 183/741/585 180/101/90
f 174/96/84 182/107/96 185/108/98
f 185/108/98 181/104/93 175/99/87
f 189/115/105 192/116/107 199/124/116
f 199/124/116 192/116/107 188/112/102
f 202/128/120 204/130/122 193/590/498
f 193/111/101 204/745/587 201/125/117
f 210/140/132 195/120/111 197/122/113
f 197/592/500 194/117/108 208/134/126
f 203/131/123 206/133/125 213/593/134
f 213/142/134 206/746/125 202/128/120
f 216/146/138 218/148/140 207/594/501
f 218/595/502 215/143/135 201/125/117
f 209/137/129 211/139/131 228/596/503
f 211/597/504 208/134/126 222/152/144
f 217/149/141 220/151/143 227/598/152
f 227/160/152 220/747/143 216/146/138
f 230/164/156 232/166/158 221/599/505
f 221/145/137 232/748/588 229/161/153
f 223/155/147 225/157/149 242/600/506
f 225/601/507 222/152/144 236/169/162
f 231/167/159 234/168/161 241/176/170
f 241/176/170 234/168/161 230/164/156
f 231/602/159 174/96/84 176/98/86
f 235/163/155 176/739/584 173/93/81
f 182/604/96 237/172/165 239/174/167
f 239/606/510 236/169/162 180/101/90
f 243/177/171 249/179/173 260/607/511
f 260/200/194 249/750/589 245/183/177
f 250/186/180 256/188/182 248/608/512
f 248/185/179 256/751/590 252/192/186
f 251/189/183 264/204/198 270/206/200
f 255/194/188 270/752/591 266/210/204
f 265/207/201 259/201/195 262/203/197
f 262/611/515 258/198/192 266/210/204
f 257/195/189 263/197/191 288/612/516
f 263/613/517 259/201/195 286/234/228
f 292/240/234 298/242/236 267/614/518
f 267/209/203 298/753/592 294/246/240
f 293/243/237 287/237/231 290/239/233
f 290/616/520 286/234/228 294/246/240
f 271/213/207 285/231/225 291/233/227
f 291/618/522 287/237/231 272/216/210
f 278/222/216 284/224/218 295/619/523
f 284/620/524 280/228/222 293/243/237
f 279/225/219 273/219/213 276/221/215
f 276/622/526 272/216/210 280/228/222
f 271/213/207 277/215/209 246/623/527
f 277/624/528 273/219/213 244/180/174
f 251/189/183 253/191/185 281/625/529
f 253/626/530 250/186/180 279/225/219
f 299/249/243 305/251/245 316/627/531
f 305/628/532 301/255/249 314/629/264
f 306/258/252 312/260/254 304/631/533
f 312/632/534 308/264/258 301/255/249
f 307/261/255 320/275/270 326/277/272
f 326/634/536 322/281/276 308/264/258
f 321/278/273 315/273/267 318/274/269
f 318/636/538 314/629/264 322/281/276
f 313/267/261 319/269/263 344/637/539
f 344/307/302 319/754/593 315/273/267
f 348/311/306 354/313/308 323/638/540
f 354/639/541 350/317/312 321/278/273
f 349/314/309 343/308/303 346/310/305
f 346/641/543 342/305/300 350/317/312
f 327/284/279 341/302/297 347/304/299
f 347/643/545 343/308/303 328/287/282
f 334/293/288 340/295/290 351/644/546
f 351/316/311 340/755/594 336/299/294
f 335/296/291 329/290/285 332/292/287
f 332/646/548 328/287/282 336/299/294
f 327/284/279 333/286/281 302/647/549
f 333/648/550 329/290/285 300/252/246
f 307/261/255 309/263/257 337/649/551
f 309/650/552 306/258/252 335/296/291
f 357/326/321 370/736/336 372/651/338
f 372/653/554 369/336/333 355/320/315
f 363/654/327 365/772/329 382/655/555
f 365/656/556 362/328/324 376/344/342
f 356/323/318 364/334/330 367/335/332
f 367/335/558 363/331/327 357/326/321
f 371/342/339 374/343/341 381/351/559
f 381/351/350 374/343/595 370/339/336
f 371/342/339 384/737/354 386/657/356
f 386/659/561 383/352/351 369/336/333
f 392/366/366 377/347/345 379/349/347
f 396/362/362 379/756/578 376/344/342
f 385/358/357 388/359/359 395/661/563
f 388/662/564 384/737/354 392/366/366
f 398/372/372 400/374/374 389/663/565
f 400/664/566 397/369/369 383/352/351
f 406/384/384 391/363/363 393/365/365
f 393/666/568 390/360/360 404/378/378
f 399/375/375 402/377/377 409/667/569
f 409/386/386 402/757/596 398/372/372
f 399/375/375 412/390/390 414/392/392
f 414/669/571 411/387/387 397/369/369
f 405/381/381 407/383/383 424/670/572
f 407/671/573 404/378/378 418/396/396
f 413/393/393 416/395/395 423/672/574
f 423/403/404 416/758/597 412/390/390
f 413/393/393 356/323/318 358/325/320
f 358/675/576 355/320/315 411/387/387
f 419/673/399 421/773/401 368/676/577
f 368/330/326 421/759/579 418/396/396
f 427/410/321 440/738/336 442/677/338
f 431/406/317 442/760/554 439/420/333
f 448/434/348 433/774/327 435/679/329
f 435/681/556 432/412/324 446/428/405
f 426/407/318 434/418/330 437/419/332
f 437/419/558 433/415/327 427/410/321
f 441/426/339 444/427/341 451/435/559
f 451/435/350 444/427/595 440/423/336
f 454/682/354 456/775/356 445/683/560
f 456/684/561 453/436/351 439/420/333
f 462/450/366 447/431/345 449/433/347
f 449/686/578 446/428/405 460/444/360
f 455/442/357 458/443/359 465/687/563
f 465/452/406 458/776/564 454/682/354
f 455/442/357 468/456/372 470/458/374
f 470/689/566 467/453/407 453/436/351
f 461/447/363 463/449/365 480/690/567
f 480/464/380 463/761/568 460/444/360
f 469/459/375 472/461/377 479/691/569
f 479/470/386 472/762/596 468/456/372
f 469/459/375 482/474/390 484/476/392
f 473/455/371 484/764/571 481/471/387
f 475/465/381 477/467/383 494/693/572
f 494/482/398 477/763/573 474/462/378
f 483/477/393 486/479/395 493/694/574
f 493/487/404 486/765/597 482/474/390
f 426/407/318 428/409/320 487/696/575
f 428/697/576 425/404/315 481/471/387
f 434/418/330 489/695/399 491/698/401
f 491/700/579 488/480/396 432/412/324
f 24/16/12 6/1/1 8/3/3
f 8/3/3 3/777/417 21/512/429
f 21/512/429 25/15/11 24/16/12
f 7/704/4 159/778/73 161/703/75
f 161/703/75 157/585/495 3/499/417
f 3/499/417 8/779/3 7/704/4
f 163/575/485 159/85/73 7/5/4
f 6/1/1 24/16/12 28/494/412
f 163/575/485 11/489/409 13/7/5
f 10/488/408 28/494/412 30/705/13
f 18/709/582 170/578/488 168/707/79
f 168/707/79 167/780/80 13/708/5
f 13/708/5 15/12/7 18/709/582
f 34/504/422 18/709/582 15/12/7
f 15/12/7 14/11/8 30/17/13
f 30/17/13 32/19/15 34/504/422
f 41/26/20 23/13/9 25/15/11
f 25/15/11 21/512/429 38/514/431
f 38/514/431 42/25/19 41/26/20
f 27/493/411 23/13/9 41/26/20
f 27/493/411 45/506/424 47/711/21
f 51/511/428 34/504/422 32/19/15
f 32/19/15 31/781/16 47/27/21
f 47/27/21 49/29/23 51/511/428
f 58/713/28 40/23/17 42/25/19
f 42/25/19 38/514/431 55/712/439
f 55/712/439 59/782/27 58/713/28
f 40/23/17 58/713/28 62/714/434
f 44/715/423 62/518/434 64/35/29
f 68/522/438 51/511/428 49/29/23
f 49/29/23 48/30/24 64/717/29
f 64/717/29 66/783/31 68/522/438
f 75/42/36 57/31/25 59/33/27
f 59/33/27 55/784/439 72/718/449
f 72/718/449 76/41/35 75/42/36
f 57/31/25 75/42/36 79/527/443
f 61/517/433 79/527/443 81/43/37
f 85/719/447 68/785/438 66/37/31
f 66/37/31 65/38/32 81/43/37
f 81/43/37 83/45/39 85/719/447
f 92/721/44 74/786/33 76/720/35
f 76/720/35 72/533/449 89/544/458
f 89/544/458 93/787/43 92/721/44
f 74/39/33 92/51/44 96/536/452
f 78/526/442 96/536/452 98/53/45
f 102/542/456 85/531/447 83/722/39
f 83/722/39 82/788/40 98/723/45
f 98/723/45 100/58/47 102/542/456
f 109/62/52 91/47/41 93/49/43
f 93/49/43 89/789/458 106/558/464
f 106/558/464 110/61/51 109/62/52
f 91/47/41 109/62/52 113/547/461
f 95/535/451 113/547/461 115/724/53
f 119/552/466 102/542/456 100/58/47
f 100/58/47 99/57/48 115/63/53
f 115/63/53 117/65/55 119/552/466
f 126/72/60 108/59/49 110/61/51
f 110/61/51 106/558/464 123/560/472
f 123/560/472 127/71/59 126/72/60
f 108/59/49 126/72/60 130/555/469
f 116/67/56 112/546/460 130/555/469
f 136/569/480 119/552/466 117/65/55
f 117/65/55 116/790/56 132/73/61
f 132/73/61 134/75/63 136/569/480
f 143/728/68 125/69/57 127/71/59
f 127/71/59 123/560/472 140/727/493
f 140/727/493 144/791/67 143/728/68
f 129/554/468 125/69/57 143/728/68
f 133/730/64 129/792/468 147/566/477
f 153/568/479 136/569/480 134/75/63
f 134/75/63 133/76/64 149/731/69
f 149/731/69 151/793/71 153/568/479
f 160/88/76 142/77/65 144/79/67
f 144/79/67 140/794/493 157/732/495
f 157/732/495 161/87/75 160/88/76
f 142/77/65 160/88/76 164/576/486
f 146/565/476 164/576/486 166/89/77
f 170/733/488 153/795/479 151/83/71
f 151/83/71 150/84/72 166/89/77
f 166/89/77 168/91/79 170/733/488
f 229/161/153 173/93/81 187/109/99
f 187/109/99 201/125/117 215/143/135
f 175/99/87 181/104/93 196/589/114
f 237/735/165 182/107/96 174/96/84
f 208/134/126 194/117/108 180/101/90
f 180/101/90 236/169/162 222/152/144
f 189/115/105 195/120/111 210/140/132
f 203/131/123 209/137/129 224/158/150
f 223/155/147 238/175/168 230/164/156
f 257/195/189 285/231/225 271/213/207
f 252/192/186 266/210/204 258/198/192
f 279/225/219 250/186/180 244/180/174
f 264/204/198 251/189/183 278/222/216
f 265/207/201 294/246/240 286/234/228
f 293/243/237 280/228/222 272/216/210
f 341/302/297 327/284/279 299/249/243
f 308/264/258 322/281/276 314/629/264
f 335/296/291 306/258/252 300/252/246
f 348/311/306 320/275/270 307/261/255
f 321/278/273 350/317/312 342/305/300
f 349/314/309 336/299/294 328/287/282
f 411/387/387 355/320/315 369/336/333
f 369/336/333 383/352/351 397/369/369
f 363/331/327 378/796/348 370/736/336
f 419/673/399 364/334/330 356/323/318
f 390/360/360 376/344/342 362/328/324
f 362/328/324 418/396/396 404/378/378
f 377/347/345 392/366/366 384/737/354
f 391/363/363 406/384/384 398/372/372
f 405/381/381 420/402/402 412/390/390
f 481/471/387 425/404/315 439/420/333
f 439/420/333 453/436/351 467/453/407
f 433/415/327 448/797/348 440/738/336
f 489/695/399 434/418/330 426/407/318
f 460/444/360 446/428/405 432/412/324
f 432/412/324 488/480/396 474/462/378
f 447/431/345 462/450/366 454/682/354
f 461/447/363 476/468/384 468/456/372
f 475/465/381 490/486/402 482/474/390
