# Asterra infantry
o unit_militia
v -0.35000 0.00000 -0.25000
v 0.35000 0.00000 -0.25000
v 0.35000 0.00000 0.25000
v -0.35000 0.00000 0.25000
v -0.35000 1.40000 -0.25000
v 0.35000 1.40000 -0.25000
v 0.35000 1.40000 0.25000
v -0.35000 1.40000 0.25000
v -0.22500 1.40000 -0.22500
v 0.22500 1.40000 -0.22500
v 0.22500 1.40000 0.22500
v -0.22500 1.40000 0.22500
v -0.22500 1.85000 -0.22500
v 0.22500 1.85000 -0.22500
v 0.22500 1.85000 0.22500
v -0.22500 1.85000 0.22500
v 0.37500 0.70000 -0.60000
v 0.52500 0.70000 -0.60000
v 0.52500 0.70000 0.60000
v 0.37500 0.70000 0.60000
v 0.37500 0.85000 -0.60000
v 0.52500 0.85000 -0.60000
v 0.52500 0.85000 0.60000
v 0.37500 0.85000 0.60000
f 1 2 3
f 1 3 4
f 5 8 7
f 5 7 6
f 1 5 6
f 1 6 2
f 4 3 7
f 4 7 8
f 1 4 8
f 1 8 5
f 2 6 7
f 2 7 3
f 9 10 11
f 9 11 12
f 13 16 15
f 13 15 14
f 9 13 14
f 9 14 10
f 12 11 15
f 12 15 16
f 9 12 16
f 9 16 13
f 10 14 15
f 10 15 11
f 17 18 19
f 17 19 20
f 21 24 23
f 21 23 22
f 17 21 22
f 17 22 18
f 20 19 23
f 20 23 24
f 17 20 24
f 17 24 21
f 18 22 23
f 18 23 19
