# Blender 5.2.0 LTS
# www.blender.org
o unit_dryad
v -0.395000 1.550000 -0.395000
v 0.395000 1.550000 -0.395000
v 0.395000 1.550000 0.395000
v -0.395000 1.550000 0.395000
v -0.395000 1.950000 -0.395000
v 0.395000 1.950000 -0.395000
v 0.395000 1.950000 0.395000
v -0.395000 1.950000 0.395000
v -0.252110 0.013476 -0.206570
v -0.225151 -0.000000 -0.184214
v -0.262735 0.051825 -0.224889
v -0.264475 0.024146 -0.209598
v -0.275000 0.054341 -0.209717
v -0.256076 0.024441 -0.216390
v -0.262735 0.051825 -0.224889
v -0.262600 0.051823 -0.225000
v -0.257480 0.050967 -0.225000
v -0.246836 0.036045 -0.225000
v 0.261937 0.051592 -0.225000
v 0.255606 0.024204 -0.216290
v 0.246220 0.034704 -0.224167
v 0.246159 0.035827 -0.225000
v 0.262513 0.051584 -0.224558
v 0.275000 0.054341 -0.209717
v 0.264436 0.024067 -0.209520
v 0.225301 -0.000000 -0.184031
v 0.252235 0.013485 -0.206408
v 0.264386 0.023903 0.209033
v 0.275000 0.054017 0.208562
v 0.262836 0.051567 0.224260
v 0.255563 0.024185 0.216317
v 0.261937 0.051596 0.225000
v 0.246159 0.035827 0.225000
v 0.246220 0.034704 0.224163
v 0.225151 0.000000 0.184214
v 0.252079 0.013523 0.206506
v -0.263104 0.051810 0.224576
v -0.275000 0.054017 0.208562
v -0.264462 0.023949 0.209013
v -0.225301 0.000000 0.184031
v -0.252182 0.013498 0.206423
v -0.262735 0.051829 0.224897
v -0.256081 0.024391 0.216313
v -0.246836 0.036045 0.225000
v -0.257480 0.050967 0.225000
v -0.262600 0.051823 0.225000
v -0.262836 1.548433 -0.224260
v -0.275000 1.545984 -0.208562
v -0.264386 1.576097 -0.209033
v -0.225151 1.600000 -0.184214
v -0.252080 1.586477 -0.206506
v -0.261937 1.548404 -0.225000
v -0.255563 1.575815 -0.216317
v -0.246220 1.565296 -0.224164
v -0.246159 1.564173 -0.225000
v 0.225301 1.600000 -0.184031
v 0.252182 1.586502 -0.206423
v 0.263104 1.548190 -0.224576
v 0.264462 1.576051 -0.209013
v 0.275000 1.545984 -0.208562
v 0.256081 1.575609 -0.216313
v 0.262735 1.548171 -0.224897
v 0.262600 1.548177 -0.225000
v 0.257480 1.549033 -0.225000
v 0.246836 1.563955 -0.225000
v 0.262735 1.548175 0.224889
v 0.256076 1.575559 0.216390
v 0.246836 1.563955 0.225000
v 0.257480 1.549033 0.225000
v 0.262600 1.548177 0.225000
v 0.262735 1.548175 0.224889
v 0.275000 1.545659 0.209717
v 0.264475 1.575854 0.209598
v 0.225151 1.600000 0.184214
v 0.252110 1.586524 0.206570
v -0.264436 1.575933 0.209520
v -0.275000 1.545659 0.209717
v -0.262513 1.548416 0.224558
v -0.255606 1.575796 0.216290
v -0.261937 1.548408 0.225000
v -0.246159 1.564173 0.225000
v -0.246220 1.565296 0.224167
v -0.225301 1.600000 0.184031
v -0.252235 1.586515 0.206408
v -0.422896 1.584547 -0.390997
v -0.409287 1.558095 -0.392086
v -0.425000 1.575931 -0.369897
v -0.390622 1.584618 -0.423270
v -0.369897 1.575931 -0.425000
v -0.392086 1.558095 -0.409287
v 0.392176 1.558399 -0.409400
v 0.370244 1.576670 -0.425000
v 0.390847 1.585100 -0.423270
v 0.422908 1.584582 -0.390998
v 0.425000 1.575931 -0.369897
v 0.409392 1.558154 -0.392065
v 0.409504 1.558459 0.392155
v 0.425000 1.576670 0.370244
v 0.423258 1.585128 0.390847
v 0.391197 1.585057 0.422908
v 0.370244 1.576670 0.425000
v 0.392155 1.558459 0.409504
v -0.423269 1.585100 0.390846
v -0.425000 1.576670 0.370244
v -0.409400 1.558399 0.392176
v -0.390998 1.584582 0.422908
v -0.392065 1.558154 0.409392
v -0.369897 1.575931 0.425000
v -0.423258 1.914872 -0.390848
v -0.425000 1.923330 -0.370245
v -0.409504 1.941541 -0.392156
v -0.391197 1.914943 -0.422908
v -0.392155 1.941541 -0.409504
v -0.370244 1.923330 -0.425000
v 0.409400 1.941601 -0.392176
v 0.425000 1.923330 -0.370245
v 0.423269 1.914900 -0.390848
v 0.390998 1.915418 -0.422909
v 0.369897 1.924069 -0.425000
v 0.392065 1.941846 -0.409392
v 0.392086 1.941905 0.409287
v 0.369897 1.924069 0.425000
v 0.390622 1.915382 0.423270
v 0.422896 1.915453 0.390996
v 0.425000 1.924069 0.369897
v 0.409287 1.941905 0.392086
v -0.422908 1.915418 0.390997
v -0.409392 1.941846 0.392064
v -0.425000 1.924069 0.369897
v -0.390847 1.914900 0.423269
v -0.370244 1.923330 0.425000
v -0.392176 1.941601 0.409400
v -0.179229 1.900000 -0.179229
v -0.202641 1.914755 -0.202641
v -0.225000 1.939433 -0.174300
v -0.210108 1.918988 -0.199559
v -0.174300 1.939433 -0.225000
v -0.199559 1.918988 -0.210108
v 0.174478 1.939663 -0.225000
v 0.199710 1.919160 -0.210112
v 0.225000 1.939433 -0.174300
v 0.210106 1.919000 -0.199564
v 0.179229 1.900000 -0.179229
v 0.202639 1.914757 -0.202634
v 0.225000 1.939663 0.174478
v 0.210110 1.919150 0.199693
v 0.174478 1.939663 0.225000
v 0.199693 1.919150 0.210110
v 0.202631 1.914759 0.202631
v 0.179229 1.900000 0.179228
v -0.225000 1.939663 0.174478
v -0.210112 1.919159 0.199710
v -0.179229 1.900000 0.179228
v -0.202633 1.914757 0.202639
v -0.174300 1.939433 0.225000
v -0.199564 1.919000 0.210106
v -0.225000 2.210337 -0.174479
v -0.210110 2.230850 -0.199694
v -0.202631 2.235241 -0.202631
v -0.179229 2.250000 -0.179229
v -0.174478 2.210337 -0.225000
v -0.199694 2.230850 -0.210110
v 0.179229 2.250000 -0.179229
v 0.202634 2.235243 -0.202639
v 0.225000 2.210337 -0.174479
v 0.210112 2.230840 -0.199711
v 0.199564 2.231000 -0.210106
v 0.174300 2.210567 -0.225000
v 0.199559 2.231012 0.210107
v 0.174300 2.210567 0.225000
v 0.210108 2.231012 0.199559
v 0.225000 2.210567 0.174300
v 0.202641 2.235245 0.202641
v 0.179229 2.250000 0.179228
v -0.225000 2.210567 0.174300
v -0.210106 2.231000 0.199563
v -0.174478 2.210337 0.225000
v -0.199710 2.230840 0.210111
v -0.179229 2.250000 0.179228
v -0.202639 2.235243 0.202633
vn -0.2705 -0.9240 -0.2705
vn 0.2741 -0.9218 0.2741
vn -0.2749 -0.9229 0.2697
vn 0.2697 -0.9229 -0.2749
vn -0.2741 0.9218 -0.2741
vn 0.2705 0.9240 0.2705
vn 0.2749 0.9229 -0.2697
vn -0.2697 0.9229 0.2749
vn -0.8654 -0.1773 0.4687
vn -0.7591 -0.5482 -0.3510
vn -0.9374 -0.1498 -0.3143
vn -0.7757 -0.5119 0.3690
vn -0.0095 -0.0097 -0.9999
vn -0.1026 -0.3191 -0.9421
vn 0.3578 -0.1390 -0.9234
vn 0.1612 -0.5514 -0.8185
vn 0.1882 -0.3587 -0.9143
vn 0.6764 -0.1734 -0.7158
vn 0.9347 -0.1494 -0.3225
vn 0.7567 -0.5469 -0.3581
vn 0.7606 -0.5494 0.3458
vn 0.9409 -0.1502 0.3037
vn 0.7006 -0.1728 0.6923
vn 0.3725 -0.1382 0.9177
vn 0.1604 -0.5510 0.8190
vn 0.2784 -0.5739 0.7701
vn -0.7151 -0.1744 0.6769
vn -0.9435 -0.1505 0.2952
vn -0.7637 -0.5495 0.3389
vn -0.3237 -0.5579 0.7642
vn -0.0585 -0.1205 0.9910
vn -0.3380 -0.1692 0.9258
vn -0.7006 0.1728 -0.6923
vn -0.9409 0.1502 -0.3037
vn -0.7606 0.5494 -0.3458
vn -0.3725 0.1382 -0.9177
vn -0.1611 0.5512 -0.8186
vn -0.1887 0.3597 -0.9138
vn 0.7151 0.1744 -0.6769
vn 0.7637 0.5495 -0.3389
vn 0.9435 0.1505 -0.2952
vn 0.5471 0.2357 -0.8032
vn 0.0089 0.0090 -0.9999
vn 0.1032 0.3203 -0.9417
vn 0.3132 0.5557 0.7701
vn 0.0581 0.1198 0.9911
vn 0.3524 0.1672 0.9208
vn 0.5253 0.7454 0.4104
vn 0.9374 0.1498 0.3143
vn 0.7591 0.5482 0.3510
vn -0.7567 0.5469 0.3581
vn -0.9347 0.1494 0.3225
vn -0.6764 0.1734 0.7158
vn -0.3578 0.1390 0.9234
vn -0.1612 0.5514 0.8185
vn -0.2674 0.5744 0.7737
vn -0.8841 -0.1688 -0.4358
vn -0.6887 -0.6408 -0.3391
vn -0.9357 -0.3458 -0.0693
vn -0.4282 -0.1695 -0.8876
vn -0.0653 -0.3477 -0.9353
vn -0.3394 -0.6413 -0.6882
vn 0.3388 -0.6354 -0.6938
vn 0.0651 -0.3400 -0.9382
vn 0.4286 -0.1680 -0.8877
vn 0.8848 -0.1682 -0.4345
vn 0.9361 -0.3449 -0.0691
vn 0.6889 -0.6403 -0.3396
vn 0.6942 -0.6348 0.3394
vn 0.9384 -0.3393 0.0651
vn 0.8879 -0.1676 0.4285
vn 0.4356 -0.1669 0.8845
vn 0.0688 -0.3375 0.9388
vn 0.3392 -0.6343 0.6947
vn -0.8877 -0.1680 0.4286
vn -0.9382 -0.3400 0.0651
vn -0.6938 -0.6354 0.3388
vn -0.4345 -0.1682 0.8848
vn -0.3396 -0.6403 0.6889
vn -0.0691 -0.3449 0.9361
vn -0.8879 0.1676 -0.4285
vn -0.9384 0.3393 -0.0651
vn -0.6942 0.6348 -0.3394
vn -0.4356 0.1670 -0.8845
vn -0.3392 0.6343 -0.6947
vn -0.0688 0.3375 -0.9388
vn 0.6938 0.6354 -0.3388
vn 0.9382 0.3400 -0.0651
vn 0.8877 0.1680 -0.4286
vn 0.4345 0.1682 -0.8848
vn 0.0691 0.3449 -0.9361
vn 0.3396 0.6403 -0.6889
vn 0.3394 0.6413 0.6882
vn 0.0653 0.3477 0.9353
vn 0.4282 0.1695 0.8876
vn 0.8841 0.1688 0.4358
vn 0.9357 0.3458 0.0693
vn 0.6887 0.6408 0.3391
vn -0.8848 0.1682 0.4345
vn -0.6889 0.6403 0.3396
vn -0.9361 0.3449 0.0691
vn -0.4286 0.1680 0.8877
vn -0.0651 0.3400 0.9382
vn -0.3388 0.6354 0.6938
vn -0.3134 -0.5618 -0.7656
vn 0.2674 -0.5744 -0.7737
vn -0.2784 0.5739 -0.7701
vn 0.3240 0.5640 -0.7596
vn 0.3892 0.7909 0.4722
vn -0.3484 -0.8457 0.4043
vn 0.1710 -0.9621 0.2125
vn 0.3425 -0.8426 0.4156
vn -0.3425 0.8426 -0.4156
vn -0.1709 0.9624 0.2110
vn -0.1710 0.9621 -0.2125
vn 0.3485 0.8457 -0.4042
vn 0.1713 0.9624 -0.2110
vn 0.3493 0.8448 0.4055
vn -0.3834 -0.8402 -0.3834
vn 0.2133 -0.9534 -0.2134
vn -0.2133 -0.9534 -0.2133
vn 0.3816 -0.8398 -0.3862
vn 0.2134 -0.9534 0.2134
vn -0.2134 -0.9534 0.2133
vn -0.1961 -0.2463 0.9491
vn 0.3912 -0.4930 0.7771
vn 0.1969 -0.2448 0.9493
vn -0.9491 0.2463 0.1961
vn -0.7771 0.4930 -0.3912
vn -0.9493 0.2449 -0.1969
vn -0.2133 0.9534 0.2134
vn 0.3834 0.8402 0.3834
vn 0.2133 0.9534 0.2133
vn -0.3912 0.4930 -0.7771
vn 0.1961 0.2463 -0.9492
vn -0.1969 0.2448 -0.9493
vn 0.7768 0.4919 -0.3933
vn 0.9492 0.2462 0.1961
vn 0.9494 0.2449 -0.1968
vn -0.3899 -0.4986 -0.7742
vn -0.1961 -0.2462 -0.9492
vn 0.7748 -0.4991 -0.3879
vn 0.9491 -0.2463 -0.1961
vn 0.9493 -0.2449 0.1969
vn 0.7742 0.4987 0.3899
vn 0.7771 -0.4930 0.3912
vn -0.1968 0.2449 0.9494
vn -0.3879 -0.4991 0.7749
vn -0.1713 -0.9624 0.2110
vn -0.3493 -0.8448 -0.4055
vn -0.1703 -0.9624 -0.2115
vn 0.3465 -0.8424 -0.4127
vn 0.1709 -0.9624 -0.2110
vn 0.1703 0.9624 0.2115
vn -0.3465 0.8424 0.4127
vn -0.3862 -0.8398 0.3816
vn 0.3843 -0.8394 0.3843
vn -0.7768 -0.4919 0.3932
vn -0.9492 -0.2462 -0.1961
vn -0.7742 -0.4986 -0.3899
vn -0.7748 0.4991 0.3879
vn -0.9494 -0.2449 0.1968
vn 0.3932 -0.4919 -0.7768
vn 0.1968 -0.2449 -0.9494
vn 0.3879 0.4992 -0.7748
vn 0.3899 0.4987 0.7742
vn -0.3932 0.4919 0.7768
vn 0.1961 0.2462 0.9492
vn -0.2134 0.9534 -0.2134
vn 0.3862 0.8398 -0.3816
vn -0.3843 0.8394 -0.3843
vn 0.2134 0.9534 -0.2133
vn -0.3816 0.8398 0.3862
vn 0.3087 0.5563 -0.7715
vn -0.3187 -0.5411 -0.7782
vn -0.1322 -0.3143 0.9401
vn 0.1880 -0.3603 0.9137
vn -0.6218 -0.1822 0.7617
vn 0.1314 0.3132 0.9406
vn -0.1882 0.3587 0.9143
s 1
f 1//1 3//2 4//3
f 1//1 2//4 3//2
f 5//5 7//6 6//7
f 5//5 8//8 7//6
f 11//9 12//10 13//11
f 15//12 17//13 18//14
f 19//15 21//16 22//17
f 23//18 24//19 25//20
f 28//21 29//22 30//23
f 32//24 34//25 31//26
f 37//27 38//28 39//29
f 43//30 45//31 46//32
f 47//33 48//34 49//35
f 52//36 54//37 55//38
f 58//39 59//40 60//41
f 62//42 64//43 65//44
f 67//45 69//46 70//47
f 71//48 72//49 73//50
f 76//51 77//52 78//53
f 80//54 82//55 79//56
f 85//57 86//58 87//59
f 88//60 89//61 90//62
f 91//63 92//64 93//65
f 94//66 95//67 96//68
f 97//69 98//70 99//71
f 100//72 101//73 102//74
f 103//75 104//76 105//77
f 106//78 107//79 108//80
f 109//81 110//82 111//83
f 112//84 113//85 114//86
f 115//87 116//88 117//89
f 118//90 119//91 120//92
f 121//93 122//94 123//95
f 124//96 125//97 126//98
f 127//99 128//100 129//101
f 130//102 131//103 132//104
f 11//9 14//105 12//10
f 23//18 20//106 19//15
f 30//23 31//26 28//21
f 43//30 37//27 39//29
f 53//107 47//33 49//35
f 58//39 61//108 59//40
f 66//109 73//50 67//45
f 78//53 79//56 76//51
f 85//57 90//62 86//58
f 94//66 91//63 93//65
f 100//72 97//69 99//71
f 105//77 106//78 103//75
f 111//83 112//84 109//81
f 118//90 115//87 117//89
f 124//96 121//93 123//95
f 127//99 132//104 128//100
f 29//22 25//20 24//19
f 12//10 38//28 13//11
f 41//110 35//111 36//112
f 51//113 83//114 50//115
f 50//115 57//116 51//113
f 56//117 75//118 57//116
f 13//11 47//33 11//9
f 37//27 77//52 38//28
f 108//80 102//74 101//73
f 129//101 111//83 110//82
f 113//85 119//91 114//86
f 115//87 125//97 116//88
f 87//59 109//81 85//57
f 94//66 116//88 95//67
f 123//95 101//73 100//72
f 131//103 106//78 108//80
f 134//119 143//120 133//121
f 144//122 150//123 143//120
f 153//124 134//119 133//121
f 155//125 148//126 147//127
f 175//128 158//129 157//130
f 179//131 173//132 174//133
f 162//134 168//135 161//136
f 166//137 172//138 165//139
f 138//140 161//136 137//141
f 142//142 165//139 141//143
f 145//144 171//145 146//146
f 177//147 156//148 155//125
f 40//149 9//150 10//151
f 27//152 10//151 9//150
f 36//112 26//153 27//152
f 48//34 76//51 49//35
f 58//39 24//19 23//18
f 73//50 60//41 59//40
f 72//49 30//23 29//22
f 74//154 84//155 75//118
f 105//77 87//59 86//58
f 127//99 104//76 103//75
f 89//61 91//63 90//62
f 92//64 118//90 93//65
f 88//60 114//86 89//61
f 95//67 97//69 96//68
f 125//97 99//71 98//70
f 132//104 122//94 121//93
f 154//156 150//123 149//157
f 152//158 135//159 136//160
f 176//161 151//162 152//158
f 137//141 140//163 138//140
f 139//164 167//165 140//163
f 157//130 136//160 135//159
f 141//143 146//146 142//142
f 169//166 147//127 148//126
f 178//167 170//168 169//166
f 160//169 164//170 159//171
f 163//172 173//132 164//170
f 180//173 160//169 159//171
f 21//16 14//105 18//14
f 9//150 12//10 14//105
f 21//16 27//152 9//150
f 9//150 39//29 12//10
f 9//150 41//110 39//29
f 10//151 35//111 40//149
f 10//151 26//153 35//111
f 13//11 38//28 77//52
f 47//33 15//12 11//9
f 13//11 77//52 48//34
f 52//36 15//12 47//33
f 17//13 63//174 22//17
f 16//175 55//38 64//43
f 20//106 25//20 27//152
f 62//42 19//15 63//174
f 28//21 27//152 25//20
f 62//42 58//39 23//18
f 24//19 72//49 29//22
f 24//19 60//41 72//49
f 28//21 36//112 27//152
f 28//21 31//26 36//112
f 66//109 32//24 30//23
f 30//23 71//48 66//109
f 34//25 36//112 31//26
f 44//176 32//24 69//46
f 33//177 43//30 41//110
f 42//178 78//53 37//27
f 39//29 41//110 43//30
f 45//31 68//179 80//54
f 42//178 80//54 78//53
f 49//35 51//113 53//107
f 49//35 84//155 51//113
f 49//35 76//51 84//155
f 50//115 83//114 74//154
f 54//37 51//113 57//116
f 50//115 74//154 56//117
f 61//108 55//38 54//37
f 57//116 59//40 61//108
f 75//118 59//40 57//116
f 75//118 73//50 59//40
f 82//55 68//179 67//45
f 67//45 73//50 75//118
f 84//155 82//55 75//118
f 76//51 79//56 84//155
f 4//3 86//58 1//1
f 1//1 86//58 90//62
f 4//3 105//77 86//58
f 109//81 88//60 85//57
f 87//59 129//101 110//82
f 87//59 104//76 129//101
f 90//62 2//4 1//1
f 109//81 112//84 88//60
f 90//62 91//63 2//4
f 89//61 119//91 92//64
f 89//61 114//86 119//91
f 91//63 96//68 2//4
f 93//65 117//89 94//66
f 93//65 118//90 117//89
f 96//68 3//2 2//4
f 95//67 116//88 125//97
f 95//67 125//97 98//70
f 96//68 97//69 3//2
f 97//69 102//74 3//2
f 99//71 123//95 100//72
f 99//71 124//96 123//95
f 107//79 3//2 102//74
f 108//80 101//73 122//94
f 130//102 103//75 106//78
f 105//77 4//3 107//79
f 130//102 127//99 103//75
f 108//80 122//94 131//103
f 107//79 4//3 3//2
f 111//83 5//5 113//85
f 128//100 5//5 111//83
f 5//5 120//92 113//85
f 6//7 126//98 115//87
f 6//7 115//87 120//92
f 5//5 6//7 120//92
f 8//8 121//93 7//6
f 121//93 126//98 7//6
f 8//8 132//104 121//93
f 6//7 7//6 126//98
f 128//100 8//8 5//5
f 128//100 132//104 8//8
f 138//140 144//122 134//119
f 134//119 136//160 138//140
f 133//121 143//120 150//123
f 154//156 136//160 134//119
f 133//121 150//123 153//124
f 154//156 152//158 136//160
f 136//160 162//134 138//140
f 135//159 175//128 157//130
f 135//159 151//162 175//128
f 136//160 158//129 162//134
f 137//141 161//136 168//135
f 138//140 140//163 144//122
f 137//141 168//135 139//164
f 140//163 142//142 144//122
f 140//163 166//137 142//142
f 140//163 167//165 166//137
f 142//142 149//157 144//122
f 141//143 165//139 172//138
f 141//143 172//138 145//144
f 142//142 146//146 149//157
f 146//146 148//126 149//157
f 171//145 148//126 146//146
f 156//148 149//157 148//126
f 171//145 169//166 148//126
f 155//125 147//127 170//168
f 156//148 154//156 149//157
f 178//167 152//158 156//148
f 152//158 154//156 156//148
f 178//167 176//161 152//158
f 155//125 170//168 177//147
f 158//129 159//171 162//134
f 176//161 159//171 158//129
f 176//161 180//173 159//171
f 159//171 167//165 162//134
f 159//171 164//170 167//165
f 160//169 174//133 163//172
f 160//169 179//131 174//133
f 164//170 166//137 167//165
f 164//170 171//145 166//137
f 164//170 173//132 171//145
f 180//173 169//166 173//132
f 169//166 171//145 173//132
f 180//173 178//167 169//166
f 176//161 178//167 180//173
f 18//14 14//105 15//12
f 15//12 16//175 17//13
f 19//15 20//106 21//16
f 32//24 33//177 34//25
f 46//32 42//178 43//30
f 43//30 44//176 45//31
f 52//36 53//107 54//37
f 65//44 61//108 62//42
f 62//42 63//174 64//43
f 70//47 66//109 67//45
f 67//45 68//179 69//46
f 80//54 81//180 82//55
f 11//9 15//12 14//105
f 23//18 25//20 20//106
f 30//23 32//24 31//26
f 43//30 42//178 37//27
f 53//107 52//36 47//33
f 58//39 62//42 61//108
f 66//109 71//48 73//50
f 78//53 80//54 79//56
f 85//57 88//60 90//62
f 94//66 96//68 91//63
f 100//72 102//74 97//69
f 105//77 107//79 106//78
f 111//83 113//85 112//84
f 118//90 120//92 115//87
f 124//96 126//98 121//93
f 127//99 130//102 132//104
f 29//22 28//21 25//20
f 12//10 39//29 38//28
f 41//110 40//149 35//111
f 51//113 84//155 83//114
f 50//115 56//117 57//116
f 56//117 74//154 75//118
f 13//11 48//34 47//33
f 37//27 78//53 77//52
f 108//80 107//79 102//74
f 129//101 128//100 111//83
f 113//85 120//92 119//91
f 115//87 126//98 125//97
f 87//59 110//82 109//81
f 94//66 117//89 116//88
f 123//95 122//94 101//73
f 131//103 130//102 106//78
f 134//119 144//122 143//120
f 144//122 149//157 150//123
f 153//124 154//156 134//119
f 155//125 156//148 148//126
f 175//128 176//161 158//129
f 179//131 180//173 173//132
f 162//134 167//165 168//135
f 166//137 171//145 172//138
f 138//140 162//134 161//136
f 142//142 166//137 165//139
f 145//144 172//138 171//145
f 177//147 178//167 156//148
f 40//149 41//110 9//150
f 27//152 26//153 10//151
f 36//112 35//111 26//153
f 48//34 77//52 76//51
f 58//39 60//41 24//19
f 73//50 72//49 60//41
f 72//49 71//48 30//23
f 74//154 83//114 84//155
f 105//77 104//76 87//59
f 127//99 129//101 104//76
f 89//61 92//64 91//63
f 92//64 119//91 118//90
f 88//60 112//84 114//86
f 95//67 98//70 97//69
f 125//97 124//96 99//71
f 132//104 131//103 122//94
f 154//156 153//124 150//123
f 152//158 151//162 135//159
f 176//161 175//128 151//162
f 137//141 139//164 140//163
f 139//164 168//135 167//165
f 157//130 158//129 136//160
f 141//143 145//144 146//146
f 169//166 170//168 147//127
f 178//167 177//147 170//168
f 160//169 163//172 164//170
f 163//172 174//133 173//132
f 180//173 179//131 160//169
f 18//14 22//17 21//16
f 21//16 9//150 14//105
f 21//16 20//106 27//152
f 52//36 16//175 15//12
f 22//17 18//14 17//13
f 17//13 64//43 63//174
f 63//174 19//15 22//17
f 64//43 17//13 16//175
f 16//175 52//36 55//38
f 55//38 65//44 64//43
f 62//42 23//18 19//15
f 66//109 70//47 32//24
f 34//25 41//110 36//112
f 69//46 45//31 44//176
f 44//176 33//177 32//24
f 32//24 70//47 69//46
f 41//110 34//25 33//177
f 33//177 44//176 43//30
f 80//54 46//32 45//31
f 45//31 69//46 68//179
f 68//179 81//180 80//54
f 42//178 46//32 80//54
f 54//37 53//107 51//113
f 54//37 57//116 61//108
f 61//108 65//44 55//38
f 67//45 75//118 82//55
f 82//55 81//180 68//179
f 84//155 79//56 82//55
