# Blender 5.2.0 LTS
# www.blender.org
o unit_outcast_sprite
v 0.000000 0.970000 0.000000
v 0.000000 0.730000 0.000000
v 0.000000 1.150000 0.000000
v 0.000000 0.950000 0.000000
v 0.007077 0.910000 -0.100992
v -0.007077 0.910000 -0.100992
v 0.000000 0.910000 -0.102206
v 0.007077 0.790000 -0.100992
v -0.007077 0.790000 -0.100992
v 0.000000 0.790000 -0.102206
v 0.039240 0.948414 -0.049255
v 0.036913 0.956012 -0.036913
v 0.049255 0.948414 -0.039240
v 0.038244 0.952921 -0.043489
v 0.042159 0.952073 -0.042159
v 0.043489 0.952921 -0.038244
v 0.044677 0.949022 -0.044677
v 0.076416 0.910000 -0.066408
v 0.066408 0.910000 -0.076416
v 0.072271 0.910000 -0.072271
v 0.087782 0.850000 -0.077781
v 0.077781 0.850000 -0.087782
v 0.083639 0.850000 -0.083639
v 0.076416 0.790000 -0.066408
v 0.066408 0.790000 -0.076416
v 0.072271 0.790000 -0.072271
v 0.039240 0.751586 -0.049255
v 0.049255 0.751586 -0.039240
v 0.036913 0.743988 -0.036913
v 0.044677 0.750978 -0.044677
v 0.042159 0.747927 -0.042159
v 0.043489 0.747079 -0.038244
v 0.038244 0.747079 -0.043489
v 0.062576 0.948414 0.007081
v 0.062576 0.948414 -0.007081
v 0.052203 0.956012 0.000000
v 0.063183 0.949022 -0.000000
v 0.059621 0.952073 -0.000000
v 0.057794 0.952921 -0.003708
v 0.057794 0.952921 0.003708
v 0.100992 0.910000 0.007077
v 0.100992 0.910000 -0.007077
v 0.102206 0.910000 0.000000
v 0.117071 0.850000 0.007072
v 0.117071 0.850000 -0.007072
v 0.118284 0.850000 0.000000
v 0.100992 0.790000 0.007077
v 0.100992 0.790000 -0.007077
v 0.102206 0.790000 0.000000
v 0.062576 0.751586 0.007081
v 0.052203 0.743988 0.000000
v 0.062576 0.751586 -0.007081
v 0.057794 0.747079 0.003708
v 0.059621 0.747927 -0.000000
v 0.057794 0.747079 -0.003708
v 0.063183 0.750978 0.000000
v 0.039240 0.948414 0.049255
v 0.049255 0.948414 0.039240
v 0.036913 0.956012 0.036913
v 0.044677 0.949022 0.044677
v 0.042159 0.952073 0.042159
v 0.043489 0.952921 0.038244
v 0.038244 0.952921 0.043489
v 0.066408 0.910000 0.076416
v 0.076416 0.910000 0.066408
v 0.072271 0.910000 0.072271
v 0.077781 0.850000 0.087782
v 0.087782 0.850000 0.077781
v 0.083639 0.850000 0.083639
v 0.066408 0.790000 0.076416
v 0.076416 0.790000 0.066408
v 0.072271 0.790000 0.072271
v 0.039240 0.751586 0.049255
v 0.036913 0.743988 0.036913
v 0.049255 0.751586 0.039240
v 0.038244 0.747079 0.043489
v 0.042159 0.747927 0.042159
v 0.043489 0.747079 0.038244
v 0.044677 0.750978 0.044677
v -0.007081 0.948414 0.062576
v 0.007081 0.948414 0.062576
v 0.000000 0.956012 0.052203
v 0.000000 0.949022 0.063183
v 0.000000 0.952073 0.059621
v 0.003708 0.952921 0.057794
v -0.003708 0.952921 0.057794
v -0.007077 0.910000 0.100992
v 0.007077 0.910000 0.100992
v 0.000000 0.910000 0.102206
v -0.007072 0.850000 0.117071
v 0.007072 0.850000 0.117071
v 0.000000 0.850000 0.118284
v -0.007077 0.790000 0.100992
v 0.007077 0.790000 0.100992
v 0.000000 0.790000 0.102206
v -0.007081 0.751586 0.062576
v 0.000000 0.743988 0.052203
v 0.007081 0.751586 0.062576
v -0.003708 0.747079 0.057794
v -0.000000 0.747927 0.059621
v 0.003708 0.747079 0.057794
v -0.000000 0.750978 0.063183
v -0.049255 0.948414 0.039240
v -0.039240 0.948414 0.049255
v -0.036913 0.956012 0.036913
v -0.044677 0.949022 0.044677
v -0.042159 0.952073 0.042159
v -0.038244 0.952921 0.043489
v -0.043489 0.952921 0.038244
v -0.076416 0.910000 0.066408
v -0.066408 0.910000 0.076416
v -0.072271 0.910000 0.072271
v -0.087782 0.850000 0.077781
v -0.077781 0.850000 0.087782
v -0.083639 0.850000 0.083639
v -0.076416 0.790000 0.066408
v -0.066408 0.790000 0.076416
v -0.072271 0.790000 0.072271
v -0.049255 0.751586 0.039240
v -0.036913 0.743988 0.036913
v -0.039240 0.751586 0.049255
v -0.043489 0.747079 0.038244
v -0.042159 0.747927 0.042159
v -0.038244 0.747079 0.043489
v -0.044677 0.750978 0.044677
v -0.062576 0.948414 -0.007081
v -0.062576 0.948414 0.007081
v -0.052203 0.956012 0.000000
v -0.063183 0.949022 0.000000
v -0.059621 0.952073 -0.000000
v -0.057794 0.952921 0.003708
v -0.057794 0.952921 -0.003708
v -0.100992 0.910000 -0.007077
v -0.100992 0.910000 0.007077
v -0.102206 0.910000 0.000000
v -0.117071 0.850000 -0.007072
v -0.117071 0.850000 0.007072
v -0.118284 0.850000 0.000000
v -0.100992 0.790000 -0.007077
v -0.100992 0.790000 0.007077
v -0.102206 0.790000 0.000000
v -0.062576 0.751586 -0.007081
v -0.052203 0.743988 0.000000
v -0.062576 0.751586 0.007081
v -0.057794 0.747079 -0.003708
v -0.059621 0.747927 -0.000000
v -0.057794 0.747079 0.003708
v -0.063183 0.750978 -0.000000
v -0.039240 0.948414 -0.049255
v -0.049255 0.948414 -0.039240
v -0.036913 0.956012 -0.036913
v -0.044677 0.949022 -0.044677
v -0.042159 0.952073 -0.042159
v -0.043489 0.952921 -0.038244
v -0.038244 0.952921 -0.043489
v -0.066408 0.910000 -0.076416
v -0.076416 0.910000 -0.066408
v -0.072271 0.910000 -0.072271
v -0.077781 0.850000 -0.087782
v -0.087782 0.850000 -0.077781
v -0.083639 0.850000 -0.083639
v -0.066408 0.790000 -0.076416
v -0.076416 0.790000 -0.066408
v -0.072271 0.790000 -0.072271
v -0.039240 0.751586 -0.049255
v -0.036913 0.743988 -0.036913
v -0.049255 0.751586 -0.039240
v -0.038244 0.747079 -0.043489
v -0.042159 0.747927 -0.042159
v -0.043489 0.747079 -0.038244
v -0.044677 0.750978 -0.044677
v -0.007081 0.948414 -0.062576
v 0.000000 0.956012 -0.052203
v 0.007081 0.948414 -0.062576
v -0.003708 0.952921 -0.057794
v 0.000000 0.952073 -0.059621
v 0.003708 0.952921 -0.057794
v -0.000000 0.949022 -0.063183
v 0.007072 0.850000 -0.117071
v -0.007072 0.850000 -0.117071
v 0.000000 0.850000 -0.118284
v -0.007081 0.751586 -0.062576
v 0.007081 0.751586 -0.062576
v 0.000000 0.743988 -0.052203
v 0.000000 0.750978 -0.063183
v 0.000000 0.747927 -0.059621
v 0.003708 0.747079 -0.057794
v -0.003708 0.747079 -0.057794
v -0.007081 1.131094 -0.052576
v 0.000000 1.138692 -0.042203
v 0.007081 1.131094 -0.052576
v -0.003708 1.135601 -0.047794
v 0.000000 1.134752 -0.049621
v 0.003708 1.135601 -0.047794
v 0.000000 1.131701 -0.053183
v 0.007077 1.100000 -0.083671
v -0.007077 1.100000 -0.083671
v -0.000000 1.100000 -0.084885
v 0.007072 1.050000 -0.097071
v -0.007072 1.050000 -0.097071
v 0.000000 1.050000 -0.098284
v 0.007077 1.000000 -0.083671
v -0.007077 1.000000 -0.083671
v 0.000000 1.000000 -0.084885
v -0.007081 0.968906 -0.052576
v 0.007081 0.968906 -0.052576
v 0.000000 0.961308 -0.042203
v 0.000000 0.968299 -0.053183
v 0.000000 0.965248 -0.049621
v 0.003708 0.964399 -0.047794
v -0.003708 0.964399 -0.047794
v 0.042184 1.131094 -0.032169
v 0.032169 1.131094 -0.042184
v 0.029842 1.138692 -0.029842
v 0.037606 1.131701 -0.037606
v 0.035088 1.134752 -0.035088
v 0.031173 1.135601 -0.036417
v 0.036417 1.135601 -0.031173
v 0.064168 1.100000 -0.054161
v 0.054161 1.100000 -0.064168
v 0.060023 1.100000 -0.060023
v 0.073640 1.050000 -0.063638
v 0.063638 1.050000 -0.073640
v 0.069497 1.050000 -0.069497
v 0.064168 1.000000 -0.054161
v 0.054161 1.000000 -0.064168
v 0.060023 1.000000 -0.060023
v 0.042184 0.968906 -0.032169
v 0.029842 0.961308 -0.029842
v 0.032169 0.968906 -0.042184
v 0.036417 0.964399 -0.031173
v 0.035088 0.965248 -0.035088
v 0.031173 0.964399 -0.036417
v 0.037606 0.968299 -0.037606
v 0.052576 1.131094 0.007081
v 0.052576 1.131094 -0.007081
v 0.042203 1.138692 0.000000
v 0.053183 1.131701 0.000000
v 0.049621 1.134752 0.000000
v 0.047794 1.135601 -0.003708
v 0.047794 1.135601 0.003708
v 0.083671 1.100000 0.007077
v 0.083671 1.100000 -0.007077
v 0.084885 1.100000 -0.000000
v 0.097071 1.050000 0.007072
v 0.097071 1.050000 -0.007072
v 0.098284 1.050000 0.000000
v 0.083671 1.000000 0.007077
v 0.083671 1.000000 -0.007077
v 0.084885 1.000000 0.000000
v 0.052576 0.968906 0.007081
v 0.042203 0.961308 0.000000
v 0.052576 0.968906 -0.007081
v 0.047794 0.964399 0.003708
v 0.049621 0.965248 0.000000
v 0.047794 0.964399 -0.003708
v 0.053183 0.968299 0.000000
v 0.032169 1.131094 0.042184
v 0.042184 1.131094 0.032169
v 0.029842 1.138692 0.029842
v 0.037606 1.131701 0.037606
v 0.035088 1.134752 0.035088
v 0.036417 1.135601 0.031173
v 0.031173 1.135601 0.036417
v 0.054161 1.100000 0.064168
v 0.064168 1.100000 0.054161
v 0.060023 1.100000 0.060023
v 0.063638 1.050000 0.073640
v 0.073640 1.050000 0.063638
v 0.069497 1.050000 0.069497
v 0.054161 1.000000 0.064168
v 0.064168 1.000000 0.054161
v 0.060023 1.000000 0.060023
v 0.032169 0.968906 0.042184
v 0.029842 0.961308 0.029842
v 0.042184 0.968906 0.032169
v 0.031173 0.964399 0.036417
v 0.035088 0.965248 0.035088
v 0.036417 0.964399 0.031173
v 0.037606 0.968299 0.037606
v -0.007081 1.131094 0.052576
v 0.007081 1.131094 0.052576
v 0.000000 1.138692 0.042203
v -0.000000 1.131701 0.053183
v -0.000000 1.134752 0.049621
v 0.003708 1.135601 0.047794
v -0.003708 1.135601 0.047794
v -0.007077 1.100000 0.083671
v 0.007077 1.100000 0.083671
v 0.000000 1.100000 0.084885
v -0.007072 1.050000 0.097071
v 0.007072 1.050000 0.097071
v 0.000000 1.050000 0.098284
v -0.007077 1.000000 0.083671
v 0.007077 1.000000 0.083671
v 0.000000 1.000000 0.084885
v -0.007081 0.968906 0.052576
v 0.000000 0.961308 0.042203
v 0.007081 0.968906 0.052576
v -0.003708 0.964399 0.047794
v -0.000000 0.965248 0.049621
v 0.003708 0.964399 0.047794
v -0.000000 0.968299 0.053183
v -0.042184 1.131094 0.032169
v -0.032169 1.131094 0.042184
v -0.029842 1.138692 0.029842
v -0.037606 1.131701 0.037606
v -0.035088 1.134752 0.035088
v -0.031173 1.135601 0.036417
v -0.036417 1.135601 0.031173
v -0.064168 1.100000 0.054161
v -0.054161 1.100000 0.064168
v -0.060023 1.100000 0.060023
v -0.073640 1.050000 0.063638
v -0.063638 1.050000 0.073640
v -0.069497 1.050000 0.069497
v -0.064168 1.000000 0.054161
v -0.054161 1.000000 0.064168
v -0.060023 1.000000 0.060023
v -0.042184 0.968906 0.032169
v -0.029842 0.961308 0.029842
v -0.032169 0.968906 0.042184
v -0.036417 0.964399 0.031173
v -0.035088 0.965248 0.035088
v -0.031173 0.964399 0.036417
v -0.037606 0.968299 0.037606
v -0.052576 1.131094 -0.007081
v -0.052576 1.131094 0.007081
v -0.042203 1.138692 0.000000
v -0.053183 1.131701 -0.000000
v -0.049621 1.134752 -0.000000
v -0.047794 1.135601 0.003708
v -0.047794 1.135601 -0.003708
v -0.083671 1.100000 -0.007077
v -0.083671 1.100000 0.007077
v -0.084885 1.100000 0.000000
v -0.097071 1.050000 -0.007072
v -0.097071 1.050000 0.007072
v -0.098284 1.050000 0.000000
v -0.083671 1.000000 -0.007077
v -0.083671 1.000000 0.007077
v -0.084885 1.000000 0.000000
v -0.052576 0.968906 -0.007081
v -0.042203 0.961308 0.000000
v -0.052576 0.968906 0.007081
v -0.047794 0.964399 -0.003708
v -0.049621 0.965248 -0.000000
v -0.047794 0.964399 0.003708
v -0.053183 0.968299 -0.000000
v -0.032169 1.131094 -0.042184
v -0.042184 1.131094 -0.032169
v -0.029842 1.138692 -0.029842
v -0.037606 1.131701 -0.037606
v -0.035088 1.134752 -0.035088
v -0.036417 1.135601 -0.031173
v -0.031173 1.135601 -0.036417
v -0.054161 1.100000 -0.064168
v -0.064168 1.100000 -0.054161
v -0.060023 1.100000 -0.060023
v -0.063638 1.050000 -0.073640
v -0.073640 1.050000 -0.063638
v -0.069497 1.050000 -0.069497
v -0.054161 1.000000 -0.064168
v -0.064168 1.000000 -0.054161
v -0.060023 1.000000 -0.060023
v -0.032169 0.968906 -0.042184
v -0.029842 0.961308 -0.029842
v -0.042184 0.968906 -0.032169
v -0.031173 0.964399 -0.036417
v -0.035088 0.965248 -0.035088
v -0.036417 0.964399 -0.031173
v -0.037606 0.968299 -0.037606
v -0.366657 0.810000 0.021885
v -0.364715 0.817500 0.029129
v -0.373901 0.817500 0.023826
v -0.365284 0.812197 0.027007
v -0.369719 0.813170 0.027188
v -0.370407 0.817500 0.028380
v -0.371779 0.812197 0.023257
v -0.364715 0.982500 0.029129
v -0.366657 0.990000 0.021885
v -0.373901 0.982500 0.023826
v -0.365284 0.987803 0.027007
v -0.369719 0.986830 0.027188
v -0.371779 0.987803 0.023257
v -0.370407 0.982500 0.028380
v -0.367951 0.810000 0.017055
v -0.375195 0.817500 0.018996
v -0.369892 0.817500 0.009811
v -0.373073 0.812197 0.018428
v -0.373254 0.813170 0.013993
v -0.374446 0.817500 0.013305
v -0.369323 0.812197 0.011932
v -0.367951 0.990000 0.017055
v -0.369892 0.982500 0.009811
v -0.375195 0.982500 0.018996
v -0.369323 0.987803 0.011932
v -0.373254 0.986830 0.013993
v -0.374446 0.982500 0.013305
v -0.373073 0.987803 0.018428
v -0.072049 0.810000 -0.057055
v -0.064805 0.817500 -0.058996
v -0.070108 0.817500 -0.049811
v -0.066927 0.812197 -0.058428
v -0.066746 0.813170 -0.053993
v -0.065554 0.817500 -0.053305
v -0.070677 0.812197 -0.051932
v -0.072049 0.990000 -0.057055
v -0.070108 0.982500 -0.049811
v -0.064805 0.982500 -0.058996
v -0.070677 0.987803 -0.051932
v -0.066746 0.986830 -0.053993
v -0.065554 0.982500 -0.053305
v -0.066927 0.987803 -0.058428
v -0.073343 0.810000 -0.061885
v -0.075285 0.817500 -0.069129
v -0.066099 0.817500 -0.063826
v -0.074716 0.812197 -0.067007
v -0.070282 0.813170 -0.067188
v -0.069593 0.817500 -0.068380
v -0.068221 0.812197 -0.063257
v -0.073343 0.990000 -0.061885
v -0.066099 0.982500 -0.063826
v -0.075285 0.982500 -0.069129
v -0.068221 0.987803 -0.063257
v -0.070282 0.986830 -0.067188
v -0.069593 0.982500 -0.068380
v -0.074716 0.987803 -0.067007
v 0.072049 0.810000 -0.057055
v 0.070108 0.817500 -0.049811
v 0.064805 0.817500 -0.058996
v 0.070677 0.812197 -0.051932
v 0.066746 0.813170 -0.053993
v 0.065554 0.817500 -0.053305
v 0.066927 0.812197 -0.058428
v 0.070108 0.982500 -0.049811
v 0.072049 0.990000 -0.057055
v 0.064805 0.982500 -0.058996
v 0.070677 0.987803 -0.051932
v 0.066746 0.986830 -0.053993
v 0.066927 0.987803 -0.058428
v 0.065554 0.982500 -0.053305
v 0.073343 0.810000 -0.061885
v 0.066099 0.817500 -0.063826
v 0.075285 0.817500 -0.069129
v 0.068221 0.812197 -0.063257
v 0.070282 0.813170 -0.067188
v 0.069593 0.817500 -0.068380
v 0.074716 0.812197 -0.067007
v 0.073343 0.990000 -0.061885
v 0.075285 0.982500 -0.069129
v 0.066099 0.982500 -0.063826
v 0.074716 0.987803 -0.067007
v 0.070282 0.986830 -0.067188
v 0.069593 0.982500 -0.068380
v 0.068221 0.987803 -0.063257
v 0.366657 0.810000 0.021885
v 0.373901 0.817500 0.023826
v 0.364715 0.817500 0.029129
v 0.371779 0.812197 0.023257
v 0.369718 0.813170 0.027188
v 0.370407 0.817500 0.028380
v 0.365284 0.812197 0.027007
v 0.366657 0.990000 0.021885
v 0.364715 0.982500 0.029129
v 0.373901 0.982500 0.023826
v 0.365284 0.987803 0.027007
v 0.369719 0.986830 0.027188
v 0.370407 0.982500 0.028380
v 0.371779 0.987803 0.023257
v 0.367951 0.810000 0.017055
v 0.369892 0.817500 0.009811
v 0.375195 0.817500 0.018996
v 0.369323 0.812197 0.011932
v 0.373254 0.813170 0.013993
v 0.374446 0.817500 0.013305
v 0.373073 0.812197 0.018428
v 0.367951 0.990000 0.017055
v 0.375195 0.982500 0.018996
v 0.369892 0.982500 0.009811
v 0.373073 0.987803 0.018428
v 0.373254 0.986830 0.013993
v 0.374446 0.982500 0.013305
v 0.369323 0.987803 0.011932
v 0.180000 0.525000 0.073660
v 0.173505 0.532500 0.068750
v 0.186495 0.532500 0.068750
v 0.175407 0.527197 0.070428
v 0.180000 0.528170 0.068415
v 0.180000 0.532500 0.066956
v 0.184593 0.527197 0.070428
v 0.180000 0.975000 0.073660
v 0.186495 0.967500 0.068750
v 0.173505 0.967500 0.068750
v 0.184593 0.972803 0.070428
v 0.180000 0.971830 0.068415
v 0.180000 0.967500 0.066956
v 0.175407 0.972803 0.070428
v 0.185490 0.525000 0.076830
v 0.186495 0.532500 0.068750
v 0.192990 0.532500 0.080000
v 0.185993 0.527197 0.071237
v 0.190033 0.528170 0.074208
v 0.191296 0.532500 0.073478
v 0.190586 0.527197 0.079192
v 0.185490 0.975000 0.076830
v 0.192990 0.967500 0.080000
v 0.186495 0.967500 0.068750
v 0.190586 0.972803 0.079192
v 0.190033 0.971830 0.074208
v 0.191296 0.967500 0.073478
v 0.185993 0.972803 0.071237
v 0.185490 0.525000 0.083170
v 0.192990 0.532500 0.080000
v 0.186495 0.532500 0.091250
v 0.190586 0.527197 0.080808
v 0.190033 0.528170 0.085792
v 0.191296 0.532500 0.086522
v 0.185993 0.527197 0.088763
v 0.185490 0.975000 0.083170
v 0.186495 0.967500 0.091250
v 0.192990 0.967500 0.080000
v 0.185993 0.972803 0.088763
v 0.190033 0.971830 0.085792
v 0.191296 0.967500 0.086522
v 0.190586 0.972803 0.080808
v 0.180000 0.525000 0.086340
v 0.186495 0.532500 0.091250
v 0.173505 0.532500 0.091250
v 0.184593 0.527197 0.089572
v 0.180000 0.528170 0.091585
v 0.180000 0.532500 0.093044
v 0.175407 0.527197 0.089572
v 0.180000 0.975000 0.086340
v 0.173505 0.967500 0.091250
v 0.186495 0.967500 0.091250
v 0.175407 0.972803 0.089572
v 0.180000 0.971830 0.091585
v 0.180000 0.967500 0.093044
v 0.184593 0.972803 0.089572
v 0.174510 0.525000 0.083170
v 0.173505 0.532500 0.091250
v 0.167010 0.532500 0.080000
v 0.174007 0.527197 0.088763
v 0.169967 0.528170 0.085792
v 0.168704 0.532500 0.086522
v 0.169414 0.527197 0.080808
v 0.174510 0.975000 0.083170
v 0.167010 0.967500 0.080000
v 0.173505 0.967500 0.091250
v 0.169414 0.972803 0.080808
v 0.169967 0.971830 0.085792
v 0.168704 0.967500 0.086522
v 0.174007 0.972803 0.088763
v 0.174510 0.525000 0.076830
v 0.167010 0.532500 0.080000
v 0.173505 0.532500 0.068750
v 0.169414 0.527197 0.079192
v 0.169967 0.528170 0.074208
v 0.168704 0.532500 0.073478
v 0.174007 0.527197 0.071237
v 0.174510 0.975000 0.076830
v 0.173505 0.967500 0.068750
v 0.167010 0.967500 0.080000
v 0.174007 0.972803 0.071237
v 0.169967 0.971830 0.074208
v 0.168704 0.967500 0.073478
v 0.169414 0.972803 0.079192
vn 0.3171 0.7319 -0.6032
vn 0.4137 0.8110 -0.4137
vn 0.4804 0.7338 -0.4804
vn 0.2531 0.9337 -0.2531
vn 0.2650 0.8455 -0.4635
vn 0.6032 0.7319 -0.3171
vn 0.4635 0.8455 -0.2650
vn 0.3171 -0.7319 -0.6032
vn 0.4137 -0.8110 -0.4137
vn 0.2651 -0.8455 -0.4635
vn 0.6032 -0.7319 -0.3171
vn 0.4804 -0.7338 -0.4804
vn 0.2531 -0.9337 -0.2531
vn 0.4635 -0.8455 -0.2650
vn 0.6507 0.7319 0.2023
vn 0.5851 0.8110 -0.0000
vn 0.5152 0.8455 0.1404
vn 0.6507 0.7319 -0.2023
vn 0.6794 0.7338 -0.0000
vn 0.3580 0.9337 -0.0000
vn 0.5152 0.8455 -0.1404
vn 0.6507 -0.7319 0.2023
vn 0.5851 -0.8110 -0.0000
vn 0.6794 -0.7338 -0.0000
vn 0.3580 -0.9337 -0.0000
vn 0.5152 -0.8455 0.1404
vn 0.6507 -0.7319 -0.2023
vn 0.5152 -0.8455 -0.1404
vn 0.3171 0.7319 0.6032
vn 0.4137 0.8110 0.4137
vn 0.2650 0.8455 0.4635
vn 0.6032 0.7319 0.3171
vn 0.4804 0.7338 0.4804
vn 0.2531 0.9337 0.2531
vn 0.4635 0.8455 0.2650
vn 0.3171 -0.7319 0.6032
vn 0.4137 -0.8110 0.4137
vn 0.4804 -0.7338 0.4804
vn 0.2531 -0.9337 0.2531
vn 0.2651 -0.8455 0.4635
vn 0.6032 -0.7319 0.3171
vn 0.4635 -0.8455 0.2650
vn -0.2023 0.7319 0.6507
vn -0.0000 0.8110 0.5851
vn -0.1404 0.8455 0.5152
vn 0.2023 0.7319 0.6507
vn -0.0000 0.7338 0.6794
vn -0.0000 0.9337 0.3580
vn 0.1404 0.8455 0.5152
vn -0.2023 -0.7319 0.6507
vn -0.0000 -0.8110 0.5851
vn -0.0000 -0.7338 0.6794
vn -0.0000 -0.9337 0.3580
vn -0.1403 -0.8455 0.5152
vn 0.2023 -0.7319 0.6507
vn 0.1403 -0.8455 0.5152
vn -0.6032 0.7319 0.3171
vn -0.4137 0.8110 0.4137
vn -0.4635 0.8455 0.2650
vn -0.3171 0.7319 0.6032
vn -0.4804 0.7338 0.4804
vn -0.2531 0.9337 0.2531
vn -0.2650 0.8455 0.4635
vn -0.6032 -0.7319 0.3171
vn -0.4137 -0.8110 0.4137
vn -0.4804 -0.7338 0.4804
vn -0.2531 -0.9337 0.2531
vn -0.4635 -0.8455 0.2650
vn -0.3171 -0.7319 0.6032
vn -0.2651 -0.8455 0.4635
vn -0.6507 0.7319 -0.2023
vn -0.5851 0.8110 -0.0000
vn -0.5152 0.8455 -0.1404
vn -0.6507 0.7319 0.2023
vn -0.6794 0.7338 -0.0000
vn -0.3580 0.9337 -0.0000
vn -0.5152 0.8455 0.1404
vn -0.6507 -0.7319 -0.2023
vn -0.5851 -0.8110 -0.0000
vn -0.6794 -0.7338 -0.0000
vn -0.3580 -0.9337 -0.0000
vn -0.5152 -0.8455 -0.1404
vn -0.6507 -0.7319 0.2023
vn -0.5152 -0.8455 0.1404
vn -0.3171 0.7319 -0.6032
vn -0.4137 0.8110 -0.4137
vn -0.2650 0.8455 -0.4635
vn -0.6032 0.7319 -0.3171
vn -0.4804 0.7338 -0.4804
vn -0.2531 0.9337 -0.2531
vn -0.4636 0.8455 -0.2650
vn -0.3171 -0.7319 -0.6032
vn -0.4137 -0.8110 -0.4137
vn -0.4804 -0.7338 -0.4804
vn -0.2531 -0.9337 -0.2531
vn -0.2651 -0.8455 -0.4635
vn -0.6032 -0.7319 -0.3171
vn -0.4635 -0.8455 -0.2650
vn -0.2023 0.7319 -0.6507
vn -0.0000 0.8110 -0.5851
vn -0.0000 0.7338 -0.6794
vn -0.0000 0.9337 -0.3580
vn -0.1404 0.8455 -0.5152
vn 0.2023 0.7319 -0.6507
vn 0.1404 0.8455 -0.5152
vn -0.2023 -0.7319 -0.6507
vn -0.0000 -0.8110 -0.5851
vn -0.1403 -0.8455 -0.5152
vn 0.2023 -0.7319 -0.6507
vn -0.0000 -0.7338 -0.6794
vn -0.0000 -0.9337 -0.3580
vn 0.1403 -0.8455 -0.5152
vn -0.1404 -0.8455 -0.5152
vn 0.1404 -0.8455 -0.5152
vn 0.4635 -0.8455 -0.2651
vn 0.2650 -0.8455 -0.4635
vn 0.2650 -0.8455 0.4635
vn 0.4635 -0.8455 0.2651
vn -0.1404 -0.8455 0.5152
vn 0.1404 -0.8455 0.5152
vn -0.4635 -0.8455 0.2651
vn -0.2650 -0.8455 0.4635
vn -0.4635 0.8455 -0.2650
vn -0.2650 -0.8455 -0.4635
vn -0.4635 -0.8455 -0.2651
vn -0.1268 -0.9673 0.2197
vn -0.2298 -0.8881 0.3981
vn -0.3307 -0.9152 0.2303
vn 0.0771 -0.1794 0.9808
vn -0.0841 -0.3251 0.9419
vn 0.1047 -0.3791 0.9194
vn -0.8879 -0.1794 0.4236
vn -0.7737 -0.3251 0.5438
vn -0.7859 -0.1369 0.6030
vn 0.0771 0.1794 0.9808
vn -0.0841 0.3251 0.9419
vn -0.1293 0.1369 0.9821
vn -0.1268 0.9673 0.2197
vn -0.2298 0.8881 0.3981
vn -0.0341 0.9152 0.4016
vn -0.8879 0.1794 0.4236
vn -0.7737 0.3251 0.5438
vn -0.8486 0.3791 0.3691
vn -0.2197 -0.9673 -0.1268
vn -0.3981 -0.8881 -0.2298
vn -0.2303 -0.9152 -0.3307
vn -0.9808 -0.1794 0.0771
vn -0.9419 -0.3251 -0.0841
vn -0.9194 -0.3791 0.1047
vn -0.4236 -0.1794 -0.8879
vn -0.5438 -0.3251 -0.7737
vn -0.6030 -0.1369 -0.7859
vn -0.2197 0.9673 -0.1268
vn -0.3981 0.8881 -0.2299
vn -0.4016 0.9152 -0.0341
vn -0.4236 0.1794 -0.8879
vn -0.5438 0.3251 -0.7737
vn -0.3691 0.3791 -0.8486
vn -0.9808 0.1794 0.0771
vn -0.9419 0.3251 -0.0841
vn -0.9821 0.1369 -0.1293
vn 0.2197 -0.9673 0.1268
vn 0.3981 -0.8881 0.2298
vn 0.2303 -0.9152 0.3307
vn 0.9808 -0.1794 -0.0771
vn 0.9419 -0.3251 0.0841
vn 0.9194 -0.3791 -0.1047
vn 0.4236 -0.1794 0.8879
vn 0.5438 -0.3251 0.7737
vn 0.6030 -0.1369 0.7859
vn 0.2197 0.9673 0.1268
vn 0.3981 0.8881 0.2299
vn 0.4016 0.9152 0.0341
vn 0.4236 0.1794 0.8879
vn 0.5438 0.3251 0.7737
vn 0.3691 0.3791 0.8486
vn 0.9808 0.1794 -0.0771
vn 0.9419 0.3251 0.0841
vn 0.9821 0.1369 0.1293
vn 0.1268 -0.9673 -0.2197
vn 0.2299 -0.8881 -0.3981
vn 0.3307 -0.9152 -0.2303
vn -0.0771 -0.1794 -0.9808
vn 0.0841 -0.3251 -0.9419
vn -0.1047 -0.3791 -0.9194
vn 0.8879 -0.1794 -0.4236
vn 0.7737 -0.3251 -0.5438
vn 0.7859 -0.1369 -0.6030
vn 0.1268 0.9673 -0.2197
vn 0.2298 0.8881 -0.3981
vn 0.0341 0.9152 -0.4016
vn 0.8879 0.1794 -0.4236
vn 0.7737 0.3251 -0.5438
vn 0.8486 0.3791 -0.3691
vn -0.0771 0.1794 -0.9808
vn 0.0841 0.3251 -0.9419
vn 0.1293 0.1369 -0.9821
vn -0.2197 -0.9673 0.1268
vn -0.3981 -0.8881 0.2298
vn -0.4016 -0.9152 0.0341
vn -0.4236 -0.1794 0.8879
vn -0.5438 -0.3251 0.7737
vn -0.3691 -0.3791 0.8486
vn -0.9808 -0.1794 -0.0771
vn -0.9419 -0.3251 0.0841
vn -0.9821 -0.1369 0.1293
vn -0.4236 0.1794 0.8879
vn -0.5438 0.3251 0.7737
vn -0.6030 0.1369 0.7859
vn -0.2197 0.9673 0.1268
vn -0.3981 0.8881 0.2299
vn -0.2303 0.9152 0.3307
vn -0.9808 0.1794 -0.0771
vn -0.9419 0.3251 0.0841
vn -0.9194 0.3791 -0.1047
vn -0.1268 -0.9673 -0.2197
vn -0.2299 -0.8881 -0.3981
vn -0.0341 -0.9152 -0.4016
vn -0.8879 -0.1794 -0.4236
vn -0.7737 -0.3251 -0.5438
vn -0.8486 -0.3791 -0.3691
vn 0.0771 -0.1794 -0.9808
vn -0.0841 -0.3251 -0.9419
vn -0.1293 -0.1369 -0.9821
vn -0.1268 0.9673 -0.2197
vn -0.2298 0.8881 -0.3981
vn -0.3307 0.9152 -0.2303
vn 0.0771 0.1794 -0.9808
vn -0.0841 0.3251 -0.9419
vn 0.1047 0.3791 -0.9194
vn -0.8879 0.1794 -0.4236
vn -0.7737 0.3251 -0.5438
vn -0.7859 0.1369 -0.6030
vn 0.1268 -0.9673 0.2197
vn 0.2299 -0.8881 0.3981
vn 0.0341 -0.9152 0.4016
vn 0.8879 -0.1794 0.4236
vn 0.7737 -0.3251 0.5438
vn 0.8486 -0.3791 0.3691
vn -0.0771 -0.1794 0.9808
vn 0.0841 -0.3251 0.9419
vn 0.1293 -0.1369 0.9821
vn 0.1268 0.9673 0.2197
vn 0.2298 0.8881 0.3981
vn 0.3307 0.9152 0.2303
vn -0.0771 0.1794 0.9808
vn 0.0841 0.3251 0.9419
vn -0.1047 0.3791 0.9194
vn 0.8879 0.1794 0.4236
vn 0.7737 0.3251 0.5438
vn 0.7859 0.1369 0.6030
vn 0.2197 -0.9673 -0.1268
vn 0.3981 -0.8881 -0.2298
vn 0.4016 -0.9152 -0.0341
vn 0.4236 -0.1794 -0.8879
vn 0.5438 -0.3251 -0.7737
vn 0.3691 -0.3791 -0.8486
vn 0.9808 -0.1794 0.0771
vn 0.9419 -0.3251 -0.0841
vn 0.9821 -0.1369 -0.1293
vn 0.2197 0.9673 -0.1268
vn 0.3981 0.8881 -0.2298
vn 0.2303 0.9152 -0.3307
vn 0.9808 0.1794 0.0771
vn 0.9419 0.3251 -0.0841
vn 0.9194 0.3791 0.1047
vn 0.4236 0.1794 -0.8879
vn 0.5438 0.3251 -0.7737
vn 0.6030 0.1369 -0.7859
vn -0.0000 -0.9587 -0.2843
vn -0.0000 -0.8558 -0.5172
vn 0.1426 -0.9010 -0.4098
vn -0.2382 -0.5268 -0.8159
vn -0.0000 -0.3571 -0.9341
vn -0.3760 -0.3996 -0.8360
vn 0.2609 -0.4882 -0.8328
vn -0.0000 -0.1575 -0.9875
vn -0.0000 0.9587 -0.2843
vn -0.0000 0.8558 -0.5172
vn -0.1426 0.9010 -0.4098
vn 0.2382 0.5268 -0.8159
vn -0.0000 0.3571 -0.9341
vn 0.3760 0.3996 -0.8360
vn -0.2609 0.4882 -0.8328
vn -0.0000 0.1575 -0.9875
vn 0.2462 -0.9587 -0.1422
vn 0.4479 -0.8558 -0.2586
vn 0.4262 -0.9010 -0.0814
vn 0.5196 -0.6595 -0.5432
vn 0.8089 -0.3571 -0.4670
vn 0.5360 -0.3995 -0.7437
vn 0.9285 0.3077 -0.2077
vn 0.8552 -0.1575 -0.4938
vn 0.2462 0.9587 -0.1422
vn 0.4479 0.8558 -0.2586
vn 0.2836 0.9010 -0.3284
vn 0.7875 0.5856 -0.1923
vn 0.8089 0.3571 -0.4670
vn 0.9121 0.3995 -0.0923
vn 0.5296 0.6230 -0.5757
vn 0.8552 0.1575 -0.4938
vn 0.2462 -0.9587 0.1422
vn 0.4479 -0.8558 0.2586
vn 0.2836 -0.9010 0.3284
vn 0.9045 0.3649 0.2209
vn 0.8089 -0.3571 0.4670
vn 0.9121 -0.3995 0.0923
vn 0.5296 -0.6230 0.5757
vn 0.8552 -0.1575 0.4938
vn 0.2462 0.9587 0.1422
vn 0.4479 0.8558 0.2586
vn 0.4262 0.9010 0.0814
vn 0.5196 0.6595 0.5432
vn 0.8089 0.3571 0.4670
vn 0.5360 0.3995 0.7437
vn 0.7988 0.5745 0.1787
vn 0.8552 0.1575 0.4938
vn -0.0000 -0.9587 0.2843
vn -0.0000 -0.8558 0.5172
vn -0.1426 -0.9010 0.4098
vn 0.2382 -0.5268 0.8159
vn -0.0000 -0.3571 0.9341
vn 0.3760 -0.3996 0.8360
vn -0.2609 -0.4882 0.8328
vn -0.0000 -0.1575 0.9875
vn -0.0000 0.9587 0.2843
vn -0.0000 0.8558 0.5172
vn 0.1426 0.9010 0.4098
vn -0.2382 0.5268 0.8159
vn -0.0000 0.3571 0.9341
vn -0.3760 0.3996 0.8360
vn 0.2609 0.4882 0.8328
vn -0.0000 0.1575 0.9875
vn -0.2462 -0.9587 0.1422
vn -0.4479 -0.8558 0.2586
vn -0.4262 -0.9010 0.0814
vn -0.5196 -0.6595 0.5432
vn -0.8089 -0.3571 0.4670
vn -0.5360 -0.3995 0.7437
vn -0.9285 0.3077 0.2077
vn -0.8552 -0.1575 0.4938
vn -0.2462 0.9587 0.1422
vn -0.4479 0.8558 0.2586
vn -0.2836 0.9010 0.3284
vn -0.7875 0.5856 0.1923
vn -0.8089 0.3571 0.4670
vn -0.9121 0.3995 0.0923
vn -0.5296 0.6230 0.5757
vn -0.8552 0.1575 0.4938
vn -0.2462 -0.9587 -0.1422
vn -0.4479 -0.8558 -0.2586
vn -0.2836 -0.9010 -0.3284
vn -0.9045 0.3649 -0.2209
vn -0.8089 -0.3571 -0.4670
vn -0.9121 -0.3995 -0.0923
vn -0.5296 -0.6230 -0.5757
vn -0.8552 -0.1575 -0.4938
vn -0.2462 0.9587 -0.1422
vn -0.4479 0.8558 -0.2586
vn -0.4262 0.9010 -0.0814
vn -0.5196 0.6595 -0.5432
vn -0.8089 0.3571 -0.4670
vn -0.5360 0.3995 -0.7437
vn -0.7988 0.5745 -0.1787
vn -0.8552 0.1575 -0.4938
vn 0.7671 0.4801 -0.4254
vn 0.4254 0.4801 -0.7671
vn 0.8732 -0.0000 -0.4874
vn 0.6171 0.4883 -0.6171
vn 0.4874 -0.0000 -0.8732
vn 0.6171 -0.4883 -0.6171
vn 0.7071 -0.0000 -0.7071
vn 0.7671 -0.4801 -0.4254
vn 0.4254 -0.4801 -0.7671
vn 0.8433 0.4801 0.2416
vn 0.8433 0.4801 -0.2416
vn 0.9621 -0.0000 0.2728
vn 0.8727 0.4883 -0.0000
vn 0.9621 -0.0000 -0.2728
vn 0.8727 -0.4883 -0.0000
vn 1.0000 -0.0000 -0.0000
vn 0.8433 -0.4801 0.2416
vn 0.8433 -0.4801 -0.2416
vn 0.4254 0.4801 0.7671
vn 0.7671 0.4801 0.4254
vn 0.4874 -0.0000 0.8732
vn 0.6171 0.4883 0.6171
vn 0.8732 -0.0000 0.4874
vn 0.6171 -0.4883 0.6171
vn 0.7071 -0.0000 0.7071
vn 0.4254 -0.4801 0.7671
vn 0.7671 -0.4801 0.4254
vn -0.2416 0.4801 0.8433
vn 0.2416 0.4801 0.8433
vn -0.2728 -0.0000 0.9621
vn -0.0000 0.4883 0.8727
vn 0.2728 -0.0000 0.9621
vn -0.0000 -0.4883 0.8727
vn -0.0000 -0.0000 1.0000
vn -0.2416 -0.4801 0.8433
vn 0.2416 -0.4801 0.8433
vn -0.7671 0.4801 0.4254
vn -0.4254 0.4801 0.7671
vn -0.8732 -0.0000 0.4874
vn -0.6171 0.4883 0.6171
vn -0.4874 -0.0000 0.8732
vn -0.6171 -0.4883 0.6171
vn -0.7071 -0.0000 0.7071
vn -0.7671 -0.4801 0.4254
vn -0.4254 -0.4801 0.7671
vn -0.8433 0.4801 -0.2416
vn -0.8433 0.4801 0.2416
vn -0.9621 -0.0000 -0.2728
vn -0.8727 0.4883 -0.0000
vn -0.9621 -0.0000 0.2728
vn -0.8727 -0.4883 -0.0000
vn -1.0000 -0.0000 -0.0000
vn -0.8433 -0.4801 -0.2416
vn -0.8433 -0.4801 0.2416
vn -0.4254 0.4801 -0.7671
vn -0.7671 0.4801 -0.4254
vn -0.4874 -0.0000 -0.8732
vn -0.6171 0.4883 -0.6171
vn -0.8732 -0.0000 -0.4874
vn -0.6171 -0.4883 -0.6171
vn -0.7071 -0.0000 -0.7071
vn -0.4254 -0.4801 -0.7671
vn -0.7671 -0.4801 -0.4254
vn 0.2416 0.4801 -0.8433
vn -0.2416 0.4801 -0.8433
vn 0.2728 -0.0000 -0.9621
vn -0.0000 0.4883 -0.8727
vn -0.2728 -0.0000 -0.9621
vn -0.0000 -0.4883 -0.8727
vn -0.0000 -0.0000 -1.0000
vn 0.2416 -0.4801 -0.8433
vn -0.2416 -0.4801 -0.8433
vn -0.4016 -0.9152 -0.0341
vn -0.8486 -0.3791 0.3691
vn -0.1293 -0.1369 0.9821
vn -0.7859 0.1369 0.6030
vn -0.3307 0.9152 0.2303
vn -0.6030 0.1369 -0.7859
vn -0.9821 -0.1369 -0.1293
vn 0.0341 -0.9152 -0.4016
vn -0.3691 -0.3791 -0.8486
vn -0.2303 0.9152 -0.3307
vn -0.1047 0.3791 -0.9194
vn 0.7859 0.1369 -0.6030
vn 0.1293 -0.1369 -0.9821
vn 0.4016 -0.9152 0.0341
vn 0.8486 -0.3791 -0.3691
vn 0.3307 0.9152 -0.2303
vn 0.9194 0.3791 -0.1047
vn 0.6030 0.1369 0.7859
vn 0.9821 -0.1369 0.1293
vn -0.0341 -0.9152 0.4016
vn 0.3691 -0.3791 0.8486
vn 0.2303 0.9152 0.3307
vn 0.1047 0.3791 0.9194
vn -0.3307 -0.9152 -0.2303
vn -0.9194 -0.3791 -0.1047
vn -0.6030 -0.1369 0.7859
vn -0.9821 0.1369 0.1293
vn -0.4016 0.9152 0.0341
vn -0.8486 0.3791 -0.3691
vn -0.1293 0.1369 -0.9821
vn -0.7859 -0.1369 -0.6030
vn 0.2303 -0.9152 -0.3307
vn 0.1047 -0.3791 -0.9194
vn -0.0341 0.9152 -0.4016
vn 0.3691 0.3791 -0.8486
vn 0.9821 0.1369 -0.1293
vn 0.6030 -0.1369 -0.7859
vn 0.3307 -0.9152 0.2303
vn 0.4016 0.9152 -0.0341
vn 0.8486 0.3791 0.3691
vn 0.1293 0.1369 0.9821
vn 0.7859 -0.1369 0.6030
vn -0.2303 -0.9152 0.3307
vn -0.1047 -0.3791 0.9194
vn 0.0341 0.9152 0.4016
vn -0.3691 0.3791 0.8486
vn 0.3761 -0.3995 -0.8360
vn 0.2836 -0.9010 -0.3284
vn 0.5360 0.3995 -0.7437
vn 0.9121 -0.3995 -0.0923
vn 0.4262 -0.9010 0.0814
vn 0.9121 0.3995 0.0923
vn 0.4262 0.9010 -0.0814
vn 0.5360 -0.3995 0.7437
vn 0.3761 0.3995 0.8360
vn 0.2836 0.9010 0.3284
vn -0.3761 -0.3995 0.8360
vn -0.5360 0.3995 0.7437
vn -0.1426 0.9010 0.4098
vn -0.9121 -0.3995 0.0923
vn -0.4262 -0.9010 -0.0814
vn -0.9121 0.3995 -0.0923
vn -0.4262 0.9010 0.0814
vn -0.5360 -0.3995 -0.7437
vn -0.1426 -0.9010 -0.4098
vn -0.3761 0.3995 -0.8361
vn -0.2836 0.9010 -0.3284
vn -0.0000 1.0000 -0.0000
vn -0.0000 -1.0000 -0.0000
vn -0.9194 0.3791 0.1047
vn 0.9194 -0.3791 0.1047
vn 0.1426 0.9010 -0.4098
vn 0.1426 -0.9010 0.4098
vn -0.2836 -0.9010 0.3284
vt 0.104690 0.418434
vt 0.108973 0.413934
vt 0.110136 0.416573
vt 0.106552 0.408437
vt 0.105629 0.413790
vt 0.115184 0.413811
vt 0.111124 0.411369
vt 0.040833 0.533597
vt 0.045333 0.529315
vt 0.045477 0.532659
vt 0.045456 0.523104
vt 0.042694 0.528152
vt 0.050830 0.531736
vt 0.047898 0.527164
vt 0.138816 0.382754
vt 0.134511 0.387232
vt 0.134218 0.383898
vt 0.134665 0.393443
vt 0.137199 0.388276
vt 0.128912 0.385058
vt 0.132045 0.389495
vt 0.076513 0.499472
vt 0.072034 0.503777
vt 0.070990 0.501089
vt 0.074209 0.509376
vt 0.075369 0.504070
vt 0.065824 0.503623
vt 0.069771 0.506243
vt 0.133565 0.344082
vt 0.133688 0.350294
vt 0.131123 0.348143
vt 0.138189 0.354576
vt 0.136327 0.349131
vt 0.128192 0.352715
vt 0.133544 0.353638
vt 0.115184 0.504722
vt 0.108973 0.504600
vt 0.110136 0.501961
vt 0.106552 0.510096
vt 0.111124 0.507164
vt 0.104690 0.500099
vt 0.105629 0.504743
vt 0.102508 0.320450
vt 0.106987 0.324756
vt 0.103652 0.325048
vt 0.113197 0.324602
vt 0.108031 0.322068
vt 0.104812 0.330355
vt 0.109250 0.327222
vt 0.138816 0.535780
vt 0.134511 0.531301
vt 0.137199 0.530257
vt 0.128912 0.533476
vt 0.134218 0.534636
vt 0.134665 0.525091
vt 0.132045 0.529038
vt 0.063837 0.325701
vt 0.070048 0.325579
vt 0.067897 0.328143
vt 0.074331 0.321078
vt 0.068885 0.322940
vt 0.072470 0.331075
vt 0.073392 0.325722
vt 0.133566 0.574451
vt 0.133688 0.568240
vt 0.136327 0.569402
vt 0.128192 0.565818
vt 0.131123 0.570391
vt 0.138189 0.563957
vt 0.133544 0.564896
vt 0.040205 0.356759
vt 0.044510 0.352280
vt 0.044803 0.355614
vt 0.044356 0.346069
vt 0.041822 0.351236
vt 0.050109 0.354454
vt 0.046977 0.350017
vt 0.102508 0.598083
vt 0.106987 0.593777
vt 0.108031 0.596466
vt 0.104812 0.588179
vt 0.103652 0.593485
vt 0.113197 0.593932
vt 0.109250 0.591311
vt 0.045456 0.395430
vt 0.045333 0.389219
vt 0.047898 0.391370
vt 0.040833 0.384936
vt 0.042694 0.390381
vt 0.050830 0.386797
vt 0.045477 0.385874
vt 0.063837 0.592832
vt 0.070048 0.592955
vt 0.068885 0.595594
vt 0.072470 0.587458
vt 0.067897 0.590390
vt 0.074331 0.597455
vt 0.073392 0.592811
vt 0.065824 0.414910
vt 0.072034 0.414756
vt 0.070990 0.417445
vt 0.074209 0.409157
vt 0.069771 0.412290
vt 0.076513 0.419062
vt 0.075369 0.414464
vt 0.044356 0.572464
vt 0.044510 0.566253
vt 0.046977 0.568517
vt 0.040205 0.561775
vt 0.041822 0.567297
vt 0.050109 0.564079
vt 0.044803 0.562919
vt 0.235021 0.547648
vt 0.241231 0.547462
vt 0.240200 0.550156
vt 0.243376 0.541852
vt 0.238955 0.545007
vt 0.245731 0.551745
vt 0.244563 0.547153
vt 0.217873 0.377373
vt 0.218059 0.371163
vt 0.220513 0.373439
vt 0.213776 0.366663
vt 0.215365 0.372193
vt 0.223668 0.369017
vt 0.218368 0.367830
vt 0.278180 0.546467
vt 0.271970 0.546621
vt 0.274108 0.544045
vt 0.267710 0.551143
vt 0.273146 0.549254
vt 0.269520 0.541137
vt 0.268625 0.546494
vt 0.219054 0.334213
vt 0.218900 0.340424
vt 0.216267 0.339248
vt 0.224384 0.342873
vt 0.221475 0.338286
vt 0.214377 0.344684
vt 0.219026 0.343769
vt 0.297393 0.519790
vt 0.293111 0.524290
vt 0.292801 0.520957
vt 0.293296 0.530500
vt 0.295804 0.525320
vt 0.287501 0.522144
vt 0.290656 0.526566
vt 0.245731 0.315000
vt 0.241231 0.319283
vt 0.240200 0.316589
vt 0.243376 0.324893
vt 0.244563 0.319592
vt 0.235021 0.319097
vt 0.238955 0.321738
vt 0.292115 0.487340
vt 0.292269 0.493551
vt 0.289694 0.491413
vt 0.296792 0.497811
vt 0.294903 0.492375
vt 0.286785 0.496000
vt 0.292143 0.496896
vt 0.278180 0.320278
vt 0.271970 0.320124
vt 0.273146 0.317491
vt 0.269520 0.325608
vt 0.274108 0.322700
vt 0.267710 0.315602
vt 0.268625 0.320251
vt 0.265438 0.468127
vt 0.269939 0.472410
vt 0.266606 0.472719
vt 0.276149 0.472224
vt 0.270969 0.469716
vt 0.267793 0.478020
vt 0.272214 0.474865
vt 0.297393 0.346956
vt 0.293111 0.342455
vt 0.295804 0.341425
vt 0.287501 0.344601
vt 0.292801 0.345788
vt 0.293296 0.336245
vt 0.290656 0.340179
vt 0.232989 0.473405
vt 0.239200 0.473251
vt 0.237062 0.475827
vt 0.243459 0.468729
vt 0.238023 0.470618
vt 0.241649 0.478735
vt 0.242544 0.473378
vt 0.292115 0.379405
vt 0.292269 0.373194
vt 0.294903 0.374370
vt 0.286785 0.370745
vt 0.289694 0.375332
vt 0.296792 0.368934
vt 0.292143 0.369849
vt 0.213776 0.500083
vt 0.218059 0.495582
vt 0.218368 0.498915
vt 0.217873 0.489372
vt 0.215365 0.494552
vt 0.223668 0.497728
vt 0.220513 0.493306
vt 0.265438 0.398618
vt 0.269939 0.394335
vt 0.270969 0.397029
vt 0.267793 0.388725
vt 0.266606 0.394026
vt 0.276149 0.394521
vt 0.272214 0.391880
vt 0.219054 0.532532
vt 0.218900 0.526321
vt 0.221475 0.528459
vt 0.214378 0.522061
vt 0.216267 0.527497
vt 0.224384 0.523872
vt 0.219026 0.522976
vt 0.232989 0.393340
vt 0.239200 0.393494
vt 0.238023 0.396127
vt 0.241649 0.388010
vt 0.237062 0.390918
vt 0.243459 0.398016
vt 0.242544 0.393367
vt 0.675131 0.016663
vt 0.671625 0.013157
vt 0.675131 0.012369
vt 0.484110 0.020627
vt 0.487616 0.016315
vt 0.488404 0.019763
vt 0.484110 0.012369
vt 0.484110 0.016009
vt 0.350512 0.020627
vt 0.347006 0.016315
vt 0.350512 0.016009
vt 0.716554 0.016663
vt 0.720060 0.013157
vt 0.720848 0.016663
vt 0.350512 0.012369
vt 0.346218 0.013924
vt 0.679180 0.016663
vt 0.682686 0.013157
vt 0.683474 0.016663
vt 0.090694 0.788549
vt 0.094977 0.792055
vt 0.091488 0.792843
vt 0.098839 0.788549
vt 0.095330 0.788549
vt 0.712506 0.016663
vt 0.709000 0.013157
vt 0.712506 0.012369
vt 0.098839 0.654951
vt 0.094977 0.651445
vt 0.097247 0.650657
vt 0.090694 0.654951
vt 0.095330 0.654951
vt 0.675131 0.263617
vt 0.671625 0.267123
vt 0.670837 0.263617
vt 0.127199 0.788549
vt 0.131482 0.792055
vt 0.127993 0.792843
vt 0.135344 0.788549
vt 0.131836 0.788549
vt 0.716554 0.263617
vt 0.720060 0.267123
vt 0.716554 0.267911
vt 0.135344 0.654951
vt 0.131482 0.651445
vt 0.133753 0.650657
vt 0.127199 0.654951
vt 0.131836 0.654951
vt 0.679180 0.263617
vt 0.682686 0.267123
vt 0.679180 0.267911
vt 0.484110 0.269489
vt 0.487616 0.265178
vt 0.488404 0.268625
vt 0.484110 0.261232
vt 0.484110 0.264872
vt 0.712506 0.263617
vt 0.709000 0.267123
vt 0.708212 0.263617
vt 0.350512 0.261232
vt 0.347006 0.265178
vt 0.346217 0.262786
vt 0.350512 0.269489
vt 0.350512 0.264872
vt 0.791303 0.263617
vt 0.794809 0.267123
vt 0.791303 0.267911
vt 0.150261 0.016633
vt 0.153767 0.013170
vt 0.154555 0.016662
vt 0.016763 0.788549
vt 0.013108 0.792055
vt 0.012369 0.788549
vt 0.016663 0.016633
vt 0.013157 0.013170
vt 0.016663 0.012369
vt 0.749880 0.263617
vt 0.746374 0.267123
vt 0.745586 0.263617
vt 0.016763 0.654951
vt 0.013108 0.651445
vt 0.016655 0.650657
vt 0.787255 0.263617
vt 0.783749 0.267123
vt 0.782961 0.263617
vt 0.020804 0.788549
vt 0.024148 0.792055
vt 0.020696 0.792843
vt 0.317185 0.263554
vt 0.320691 0.267102
vt 0.317185 0.267877
vt 0.753929 0.263617
vt 0.757435 0.267123
vt 0.753929 0.267911
vt 0.183587 0.263554
vt 0.180081 0.267102
vt 0.179293 0.263583
vt 0.020804 0.654951
vt 0.024148 0.651445
vt 0.024982 0.654951
vt 0.791303 0.016663
vt 0.794809 0.013157
vt 0.795597 0.016663
vt 0.058155 0.788549
vt 0.061499 0.792055
vt 0.058047 0.792843
vt 0.150261 0.263554
vt 0.153767 0.267102
vt 0.150261 0.267877
vt 0.749880 0.016663
vt 0.746374 0.013157
vt 0.749880 0.012369
vt 0.016663 0.263554
vt 0.013157 0.267102
vt 0.012369 0.263583
vt 0.058155 0.654951
vt 0.061499 0.651445
vt 0.062333 0.654951
vt 0.787255 0.016663
vt 0.783749 0.013157
vt 0.787255 0.012369
vt 0.317185 0.016633
vt 0.320691 0.013170
vt 0.321479 0.016662
vt 0.054114 0.788549
vt 0.050459 0.792055
vt 0.049720 0.788549
vt 0.753929 0.016663
vt 0.757435 0.013157
vt 0.758223 0.016663
vt 0.054114 0.654951
vt 0.050459 0.651445
vt 0.054006 0.650657
vt 0.183587 0.016633
vt 0.180081 0.013170
vt 0.183587 0.012369
vt 0.675293 0.305013
vt 0.671871 0.307529
vt 0.670982 0.303567
vt 0.804381 0.739023
vt 0.809417 0.742529
vt 0.806206 0.743317
vt 0.814585 0.739023
vt 0.809130 0.739023
vt 0.683564 0.348397
vt 0.686985 0.350913
vt 0.683469 0.352943
vt 0.814585 0.386810
vt 0.809417 0.383304
vt 0.813421 0.382516
vt 0.804381 0.386810
vt 0.809130 0.386810
vt 0.674727 0.299911
vt 0.670837 0.298206
vt 0.673823 0.295455
vt 0.818437 0.742529
vt 0.814679 0.743317
vt 0.928180 0.739023
vt 0.924062 0.742529
vt 0.923279 0.739023
vt 0.684129 0.343295
vt 0.688019 0.341590
vt 0.688019 0.345650
vt 0.928180 0.386810
vt 0.924062 0.383304
vt 0.927927 0.382516
vt 0.818437 0.383304
vt 0.819285 0.386810
vt 0.678862 0.296870
vt 0.678394 0.292649
vt 0.682270 0.293859
vt 0.933253 0.742529
vt 0.929210 0.743317
vt 0.938155 0.739023
vt 0.933628 0.739023
vt 0.679994 0.340254
vt 0.680462 0.336033
vt 0.683978 0.338063
vt 0.938155 0.386810
vt 0.933253 0.383304
vt 0.936263 0.382516
vt 0.933628 0.386810
vt 0.683564 0.298931
vt 0.686985 0.296415
vt 0.687875 0.300377
vt 0.844023 0.739023
vt 0.849059 0.742529
vt 0.845848 0.743317
vt 0.854226 0.739023
vt 0.848772 0.739023
vt 0.675293 0.342315
vt 0.671871 0.339799
vt 0.675388 0.337769
vt 0.854226 0.386810
vt 0.849059 0.383304
vt 0.853062 0.382516
vt 0.844023 0.386810
vt 0.848772 0.386810
vt 0.684129 0.304033
vt 0.688019 0.305738
vt 0.685033 0.308489
vt 0.858078 0.742529
vt 0.854321 0.743317
vt 0.888566 0.739023
vt 0.884448 0.742529
vt 0.883665 0.739023
vt 0.674727 0.347417
vt 0.670837 0.349122
vt 0.670837 0.345062
vt 0.888566 0.386810
vt 0.884448 0.383304
vt 0.888313 0.382516
vt 0.858078 0.383304
vt 0.858927 0.386810
vt 0.679994 0.307074
vt 0.680462 0.311295
vt 0.676586 0.310085
vt 0.893639 0.742529
vt 0.889596 0.743317
vt 0.898541 0.739023
vt 0.894014 0.739023
vt 0.678862 0.350458
vt 0.678394 0.354679
vt 0.674878 0.352649
vt 0.898541 0.386810
vt 0.893639 0.383304
vt 0.896649 0.382516
vt 0.894014 0.386810
vt 0.127721 0.442278
vt 0.117234 0.446898
vt 0.645133 0.461715
vt 0.633323 0.413302
vt 0.637731 0.413237
vt 0.635311 0.461859
vt 0.627903 0.413381
vt 0.634747 0.510454
vt 0.640727 0.461780
vt 0.016989 0.510567
vt 0.013779 0.515414
vt 0.012369 0.521054
vt 0.577608 0.043968
vt 0.577640 0.012369
vt 0.583363 0.012777
vt 0.163661 0.404700
vt 0.575722 0.092582
vt 0.571798 0.044054
vt 0.564501 0.092748
vt 0.566381 0.044134
vt 0.573230 0.141205
vt 0.569915 0.092668
vt 0.579040 0.141120
vt 0.580002 0.172704
vt 0.054567 0.474626
vt 0.059552 0.471636
vt 0.162032 0.331545
vt 0.166652 0.342032
vt 0.646099 0.091545
vt 0.633969 0.043138
vt 0.638205 0.043075
vt 0.636548 0.091686
vt 0.628648 0.043216
vt 0.635400 0.140289
vt 0.641866 0.091608
vt 0.127721 0.476256
vt 0.122874 0.473046
vt 0.117234 0.471636
vt 0.409550 0.541714
vt 0.410965 0.510094
vt 0.416653 0.510503
vt 0.124454 0.295605
vt 0.407096 0.590336
vt 0.403754 0.541798
vt 0.395988 0.590499
vt 0.398435 0.541876
vt 0.405177 0.638950
vt 0.401303 0.590421
vt 0.410974 0.638865
vt 0.413315 0.670430
vt 0.163661 0.513834
vt 0.166652 0.518819
vt 0.051300 0.297235
vt 0.061787 0.292615
vt 0.478209 0.589294
vt 0.466398 0.540880
vt 0.470807 0.540816
vt 0.468387 0.589437
vt 0.460979 0.540960
vt 0.467822 0.638032
vt 0.473803 0.589358
vt 0.162032 0.586988
vt 0.165242 0.582141
vt 0.166652 0.576501
vt 0.577608 0.229042
vt 0.577640 0.197442
vt 0.583363 0.197850
vt 0.015360 0.334812
vt 0.575722 0.277656
vt 0.571798 0.229127
vt 0.564501 0.277821
vt 0.566381 0.229207
vt 0.573230 0.326279
vt 0.569915 0.277741
vt 0.579040 0.326193
vt 0.580002 0.357778
vt 0.124454 0.622928
vt 0.119469 0.625919
vt 0.016989 0.407967
vt 0.012369 0.397480
vt 0.646099 0.276619
vt 0.633969 0.228211
vt 0.638205 0.228149
vt 0.636548 0.276760
vt 0.628648 0.228290
vt 0.635400 0.325363
vt 0.641866 0.276681
vt 0.051300 0.621299
vt 0.056147 0.624509
vt 0.061787 0.625919
vt 0.576474 0.414135
vt 0.577889 0.382516
vt 0.583577 0.382924
vt 0.054567 0.443907
vt 0.574020 0.462757
vt 0.570678 0.414220
vt 0.562912 0.462920
vt 0.565359 0.414298
vt 0.572102 0.511372
vt 0.568228 0.462842
vt 0.577898 0.511287
vt 0.580239 0.542851
vt 0.015360 0.583721
vt 0.012369 0.578736
vt 0.701228 0.593261
vt 0.701206 0.567589
vt 0.706895 0.567979
vt 0.226029 0.571165
vt 0.699315 0.633786
vt 0.695432 0.593365
vt 0.688207 0.633985
vt 0.690113 0.593460
vt 0.696883 0.674321
vt 0.693523 0.633890
vt 0.702680 0.674217
vt 0.703578 0.699873
vt 0.194355 0.386365
vt 0.191390 0.381364
vt 0.288445 0.569457
vt 0.277981 0.574131
vt 0.758166 0.632731
vt 0.747458 0.592432
vt 0.751866 0.592353
vt 0.748345 0.632907
vt 0.742039 0.592529
vt 0.748909 0.673388
vt 0.753760 0.632810
vt 0.196064 0.323949
vt 0.192829 0.328780
vt 0.191390 0.334412
vt 0.568345 0.593266
vt 0.568121 0.567589
vt 0.573828 0.568184
vt 0.316814 0.539492
vt 0.565447 0.633704
vt 0.562535 0.593161
vt 0.554227 0.633502
vt 0.557118 0.593063
vt 0.561077 0.674116
vt 0.559641 0.633600
vt 0.566887 0.674221
vt 0.565738 0.699873
vt 0.226029 0.295580
vt 0.231030 0.292615
vt 0.315106 0.477076
vt 0.319779 0.487539
vt 0.623655 0.634753
vt 0.614167 0.594091
vt 0.618403 0.594168
vt 0.614105 0.634581
vt 0.608847 0.593995
vt 0.612709 0.675047
vt 0.619422 0.634677
vt 0.288445 0.297288
vt 0.283614 0.294054
vt 0.277981 0.292615
vt 0.722705 0.408188
vt 0.722684 0.382516
vt 0.728373 0.382906
vt 0.285140 0.448707
vt 0.720793 0.448713
vt 0.716909 0.408292
vt 0.709685 0.448912
vt 0.711591 0.408387
vt 0.718361 0.489247
vt 0.715000 0.448817
vt 0.724157 0.489143
vt 0.725056 0.514799
vt 0.316814 0.327254
vt 0.319779 0.332254
vt 0.222725 0.450415
vt 0.233188 0.445742
vt 0.779643 0.447657
vt 0.768935 0.407359
vt 0.773343 0.407280
vt 0.769822 0.447833
vt 0.763516 0.407456
vt 0.770387 0.488314
vt 0.775238 0.447736
vt 0.315106 0.389669
vt 0.318340 0.384838
vt 0.319779 0.379206
vt 0.246593 0.624545
vt 0.246370 0.598868
vt 0.252076 0.599463
vt 0.194355 0.480381
vt 0.243695 0.664983
vt 0.240784 0.624440
vt 0.232475 0.664781
vt 0.235366 0.624343
vt 0.239325 0.705396
vt 0.237889 0.664879
vt 0.245135 0.705500
vt 0.243986 0.731152
vt 0.285140 0.418038
vt 0.280140 0.421004
vt 0.196064 0.542796
vt 0.191390 0.532333
vt 0.301904 0.666032
vt 0.292416 0.625370
vt 0.296651 0.625447
vt 0.292354 0.665860
vt 0.287095 0.625274
vt 0.290957 0.706326
vt 0.297671 0.665956
vt 0.222725 0.416330
vt 0.227555 0.419564
vt 0.233188 0.421004
vt 0.679180 0.012369
vt 0.087865 0.792843
vt 0.716554 0.012369
vt 0.087865 0.650657
vt 0.087071 0.654951
vt 0.683474 0.263617
vt 0.488404 0.484492
vt 0.708212 0.016663
vt 0.346217 0.268625
vt 0.350512 0.485356
vt 0.346217 0.484492
vt 0.675131 0.267911
vt 0.124371 0.792843
vt 0.712506 0.267911
vt 0.127993 0.650657
vt 0.123577 0.654951
vt 0.124371 0.650657
vt 0.670837 0.016663
vt 0.488404 0.235630
vt 0.720848 0.263617
vt 0.346218 0.019763
vt 0.350512 0.236494
vt 0.346218 0.235630
vt 0.787255 0.267911
vt 0.016655 0.792843
vt 0.150261 0.012369
vt 0.012369 0.654951
vt 0.749880 0.267911
vt 0.020696 0.650657
vt 0.183587 0.267877
vt 0.024982 0.788549
vt 0.782961 0.016663
vt 0.321479 0.263583
vt 0.758223 0.263617
vt 0.179293 0.016662
vt 0.049720 0.654951
vt 0.317185 0.012369
vt 0.791303 0.012369
vt 0.753929 0.012369
vt 0.058047 0.650657
vt 0.016663 0.267877
vt 0.062333 0.788549
vt 0.795597 0.263617
vt 0.154555 0.263583
vt 0.745586 0.016663
vt 0.012369 0.016662
vt 0.813421 0.743317
vt 0.670837 0.302266
vt 0.814679 0.382516
vt 0.923279 0.386810
vt 0.819285 0.739023
vt 0.927927 0.743317
vt 0.674878 0.294679
vt 0.929210 0.382516
vt 0.685033 0.338839
vt 0.844907 0.743317
vt 0.844907 0.382516
vt 0.845848 0.382516
vt 0.676586 0.337243
vt 0.853062 0.743317
vt 0.854321 0.382516
vt 0.670982 0.343761
vt 0.883665 0.386810
vt 0.858927 0.739023
vt 0.888313 0.743317
vt 0.683978 0.309265
vt 0.889596 0.382516
vt 0.673823 0.351873
vt 0.805265 0.743317
vt 0.675388 0.309559
vt 0.805265 0.382516
vt 0.806206 0.382516
vt 0.682270 0.353469
vt 0.513142 0.463650
vt 0.585913 0.542276
vt 0.629327 0.510533
vt 0.613789 0.541868
vt 0.525020 0.512062
vt 0.566783 0.511450
vt 0.089511 0.369756
vt 0.513142 0.093504
vt 0.524716 0.141920
vt 0.567812 0.141285
vt 0.089511 0.548777
vt 0.630079 0.140368
vt 0.585711 0.172128
vt 0.613375 0.171721
vt 0.346218 0.591228
vt 0.358096 0.639640
vt 0.399859 0.639028
vt 0.462403 0.638112
vt 0.418989 0.669855
vt 0.446865 0.669446
vt 0.513142 0.278578
vt 0.524716 0.326994
vt 0.567812 0.326359
vt 0.630079 0.325441
vt 0.585711 0.357202
vt 0.613376 0.356794
vt 0.255585 0.509936
vt 0.656973 0.594055
vt 0.648394 0.634699
vt 0.691565 0.674416
vt 0.658425 0.675010
vt 0.743490 0.673485
vt 0.730995 0.698889
vt 0.709250 0.699279
vt 0.255585 0.356809
vt 0.522920 0.592447
vt 0.513142 0.632762
vt 0.555659 0.674019
vt 0.521462 0.673403
vt 0.607388 0.674951
vt 0.593043 0.699873
vt 0.571462 0.699484
vt 0.678451 0.408981
vt 0.669871 0.449626
vt 0.713042 0.489342
vt 0.679903 0.489937
vt 0.764968 0.488411
vt 0.752473 0.513816
vt 0.730727 0.514205
vt 0.201169 0.623726
vt 0.191390 0.664041
vt 0.233908 0.705298
vt 0.199710 0.704682
vt 0.285637 0.706230
vt 0.271291 0.731152
vt 0.249711 0.730763
vt 0.087071 0.788549
vt 0.484110 0.236494
vt 0.484110 0.485356
vt 0.123577 0.788549
vt 0.987631 0.382516
vt 0.987631 0.734729
vt 0.898541 0.739023
vt 0.160082 0.650657
vt 0.962893 0.382516
vt 0.962893 0.734729
vt 0.669871 0.542851
vt 0.488404 0.013924
vt 0.097247 0.792843
vt 0.091488 0.650657
vt 0.133753 0.792843
vt 0.488404 0.262786
vt 0.054006 0.792843
vt 0.687875 0.346951
vt 0.936263 0.743317
vt 0.683469 0.294385
vt 0.688019 0.301678
vt 0.896649 0.743317
vt 0.122874 0.445487
vt 0.639155 0.510389
vt 0.166652 0.399715
vt 0.165242 0.336393
vt 0.639636 0.140227
vt 0.119469 0.292615
vt 0.056147 0.294025
vt 0.472231 0.637968
vt 0.012369 0.339798
vt 0.013779 0.403120
vt 0.639636 0.325300
vt 0.059552 0.446898
vt 0.231030 0.574131
vt 0.283614 0.572691
vt 0.753318 0.673309
vt 0.319779 0.534491
vt 0.318340 0.481907
vt 0.616945 0.675123
vt 0.280140 0.445742
vt 0.227555 0.447181
vt 0.774795 0.488235
vt 0.191390 0.485381
vt 0.192829 0.537965
vt 0.295193 0.706402
vt 0.611453 0.382516
vt 0.523597 0.414910
vt 0.523285 0.044769
vt 0.611028 0.012369
vt 0.356672 0.542489
vt 0.444529 0.510094
vt 0.523285 0.229842
vt 0.611028 0.197442
vt 0.728641 0.567589
vt 0.595409 0.568573
vt 0.750118 0.382516
vt 0.273657 0.599852
vt 0.898541 0.386810
s 1
f 11/1/1 15/2/2 17/3/3
f 12/4/4 15/2/2 14/5/5
f 13/6/6 15/2/2 16/7/7
f 27/8/8 31/9/9 33/10/10
f 28/11/11 31/9/9 30/12/12
f 29/13/13 31/9/9 32/14/14
f 34/15/15 38/16/16 40/17/17
f 35/18/18 38/16/16 37/19/19
f 36/20/20 38/16/16 39/21/21
f 50/22/22 54/23/23 56/24/24
f 51/25/25 54/23/23 53/26/26
f 52/27/27 54/23/23 55/28/28
f 57/29/29 61/30/30 63/31/31
f 58/32/32 61/30/30 60/33/33
f 59/34/34 61/30/30 62/35/35
f 73/36/36 77/37/37 79/38/38
f 74/39/39 77/37/37 76/40/40
f 75/41/41 77/37/37 78/42/42
f 80/43/43 84/44/44 86/45/45
f 81/46/46 84/44/44 83/47/47
f 82/48/48 84/44/44 85/49/49
f 96/50/50 100/51/51 102/52/52
f 97/53/53 100/51/51 99/54/54
f 98/55/55 100/51/51 101/56/56
f 103/57/57 107/58/58 109/59/59
f 104/60/60 107/58/58 106/61/61
f 105/62/62 107/58/58 108/63/63
f 119/64/64 123/65/65 125/66/66
f 120/67/67 123/65/65 122/68/68
f 121/69/69 123/65/65 124/70/70
f 126/71/71 130/72/72 132/73/73
f 127/74/74 130/72/72 129/75/75
f 128/76/76 130/72/72 131/77/77
f 142/78/78 146/79/79 148/80/80
f 143/81/81 146/79/79 145/82/82
f 144/83/83 146/79/79 147/84/84
f 149/85/85 153/86/86 155/87/87
f 150/88/88 153/86/86 152/89/89
f 151/90/90 153/86/86 154/91/91
f 165/92/92 169/93/93 171/94/94
f 166/95/95 169/93/93 168/96/96
f 167/97/97 169/93/93 170/98/98
f 172/99/99 176/100/100 178/101/101
f 173/102/102 176/100/100 175/103/103
f 174/104/104 176/100/100 177/105/105
f 182/106/106 186/107/107 188/108/108
f 183/109/109 186/107/107 185/110/110
f 184/111/111 186/107/107 187/112/112
f 189/113/99 193/114/100 195/115/101
f 190/116/102 193/114/100 192/117/103
f 191/118/104 193/114/100 194/119/105
f 205/120/106 209/121/107 211/122/113
f 206/123/109 209/121/107 208/124/110
f 207/125/111 209/121/107 210/126/114
f 212/127/6 216/128/2 218/129/7
f 213/130/1 216/128/2 215/131/3
f 214/132/4 216/128/2 217/133/5
f 228/134/11 232/135/9 234/136/12
f 229/137/13 232/135/9 231/138/115
f 230/139/8 232/135/9 233/140/116
f 235/141/15 239/142/16 241/143/17
f 236/144/18 239/142/16 238/145/19
f 237/146/20 239/142/16 240/147/21
f 251/148/22 255/149/23 257/150/24
f 252/151/25 255/149/23 254/152/26
f 253/153/27 255/149/23 256/154/28
f 258/155/29 262/156/30 264/157/31
f 259/158/32 262/156/30 261/159/33
f 260/160/34 262/156/30 263/161/35
f 274/162/36 278/163/37 280/164/38
f 275/165/39 278/163/37 277/166/117
f 276/167/41 278/163/37 279/168/118
f 281/169/43 285/170/44 287/171/45
f 282/172/46 285/170/44 284/173/47
f 283/174/48 285/170/44 286/175/49
f 297/176/50 301/177/51 303/178/52
f 298/179/53 301/177/51 300/180/119
f 299/181/55 301/177/51 302/182/120
f 304/183/57 308/184/58 310/185/59
f 305/186/60 308/184/58 307/187/61
f 306/188/62 308/184/58 309/189/63
f 320/190/64 324/191/65 326/192/66
f 321/193/67 324/191/65 323/194/121
f 322/195/69 324/191/65 325/196/122
f 327/197/71 331/198/72 333/199/73
f 328/200/74 331/198/72 330/201/75
f 329/202/76 331/198/72 332/203/77
f 343/204/78 347/205/79 349/206/80
f 344/207/81 347/205/79 346/208/82
f 345/209/83 347/205/79 348/210/84
f 350/211/85 354/212/86 356/213/87
f 351/214/88 354/212/86 353/215/89
f 352/216/90 354/212/86 355/217/123
f 366/218/92 370/219/93 372/220/94
f 367/221/95 370/219/93 369/222/124
f 368/223/97 370/219/93 371/224/125
f 373/225/126 377/226/127 379/227/128
f 374/228/129 377/229/130 376/230/131
f 375/231/132 377/229/133 378/232/134
f 380/233/135 384/234/136 386/235/137
f 381/236/138 384/237/139 383/238/140
f 382/239/141 384/234/142 385/240/143
f 387/241/144 391/242/145 393/243/146
f 388/244/147 391/245/148 390/246/149
f 389/247/150 391/245/151 392/248/152
f 394/249/153 398/250/154 400/251/155
f 395/252/156 398/253/157 397/254/158
f 396/255/159 398/253/160 399/256/161
f 401/257/162 405/258/163 407/259/164
f 402/260/165 405/261/166 404/262/167
f 403/263/168 405/261/169 406/264/170
f 408/265/171 412/266/172 414/267/173
f 409/268/174 412/269/175 411/270/176
f 410/271/177 412/269/178 413/272/179
f 415/273/180 419/274/181 421/275/182
f 416/276/183 419/277/184 418/278/185
f 417/279/186 419/277/187 420/280/188
f 422/281/189 426/282/190 428/283/191
f 423/284/192 426/285/193 425/286/194
f 424/287/195 426/285/196 427/288/197
f 429/289/198 433/290/199 435/291/200
f 430/292/201 433/293/202 432/294/203
f 431/295/204 433/296/205 434/297/206
f 436/298/207 440/299/208 442/300/209
f 437/301/210 440/302/211 439/303/212
f 438/304/213 440/305/214 441/306/215
f 443/307/216 447/308/217 449/309/218
f 444/310/219 447/311/220 446/312/221
f 445/313/222 447/314/223 448/315/224
f 450/316/225 454/317/226 456/318/227
f 451/319/228 454/320/229 453/321/230
f 452/322/231 454/323/232 455/324/233
f 457/325/234 461/326/235 463/327/236
f 458/328/237 461/329/238 460/330/239
f 459/331/240 461/332/241 462/333/242
f 464/334/243 468/335/244 470/336/245
f 465/337/246 468/338/247 467/339/248
f 466/340/249 468/341/250 469/342/251
f 471/343/252 475/344/253 477/345/254
f 472/346/255 475/347/256 474/348/257
f 473/349/258 475/350/259 476/351/260
f 478/352/261 482/353/262 484/354/263
f 479/355/264 482/356/265 481/357/266
f 480/358/267 482/359/268 483/360/269
f 485/361/270 489/362/271 491/363/272
f 486/364/273 489/365/274 488/366/275
f 487/367/276 489/365/274 490/368/277
f 492/369/278 496/370/279 498/371/280
f 493/372/281 496/373/282 495/374/283
f 494/375/284 496/373/282 497/376/285
f 499/377/286 503/378/287 505/379/288
f 500/367/289 503/380/290 502/381/291
f 501/382/292 503/383/290 504/384/293
f 506/385/294 510/386/295 512/387/296
f 507/388/297 510/389/298 509/390/299
f 508/372/300 510/391/298 511/392/301
f 513/393/302 517/394/303 519/395/304
f 514/382/305 517/396/306 516/397/307
f 515/398/308 517/396/306 518/399/309
f 520/400/310 524/401/311 526/402/312
f 521/403/313 524/404/314 523/405/315
f 522/388/316 524/404/314 525/406/317
f 527/407/318 531/408/319 533/409/320
f 528/410/321 531/411/322 530/412/323
f 529/413/324 531/411/322 532/414/325
f 534/415/326 538/416/327 540/417/328
f 535/418/329 538/419/330 537/420/331
f 536/421/332 538/419/330 539/422/333
f 541/423/334 545/424/335 547/425/336
f 542/413/337 545/426/338 544/427/339
f 543/428/340 545/429/338 546/430/341
f 548/431/342 552/432/343 554/433/344
f 549/434/345 552/435/346 551/436/347
f 550/418/348 552/437/346 553/438/349
f 555/439/350 559/440/351 561/441/352
f 556/428/353 559/442/354 558/443/355
f 557/444/356 559/442/354 560/445/357
f 562/446/358 566/447/359 568/448/360
f 563/449/361 566/450/362 565/451/363
f 564/434/364 566/450/362 567/452/365
f 18/453/366 17/3/3 13/6/6
f 17/3/3 19/454/367 11/1/1
f 21/455/368 20/456/369 18/457/366
f 20/456/369 22/458/370 19/459/367
f 21/455/368 26/460/371 23/461/372
f 26/460/371 22/458/370 23/461/372
f 24/462/373 30/12/12 26/463/371
f 30/12/12 25/464/374 26/463/371
f 41/465/375 37/466/19 34/467/15
f 37/19/19 42/468/376 35/18/18
f 44/469/377 43/470/378 41/465/375
f 43/470/378 45/471/379 42/472/376
f 44/469/377 49/473/380 46/474/381
f 49/473/380 45/471/379 46/474/381
f 47/475/382 56/476/24 49/473/380
f 56/24/24 48/477/383 49/478/380
f 52/27/27 32/14/14 28/11/11
f 55/28/28 29/13/13 32/14/14
f 12/4/4 39/21/21 16/7/7
f 39/21/21 13/6/6 16/7/7
f 64/479/384 60/33/33 57/29/29
f 60/33/33 65/480/385 58/32/32
f 67/481/386 66/482/387 64/483/384
f 66/482/387 68/484/388 65/485/385
f 67/481/386 72/486/389 69/487/390
f 72/486/389 68/484/388 69/487/390
f 70/488/391 79/38/38 72/489/389
f 79/38/38 71/490/392 72/489/389
f 75/41/41 53/26/26 50/22/22
f 53/26/26 74/39/39 51/25/25
f 59/34/34 40/17/17 36/20/20
f 62/35/35 34/15/15 40/17/17
f 87/491/393 83/492/47 80/493/43
f 83/47/47 88/494/394 81/46/46
f 90/495/395 89/496/396 87/491/393
f 89/496/396 91/497/397 88/498/394
f 90/495/395 95/499/398 92/500/399
f 95/499/398 91/497/397 92/500/399
f 93/501/400 102/502/52 95/499/398
f 102/52/52 94/503/401 95/504/398
f 59/34/34 85/49/49 63/31/31
f 85/49/49 57/29/29 63/31/31
f 74/39/39 101/56/56 97/53/53
f 76/40/40 98/55/55 101/56/56
f 110/505/402 106/61/61 103/57/57
f 106/61/61 111/506/403 104/60/60
f 113/507/404 112/508/405 110/509/402
f 112/508/405 114/510/406 111/511/403
f 113/507/404 118/512/407 115/513/408
f 118/512/407 114/510/406 115/513/408
f 116/514/409 125/66/66 118/515/407
f 125/66/66 117/516/410 118/515/407
f 105/62/62 86/45/45 82/48/48
f 108/63/63 80/43/43 86/45/45
f 120/67/67 99/54/54 124/70/70
f 99/54/54 121/69/69 124/70/70
f 133/517/411 129/518/75 126/519/71
f 129/75/75 134/520/412 127/74/74
f 136/521/413 135/522/414 133/517/411
f 135/522/414 137/523/415 134/524/412
f 136/521/413 141/525/416 138/526/417
f 141/525/416 137/523/415 138/526/417
f 139/527/418 148/528/80 141/525/416
f 148/80/80 140/529/419 141/530/416
f 120/67/67 147/84/84 143/81/81
f 122/68/68 144/83/83 147/84/84
f 103/57/57 131/77/77 127/74/74
f 131/77/77 105/62/62 128/76/76
f 156/531/420 152/89/89 149/85/85
f 152/89/89 157/532/421 150/88/88
f 159/533/422 158/534/423 156/535/420
f 158/534/423 160/536/424 157/537/421
f 159/533/422 164/538/425 161/539/426
f 164/538/425 160/536/424 161/539/426
f 162/540/427 171/94/94 164/541/425
f 171/94/94 163/542/428 164/541/425
f 166/95/95 145/82/82 170/98/98
f 145/82/82 167/97/97 170/98/98
f 126/71/71 154/91/91 150/88/88
f 132/73/73 151/90/90 154/91/91
f 166/95/95 188/108/108 184/111/111
f 168/96/96 182/106/106 188/108/108
f 149/85/85 175/103/103 172/99/99
f 175/103/103 151/90/90 173/102/102
f 5/543/429 178/544/101 174/545/104
f 178/101/101 6/546/430 172/99/99
f 179/547/431 7/548/432 5/543/429
f 7/548/432 180/549/433 6/550/430
f 179/547/431 10/551/434 181/552/435
f 10/551/434 180/549/433 181/552/435
f 8/553/436 185/554/110 10/551/434
f 185/110/110 9/555/437 10/556/434
f 174/104/104 14/5/5 11/1/1
f 177/105/105 12/4/4 14/5/5
f 27/8/8 187/112/112 183/109/109
f 187/112/112 29/13/13 184/111/111
f 196/557/429 195/558/101 191/559/104
f 195/115/101 197/560/430 189/113/99
f 199/561/431 198/562/432 196/557/429
f 198/562/432 200/563/433 197/564/430
f 199/561/431 204/565/434 201/566/435
f 204/565/434 200/563/433 201/566/435
f 202/567/436 208/568/110 204/565/434
f 208/124/110 203/569/437 204/570/434
f 219/571/366 215/131/3 212/127/6
f 215/131/3 220/572/367 213/130/1
f 222/573/368 221/574/369 219/575/366
f 221/574/369 223/576/370 220/577/367
f 222/573/368 227/578/371 224/579/372
f 227/578/371 223/576/370 224/579/372
f 225/580/373 234/136/12 227/581/371
f 234/136/12 226/582/374 227/581/371
f 213/130/1 194/119/105 217/133/5
f 194/119/105 214/132/4 217/133/5
f 230/139/8 210/126/114 206/123/109
f 233/140/116 207/125/111 210/126/114
f 242/583/375 238/584/19 235/585/15
f 238/145/19 243/586/376 236/144/18
f 245/587/377 244/588/378 242/583/375
f 244/588/378 246/589/379 243/590/376
f 245/587/377 250/591/380 247/592/381
f 250/591/380 246/589/379 247/592/381
f 248/593/382 257/594/24 250/591/380
f 257/150/24 249/595/383 250/596/380
f 253/153/27 231/138/115 228/134/11
f 256/154/28 229/137/13 231/138/115
f 214/132/4 240/147/21 218/129/7
f 218/129/7 236/144/18 212/127/6
f 265/597/384 261/159/33 258/155/29
f 261/159/33 266/598/385 259/158/32
f 268/599/386 267/600/387 265/601/384
f 267/600/387 269/602/388 266/603/385
f 268/599/386 273/604/389 270/605/390
f 273/604/389 269/602/388 270/605/390
f 271/606/391 280/164/38 273/607/389
f 280/164/38 272/608/392 273/607/389
f 276/167/41 254/152/26 251/148/22
f 279/168/118 252/151/25 254/152/26
f 260/160/34 241/143/17 237/146/20
f 241/143/17 259/158/32 235/141/15
f 288/609/393 284/610/47 281/611/43
f 284/173/47 289/612/394 282/172/46
f 291/613/395 290/614/396 288/609/393
f 290/614/396 292/615/397 289/616/394
f 291/613/395 296/617/398 293/618/399
f 296/617/398 292/615/397 293/618/399
f 294/619/400 303/620/52 296/617/398
f 303/178/52 295/621/401 296/622/398
f 260/160/34 286/175/49 264/157/31
f 264/157/31 282/172/46 258/155/29
f 275/165/39 302/182/120 298/179/53
f 277/166/117 299/181/55 302/182/120
f 311/623/402 307/187/61 304/183/57
f 307/187/61 312/624/403 305/186/60
f 314/625/404 313/626/405 311/627/402
f 313/626/405 315/628/406 312/629/403
f 314/625/404 319/630/407 316/631/408
f 319/630/407 315/628/406 316/631/408
f 317/632/409 326/192/66 319/633/407
f 326/192/66 318/634/410 319/633/407
f 306/188/62 287/171/45 283/174/48
f 287/171/45 305/186/60 281/169/43
f 298/179/53 325/196/122 321/193/67
f 300/180/119 322/195/69 325/196/122
f 334/635/411 330/636/75 327/637/71
f 330/201/75 335/638/412 328/200/74
f 337/639/413 336/640/414 334/635/411
f 336/640/414 338/641/415 335/642/412
f 337/639/413 342/643/416 339/644/417
f 342/643/416 338/641/415 339/644/417
f 340/645/418 349/646/80 342/643/416
f 349/206/80 341/647/419 342/648/416
f 321/193/67 348/210/84 344/207/81
f 323/194/121 345/209/83 348/210/84
f 328/200/74 310/185/59 332/203/77
f 332/203/77 306/188/62 329/202/76
f 357/649/420 353/215/89 350/211/85
f 353/215/89 358/650/421 351/214/88
f 360/651/422 359/652/423 357/653/420
f 359/652/423 361/654/424 358/655/421
f 360/651/422 365/656/425 362/657/426
f 365/656/425 361/654/424 362/657/426
f 363/658/427 372/220/94 365/659/425
f 372/220/94 364/660/428 365/659/425
f 344/207/81 371/224/125 367/221/95
f 346/208/82 368/223/97 371/224/125
f 351/214/88 333/199/73 355/217/123
f 333/199/73 352/216/90 355/217/123
f 367/221/95 211/122/113 207/125/111
f 369/222/124 205/120/106 211/122/113
f 189/113/99 356/213/87 192/117/103
f 192/117/103 352/216/90 190/116/102
f 373/225/126 390/661/438 387/241/144
f 379/662/439 388/244/147 390/246/149
f 380/233/135 378/232/440 374/228/129
f 386/235/441 375/231/132 378/232/134
f 381/236/138 400/251/155 385/663/442
f 385/664/143 396/255/159 382/665/141
f 389/247/150 399/256/443 395/252/156
f 392/248/444 396/255/159 399/256/161
f 387/241/144 418/666/445 415/273/180
f 393/667/446 416/276/183 418/278/185
f 422/281/189 397/668/447 394/249/153
f 428/669/448 395/670/156 397/671/158
f 417/279/186 427/288/449 423/284/192
f 420/280/450 424/287/195 427/288/197
f 415/273/180 404/672/451 401/257/162
f 421/673/452 402/260/165 404/262/167
f 408/265/171 425/674/453 422/281/189
f 414/675/454 423/676/192 425/677/194
f 403/263/168 413/272/455 409/268/174
f 406/264/456 410/271/177 413/272/179
f 401/257/162 376/678/457 373/225/126
f 407/679/458 374/228/129 376/230/131
f 381/236/138 411/680/459 408/265/171
f 383/681/460 409/682/174 411/683/176
f 429/289/198 446/684/461 443/307/216
f 435/685/462 444/310/219 446/312/221
f 436/298/207 434/686/463 430/292/201
f 442/687/464 431/295/204 434/297/206
f 450/316/225 441/688/465 437/301/210
f 456/689/466 438/304/213 441/306/215
f 445/313/222 455/690/467 451/319/228
f 448/691/468 452/322/231 455/324/233
f 443/307/216 474/692/469 471/343/252
f 449/693/470 472/346/255 474/348/257
f 478/352/261 453/694/471 450/316/225
f 484/695/472 451/319/228 453/321/230
f 473/349/258 483/696/473 479/355/264
f 476/697/474 480/358/267 483/360/269
f 457/325/234 477/345/254 460/698/475
f 460/330/239 473/349/258 458/328/237
f 464/334/243 481/699/476 478/352/261
f 470/700/477 479/355/264 481/357/266
f 459/331/240 469/701/478 465/337/246
f 462/702/479 466/340/249 469/342/251
f 457/325/234 432/703/480 429/289/198
f 463/704/481 430/292/201 432/294/203
f 437/301/210 467/705/482 464/334/243
f 439/706/483 465/337/246 467/339/248
f 487/367/276 502/381/291 491/707/484
f 502/708/485 485/361/270 491/363/272
f 508/372/300 495/374/283 512/709/486
f 512/387/296 492/369/278 506/385/294
f 494/375/284 490/368/277 486/364/273
f 497/376/285 487/367/276 490/368/277
f 501/382/292 511/710/301 507/388/297
f 504/711/293 508/372/300 511/392/301
f 501/382/292 516/397/307 505/712/487
f 516/713/488 499/377/286 505/379/288
f 522/388/316 509/390/299 526/714/489
f 509/715/490 520/400/310 526/402/312
f 515/398/308 525/406/317 521/403/313
f 518/399/309 522/388/316 525/406/317
f 515/410/308 530/412/323 519/716/491
f 519/395/304 527/407/318 513/393/302
f 536/421/332 523/717/315 540/718/492
f 523/719/493 534/415/326 540/417/328
f 529/413/324 539/422/333 535/418/329
f 532/414/325 536/421/332 539/422/333
f 529/413/324 544/427/339 533/720/494
f 533/409/320 541/423/334 527/407/318
f 550/418/348 537/420/331 554/721/495
f 537/722/496 548/431/342 554/433/344
f 543/428/340 553/723/349 549/434/345
f 546/724/341 550/418/348 553/438/349
f 543/428/340 558/443/355 547/725/497
f 558/726/498 541/423/334 547/425/336
f 564/434/364 551/436/347 568/727/499
f 551/728/500 562/446/358 568/448/360
f 557/444/356 567/452/365 563/449/361
f 560/445/357 564/434/364 567/452/365
f 557/364/356 488/366/275 561/729/501
f 488/730/502 555/439/350 561/441/352
f 494/375/284 565/731/363 498/732/503
f 565/733/504 492/369/278 498/371/280
f 174/545/104 19/459/367 5/543/429
f 159/734/422 6/550/430 180/549/433
f 156/531/420 172/99/99 6/546/430
f 5/543/429 22/458/370 179/547/431
f 183/735/109 25/736/374 27/737/8
f 179/547/431 25/736/374 8/553/436
f 162/540/427 182/106/106 165/92/92
f 162/738/427 180/549/433 9/739/437
f 18/453/366 35/18/18 42/468/376
f 12/4/4 1/740/505 36/20/20
f 173/102/102 1/740/505 12/4/4
f 21/741/368 42/472/376 45/471/379
f 24/742/373 45/471/379 48/743/383
f 24/462/373 52/27/27 28/11/11
f 2/744/506 29/13/13 51/25/25
f 2/744/506 184/111/111 29/13/13
f 34/467/15 65/485/385 41/465/375
f 36/20/20 1/740/505 59/34/34
f 41/465/375 68/484/388 44/469/377
f 44/469/377 71/745/392 47/475/382
f 50/746/22 71/745/392 75/747/41
f 2/744/506 51/25/25 74/39/39
f 64/479/384 81/46/46 88/494/394
f 59/34/34 1/740/505 82/48/48
f 67/748/386 88/498/394 91/497/397
f 70/749/391 91/497/397 94/750/401
f 70/488/391 98/55/55 73/36/36
f 2/744/506 74/39/39 97/53/53
f 80/493/43 111/511/403 87/491/393
f 82/48/48 1/740/505 105/62/62
f 87/491/393 114/510/406 90/495/395
f 90/495/395 117/751/410 93/501/400
f 96/752/50 117/751/410 121/753/69
f 2/744/506 97/53/53 120/67/67
f 110/505/402 127/74/74 134/520/412
f 105/62/62 1/740/505 128/76/76
f 113/754/404 134/524/412 137/523/415
f 116/755/409 137/523/415 140/756/419
f 116/514/409 144/83/83 119/64/64
f 2/744/506 120/67/67 143/81/81
f 126/519/71 157/537/421 133/517/411
f 128/76/76 1/740/505 151/90/90
f 133/517/411 160/536/424 136/521/413
f 136/521/413 163/757/428 139/527/418
f 142/758/78 163/757/428 167/759/97
f 2/744/506 143/81/81 166/95/95
f 151/90/90 1/740/505 173/102/102
f 2/744/506 166/95/95 184/111/111
f 352/216/90 3/760/505 190/116/102
f 190/116/102 3/760/505 214/132/4
f 350/211/85 197/560/430 357/649/420
f 191/559/104 220/577/367 196/557/429
f 357/761/420 200/563/433 360/762/422
f 196/557/429 223/576/370 199/561/431
f 360/762/422 203/763/437 363/764/427
f 199/561/431 226/765/374 202/567/436
f 366/218/92 203/569/437 205/120/106
f 202/567/436 230/766/8 206/767/109
f 4/768/506 367/221/95 207/125/111
f 4/768/506 207/125/111 229/137/13
f 212/127/6 243/586/376 219/571/366
f 214/132/4 3/760/505 237/146/20
f 219/769/366 246/589/379 222/770/368
f 222/770/368 249/771/383 225/772/373
f 228/134/11 249/595/383 253/153/27
f 4/768/506 229/137/13 252/151/25
f 235/585/15 266/603/385 242/583/375
f 237/146/20 3/760/505 260/160/34
f 242/583/375 269/602/388 245/587/377
f 245/587/377 272/773/392 248/593/382
f 248/593/382 276/774/41 251/775/22
f 4/768/506 252/151/25 275/165/39
f 258/155/29 289/612/394 265/597/384
f 260/160/34 3/760/505 283/174/48
f 265/776/384 292/615/397 268/777/386
f 268/777/386 295/778/401 271/779/391
f 274/162/36 295/621/401 299/181/55
f 4/768/506 275/165/39 298/179/53
f 281/611/43 312/629/403 288/609/393
f 283/174/48 3/760/505 306/188/62
f 288/609/393 315/628/406 291/613/395
f 291/613/395 318/780/410 294/619/400
f 294/619/400 322/781/69 297/782/50
f 4/768/506 298/179/53 321/193/67
f 304/183/57 335/638/412 311/623/402
f 306/188/62 3/760/505 329/202/76
f 311/783/402 338/641/415 314/784/404
f 314/784/404 341/785/419 317/786/409
f 320/190/64 341/647/419 345/209/83
f 4/768/506 321/193/67 344/207/81
f 327/637/71 358/655/421 334/635/411
f 329/202/76 3/760/505 352/216/90
f 334/635/411 361/654/424 337/639/413
f 337/639/413 364/787/428 340/645/418
f 340/645/418 368/788/97 343/789/78
f 4/768/506 344/207/81 367/221/95
f 415/273/180 373/225/126 387/241/144
f 382/665/141 388/244/147 375/790/132
f 409/682/174 374/228/129 403/791/168
f 422/281/189 381/236/138 408/265/171
f 395/670/156 416/276/183 389/792/150
f 423/676/192 402/260/165 417/793/186
f 443/307/216 457/325/234 429/289/198
f 438/304/213 444/310/219 431/295/204
f 465/337/246 430/292/201 459/331/240
f 450/316/225 464/334/243 478/352/261
f 451/319/228 472/346/255 445/313/222
f 479/355/264 458/328/237 473/349/258
f 499/377/286 527/407/318 555/439/350
f 493/794/381 500/795/381 487/795/381
f 563/449/417 486/796/417 557/444/417
f 492/369/278 548/431/342 520/400/310
f 501/797/505 522/797/505 514/797/505
f 521/403/381 528/398/381 515/398/381
f 535/798/417 542/799/417 529/799/417
f 543/800/505 564/800/505 556/800/505
f 11/1/1 14/5/5 15/2/2
f 12/4/4 16/7/7 15/2/2
f 13/6/6 17/3/3 15/2/2
f 27/8/8 30/12/12 31/9/9
f 28/11/11 32/14/14 31/9/9
f 29/13/13 33/10/10 31/9/9
f 34/15/15 37/19/19 38/16/16
f 35/18/18 39/21/21 38/16/16
f 36/20/20 40/17/17 38/16/16
f 50/22/22 53/26/26 54/23/23
f 51/25/25 55/28/28 54/23/23
f 52/27/27 56/24/24 54/23/23
f 57/29/29 60/33/33 61/30/30
f 58/32/32 62/35/35 61/30/30
f 59/34/34 63/31/31 61/30/30
f 73/36/36 76/40/40 77/37/37
f 74/39/39 78/42/42 77/37/37
f 75/41/41 79/38/38 77/37/37
f 80/43/43 83/47/47 84/44/44
f 81/46/46 85/49/49 84/44/44
f 82/48/48 86/45/45 84/44/44
f 96/50/50 99/54/54 100/51/51
f 97/53/53 101/56/56 100/51/51
f 98/55/55 102/52/52 100/51/51
f 103/57/57 106/61/61 107/58/58
f 104/60/60 108/63/63 107/58/58
f 105/62/62 109/59/59 107/58/58
f 119/64/64 122/68/68 123/65/65
f 120/67/67 124/70/70 123/65/65
f 121/69/69 125/66/66 123/65/65
f 126/71/71 129/75/75 130/72/72
f 127/74/74 131/77/77 130/72/72
f 128/76/76 132/73/73 130/72/72
f 142/78/78 145/82/82 146/79/79
f 143/81/81 147/84/84 146/79/79
f 144/83/83 148/80/80 146/79/79
f 149/85/85 152/89/89 153/86/86
f 150/88/88 154/91/91 153/86/86
f 151/90/90 155/87/87 153/86/86
f 165/92/92 168/96/96 169/93/93
f 166/95/95 170/98/98 169/93/93
f 167/97/97 171/94/94 169/93/93
f 172/99/99 175/103/103 176/100/100
f 173/102/102 177/105/105 176/100/100
f 174/104/104 178/101/101 176/100/100
f 182/106/106 185/110/110 186/107/107
f 183/109/109 187/112/112 186/107/107
f 184/111/111 188/108/108 186/107/107
f 189/113/99 192/117/103 193/114/100
f 190/116/102 194/119/105 193/114/100
f 191/118/104 195/115/101 193/114/100
f 205/120/106 208/124/110 209/121/107
f 206/123/109 210/126/114 209/121/107
f 207/125/111 211/122/113 209/121/107
f 212/127/6 215/131/3 216/128/2
f 213/130/1 217/133/5 216/128/2
f 214/132/4 218/129/7 216/128/2
f 228/134/11 231/138/115 232/135/9
f 229/137/13 233/140/116 232/135/9
f 230/139/8 234/136/12 232/135/9
f 235/141/15 238/145/19 239/142/16
f 236/144/18 240/147/21 239/142/16
f 237/146/20 241/143/17 239/142/16
f 251/148/22 254/152/26 255/149/23
f 252/151/25 256/154/28 255/149/23
f 253/153/27 257/150/24 255/149/23
f 258/155/29 261/159/33 262/156/30
f 259/158/32 263/161/35 262/156/30
f 260/160/34 264/157/31 262/156/30
f 274/162/36 277/166/117 278/163/37
f 275/165/39 279/168/118 278/163/37
f 276/167/41 280/164/38 278/163/37
f 281/169/43 284/173/47 285/170/44
f 282/172/46 286/175/49 285/170/44
f 283/174/48 287/171/45 285/170/44
f 297/176/50 300/180/119 301/177/51
f 298/179/53 302/182/120 301/177/51
f 299/181/55 303/178/52 301/177/51
f 304/183/57 307/187/61 308/184/58
f 305/186/60 309/189/63 308/184/58
f 306/188/62 310/185/59 308/184/58
f 320/190/64 323/194/121 324/191/65
f 321/193/67 325/196/122 324/191/65
f 322/195/69 326/192/66 324/191/65
f 327/197/71 330/201/75 331/198/72
f 328/200/74 332/203/77 331/198/72
f 329/202/76 333/199/73 331/198/72
f 343/204/78 346/208/82 347/205/79
f 344/207/81 348/210/84 347/205/79
f 345/209/83 349/206/80 347/205/79
f 350/211/85 353/215/89 354/212/86
f 351/214/88 355/217/123 354/212/86
f 352/216/90 356/213/87 354/212/86
f 366/218/92 369/222/124 370/219/93
f 367/221/95 371/224/125 370/219/93
f 368/223/97 372/220/94 370/219/93
f 373/225/126 376/678/457 377/226/127
f 374/228/129 378/232/440 377/229/130
f 375/231/132 379/801/439 377/229/133
f 380/233/135 383/681/460 384/234/136
f 381/236/138 385/663/442 384/237/139
f 382/239/141 386/235/441 384/234/142
f 387/241/144 390/661/438 391/242/145
f 388/244/147 392/248/444 391/245/148
f 389/247/150 393/802/446 391/245/151
f 394/249/153 397/668/447 398/250/154
f 395/252/156 399/256/443 398/253/157
f 396/255/159 400/803/507 398/253/160
f 401/257/162 404/672/451 405/258/163
f 402/260/165 406/264/456 405/261/166
f 403/263/168 407/804/458 405/261/169
f 408/265/171 411/680/459 412/266/172
f 409/268/174 413/272/455 412/269/175
f 410/271/177 414/675/454 412/269/178
f 415/273/180 418/666/445 419/274/181
f 416/276/183 420/280/450 419/277/184
f 417/279/186 421/805/452 419/277/187
f 422/281/189 425/674/453 426/282/190
f 423/284/192 427/288/449 426/285/193
f 424/287/195 428/669/448 426/285/196
f 429/289/198 432/703/480 433/290/199
f 430/292/201 434/686/463 433/293/202
f 431/295/204 435/685/462 433/296/205
f 436/298/207 439/706/483 440/299/208
f 437/301/210 441/688/465 440/302/211
f 438/304/213 442/687/464 440/305/214
f 443/307/216 446/684/461 447/308/217
f 444/310/219 448/691/468 447/311/220
f 445/313/222 449/693/470 447/314/223
f 450/316/225 453/694/471 454/317/226
f 451/319/228 455/690/467 454/320/229
f 452/322/231 456/689/466 454/323/232
f 457/325/234 460/698/475 461/326/235
f 458/328/237 462/702/479 461/329/238
f 459/331/240 463/704/481 461/332/241
f 464/334/243 467/705/482 468/335/244
f 465/337/246 469/701/478 468/338/247
f 466/340/249 470/700/477 468/341/250
f 471/343/252 474/692/469 475/344/253
f 472/346/255 476/697/474 475/347/256
f 473/349/258 477/806/508 475/350/259
f 478/352/261 481/699/476 482/353/262
f 479/355/264 483/696/473 482/356/265
f 480/358/267 484/695/472 482/359/268
f 485/361/270 488/730/502 489/362/271
f 486/364/273 490/368/277 489/365/274
f 487/367/276 491/707/484 489/365/274
f 492/369/278 495/807/509 496/370/279
f 493/372/281 497/376/285 496/373/282
f 494/375/284 498/732/503 496/373/282
f 499/377/286 502/708/485 503/378/287
f 500/367/289 504/711/293 503/380/290
f 501/382/292 505/712/487 503/383/290
f 506/385/294 509/715/490 510/386/295
f 507/388/297 511/710/301 510/389/298
f 508/372/300 512/709/486 510/391/298
f 513/393/302 516/713/488 517/394/303
f 514/382/305 518/399/309 517/396/306
f 515/398/308 519/808/491 517/396/306
f 520/400/310 523/719/493 524/401/311
f 521/403/313 525/406/317 524/404/314
f 522/388/316 526/714/489 524/404/314
f 527/407/318 530/809/510 531/408/319
f 528/410/321 532/414/325 531/411/322
f 529/413/324 533/720/494 531/411/322
f 534/415/326 537/722/496 538/416/327
f 535/418/329 539/422/333 538/419/330
f 536/421/332 540/718/492 538/419/330
f 541/423/334 544/810/511 545/424/335
f 542/413/337 546/724/341 545/426/338
f 543/428/340 547/725/497 545/429/338
f 548/431/342 551/728/500 552/432/343
f 549/434/345 553/723/349 552/435/346
f 550/418/348 554/721/495 552/437/346
f 555/439/350 558/726/498 559/440/351
f 556/428/353 560/445/357 559/442/354
f 557/444/356 561/811/501 559/442/354
f 562/446/358 565/733/504 566/447/359
f 563/449/361 567/452/365 566/450/362
f 564/434/364 568/727/499 566/450/362
f 18/453/366 20/812/369 17/3/3
f 17/3/3 20/812/369 19/454/367
f 21/455/368 23/461/372 20/456/369
f 20/456/369 23/461/372 22/458/370
f 21/455/368 24/813/373 26/460/371
f 26/460/371 25/736/374 22/458/370
f 24/462/373 28/11/11 30/12/12
f 30/12/12 27/8/8 25/464/374
f 41/465/375 43/470/378 37/466/19
f 37/19/19 43/814/378 42/468/376
f 44/469/377 46/474/381 43/470/378
f 43/470/378 46/474/381 45/471/379
f 44/469/377 47/475/382 49/473/380
f 49/473/380 48/743/383 45/471/379
f 47/475/382 50/746/22 56/476/24
f 56/24/24 52/27/27 48/477/383
f 52/27/27 55/28/28 32/14/14
f 55/28/28 51/25/25 29/13/13
f 12/4/4 36/20/20 39/21/21
f 39/21/21 35/18/18 13/6/6
f 64/479/384 66/815/387 60/33/33
f 60/33/33 66/815/387 65/480/385
f 67/481/386 69/487/390 66/482/387
f 66/482/387 69/487/390 68/484/388
f 67/481/386 70/816/391 72/486/389
f 72/486/389 71/745/392 68/484/388
f 70/488/391 73/36/36 79/38/38
f 79/38/38 75/41/41 71/490/392
f 75/41/41 78/42/42 53/26/26
f 53/26/26 78/42/42 74/39/39
f 59/34/34 62/35/35 40/17/17
f 62/35/35 58/32/32 34/15/15
f 87/491/393 89/496/396 83/492/47
f 83/47/47 89/817/396 88/494/394
f 90/495/395 92/500/399 89/496/396
f 89/496/396 92/500/399 91/497/397
f 90/495/395 93/501/400 95/499/398
f 95/499/398 94/750/401 91/497/397
f 93/501/400 96/752/50 102/502/52
f 102/52/52 98/55/55 94/503/401
f 59/34/34 82/48/48 85/49/49
f 85/49/49 81/46/46 57/29/29
f 74/39/39 76/40/40 101/56/56
f 76/40/40 73/36/36 98/55/55
f 110/505/402 112/818/405 106/61/61
f 106/61/61 112/818/405 111/506/403
f 113/507/404 115/513/408 112/508/405
f 112/508/405 115/513/408 114/510/406
f 113/507/404 116/819/409 118/512/407
f 118/512/407 117/751/410 114/510/406
f 116/514/409 119/64/64 125/66/66
f 125/66/66 121/69/69 117/516/410
f 105/62/62 108/63/63 86/45/45
f 108/63/63 104/60/60 80/43/43
f 120/67/67 97/53/53 99/54/54
f 99/54/54 96/50/50 121/69/69
f 133/517/411 135/522/414 129/518/75
f 129/75/75 135/820/414 134/520/412
f 136/521/413 138/526/417 135/522/414
f 135/522/414 138/526/417 137/523/415
f 136/521/413 139/527/418 141/525/416
f 141/525/416 140/756/419 137/523/415
f 139/527/418 142/758/78 148/528/80
f 148/80/80 144/83/83 140/529/419
f 120/67/67 122/68/68 147/84/84
f 122/68/68 119/64/64 144/83/83
f 103/57/57 109/59/59 131/77/77
f 131/77/77 109/59/59 105/62/62
f 156/531/420 158/821/423 152/89/89
f 152/89/89 158/821/423 157/532/421
f 159/533/422 161/539/426 158/534/423
f 158/534/423 161/539/426 160/536/424
f 159/533/422 162/822/427 164/538/425
f 164/538/425 163/757/428 160/536/424
f 162/540/427 165/92/92 171/94/94
f 171/94/94 167/97/97 163/542/428
f 166/95/95 143/81/81 145/82/82
f 145/82/82 142/78/78 167/97/97
f 126/71/71 132/73/73 154/91/91
f 132/73/73 128/76/76 151/90/90
f 166/95/95 168/96/96 188/108/108
f 168/96/96 165/92/92 182/106/106
f 149/85/85 155/87/87 175/103/103
f 175/103/103 155/87/87 151/90/90
f 5/543/429 7/548/432 178/544/101
f 178/101/101 7/823/432 6/546/430
f 179/547/431 181/552/435 7/548/432
f 7/548/432 181/552/435 180/549/433
f 179/547/431 8/553/436 10/551/434
f 10/551/434 9/739/437 180/549/433
f 8/553/436 183/735/109 185/554/110
f 185/110/110 182/106/106 9/555/437
f 174/104/104 177/105/105 14/5/5
f 177/105/105 173/102/102 12/4/4
f 27/8/8 33/10/10 187/112/112
f 187/112/112 33/10/10 29/13/13
f 196/557/429 198/562/432 195/558/101
f 195/115/101 198/824/432 197/560/430
f 199/561/431 201/566/435 198/562/432
f 198/562/432 201/566/435 200/563/433
f 199/561/431 202/567/436 204/565/434
f 204/565/434 203/763/437 200/563/433
f 202/567/436 206/767/109 208/568/110
f 208/124/110 205/120/106 203/569/437
f 219/571/366 221/825/369 215/131/3
f 215/131/3 221/825/369 220/572/367
f 222/573/368 224/579/372 221/574/369
f 221/574/369 224/579/372 223/576/370
f 222/573/368 225/826/373 227/578/371
f 227/578/371 226/765/374 223/576/370
f 225/580/373 228/134/11 234/136/12
f 234/136/12 230/139/8 226/582/374
f 213/130/1 191/118/104 194/119/105
f 194/119/105 190/116/102 214/132/4
f 230/139/8 233/140/116 210/126/114
f 233/140/116 229/137/13 207/125/111
f 242/583/375 244/588/378 238/584/19
f 238/145/19 244/827/378 243/586/376
f 245/587/377 247/592/381 244/588/378
f 244/588/378 247/592/381 246/589/379
f 245/587/377 248/593/382 250/591/380
f 250/591/380 249/771/383 246/589/379
f 248/593/382 251/775/22 257/594/24
f 257/150/24 253/153/27 249/595/383
f 253/153/27 256/154/28 231/138/115
f 256/154/28 252/151/25 229/137/13
f 214/132/4 237/146/20 240/147/21
f 218/129/7 240/147/21 236/144/18
f 265/597/384 267/828/387 261/159/33
f 261/159/33 267/828/387 266/598/385
f 268/599/386 270/605/390 267/600/387
f 267/600/387 270/605/390 269/602/388
f 268/599/386 271/829/391 273/604/389
f 273/604/389 272/773/392 269/602/388
f 271/606/391 274/162/36 280/164/38
f 280/164/38 276/167/41 272/608/392
f 276/167/41 279/168/118 254/152/26
f 279/168/118 275/165/39 252/151/25
f 260/160/34 263/161/35 241/143/17
f 241/143/17 263/161/35 259/158/32
f 288/609/393 290/614/396 284/610/47
f 284/173/47 290/830/396 289/612/394
f 291/613/395 293/618/399 290/614/396
f 290/614/396 293/618/399 292/615/397
f 291/613/395 294/619/400 296/617/398
f 296/617/398 295/778/401 292/615/397
f 294/619/400 297/782/50 303/620/52
f 303/178/52 299/181/55 295/621/401
f 260/160/34 283/174/48 286/175/49
f 264/157/31 286/175/49 282/172/46
f 275/165/39 277/166/117 302/182/120
f 277/166/117 274/162/36 299/181/55
f 311/623/402 313/831/405 307/187/61
f 307/187/61 313/831/405 312/624/403
f 314/625/404 316/631/408 313/626/405
f 313/626/405 316/631/408 315/628/406
f 314/625/404 317/832/409 319/630/407
f 319/630/407 318/780/410 315/628/406
f 317/632/409 320/190/64 326/192/66
f 326/192/66 322/195/69 318/634/410
f 306/188/62 309/189/63 287/171/45
f 287/171/45 309/189/63 305/186/60
f 298/179/53 300/180/119 325/196/122
f 300/180/119 297/176/50 322/195/69
f 334/635/411 336/640/414 330/636/75
f 330/201/75 336/833/414 335/638/412
f 337/639/413 339/644/417 336/640/414
f 336/640/414 339/644/417 338/641/415
f 337/639/413 340/645/418 342/643/416
f 342/643/416 341/785/419 338/641/415
f 340/645/418 343/789/78 349/646/80
f 349/206/80 345/209/83 341/647/419
f 321/193/67 323/194/121 348/210/84
f 323/194/121 320/190/64 345/209/83
f 328/200/74 304/183/57 310/185/59
f 332/203/77 310/185/59 306/188/62
f 357/649/420 359/834/423 353/215/89
f 353/215/89 359/834/423 358/650/421
f 360/651/422 362/657/426 359/652/423
f 359/652/423 362/657/426 361/654/424
f 360/651/422 363/835/427 365/656/425
f 365/656/425 364/787/428 361/654/424
f 363/658/427 366/218/92 372/220/94
f 372/220/94 368/223/97 364/660/428
f 344/207/81 346/208/82 371/224/125
f 346/208/82 343/204/78 368/223/97
f 351/214/88 327/197/71 333/199/73
f 333/199/73 329/202/76 352/216/90
f 367/221/95 369/222/124 211/122/113
f 369/222/124 366/218/92 205/120/106
f 189/113/99 350/211/85 356/213/87
f 192/117/103 356/213/87 352/216/90
f 373/225/126 379/227/128 390/661/438
f 379/662/439 375/790/132 388/244/147
f 380/233/135 386/235/137 378/232/440
f 386/235/441 382/239/141 375/231/132
f 381/236/138 394/249/153 400/251/155
f 385/664/143 400/803/507 396/255/159
f 389/247/150 392/248/152 399/256/443
f 392/248/444 388/244/147 396/255/159
f 387/241/144 393/243/146 418/666/445
f 393/667/446 389/792/150 416/276/183
f 422/281/189 428/283/191 397/668/447
f 428/669/448 424/287/195 395/670/156
f 417/279/186 420/280/188 427/288/449
f 420/280/450 416/276/183 424/287/195
f 415/273/180 421/275/182 404/672/451
f 421/673/452 417/793/186 402/260/165
f 408/265/171 414/267/173 425/674/453
f 414/675/454 410/271/177 423/676/192
f 403/263/168 406/264/170 413/272/455
f 406/264/456 402/260/165 410/271/177
f 401/257/162 407/259/164 376/678/457
f 407/679/458 403/791/168 374/228/129
f 381/236/138 383/238/140 411/680/459
f 383/681/460 380/233/135 409/682/174
f 429/289/198 435/291/200 446/684/461
f 435/685/462 431/295/204 444/310/219
f 436/298/207 442/300/209 434/686/463
f 442/687/464 438/304/213 431/295/204
f 450/316/225 456/318/227 441/688/465
f 456/689/466 452/322/231 438/304/213
f 445/313/222 448/315/224 455/690/467
f 448/691/468 444/310/219 452/322/231
f 443/307/216 449/309/218 474/692/469
f 449/693/470 445/313/222 472/346/255
f 478/352/261 484/354/263 453/694/471
f 484/695/472 480/358/267 451/319/228
f 473/349/258 476/351/260 483/696/473
f 476/697/474 472/346/255 480/358/267
f 457/325/234 471/343/252 477/345/254
f 460/330/239 477/806/508 473/349/258
f 464/334/243 470/336/245 481/699/476
f 470/700/477 466/340/249 479/355/264
f 459/331/240 462/333/242 469/701/478
f 462/702/479 458/328/237 466/340/249
f 457/325/234 463/327/236 432/703/480
f 463/704/481 459/331/240 430/292/201
f 437/301/210 439/303/212 467/705/482
f 439/706/483 436/298/207 465/337/246
f 487/367/276 500/367/289 502/381/291
f 502/708/485 499/377/286 485/361/270
f 508/372/300 493/372/281 495/374/283
f 512/387/296 495/807/509 492/369/278
f 494/375/284 497/376/285 490/368/277
f 497/376/285 493/372/281 487/367/276
f 501/382/292 504/384/293 511/710/301
f 504/711/293 500/367/289 508/372/300
f 501/382/292 514/382/305 516/397/307
f 516/713/488 513/393/302 499/377/286
f 522/388/316 507/388/297 509/390/299
f 509/715/490 506/385/294 520/400/310
f 515/398/308 518/399/309 525/406/317
f 518/399/309 514/382/305 522/388/316
f 515/410/308 528/410/321 530/412/323
f 519/395/304 530/809/510 527/407/318
f 536/421/332 521/421/313 523/717/315
f 523/719/493 520/400/310 534/415/326
f 529/413/324 532/414/325 539/422/333
f 532/414/325 528/410/321 536/421/332
f 529/413/324 542/413/337 544/427/339
f 533/409/320 544/810/511 541/423/334
f 550/418/348 535/418/329 537/420/331
f 537/722/496 534/415/326 548/431/342
f 543/428/340 546/430/341 553/723/349
f 546/724/341 542/413/337 550/418/348
f 543/428/340 556/428/353 558/443/355
f 558/726/498 555/439/350 541/423/334
f 564/434/364 549/434/345 551/436/347
f 551/728/500 548/431/342 562/446/358
f 557/444/356 560/445/357 567/452/365
f 560/445/357 556/428/353 564/434/364
f 557/364/356 486/364/273 488/366/275
f 488/730/502 485/361/270 555/439/350
f 494/375/284 563/375/361 565/731/363
f 565/733/504 562/446/358 492/369/278
f 174/545/104 11/836/1 19/459/367
f 159/734/422 156/837/420 6/550/430
f 156/531/420 149/85/85 172/99/99
f 5/543/429 19/459/367 22/458/370
f 183/735/109 8/553/436 25/736/374
f 179/547/431 22/458/370 25/736/374
f 162/540/427 9/555/437 182/106/106
f 162/738/427 159/734/422 180/549/433
f 18/453/366 13/6/6 35/18/18
f 21/741/368 18/838/366 42/472/376
f 24/742/373 21/741/368 45/471/379
f 24/462/373 48/477/383 52/27/27
f 34/467/15 58/839/32 65/485/385
f 41/465/375 65/485/385 68/484/388
f 44/469/377 68/484/388 71/745/392
f 50/746/22 47/475/382 71/745/392
f 64/479/384 57/29/29 81/46/46
f 67/748/386 64/840/384 88/498/394
f 70/749/391 67/748/386 91/497/397
f 70/488/391 94/503/401 98/55/55
f 80/493/43 104/841/60 111/511/403
f 87/491/393 111/511/403 114/510/406
f 90/495/395 114/510/406 117/751/410
f 96/752/50 93/501/400 117/751/410
f 110/505/402 103/57/57 127/74/74
f 113/754/404 110/842/402 134/524/412
f 116/755/409 113/754/404 137/523/415
f 116/514/409 140/529/419 144/83/83
f 126/519/71 150/843/88 157/537/421
f 133/517/411 157/537/421 160/536/424
f 136/521/413 160/536/424 163/757/428
f 142/758/78 139/527/418 163/757/428
f 350/211/85 189/113/99 197/560/430
f 191/559/104 213/844/1 220/577/367
f 357/761/420 197/564/430 200/563/433
f 196/557/429 220/577/367 223/576/370
f 360/762/422 200/563/433 203/763/437
f 199/561/431 223/576/370 226/765/374
f 366/218/92 363/658/427 203/569/437
f 202/567/436 226/765/374 230/766/8
f 212/127/6 236/144/18 243/586/376
f 219/769/366 243/590/376 246/589/379
f 222/770/368 246/589/379 249/771/383
f 228/134/11 225/580/373 249/595/383
f 235/585/15 259/845/32 266/603/385
f 242/583/375 266/603/385 269/602/388
f 245/587/377 269/602/388 272/773/392
f 248/593/382 272/773/392 276/774/41
f 258/155/29 282/172/46 289/612/394
f 265/776/384 289/616/394 292/615/397
f 268/777/386 292/615/397 295/778/401
f 274/162/36 271/606/391 295/621/401
f 281/611/43 305/846/60 312/629/403
f 288/609/393 312/629/403 315/628/406
f 291/613/395 315/628/406 318/780/410
f 294/619/400 318/780/410 322/781/69
f 304/183/57 328/200/74 335/638/412
f 311/783/402 335/642/412 338/641/415
f 314/784/404 338/641/415 341/785/419
f 320/190/64 317/632/409 341/647/419
f 327/637/71 351/847/88 358/655/421
f 334/635/411 358/655/421 361/654/424
f 337/639/413 361/654/424 364/787/428
f 340/645/418 364/787/428 368/788/97
f 415/273/180 401/257/162 373/225/126
f 382/665/141 396/255/159 388/244/147
f 409/682/174 380/233/135 374/228/129
f 422/281/189 394/249/153 381/236/138
f 395/670/156 424/287/195 416/276/183
f 423/676/192 410/271/177 402/260/165
f 443/307/216 471/343/252 457/325/234
f 438/304/213 452/322/231 444/310/219
f 465/337/246 436/298/207 430/292/201
f 450/316/225 437/301/210 464/334/243
f 451/319/228 480/358/267 472/346/255
f 479/355/264 466/340/249 458/328/237
f 555/439/350 485/361/270 499/377/286
f 499/377/286 513/393/302 527/407/318
f 527/407/318 541/423/334 555/439/350
f 493/794/381 508/794/381 500/795/381
f 563/449/417 494/848/417 486/796/417
f 520/400/310 506/385/294 492/369/278
f 492/369/278 562/446/358 548/431/342
f 548/431/342 534/415/326 520/400/310
f 501/797/505 507/797/505 522/797/505
f 521/403/381 536/403/381 528/398/381
f 535/798/417 550/798/417 542/799/417
f 543/800/505 549/800/505 564/800/505
