# Blender 5.2.0 LTS
# www.blender.org
o unit_veiled_shade
v 0.000000 2.290000 -0.050000
v 0.000000 2.010000 -0.050000
v 0.000000 1.250000 0.000000
v 0.000000 1.050000 0.000000
v -0.000000 0.250000 -0.171445
v -0.007306 0.257880 -0.176310
v 0.007306 0.257880 -0.176310
v -0.004328 0.252308 -0.175507
v 0.000000 0.253352 -0.176883
v -0.000000 0.257985 -0.177555
v 0.004328 0.252308 -0.175507
v 0.000000 2.150000 -0.011445
v 0.007306 2.142120 -0.017637
v -0.007306 2.142120 -0.017637
v 0.004231 2.147692 -0.015936
v -0.000000 2.146692 -0.017460
v -0.000000 2.142225 -0.018882
v -0.004231 2.147692 -0.015936
v 0.121230 0.250000 -0.121230
v 0.119504 0.257880 -0.129836
v 0.129836 0.257880 -0.119504
v 0.121042 0.252308 -0.127163
v 0.125075 0.253352 -0.125075
v 0.125550 0.257984 -0.125550
v 0.127163 0.252308 -0.121042
v 0.008093 2.150000 -0.008093
v 0.017637 2.142120 -0.007306
v 0.007306 2.142120 -0.017637
v 0.014260 2.147692 -0.008277
v 0.012346 2.146692 -0.012346
v 0.013352 2.142225 -0.013352
v 0.008277 2.147692 -0.014260
v 0.171445 0.250000 -0.000000
v 0.176310 0.257880 -0.007306
v 0.176310 0.257880 0.007306
v 0.175507 0.252308 -0.004328
v 0.176883 0.253352 0.000000
v 0.177555 0.257985 -0.000000
v 0.175507 0.252308 0.004328
v 0.011445 2.150000 0.000000
v 0.017637 2.142120 0.007306
v 0.017637 2.142120 -0.007306
v 0.015936 2.147692 0.004231
v 0.017460 2.146692 -0.000000
v 0.018882 2.142225 -0.000000
v 0.015936 2.147692 -0.004231
v 0.121230 0.250000 0.121230
v 0.129836 0.257880 0.119504
v 0.119504 0.257880 0.129836
v 0.127163 0.252308 0.121042
v 0.125075 0.253352 0.125075
v 0.125550 0.257984 0.125550
v 0.121042 0.252308 0.127163
v 0.008093 2.150000 0.008093
v 0.007306 2.142120 0.017637
v 0.017637 2.142120 0.007306
v 0.008277 2.147692 0.014260
v 0.012346 2.146692 0.012346
v 0.013352 2.142225 0.013352
v 0.014260 2.147692 0.008277
v 0.000000 0.250000 0.171445
v 0.007306 0.257880 0.176310
v -0.007306 0.257880 0.176310
v 0.004328 0.252308 0.175507
v -0.000000 0.253352 0.176883
v 0.000000 0.257985 0.177555
v -0.004328 0.252308 0.175507
v -0.000000 2.150000 0.011445
v -0.007306 2.142120 0.017637
v 0.007306 2.142120 0.017637
v -0.004231 2.147692 0.015936
v 0.000000 2.146692 0.017460
v 0.000000 2.142225 0.018882
v 0.004231 2.147692 0.015936
v -0.121230 0.250000 0.121230
v -0.119504 0.257880 0.129836
v -0.129836 0.257880 0.119504
v -0.121042 0.252308 0.127163
v -0.125075 0.253352 0.125075
v -0.125550 0.257984 0.125550
v -0.127163 0.252308 0.121042
v -0.008093 2.150000 0.008093
v -0.017637 2.142120 0.007306
v -0.007306 2.142120 0.017637
v -0.014260 2.147692 0.008277
v -0.012346 2.146692 0.012346
v -0.013352 2.142225 0.013352
v -0.008277 2.147692 0.014260
v -0.171445 0.250000 0.000000
v -0.176310 0.257880 0.007306
v -0.176310 0.257880 -0.007306
v -0.175507 0.252308 0.004328
v -0.176883 0.253352 -0.000000
v -0.177555 0.257985 0.000000
v -0.175507 0.252308 -0.004328
v -0.011445 2.150000 -0.000000
v -0.017637 2.142120 -0.007306
v -0.017637 2.142120 0.007306
v -0.015936 2.147692 -0.004231
v -0.017460 2.146692 0.000000
v -0.018882 2.142225 0.000000
v -0.015936 2.147692 0.004231
v -0.121230 0.250000 -0.121230
v -0.129836 0.257880 -0.119504
v -0.119504 0.257880 -0.129836
v -0.127163 0.252308 -0.121042
v -0.125075 0.253352 -0.125075
v -0.125550 0.257984 -0.125550
v -0.121042 0.252308 -0.127163
v -0.008093 2.150000 -0.008093
v -0.007306 2.142120 -0.017637
v -0.017637 2.142120 -0.007306
v -0.008277 2.147692 -0.014260
v -0.012346 2.146692 -0.012346
v -0.013352 2.142225 -0.013352
v -0.014260 2.147692 -0.008277
v 0.044511 2.265517 -0.111264
v 0.036443 2.273387 -0.100160
v 0.040754 2.270194 -0.106093
v 0.075926 2.220000 -0.141673
v 0.063724 2.220000 -0.150538
v 0.067980 2.225589 -0.143567
v 0.070422 2.220000 -0.146927
v 0.086950 2.150000 -0.156848
v 0.074749 2.150000 -0.165713
v 0.081446 2.150000 -0.162101
v 0.063724 2.080000 -0.150538
v 0.075926 2.080000 -0.141673
v 0.067980 2.074412 -0.143567
v 0.070422 2.080000 -0.146927
v 0.036443 2.026613 -0.100160
v 0.044511 2.034484 -0.111264
v 0.040754 2.029806 -0.106093
v 0.058967 2.273387 -0.069159
v 0.072021 2.265517 -0.073401
v 0.065941 2.270194 -0.071426
v 0.115309 2.220000 -0.079537
v 0.110649 2.220000 -0.093881
v 0.109994 2.225589 -0.085739
v 0.113944 2.220000 -0.087023
v 0.133148 2.150000 -0.085333
v 0.128487 2.150000 -0.099677
v 0.131783 2.150000 -0.092819
v 0.110649 2.080000 -0.093881
v 0.115309 2.080000 -0.079537
v 0.109994 2.074412 -0.085739
v 0.113944 2.080000 -0.087023
v 0.072021 2.034484 -0.073401
v 0.058967 2.026613 -0.069159
v 0.065941 2.029806 -0.071426
v 0.058967 2.273387 -0.030841
v 0.072021 2.265517 -0.026599
v 0.065941 2.270194 -0.028574
v 0.110649 2.220000 -0.006119
v 0.115309 2.220000 -0.020463
v 0.109994 2.225589 -0.014261
v 0.113944 2.220000 -0.012977
v 0.128487 2.150000 -0.000323
v 0.133148 2.150000 -0.014667
v 0.131783 2.150000 -0.007181
v 0.115309 2.080000 -0.020463
v 0.110649 2.080000 -0.006119
v 0.109994 2.074412 -0.014261
v 0.113944 2.080000 -0.012977
v 0.072021 2.034484 -0.026599
v 0.058967 2.026613 -0.030841
v 0.065941 2.029806 -0.028574
v 0.036443 2.273387 0.000160
v 0.044511 2.265517 0.011264
v 0.040754 2.270194 0.006093
v 0.063724 2.220000 0.050538
v 0.075926 2.220000 0.041673
v 0.067980 2.225589 0.043567
v 0.070422 2.220000 0.046927
v 0.074749 2.150000 0.065713
v 0.086950 2.150000 0.056848
v 0.081446 2.150000 0.062101
v 0.075926 2.080000 0.041673
v 0.063724 2.080000 0.050538
v 0.067980 2.074412 0.043567
v 0.070422 2.080000 0.046927
v 0.044511 2.034484 0.011264
v 0.036443 2.026613 0.000160
v 0.040754 2.029806 0.006093
v 0.000000 2.273387 0.012001
v 0.000000 2.265517 0.025727
v 0.000000 2.270194 0.019335
v -0.007541 2.220000 0.068793
v 0.007541 2.220000 0.068793
v 0.000000 2.225589 0.065655
v 0.000000 2.220000 0.069808
v -0.007541 2.150000 0.087550
v 0.007541 2.150000 0.087550
v 0.000000 2.150000 0.088565
v 0.007541 2.080000 0.068793
v -0.007541 2.080000 0.068793
v 0.000000 2.074412 0.065655
v 0.000000 2.080000 0.069808
v 0.000000 2.034484 0.025727
v 0.000000 2.026613 0.012001
v 0.000000 2.029806 0.019335
v -0.036443 2.273387 0.000160
v -0.044511 2.265517 0.011264
v -0.040754 2.270194 0.006093
v -0.075926 2.220000 0.041673
v -0.063724 2.220000 0.050538
v -0.067980 2.225589 0.043567
v -0.070422 2.220000 0.046927
v -0.086950 2.150000 0.056848
v -0.074749 2.150000 0.065713
v -0.081446 2.150000 0.062101
v -0.063724 2.080000 0.050538
v -0.075926 2.080000 0.041673
v -0.067980 2.074412 0.043567
v -0.070422 2.080000 0.046927
v -0.044511 2.034484 0.011264
v -0.036443 2.026613 0.000160
v -0.040754 2.029806 0.006093
v -0.058967 2.273387 -0.030841
v -0.072021 2.265517 -0.026599
v -0.065941 2.270194 -0.028574
v -0.115309 2.220000 -0.020463
v -0.110649 2.220000 -0.006119
v -0.109994 2.225589 -0.014261
v -0.113944 2.220000 -0.012977
v -0.133148 2.150000 -0.014667
v -0.128487 2.150000 -0.000323
v -0.131783 2.150000 -0.007181
v -0.110649 2.080000 -0.006119
v -0.115309 2.080000 -0.020463
v -0.109994 2.074412 -0.014261
v -0.113944 2.080000 -0.012977
v -0.072021 2.034484 -0.026599
v -0.058967 2.026613 -0.030841
v -0.065941 2.029806 -0.028574
v -0.058967 2.273387 -0.069159
v -0.072021 2.265517 -0.073401
v -0.065941 2.270194 -0.071426
v -0.110649 2.220000 -0.093881
v -0.115309 2.220000 -0.079537
v -0.109994 2.225589 -0.085739
v -0.113944 2.220000 -0.087023
v -0.128487 2.150000 -0.099677
v -0.133148 2.150000 -0.085333
v -0.131783 2.150000 -0.092819
v -0.115309 2.080000 -0.079537
v -0.110649 2.080000 -0.093881
v -0.109994 2.074412 -0.085739
v -0.113944 2.080000 -0.087023
v -0.072021 2.034484 -0.073401
v -0.058967 2.026613 -0.069159
v -0.065941 2.029806 -0.071426
v -0.036443 2.273387 -0.100160
v -0.044511 2.265517 -0.111264
v -0.040754 2.270194 -0.106093
v -0.063724 2.220000 -0.150538
v -0.075926 2.220000 -0.141673
v -0.067980 2.225589 -0.143567
v -0.070422 2.220000 -0.146927
v -0.074749 2.150000 -0.165713
v -0.086950 2.150000 -0.156848
v -0.081446 2.150000 -0.162101
v -0.075926 2.080000 -0.141673
v -0.063724 2.080000 -0.150538
v -0.067980 2.074412 -0.143567
v -0.070422 2.080000 -0.146927
v -0.044511 2.034484 -0.111264
v -0.036443 2.026613 -0.100160
v -0.040754 2.029806 -0.106093
v -0.000000 2.273387 -0.112001
v -0.000000 2.265517 -0.125727
v -0.000000 2.270194 -0.119335
v 0.007541 2.220000 -0.168793
v -0.007541 2.220000 -0.168793
v -0.000000 2.225589 -0.165655
v -0.000000 2.220000 -0.169808
v 0.007541 2.150000 -0.187550
v -0.007541 2.150000 -0.187550
v -0.000000 2.150000 -0.188565
v -0.007541 2.080000 -0.168793
v 0.007541 2.080000 -0.168793
v -0.000000 2.074412 -0.165655
v -0.000000 2.080000 -0.169808
v -0.000000 2.034484 -0.125727
v -0.000000 2.026613 -0.112001
v -0.000000 2.029806 -0.119335
v -0.871615 1.275000 0.037218
v -0.869173 1.282904 0.044735
v -0.879132 1.282904 0.039660
v -0.869888 1.277315 0.042533
v -0.874545 1.278340 0.042968
v -0.875203 1.282903 0.044260
v -0.876930 1.277315 0.038945
v -0.869173 1.717096 0.044735
v -0.871615 1.725000 0.037218
v -0.879132 1.717096 0.039660
v -0.869888 1.722685 0.042533
v -0.874545 1.721660 0.042968
v -0.876930 1.722685 0.038945
v -0.875203 1.717097 0.044260
v -0.879091 1.275000 0.014209
v -0.886608 1.282904 0.016652
v -0.881533 1.282904 0.006692
v -0.884406 1.277315 0.015936
v -0.884841 1.278340 0.011280
v -0.886133 1.282903 0.010621
v -0.880818 1.277315 0.008894
v -0.879091 1.725000 0.014209
v -0.881533 1.717096 0.006693
v -0.886608 1.717096 0.016652
v -0.880818 1.722685 0.008894
v -0.884841 1.721660 0.011280
v -0.886133 1.717097 0.010621
v -0.884406 1.722685 0.015936
v -0.220909 1.275000 -0.174209
v -0.213392 1.282904 -0.176652
v -0.218467 1.282904 -0.166692
v -0.215594 1.277315 -0.175936
v -0.215159 1.278340 -0.171280
v -0.213867 1.282903 -0.170621
v -0.219182 1.277315 -0.168894
v -0.220909 1.725000 -0.174209
v -0.218467 1.717096 -0.166692
v -0.213392 1.717096 -0.176652
v -0.219182 1.722685 -0.168894
v -0.215159 1.721660 -0.171280
v -0.213867 1.717097 -0.170621
v -0.215594 1.722685 -0.175936
v -0.228385 1.275000 -0.197218
v -0.230827 1.282904 -0.204735
v -0.220868 1.282904 -0.199660
v -0.230112 1.277315 -0.202533
v -0.225455 1.278340 -0.202968
v -0.224797 1.282903 -0.204260
v -0.223070 1.277315 -0.198945
v -0.228385 1.725000 -0.197218
v -0.220868 1.717096 -0.199660
v -0.230827 1.717096 -0.204735
v -0.223070 1.722685 -0.198945
v -0.225455 1.721660 -0.202968
v -0.224797 1.717097 -0.204260
v -0.230112 1.722685 -0.202533
v 0.220909 1.275000 -0.174209
v 0.218467 1.282904 -0.166692
v 0.213392 1.282904 -0.176652
v 0.219182 1.277315 -0.168894
v 0.215159 1.278340 -0.171280
v 0.213867 1.282903 -0.170621
v 0.215594 1.277315 -0.175936
v 0.218467 1.717096 -0.166692
v 0.220909 1.725000 -0.174209
v 0.213392 1.717096 -0.176652
v 0.219182 1.722685 -0.168894
v 0.215159 1.721660 -0.171280
v 0.215594 1.722685 -0.175936
v 0.213867 1.717097 -0.170621
v 0.228385 1.275000 -0.197218
v 0.220868 1.282904 -0.199660
v 0.230827 1.282904 -0.204735
v 0.223070 1.277315 -0.198945
v 0.225455 1.278340 -0.202968
v 0.224797 1.282903 -0.204260
v 0.230112 1.277315 -0.202533
v 0.228385 1.725000 -0.197218
v 0.230827 1.717096 -0.204735
v 0.220868 1.717096 -0.199660
v 0.230112 1.722685 -0.202533
v 0.225455 1.721660 -0.202968
v 0.224797 1.717097 -0.204260
v 0.223070 1.722685 -0.198945
v 0.871615 1.275000 0.037218
v 0.879132 1.282904 0.039660
v 0.869173 1.282904 0.044735
v 0.876930 1.277315 0.038945
v 0.874545 1.278340 0.042968
v 0.875203 1.282903 0.044260
v 0.869888 1.277315 0.042533
v 0.871615 1.725000 0.037218
v 0.869173 1.717096 0.044735
v 0.879132 1.717096 0.039660
v 0.869888 1.722685 0.042533
v 0.874545 1.721660 0.042968
v 0.875203 1.717097 0.044260
v 0.876930 1.722685 0.038945
v 0.879091 1.275000 0.014209
v 0.881533 1.282904 0.006693
v 0.886608 1.282904 0.016652
v 0.880818 1.277315 0.008894
v 0.884841 1.278340 0.011280
v 0.886133 1.282903 0.010621
v 0.884406 1.277315 0.015936
v 0.879091 1.725000 0.014209
v 0.886608 1.717096 0.016652
v 0.881533 1.717096 0.006692
v 0.884406 1.722685 0.015936
v 0.884841 1.721660 0.011280
v 0.886133 1.717097 0.010621
v 0.880818 1.722685 0.008894
v -0.007462 1.230797 -0.052714
v 0.000000 1.238804 -0.041784
v 0.007462 1.230797 -0.052714
v -0.003908 1.235547 -0.047675
v -0.000000 1.234653 -0.049601
v 0.003908 1.235547 -0.047675
v -0.000000 1.231437 -0.053354
v 0.007457 1.200000 -0.083514
v -0.007457 1.200000 -0.083514
v -0.000000 1.200000 -0.084793
v 0.007453 1.150000 -0.096913
v -0.007453 1.150000 -0.096913
v 0.000000 1.150000 -0.098192
v 0.007457 1.100000 -0.083514
v -0.007457 1.100000 -0.083514
v 0.000000 1.100000 -0.084793
v -0.007462 1.069203 -0.052714
v 0.007462 1.069203 -0.052714
v 0.000000 1.061196 -0.041784
v 0.000000 1.068563 -0.053354
v 0.000000 1.065348 -0.049601
v 0.003908 1.064453 -0.047675
v -0.003908 1.064453 -0.047675
v 0.042551 1.230797 -0.031998
v 0.031998 1.230797 -0.042551
v 0.029546 1.238804 -0.029546
v 0.037727 1.231437 -0.037727
v 0.035073 1.234653 -0.035073
v 0.030948 1.235547 -0.036475
v 0.036475 1.235547 -0.030948
v 0.064326 1.200000 -0.053780
v 0.053780 1.200000 -0.064326
v 0.059958 1.200000 -0.059958
v 0.073798 1.150000 -0.063258
v 0.063258 1.150000 -0.073798
v 0.069432 1.150000 -0.069432
v 0.064326 1.100000 -0.053780
v 0.053780 1.100000 -0.064326
v 0.059958 1.100000 -0.059958
v 0.042551 1.069203 -0.031998
v 0.029546 1.061196 -0.029546
v 0.031998 1.069203 -0.042551
v 0.036475 1.064453 -0.030948
v 0.035073 1.065348 -0.035073
v 0.030948 1.064453 -0.036475
v 0.037727 1.068563 -0.037727
v 0.052714 1.230797 0.007462
v 0.052714 1.230797 -0.007462
v 0.041784 1.238804 0.000000
v 0.053354 1.231437 -0.000000
v 0.049601 1.234653 -0.000000
v 0.047675 1.235547 -0.003908
v 0.047675 1.235547 0.003908
v 0.083514 1.200000 0.007457
v 0.083514 1.200000 -0.007457
v 0.084793 1.200000 -0.000000
v 0.096913 1.150000 0.007453
v 0.096913 1.150000 -0.007453
v 0.098192 1.150000 0.000000
v 0.083514 1.100000 0.007457
v 0.083514 1.100000 -0.007457
v 0.084793 1.100000 0.000000
v 0.052714 1.069203 0.007462
v 0.041784 1.061196 0.000000
v 0.052714 1.069203 -0.007462
v 0.047675 1.064453 0.003908
v 0.049601 1.065348 0.000000
v 0.047675 1.064453 -0.003908
v 0.053354 1.068563 0.000000
v 0.031998 1.230797 0.042551
v 0.042551 1.230797 0.031998
v 0.029546 1.238804 0.029546
v 0.037727 1.231437 0.037727
v 0.035073 1.234653 0.035073
v 0.036475 1.235547 0.030948
v 0.030948 1.235547 0.036475
v 0.053780 1.200000 0.064326
v 0.064326 1.200000 0.053780
v 0.059958 1.200000 0.059958
v 0.063258 1.150000 0.073798
v 0.073798 1.150000 0.063258
v 0.069432 1.150000 0.069432
v 0.053780 1.100000 0.064326
v 0.064326 1.100000 0.053780
v 0.059958 1.100000 0.059958
v 0.031998 1.069203 0.042551
v 0.029546 1.061196 0.029546
v 0.042551 1.069203 0.031998
v 0.030948 1.064453 0.036475
v 0.035073 1.065348 0.035073
v 0.036475 1.064453 0.030948
v 0.037727 1.068563 0.037727
v -0.007462 1.230797 0.052714
v 0.007462 1.230797 0.052714
v 0.000000 1.238804 0.041784
v 0.000000 1.231437 0.053354
v 0.000000 1.234653 0.049601
v 0.003908 1.235547 0.047675
v -0.003908 1.235547 0.047675
v -0.007457 1.200000 0.083514
v 0.007457 1.200000 0.083514
v 0.000000 1.200000 0.084793
v -0.007453 1.150000 0.096913
v 0.007453 1.150000 0.096913
v 0.000000 1.150000 0.098192
v -0.007457 1.100000 0.083514
v 0.007457 1.100000 0.083514
v -0.000000 1.100000 0.084793
v -0.007462 1.069203 0.052714
v 0.000000 1.061196 0.041784
v 0.007462 1.069203 0.052714
v -0.003908 1.064453 0.047675
v -0.000000 1.065348 0.049601
v 0.003908 1.064453 0.047675
v -0.000000 1.068563 0.053354
v -0.042551 1.230797 0.031998
v -0.031998 1.230797 0.042551
v -0.029546 1.238804 0.029546
v -0.037727 1.231437 0.037727
v -0.035073 1.234653 0.035073
v -0.030948 1.235547 0.036475
v -0.036475 1.235547 0.030948
v -0.064326 1.200000 0.053780
v -0.053780 1.200000 0.064326
v -0.059958 1.200000 0.059958
v -0.073798 1.150000 0.063258
v -0.063258 1.150000 0.073798
v -0.069432 1.150000 0.069432
v -0.064326 1.100000 0.053780
v -0.053780 1.100000 0.064326
v -0.059958 1.100000 0.059958
v -0.042551 1.069203 0.031998
v -0.029546 1.061196 0.029546
v -0.031998 1.069203 0.042551
v -0.036475 1.064453 0.030948
v -0.035073 1.065348 0.035073
v -0.030948 1.064453 0.036475
v -0.037727 1.068563 0.037727
v -0.052714 1.230797 -0.007462
v -0.052714 1.230797 0.007462
v -0.041784 1.238804 0.000000
v -0.053354 1.231437 0.000000
v -0.049601 1.234653 0.000000
v -0.047675 1.235547 0.003908
v -0.047675 1.235547 -0.003908
v -0.083514 1.200000 -0.007457
v -0.083514 1.200000 0.007457
v -0.084793 1.200000 0.000000
v -0.096913 1.150000 -0.007453
v -0.096913 1.150000 0.007453
v -0.098192 1.150000 0.000000
v -0.083514 1.100000 -0.007457
v -0.083514 1.100000 0.007457
v -0.084793 1.100000 -0.000000
v -0.052714 1.069203 -0.007462
v -0.041784 1.061196 0.000000
v -0.052714 1.069203 0.007462
v -0.047675 1.064453 -0.003908
v -0.049601 1.065348 -0.000000
v -0.047675 1.064453 0.003908
v -0.053354 1.068563 -0.000000
v -0.031998 1.230797 -0.042551
v -0.042551 1.230797 -0.031998
v -0.029546 1.238804 -0.029546
v -0.037727 1.231437 -0.037727
v -0.035073 1.234653 -0.035073
v -0.036475 1.235547 -0.030948
v -0.030948 1.235547 -0.036475
v -0.053780 1.200000 -0.064326
v -0.064326 1.200000 -0.053780
v -0.059958 1.200000 -0.059958
v -0.063258 1.150000 -0.073798
v -0.073798 1.150000 -0.063258
v -0.069432 1.150000 -0.069432
v -0.053780 1.100000 -0.064326
v -0.064326 1.100000 -0.053780
v -0.059958 1.100000 -0.059958
v -0.031998 1.069203 -0.042551
v -0.029546 1.061196 -0.029546
v -0.042551 1.069203 -0.031998
v -0.030948 1.064453 -0.036475
v -0.035073 1.065348 -0.035073
v -0.036475 1.064453 -0.030948
v -0.037727 1.068563 -0.037727
vn -0.0000 -0.9623 -0.2720
vn -0.0000 -0.8513 -0.5248
vn 0.0792 -0.9006 -0.4273
vn -0.0000 -0.0527 -0.9986
vn -0.2670 -0.2451 -0.9320
vn -0.2882 -0.1044 -0.9519
vn 0.2670 -0.2451 -0.9320
vn 0.2882 -0.1044 -0.9519
vn -0.0000 0.9681 -0.2505
vn -0.0000 0.8762 -0.4819
vn -0.0721 0.9131 -0.4013
vn -0.0000 0.2147 -0.9767
vn 0.2599 0.3852 -0.8855
vn 0.5318 0.5010 -0.6828
vn -0.2599 0.3852 -0.8855
vn -0.5893 0.2392 -0.7717
vn 0.1924 -0.9623 -0.1924
vn 0.3711 -0.8513 -0.3711
vn 0.3582 -0.9006 -0.2461
vn 0.7061 -0.0527 -0.7061
vn 0.4702 -0.2451 -0.8478
vn 0.4693 -0.1044 -0.8768
vn 0.8478 -0.2451 -0.4702
vn 0.8769 -0.1044 -0.4693
vn 0.1771 0.9681 -0.1771
vn 0.3407 0.8762 -0.3408
vn 0.2327 0.9131 -0.3348
vn 0.6906 0.2147 -0.6906
vn 0.8099 0.3852 -0.4424
vn 0.7407 0.3034 -0.5994
vn 0.4425 0.3852 -0.8099
vn 0.6696 0.5321 -0.5182
vn 0.2720 -0.9623 -0.0000
vn 0.5248 -0.8512 -0.0000
vn 0.4273 -0.9006 0.0792
vn 0.9986 -0.0527 -0.0000
vn 0.9320 -0.2451 -0.2670
vn 0.9519 -0.1044 -0.2882
vn 0.9320 -0.2451 0.2670
vn 0.9519 -0.1044 0.2882
vn 0.2505 0.9681 -0.0000
vn 0.4819 0.8762 -0.0000
vn 0.4013 0.9131 -0.0721
vn 0.9767 0.2147 -0.0000
vn 0.8855 0.3852 0.2599
vn 0.9639 0.1719 -0.2036
vn 0.8855 0.3852 -0.2599
vn 0.9058 0.2486 -0.3430
vn 0.1924 -0.9623 0.1924
vn 0.3711 -0.8513 0.3711
vn 0.2461 -0.9006 0.3582
vn 0.7061 -0.0527 0.7061
vn 0.8478 -0.2451 0.4702
vn 0.8768 -0.1045 0.4693
vn 0.4702 -0.2451 0.8478
vn 0.4693 -0.1045 0.8768
vn 0.1771 0.9681 0.1771
vn 0.3407 0.8762 0.3408
vn 0.3348 0.9131 0.2327
vn 0.6906 0.2147 0.6906
vn 0.4423 0.3852 0.8099
vn 0.7339 0.4138 0.5386
vn 0.8099 0.3853 0.4422
vn 0.9656 -0.1116 0.2349
vn -0.0000 -0.9623 0.2720
vn -0.0000 -0.8513 0.5248
vn -0.0792 -0.9006 0.4273
vn -0.0000 -0.0527 0.9986
vn 0.2670 -0.2451 0.9320
vn 0.2882 -0.1044 0.9519
vn -0.2670 -0.2451 0.9320
vn -0.2882 -0.1044 0.9519
vn -0.0000 0.9681 0.2505
vn -0.0000 0.8762 0.4819
vn 0.0721 0.9131 0.4013
vn -0.0000 0.2147 0.9767
vn -0.2599 0.3852 0.8855
vn -0.5318 0.5010 0.6828
vn 0.2599 0.3852 0.8855
vn 0.5893 0.2392 0.7717
vn -0.1924 -0.9623 0.1924
vn -0.3711 -0.8513 0.3711
vn -0.3582 -0.9006 0.2461
vn -0.7061 -0.0527 0.7061
vn -0.4702 -0.2451 0.8478
vn -0.4693 -0.1044 0.8768
vn -0.8478 -0.2451 0.4702
vn -0.8769 -0.1044 0.4693
vn -0.1771 0.9681 0.1771
vn -0.3407 0.8762 0.3408
vn -0.2327 0.9131 0.3348
vn -0.6906 0.2147 0.6906
vn -0.8099 0.3852 0.4424
vn -0.7407 0.3034 0.5994
vn -0.4425 0.3852 0.8099
vn -0.6696 0.5321 0.5182
vn -0.2720 -0.9623 -0.0000
vn -0.5248 -0.8512 -0.0000
vn -0.4273 -0.9006 -0.0792
vn -0.9986 -0.0527 -0.0000
vn -0.9320 -0.2451 0.2670
vn -0.9519 -0.1044 0.2882
vn -0.9320 -0.2451 -0.2670
vn -0.9519 -0.1044 -0.2882
vn -0.2505 0.9681 -0.0000
vn -0.4819 0.8762 -0.0000
vn -0.4013 0.9131 0.0721
vn -0.9767 0.2147 -0.0000
vn -0.8855 0.3852 -0.2599
vn -0.9639 0.1719 0.2036
vn -0.8855 0.3852 0.2599
vn -0.9058 0.2486 0.3430
vn -0.1924 -0.9623 -0.1924
vn -0.3711 -0.8513 -0.3711
vn -0.2461 -0.9006 -0.3582
vn -0.7061 -0.0527 -0.7061
vn -0.8478 -0.2451 -0.4702
vn -0.8768 -0.1045 -0.4693
vn -0.4702 -0.2451 -0.8478
vn -0.4693 -0.1045 -0.8768
vn -0.1771 0.9681 -0.1771
vn -0.3407 0.8762 -0.3408
vn -0.3348 0.9131 -0.2327
vn -0.6906 0.2147 -0.6906
vn -0.4423 0.3852 -0.8099
vn -0.7339 0.4138 -0.5386
vn -0.8099 0.3853 -0.4422
vn -0.9656 -0.1116 -0.2349
vn 0.6764 0.4674 -0.5692
vn 0.5309 0.4293 -0.7307
vn 0.4325 0.6772 -0.5953
vn 0.3323 0.4674 -0.8192
vn 0.3323 -0.4674 -0.8192
vn 0.5309 -0.4293 -0.7307
vn 0.4325 -0.6772 -0.5953
vn 0.6764 -0.4674 -0.5692
vn 0.8818 0.4674 -0.0629
vn 0.8590 0.4293 -0.2791
vn 0.6998 0.6771 -0.2274
vn 0.7504 0.4674 -0.4674
vn 0.7504 -0.4674 -0.4674
vn 0.8590 -0.4293 -0.2791
vn 0.6998 -0.6772 -0.2274
vn 0.8818 -0.4674 -0.0629
vn 0.7504 0.4674 0.4674
vn 0.8590 0.4293 0.2791
vn 0.6998 0.6772 0.2274
vn 0.8818 0.4674 0.0629
vn 0.8818 -0.4674 0.0629
vn 0.8590 -0.4293 0.2791
vn 0.6998 -0.6772 0.2274
vn 0.7504 -0.4674 0.4674
vn 0.3323 0.4674 0.8192
vn 0.5309 0.4293 0.7307
vn 0.4325 0.6771 0.5953
vn 0.6764 0.4674 0.5692
vn 0.6764 -0.4674 0.5692
vn 0.5309 -0.4293 0.7307
vn 0.4325 -0.6771 0.5953
vn 0.3323 -0.4674 0.8192
vn -0.2126 0.4674 0.8581
vn -0.0000 0.4293 0.9032
vn -0.0000 0.6772 0.7358
vn 0.2126 0.4674 0.8581
vn 0.2126 -0.4674 0.8581
vn -0.0000 -0.4293 0.9032
vn -0.0000 -0.6771 0.7358
vn -0.2126 -0.4674 0.8581
vn -0.6764 0.4674 0.5692
vn -0.5309 0.4293 0.7307
vn -0.4325 0.6772 0.5953
vn -0.3323 0.4674 0.8192
vn -0.3323 -0.4674 0.8192
vn -0.5309 -0.4293 0.7307
vn -0.4325 -0.6772 0.5953
vn -0.6764 -0.4674 0.5692
vn -0.8818 0.4674 0.0629
vn -0.8590 0.4293 0.2791
vn -0.6998 0.6771 0.2274
vn -0.7504 0.4674 0.4674
vn -0.7504 -0.4674 0.4674
vn -0.8590 -0.4293 0.2791
vn -0.6998 -0.6772 0.2274
vn -0.8818 -0.4674 0.0629
vn -0.7504 0.4674 -0.4674
vn -0.8590 0.4293 -0.2791
vn -0.6998 0.6771 -0.2274
vn -0.8818 0.4674 -0.0629
vn -0.8818 -0.4674 -0.0629
vn -0.8590 -0.4293 -0.2791
vn -0.6998 -0.6772 -0.2274
vn -0.7504 -0.4674 -0.4674
vn -0.3323 0.4674 -0.8192
vn -0.5309 0.4293 -0.7307
vn -0.4325 0.6771 -0.5953
vn -0.6764 0.4674 -0.5692
vn -0.6764 -0.4674 -0.5692
vn -0.5309 -0.4293 -0.7307
vn -0.4325 -0.6771 -0.5953
vn -0.3323 -0.4674 -0.8192
vn 0.2126 0.4674 -0.8581
vn -0.0000 0.4293 -0.9032
vn -0.0000 0.6772 -0.7358
vn -0.2126 0.4674 -0.8581
vn -0.2126 -0.4674 -0.8581
vn -0.0000 -0.4293 -0.9032
vn -0.0000 -0.6771 -0.7358
vn 0.2126 -0.4674 -0.8581
vn -0.1152 -0.9673 0.2260
vn -0.2087 -0.8881 0.4096
vn -0.3182 -0.9152 0.2473
vn 0.1283 -0.1794 0.9754
vn -0.0347 -0.3251 0.9451
vn 0.1527 -0.3791 0.9127
vn -0.8645 -0.1794 0.4695
vn -0.7442 -0.3250 0.5836
vn -0.7532 -0.1369 0.6433
vn 0.1283 0.1794 0.9754
vn -0.0347 0.3251 0.9451
vn -0.0777 0.1369 0.9875
vn -0.1152 0.9673 0.2260
vn -0.2087 0.8881 0.4096
vn -0.0131 0.9152 0.4028
vn -0.8645 0.1794 0.4695
vn -0.7442 0.3250 0.5836
vn -0.8281 0.3791 0.4130
vn -0.2260 -0.9673 -0.1152
vn -0.4096 -0.8881 -0.2087
vn -0.2473 -0.9152 -0.3182
vn -0.9754 -0.1794 0.1283
vn -0.9451 -0.3250 -0.0347
vn -0.9127 -0.3791 0.1527
vn -0.4695 -0.1794 -0.8645
vn -0.5836 -0.3251 -0.7442
vn -0.6433 -0.1369 -0.7532
vn -0.2260 0.9673 -0.1152
vn -0.4096 0.8881 -0.2087
vn -0.4028 0.9152 -0.0130
vn -0.4695 0.1794 -0.8645
vn -0.5836 0.3251 -0.7442
vn -0.4130 0.3791 -0.8281
vn -0.9754 0.1794 0.1283
vn -0.9451 0.3250 -0.0347
vn -0.9875 0.1369 -0.0777
vn 0.2260 -0.9673 0.1152
vn 0.4096 -0.8881 0.2087
vn 0.2473 -0.9152 0.3182
vn 0.9754 -0.1794 -0.1283
vn 0.9451 -0.3251 0.0347
vn 0.9127 -0.3791 -0.1527
vn 0.4695 -0.1794 0.8645
vn 0.5836 -0.3251 0.7442
vn 0.6433 -0.1369 0.7533
vn 0.2260 0.9673 0.1152
vn 0.4096 0.8881 0.2087
vn 0.4028 0.9152 0.0130
vn 0.4695 0.1794 0.8645
vn 0.5836 0.3251 0.7442
vn 0.4130 0.3791 0.8281
vn 0.9754 0.1794 -0.1283
vn 0.9451 0.3250 0.0347
vn 0.9875 0.1369 0.0777
vn 0.1152 -0.9673 -0.2260
vn 0.2087 -0.8881 -0.4096
vn 0.3182 -0.9152 -0.2473
vn -0.1283 -0.1794 -0.9754
vn 0.0347 -0.3251 -0.9451
vn -0.1526 -0.3791 -0.9127
vn 0.8645 -0.1794 -0.4695
vn 0.7442 -0.3251 -0.5836
vn 0.7532 -0.1369 -0.6433
vn 0.1152 0.9673 -0.2260
vn 0.2087 0.8881 -0.4096
vn 0.0130 0.9152 -0.4028
vn 0.8645 0.1794 -0.4695
vn 0.7442 0.3251 -0.5836
vn 0.8281 0.3791 -0.4130
vn -0.1283 0.1794 -0.9754
vn 0.0347 0.3251 -0.9451
vn 0.0777 0.1369 -0.9875
vn -0.2260 -0.9673 0.1152
vn -0.4096 -0.8881 0.2087
vn -0.4028 -0.9152 0.0130
vn -0.4695 -0.1794 0.8645
vn -0.5836 -0.3251 0.7442
vn -0.4130 -0.3791 0.8281
vn -0.9754 -0.1794 -0.1283
vn -0.9451 -0.3251 0.0347
vn -0.9875 -0.1369 0.0777
vn -0.4695 0.1794 0.8645
vn -0.5836 0.3251 0.7442
vn -0.6433 0.1369 0.7533
vn -0.2260 0.9673 0.1152
vn -0.4096 0.8881 0.2087
vn -0.2473 0.9152 0.3182
vn -0.9754 0.1794 -0.1283
vn -0.9451 0.3250 0.0347
vn -0.9127 0.3791 -0.1527
vn -0.1152 -0.9673 -0.2260
vn -0.2087 -0.8881 -0.4096
vn -0.0130 -0.9152 -0.4028
vn -0.8645 -0.1794 -0.4695
vn -0.7442 -0.3251 -0.5836
vn -0.8281 -0.3791 -0.4130
vn 0.1283 -0.1794 -0.9754
vn -0.0347 -0.3251 -0.9451
vn -0.0777 -0.1369 -0.9875
vn -0.1152 0.9673 -0.2260
vn -0.2087 0.8881 -0.4096
vn -0.3182 0.9152 -0.2473
vn 0.1283 0.1794 -0.9754
vn -0.0347 0.3251 -0.9451
vn 0.1526 0.3791 -0.9127
vn -0.8645 0.1794 -0.4695
vn -0.7442 0.3251 -0.5836
vn -0.7533 0.1369 -0.6433
vn 0.1152 -0.9673 0.2260
vn 0.2087 -0.8881 0.4096
vn 0.0130 -0.9152 0.4028
vn 0.8645 -0.1794 0.4695
vn 0.7442 -0.3251 0.5836
vn 0.8281 -0.3791 0.4130
vn -0.1283 -0.1794 0.9754
vn 0.0347 -0.3251 0.9451
vn 0.0777 -0.1369 0.9875
vn 0.1152 0.9673 0.2260
vn 0.2087 0.8881 0.4096
vn 0.3182 0.9152 0.2473
vn -0.1283 0.1794 0.9754
vn 0.0347 0.3251 0.9451
vn -0.1527 0.3791 0.9127
vn 0.8645 0.1794 0.4695
vn 0.7442 0.3250 0.5836
vn 0.7532 0.1369 0.6433
vn 0.2260 -0.9673 -0.1152
vn 0.4096 -0.8881 -0.2087
vn 0.4028 -0.9152 -0.0130
vn 0.4695 -0.1794 -0.8645
vn 0.5836 -0.3251 -0.7442
vn 0.4130 -0.3791 -0.8281
vn 0.9754 -0.1794 0.1283
vn 0.9451 -0.3250 -0.0347
vn 0.9875 -0.1369 -0.0777
vn 0.2260 0.9673 -0.1152
vn 0.4096 0.8881 -0.2087
vn 0.2473 0.9152 -0.3182
vn 0.9754 0.1794 0.1283
vn 0.9451 0.3250 -0.0347
vn 0.9127 0.3791 0.1527
vn 0.4695 0.1794 -0.8645
vn 0.5836 0.3251 -0.7442
vn 0.6433 0.1369 -0.7533
vn -0.2023 0.7319 -0.6507
vn -0.0000 0.8110 -0.5851
vn -0.0000 0.7338 -0.6794
vn -0.0000 0.9337 -0.3580
vn -0.1404 0.8455 -0.5152
vn 0.2023 0.7319 -0.6507
vn 0.1404 0.8455 -0.5152
vn -0.2023 -0.7319 -0.6507
vn -0.0000 -0.8110 -0.5851
vn -0.1403 -0.8455 -0.5152
vn 0.2023 -0.7319 -0.6507
vn -0.0000 -0.7338 -0.6794
vn -0.0000 -0.9337 -0.3580
vn 0.1403 -0.8455 -0.5152
vn 0.6032 0.7319 -0.3171
vn 0.4137 0.8110 -0.4137
vn 0.4636 0.8455 -0.2650
vn 0.3171 0.7319 -0.6032
vn 0.4804 0.7338 -0.4804
vn 0.2531 0.9337 -0.2531
vn 0.2650 0.8455 -0.4636
vn 0.6032 -0.7319 -0.3171
vn 0.4137 -0.8110 -0.4137
vn 0.4804 -0.7338 -0.4804
vn 0.2531 -0.9337 -0.2531
vn 0.4635 -0.8455 -0.2651
vn 0.3171 -0.7319 -0.6032
vn 0.2651 -0.8455 -0.4635
vn 0.6507 0.7319 0.2023
vn 0.5851 0.8110 -0.0000
vn 0.5152 0.8455 0.1404
vn 0.6507 0.7319 -0.2023
vn 0.6794 0.7337 -0.0000
vn 0.3580 0.9337 -0.0000
vn 0.5152 0.8455 -0.1404
vn 0.6507 -0.7319 0.2023
vn 0.5851 -0.8110 -0.0000
vn 0.6794 -0.7338 -0.0000
vn 0.3580 -0.9337 -0.0000
vn 0.5152 -0.8455 0.1404
vn 0.6507 -0.7319 -0.2023
vn 0.5152 -0.8455 -0.1404
vn 0.3171 0.7319 0.6032
vn 0.4137 0.8110 0.4137
vn 0.2650 0.8455 0.4636
vn 0.6032 0.7319 0.3171
vn 0.4804 0.7338 0.4804
vn 0.2531 0.9337 0.2531
vn 0.4636 0.8455 0.2650
vn 0.3171 -0.7319 0.6032
vn 0.4137 -0.8110 0.4137
vn 0.4804 -0.7338 0.4804
vn 0.2531 -0.9337 0.2531
vn 0.2650 -0.8455 0.4635
vn 0.6032 -0.7319 0.3171
vn 0.4635 -0.8455 0.2651
vn -0.2023 0.7319 0.6507
vn -0.0000 0.8110 0.5851
vn -0.1404 0.8455 0.5152
vn 0.2023 0.7319 0.6507
vn -0.0000 0.7338 0.6794
vn -0.0000 0.9337 0.3580
vn 0.1404 0.8455 0.5152
vn -0.2023 -0.7319 0.6507
vn -0.0000 -0.8110 0.5851
vn -0.0000 -0.7338 0.6794
vn -0.0000 -0.9337 0.3580
vn -0.1403 -0.8455 0.5152
vn 0.2023 -0.7319 0.6507
vn 0.1403 -0.8455 0.5152
vn -0.6032 0.7319 0.3171
vn -0.4137 0.8110 0.4137
vn -0.4636 0.8455 0.2650
vn -0.3171 0.7319 0.6032
vn -0.4804 0.7338 0.4804
vn -0.2531 0.9337 0.2531
vn -0.2650 0.8455 0.4636
vn -0.6032 -0.7319 0.3171
vn -0.4137 -0.8110 0.4137
vn -0.4804 -0.7338 0.4804
vn -0.2531 -0.9337 0.2531
vn -0.4635 -0.8455 0.2651
vn -0.3171 -0.7319 0.6032
vn -0.2651 -0.8455 0.4635
vn -0.6507 0.7319 -0.2023
vn -0.5851 0.8110 -0.0000
vn -0.5152 0.8455 -0.1404
vn -0.6507 0.7319 0.2023
vn -0.6794 0.7338 -0.0000
vn -0.3580 0.9337 -0.0000
vn -0.5152 0.8455 0.1404
vn -0.6507 -0.7319 -0.2023
vn -0.5851 -0.8110 -0.0000
vn -0.6794 -0.7338 -0.0000
vn -0.3580 -0.9337 -0.0000
vn -0.5152 -0.8455 -0.1404
vn -0.6507 -0.7319 0.2023
vn -0.5152 -0.8455 0.1404
vn -0.3171 0.7319 -0.6032
vn -0.4137 0.8110 -0.4137
vn -0.2650 0.8455 -0.4636
vn -0.6032 0.7319 -0.3171
vn -0.4804 0.7338 -0.4804
vn -0.2531 0.9337 -0.2531
vn -0.4636 0.8455 -0.2650
vn -0.3171 -0.7319 -0.6032
vn -0.4137 -0.8110 -0.4137
vn -0.4804 -0.7338 -0.4804
vn -0.2531 -0.9337 -0.2531
vn -0.2650 -0.8455 -0.4635
vn -0.6032 -0.7319 -0.3171
vn -0.4635 -0.8455 -0.2651
vn 0.2461 -0.9006 -0.3582
vn 0.0721 0.9131 -0.4013
vn 0.4273 -0.9006 -0.0792
vn 0.3347 0.9131 -0.2327
vn 0.3582 -0.9006 0.2461
vn 0.4013 0.9131 0.0721
vn 0.0792 -0.9006 0.4273
vn 0.2327 0.9131 0.3348
vn -0.2461 -0.9006 0.3582
vn -0.0721 0.9131 0.4013
vn -0.4273 -0.9006 0.0792
vn -0.3347 0.9131 0.2327
vn -0.3582 -0.9006 -0.2461
vn -0.4013 0.9131 -0.0721
vn -0.0792 -0.9006 -0.4273
vn -0.2327 0.9131 -0.3348
vn 0.7507 -0.0000 -0.6607
vn 0.3964 -0.0000 -0.9181
vn 0.5878 -0.0000 -0.8090
vn 0.9956 -0.0000 -0.0933
vn 0.8603 -0.0000 -0.5098
vn 0.9511 -0.0000 -0.3090
vn 0.2016 -0.9393 -0.2775
vn 0.4889 -0.8578 -0.1589
vn 0.3262 -0.9393 -0.1060
vn 0.3022 -0.8578 -0.4159
vn 0.6271 -0.7518 -0.2037
vn 0.6271 0.7518 -0.2037
vn 0.3022 0.8578 -0.4159
vn 0.4889 0.8578 -0.1589
vn 0.2016 0.9393 -0.2775
vn 0.3262 0.9393 -0.1060
vn 0.8603 -0.0000 0.5098
vn 0.9956 -0.0000 0.0933
vn 0.9511 -0.0000 0.3090
vn 0.4889 0.8578 0.1589
vn 0.6271 0.7518 0.2037
vn 0.3262 0.9393 0.1060
vn 0.6271 -0.7518 0.2038
vn 0.3263 -0.9393 0.1060
vn 0.3964 -0.0000 0.9181
vn 0.7507 -0.0000 0.6607
vn 0.5878 -0.0000 0.8090
vn 0.3022 0.8578 0.4159
vn 0.3876 0.7518 0.5334
vn 0.2016 0.9393 0.2775
vn 0.3876 -0.7518 0.5334
vn 0.4889 -0.8578 0.1589
vn 0.3022 -0.8578 0.4159
vn -0.2190 -0.0000 0.9757
vn 0.2190 -0.0000 0.9757
vn -0.0000 -0.0000 1.0000
vn -0.0000 -0.7518 0.6593
vn -0.0000 -0.9393 0.3430
vn 0.2016 -0.9393 0.2775
vn -0.0000 0.9393 0.3430
vn -0.0000 0.8578 0.5141
vn -0.7507 -0.0000 0.6607
vn -0.3964 -0.0000 0.9181
vn -0.5878 -0.0000 0.8090
vn -0.3876 -0.7518 0.5334
vn -0.0000 -0.8578 0.5141
vn -0.3022 -0.8578 0.4159
vn -0.2016 0.9393 0.2775
vn -0.3022 0.8578 0.4159
vn -0.0000 0.7518 0.6593
vn -0.9956 -0.0000 0.0933
vn -0.8603 -0.0000 0.5098
vn -0.9511 -0.0000 0.3090
vn -0.6271 -0.7518 0.2037
vn -0.4889 -0.8578 0.1589
vn -0.2016 -0.9393 0.2775
vn -0.3262 0.9393 0.1060
vn -0.4889 0.8578 0.1589
vn -0.3876 0.7518 0.5334
vn -0.8603 -0.0000 -0.5098
vn -0.9956 -0.0000 -0.0933
vn -0.9511 -0.0000 -0.3090
vn -0.3263 0.9393 -0.1060
vn -0.4889 0.8578 -0.1589
vn -0.6271 0.7518 0.2038
vn -0.3262 -0.9393 0.1060
vn -0.4889 -0.8578 -0.1589
vn -0.3262 -0.9393 -0.1060
vn -0.6271 -0.7518 -0.2037
vn -0.3964 -0.0000 -0.9181
vn -0.7507 -0.0000 -0.6607
vn -0.5878 -0.0000 -0.8090
vn -0.2016 0.9393 -0.2775
vn -0.3022 0.8578 -0.4159
vn -0.6271 0.7518 -0.2037
vn -0.3021 -0.8578 -0.4159
vn -0.2016 -0.9393 -0.2775
vn -0.3876 -0.7518 -0.5334
vn 0.2190 -0.0000 -0.9757
vn -0.2190 -0.0000 -0.9757
vn -0.0000 -0.0000 -1.0000
vn -0.0000 -0.9393 -0.3430
vn -0.0000 -0.8578 -0.5141
vn -0.0000 -0.7518 -0.6593
vn -0.3876 0.7518 -0.5334
vn -0.0000 0.8578 -0.5141
vn -0.0000 0.7518 -0.6593
vn -0.0000 0.9393 -0.3430
vn 0.3875 -0.7518 -0.5334
vn 0.3876 0.7518 -0.5334
vn -0.4028 -0.9152 -0.0130
vn -0.0777 -0.1369 0.9875
vn -0.3182 0.9152 0.2473
vn -0.9127 0.3791 0.1526
vn -0.6433 0.1369 -0.7533
vn 0.0130 -0.9152 -0.4028
vn -0.4130 -0.3791 -0.8281
vn -0.2473 0.9152 -0.3182
vn -0.1527 0.3791 -0.9127
vn 0.7533 0.1369 -0.6433
vn 0.0777 -0.1369 -0.9875
vn 0.4028 -0.9152 0.0130
vn 0.8281 -0.3791 -0.4130
vn 0.3182 0.9152 -0.2473
vn 0.9127 0.3791 -0.1526
vn 0.6433 0.1369 0.7533
vn 0.9875 -0.1369 0.0777
vn -0.0130 -0.9152 0.4028
vn 0.4130 -0.3791 0.8281
vn 0.2473 0.9152 0.3182
vn 0.1526 0.3791 0.9127
vn -0.3182 -0.9152 -0.2473
vn -0.9127 -0.3791 -0.1526
vn -0.6433 -0.1369 0.7533
vn -0.9875 0.1369 0.0777
vn -0.4028 0.9152 0.0130
vn -0.8281 0.3791 -0.4130
vn -0.0777 0.1369 -0.9875
vn -0.7532 -0.1369 -0.6433
vn 0.2473 -0.9152 -0.3182
vn 0.1527 -0.3791 -0.9127
vn -0.0130 0.9152 -0.4028
vn 0.4130 0.3791 -0.8281
vn 0.9875 0.1369 -0.0777
vn 0.6433 -0.1369 -0.7533
vn 0.3182 -0.9152 0.2473
vn 0.9127 -0.3791 0.1526
vn 0.4028 0.9152 -0.0130
vn 0.0777 0.1369 0.9875
vn -0.2473 -0.9152 0.3182
vn -0.1527 -0.3791 0.9127
vn 0.0131 0.9152 0.4028
vn 0.2416 0.4801 -0.8433
vn -0.2416 0.4801 -0.8433
vn 0.2728 -0.0000 -0.9621
vn -0.0000 0.4883 -0.8727
vn -0.2728 -0.0000 -0.9621
vn -0.0000 -0.4883 -0.8727
vn 0.2416 -0.4801 -0.8433
vn -0.2416 -0.4801 -0.8433
vn 0.7671 0.4801 -0.4254
vn 0.4254 0.4801 -0.7671
vn 0.8732 -0.0000 -0.4874
vn 0.6171 0.4883 -0.6171
vn 0.4874 -0.0000 -0.8732
vn 0.6171 -0.4883 -0.6171
vn 0.7071 -0.0000 -0.7071
vn 0.7671 -0.4801 -0.4254
vn 0.4254 -0.4801 -0.7671
vn 0.8433 0.4801 0.2416
vn 0.8433 0.4801 -0.2416
vn 0.9621 -0.0000 0.2728
vn 0.8727 0.4883 -0.0000
vn 0.9621 -0.0000 -0.2728
vn 0.8727 -0.4883 -0.0000
vn 1.0000 -0.0000 -0.0000
vn 0.8433 -0.4801 0.2416
vn 0.8433 -0.4801 -0.2416
vn 0.4254 0.4801 0.7671
vn 0.7671 0.4801 0.4254
vn 0.4874 -0.0000 0.8732
vn 0.6171 0.4883 0.6171
vn 0.8732 -0.0000 0.4874
vn 0.6171 -0.4883 0.6171
vn 0.7071 -0.0000 0.7071
vn 0.4254 -0.4801 0.7671
vn 0.7671 -0.4801 0.4254
vn -0.2416 0.4801 0.8433
vn 0.2416 0.4801 0.8433
vn -0.2728 -0.0000 0.9621
vn -0.0000 0.4883 0.8727
vn 0.2728 -0.0000 0.9621
vn -0.0000 -0.4883 0.8727
vn -0.2416 -0.4801 0.8433
vn 0.2416 -0.4801 0.8433
vn -0.7671 0.4801 0.4254
vn -0.4254 0.4801 0.7671
vn -0.8732 -0.0000 0.4874
vn -0.6171 0.4883 0.6171
vn -0.4874 -0.0000 0.8732
vn -0.6171 -0.4883 0.6171
vn -0.7071 -0.0000 0.7071
vn -0.7671 -0.4801 0.4254
vn -0.4254 -0.4801 0.7671
vn -0.8433 0.4801 -0.2416
vn -0.8433 0.4801 0.2416
vn -0.9621 -0.0000 -0.2728
vn -0.8727 0.4883 -0.0000
vn -0.9621 -0.0000 0.2728
vn -0.8727 -0.4883 -0.0000
vn -1.0000 -0.0000 -0.0000
vn -0.8433 -0.4801 -0.2416
vn -0.8433 -0.4801 0.2416
vn -0.4254 0.4801 -0.7671
vn -0.7671 0.4801 -0.4254
vn -0.4874 -0.0000 -0.8732
vn -0.6171 0.4883 -0.6171
vn -0.8732 -0.0000 -0.4874
vn -0.6171 -0.4883 -0.6171
vn -0.7071 -0.0000 -0.7071
vn -0.4254 -0.4801 -0.7671
vn -0.7671 -0.4801 -0.4254
vn -0.0000 1.0000 -0.0000
vn -0.0000 -1.0000 -0.0000
vn -0.0000 -0.1436 -0.9896
vn -0.0000 0.3033 -0.9529
vn 0.6998 -0.1436 -0.6998
vn 0.6738 0.3033 -0.6738
vn 0.9896 -0.1436 -0.0000
vn 0.9529 0.3033 -0.0000
vn 0.6998 -0.1436 0.6998
vn 0.6738 0.3033 0.6738
vn -0.0000 -0.1436 0.9896
vn -0.0000 0.3033 0.9529
vn -0.6998 -0.1436 0.6998
vn -0.6738 0.3033 0.6738
vn -0.9896 -0.1436 -0.0000
vn -0.9529 0.3033 -0.0000
vn -0.6998 -0.1436 -0.6998
vn -0.6738 0.3033 -0.6738
vn -0.8281 -0.3791 0.4130
vn -0.7533 0.1369 0.6433
vn -0.9875 -0.1369 -0.0777
vn -0.4130 0.3791 0.8281
vn 0.7533 -0.1369 0.6433
vn 0.8281 0.3791 0.4130
vt 0.732598 0.372303
vt 0.730541 0.373155
vt 0.730384 0.371303
vt 0.055214 0.788037
vt 0.053929 0.790443
vt 0.052502 0.788261
vt 0.057317 0.790207
vt 0.058221 0.787862
vt 0.732745 0.573697
vt 0.730470 0.574639
vt 0.730383 0.572800
vt 0.016732 0.016635
vt 0.018564 0.014246
vt 0.019739 0.016461
vt 0.015253 0.014477
vt 0.014020 0.016859
vt 0.732598 0.318587
vt 0.730541 0.317735
vt 0.731739 0.316314
vt 0.110391 0.783873
vt 0.108611 0.786336
vt 0.107530 0.784141
vt 0.111717 0.786082
vt 0.112774 0.783713
vt 0.735280 0.576232
vt 0.734338 0.578507
vt 0.732977 0.577268
vt 0.022600 0.016192
vt 0.023379 0.013864
vt 0.024982 0.016032
vt 0.020343 0.014112
vt 0.019739 0.016461
vt 0.770581 0.280605
vt 0.769729 0.278548
vt 0.771581 0.278390
vt 0.308453 0.788008
vt 0.307169 0.790415
vt 0.305742 0.788234
vt 0.310556 0.790178
vt 0.311459 0.787834
vt 0.738866 0.576232
vt 0.739809 0.578507
vt 0.737970 0.578594
vt 0.270004 0.016634
vt 0.271837 0.014245
vt 0.273011 0.016459
vt 0.268527 0.014477
vt 0.267294 0.016859
vt 0.824296 0.280605
vt 0.825148 0.278548
vt 0.826569 0.279746
vt 0.363636 0.783846
vt 0.361856 0.786309
vt 0.360774 0.784114
vt 0.364964 0.786056
vt 0.366020 0.783687
vt 0.741402 0.573697
vt 0.743677 0.574639
vt 0.742438 0.576000
vt 0.275872 0.016191
vt 0.276654 0.013864
vt 0.278257 0.016032
vt 0.273616 0.014111
vt 0.862279 0.318587
vt 0.864336 0.317735
vt 0.864493 0.319588
vt 0.181852 0.788036
vt 0.180567 0.790443
vt 0.179140 0.788261
vt 0.183955 0.790206
vt 0.184859 0.787862
vt 0.741402 0.570111
vt 0.743677 0.569169
vt 0.743763 0.571007
vt 0.143369 0.016635
vt 0.145202 0.014246
vt 0.146376 0.016460
vt 0.141890 0.014477
vt 0.140658 0.016859
vt 0.862279 0.372303
vt 0.864336 0.373155
vt 0.863137 0.374576
vt 0.237029 0.783873
vt 0.235249 0.786336
vt 0.234168 0.784141
vt 0.238355 0.786082
vt 0.239411 0.783713
vt 0.738866 0.567575
vt 0.739809 0.565300
vt 0.741170 0.566539
vt 0.149237 0.016192
vt 0.150017 0.013864
vt 0.151620 0.016032
vt 0.146980 0.014112
vt 0.824296 0.410286
vt 0.825148 0.412342
vt 0.823296 0.412500
vt 0.435062 0.788008
vt 0.433778 0.790415
vt 0.432351 0.788233
vt 0.437165 0.790178
vt 0.438068 0.787833
vt 0.735280 0.567575
vt 0.734338 0.565300
vt 0.736177 0.565214
vt 0.396613 0.016634
vt 0.398446 0.014245
vt 0.399620 0.016459
vt 0.395136 0.014477
vt 0.393903 0.016859
vt 0.770581 0.410286
vt 0.769729 0.412342
vt 0.768307 0.411144
vt 0.490245 0.783846
vt 0.488464 0.786309
vt 0.487383 0.784114
vt 0.491572 0.786056
vt 0.492629 0.783687
vt 0.732745 0.570111
vt 0.730470 0.569169
vt 0.731709 0.567807
vt 0.402481 0.016191
vt 0.403263 0.013864
vt 0.404866 0.016032
vt 0.400225 0.014111
vt 0.799079 0.662841
vt 0.796362 0.662282
vt 0.796291 0.659905
vt 0.793378 0.661654
vt 0.781422 0.717698
vt 0.784406 0.718325
vt 0.783381 0.720423
vt 0.787122 0.718885
vt 0.382253 0.839511
vt 0.379478 0.839491
vt 0.380445 0.837185
vt 0.377174 0.839462
vt 0.744598 0.451329
vt 0.746851 0.449179
vt 0.747850 0.450554
vt 0.379459 0.896796
vt 0.382235 0.896816
vt 0.380425 0.899065
vt 0.411595 0.839612
vt 0.408519 0.839618
vt 0.408479 0.837307
vt 0.405423 0.839612
vt 0.405404 0.896918
vt 0.408500 0.896923
vt 0.408459 0.899188
vt 0.411577 0.896918
vt 0.342868 0.834398
vt 0.345072 0.836598
vt 0.343722 0.837630
vt 0.437117 0.839491
vt 0.434411 0.839511
vt 0.436086 0.837185
vt 0.434393 0.896816
vt 0.437099 0.896796
vt 0.436066 0.899065
vt 0.804507 0.449179
vt 0.806760 0.451329
vt 0.803507 0.450554
vt 0.769733 0.780821
vt 0.766725 0.780172
vt 0.767681 0.778014
vt 0.763951 0.779562
vt 0.751995 0.835606
vt 0.754768 0.836216
vt 0.754771 0.838532
vt 0.757776 0.836865
vt 0.799079 0.787043
vt 0.796362 0.786484
vt 0.796291 0.784107
vt 0.793378 0.785857
vt 0.781422 0.841900
vt 0.784406 0.842528
vt 0.783381 0.844625
vt 0.787122 0.843087
vt 0.023317 0.839521
vt 0.020541 0.839501
vt 0.021509 0.837195
vt 0.018238 0.839472
vt 0.806760 0.526385
vt 0.804507 0.528535
vt 0.803507 0.527160
vt 0.020523 0.896806
vt 0.023299 0.896826
vt 0.021489 0.899075
vt 0.052659 0.839622
vt 0.049583 0.839628
vt 0.049543 0.837317
vt 0.046487 0.839622
vt 0.046468 0.896928
vt 0.049564 0.896933
vt 0.049523 0.899198
vt 0.052640 0.896928
vt 0.269344 0.898363
vt 0.267139 0.896163
vt 0.268490 0.895130
vt 0.078181 0.839501
vt 0.075475 0.839521
vt 0.077150 0.837195
vt 0.075457 0.896826
vt 0.078163 0.896806
vt 0.077130 0.899075
vt 0.746851 0.528535
vt 0.744598 0.526385
vt 0.747850 0.527160
vt 0.769733 0.656619
vt 0.766725 0.655970
vt 0.767681 0.653811
vt 0.763951 0.655360
vt 0.751995 0.711403
vt 0.754768 0.712014
vt 0.754771 0.714329
vt 0.757776 0.712662
vt 0.935403 0.442515
vt 0.933535 0.440648
vt 0.935403 0.440228
vt 0.732655 0.246163
vt 0.730810 0.248495
vt 0.730383 0.246723
vt 0.732710 0.250663
vt 0.732671 0.248584
vt 0.910370 0.244459
vt 0.912261 0.246755
vt 0.910386 0.246880
vt 0.860893 0.442515
vt 0.862761 0.440648
vt 0.863181 0.442515
vt 0.910425 0.248958
vt 0.912713 0.248156
vt 0.945307 0.442515
vt 0.947175 0.440648
vt 0.947595 0.442515
vt 0.981635 0.932713
vt 0.983949 0.934580
vt 0.982174 0.934990
vt 0.986136 0.932701
vt 0.984056 0.932720
vt 0.850990 0.442515
vt 0.849122 0.440647
vt 0.850990 0.440228
vt 0.986136 0.754976
vt 0.983949 0.753119
vt 0.985357 0.752681
vt 0.981635 0.754987
vt 0.984056 0.754994
vt 0.935403 0.722597
vt 0.933535 0.724465
vt 0.933116 0.722597
vt 0.941259 0.932713
vt 0.943573 0.934580
vt 0.941798 0.934990
vt 0.945760 0.932701
vt 0.943680 0.932720
vt 0.860893 0.722597
vt 0.862761 0.724465
vt 0.860893 0.724885
vt 0.945760 0.754976
vt 0.943573 0.753119
vt 0.944980 0.752681
vt 0.941259 0.754987
vt 0.943680 0.754994
vt 0.945307 0.722597
vt 0.947175 0.724465
vt 0.945307 0.724885
vt 0.522628 0.870884
vt 0.520784 0.873216
vt 0.520357 0.871444
vt 0.522683 0.875384
vt 0.522644 0.873305
vt 0.850990 0.722597
vt 0.849122 0.724465
vt 0.848702 0.722597
vt 0.700399 0.873679
vt 0.702235 0.871475
vt 0.702686 0.872877
vt 0.700344 0.869179
vt 0.700360 0.871601
vt 0.903100 0.722597
vt 0.904968 0.724465
vt 0.903100 0.724885
vt 0.700382 0.016190
vt 0.702230 0.014357
vt 0.702656 0.016214
vt 0.893218 0.932642
vt 0.891318 0.934492
vt 0.890909 0.932630
vt 0.522658 0.016127
vt 0.520771 0.014293
vt 0.522644 0.013864
vt 0.942728 0.296234
vt 0.940860 0.298101
vt 0.940441 0.296234
vt 0.893218 0.754916
vt 0.891318 0.753031
vt 0.893196 0.752616
vt 0.893196 0.722597
vt 0.891328 0.724465
vt 0.890909 0.722597
vt 0.903119 0.932638
vt 0.904954 0.934487
vt 0.903097 0.934913
vt 0.700382 0.608547
vt 0.702230 0.610448
vt 0.700368 0.610857
vt 0.952632 0.296234
vt 0.954500 0.298101
vt 0.952632 0.298521
vt 0.522658 0.608485
vt 0.520771 0.610385
vt 0.520357 0.608507
vt 0.903119 0.754913
vt 0.904954 0.753026
vt 0.905384 0.754900
vt 0.903100 0.442516
vt 0.904968 0.440648
vt 0.905388 0.442516
vt 0.860912 0.932638
vt 0.862747 0.934487
vt 0.860890 0.934913
vt 0.700382 0.296186
vt 0.702230 0.298088
vt 0.700368 0.298497
vt 0.942728 0.016152
vt 0.940860 0.014284
vt 0.942728 0.013864
vt 0.522658 0.296124
vt 0.520771 0.298025
vt 0.520357 0.296147
vt 0.860912 0.754913
vt 0.862747 0.753026
vt 0.863177 0.754900
vt 0.893196 0.442516
vt 0.891328 0.440648
vt 0.893196 0.440228
vt 0.700382 0.328550
vt 0.702230 0.326717
vt 0.702656 0.328574
vt 0.851011 0.932642
vt 0.849112 0.934492
vt 0.848702 0.932630
vt 0.952632 0.016152
vt 0.954500 0.014284
vt 0.954920 0.016152
vt 0.851011 0.754916
vt 0.849112 0.753031
vt 0.850989 0.752616
vt 0.522658 0.328488
vt 0.520771 0.326654
vt 0.522644 0.326224
vt 0.752325 0.938512
vt 0.755633 0.938407
vt 0.755087 0.939843
vt 0.756771 0.935416
vt 0.754418 0.937102
vt 0.758035 0.940685
vt 0.757408 0.938239
vt 0.124544 0.864505
vt 0.124552 0.861195
vt 0.125892 0.862372
vt 0.122206 0.858861
vt 0.123132 0.861783
vt 0.127508 0.859971
vt 0.124668 0.859416
vt 0.774476 0.937868
vt 0.771167 0.937956
vt 0.772304 0.936582
vt 0.768902 0.940369
vt 0.771796 0.939358
vt 0.769857 0.935036
vt 0.769385 0.937891
vt 0.124544 0.842345
vt 0.124552 0.845655
vt 0.123132 0.845067
vt 0.127508 0.846879
vt 0.125892 0.844479
vt 0.122206 0.847989
vt 0.124668 0.847434
vt 0.784110 0.924251
vt 0.781832 0.926652
vt 0.781664 0.924877
vt 0.781937 0.929961
vt 0.783268 0.927199
vt 0.778841 0.925514
vt 0.780526 0.927867
vt 0.137875 0.832320
vt 0.135541 0.834666
vt 0.134953 0.833246
vt 0.136765 0.837622
vt 0.137320 0.834782
vt 0.132231 0.834658
vt 0.134365 0.836006
vt 0.781293 0.907810
vt 0.781381 0.911118
vt 0.780006 0.909982
vt 0.783794 0.913384
vt 0.782782 0.910489
vt 0.778461 0.912428
vt 0.781316 0.912901
vt 0.154391 0.834658
vt 0.151081 0.834666
vt 0.151669 0.833246
vt 0.149857 0.837622
vt 0.152258 0.836006
vt 0.148747 0.832320
vt 0.149302 0.834782
vt 0.767675 0.898176
vt 0.770077 0.900453
vt 0.768302 0.900621
vt 0.773385 0.900349
vt 0.770624 0.899017
vt 0.768939 0.903444
vt 0.771292 0.901759
vt 0.164417 0.847989
vt 0.162070 0.845655
vt 0.163490 0.845067
vt 0.159114 0.846879
vt 0.161954 0.847434
vt 0.162079 0.842345
vt 0.160730 0.844479
vt 0.751234 0.900993
vt 0.754543 0.900905
vt 0.753406 0.902279
vt 0.756808 0.898492
vt 0.753914 0.899503
vt 0.755853 0.903825
vt 0.756325 0.900969
vt 0.162079 0.864505
vt 0.162070 0.861195
vt 0.163490 0.861783
vt 0.159114 0.859971
vt 0.160730 0.862372
vt 0.164417 0.858861
vt 0.161954 0.859416
vt 0.741601 0.914610
vt 0.743878 0.912208
vt 0.744046 0.913984
vt 0.743774 0.908900
vt 0.742442 0.911662
vt 0.746869 0.913346
vt 0.745184 0.910994
vt 0.148747 0.874531
vt 0.151081 0.872184
vt 0.151669 0.873604
vt 0.149857 0.869228
vt 0.149302 0.872068
vt 0.154391 0.872193
vt 0.152258 0.870844
vt 0.744417 0.931051
vt 0.744330 0.927742
vt 0.745704 0.928879
vt 0.741916 0.925477
vt 0.742928 0.928371
vt 0.747249 0.926432
vt 0.744394 0.925960
vt 0.132231 0.872193
vt 0.135541 0.872184
vt 0.134953 0.873604
vt 0.136765 0.869228
vt 0.134365 0.870844
vt 0.137875 0.874531
vt 0.137320 0.872068
vt 0.730384 0.319588
vt 0.731709 0.576000
vt 0.267139 0.792935
vt 0.267261 0.790656
vt 0.768307 0.279746
vt 0.736177 0.578594
vt 0.823296 0.278390
vt 0.741170 0.577268
vt 0.140501 0.792944
vt 0.140625 0.790666
vt 0.863137 0.316314
vt 0.743763 0.572800
vt 0.864493 0.371303
vt 0.742438 0.567807
vt 0.393748 0.792935
vt 0.393870 0.790655
vt 0.826569 0.411144
vt 0.737970 0.565214
vt 0.771581 0.412500
vt 0.732977 0.566539
vt 0.013864 0.792944
vt 0.013987 0.790666
vt 0.731739 0.374576
vt 0.014020 0.016859
vt 0.730383 0.571007
vt 0.795575 0.691495
vt 0.789874 0.690309
vt 0.792859 0.690937
vt 0.377879 0.868248
vt 0.372800 0.868199
vt 0.375103 0.868228
vt 0.751540 0.481014
vt 0.758996 0.465895
vt 0.760760 0.468323
vt 0.748685 0.480086
vt 0.757458 0.463778
vt 0.331620 0.883987
vt 0.315529 0.893153
vt 0.329466 0.882501
vt 0.314532 0.890321
vt 0.326995 0.880796
vt 0.411767 0.868369
vt 0.405595 0.868369
vt 0.408691 0.868375
vt 0.334480 0.865691
vt 0.337096 0.865628
vt 0.331479 0.865764
vt 0.775679 0.457857
vt 0.775679 0.463476
vt 0.732564 0.802032
vt 0.742370 0.774728
vt 0.744521 0.775218
vt 0.439061 0.868248
vt 0.730414 0.830771
vt 0.730414 0.801542
vt 0.441767 0.868228
vt 0.328656 0.849145
vt 0.330735 0.847556
vt 0.326271 0.850968
vt 0.793900 0.463778
vt 0.775679 0.460474
vt 0.792362 0.465895
vt 0.761589 0.808487
vt 0.755808 0.807229
vt 0.758581 0.807839
vt 0.805161 0.479278
vt 0.799817 0.481014
vt 0.790597 0.468323
vt 0.313361 0.842058
vt 0.314219 0.839182
vt 0.795575 0.815698
vt 0.789874 0.814511
vt 0.792858 0.815139
vt 0.805161 0.498436
vt 0.802673 0.480086
vt 0.802673 0.497628
vt 0.297679 0.842439
vt 0.296682 0.839607
vt 0.314967 0.836674
vt 0.018943 0.868258
vt 0.013864 0.868209
vt 0.016167 0.868238
vt 0.793900 0.513936
vt 0.792362 0.511819
vt 0.799817 0.496700
vt 0.285216 0.851965
vt 0.282745 0.850259
vt 0.295813 0.837139
vt 0.052831 0.868379
vt 0.046659 0.868379
vt 0.049755 0.868385
vt 0.280732 0.866996
vt 0.277731 0.867069
vt 0.280592 0.848773
vt 0.790597 0.509391
vt 0.775679 0.517240
vt 0.775679 0.514238
vt 0.775679 0.519857
vt 0.732564 0.677830
vt 0.742370 0.650525
vt 0.744521 0.651016
vt 0.080125 0.868258
vt 0.730414 0.706569
vt 0.730414 0.677339
vt 0.082830 0.868238
vt 0.285940 0.881793
vt 0.283555 0.883616
vt 0.275115 0.867133
vt 0.758996 0.511819
vt 0.760760 0.509391
vt 0.757458 0.513936
vt 0.761589 0.684285
vt 0.755808 0.683026
vt 0.758581 0.683636
vt 0.751540 0.496700
vt 0.748685 0.497628
vt 0.746196 0.498436
vt 0.281476 0.885205
vt 0.297993 0.893579
vt 0.297245 0.896087
vt 0.298851 0.890702
vt 0.746196 0.479278
vt 0.316398 0.895622
vt 0.945307 0.440228
vt 0.973488 0.932636
vt 0.860893 0.440228
vt 0.982174 0.752689
vt 0.973488 0.754911
vt 0.974026 0.752613
vt 0.947595 0.722597
vt 0.520396 0.640849
vt 0.848702 0.442515
vt 0.702647 0.869695
vt 0.700383 0.638585
vt 0.702686 0.639100
vt 0.935403 0.724885
vt 0.933650 0.934913
vt 0.850990 0.724885
vt 0.941798 0.752689
vt 0.933111 0.754911
vt 0.933650 0.752613
vt 0.933115 0.442515
vt 0.730422 0.016128
vt 0.863181 0.722597
vt 0.912674 0.244974
vt 0.910409 0.013864
vt 0.912713 0.014380
vt 0.893196 0.724885
vt 0.893196 0.934916
vt 0.700368 0.013926
vt 0.890909 0.754904
vt 0.942728 0.298521
vt 0.903097 0.752613
vt 0.522644 0.610795
vt 0.905384 0.932625
vt 0.890909 0.442515
vt 0.702656 0.608571
vt 0.954920 0.296234
vt 0.520357 0.328510
vt 0.848702 0.754904
vt 0.700368 0.326286
vt 0.903100 0.440228
vt 0.850989 0.934916
vt 0.952632 0.013864
vt 0.522644 0.298435
vt 0.905388 0.722597
vt 0.702656 0.296210
vt 0.940441 0.016152
vt 0.918450 0.359209
vt 0.918808 0.346152
vt 0.921815 0.346367
vt 0.747842 0.950296
vt 0.917262 0.379775
vt 0.915375 0.359260
vt 0.911415 0.379858
vt 0.912599 0.359292
vt 0.916131 0.400185
vt 0.914189 0.379826
vt 0.110558 0.863688
vt 0.111242 0.866708
vt 0.112894 0.869328
vt 0.779635 0.949372
vt 0.774065 0.951871
vt 0.947217 0.379145
vt 0.941795 0.358734
vt 0.944230 0.358662
vt 0.941852 0.379285
vt 0.938862 0.358802
vt 0.942551 0.399659
vt 0.944784 0.379217
vt 0.112894 0.837522
vt 0.111242 0.840142
vt 0.110558 0.843163
vt 0.629297 0.916161
vt 0.629667 0.903111
vt 0.632673 0.903326
vt 0.793721 0.934443
vt 0.628103 0.936724
vt 0.626222 0.916212
vt 0.622258 0.936808
vt 0.623447 0.916245
vt 0.626979 0.957138
vt 0.625031 0.936775
vt 0.133049 0.820672
vt 0.130028 0.821356
vt 0.127408 0.823008
vt 0.792797 0.902650
vt 0.795296 0.908221
vt 0.658064 0.936096
vt 0.652645 0.915687
vt 0.655082 0.915616
vt 0.652696 0.936235
vt 0.649710 0.915755
vt 0.653401 0.956612
vt 0.655629 0.936167
vt 0.159214 0.823008
vt 0.156594 0.821356
vt 0.153574 0.820672
vt 0.546586 0.916168
vt 0.546944 0.903111
vt 0.549951 0.903326
vt 0.777868 0.888565
vt 0.545398 0.936733
vt 0.543511 0.916219
vt 0.539550 0.936817
vt 0.540735 0.916251
vt 0.544266 0.957144
vt 0.542325 0.936785
vt 0.176064 0.843163
vt 0.175380 0.840142
vt 0.173728 0.837522
vt 0.746075 0.889489
vt 0.751645 0.886989
vt 0.575353 0.936104
vt 0.569931 0.915693
vt 0.572366 0.915621
vt 0.569988 0.936244
vt 0.566998 0.915761
vt 0.570687 0.956618
vt 0.572920 0.936176
vt 0.173728 0.869328
vt 0.175380 0.866708
vt 0.176064 0.863688
vt 0.136774 0.926955
vt 0.137144 0.913906
vt 0.140151 0.914121
vt 0.731989 0.904417
vt 0.135581 0.947518
vt 0.133699 0.927007
vt 0.129735 0.947603
vt 0.130925 0.927040
vt 0.134456 0.967932
vt 0.132508 0.947570
vt 0.153574 0.886178
vt 0.156594 0.885494
vt 0.159214 0.883842
vt 0.732913 0.936211
vt 0.730414 0.930640
vt 0.165542 0.946891
vt 0.160122 0.926482
vt 0.162559 0.926411
vt 0.160174 0.947029
vt 0.157188 0.926549
vt 0.160879 0.967407
vt 0.163106 0.946962
vt 0.127408 0.883842
vt 0.130028 0.885494
vt 0.133049 0.886178
vt 0.321824 0.911039
vt 0.344377 0.896541
vt 0.306106 0.866380
vt 0.794434 0.642574
vt 0.818098 0.696046
vt 0.805951 0.722689
vt 0.774703 0.735059
vt 0.730651 0.474227
vt 0.775679 0.488857
vt 0.408098 0.820742
vt 0.772592 0.440228
vt 0.426174 0.820662
vt 0.775679 0.441512
vt 0.801765 0.447701
vt 0.322964 0.820662
vt 0.732564 0.831262
vt 0.820974 0.470894
vt 0.794433 0.766777
vt 0.774703 0.859262
vt 0.290387 0.821721
vt 0.267835 0.836219
vt 0.818098 0.820249
vt 0.805951 0.846891
vt 0.820706 0.503487
vt 0.049162 0.820752
vt 0.778766 0.537486
vt 0.067238 0.820672
vt 0.775679 0.536202
vt 0.749593 0.530013
vt 0.289247 0.912098
vt 0.732564 0.707060
vt 0.730383 0.506820
vt 0.732694 0.015568
vt 0.522667 0.640289
vt 0.933111 0.932636
vt 0.762855 0.919430
vt 0.896667 0.359403
vt 0.892221 0.379991
vt 0.913354 0.400217
vt 0.897422 0.400328
vt 0.939617 0.399727
vt 0.919205 0.400134
vt 0.923035 0.412500
vt 0.933847 0.412285
vt 0.143311 0.853425
vt 0.607529 0.916364
vt 0.603081 0.936951
vt 0.624204 0.957170
vt 0.608285 0.957289
vt 0.650467 0.956680
vt 0.630053 0.957086
vt 0.633896 0.969459
vt 0.644709 0.969244
vt 0.524803 0.916362
vt 0.520357 0.936950
vt 0.541490 0.957176
vt 0.525558 0.957287
vt 0.567753 0.956686
vt 0.547341 0.957093
vt 0.551171 0.969459
vt 0.561983 0.969244
vt 0.115006 0.927158
vt 0.110558 0.947746
vt 0.131681 0.967965
vt 0.115763 0.968084
vt 0.157945 0.967475
vt 0.137531 0.967881
vt 0.141373 0.980254
vt 0.152186 0.980039
vt 0.055432 0.789918
vt 0.016762 0.014791
vt 0.110400 0.785770
vt 0.022188 0.014382
vt 0.308671 0.789890
vt 0.270035 0.014791
vt 0.363645 0.785743
vt 0.275461 0.014382
vt 0.182070 0.789918
vt 0.143399 0.014791
vt 0.237038 0.785770
vt 0.148825 0.014382
vt 0.435280 0.789890
vt 0.396644 0.014791
vt 0.490254 0.785743
vt 0.402070 0.014382
vt 0.730422 0.249904
vt 0.985357 0.934982
vt 0.944980 0.934982
vt 0.520396 0.874625
vt 0.520357 0.016150
vt 0.863177 0.932625
vt 0.860890 0.752613
vt 0.267139 0.014564
vt 0.140501 0.014564
vt 0.393748 0.014564
vt 0.013864 0.014564
vt 0.377156 0.896767
vt 0.018220 0.896777
vt 0.974026 0.934913
vt 0.750509 0.951871
vt 0.777064 0.951100
vt 0.944985 0.399587
vt 0.795296 0.931776
vt 0.794524 0.905221
vt 0.655838 0.956541
vt 0.775201 0.886989
vt 0.748646 0.887761
vt 0.573121 0.956546
vt 0.730414 0.907084
vt 0.731186 0.933640
vt 0.163316 0.967336
vt 0.325163 0.911226
vt 0.345072 0.893271
vt 0.775701 0.638585
vt 0.817907 0.666645
vt 0.755970 0.731070
vt 0.730383 0.470894
vt 0.389742 0.820662
vt 0.749593 0.447701
vt 0.778766 0.440228
vt 0.319639 0.821011
vt 0.820706 0.474227
vt 0.775701 0.762787
vt 0.755970 0.855272
vt 0.287048 0.821534
vt 0.267139 0.839490
vt 0.817907 0.790847
vt 0.820974 0.506820
vt 0.030806 0.820672
vt 0.801765 0.530013
vt 0.772592 0.537486
vt 0.292573 0.911750
vt 0.730651 0.503487
vt 0.932626 0.346152
vt 0.643486 0.903111
vt 0.560762 0.903111
vt 0.150963 0.913906
s 1
f 5/1/1 9/2/2 11/3/3
f 10/4/4 8/5/5 6/6/6
f 11/7/7 10/4/4 7/8/8
f 12/9/9 16/10/10 18/11/11
f 17/12/12 15/13/13 13/14/14
f 18/15/15 17/12/12 14/16/16
f 19/17/17 23/18/18 25/19/19
f 24/20/20 22/21/21 20/22/22
f 25/23/23 24/20/20 21/24/24
f 26/25/25 30/26/26 32/27/27
f 31/28/28 29/29/29 27/30/30
f 32/31/31 31/28/28 28/32/32
f 33/33/33 37/34/34 39/35/35
f 38/36/36 36/37/37 34/38/38
f 39/39/39 38/36/36 35/40/40
f 40/41/41 44/42/42 46/43/43
f 45/44/44 43/45/45 41/46/46
f 46/47/47 45/44/44 42/48/48
f 47/49/49 51/50/50 53/51/51
f 52/52/52 50/53/53 48/54/54
f 53/55/55 52/52/52 49/56/56
f 54/57/57 58/58/58 60/59/59
f 59/60/60 57/61/61 55/62/62
f 60/63/63 59/60/60 56/46/64
f 61/64/65 65/65/66 67/66/67
f 66/67/68 64/68/69 62/69/70
f 67/70/71 66/67/68 63/71/72
f 68/72/73 72/73/74 74/74/75
f 73/75/76 71/76/77 69/77/78
f 74/78/79 73/75/76 70/79/80
f 75/80/81 79/81/82 81/82/83
f 80/83/84 78/84/85 76/85/86
f 81/86/87 80/83/84 77/87/88
f 82/88/89 86/89/90 88/90/91
f 87/91/92 85/92/93 83/93/94
f 88/94/95 87/91/92 84/77/96
f 89/95/97 93/96/98 95/97/99
f 94/98/100 92/99/101 90/100/102
f 95/101/103 94/98/100 91/102/104
f 96/103/105 100/104/106 102/105/107
f 101/106/108 99/107/109 97/108/110
f 102/109/111 101/106/108 98/110/112
f 103/111/113 107/112/114 109/113/115
f 108/114/116 106/115/117 104/116/118
f 109/117/119 108/114/116 105/118/120
f 110/119/121 114/120/122 116/121/123
f 115/122/124 113/123/125 111/124/126
f 116/125/127 115/122/124 112/108/128
f 120/126/129 123/127/130 122/128/131
f 123/127/130 121/129/132 122/128/131
f 127/130/133 130/131/134 129/132/135
f 130/131/134 128/133/136 129/132/135
f 137/134/137 140/135/138 139/136/139
f 140/135/138 138/137/140 139/136/139
f 144/138/141 147/139/142 146/140/143
f 147/141/142 145/142/144 146/143/143
f 154/144/145 157/145/146 156/146/147
f 157/145/146 155/147/148 156/146/147
f 161/148/149 164/149/150 163/150/151
f 164/149/150 162/151/152 163/150/151
f 171/152/153 174/153/154 173/154/155
f 174/155/154 172/156/156 173/157/155
f 178/158/157 181/159/158 180/160/159
f 181/161/158 179/162/160 180/163/159
f 188/164/161 191/165/162 190/166/163
f 191/165/162 189/167/164 190/166/163
f 195/168/165 198/169/166 197/170/167
f 198/169/166 196/171/168 197/170/167
f 205/172/169 208/173/170 207/174/171
f 208/173/170 206/175/172 207/174/171
f 212/176/173 215/177/174 214/178/175
f 215/177/174 213/179/176 214/178/175
f 222/180/177 225/181/178 224/182/179
f 225/181/178 223/183/180 224/182/179
f 229/184/181 232/185/182 231/186/183
f 232/187/182 230/188/184 231/189/183
f 239/190/185 242/191/186 241/192/187
f 242/191/186 240/193/188 241/192/187
f 246/194/189 249/195/190 248/196/191
f 249/195/190 247/197/192 248/196/191
f 256/198/193 259/199/194 258/200/195
f 259/201/194 257/202/196 258/203/195
f 263/204/197 266/205/198 265/206/199
f 266/207/198 264/208/200 265/209/199
f 273/210/201 276/211/202 275/212/203
f 276/211/202 274/213/204 275/212/203
f 280/214/205 283/215/206 282/216/207
f 283/215/206 281/217/208 282/216/207
f 287/218/209 291/219/210 293/220/211
f 288/221/212 291/222/213 290/223/214
f 289/224/215 291/222/216 292/225/217
f 294/226/218 298/227/219 300/228/220
f 295/229/221 298/230/222 297/231/223
f 296/232/224 298/227/225 299/233/226
f 301/234/227 305/235/228 307/236/229
f 302/237/230 305/238/231 304/239/232
f 303/240/233 305/238/234 306/241/235
f 308/242/236 312/243/237 314/244/238
f 309/245/239 312/246/240 311/247/241
f 310/248/242 312/246/243 313/249/244
f 315/250/245 319/251/246 321/252/247
f 316/253/248 319/254/249 318/255/250
f 317/256/251 319/254/252 320/257/253
f 322/258/254 326/259/255 328/260/256
f 323/261/257 326/262/258 325/263/259
f 324/264/260 326/262/261 327/265/262
f 329/266/263 333/267/264 335/268/265
f 330/269/266 333/270/267 332/271/268
f 331/272/269 333/270/270 334/273/271
f 336/274/272 340/275/273 342/276/274
f 337/277/275 340/278/276 339/279/277
f 338/280/278 340/278/279 341/281/280
f 343/282/281 347/283/282 349/284/283
f 344/285/284 347/286/285 346/287/286
f 345/288/287 347/289/288 348/290/289
f 350/291/290 354/292/291 356/293/292
f 351/294/293 354/295/294 353/296/295
f 352/297/296 354/298/297 355/299/298
f 357/300/299 361/301/300 363/302/301
f 358/303/302 361/304/303 360/305/304
f 359/306/305 361/307/306 362/308/307
f 364/309/308 368/310/309 370/311/310
f 365/312/311 368/313/312 367/314/313
f 366/315/314 368/316/315 369/317/316
f 371/318/317 375/319/318 377/320/319
f 372/321/320 375/322/321 374/323/322
f 373/324/323 375/325/324 376/326/325
f 378/327/326 382/328/327 384/329/328
f 379/330/329 382/331/330 381/332/331
f 380/333/332 382/334/333 383/335/334
f 385/336/335 389/337/336 391/338/337
f 386/339/338 389/340/339 388/341/340
f 387/342/341 389/343/342 390/344/343
f 392/345/344 396/346/345 398/347/346
f 393/348/347 396/349/348 395/350/349
f 394/351/350 396/352/351 397/353/352
f 399/354/353 403/355/354 405/356/355
f 400/357/356 403/355/354 402/358/357
f 401/359/358 403/355/354 404/360/359
f 415/361/360 419/362/361 421/363/362
f 416/364/363 419/362/361 418/365/364
f 417/366/365 419/362/361 420/367/366
f 422/368/367 426/369/368 428/370/369
f 423/371/370 426/369/368 425/372/371
f 424/373/372 426/369/368 427/374/373
f 438/375/374 442/376/375 444/377/376
f 439/378/377 442/376/375 441/379/378
f 440/380/379 442/376/375 443/381/380
f 445/382/381 449/383/382 451/384/383
f 446/385/384 449/383/382 448/386/385
f 447/387/386 449/383/382 450/388/387
f 461/389/388 465/390/389 467/391/390
f 462/392/391 465/390/389 464/393/392
f 463/394/393 465/390/389 466/395/394
f 468/396/395 472/397/396 474/398/397
f 469/399/398 472/397/396 471/400/399
f 470/401/400 472/397/396 473/402/401
f 484/403/402 488/404/403 490/405/404
f 485/406/405 488/404/403 487/407/406
f 486/408/407 488/404/403 489/409/408
f 491/410/409 495/411/410 497/412/411
f 492/413/412 495/411/410 494/414/413
f 493/415/414 495/411/410 496/416/415
f 507/417/416 511/418/417 513/419/418
f 508/420/419 511/418/417 510/421/420
f 509/422/421 511/418/417 512/423/422
f 514/424/423 518/425/424 520/426/425
f 515/427/426 518/425/424 517/428/427
f 516/429/428 518/425/424 519/430/429
f 530/431/430 534/432/431 536/433/432
f 531/434/433 534/432/431 533/435/434
f 532/436/435 534/432/431 535/437/436
f 537/438/437 541/439/438 543/440/439
f 538/441/440 541/439/438 540/442/441
f 539/443/442 541/439/438 542/444/443
f 553/445/444 557/446/445 559/447/446
f 554/448/447 557/446/445 556/449/448
f 555/450/449 557/446/445 558/451/450
f 560/452/451 564/453/452 566/454/453
f 561/455/454 564/453/452 563/456/455
f 562/457/456 564/453/452 565/458/457
f 576/459/458 580/460/459 582/461/460
f 577/462/461 580/460/459 579/463/462
f 578/464/463 580/460/459 581/465/464
f 20/22/22 11/7/7 7/8/8
f 22/466/465 5/1/1 11/3/3
f 13/14/14 32/31/31 28/32/32
f 15/467/466 26/25/25 32/27/27
f 6/6/6 17/12/12 10/4/4
f 10/4/4 13/14/14 7/8/8
f 27/30/30 24/20/20 31/28/28
f 24/20/20 28/32/32 31/28/28
f 34/38/38 25/468/23 21/469/24
f 36/470/467 19/17/17 25/19/19
f 27/48/30 46/47/47 42/48/48
f 29/471/468 40/41/41 46/43/43
f 41/46/46 38/36/36 45/44/44
f 45/44/44 34/38/38 42/48/48
f 48/54/54 39/39/39 35/40/40
f 50/472/469 33/33/33 39/35/35
f 41/46/46 60/63/63 56/46/64
f 43/473/470 54/57/57 60/59/59
f 55/62/62 52/52/52 59/60/60
f 52/52/52 56/46/64 59/60/60
f 62/69/70 53/474/55 49/475/56
f 64/476/471 47/49/49 53/51/51
f 55/79/62 74/78/79 70/79/80
f 57/477/472 68/72/73 74/74/75
f 69/77/78 66/67/68 73/75/76
f 73/75/76 62/69/70 70/79/80
f 76/85/86 67/70/71 63/71/72
f 78/478/473 61/64/65 67/66/67
f 69/77/78 88/94/95 84/77/96
f 71/479/474 82/88/89 88/90/91
f 83/93/94 80/83/84 87/91/92
f 80/83/84 84/77/96 87/91/92
f 90/100/102 81/480/87 77/481/88
f 92/482/475 75/80/81 81/82/83
f 83/110/94 102/109/111 98/110/112
f 85/483/476 96/103/105 102/105/107
f 97/108/110 94/98/100 101/106/108
f 101/106/108 90/100/102 98/110/112
f 104/116/118 95/101/103 91/102/104
f 106/484/477 89/95/97 95/97/99
f 97/108/110 116/125/127 112/108/128
f 99/485/478 110/119/121 116/121/123
f 111/124/126 108/114/116 115/122/124
f 108/114/116 112/108/128 115/122/124
f 6/6/6 109/486/119 105/487/120
f 8/488/479 103/111/113 109/113/115
f 111/489/126 18/15/15 14/16/16
f 113/490/480 12/9/9 18/11/11
f 124/491/481 123/127/130 120/126/129
f 123/127/130 125/492/482 121/129/132
f 124/491/481 130/131/134 126/493/483
f 130/131/134 125/492/482 126/493/483
f 141/494/484 140/135/138 137/134/137
f 140/135/138 142/495/485 138/137/140
f 141/494/484 147/141/142 143/496/486
f 147/141/142 142/495/485 143/496/486
f 131/497/487 150/498/488 149/499/489
f 133/500/490 148/501/491 150/498/488
f 135/502/492 119/503/493 136/504/494
f 136/504/494 118/505/495 134/506/496
f 158/507/497 157/145/146 154/144/145
f 157/145/146 159/508/498 155/147/148
f 158/507/497 164/149/150 160/509/499
f 164/149/150 159/508/498 160/509/499
f 135/502/492 153/510/500 152/511/501
f 136/504/494 151/512/502 153/510/500
f 165/513/503 150/498/488 148/501/491
f 150/498/488 166/514/504 149/499/489
f 175/515/505 174/516/154 171/517/153
f 174/155/154 176/518/506 172/156/156
f 175/515/505 181/519/158 177/520/507
f 181/159/158 176/518/506 177/521/507
f 152/511/501 170/522/508 169/523/509
f 170/522/508 151/512/502 168/524/510
f 182/525/511 167/526/512 165/513/503
f 184/527/513 166/514/504 167/526/512
f 192/528/514 191/165/162 188/164/161
f 191/165/162 193/529/515 189/167/164
f 192/528/514 198/169/166 194/530/516
f 198/169/166 193/529/515 194/530/516
f 199/531/517 184/527/513 182/525/511
f 184/527/513 200/532/518 183/533/519
f 185/534/520 170/522/508 168/524/510
f 187/535/521 169/523/509 170/522/508
f 209/536/522 208/173/170 205/172/169
f 208/173/170 210/537/523 206/175/172
f 209/536/522 215/177/174 211/538/524
f 215/177/174 210/537/523 211/538/524
f 216/539/525 201/540/526 199/531/517
f 218/541/527 200/532/518 201/540/526
f 202/542/528 187/535/521 185/534/520
f 204/543/529 186/544/530 187/535/521
f 226/545/531 225/181/178 222/180/177
f 225/181/178 227/546/532 223/183/180
f 226/545/531 232/187/182 228/547/533
f 232/187/182 227/546/532 228/547/533
f 233/548/534 218/541/527 216/539/525
f 235/549/535 217/550/536 218/541/527
f 219/551/537 204/543/529 202/542/528
f 221/552/538 203/553/539 204/543/529
f 243/554/540 242/191/186 239/190/185
f 242/191/186 244/555/541 240/193/188
f 243/554/540 249/195/190 245/556/542
f 249/195/190 244/555/541 245/556/542
f 236/557/543 221/552/538 219/551/537
f 238/558/544 220/559/545 221/552/538
f 234/560/546 252/561/547 251/562/548
f 235/549/535 250/563/549 252/561/547
f 260/564/550 259/565/194 256/566/193
f 259/201/194 261/567/551 257/202/196
f 260/564/550 266/568/198 262/569/552
f 266/205/198 261/567/551 262/570/552
f 253/571/553 238/558/544 236/557/543
f 255/572/554 237/573/555 238/558/544
f 251/562/548 269/574/556 268/575/557
f 269/574/556 250/563/549 267/576/558
f 277/577/559 276/211/202 273/210/201
f 276/211/202 278/578/560 274/213/204
f 277/577/559 283/215/206 279/579/561
f 283/215/206 278/578/560 279/579/561
f 285/580/562 269/574/556 286/581/563
f 269/574/556 284/582/564 286/581/563
f 254/583/565 272/584/566 271/585/567
f 272/584/566 253/571/553 270/586/568
f 285/580/562 133/500/490 131/497/487
f 133/500/490 284/582/564 132/587/569
f 117/588/570 272/584/566 119/503/493
f 119/503/493 270/586/568 118/505/495
f 301/234/227 293/220/211 304/589/571
f 304/239/232 289/590/215 302/237/230
f 294/226/218 292/225/572 288/221/212
f 292/225/217 296/232/224 289/224/215
f 308/242/236 299/591/573 295/229/221
f 314/592/574 296/593/224 299/594/226
f 303/240/233 313/249/575 309/245/239
f 313/249/244 302/237/230 310/248/242
f 301/234/227 332/595/576 329/266/263
f 307/596/577 330/269/266 332/271/268
f 336/274/272 311/597/578 308/242/236
f 342/598/579 309/599/239 311/600/241
f 331/272/269 341/281/580 337/277/275
f 334/273/581 338/280/278 341/281/280
f 315/250/245 335/268/265 318/601/582
f 335/602/583 316/253/248 318/255/250
f 322/258/254 339/603/584 336/274/272
f 328/604/585 337/605/275 339/606/277
f 317/256/251 327/265/586 323/261/257
f 320/257/587 324/264/260 327/265/262
f 315/250/245 290/607/588 287/218/209
f 321/608/589 288/221/212 290/223/214
f 295/229/221 325/609/590 322/258/254
f 297/610/591 323/611/257 325/612/259
f 343/282/281 360/613/592 357/300/299
f 349/614/593 358/303/302 360/305/304
f 350/291/290 348/615/594 344/285/284
f 356/616/595 345/288/287 348/290/289
f 351/294/293 370/311/310 355/617/596
f 370/618/597 352/297/296 355/299/298
f 359/306/305 369/619/598 365/312/311
f 362/620/599 366/315/314 369/317/316
f 357/300/299 388/621/600 385/336/335
f 363/622/601 386/339/338 388/341/340
f 392/345/344 367/623/602 364/309/308
f 398/624/603 365/312/311 367/314/313
f 387/342/341 397/625/604 393/348/347
f 390/626/605 394/351/350 397/353/352
f 385/336/335 374/627/606 371/318/317
f 391/628/607 372/321/320 374/323/322
f 392/345/344 384/329/328 395/629/608
f 395/350/349 380/333/332 393/348/347
f 373/324/323 383/630/609 379/330/329
f 383/335/334 372/321/320 380/333/332
f 371/318/317 346/631/610 343/282/281
f 377/632/611 344/285/284 346/287/286
f 351/294/293 381/633/612 378/327/326
f 381/332/331 350/291/290 379/330/329
f 406/634/613 405/635/355 401/636/358
f 405/356/355 407/637/614 399/354/353
f 409/638/615 408/639/616 406/634/613
f 408/639/616 410/640/617 407/641/614
f 409/638/615 414/642/618 411/643/561
f 414/642/618 410/640/617 411/643/561
f 412/644/619 418/365/364 414/645/618
f 418/365/364 413/646/620 414/645/618
f 429/647/621 425/372/371 422/368/367
f 425/372/371 430/648/622 423/371/370
f 432/649/623 431/650/624 429/651/621
f 431/650/624 433/652/625 430/653/622
f 432/649/623 437/654/626 434/655/627
f 437/654/626 433/652/625 434/655/627
f 435/656/628 444/377/376 437/657/626
f 444/377/376 436/658/629 437/657/626
f 417/366/365 443/381/380 439/378/377
f 420/367/366 440/380/379 443/381/380
f 401/359/358 427/374/373 423/371/370
f 404/360/359 424/373/372 427/374/373
f 452/659/630 448/660/385 445/661/381
f 448/386/385 453/662/631 446/385/384
f 455/663/632 454/664/633 452/659/630
f 454/664/633 456/665/634 453/666/631
f 455/663/632 460/667/635 457/668/636
f 460/667/635 456/665/634 457/668/636
f 458/669/637 467/391/390 460/670/635
f 467/391/390 459/671/638 460/670/635
f 439/378/377 466/395/394 462/392/391
f 441/379/378 463/394/393 466/395/394
f 422/368/367 450/388/387 446/385/384
f 428/370/369 447/387/386 450/388/387
f 475/672/639 471/400/399 468/396/395
f 471/400/399 476/673/640 469/399/398
f 478/674/641 477/675/642 475/676/639
f 477/675/642 479/677/643 476/678/640
f 478/674/641 483/679/644 480/680/645
f 483/679/644 479/677/643 480/680/645
f 481/681/646 490/405/404 483/682/644
f 490/405/404 482/683/647 483/682/644
f 445/382/381 473/402/401 469/399/398
f 451/384/383 470/401/400 473/402/401
f 486/408/407 464/393/392 461/389/388
f 489/409/408 462/392/391 464/393/392
f 498/684/648 494/685/413 491/686/409
f 494/414/413 499/687/649 492/413/412
f 501/688/650 500/689/651 498/684/648
f 500/689/651 502/690/652 499/691/649
f 501/688/650 506/692/653 503/693/516
f 506/692/653 502/690/652 503/693/516
f 504/694/654 513/419/418 506/695/653
f 513/419/418 505/696/655 506/695/653
f 468/396/395 496/416/415 492/413/412
f 474/398/397 493/415/414 496/416/415
f 509/422/421 487/407/406 484/403/402
f 512/423/422 485/406/405 487/407/406
f 521/697/656 517/428/427 514/424/423
f 517/428/427 522/698/657 515/427/426
f 524/699/658 523/700/659 521/701/656
f 523/700/659 525/702/660 522/703/657
f 524/699/658 529/704/661 526/705/662
f 529/704/661 525/702/660 526/705/662
f 527/706/663 536/433/432 529/707/661
f 536/433/432 528/708/664 529/707/661
f 532/436/435 510/421/420 507/417/416
f 535/437/436 508/420/419 510/421/420
f 516/429/428 497/412/411 493/415/414
f 519/430/429 491/410/409 497/412/411
f 544/709/665 540/710/441 537/711/437
f 540/442/441 545/712/666 538/441/440
f 547/713/667 546/714/668 544/709/665
f 546/714/668 548/715/669 545/716/666
f 547/713/667 552/717/670 549/718/671
f 552/717/670 548/715/669 549/718/671
f 550/719/672 559/447/446 552/720/670
f 559/447/446 551/721/673 552/720/670
f 555/450/449 533/435/434 530/431/430
f 558/451/450 531/434/433 533/435/434
f 539/443/442 520/426/425 516/429/428
f 542/444/443 514/424/423 520/426/425
f 567/722/674 563/456/455 560/452/451
f 563/456/455 568/723/675 561/455/454
f 570/724/676 569/725/677 567/726/674
f 569/725/677 571/727/678 568/728/675
f 570/724/676 575/729/679 572/730/680
f 575/729/679 571/727/678 572/730/680
f 573/731/681 582/461/460 575/732/679
f 582/461/460 574/733/682 575/732/679
f 578/464/463 556/449/448 553/445/444
f 581/465/464 554/448/447 556/449/448
f 562/457/456 543/440/439 539/443/442
f 565/458/457 537/438/437 543/440/439
f 400/357/356 566/454/453 562/457/456
f 402/358/357 560/452/451 566/454/453
f 577/462/461 421/363/362 417/366/365
f 579/463/462 415/361/360 421/363/362
f 47/49/49 75/80/81 103/111/113
f 13/14/14 20/22/22 7/8/8
f 105/487/120 14/16/16 6/6/6
f 96/103/105 68/72/73 40/41/41
f 21/469/24 42/48/48 34/38/38
f 41/46/46 48/54/54 35/40/40
f 49/475/56 70/79/80 62/69/70
f 69/77/78 76/85/86 63/71/72
f 77/481/88 98/110/112 90/100/102
f 97/108/110 104/116/118 91/102/104
f 122/734/131 135/502/492 138/735/140
f 118/505/495 1/736/683 134/506/496
f 270/586/568 1/736/683 118/505/495
f 275/212/203 117/737/570 121/129/132
f 273/210/201 125/492/482 277/577/559
f 120/126/129 142/738/485 124/491/481
f 281/217/208 125/492/482 127/130/133
f 124/491/481 144/739/141 128/133/136
f 282/216/207 127/130/133 132/740/569
f 129/741/135 144/138/141 148/501/491
f 2/742/684 131/497/487 149/499/489
f 2/742/684 285/580/562 131/497/487
f 139/136/139 152/743/501 155/147/148
f 134/506/496 1/736/683 151/512/502
f 137/134/137 159/508/498 141/494/484
f 141/494/484 161/148/149 145/142/144
f 146/140/143 161/744/149 165/513/503
f 2/742/684 149/499/489 166/514/504
f 156/146/147 169/745/509 172/156/156
f 151/512/502 1/736/683 168/524/510
f 158/507/497 172/156/156 176/518/506
f 158/507/497 178/158/157 162/151/152
f 163/746/151 178/747/157 182/525/511
f 2/742/684 166/514/504 183/533/519
f 173/154/155 186/544/530 189/748/164
f 168/524/510 1/736/683 185/534/520
f 175/515/505 189/167/164 193/529/515
f 175/515/505 195/168/165 179/749/160
f 180/163/159 195/750/165 199/531/517
f 2/742/684 183/533/519 200/532/518
f 190/166/163 203/751/539 206/175/172
f 185/534/520 1/736/683 202/542/528
f 188/164/161 210/537/523 192/528/514
f 192/528/514 212/176/173 196/171/168
f 197/170/167 212/176/173 216/752/525
f 2/742/684 200/532/518 217/550/536
f 207/753/171 220/559/545 223/754/180
f 202/542/528 1/736/683 219/551/537
f 205/172/169 227/755/532 209/536/522
f 209/536/522 229/756/181 213/179/176
f 214/757/175 229/184/181 233/548/534
f 2/742/684 217/550/536 234/560/546
f 224/182/179 237/758/555 240/193/188
f 219/551/537 1/736/683 236/557/543
f 222/180/177 244/555/541 226/545/531
f 226/545/531 246/194/189 230/188/184
f 231/186/183 246/759/189 250/563/549
f 2/742/684 234/560/546 251/562/548
f 241/192/187 254/760/565 257/202/196
f 236/557/543 1/736/683 253/571/553
f 239/190/185 261/567/551 243/554/540
f 243/554/540 263/204/197 247/197/192
f 248/761/191 263/762/197 267/576/558
f 2/742/684 251/562/548 268/575/557
f 258/200/195 271/585/567 274/763/204
f 253/571/553 1/736/683 270/586/568
f 256/566/193 278/578/560 260/564/550
f 264/764/200 278/578/560 280/214/205
f 265/209/199 280/765/205 284/582/564
f 2/742/684 268/575/557 285/580/562
f 329/266/263 287/218/209 301/234/227
f 296/593/224 302/237/230 289/590/215
f 323/611/257 288/221/212 317/766/251
f 308/242/236 322/258/254 336/274/272
f 309/599/239 330/269/266 303/767/233
f 337/605/275 316/253/248 331/768/269
f 385/336/335 343/282/281 357/300/299
f 352/297/296 358/303/302 345/288/287
f 379/330/329 344/285/284 373/324/323
f 364/309/308 378/327/326 392/345/344
f 365/312/311 386/339/338 359/306/305
f 393/348/347 372/321/320 387/342/341
f 562/457/456 3/769/683 400/357/356
f 400/357/356 3/769/683 424/373/372
f 567/722/674 399/354/353 407/637/614
f 401/636/358 430/653/622 406/634/613
f 567/770/674 410/640/617 570/771/676
f 409/638/615 430/653/622 433/652/625
f 570/771/676 413/772/620 573/773/681
f 409/638/615 436/774/629 412/775/619
f 573/731/681 415/361/360 576/459/458
f 416/776/363 436/774/629 440/777/379
f 4/778/684 577/462/461 417/366/365
f 4/778/684 417/366/365 439/378/377
f 429/647/621 446/385/384 453/662/631
f 424/373/372 3/769/683 447/387/386
f 429/779/621 456/665/634 432/780/623
f 432/780/623 459/781/638 435/782/628
f 435/656/628 463/394/393 438/375/374
f 4/778/684 439/378/377 462/392/391
f 445/661/381 476/678/640 452/659/630
f 447/387/386 3/769/683 470/401/400
f 455/663/632 476/678/640 479/677/643
f 455/663/632 482/783/647 458/784/637
f 461/785/388 482/783/647 486/786/407
f 4/778/684 462/392/391 485/406/405
f 475/672/639 492/413/412 499/687/649
f 470/401/400 3/769/683 493/415/414
f 475/787/639 502/690/652 478/788/641
f 478/788/641 505/789/655 481/790/646
f 481/681/646 509/422/421 484/403/402
f 4/778/684 485/406/405 508/420/419
f 491/686/409 522/703/657 498/684/648
f 493/415/414 3/769/683 516/429/428
f 501/688/650 522/703/657 525/702/660
f 501/688/650 528/791/664 504/792/654
f 507/793/416 528/791/664 532/794/435
f 4/778/684 508/420/419 531/434/433
f 521/697/656 538/441/440 545/712/666
f 516/429/428 3/769/683 539/443/442
f 521/795/656 548/715/669 524/796/658
f 524/796/658 551/797/673 527/798/663
f 527/706/663 555/450/449 530/431/430
f 4/778/684 531/434/433 554/448/447
f 537/711/437 568/728/675 544/709/665
f 539/443/442 3/769/683 562/457/456
f 547/713/667 568/728/675 571/727/678
f 547/713/667 574/799/682 550/800/672
f 553/801/444 574/799/682 578/802/463
f 4/778/684 554/448/447 577/462/461
f 5/1/1 8/488/479 9/2/2
f 10/4/4 9/803/685 8/5/5
f 11/7/7 9/803/685 10/4/4
f 12/9/9 15/467/466 16/10/10
f 17/12/12 16/804/686 15/13/13
f 18/15/15 16/804/686 17/12/12
f 19/17/17 22/466/465 23/18/18
f 24/20/20 23/805/687 22/21/21
f 25/23/23 23/805/687 24/20/20
f 26/25/25 29/471/468 30/26/26
f 31/28/28 30/806/688 29/29/29
f 32/31/31 30/806/688 31/28/28
f 33/33/33 36/470/467 37/34/34
f 38/36/36 37/807/689 36/37/37
f 39/39/39 37/807/689 38/36/36
f 40/41/41 43/473/470 44/42/42
f 45/44/44 44/808/690 43/45/45
f 46/47/47 44/808/690 45/44/44
f 47/49/49 50/472/469 51/50/50
f 52/52/52 51/809/691 50/53/53
f 53/55/55 51/809/691 52/52/52
f 54/57/57 57/477/472 58/58/58
f 59/60/60 58/810/692 57/61/61
f 60/63/63 58/810/692 59/60/60
f 61/64/65 64/476/471 65/65/66
f 66/67/68 65/811/693 64/68/69
f 67/70/71 65/811/693 66/67/68
f 68/72/73 71/479/474 72/73/74
f 73/75/76 72/812/694 71/76/77
f 74/78/79 72/812/694 73/75/76
f 75/80/81 78/478/473 79/81/82
f 80/83/84 79/813/695 78/84/85
f 81/86/87 79/813/695 80/83/84
f 82/88/89 85/483/476 86/89/90
f 87/91/92 86/814/696 85/92/93
f 88/94/95 86/814/696 87/91/92
f 89/95/97 92/482/475 93/96/98
f 94/98/100 93/815/697 92/99/101
f 95/101/103 93/815/697 94/98/100
f 96/103/105 99/485/478 100/104/106
f 101/106/108 100/816/698 99/107/109
f 102/109/111 100/816/698 101/106/108
f 103/111/113 106/484/477 107/112/114
f 108/114/116 107/817/699 106/115/117
f 109/117/119 107/817/699 108/114/116
f 110/119/121 113/490/480 114/120/122
f 115/122/124 114/818/700 113/123/125
f 116/125/127 114/818/700 115/122/124
f 287/218/209 290/607/588 291/219/210
f 288/221/212 292/225/572 291/222/213
f 289/224/215 293/819/701 291/222/216
f 294/226/218 297/610/591 298/227/219
f 295/229/221 299/591/573 298/230/222
f 296/232/224 300/228/702 298/227/225
f 301/234/227 304/589/571 305/235/228
f 302/237/230 306/241/703 305/238/231
f 303/240/233 307/820/577 305/238/234
f 308/242/236 311/597/578 312/243/237
f 309/245/239 313/249/575 312/246/240
f 310/248/242 314/592/574 312/246/243
f 315/250/245 318/601/582 319/251/246
f 316/253/248 320/257/587 319/254/249
f 317/256/251 321/821/589 319/254/252
f 322/258/254 325/609/590 326/259/255
f 323/261/257 327/265/586 326/262/258
f 324/264/260 328/604/585 326/262/261
f 329/266/263 332/595/576 333/267/264
f 330/269/266 334/273/581 333/270/267
f 331/272/269 335/822/583 333/270/270
f 336/274/272 339/603/584 340/275/273
f 337/277/275 341/281/580 340/278/276
f 338/280/278 342/598/579 340/278/279
f 343/282/281 346/631/610 347/283/282
f 344/285/284 348/615/594 347/286/285
f 345/288/287 349/614/593 347/289/288
f 350/291/290 353/823/704 354/292/291
f 351/294/293 355/617/596 354/295/294
f 352/297/296 356/616/595 354/298/297
f 357/300/299 360/613/592 361/301/300
f 358/303/302 362/620/599 361/304/303
f 359/306/305 363/622/601 361/307/306
f 364/309/308 367/623/602 368/310/309
f 365/312/311 369/619/598 368/313/312
f 366/315/314 370/618/597 368/316/315
f 371/318/317 374/627/606 375/319/318
f 372/321/320 376/824/705 375/322/321
f 373/324/323 377/632/611 375/325/324
f 378/327/326 381/633/612 382/328/327
f 379/330/329 383/630/609 382/331/330
f 380/333/332 384/825/706 382/334/333
f 385/336/335 388/621/600 389/337/336
f 386/339/338 390/626/605 389/340/339
f 387/342/341 391/628/607 389/343/342
f 392/345/344 395/629/608 396/346/345
f 393/348/347 397/625/604 396/349/348
f 394/351/350 398/624/603 396/352/351
f 399/354/353 402/358/357 403/355/354
f 400/357/356 404/360/359 403/355/354
f 401/359/358 405/356/355 403/355/354
f 415/361/360 418/365/364 419/362/361
f 416/364/363 420/367/366 419/362/361
f 417/366/365 421/363/362 419/362/361
f 422/368/367 425/372/371 426/369/368
f 423/371/370 427/374/373 426/369/368
f 424/373/372 428/370/369 426/369/368
f 438/375/374 441/379/378 442/376/375
f 439/378/377 443/381/380 442/376/375
f 440/380/379 444/377/376 442/376/375
f 445/382/381 448/386/385 449/383/382
f 446/385/384 450/388/387 449/383/382
f 447/387/386 451/384/383 449/383/382
f 461/389/388 464/393/392 465/390/389
f 462/392/391 466/395/394 465/390/389
f 463/394/393 467/391/390 465/390/389
f 468/396/395 471/400/399 472/397/396
f 469/399/398 473/402/401 472/397/396
f 470/401/400 474/398/397 472/397/396
f 484/403/402 487/407/406 488/404/403
f 485/406/405 489/409/408 488/404/403
f 486/408/407 490/405/404 488/404/403
f 491/410/409 494/414/413 495/411/410
f 492/413/412 496/416/415 495/411/410
f 493/415/414 497/412/411 495/411/410
f 507/417/416 510/421/420 511/418/417
f 508/420/419 512/423/422 511/418/417
f 509/422/421 513/419/418 511/418/417
f 514/424/423 517/428/427 518/425/424
f 515/427/426 519/430/429 518/425/424
f 516/429/428 520/426/425 518/425/424
f 530/431/430 533/435/434 534/432/431
f 531/434/433 535/437/436 534/432/431
f 532/436/435 536/433/432 534/432/431
f 537/438/437 540/442/441 541/439/438
f 538/441/440 542/444/443 541/439/438
f 539/443/442 543/440/439 541/439/438
f 553/445/444 556/449/448 557/446/445
f 554/448/447 558/451/450 557/446/445
f 555/450/449 559/447/446 557/446/445
f 560/452/451 563/456/455 564/453/452
f 561/455/454 565/458/457 564/453/452
f 562/457/456 566/454/453 564/453/452
f 576/459/458 579/463/462 580/460/459
f 577/462/461 581/465/464 580/460/459
f 578/464/463 582/461/460 580/460/459
f 20/22/22 22/21/21 11/7/7
f 22/466/465 19/17/17 5/1/1
f 13/14/14 15/13/13 32/31/31
f 15/467/466 12/9/9 26/25/25
f 6/6/6 14/16/16 17/12/12
f 10/4/4 17/12/12 13/14/14
f 27/30/30 21/24/24 24/20/20
f 24/20/20 20/22/22 28/32/32
f 34/38/38 36/37/37 25/468/23
f 36/470/467 33/33/33 19/17/17
f 27/48/30 29/826/29 46/47/47
f 29/471/468 26/25/25 40/41/41
f 41/46/46 35/40/40 38/36/36
f 45/44/44 38/36/36 34/38/38
f 48/54/54 50/53/53 39/39/39
f 50/472/469 47/49/49 33/33/33
f 41/46/46 43/45/45 60/63/63
f 43/473/470 40/41/41 54/57/57
f 55/62/62 49/56/56 52/52/52
f 52/52/52 48/54/54 56/46/64
f 62/69/70 64/68/69 53/474/55
f 64/476/471 61/64/65 47/49/49
f 55/79/62 57/827/61 74/78/79
f 57/477/472 54/57/57 68/72/73
f 69/77/78 63/71/72 66/67/68
f 73/75/76 66/67/68 62/69/70
f 76/85/86 78/84/85 67/70/71
f 78/478/473 75/80/81 61/64/65
f 69/77/78 71/76/77 88/94/95
f 71/479/474 68/72/73 82/88/89
f 83/93/94 77/87/88 80/83/84
f 80/83/84 76/85/86 84/77/96
f 90/100/102 92/99/101 81/480/87
f 92/482/475 89/95/97 75/80/81
f 83/110/94 85/828/93 102/109/111
f 85/483/476 82/88/89 96/103/105
f 97/108/110 91/102/104 94/98/100
f 101/106/108 94/98/100 90/100/102
f 104/116/118 106/115/117 95/101/103
f 106/484/477 103/111/113 89/95/97
f 97/108/110 99/107/109 116/125/127
f 99/485/478 96/103/105 110/119/121
f 111/124/126 105/118/120 108/114/116
f 108/114/116 104/116/118 112/108/128
f 6/6/6 8/5/5 109/486/119
f 8/488/479 5/1/1 103/111/113
f 111/489/126 113/829/125 18/15/15
f 113/490/480 110/119/121 12/9/9
f 124/491/481 126/493/483 123/127/130
f 123/127/130 126/493/483 125/492/482
f 124/491/481 128/133/136 130/131/134
f 130/131/134 127/130/133 125/492/482
f 141/494/484 143/496/486 140/135/138
f 140/135/138 143/496/486 142/495/485
f 141/494/484 145/142/144 147/141/142
f 147/141/142 144/830/141 142/495/485
f 131/497/487 133/500/490 150/498/488
f 133/500/490 132/587/569 148/501/491
f 135/502/492 117/588/570 119/503/493
f 136/504/494 119/503/493 118/505/495
f 158/507/497 160/509/499 157/145/146
f 157/145/146 160/509/499 159/508/498
f 158/507/497 162/151/152 164/149/150
f 164/149/150 161/148/149 159/508/498
f 135/502/492 136/504/494 153/510/500
f 136/504/494 134/506/496 151/512/502
f 165/513/503 167/526/512 150/498/488
f 150/498/488 167/526/512 166/514/504
f 175/515/505 177/520/507 174/516/154
f 174/155/154 177/521/507 176/518/506
f 175/515/505 179/749/160 181/519/158
f 181/159/158 178/158/157 176/518/506
f 152/511/501 153/510/500 170/522/508
f 170/522/508 153/510/500 151/512/502
f 182/525/511 184/527/513 167/526/512
f 184/527/513 183/533/519 166/514/504
f 192/528/514 194/530/516 191/165/162
f 191/165/162 194/530/516 193/529/515
f 192/528/514 196/171/168 198/169/166
f 198/169/166 195/168/165 193/529/515
f 199/531/517 201/540/526 184/527/513
f 184/527/513 201/540/526 200/532/518
f 185/534/520 187/535/521 170/522/508
f 187/535/521 186/544/530 169/523/509
f 209/536/522 211/538/524 208/173/170
f 208/173/170 211/538/524 210/537/523
f 209/536/522 213/179/176 215/177/174
f 215/177/174 212/176/173 210/537/523
f 216/539/525 218/541/527 201/540/526
f 218/541/527 217/550/536 200/532/518
f 202/542/528 204/543/529 187/535/521
f 204/543/529 203/553/539 186/544/530
f 226/545/531 228/547/533 225/181/178
f 225/181/178 228/547/533 227/546/532
f 226/545/531 230/188/184 232/187/182
f 232/187/182 229/831/181 227/546/532
f 233/548/534 235/549/535 218/541/527
f 235/549/535 234/560/546 217/550/536
f 219/551/537 221/552/538 204/543/529
f 221/552/538 220/559/545 203/553/539
f 243/554/540 245/556/542 242/191/186
f 242/191/186 245/556/542 244/555/541
f 243/554/540 247/197/192 249/195/190
f 249/195/190 246/194/189 244/555/541
f 236/557/543 238/558/544 221/552/538
f 238/558/544 237/573/555 220/559/545
f 234/560/546 235/549/535 252/561/547
f 235/549/535 233/548/534 250/563/549
f 260/564/550 262/569/552 259/565/194
f 259/201/194 262/570/552 261/567/551
f 260/564/550 264/764/200 266/568/198
f 266/205/198 263/204/197 261/567/551
f 253/571/553 255/572/554 238/558/544
f 255/572/554 254/583/565 237/573/555
f 251/562/548 252/561/547 269/574/556
f 269/574/556 252/561/547 250/563/549
f 277/577/559 279/579/561 276/211/202
f 276/211/202 279/579/561 278/578/560
f 277/577/559 281/217/208 283/215/206
f 283/215/206 280/214/205 278/578/560
f 285/580/562 268/575/557 269/574/556
f 269/574/556 267/576/558 284/582/564
f 254/583/565 255/572/554 272/584/566
f 272/584/566 255/572/554 253/571/553
f 285/580/562 286/581/563 133/500/490
f 133/500/490 286/581/563 284/582/564
f 117/588/570 271/585/567 272/584/566
f 119/503/493 272/584/566 270/586/568
f 301/234/227 287/218/209 293/220/211
f 304/239/232 293/832/701 289/590/215
f 294/226/218 300/228/220 292/225/572
f 292/225/217 300/228/702 296/232/224
f 308/242/236 314/244/238 299/591/573
f 314/592/574 310/248/242 296/593/224
f 303/240/233 306/241/235 313/249/575
f 313/249/244 306/241/703 302/237/230
f 301/234/227 307/236/229 332/595/576
f 307/596/577 303/767/233 330/269/266
f 336/274/272 342/276/274 311/597/578
f 342/598/579 338/280/278 309/599/239
f 331/272/269 334/273/271 341/281/580
f 334/273/581 330/269/266 338/280/278
f 315/250/245 329/266/263 335/268/265
f 335/602/583 331/768/269 316/253/248
f 322/258/254 328/260/256 339/603/584
f 328/604/585 324/264/260 337/605/275
f 317/256/251 320/257/253 327/265/586
f 320/257/587 316/253/248 324/264/260
f 315/250/245 321/252/247 290/607/588
f 321/608/589 317/766/251 288/221/212
f 295/229/221 297/231/223 325/609/590
f 297/610/591 294/226/218 323/611/257
f 343/282/281 349/284/283 360/613/592
f 349/614/593 345/288/287 358/303/302
f 350/291/290 356/293/292 348/615/594
f 356/616/595 352/297/296 345/288/287
f 351/294/293 364/309/308 370/311/310
f 370/618/597 366/315/314 352/297/296
f 359/306/305 362/308/307 369/619/598
f 362/620/599 358/303/302 366/315/314
f 357/300/299 363/302/301 388/621/600
f 363/622/601 359/306/305 386/339/338
f 392/345/344 398/347/346 367/623/602
f 398/624/603 394/351/350 365/312/311
f 387/342/341 390/344/343 397/625/604
f 390/626/605 386/339/338 394/351/350
f 385/336/335 391/338/337 374/627/606
f 391/628/607 387/342/341 372/321/320
f 392/345/344 378/327/326 384/329/328
f 395/350/349 384/825/706 380/333/332
f 373/324/323 376/326/325 383/630/609
f 383/335/334 376/824/705 372/321/320
f 371/318/317 377/320/319 346/631/610
f 377/632/611 373/324/323 344/285/284
f 351/294/293 353/296/295 381/633/612
f 381/332/331 353/823/704 350/291/290
f 406/634/613 408/639/616 405/635/355
f 405/356/355 408/833/616 407/637/614
f 409/638/615 411/643/561 408/639/616
f 408/639/616 411/643/561 410/640/617
f 409/638/615 412/775/619 414/642/618
f 414/642/618 413/772/620 410/640/617
f 412/644/619 416/364/363 418/365/364
f 418/365/364 415/361/360 413/646/620
f 429/647/621 431/834/624 425/372/371
f 425/372/371 431/834/624 430/648/622
f 432/649/623 434/655/627 431/650/624
f 431/650/624 434/655/627 433/652/625
f 432/649/623 435/835/628 437/654/626
f 437/654/626 436/774/629 433/652/625
f 435/656/628 438/375/374 444/377/376
f 444/377/376 440/380/379 436/658/629
f 417/366/365 420/367/366 443/381/380
f 420/367/366 416/364/363 440/380/379
f 401/359/358 404/360/359 427/374/373
f 404/360/359 400/357/356 424/373/372
f 452/659/630 454/664/633 448/660/385
f 448/386/385 454/836/633 453/662/631
f 455/663/632 457/668/636 454/664/633
f 454/664/633 457/668/636 456/665/634
f 455/663/632 458/784/637 460/667/635
f 460/667/635 459/781/638 456/665/634
f 458/669/637 461/389/388 467/391/390
f 467/391/390 463/394/393 459/671/638
f 439/378/377 441/379/378 466/395/394
f 441/379/378 438/375/374 463/394/393
f 422/368/367 428/370/369 450/388/387
f 428/370/369 424/373/372 447/387/386
f 475/672/639 477/837/642 471/400/399
f 471/400/399 477/837/642 476/673/640
f 478/674/641 480/680/645 477/675/642
f 477/675/642 480/680/645 479/677/643
f 478/674/641 481/838/646 483/679/644
f 483/679/644 482/783/647 479/677/643
f 481/681/646 484/403/402 490/405/404
f 490/405/404 486/408/407 482/683/647
f 445/382/381 451/384/383 473/402/401
f 451/384/383 447/387/386 470/401/400
f 486/408/407 489/409/408 464/393/392
f 489/409/408 485/406/405 462/392/391
f 498/684/648 500/689/651 494/685/413
f 494/414/413 500/839/651 499/687/649
f 501/688/650 503/693/516 500/689/651
f 500/689/651 503/693/516 502/690/652
f 501/688/650 504/792/654 506/692/653
f 506/692/653 505/789/655 502/690/652
f 504/694/654 507/417/416 513/419/418
f 513/419/418 509/422/421 505/696/655
f 468/396/395 474/398/397 496/416/415
f 474/398/397 470/401/400 493/415/414
f 509/422/421 512/423/422 487/407/406
f 512/423/422 508/420/419 485/406/405
f 521/697/656 523/840/659 517/428/427
f 517/428/427 523/840/659 522/698/657
f 524/699/658 526/705/662 523/700/659
f 523/700/659 526/705/662 525/702/660
f 524/699/658 527/841/663 529/704/661
f 529/704/661 528/791/664 525/702/660
f 527/706/663 530/431/430 536/433/432
f 536/433/432 532/436/435 528/708/664
f 532/436/435 535/437/436 510/421/420
f 535/437/436 531/434/433 508/420/419
f 516/429/428 519/430/429 497/412/411
f 519/430/429 515/427/426 491/410/409
f 544/709/665 546/714/668 540/710/441
f 540/442/441 546/842/668 545/712/666
f 547/713/667 549/718/671 546/714/668
f 546/714/668 549/718/671 548/715/669
f 547/713/667 550/800/672 552/717/670
f 552/717/670 551/797/673 548/715/669
f 550/719/672 553/445/444 559/447/446
f 559/447/446 555/450/449 551/721/673
f 555/450/449 558/451/450 533/435/434
f 558/451/450 554/448/447 531/434/433
f 539/443/442 542/444/443 520/426/425
f 542/444/443 538/441/440 514/424/423
f 567/722/674 569/843/677 563/456/455
f 563/456/455 569/843/677 568/723/675
f 570/724/676 572/730/680 569/725/677
f 569/725/677 572/730/680 571/727/678
f 570/724/676 573/844/681 575/729/679
f 575/729/679 574/799/682 571/727/678
f 573/731/681 576/459/458 582/461/460
f 582/461/460 578/464/463 574/733/682
f 578/464/463 581/465/464 556/449/448
f 581/465/464 577/462/461 554/448/447
f 562/457/456 565/458/457 543/440/439
f 565/458/457 561/455/454 537/438/437
f 400/357/356 402/358/357 566/454/453
f 402/358/357 399/354/353 560/452/451
f 577/462/461 579/463/462 421/363/362
f 579/463/462 576/459/458 415/361/360
f 103/111/113 5/1/1 19/17/17
f 19/17/17 33/33/33 47/49/49
f 47/49/49 61/64/65 75/80/81
f 75/80/81 89/95/97 103/111/113
f 103/111/113 19/17/17 47/49/49
f 13/14/14 28/32/32 20/22/22
f 105/487/120 111/489/126 14/16/16
f 40/41/41 26/25/25 12/9/9
f 12/9/9 110/119/121 96/103/105
f 96/103/105 82/88/89 68/72/73
f 68/72/73 54/57/57 40/41/41
f 40/41/41 12/9/9 96/103/105
f 21/469/24 27/48/30 42/48/48
f 41/46/46 56/46/64 48/54/54
f 49/475/56 55/79/62 70/79/80
f 69/77/78 84/77/96 76/85/86
f 77/481/88 83/110/94 98/110/112
f 97/108/110 112/108/128 104/116/118
f 138/735/140 120/845/129 122/734/131
f 122/734/131 117/588/570 135/502/492
f 135/502/492 139/846/139 138/735/140
f 121/129/132 273/210/201 275/212/203
f 275/212/203 271/847/567 117/737/570
f 117/737/570 122/128/131 121/129/132
f 273/210/201 121/129/132 125/492/482
f 120/126/129 138/848/140 142/738/485
f 281/217/208 277/577/559 125/492/482
f 124/491/481 142/738/485 144/739/141
f 132/740/569 284/849/564 282/216/207
f 282/216/207 281/217/208 127/130/133
f 127/130/133 129/132/135 132/740/569
f 148/501/491 132/587/569 129/741/135
f 129/741/135 128/850/136 144/138/141
f 144/138/141 146/140/143 148/501/491
f 155/147/148 137/134/137 139/136/139
f 139/136/139 135/851/492 152/743/501
f 152/743/501 156/146/147 155/147/148
f 137/134/137 155/147/148 159/508/498
f 141/494/484 159/508/498 161/148/149
f 165/513/503 148/501/491 146/140/143
f 146/140/143 145/852/144 161/744/149
f 161/744/149 163/746/151 165/513/503
f 172/156/156 154/144/145 156/146/147
f 156/146/147 152/743/501 169/745/509
f 169/745/509 173/157/155 172/156/156
f 158/507/497 154/144/145 172/156/156
f 158/507/497 176/518/506 178/158/157
f 182/525/511 165/513/503 163/746/151
f 163/746/151 162/853/152 178/747/157
f 178/747/157 180/163/159 182/525/511
f 189/748/164 171/152/153 173/154/155
f 173/154/155 169/523/509 186/544/530
f 186/544/530 190/854/163 189/748/164
f 175/515/505 171/517/153 189/167/164
f 175/515/505 193/529/515 195/168/165
f 199/531/517 182/525/511 180/163/159
f 180/163/159 179/162/160 195/750/165
f 195/750/165 197/855/167 199/531/517
f 206/175/172 188/164/161 190/166/163
f 190/166/163 186/856/530 203/751/539
f 203/751/539 207/174/171 206/175/172
f 188/164/161 206/175/172 210/537/523
f 192/528/514 210/537/523 212/176/173
f 216/752/525 199/857/517 197/170/167
f 197/170/167 196/171/168 212/176/173
f 212/176/173 214/178/175 216/752/525
f 223/754/180 205/858/169 207/753/171
f 207/753/171 203/553/539 220/559/545
f 220/559/545 224/859/179 223/754/180
f 205/172/169 223/860/180 227/755/532
f 209/536/522 227/755/532 229/756/181
f 233/548/534 216/539/525 214/757/175
f 214/757/175 213/861/176 229/184/181
f 229/184/181 231/186/183 233/548/534
f 240/193/188 222/180/177 224/182/179
f 224/182/179 220/862/545 237/758/555
f 237/758/555 241/192/187 240/193/188
f 222/180/177 240/193/188 244/555/541
f 226/545/531 244/555/541 246/194/189
f 250/563/549 233/548/534 231/186/183
f 231/186/183 230/863/184 246/759/189
f 246/759/189 248/761/191 250/563/549
f 257/202/196 239/190/185 241/192/187
f 241/192/187 237/758/555 254/760/565
f 254/760/565 258/203/195 257/202/196
f 239/190/185 257/202/196 261/567/551
f 243/554/540 261/567/551 263/204/197
f 267/576/558 250/563/549 248/761/191
f 248/761/191 247/864/192 263/762/197
f 263/762/197 265/209/199 267/576/558
f 274/763/204 256/198/193 258/200/195
f 258/200/195 254/583/565 271/585/567
f 271/585/567 275/865/203 274/763/204
f 256/566/193 274/213/204 278/578/560
f 264/764/200 260/564/550 278/578/560
f 284/582/564 267/576/558 265/209/199
f 265/209/199 264/208/200 280/765/205
f 280/765/205 282/866/207 284/582/564
f 329/266/263 315/250/245 287/218/209
f 296/593/224 310/248/242 302/237/230
f 323/611/257 294/226/218 288/221/212
f 308/242/236 295/229/221 322/258/254
f 309/599/239 338/280/278 330/269/266
f 337/605/275 324/264/260 316/253/248
f 385/336/335 371/318/317 343/282/281
f 352/297/296 366/315/314 358/303/302
f 379/330/329 350/291/290 344/285/284
f 364/309/308 351/294/293 378/327/326
f 365/312/311 394/351/350 386/339/338
f 393/348/347 380/333/332 372/321/320
f 567/722/674 560/452/451 399/354/353
f 401/636/358 423/867/370 430/653/622
f 567/770/674 407/641/614 410/640/617
f 409/638/615 406/634/613 430/653/622
f 570/771/676 410/640/617 413/772/620
f 409/638/615 433/652/625 436/774/629
f 573/731/681 413/646/620 415/361/360
f 416/776/363 412/775/619 436/774/629
f 429/647/621 422/368/367 446/385/384
f 429/779/621 453/666/631 456/665/634
f 432/780/623 456/665/634 459/781/638
f 435/656/628 459/671/638 463/394/393
f 445/661/381 469/868/398 476/678/640
f 455/663/632 452/659/630 476/678/640
f 455/663/632 479/677/643 482/783/647
f 461/785/388 458/784/637 482/783/647
f 475/672/639 468/396/395 492/413/412
f 475/787/639 499/691/649 502/690/652
f 478/788/641 502/690/652 505/789/655
f 481/681/646 505/696/655 509/422/421
f 491/686/409 515/869/426 522/703/657
f 501/688/650 498/684/648 522/703/657
f 501/688/650 525/702/660 528/791/664
f 507/793/416 504/792/654 528/791/664
f 521/697/656 514/424/423 538/441/440
f 521/795/656 545/716/666 548/715/669
f 524/796/658 548/715/669 551/797/673
f 527/706/663 551/721/673 555/450/449
f 537/711/437 561/870/454 568/728/675
f 547/713/667 544/709/665 568/728/675
f 547/713/667 571/727/678 574/799/682
f 553/801/444 550/800/672 574/799/682
