# Blender 5.2.0 LTS
# www.blender.org
o unit_leader
v -0.405416 0.035712 -0.300000
v 0.405015 0.035492 -0.300000
v 0.405015 0.035492 0.300000
v -0.405416 0.035712 0.300000
v -0.405015 1.514508 -0.300000
v 0.405416 1.514288 -0.300000
v 0.405416 1.514288 0.300000
v -0.405015 1.514508 0.300000
v 0.497235 1.584941 0.490000
v 0.802466 1.584751 0.490000
v 0.802466 1.584751 0.610000
v 0.497235 1.584941 0.610000
v 0.497534 2.065249 0.490000
v 0.802765 2.065059 0.490000
v 0.802765 2.065059 0.610000
v 0.497534 2.065249 0.610000
v -0.393487 0.006480 -0.280264
v -0.384468 -0.000000 -0.271389
v -0.394688 0.004072 -0.271312
v -0.421156 0.032115 -0.279140
v -0.425000 0.042944 -0.283377
v -0.421307 0.036100 -0.288633
v 0.421166 0.032106 -0.279106
v 0.420548 0.035645 -0.288731
v 0.425000 0.042944 -0.283377
v 0.394835 0.004081 -0.271108
v 0.384655 -0.000000 -0.271124
v 0.393541 0.006429 -0.280071
v 0.425000 0.042664 0.282652
v 0.420082 0.033368 0.286552
v 0.384468 0.000000 0.271389
v 0.394164 0.005041 0.278327
v -0.425000 0.042664 0.282652
v -0.419582 0.033509 0.287074
v -0.384655 0.000000 0.271124
v -0.394325 0.005035 0.278115
v -0.425000 1.507336 -0.282652
v -0.420082 1.516632 -0.286552
v -0.384468 1.550000 -0.271389
v -0.394164 1.544959 -0.278327
v 0.384655 1.550000 -0.271124
v 0.394325 1.544965 -0.278115
v 0.425000 1.507336 -0.282652
v 0.419582 1.516491 -0.287074
v 0.421156 1.517885 0.279140
v 0.421307 1.513900 0.288633
v 0.425000 1.507056 0.283377
v 0.394688 1.545928 0.271312
v 0.384468 1.550000 0.271389
v 0.393487 1.543520 0.280264
v -0.421166 1.517894 0.279106
v -0.425000 1.507056 0.283377
v -0.420548 1.514355 0.288731
v -0.393541 1.543571 0.280071
v -0.384655 1.550000 0.271124
v -0.394835 1.545919 0.271108
v -0.247640 1.555279 -0.247640
v -0.239400 1.550000 -0.239401
v -0.269721 1.577360 -0.247640
v -0.275000 1.585600 -0.239401
v -0.247640 1.577360 -0.269721
v -0.239400 1.585600 -0.275000
v 0.239400 1.585600 -0.275000
v 0.247640 1.577360 -0.269721
v 0.269721 1.577360 -0.247640
v 0.275000 1.585600 -0.239401
v 0.239400 1.550000 -0.239401
v 0.247640 1.555279 -0.247640
v 0.275000 1.585600 0.239400
v 0.269721 1.577360 0.247640
v 0.239400 1.585600 0.275000
v 0.247640 1.577360 0.269721
v 0.239400 1.550000 0.239400
v 0.247640 1.555279 0.247640
v -0.275000 1.585600 0.239400
v -0.269721 1.577360 0.247640
v -0.239400 1.550000 0.239400
v -0.247640 1.555279 0.247640
v -0.239400 1.585600 0.275000
v -0.247640 1.577360 0.269721
v -0.275000 2.064400 -0.239401
v -0.269721 2.072639 -0.247640
v -0.247640 2.094721 -0.247640
v -0.239400 2.100000 -0.239401
v -0.239400 2.064400 -0.275000
v -0.247640 2.072639 -0.269721
v 0.239400 2.100000 -0.239401
v 0.247640 2.094721 -0.247640
v 0.275000 2.064400 -0.239401
v 0.269721 2.072639 -0.247640
v 0.239400 2.064400 -0.275000
v 0.247640 2.072639 -0.269721
v 0.247640 2.072639 0.269720
v 0.239400 2.064400 0.275000
v 0.275000 2.064400 0.239400
v 0.269721 2.072639 0.247639
v 0.247640 2.094721 0.247639
v 0.239400 2.100000 0.239400
v -0.275000 2.064400 0.239400
v -0.269721 2.072639 0.247639
v -0.239400 2.064400 0.275000
v -0.247640 2.072639 0.269720
v -0.239400 2.100000 0.239400
v -0.247640 2.094721 0.247639
v -0.098009 2.054996 -0.098009
v -0.089400 2.050000 -0.089401
v -0.122955 2.083694 -0.103080
v -0.121041 2.091763 -0.112516
v -0.112515 2.091763 -0.121041
v -0.103080 2.083694 -0.122955
v 0.112067 2.091583 -0.121103
v 0.102531 2.081619 -0.125099
v 0.120987 2.091708 -0.112458
v 0.122980 2.083725 -0.103106
v 0.089400 2.050000 -0.089401
v 0.098008 2.055001 -0.098000
v 0.121041 2.091527 0.112005
v 0.125121 2.081655 0.102557
v 0.112006 2.091527 0.121040
v 0.102557 2.081655 0.125121
v 0.089400 2.050000 0.089400
v 0.097998 2.055006 0.097998
v -0.121103 2.091583 0.112067
v -0.125099 2.081619 0.102531
v -0.089400 2.050000 0.089400
v -0.098000 2.055001 0.098008
v -0.103106 2.083725 0.122980
v -0.112457 2.091708 0.120987
v -0.121041 2.558474 -0.112006
v -0.125121 2.568346 -0.102557
v -0.089400 2.600000 -0.089401
v -0.097998 2.594994 -0.097999
v -0.102557 2.568346 -0.125122
v -0.112006 2.558474 -0.121041
v 0.089400 2.600000 -0.089401
v 0.098000 2.594999 -0.098008
v 0.121103 2.558417 -0.112067
v 0.125099 2.568381 -0.102532
v 0.112457 2.558292 -0.120987
v 0.103106 2.566276 -0.122981
v 0.112515 2.558237 0.121040
v 0.103080 2.566306 0.122955
v 0.121041 2.558237 0.112514
v 0.122955 2.566306 0.103079
v 0.089400 2.600000 0.089400
v 0.098009 2.595003 0.098009
v -0.122981 2.566276 0.103105
v -0.120987 2.558292 0.112456
v -0.112067 2.558417 0.121103
v -0.102532 2.568381 0.125099
v -0.089400 2.600000 0.089400
v -0.098008 2.594999 0.098000
v -0.587252 0.705552 -0.506505
v -0.585539 0.700000 -0.505016
v -0.595570 0.703446 -0.495100
v -0.597660 0.710018 -0.502913
v -0.622667 0.727888 -0.474030
v -0.625000 0.735600 -0.474400
v -0.620444 0.730530 -0.485225
v -0.602516 0.732615 -0.505786
v -0.593162 0.733041 -0.510000
v 0.293049 0.733265 -0.510000
v 0.302382 0.732515 -0.505794
v 0.322598 0.727825 -0.474949
v 0.320451 0.730506 -0.485187
v 0.325000 0.735600 -0.474400
v 0.287298 0.705531 -0.505686
v 0.297703 0.709947 -0.502234
v 0.295660 0.703434 -0.495100
v 0.285686 0.700000 -0.503852
v 0.322667 0.727888 -0.425970
v 0.325000 0.735600 -0.425600
v 0.320429 0.730508 -0.414788
v 0.302380 0.732515 -0.394204
v 0.293014 0.732926 -0.390000
v 0.295570 0.703446 -0.404900
v 0.297620 0.709974 -0.397080
v 0.287231 0.705551 -0.393493
v 0.285539 0.700000 -0.394985
v -0.622598 0.727825 -0.425051
v -0.620466 0.730527 -0.414800
v -0.625000 0.735600 -0.425600
v -0.595660 0.703434 -0.404900
v -0.585686 0.700000 -0.396148
v -0.587315 0.705531 -0.394317
v -0.597743 0.709990 -0.397772
v -0.593197 0.733394 -0.389938
v -0.602519 0.732614 -0.394217
v -0.620429 1.869492 -0.485213
v -0.625000 1.864401 -0.474401
v -0.622667 1.872112 -0.474030
v -0.595570 1.896554 -0.495100
v -0.585539 1.900000 -0.505016
v -0.587231 1.894449 -0.506507
v -0.597620 1.890026 -0.502921
v -0.593014 1.867074 -0.510000
v -0.602380 1.867485 -0.505796
v 0.287315 1.894469 -0.505683
v 0.285686 1.900000 -0.503852
v 0.295660 1.896566 -0.495100
v 0.297743 1.890010 -0.502228
v 0.322598 1.872175 -0.474949
v 0.325000 1.864401 -0.474401
v 0.320466 1.869473 -0.485200
v 0.302519 1.867386 -0.505783
v 0.293242 1.866606 -0.510000
v 0.293162 1.866959 -0.390000
v 0.302516 1.867385 -0.394214
v 0.320444 1.869470 -0.414775
v 0.325000 1.864401 -0.425600
v 0.322667 1.872112 -0.425970
v 0.297660 1.889982 -0.397087
v 0.295570 1.896554 -0.404901
v 0.285539 1.900000 -0.394985
v 0.287252 1.894448 -0.393495
v -0.622597 1.872175 -0.425051
v -0.625000 1.864401 -0.425600
v -0.620451 1.869494 -0.414813
v -0.602382 1.867485 -0.394207
v -0.593095 1.866735 -0.390000
v -0.597703 1.890053 -0.397767
v -0.587298 1.894469 -0.394315
v -0.585686 1.900000 -0.396149
v -0.595660 1.896566 -0.404901
v 0.560019 0.953959 -0.711277
v 0.566996 0.953482 -0.720722
v 0.564685 0.950000 -0.710963
v 0.563959 0.950019 -0.711277
v 0.560000 0.954685 -0.710963
v 0.563482 0.956996 -0.720722
v 0.586341 0.976341 -0.745674
v 0.595600 0.985600 -0.750000
v 0.704400 0.985600 -0.750000
v 0.713659 0.976362 -0.745659
v 0.736512 0.957001 -0.720729
v 0.739994 0.953971 -0.711277
v 0.735028 0.950000 -0.711116
v 0.732115 0.953488 -0.720834
v 0.740000 0.954972 0.711116
v 0.736512 0.957886 0.720834
v 0.704400 0.985600 0.750000
v 0.713638 0.976341 0.745659
v 0.732999 0.953489 0.720729
v 0.736029 0.950006 0.711277
v 0.563959 0.951013 0.711397
v 0.563494 0.957890 0.720840
v 0.560000 0.955866 0.711397
v 0.561013 0.953960 0.711397
v 0.565866 0.950000 0.711397
v 0.567890 0.953494 0.720840
v 0.586364 0.976364 0.745638
v 0.595600 0.985600 0.750000
v 0.563488 1.122115 -0.720834
v 0.560000 1.125028 -0.711116
v 0.563966 1.129993 -0.711007
v 0.567001 1.126512 -0.720729
v 0.595600 1.094401 -0.750000
v 0.586362 1.103659 -0.745659
v 0.732110 1.126506 -0.720841
v 0.734134 1.130000 -0.711397
v 0.738987 1.126040 -0.711398
v 0.736040 1.128987 -0.711398
v 0.740000 1.124134 -0.711397
v 0.736506 1.122110 -0.720841
v 0.704400 1.094401 -0.750000
v 0.713636 1.103636 -0.745639
v 0.713659 1.103659 0.745674
v 0.704400 1.094401 0.750000
v 0.736518 1.123004 0.720721
v 0.740000 1.125315 0.710963
v 0.736041 1.129981 0.711277
v 0.739981 1.126040 0.711277
v 0.735315 1.130000 0.710963
v 0.733004 1.126518 0.720721
v 0.560007 1.126034 0.711007
v 0.563488 1.122999 0.720729
v 0.595600 1.094401 0.750000
v 0.586341 1.103638 0.745659
v 0.567885 1.126512 0.720834
v 0.564972 1.130000 0.711116
v 0.510609 1.556352 0.500112
v 0.517768 1.550000 0.504663
v 0.508701 1.552259 0.508815
v 0.477615 1.582342 0.504676
v 0.475000 1.591389 0.499030
v 0.480900 1.584900 0.495591
v 0.822404 1.582344 0.504733
v 0.820510 1.584689 0.496180
v 0.825000 1.591389 0.499030
v 0.791518 1.552261 0.509457
v 0.782495 1.550000 0.505437
v 0.791591 1.556297 0.500675
v 0.822460 1.582237 0.594544
v 0.825000 1.591171 0.599971
v 0.819049 1.585581 0.603765
v 0.791383 1.552324 0.591235
v 0.788881 1.556758 0.600044
v 0.782232 1.550000 0.595337
v 0.479447 1.584746 0.603222
v 0.475000 1.591171 0.599971
v 0.477559 1.582234 0.594489
v 0.508436 1.552322 0.590595
v 0.517505 1.550000 0.594563
v 0.508218 1.556684 0.599456
v 0.480951 2.064419 0.496234
v 0.475000 2.058829 0.500029
v 0.477540 2.067763 0.505455
v 0.508617 2.097676 0.508764
v 0.517768 2.100000 0.504663
v 0.511118 2.093242 0.499956
v 0.791564 2.097678 0.509405
v 0.791782 2.093316 0.500544
v 0.782495 2.100000 0.505437
v 0.822441 2.067766 0.505511
v 0.825000 2.058829 0.500029
v 0.820553 2.065254 0.496778
v 0.822385 2.067658 0.595323
v 0.819100 2.065100 0.604408
v 0.825000 2.058611 0.600970
v 0.791299 2.097741 0.591184
v 0.782232 2.100000 0.595336
v 0.789391 2.093648 0.599887
v 0.477596 2.067656 0.595267
v 0.475000 2.058611 0.600970
v 0.479490 2.065311 0.603820
v 0.508409 2.093703 0.599324
v 0.517505 2.100000 0.594563
v 0.508482 2.097739 0.590543
v -0.400000 0.405600 0.454400
v -0.393841 0.400000 0.459296
v -0.395176 0.406203 0.460000
v -0.395146 1.293821 0.460000
v -0.393862 1.300000 0.459108
v -0.400000 1.294400 0.454400
v -0.393862 0.400000 0.380892
v -0.400000 0.405600 0.385600
v -0.395146 0.406179 0.380000
v -0.400000 1.294400 0.385599
v -0.393841 1.300000 0.380704
v -0.395176 1.293797 0.380000
v 0.293862 0.400000 0.459108
v 0.300000 0.405600 0.454400
v 0.295146 0.406179 0.460000
v 0.300000 1.294400 0.454400
v 0.293841 1.300000 0.459296
v 0.295176 1.293797 0.460000
v 0.295176 0.406203 0.380000
v 0.300000 0.405600 0.385600
v 0.293841 0.400000 0.380704
v 0.295146 1.293821 0.380000
v 0.293862 1.300000 0.380892
v 0.300000 1.294400 0.385599
v -0.400000 0.400000 0.460000
v -0.400000 1.300000 0.460000
v -0.400000 0.400000 0.380000
v -0.400000 1.300000 0.380000
v 0.300000 0.400000 0.460000
v 0.300000 1.300000 0.460000
v 0.300000 0.400000 0.380000
v 0.300000 1.300000 0.380000
vn -0.3026 -0.3072 -0.9023
vn 0.3355 0.2976 -0.8938
vn 0.3029 -0.3073 -0.9021
vn -0.3315 0.2980 -0.8951
vn -0.3355 -0.2976 0.8938
vn 0.3315 -0.2980 0.8951
vn 0.3026 0.3072 0.9023
vn -0.3029 0.3073 0.9021
vn -0.1766 -0.2008 -0.9636
vn 0.1898 0.2029 -0.9606
vn 0.1733 -0.2017 -0.9640
vn -0.1982 0.2117 -0.9570
vn -0.1898 -0.2029 0.9606
vn 0.1982 -0.2117 0.9570
vn 0.1766 0.2009 0.9636
vn -0.1733 0.2017 0.9640
vn -0.3207 -0.7536 -0.5738
vn -0.1449 -0.9527 -0.2671
vn -0.5467 -0.8268 -0.1321
vn -0.8220 -0.5574 -0.1163
vn -0.9562 -0.1331 -0.2609
vn -0.7504 -0.3663 -0.5503
vn 0.8227 -0.5539 -0.1278
vn 0.7311 -0.3728 -0.5714
vn 0.9441 -0.1361 -0.3004
vn 0.5483 -0.8258 -0.1320
vn 0.1461 -0.9536 -0.2632
vn 0.3205 -0.7558 -0.5710
vn 0.8220 0.5574 0.1163
vn 0.7503 0.3663 0.5503
vn 0.9562 0.1331 0.2609
vn 0.5467 0.8268 0.1321
vn 0.1449 0.9527 0.2671
vn 0.3207 0.7536 0.5738
vn -0.8227 0.5539 0.1278
vn -0.9441 0.1361 0.3003
vn -0.7311 0.3728 0.5714
vn -0.3205 0.7558 0.5710
vn -0.1461 0.9536 0.2633
vn -0.5483 0.8258 0.1320
vn -0.3108 -0.3257 -0.8929
vn -0.5664 -0.8009 -0.1944
vn -0.6053 -0.4672 -0.6444
vn -0.8492 -0.5162 -0.1111
vn -0.9765 -0.1271 -0.1740
vn -0.8447 -0.2724 -0.4608
vn 0.8505 -0.5112 -0.1238
vn 0.8422 -0.2655 -0.4693
vn 0.9772 -0.1245 -0.1718
vn 0.2939 -0.3478 -0.8903
vn 0.5653 -0.7974 -0.2110
vn 0.2647 -0.7788 -0.5686
vn 0.8493 -0.5161 0.1113
vn 0.9764 -0.1270 0.1747
vn 0.8441 -0.2722 0.4620
vn 0.5663 -0.8009 0.1943
vn 0.3103 -0.3251 0.8933
vn 0.2762 -0.7597 0.5888
vn -0.8504 -0.5114 0.1235
vn -0.8428 -0.2658 0.4681
vn -0.9773 -0.1246 0.1711
vn -0.5653 -0.7974 0.2111
vn -0.2944 -0.3490 0.8897
vn -0.6008 -0.4676 0.6483
vn -0.8441 0.2722 -0.4620
vn -0.9764 0.1270 -0.1747
vn -0.8493 0.5161 -0.1113
vn -0.5663 0.8009 -0.1943
vn -0.3103 0.3251 -0.8933
vn -0.6047 0.4673 -0.6450
vn 0.2942 0.3481 -0.8901
vn 0.5653 0.7974 -0.2111
vn 0.6006 0.4673 -0.6487
vn 0.8504 0.5114 -0.1235
vn 0.9773 0.1246 -0.1711
vn 0.8428 0.2658 -0.4681
vn 0.8447 0.2724 0.4608
vn 0.9765 0.1271 0.1740
vn 0.8492 0.5162 0.1111
vn 0.5664 0.8009 0.1944
vn 0.3108 0.3257 0.8929
vn 0.6053 0.4672 0.6444
vn -0.8505 0.5112 0.1238
vn -0.9772 0.1245 0.1718
vn -0.8422 0.2655 0.4693
vn -0.2938 0.3479 0.8903
vn -0.5653 0.7974 0.2110
vn -0.6001 0.4674 0.6492
vn 0.7710 -0.6075 0.1911
vn -0.3066 -0.7625 -0.5697
vn -0.3421 -0.9212 -0.1853
vn -0.6078 0.7708 0.1909
vn -0.9212 -0.3421 -0.1853
vn -0.7625 -0.3066 -0.5697
vn -0.6041 0.7592 -0.2423
vn -0.7613 -0.3085 0.5703
vn -0.9227 -0.3350 0.1905
vn 0.7591 -0.6041 -0.2424
vn -0.3350 -0.9227 0.1905
vn -0.3086 -0.7613 0.5703
vn 0.3085 0.7613 -0.5703
vn 0.3350 0.9227 -0.1905
vn -0.7591 0.6042 0.2423
vn 0.6041 -0.7592 0.2423
vn 0.9227 0.3350 -0.1905
vn 0.7613 0.3086 -0.5703
vn 0.7625 0.3066 0.5697
vn 0.9212 0.3421 0.1853
vn 0.6075 -0.7710 -0.1911
vn -0.7709 0.6077 -0.1909
vn 0.3421 0.9212 0.1853
vn 0.3066 0.7625 0.5697
vn -0.2888 -0.6018 -0.7447
vn -0.1248 -0.8923 -0.4339
vn -0.4973 -0.8461 -0.1917
vn -0.8150 -0.5503 -0.1814
vn -0.8702 -0.1488 -0.4698
vn -0.5540 -0.3699 -0.7458
vn 0.8271 -0.5440 -0.1412
vn 0.6041 -0.3751 -0.7031
vn 0.8836 -0.1302 -0.4497
vn 0.4918 -0.8580 -0.1481
vn 0.1147 -0.9017 -0.4168
vn 0.3245 -0.6441 -0.6927
vn 0.8108 -0.5500 0.2003
vn 0.8770 -0.1568 0.4541
vn 0.5552 -0.3530 0.7531
vn 0.4998 -0.8395 0.2131
vn 0.2795 -0.5830 0.7629
vn 0.1317 -0.8877 0.4412
vn -0.6188 -0.3698 0.6930
vn -0.8981 -0.1322 0.4194
vn -0.8272 -0.5438 0.1414
vn -0.4940 -0.8555 0.1553
vn -0.1174 -0.8982 0.4237
vn -0.3259 -0.6360 0.6995
vn -0.5552 0.3530 -0.7531
vn -0.8770 0.1568 -0.4541
vn -0.8108 0.5500 -0.2003
vn -0.4998 0.8395 -0.2131
vn -0.1316 0.8877 -0.4412
vn -0.2795 0.5830 -0.7629
vn 0.4940 0.8555 -0.1553
vn 0.3259 0.6360 -0.6995
vn 0.1174 0.8981 -0.4237
vn 0.8272 0.5438 -0.1414
vn 0.8981 0.1322 -0.4194
vn 0.6188 0.3698 -0.6930
vn 0.8150 0.5503 0.1814
vn 0.5540 0.3699 0.7458
vn 0.8702 0.1488 0.4698
vn 0.4973 0.8461 0.1917
vn 0.1248 0.8923 0.4339
vn 0.2888 0.6018 0.7446
vn -0.8271 0.5440 0.1412
vn -0.8836 0.1302 0.4497
vn -0.6041 0.3751 0.7031
vn -0.3245 0.6441 0.6927
vn -0.1147 0.9017 0.4168
vn -0.4918 0.8580 0.1480
vn -0.9001 -0.3341 0.2798
vn -0.3470 -0.7135 0.6086
vn -0.4265 -0.0914 0.8999
vn -0.4224 0.1020 0.9006
vn -0.3467 0.7227 0.5979
vn -0.8994 0.3339 0.2820
vn -0.3467 -0.7227 -0.5979
vn -0.8994 -0.3339 -0.2820
vn -0.4224 -0.1020 -0.9006
vn -0.9001 0.3341 -0.2798
vn -0.3470 0.7135 -0.6086
vn -0.4265 0.0914 -0.8999
vn 0.3467 -0.7227 0.5979
vn 0.8994 -0.3339 0.2820
vn 0.4224 -0.1020 0.9006
vn 0.9001 0.3341 0.2798
vn 0.3470 0.7135 0.6086
vn 0.4265 0.0914 0.8999
vn 0.4265 -0.0914 -0.8999
vn 0.9001 -0.3341 -0.2798
vn 0.3470 -0.7135 -0.6086
vn 0.4224 0.1020 -0.9006
vn 0.3467 0.7227 -0.5979
vn 0.8994 0.3339 -0.2820
vn -0.8287 -0.2207 -0.5143
vn -0.2619 -0.3980 -0.8792
vn -0.8792 -0.3980 -0.2619
vn 0.5938 -0.1717 -0.7861
vn 0.8876 -0.3876 -0.2489
vn 0.3024 -0.4059 -0.8625
vn 0.5902 -0.1365 0.7956
vn 0.8724 -0.3975 0.2844
vn 0.7956 -0.1365 0.5902
vn -0.2489 -0.3876 0.8876
vn -0.7861 -0.1717 0.5938
vn -0.8625 -0.4059 0.3024
vn -0.8724 0.3975 -0.2844
vn -0.5902 0.1365 -0.7956
vn -0.7956 0.1365 -0.5902
vn 0.7861 0.1717 -0.5938
vn 0.2489 0.3876 -0.8876
vn 0.8625 0.4059 -0.3024
vn 0.8287 0.2208 0.5143
vn 0.2619 0.3980 0.8792
vn 0.5143 0.2207 0.8287
vn -0.5938 0.1717 0.7861
vn -0.8876 0.3876 0.2489
vn -0.8229 0.2207 0.5236
vn -0.2183 -0.0832 -0.9723
vn 0.6000 -0.4672 -0.6494
vn 0.2158 -0.0940 -0.9719
vn 0.5875 -0.1197 -0.8003
vn 0.2174 -0.0830 0.9725
vn 0.6047 -0.4673 0.6450
vn 0.5905 -0.1088 0.7997
vn -0.2189 -0.0948 0.9711
vn -0.2174 0.0830 -0.9725
vn 0.2174 0.0941 -0.9715
vn 0.2183 0.0832 0.9723
vn 0.5920 0.1096 0.7984
vn -0.2167 0.0941 0.9717
vn -0.5882 0.1198 0.7998
vn 0.3348 -0.9212 -0.1985
vn 0.7420 -0.3435 -0.5758
vn 0.8748 -0.4367 -0.2098
vn 0.3435 -0.7420 0.5758
vn 0.9212 -0.3348 0.1985
vn 0.7767 -0.2720 0.5681
vn -0.9199 0.3374 -0.2001
vn -0.3432 0.7446 -0.5725
vn -0.7767 0.2720 -0.5681
vn -0.7446 0.3432 0.5725
vn -0.3374 0.9199 0.2001
vn -0.8781 0.4339 0.2017
vn 0.9118 -0.1688 0.3743
vn -0.9123 -0.1880 0.3639
vn -0.4031 -0.8002 0.4440
vn 0.1723 -0.9527 0.2504
vn 0.3979 -0.8016 0.4463
vn -0.1723 0.9527 -0.2505
vn -0.3979 0.8016 -0.4463
vn 0.4031 0.8002 -0.4440
vn 0.1729 0.9532 -0.2482
vn 0.7744 -0.4386 0.4559
vn -0.7700 -0.4410 0.4611
vn 0.2162 -0.2162 -0.9521
vn -0.4131 -0.4131 -0.8116
vn -0.2162 -0.2162 -0.9521
vn 0.9521 -0.2162 0.2162
vn 0.8116 -0.4131 -0.4131
vn 0.9521 -0.2162 -0.2162
vn -0.2162 -0.9521 0.2162
vn -0.4131 -0.8116 -0.4131
vn -0.2162 -0.9521 -0.2162
vn -0.2162 -0.2162 0.9521
vn 0.4131 -0.4131 0.8116
vn 0.2162 -0.2162 0.9521
vn -0.9521 0.2162 0.2162
vn -0.8116 0.4131 -0.4131
vn -0.9521 0.2162 -0.2162
vn -0.2162 0.9521 0.2162
vn 0.4131 0.8116 0.4131
vn 0.2162 0.9521 0.2162
vn 0.2162 0.9521 -0.2162
vn -0.4131 0.8116 -0.4131
vn -0.2162 0.9521 -0.2162
vn 0.4131 0.8116 -0.4131
vn -0.9521 -0.2162 -0.2162
vn -0.8116 -0.4131 -0.4131
vn 0.4131 0.4131 -0.8116
vn 0.4131 -0.4131 -0.8116
vn 0.8116 0.4131 0.4131
vn 0.8116 -0.4131 0.4131
vn -0.4131 0.4131 0.8116
vn -0.4131 -0.4131 0.8116
vn -0.3888 -0.8213 0.4175
vn 0.1997 -0.9593 0.1997
vn 0.3903 -0.8339 0.3903
vn -0.4175 0.8213 0.3888
vn -0.1997 0.9593 -0.1997
vn -0.3903 0.8339 -0.3903
vn 0.3888 0.8213 -0.4175
vn 0.1996 0.9594 -0.1994
vn 0.4156 0.8091 0.4156
vn -0.5143 -0.2207 -0.8287
vn 0.8792 0.3980 0.2619
vn -0.2643 -0.7789 0.5687
vn -0.2756 -0.7599 -0.5887
vn -0.2647 0.7788 0.5686
vn -0.2762 0.7597 -0.5888
vn 0.2720 -0.7767 -0.5681
vn 0.4367 -0.8748 0.2098
vn -0.2720 0.7767 0.5681
vn -0.4339 0.8781 -0.2017
vn 0.3737 0.3737 0.8489
vn 0.1659 -0.1656 0.9721
vn 0.3730 -0.3741 0.8491
vn -0.1666 -0.1666 0.9718
vn -0.3741 0.3730 0.8491
vn -0.3734 -0.3734 0.8492
vn -0.1729 -0.9532 0.2482
vn -0.9118 0.1688 -0.3743
vn -0.7744 0.4386 -0.4559
vn 0.9123 0.1880 -0.3639
vn 0.7700 0.4410 -0.4611
vn -0.4131 -0.8116 0.4131
vn 0.2162 -0.9521 0.2162
vn 0.4131 -0.8116 0.4131
vn 0.4131 -0.8116 -0.4131
vn 0.2162 -0.9521 -0.2162
vn -0.8116 -0.4131 0.4131
vn -0.8116 0.4131 0.4131
vn -0.9521 -0.2162 0.2162
vn -0.4131 0.4131 -0.8116
vn -0.2162 0.2162 -0.9521
vn 0.8116 0.4131 -0.4131
vn 0.9521 0.2162 0.2162
vn 0.9521 0.2162 -0.2162
vn 0.4131 0.4131 0.8116
vn 0.2162 0.2162 0.9521
vn -0.4131 0.8116 0.4131
vn -0.1996 -0.9594 0.1994
vn -0.4156 -0.8091 -0.4156
vn -0.1992 -0.9595 -0.1992
vn 0.1994 -0.9594 -0.1996
vn 0.4175 -0.8213 -0.3888
vn 0.8229 -0.2207 -0.5236
vn 0.2845 -0.3975 0.8724
vn -0.5236 -0.2207 0.8229
vn -0.1994 0.9594 0.1996
vn 0.1992 0.9595 0.1992
vn -0.5905 0.1088 -0.7997
vn -0.5920 -0.1096 -0.7984
vn -0.5910 -0.1206 0.7976
vn 0.2643 0.7789 -0.5687
vn 0.2756 0.7599 0.5887
vn 0.1656 -0.1659 -0.9721
vn -0.3737 -0.3737 -0.8489
vn -0.1651 -0.1651 -0.9724
vn 0.1666 0.1666 -0.9718
vn 0.3741 -0.3730 -0.8491
vn -0.1659 0.1656 -0.9721
vn -0.3730 0.3741 -0.8491
vn -0.1656 0.1659 0.9721
vn 0.1651 0.1651 0.9724
vn 0.2162 0.2162 -0.9521
vn -0.2162 0.2162 0.9521
vn -0.2845 0.3975 -0.8724
vn 0.5236 0.2207 -0.8229
vn -0.3024 0.4059 0.8625
vn 0.5896 0.1205 -0.7987
vn 0.3734 0.3734 -0.8492
vn -0.5774 0.5773 0.5773
vn -0.5774 -0.5773 -0.5773
vn -0.5773 -0.5773 0.5774
vn -0.5773 0.5773 -0.5774
vn 0.5773 -0.5773 -0.5774
vn 0.5774 0.5773 -0.5773
vn 0.5774 -0.5773 0.5773
vn 0.5773 0.5773 0.5774
vt 0.000000 0.000000
vt 0.376555 0.017499
vt 0.375000 0.002200
vt 0.376723 0.000000
vt 0.873266 0.750000
vt 0.872808 0.747212
vt 0.875000 0.732501
vt 0.375000 0.248872
vt 0.376555 0.232501
vt 0.376713 0.250874
vt 0.623445 0.232501
vt 0.625000 0.249267
vt 0.623277 0.251378
vt 0.372808 0.747212
vt 0.376244 0.732501
vt 0.374991 0.750867
vt 0.623833 0.732501
vt 0.627200 0.747800
vt 0.624651 0.750694
vt 0.376723 0.498277
vt 0.376409 0.512882
vt 0.373680 0.500440
vt 0.623284 0.498266
vt 0.626096 0.500298
vt 0.623445 0.513999
vt 0.623445 0.017499
vt 0.127200 0.747800
vt 0.126723 0.750000
vt 0.625000 0.002788
vt 0.623284 0.998266
vt 0.376723 0.998277
vt 0.127192 0.502788
vt 0.872800 0.502200
vt 0.625000 0.000000
vt 0.375000 0.250000
vt 0.375000 0.000000
vt 0.625000 0.250000
vt 0.375000 0.500000
vt 0.625000 0.500000
vt 0.375000 0.750000
vt 0.625000 0.750000
vt 0.375000 1.000000
vt 0.125000 0.750000
vt 0.125000 0.500000
vt 0.875000 0.500000
vt 0.623284 0.000000
vt 0.625000 1.000000
vt 0.875000 0.750000
s 1
f 1/1/1 6/1/2 2/1/3
f 1/1/1 5/1/4 6/1/2
f 4/1/5 3/1/6 7/1/7
f 4/1/5 7/1/7 8/1/8
f 9/1/9 14/1/10 10/1/11
f 9/1/9 13/1/12 14/1/10
f 12/1/13 11/1/14 15/1/15
f 12/1/13 15/1/15 16/1/16
f 17/1/17 18/1/18 19/1/19
f 20/1/20 21/1/21 22/1/22
f 23/1/23 24/1/24 25/1/25
f 26/1/26 27/1/27 28/1/28
f 45/1/29 46/1/30 47/1/31
f 48/1/32 49/1/33 50/1/34
f 51/1/35 52/1/36 53/1/37
f 54/1/38 55/1/39 56/1/40
f 153/1/41 155/1/42 156/1/43
f 157/1/44 158/1/45 159/1/46
f 164/1/47 165/1/48 166/1/49
f 167/1/50 169/1/51 170/1/52
f 171/1/53 172/1/54 173/1/55
f 176/1/56 178/1/57 179/1/58
f 180/1/59 181/1/60 182/1/61
f 183/1/62 185/1/63 186/1/64
f 189/1/65 190/1/66 191/1/67
f 192/1/68 194/1/69 195/1/70
f 198/1/71 200/1/72 201/1/73
f 202/1/74 203/1/75 204/1/76
f 209/1/77 210/1/78 211/1/79
f 213/1/80 215/1/81 212/1/82
f 216/1/83 217/1/84 218/1/85
f 222/1/86 224/1/87 221/1/88
f 225/1/89 226/1/90 227/1/91
f 228/1/92 229/1/93 230/1/94
f 245/1/95 246/1/96 247/1/97
f 248/1/98 249/1/99 250/1/100
f 259/1/101 260/1/102 261/1/103
f 262/1/104 263/1/105 264/1/106
f 269/1/107 270/1/108 271/1/109
f 272/1/110 273/1/111 274/1/112
f 281/1/113 282/1/114 283/1/115
f 284/1/116 285/1/117 286/1/118
f 287/1/119 288/1/120 289/1/121
f 290/1/122 291/1/123 292/1/124
f 293/1/125 294/1/126 295/1/127
f 296/1/128 297/1/129 298/1/130
f 299/1/131 300/1/132 301/1/133
f 302/1/134 303/1/135 304/1/136
f 305/1/137 306/1/138 307/1/139
f 308/1/140 309/1/141 310/1/142
f 311/1/143 312/1/144 313/1/145
f 314/1/146 315/1/147 316/1/148
f 317/1/149 318/1/150 319/1/151
f 320/1/152 321/1/153 322/1/154
f 323/1/155 324/1/156 325/1/157
f 326/1/158 327/1/159 328/1/160
f 329/2/161 330/3/162 331/4/163
f 332/5/164 333/6/165 334/7/166
f 335/8/167 336/9/168 337/10/169
f 338/11/170 339/12/171 340/13/172
f 341/14/173 342/15/174 343/16/175
f 344/17/176 345/18/177 346/19/178
f 347/20/179 348/21/180 349/22/181
f 350/23/182 351/24/183 352/25/184
f 20/1/20 17/1/17 19/1/19
f 23/1/23 28/1/28 24/1/24
f 45/1/29 50/1/34 46/1/30
f 54/1/38 51/1/35 53/1/37
f 108/1/185 110/1/186 107/1/187
f 111/1/188 114/1/189 112/1/190
f 119/1/191 118/1/192 117/1/193
f 127/1/194 123/1/195 124/1/196
f 130/1/197 134/1/198 129/1/199
f 137/1/200 140/1/201 138/1/202
f 143/1/203 142/1/204 141/1/205
f 149/1/206 147/1/207 148/1/208
f 156/1/43 161/1/209 153/1/41
f 155/1/42 159/1/46 156/1/43
f 168/1/210 162/1/211 163/1/212
f 169/1/51 165/1/48 164/1/47
f 173/1/55 176/1/56 171/1/53
f 175/1/213 177/1/214 174/1/215
f 183/1/62 181/1/60 180/1/59
f 187/1/216 186/1/64 185/1/63
f 192/1/68 189/1/65 191/1/67
f 196/1/217 195/1/70 194/1/69
f 201/1/73 206/1/218 198/1/71
f 200/1/72 204/1/76 201/1/73
f 212/1/82 207/1/219 208/1/220
f 213/1/80 209/1/77 211/1/79
f 218/1/85 224/1/87 216/1/83
f 220/1/221 221/1/88 219/1/222
f 225/1/89 230/1/94 226/1/90
f 237/1/223 235/1/224 236/1/225
f 243/1/226 239/1/227 240/1/228
f 245/1/95 250/1/100 246/1/96
f 254/1/229 256/1/230 253/1/231
f 261/1/103 264/1/106 259/1/101
f 271/1/109 274/1/112 269/1/107
f 276/1/232 280/1/233 275/1/234
f 284/1/116 281/1/113 283/1/115
f 287/1/119 292/1/124 288/1/120
f 297/1/129 293/1/125 295/1/127
f 301/1/133 304/1/136 299/1/131
f 307/1/139 310/1/142 305/1/137
f 314/1/146 312/1/144 311/1/143
f 317/1/149 322/1/154 318/1/150
f 326/1/158 323/1/155 325/1/157
f 29/1/235 23/1/23 25/1/25
f 20/1/20 33/1/236 21/1/21
f 36/1/237 31/1/238 32/1/239
f 56/1/40 39/1/240 40/1/241
f 39/1/240 42/1/242 40/1/241
f 41/1/243 48/1/32 42/1/242
f 29/1/235 46/1/30 30/1/244
f 53/1/37 33/1/236 34/1/245
f 63/1/246 61/1/247 62/1/248
f 69/1/249 65/1/250 66/1/251
f 77/1/252 57/1/253 58/1/254
f 79/1/255 72/1/256 71/1/257
f 99/1/258 82/1/259 81/1/260
f 103/1/261 97/1/262 98/1/263
f 87/1/264 83/1/265 84/1/266
f 98/1/263 88/1/267 87/1/264
f 60/1/268 82/1/259 59/1/269
f 63/1/246 92/1/270 64/1/271
f 69/1/249 96/1/272 70/1/273
f 79/1/255 102/1/274 80/1/275
f 126/1/276 121/1/277 122/1/278
f 152/1/279 131/1/280 132/1/281
f 131/1/280 136/1/282 132/1/281
f 135/1/283 146/1/284 136/1/282
f 134/1/198 110/1/186 109/1/285
f 140/1/201 111/1/188 112/1/190
f 144/1/286 117/1/193 118/1/192
f 123/1/195 147/1/207 124/1/196
f 166/1/49 171/1/53 164/1/47
f 184/1/287 155/1/42 154/1/288
f 192/1/68 223/1/289 193/1/290
f 211/1/79 203/1/75 202/1/74
f 190/1/66 159/1/46 158/1/45
f 206/1/218 163/1/212 162/1/211
f 174/1/215 207/1/219 175/1/213
f 181/1/60 217/1/84 182/1/61
f 238/1/291 227/1/91 226/1/90
f 227/1/91 248/1/98 225/1/89
f 243/1/226 249/1/99 244/1/292
f 273/1/111 279/1/293 274/1/112
f 260/1/102 256/1/230 255/1/294
f 262/1/104 270/1/108 263/1/105
f 229/1/93 253/1/231 230/1/94
f 235/1/224 263/1/105 236/1/225
f 267/1/295 241/1/296 242/1/297
f 252/1/298 278/1/299 251/1/300
f 294/1/126 287/1/119 289/1/121
f 284/1/116 300/1/132 285/1/117
f 308/1/140 327/1/159 309/1/141
f 313/1/145 320/1/152 311/1/143
f 285/1/117 305/1/137 286/1/118
f 299/1/131 324/1/156 300/1/132
f 35/1/301 19/1/19 18/1/18
f 28/1/28 18/1/18 17/1/17
f 26/1/26 31/1/238 27/1/27
f 37/1/302 22/1/22 21/1/21
f 37/1/302 51/1/35 38/1/303
f 24/1/24 43/1/304 25/1/25
f 45/1/29 43/1/304 44/1/305
f 49/1/33 54/1/38 50/1/34
f 78/1/306 73/1/307 74/1/308
f 68/1/309 58/1/254 57/1/253
f 74/1/308 67/1/310 68/1/309
f 76/1/311 60/1/268 59/1/269
f 100/1/312 75/1/313 76/1/311
f 86/1/314 62/1/248 61/1/247
f 92/1/270 85/1/315 86/1/314
f 90/1/316 66/1/251 65/1/250
f 90/1/316 95/1/317 89/1/318
f 93/1/319 71/1/257 72/1/256
f 102/1/274 94/1/320 93/1/319
f 104/1/321 84/1/266 83/1/265
f 125/1/322 105/1/323 106/1/324
f 105/1/323 115/1/325 106/1/324
f 116/1/326 121/1/277 115/1/325
f 107/1/187 129/1/199 108/1/185
f 137/1/200 114/1/189 113/1/327
f 119/1/191 142/1/204 120/1/328
f 127/1/194 149/1/206 128/1/329
f 151/1/330 146/1/284 145/1/331
f 185/1/63 179/1/58 178/1/57
f 167/1/50 154/1/288 153/1/41
f 176/1/56 170/1/52 169/1/51
f 157/1/44 182/1/61 158/1/45
f 197/1/332 161/1/209 160/1/333
f 217/1/84 191/1/67 190/1/66
f 204/1/76 166/1/49 165/1/48
f 172/1/54 209/1/77 173/1/55
f 187/1/216 219/1/222 188/1/334
f 193/1/290 198/1/71 194/1/69
f 199/1/335 213/1/80 200/1/72
f 214/1/336 222/1/86 215/1/81
f 245/1/95 229/1/93 228/1/92
f 276/1/232 247/1/97 246/1/96
f 233/1/337 231/1/338 232/1/339
f 265/1/340 234/1/341 233/1/337
f 231/1/338 257/1/342 232/1/339
f 258/1/343 265/1/340 257/1/342
f 270/1/108 240/1/228 239/1/227
f 252/1/298 242/1/297 241/1/296
f 267/1/295 277/1/344 268/1/345
f 273/1/111 261/1/103 260/1/102
f 303/1/135 283/1/115 282/1/114
f 297/1/129 303/1/135 298/1/130
f 281/1/113 291/1/123 282/1/114
f 296/1/128 291/1/123 290/1/122
f 306/1/138 323/1/155 307/1/139
f 316/1/148 289/1/121 288/1/120
f 317/1/149 315/1/147 314/1/146
f 319/1/151 295/1/127 294/1/126
f 313/1/145 310/1/142 309/1/141
f 327/1/159 322/1/154 321/1/153
f 331/4/163 334/26/166 329/2/161
f 329/2/161 335/8/167 330/3/162
f 336/9/168 340/13/172 337/10/169
f 337/10/169 349/22/181 335/8/167
f 347/20/179 352/25/184 348/21/180
f 341/14/173 348/21/180 342/15/174
f 342/15/174 346/19/178 343/16/175
f 330/27/162 343/16/175 331/28/163
f 339/12/171 350/23/182 340/13/172
f 344/17/176 351/24/183 345/18/177
f 333/29/165 338/11/170 334/26/166
f 332/5/164 345/18/177 333/6/165
f 2/1/3 17/1/17 1/1/1
f 17/1/17 22/1/22 1/1/1
f 2/1/3 28/1/28 17/1/17
f 19/1/19 34/1/245 20/1/20
f 19/1/19 36/1/237 34/1/245
f 18/1/18 31/1/238 35/1/301
f 18/1/18 27/1/27 31/1/238
f 21/1/21 33/1/236 52/1/36
f 22/1/22 5/1/4 1/1/1
f 21/1/21 52/1/36 37/1/302
f 22/1/22 38/1/303 5/1/4
f 6/1/2 24/1/24 2/1/3
f 2/1/3 24/1/24 28/1/28
f 30/1/244 26/1/26 23/1/23
f 6/1/2 44/1/305 24/1/24
f 25/1/25 47/1/31 29/1/235
f 25/1/25 43/1/304 47/1/31
f 30/1/244 32/1/239 26/1/26
f 30/1/244 3/1/6 32/1/239
f 46/1/30 3/1/6 30/1/244
f 3/1/6 36/1/237 32/1/239
f 4/1/5 53/1/37 34/1/245
f 34/1/245 36/1/237 4/1/5
f 3/1/6 4/1/5 36/1/237
f 38/1/303 40/1/241 5/1/4
f 38/1/303 56/1/40 40/1/241
f 38/1/303 51/1/35 56/1/40
f 39/1/240 55/1/39 49/1/33
f 42/1/242 5/1/4 40/1/241
f 39/1/240 49/1/33 41/1/243
f 42/1/242 6/1/2 5/1/4
f 42/1/242 44/1/305 6/1/2
f 48/1/32 44/1/305 42/1/242
f 48/1/32 45/1/29 44/1/305
f 46/1/30 7/1/7 3/1/6
f 7/1/7 46/1/30 50/1/34
f 50/1/34 8/1/8 7/1/7
f 50/1/34 54/1/38 8/1/8
f 53/1/37 8/1/8 54/1/38
f 4/1/5 8/1/8 53/1/37
f 64/1/271 57/1/253 61/1/247
f 57/1/253 59/1/269 61/1/247
f 64/1/271 68/1/309 57/1/253
f 78/1/306 59/1/269 57/1/253
f 58/1/254 73/1/307 77/1/252
f 58/1/254 67/1/310 73/1/307
f 78/1/306 76/1/311 59/1/269
f 82/1/259 61/1/247 59/1/269
f 60/1/268 99/1/258 81/1/260
f 60/1/268 75/1/313 99/1/258
f 82/1/259 86/1/314 61/1/247
f 62/1/248 91/1/346 63/1/246
f 62/1/248 85/1/315 91/1/346
f 64/1/271 65/1/250 68/1/309
f 92/1/270 65/1/250 64/1/271
f 70/1/273 68/1/309 65/1/250
f 92/1/270 90/1/316 65/1/250
f 66/1/251 95/1/317 69/1/249
f 66/1/251 89/1/318 95/1/317
f 70/1/273 74/1/308 68/1/309
f 70/1/273 72/1/256 74/1/308
f 96/1/272 72/1/256 70/1/273
f 80/1/275 74/1/308 72/1/256
f 96/1/272 93/1/319 72/1/256
f 79/1/255 71/1/257 94/1/320
f 80/1/275 78/1/306 74/1/308
f 102/1/274 76/1/311 80/1/275
f 76/1/311 78/1/306 80/1/275
f 102/1/274 100/1/312 76/1/311
f 79/1/255 94/1/320 101/1/347
f 82/1/259 83/1/265 86/1/314
f 100/1/312 83/1/265 82/1/259
f 100/1/312 104/1/321 83/1/265
f 88/1/267 86/1/314 83/1/265
f 84/1/266 98/1/263 87/1/264
f 84/1/266 103/1/261 98/1/263
f 88/1/267 92/1/270 86/1/314
f 88/1/267 90/1/316 92/1/270
f 97/1/262 90/1/316 88/1/267
f 97/1/262 96/1/272 90/1/316
f 104/1/321 93/1/319 97/1/262
f 93/1/319 96/1/272 97/1/262
f 104/1/321 102/1/274 93/1/319
f 100/1/312 102/1/274 104/1/321
f 112/1/190 105/1/323 110/1/186
f 105/1/323 107/1/187 110/1/186
f 112/1/190 116/1/326 105/1/323
f 105/1/323 124/1/196 107/1/187
f 105/1/323 126/1/276 124/1/196
f 106/1/324 121/1/277 125/1/322
f 106/1/324 115/1/325 121/1/277
f 107/1/187 124/1/196 147/1/207
f 108/1/185 134/1/198 109/1/285
f 107/1/187 147/1/207 130/1/197
f 108/1/185 129/1/199 134/1/198
f 110/1/186 133/1/348 140/1/201
f 110/1/186 140/1/201 112/1/190
f 112/1/190 114/1/189 116/1/326
f 139/1/349 113/1/327 111/1/188
f 118/1/192 116/1/326 114/1/189
f 139/1/349 137/1/200 113/1/327
f 114/1/189 144/1/286 118/1/192
f 114/1/189 138/1/202 144/1/286
f 118/1/192 122/1/278 116/1/326
f 118/1/192 120/1/328 122/1/278
f 143/1/203 119/1/191 117/1/193
f 120/1/328 126/1/276 122/1/278
f 143/1/203 141/1/205 119/1/191
f 120/1/328 127/1/194 126/1/276
f 127/1/194 120/1/328 142/1/204
f 128/1/329 148/1/208 123/1/195
f 124/1/196 126/1/276 127/1/194
f 127/1/194 142/1/204 150/1/350
f 128/1/329 149/1/206 148/1/208
f 130/1/197 132/1/281 133/1/348
f 130/1/197 152/1/279 132/1/281
f 130/1/197 147/1/207 152/1/279
f 131/1/280 151/1/330 145/1/331
f 136/1/282 133/1/348 132/1/281
f 131/1/280 145/1/331 135/1/283
f 136/1/282 140/1/201 133/1/348
f 136/1/282 138/1/202 140/1/201
f 146/1/284 138/1/202 136/1/282
f 146/1/284 144/1/286 138/1/202
f 146/1/284 150/1/350 142/1/204
f 142/1/204 144/1/286 146/1/284
f 146/1/284 152/1/279 150/1/350
f 147/1/207 150/1/350 152/1/279
f 162/1/211 153/1/41 161/1/209
f 156/1/43 159/1/46 160/1/333
f 162/1/211 167/1/50 153/1/41
f 183/1/62 157/1/44 155/1/42
f 154/1/288 179/1/58 184/1/287
f 154/1/288 170/1/52 179/1/58
f 183/1/62 180/1/59 157/1/44
f 189/1/65 160/1/333 159/1/46
f 158/1/45 217/1/84 190/1/66
f 158/1/45 182/1/61 217/1/84
f 189/1/65 197/1/332 160/1/333
f 161/1/209 206/1/218 162/1/211
f 161/1/209 196/1/217 206/1/218
f 163/1/212 165/1/48 168/1/210
f 205/1/351 165/1/48 163/1/212
f 171/1/53 169/1/51 164/1/47
f 205/1/351 204/1/76 165/1/48
f 166/1/49 210/1/78 172/1/54
f 166/1/49 203/1/75 210/1/78
f 171/1/53 176/1/56 169/1/51
f 173/1/55 174/1/215 177/1/214
f 173/1/55 208/1/220 174/1/215
f 173/1/55 209/1/77 208/1/220
f 187/1/216 178/1/57 175/1/213
f 187/1/216 175/1/213 207/1/219
f 187/1/216 185/1/63 178/1/57
f 188/1/334 218/1/85 181/1/60
f 181/1/60 186/1/64 188/1/334
f 187/1/216 207/1/219 220/1/221
f 188/1/334 219/1/222 218/1/85
f 189/1/65 195/1/70 197/1/332
f 191/1/67 224/1/87 192/1/68
f 191/1/67 216/1/83 224/1/87
f 193/1/290 223/1/289 214/1/336
f 194/1/69 206/1/218 196/1/217
f 194/1/69 198/1/71 206/1/218
f 193/1/290 214/1/336 199/1/335
f 201/1/73 204/1/76 205/1/351
f 200/1/72 211/1/79 202/1/74
f 200/1/72 213/1/80 211/1/79
f 215/1/81 220/1/221 207/1/219
f 208/1/220 209/1/77 212/1/82
f 215/1/81 222/1/86 220/1/221
f 218/1/85 219/1/222 221/1/88
f 231/1/338 238/1/291 226/1/90
f 226/1/90 230/1/94 231/1/338
f 227/1/91 237/1/223 244/1/292
f 248/1/98 228/1/92 225/1/89
f 227/1/91 244/1/292 249/1/99
f 248/1/98 245/1/95 228/1/92
f 253/1/231 231/1/338 230/1/94
f 229/1/93 275/1/234 254/1/229
f 229/1/93 247/1/97 275/1/234
f 253/1/231 258/1/343 231/1/338
f 231/1/338 234/1/341 238/1/291
f 232/1/339 265/1/340 233/1/337
f 232/1/339 257/1/342 265/1/340
f 234/1/341 235/1/224 238/1/291
f 234/1/341 264/1/106 235/1/224
f 234/1/341 266/1/352 264/1/106
f 236/1/225 244/1/292 237/1/223
f 236/1/225 263/1/105 270/1/108
f 236/1/225 270/1/108 239/1/227
f 236/1/225 239/1/227 244/1/292
f 240/1/228 242/1/297 243/1/226
f 240/1/228 267/1/295 242/1/297
f 240/1/228 269/1/107 267/1/295
f 242/1/297 250/1/100 243/1/226
f 252/1/298 241/1/296 268/1/345
f 242/1/297 251/1/300 250/1/100
f 278/1/299 246/1/96 251/1/300
f 246/1/96 250/1/100 251/1/300
f 278/1/299 276/1/232 246/1/96
f 252/1/298 268/1/345 277/1/344
f 253/1/231 256/1/230 258/1/343
f 275/1/234 255/1/294 254/1/229
f 275/1/234 280/1/233 255/1/294
f 259/1/101 258/1/343 256/1/230
f 255/1/294 273/1/111 260/1/102
f 255/1/294 280/1/233 273/1/111
f 259/1/101 266/1/352 258/1/343
f 259/1/101 264/1/106 266/1/352
f 261/1/103 271/1/109 262/1/104
f 261/1/103 272/1/110 271/1/109
f 279/1/293 267/1/295 274/1/112
f 267/1/295 269/1/107 274/1/112
f 279/1/293 278/1/299 267/1/295
f 276/1/232 278/1/299 279/1/293
f 10/1/11 281/1/113 9/1/9
f 281/1/113 286/1/118 9/1/9
f 10/1/11 292/1/124 281/1/113
f 283/1/115 301/1/133 284/1/116
f 283/1/115 302/1/134 301/1/133
f 282/1/114 298/1/130 303/1/135
f 282/1/114 291/1/123 298/1/130
f 285/1/117 300/1/132 324/1/156
f 305/1/137 9/1/9 286/1/118
f 285/1/117 324/1/156 306/1/138
f 14/1/10 288/1/120 10/1/11
f 10/1/11 288/1/120 292/1/124
f 293/1/125 290/1/122 287/1/119
f 14/1/10 316/1/148 288/1/120
f 289/1/121 319/1/151 294/1/126
f 289/1/121 315/1/147 319/1/151
f 293/1/125 296/1/128 290/1/122
f 295/1/127 11/1/14 297/1/129
f 295/1/127 15/1/15 11/1/14
f 295/1/127 318/1/150 15/1/15
f 12/1/13 297/1/129 11/1/14
f 12/1/13 304/1/136 297/1/129
f 12/1/13 325/1/157 299/1/131
f 299/1/131 304/1/136 12/1/13
f 305/1/137 13/1/12 9/1/9
f 305/1/137 310/1/142 13/1/12
f 307/1/139 328/1/160 308/1/140
f 307/1/139 323/1/155 328/1/160
f 309/1/141 327/1/159 321/1/153
f 310/1/142 14/1/10 13/1/12
f 310/1/142 312/1/144 14/1/10
f 309/1/141 321/1/153 313/1/145
f 312/1/144 316/1/148 14/1/10
f 320/1/152 314/1/146 311/1/143
f 320/1/152 317/1/149 314/1/146
f 15/1/15 318/1/150 322/1/154
f 322/1/154 16/1/16 15/1/15
f 322/1/154 326/1/158 16/1/16
f 325/1/157 16/1/16 326/1/158
f 12/1/13 16/1/16 325/1/157
f 346/19/178 332/30/164 331/31/163
f 346/19/178 331/31/163 343/16/175
f 349/22/181 341/14/173 330/27/162
f 334/26/166 336/9/168 329/2/161
f 349/22/181 330/27/162 335/32/167
f 334/26/166 338/11/170 336/9/168
f 339/33/171 333/6/165 345/18/177
f 340/13/172 347/20/179 337/10/169
f 340/13/172 350/23/182 347/20/179
f 339/33/171 345/18/177 351/24/183
f 352/25/184 344/17/176 342/15/174
f 352/25/184 342/15/174 348/21/180
f 354/34/353 355/35/354 353/36/355
f 356/37/356 359/38/357 355/35/354
f 360/39/358 357/40/359 359/38/357
f 358/41/360 353/42/355 357/40/359
f 359/38/357 353/43/355 355/44/354
f 356/45/356 358/41/360 360/39/358
f 153/1/41 154/1/288 155/1/42
f 167/1/50 168/1/210 169/1/51
f 176/1/56 177/1/214 178/1/57
f 183/1/62 184/1/287 185/1/63
f 192/1/68 193/1/290 194/1/69
f 198/1/71 199/1/335 200/1/72
f 213/1/80 214/1/336 215/1/81
f 222/1/86 223/1/289 224/1/87
f 20/1/20 22/1/22 17/1/17
f 23/1/23 26/1/26 28/1/28
f 45/1/29 48/1/32 50/1/34
f 54/1/38 56/1/40 51/1/35
f 108/1/185 109/1/285 110/1/186
f 111/1/188 113/1/327 114/1/189
f 119/1/191 120/1/328 118/1/192
f 127/1/194 128/1/329 123/1/195
f 130/1/197 133/1/348 134/1/198
f 137/1/200 139/1/349 140/1/201
f 143/1/203 144/1/286 142/1/204
f 149/1/206 150/1/350 147/1/207
f 156/1/43 160/1/333 161/1/209
f 155/1/42 157/1/44 159/1/46
f 168/1/210 167/1/50 162/1/211
f 169/1/51 168/1/210 165/1/48
f 173/1/55 177/1/214 176/1/56
f 175/1/213 178/1/57 177/1/214
f 183/1/62 186/1/64 181/1/60
f 187/1/216 188/1/334 186/1/64
f 192/1/68 195/1/70 189/1/65
f 196/1/217 197/1/332 195/1/70
f 201/1/73 205/1/351 206/1/218
f 200/1/72 202/1/74 204/1/76
f 212/1/82 215/1/81 207/1/219
f 213/1/80 212/1/82 209/1/77
f 218/1/85 221/1/88 224/1/87
f 220/1/221 222/1/86 221/1/88
f 225/1/89 228/1/92 230/1/94
f 237/1/223 238/1/291 235/1/224
f 243/1/226 244/1/292 239/1/227
f 245/1/95 248/1/98 250/1/100
f 254/1/229 255/1/294 256/1/230
f 261/1/103 262/1/104 264/1/106
f 271/1/109 272/1/110 274/1/112
f 276/1/232 279/1/293 280/1/233
f 284/1/116 286/1/118 281/1/113
f 287/1/119 290/1/122 292/1/124
f 297/1/129 296/1/128 293/1/125
f 301/1/133 302/1/134 304/1/136
f 307/1/139 308/1/140 310/1/142
f 314/1/146 316/1/148 312/1/144
f 317/1/149 320/1/152 322/1/154
f 326/1/158 328/1/160 323/1/155
f 29/1/235 30/1/244 23/1/23
f 20/1/20 34/1/245 33/1/236
f 36/1/237 35/1/301 31/1/238
f 56/1/40 55/1/39 39/1/240
f 39/1/240 41/1/243 42/1/242
f 41/1/243 49/1/33 48/1/32
f 29/1/235 47/1/31 46/1/30
f 53/1/37 52/1/36 33/1/236
f 63/1/246 64/1/271 61/1/247
f 69/1/249 70/1/273 65/1/250
f 77/1/252 78/1/306 57/1/253
f 79/1/255 80/1/275 72/1/256
f 99/1/258 100/1/312 82/1/259
f 103/1/261 104/1/321 97/1/262
f 87/1/264 88/1/267 83/1/265
f 98/1/263 97/1/262 88/1/267
f 60/1/268 81/1/260 82/1/259
f 63/1/246 91/1/346 92/1/270
f 69/1/249 95/1/317 96/1/272
f 79/1/255 101/1/347 102/1/274
f 126/1/276 125/1/322 121/1/277
f 152/1/279 151/1/330 131/1/280
f 131/1/280 135/1/283 136/1/282
f 135/1/283 145/1/331 146/1/284
f 134/1/198 133/1/348 110/1/186
f 140/1/201 139/1/349 111/1/188
f 144/1/286 143/1/203 117/1/193
f 123/1/195 148/1/208 147/1/207
f 166/1/49 172/1/54 171/1/53
f 184/1/287 183/1/62 155/1/42
f 192/1/68 224/1/87 223/1/289
f 211/1/79 210/1/78 203/1/75
f 190/1/66 189/1/65 159/1/46
f 206/1/218 205/1/351 163/1/212
f 174/1/215 208/1/220 207/1/219
f 181/1/60 218/1/85 217/1/84
f 238/1/291 237/1/223 227/1/91
f 227/1/91 249/1/99 248/1/98
f 243/1/226 250/1/100 249/1/99
f 273/1/111 280/1/233 279/1/293
f 260/1/102 259/1/101 256/1/230
f 262/1/104 271/1/109 270/1/108
f 229/1/93 254/1/229 253/1/231
f 235/1/224 264/1/106 263/1/105
f 267/1/295 268/1/345 241/1/296
f 252/1/298 277/1/344 278/1/299
f 294/1/126 293/1/125 287/1/119
f 284/1/116 301/1/133 300/1/132
f 308/1/140 328/1/160 327/1/159
f 313/1/145 321/1/153 320/1/152
f 285/1/117 306/1/138 305/1/137
f 299/1/131 325/1/157 324/1/156
f 35/1/301 36/1/237 19/1/19
f 28/1/28 27/1/27 18/1/18
f 26/1/26 32/1/239 31/1/238
f 37/1/302 38/1/303 22/1/22
f 37/1/302 52/1/36 51/1/35
f 24/1/24 44/1/305 43/1/304
f 45/1/29 47/1/31 43/1/304
f 49/1/33 55/1/39 54/1/38
f 78/1/306 77/1/252 73/1/307
f 68/1/309 67/1/310 58/1/254
f 74/1/308 73/1/307 67/1/310
f 76/1/311 75/1/313 60/1/268
f 100/1/312 99/1/258 75/1/313
f 86/1/314 85/1/315 62/1/248
f 92/1/270 91/1/346 85/1/315
f 90/1/316 89/1/318 66/1/251
f 90/1/316 96/1/272 95/1/317
f 93/1/319 94/1/320 71/1/257
f 102/1/274 101/1/347 94/1/320
f 104/1/321 103/1/261 84/1/266
f 125/1/322 126/1/276 105/1/323
f 105/1/323 116/1/326 115/1/325
f 116/1/326 122/1/278 121/1/277
f 107/1/187 130/1/197 129/1/199
f 137/1/200 138/1/202 114/1/189
f 119/1/191 141/1/205 142/1/204
f 127/1/194 150/1/350 149/1/206
f 151/1/330 152/1/279 146/1/284
f 185/1/63 184/1/287 179/1/58
f 167/1/50 170/1/52 154/1/288
f 176/1/56 179/1/58 170/1/52
f 157/1/44 180/1/59 182/1/61
f 197/1/332 196/1/217 161/1/209
f 217/1/84 216/1/83 191/1/67
f 204/1/76 203/1/75 166/1/49
f 172/1/54 210/1/78 209/1/77
f 187/1/216 220/1/221 219/1/222
f 193/1/290 199/1/335 198/1/71
f 199/1/335 214/1/336 213/1/80
f 214/1/336 223/1/289 222/1/86
f 245/1/95 247/1/97 229/1/93
f 276/1/232 275/1/234 247/1/97
f 233/1/337 234/1/341 231/1/338
f 265/1/340 266/1/352 234/1/341
f 231/1/338 258/1/343 257/1/342
f 258/1/343 266/1/352 265/1/340
f 270/1/108 269/1/107 240/1/228
f 252/1/298 251/1/300 242/1/297
f 267/1/295 278/1/299 277/1/344
f 273/1/111 272/1/110 261/1/103
f 303/1/135 302/1/134 283/1/115
f 297/1/129 304/1/136 303/1/135
f 281/1/113 292/1/124 291/1/123
f 296/1/128 298/1/130 291/1/123
f 306/1/138 324/1/156 323/1/155
f 316/1/148 315/1/147 289/1/121
f 317/1/149 319/1/151 315/1/147
f 319/1/151 318/1/150 295/1/127
f 313/1/145 312/1/144 310/1/142
f 327/1/159 326/1/158 322/1/154
f 331/4/163 332/46/164 334/26/166
f 329/2/161 336/9/168 335/8/167
f 336/9/168 338/11/170 340/13/172
f 337/10/169 347/20/179 349/22/181
f 347/20/179 350/23/182 352/25/184
f 341/14/173 349/22/181 348/21/180
f 342/15/174 344/17/176 346/19/178
f 330/27/162 341/14/173 343/16/175
f 339/12/171 351/24/183 350/23/182
f 344/17/176 352/25/184 351/24/183
f 333/29/165 339/12/171 338/11/170
f 332/5/164 346/19/178 345/18/177
f 354/34/353 356/37/356 355/35/354
f 356/37/356 360/39/358 359/38/357
f 360/39/358 358/41/360 357/40/359
f 358/41/360 354/47/353 353/42/355
f 359/38/357 357/40/359 353/43/355
f 356/45/356 354/48/353 358/41/360
