# Blender 5.2.0 LTS
# www.blender.org
o unit_veiled_colossus
v 0.000000 3.760000 0.220000
v 0.000000 3.480000 0.220000
v -0.664644 0.650000 0.364644
v -0.664644 0.685356 0.400000
v -0.700000 0.685356 0.364644
v -0.664644 0.660355 0.389645
v -0.685057 0.664943 0.385057
v -0.689645 0.685356 0.389645
v -0.689645 0.660355 0.364644
v -0.664644 1.514644 0.400000
v -0.664644 1.550000 0.364644
v -0.700000 1.514644 0.364644
v -0.664644 1.539644 0.389645
v -0.685057 1.535057 0.385057
v -0.689645 1.539644 0.364644
v -0.689645 1.514644 0.389645
v -0.664644 0.650000 -0.364644
v -0.700000 0.685356 -0.364644
v -0.664644 0.685356 -0.400000
v -0.689645 0.660355 -0.364644
v -0.685057 0.664943 -0.385057
v -0.689645 0.685356 -0.389645
v -0.664644 0.660355 -0.389645
v -0.664644 1.550000 -0.364644
v -0.664644 1.514644 -0.400000
v -0.700000 1.514644 -0.364644
v -0.664644 1.539644 -0.389645
v -0.685057 1.535057 -0.385057
v -0.689645 1.514644 -0.389645
v -0.689645 1.539644 -0.364644
v 0.664644 0.650000 0.364644
v 0.700000 0.685356 0.364644
v 0.664644 0.685356 0.400000
v 0.689645 0.660355 0.364644
v 0.685057 0.664943 0.385057
v 0.689645 0.685356 0.389645
v 0.664644 0.660355 0.389645
v 0.664644 1.550000 0.364644
v 0.664644 1.514644 0.400000
v 0.700000 1.514644 0.364644
v 0.664644 1.539644 0.389645
v 0.685057 1.535057 0.385057
v 0.689645 1.514644 0.389645
v 0.689645 1.539644 0.364644
v 0.664644 0.650000 -0.364644
v 0.664644 0.685356 -0.400000
v 0.700000 0.685356 -0.364644
v 0.664644 0.660355 -0.389645
v 0.685057 0.664943 -0.385057
v 0.689645 0.685356 -0.389645
v 0.689645 0.660355 -0.364644
v 0.664644 1.550000 -0.364644
v 0.700000 1.514644 -0.364644
v 0.664644 1.514644 -0.400000
v 0.689645 1.539644 -0.364644
v 0.685057 1.535057 -0.385057
v 0.689645 1.514644 -0.389645
v 0.664644 1.539644 -0.389645
v -0.864644 1.650000 0.439644
v -0.864644 1.685356 0.475000
v -0.900000 1.685356 0.439644
v -0.864644 1.660355 0.464645
v -0.885057 1.664943 0.460057
v -0.889645 1.685355 0.464645
v -0.889645 1.660355 0.439644
v -0.864644 3.314644 0.475000
v -0.864644 3.350000 0.439644
v -0.900000 3.314644 0.439644
v -0.864644 3.339644 0.464645
v -0.885057 3.335057 0.460057
v -0.889645 3.339644 0.439644
v -0.889645 3.314644 0.464645
v -0.864644 1.650000 -0.439644
v -0.900000 1.685356 -0.439644
v -0.864644 1.685356 -0.475000
v -0.889645 1.660355 -0.439644
v -0.885057 1.664943 -0.460057
v -0.889645 1.685355 -0.464645
v -0.864644 1.660355 -0.464645
v -0.864644 3.350000 -0.439644
v -0.864644 3.314644 -0.475000
v -0.900000 3.314644 -0.439644
v -0.864644 3.339644 -0.464645
v -0.885057 3.335057 -0.460057
v -0.889645 3.314644 -0.464645
v -0.889645 3.339644 -0.439644
v 0.864644 1.650000 0.439644
v 0.900000 1.685356 0.439644
v 0.864644 1.685356 0.475000
v 0.889645 1.660355 0.439644
v 0.885057 1.664943 0.460057
v 0.889645 1.685355 0.464645
v 0.864644 1.660355 0.464645
v 0.864644 3.350000 0.439644
v 0.864644 3.314644 0.475000
v 0.900000 3.314644 0.439644
v 0.864644 3.339644 0.464645
v 0.885057 3.335057 0.460057
v 0.889645 3.314644 0.464645
v 0.889645 3.339644 0.439644
v 0.864644 1.650000 -0.439644
v 0.864644 1.685356 -0.475000
v 0.900000 1.685356 -0.439644
v 0.864644 1.660355 -0.464645
v 0.885057 1.664943 -0.460057
v 0.889645 1.685355 -0.464645
v 0.889645 1.660355 -0.439644
v 0.864644 3.350000 -0.439644
v 0.900000 3.314644 -0.439644
v 0.864644 3.314644 -0.475000
v 0.889645 3.339644 -0.439644
v 0.885057 3.335057 -0.460057
v 0.889645 3.314644 -0.464645
v 0.864644 3.339644 -0.464645
v -0.364644 2.150000 0.464644
v -0.364644 2.185356 0.500000
v -0.400000 2.185356 0.464644
v -0.364644 2.160356 0.489645
v -0.385057 2.164943 0.485057
v -0.389645 2.185356 0.489645
v -0.389645 2.160356 0.464644
v -0.364644 2.914644 0.500000
v -0.364644 2.950000 0.464644
v -0.400000 2.914644 0.464644
v -0.364644 2.939644 0.489645
v -0.385057 2.935057 0.485057
v -0.389645 2.939644 0.464644
v -0.389645 2.914644 0.489645
v -0.364644 2.150000 0.375356
v -0.400000 2.185356 0.375356
v -0.364644 2.185356 0.340000
v -0.389645 2.160356 0.375356
v -0.385057 2.164943 0.354943
v -0.389645 2.185356 0.350355
v -0.364644 2.160356 0.350355
v -0.364644 2.950000 0.375356
v -0.364644 2.914644 0.340000
v -0.400000 2.914644 0.375356
v -0.364644 2.939644 0.350355
v -0.385057 2.935057 0.354943
v -0.389645 2.914644 0.350355
v -0.389645 2.939644 0.375356
v 0.364644 2.150000 0.464644
v 0.400000 2.185356 0.464644
v 0.364644 2.185356 0.500000
v 0.389645 2.160356 0.464644
v 0.385057 2.164943 0.485057
v 0.389645 2.185356 0.489645
v 0.364644 2.160356 0.489645
v 0.364644 2.950000 0.464644
v 0.364644 2.914644 0.500000
v 0.400000 2.914644 0.464644
v 0.364644 2.939644 0.489645
v 0.385057 2.935057 0.485057
v 0.389645 2.914644 0.489645
v 0.389645 2.939644 0.464644
v 0.364644 2.150000 0.375356
v 0.364644 2.185356 0.340000
v 0.400000 2.185356 0.375356
v 0.364644 2.160356 0.350355
v 0.385057 2.164943 0.354943
v 0.389645 2.185356 0.350355
v 0.389645 2.160356 0.375356
v 0.364644 2.950000 0.375356
v 0.400000 2.914644 0.375356
v 0.364644 2.914644 0.340000
v 0.389645 2.939644 0.375356
v 0.385057 2.935057 0.354943
v 0.389645 2.914644 0.350355
v 0.364644 2.939644 0.350355
v -0.314644 3.250000 0.164644
v -0.314644 3.285356 0.200000
v -0.350000 3.285356 0.164644
v -0.314644 3.260355 0.189645
v -0.335057 3.264943 0.185057
v -0.339645 3.285356 0.189645
v -0.339645 3.260355 0.164644
v -0.314644 3.914644 0.200000
v -0.314644 3.950000 0.164644
v -0.350000 3.914644 0.164644
v -0.314644 3.939644 0.189645
v -0.335057 3.935057 0.185057
v -0.339645 3.939644 0.164644
v -0.339645 3.914644 0.189645
v -0.314644 3.250000 -0.364644
v -0.350000 3.285356 -0.364644
v -0.314644 3.285356 -0.400000
v -0.339645 3.260355 -0.364644
v -0.335057 3.264943 -0.385057
v -0.339645 3.285356 -0.389645
v -0.314644 3.260355 -0.389645
v -0.314644 3.950000 -0.364644
v -0.314644 3.914644 -0.400000
v -0.350000 3.914644 -0.364644
v -0.314644 3.939644 -0.389645
v -0.335057 3.935057 -0.385057
v -0.339645 3.914644 -0.389645
v -0.339645 3.939644 -0.364644
v 0.314644 3.250000 0.164644
v 0.350000 3.285356 0.164644
v 0.314644 3.285356 0.200000
v 0.339645 3.260355 0.164644
v 0.335057 3.264943 0.185057
v 0.339645 3.285356 0.189645
v 0.314644 3.260355 0.189645
v 0.314644 3.950000 0.164644
v 0.314644 3.914644 0.200000
v 0.350000 3.914644 0.164644
v 0.314644 3.939644 0.189645
v 0.335057 3.935057 0.185057
v 0.339645 3.914644 0.189645
v 0.339645 3.939644 0.164644
v 0.314644 3.250000 -0.364644
v 0.314644 3.285356 -0.400000
v 0.350000 3.285356 -0.364644
v 0.314644 3.260355 -0.389645
v 0.335057 3.264943 -0.385057
v 0.339645 3.285356 -0.389645
v 0.339645 3.260355 -0.364644
v 0.314644 3.950000 -0.364644
v 0.350000 3.914644 -0.364644
v 0.314644 3.914644 -0.400000
v 0.339645 3.939644 -0.364644
v 0.335057 3.935057 -0.385057
v 0.339645 3.914644 -0.389645
v 0.314644 3.939644 -0.389645
v 0.033382 3.715274 0.137858
v -0.033382 3.715274 0.137858
v 0.000000 3.751092 0.186754
v 0.000000 3.718138 0.134994
v 0.000000 3.732520 0.151785
v -0.017481 3.736521 0.160399
v 0.017481 3.736521 0.160400
v 0.033339 3.620000 0.093810
v -0.033339 3.620000 0.093810
v 0.000000 3.620000 0.088089
v 0.033382 3.524725 0.137858
v 0.000000 3.488908 0.186754
v -0.033382 3.524725 0.137858
v 0.017481 3.503478 0.160400
v -0.000000 3.507479 0.151785
v -0.017481 3.503478 0.160400
v -0.000000 3.521862 0.134995
v 0.081688 3.715274 0.185521
v 0.034479 3.715274 0.138313
v 0.023508 3.751092 0.196492
v 0.060108 3.718138 0.159892
v 0.048235 3.732520 0.171765
v 0.029783 3.736521 0.165495
v 0.054505 3.736521 0.190217
v 0.099550 3.690000 0.167628
v 0.052372 3.690000 0.120450
v 0.080008 3.690000 0.139992
v 0.112804 3.620000 0.154344
v 0.065656 3.620000 0.107196
v 0.093275 3.620000 0.126725
v 0.099550 3.550000 0.167628
v 0.052372 3.550000 0.120450
v 0.080009 3.550000 0.139992
v 0.081687 3.524725 0.185521
v 0.023508 3.488908 0.196492
v 0.034479 3.524725 0.138313
v 0.054504 3.503478 0.190217
v 0.048235 3.507479 0.171765
v 0.029783 3.503478 0.165496
v 0.060108 3.521862 0.159892
v 0.082142 3.715274 0.253382
v 0.082142 3.715274 0.186618
v 0.033246 3.751092 0.220000
v 0.085006 3.718138 0.220000
v 0.068215 3.732520 0.220000
v 0.059601 3.736521 0.202519
v 0.059601 3.736521 0.237481
v 0.107426 3.690000 0.253360
v 0.107426 3.690000 0.186640
v 0.113149 3.690000 0.220000
v 0.126190 3.620000 0.253339
v 0.126190 3.620000 0.186661
v 0.131911 3.620000 0.220000
v 0.107426 3.550000 0.253360
v 0.107426 3.550000 0.186640
v 0.113149 3.550000 0.220000
v 0.082142 3.524725 0.253382
v 0.033246 3.488908 0.220000
v 0.082142 3.524725 0.186618
v 0.059600 3.503478 0.237481
v 0.068215 3.507479 0.220000
v 0.059600 3.503478 0.202519
v 0.085005 3.521862 0.220000
v 0.034479 3.715274 0.301688
v 0.081687 3.715274 0.254479
v 0.023508 3.751092 0.243509
v 0.060108 3.718138 0.280108
v 0.048235 3.732520 0.268235
v 0.054505 3.736521 0.249783
v 0.029783 3.736521 0.274505
v 0.052372 3.690000 0.319550
v 0.099550 3.690000 0.272372
v 0.080008 3.690000 0.300009
v 0.065656 3.620000 0.332804
v 0.112804 3.620000 0.285656
v 0.093275 3.620000 0.313275
v 0.052372 3.550000 0.319550
v 0.099550 3.550000 0.272372
v 0.080009 3.550000 0.300009
v 0.034479 3.524725 0.301687
v 0.023508 3.488908 0.243508
v 0.081687 3.524725 0.254479
v 0.029783 3.503478 0.274504
v 0.048235 3.507479 0.268235
v 0.054504 3.503478 0.249783
v 0.060108 3.521862 0.280108
v -0.033382 3.715274 0.302142
v 0.033382 3.715274 0.302142
v 0.000000 3.751092 0.253246
v -0.000000 3.718138 0.305006
v -0.000000 3.732520 0.288215
v 0.017481 3.736521 0.279601
v -0.017481 3.736521 0.279601
v -0.033360 3.690000 0.327426
v 0.033360 3.690000 0.327426
v 0.000000 3.690000 0.333149
v -0.033339 3.620000 0.346190
v 0.033339 3.620000 0.346190
v 0.000000 3.620000 0.351911
v -0.033360 3.550000 0.327426
v 0.033360 3.550000 0.327426
v 0.000000 3.550000 0.333149
v -0.033382 3.524725 0.302142
v 0.000000 3.488908 0.253246
v 0.033382 3.524725 0.302142
v -0.017481 3.503478 0.279600
v 0.000000 3.507479 0.288215
v 0.017481 3.503478 0.279600
v 0.000000 3.521862 0.305005
v -0.081688 3.715274 0.254479
v -0.034479 3.715274 0.301687
v -0.023508 3.751092 0.243509
v -0.060108 3.718138 0.280108
v -0.048235 3.732520 0.268235
v -0.029783 3.736521 0.274505
v -0.054505 3.736521 0.249783
v -0.099550 3.690000 0.272372
v -0.052372 3.690000 0.319550
v -0.080008 3.690000 0.300009
v -0.112804 3.620000 0.285656
v -0.065656 3.620000 0.332804
v -0.093275 3.620000 0.313275
v -0.099550 3.550000 0.272372
v -0.052372 3.550000 0.319550
v -0.080009 3.550000 0.300009
v -0.081687 3.524725 0.254479
v -0.023508 3.488908 0.243508
v -0.034479 3.524725 0.301687
v -0.054504 3.503478 0.249783
v -0.048235 3.507479 0.268235
v -0.029783 3.503478 0.274505
v -0.060108 3.521862 0.280108
v -0.082142 3.715274 0.186618
v -0.082142 3.715274 0.253382
v -0.033246 3.751092 0.220000
v -0.085006 3.718138 0.220000
v -0.068215 3.732520 0.220000
v -0.059601 3.736521 0.237481
v -0.059601 3.736521 0.202519
v -0.107426 3.690000 0.186640
v -0.107426 3.690000 0.253360
v -0.113149 3.690000 0.220000
v -0.126190 3.620000 0.186661
v -0.126190 3.620000 0.253339
v -0.131911 3.620000 0.220000
v -0.107426 3.550000 0.186640
v -0.107426 3.550000 0.253360
v -0.113149 3.550000 0.220000
v -0.082142 3.524725 0.186618
v -0.033246 3.488908 0.220000
v -0.082142 3.524725 0.253382
v -0.059600 3.503478 0.202519
v -0.068215 3.507479 0.220000
v -0.059600 3.503478 0.237481
v -0.085005 3.521862 0.220000
v -0.034479 3.715274 0.138313
v -0.081687 3.715274 0.185521
v -0.023508 3.751092 0.196492
v -0.060108 3.718138 0.159892
v -0.048235 3.732520 0.171765
v -0.054505 3.736521 0.190217
v -0.029783 3.736521 0.165495
v -0.052372 3.690000 0.120450
v -0.099550 3.690000 0.167628
v -0.080008 3.690000 0.139992
v -0.065656 3.620000 0.107196
v -0.112804 3.620000 0.154344
v -0.093275 3.620000 0.126725
v -0.052372 3.550000 0.120450
v -0.099550 3.550000 0.167628
v -0.080008 3.550000 0.139991
v -0.034479 3.524725 0.138313
v -0.023508 3.488908 0.196492
v -0.081687 3.524725 0.185521
v -0.029783 3.503478 0.165496
v -0.048235 3.507479 0.171765
v -0.054504 3.503478 0.190217
v -0.060108 3.521862 0.159892
v 0.033360 3.690000 0.112574
v -0.033360 3.690000 0.112574
v 0.000000 3.690000 0.106851
v 0.033360 3.550000 0.112574
v -0.033360 3.550000 0.112574
v 0.000000 3.550000 0.106851
v -1.414644 1.200000 0.214644
v -1.414644 1.235356 0.250000
v -1.450000 1.235356 0.214644
v -1.414645 1.210355 0.239645
v -1.435057 1.214943 0.235057
v -1.439645 1.235356 0.239645
v -1.439645 1.210355 0.214644
v -1.414644 3.164644 0.250000
v -1.414644 3.200000 0.214644
v -1.450000 3.164644 0.214644
v -1.414645 3.189644 0.239645
v -1.435057 3.185057 0.235057
v -1.439645 3.189644 0.214644
v -1.439645 3.164644 0.239645
v -1.414644 1.200000 -0.214644
v -1.450000 1.235356 -0.214644
v -1.414644 1.235356 -0.250000
v -1.439645 1.210355 -0.214644
v -1.435057 1.214943 -0.235057
v -1.439645 1.235356 -0.239645
v -1.414645 1.210355 -0.239645
v -1.414644 3.200000 -0.214644
v -1.414644 3.164644 -0.250000
v -1.450000 3.164644 -0.214644
v -1.414645 3.189644 -0.239645
v -1.435057 3.185057 -0.235057
v -1.439645 3.164644 -0.239645
v -1.439645 3.189644 -0.214644
v -0.985356 1.200000 0.214644
v -0.950000 1.235356 0.214644
v -0.985356 1.235356 0.250000
v -0.960355 1.210355 0.214644
v -0.964943 1.214943 0.235057
v -0.960355 1.235356 0.239645
v -0.985356 1.210355 0.239645
v -0.985356 3.200000 0.214644
v -0.985356 3.164644 0.250000
v -0.950000 3.164644 0.214644
v -0.985356 3.189644 0.239645
v -0.964943 3.185057 0.235057
v -0.960355 3.164644 0.239645
v -0.960355 3.189644 0.214644
v -0.985356 1.200000 -0.214644
v -0.985356 1.235356 -0.250000
v -0.950000 1.235356 -0.214644
v -0.985356 1.210355 -0.239645
v -0.964943 1.214943 -0.235057
v -0.960355 1.235356 -0.239645
v -0.960355 1.210355 -0.214644
v -0.985356 3.200000 -0.214644
v -0.950000 3.164644 -0.214644
v -0.985356 3.164644 -0.250000
v -0.960355 3.189644 -0.214644
v -0.964943 3.185057 -0.235057
v -0.960355 3.164644 -0.239645
v -0.985356 3.189644 -0.239645
v 0.985356 1.200000 0.214644
v 0.985356 1.235356 0.250000
v 0.950000 1.235356 0.214644
v 0.985356 1.210355 0.239645
v 0.964943 1.214943 0.235057
v 0.960355 1.235356 0.239645
v 0.960355 1.210355 0.214644
v 0.985356 3.164644 0.250000
v 0.985356 3.200000 0.214644
v 0.950000 3.164644 0.214644
v 0.985356 3.189644 0.239645
v 0.964943 3.185057 0.235057
v 0.960355 3.189644 0.214644
v 0.960355 3.164644 0.239645
v 0.985356 1.200000 -0.214644
v 0.950000 1.235356 -0.214644
v 0.985356 1.235356 -0.250000
v 0.960355 1.210355 -0.214644
v 0.964943 1.214943 -0.235057
v 0.960355 1.235356 -0.239645
v 0.985356 1.210355 -0.239645
v 0.985356 3.200000 -0.214644
v 0.985356 3.164644 -0.250000
v 0.950000 3.164644 -0.214644
v 0.985356 3.189644 -0.239645
v 0.964943 3.185057 -0.235057
v 0.960355 3.164644 -0.239645
v 0.960355 3.189644 -0.214644
v 1.414644 1.200000 0.214644
v 1.450000 1.235356 0.214644
v 1.414644 1.235356 0.250000
v 1.439645 1.210355 0.214644
v 1.435057 1.214943 0.235057
v 1.439645 1.235356 0.239645
v 1.414645 1.210355 0.239645
v 1.414644 3.200000 0.214644
v 1.414644 3.164644 0.250000
v 1.450000 3.164644 0.214644
v 1.414645 3.189644 0.239645
v 1.435057 3.185057 0.235057
v 1.439645 3.164644 0.239645
v 1.439645 3.189644 0.214644
v 1.414644 1.200000 -0.214644
v 1.414644 1.235356 -0.250000
v 1.450000 1.235356 -0.214644
v 1.414645 1.210355 -0.239645
v 1.435057 1.214943 -0.235057
v 1.439645 1.235356 -0.239645
v 1.439645 1.210355 -0.214644
v 1.414644 3.200000 -0.214644
v 1.450000 3.164644 -0.214644
v 1.414644 3.164644 -0.250000
v 1.439645 3.189644 -0.214644
v 1.435057 3.185057 -0.235057
v 1.439645 3.164644 -0.239645
v 1.414645 3.189644 -0.239645
v -0.714644 0.000000 0.239644
v -0.714644 0.035356 0.275000
v -0.750000 0.035356 0.239644
v -0.714644 0.010355 0.264645
v -0.735057 0.014943 0.260057
v -0.739645 0.035356 0.264645
v -0.739645 0.010355 0.239644
v -0.714644 0.864644 0.275000
v -0.714644 0.900000 0.239644
v -0.750000 0.864644 0.239644
v -0.714644 0.889645 0.264645
v -0.735057 0.885057 0.260057
v -0.739645 0.889645 0.239644
v -0.739645 0.864644 0.264645
v -0.714644 0.000000 -0.239644
v -0.750000 0.035356 -0.239644
v -0.714644 0.035356 -0.275000
v -0.739645 0.010355 -0.239644
v -0.735057 0.014943 -0.260057
v -0.739645 0.035356 -0.264645
v -0.714644 0.010355 -0.264645
v -0.714644 0.900000 -0.239644
v -0.714644 0.864644 -0.275000
v -0.750000 0.864644 -0.239644
v -0.714644 0.889645 -0.264645
v -0.735057 0.885057 -0.260057
v -0.739645 0.864644 -0.264645
v -0.739645 0.889645 -0.239644
v -0.285356 0.000000 0.239644
v -0.250000 0.035356 0.239644
v -0.285356 0.035356 0.275000
v -0.260355 0.010355 0.239644
v -0.264943 0.014943 0.260057
v -0.260355 0.035356 0.264645
v -0.285356 0.010355 0.264645
v -0.285356 0.900000 0.239644
v -0.285356 0.864644 0.275000
v -0.250000 0.864644 0.239644
v -0.285356 0.889645 0.264645
v -0.264943 0.885057 0.260057
v -0.260355 0.864644 0.264645
v -0.260355 0.889645 0.239644
v -0.285356 0.000000 -0.239644
v -0.285356 0.035356 -0.275000
v -0.250000 0.035356 -0.239644
v -0.285356 0.010355 -0.264645
v -0.264943 0.014943 -0.260057
v -0.260355 0.035356 -0.264645
v -0.260355 0.010355 -0.239644
v -0.285356 0.900000 -0.239644
v -0.250000 0.864644 -0.239644
v -0.285356 0.864644 -0.275000
v -0.260355 0.889645 -0.239644
v -0.264943 0.885057 -0.260057
v -0.260355 0.864644 -0.264645
v -0.285356 0.889645 -0.264645
v 0.285356 0.000000 0.239644
v 0.285356 0.035356 0.275000
v 0.250000 0.035356 0.239644
v 0.285356 0.010355 0.264645
v 0.264943 0.014943 0.260057
v 0.260355 0.035356 0.264645
v 0.260355 0.010355 0.239644
v 0.285356 0.864644 0.275000
v 0.285356 0.900000 0.239644
v 0.250000 0.864644 0.239644
v 0.285356 0.889645 0.264645
v 0.264943 0.885057 0.260057
v 0.260355 0.889645 0.239644
v 0.260355 0.864644 0.264645
v 0.285356 0.000000 -0.239644
v 0.250000 0.035356 -0.239644
v 0.285356 0.035356 -0.275000
v 0.260355 0.010355 -0.239644
v 0.264943 0.014943 -0.260057
v 0.260355 0.035356 -0.264645
v 0.285356 0.010355 -0.264645
v 0.285356 0.900000 -0.239644
v 0.285356 0.864644 -0.275000
v 0.250000 0.864644 -0.239644
v 0.285356 0.889645 -0.264645
v 0.264943 0.885057 -0.260057
v 0.260355 0.864644 -0.264645
v 0.260355 0.889645 -0.239644
v 0.714644 0.000000 0.239644
v 0.750000 0.035356 0.239644
v 0.714644 0.035356 0.275000
v 0.739645 0.010355 0.239644
v 0.735057 0.014943 0.260057
v 0.739645 0.035356 0.264645
v 0.714644 0.010355 0.264645
v 0.714644 0.900000 0.239644
v 0.714644 0.864644 0.275000
v 0.750000 0.864644 0.239644
v 0.714644 0.889645 0.264645
v 0.735057 0.885057 0.260057
v 0.739645 0.864644 0.264645
v 0.739645 0.889645 0.239644
v 0.714644 0.000000 -0.239644
v 0.714644 0.035356 -0.275000
v 0.750000 0.035356 -0.239644
v 0.714644 0.010355 -0.264645
v 0.735057 0.014943 -0.260057
v 0.739645 0.035356 -0.264645
v 0.739645 0.010355 -0.239644
v 0.714644 0.900000 -0.239644
v 0.750000 0.864644 -0.239644
v 0.714644 0.864644 -0.275000
v 0.739645 0.889645 -0.239644
v 0.735057 0.885057 -0.260057
v 0.739645 0.864644 -0.264645
v 0.714644 0.889645 -0.264645
vn -0.1794 -0.9673 0.1794
vn -0.3251 -0.8881 0.3251
vn -0.3791 -0.9152 0.1369
vn -0.1794 -0.1794 0.9673
vn -0.3251 -0.3251 0.8881
vn -0.1369 -0.3791 0.9152
vn -0.9673 -0.1794 0.1794
vn -0.8881 -0.3251 0.3251
vn -0.9152 -0.1369 0.3791
vn -0.1794 0.1794 0.9673
vn -0.3251 0.3251 0.8881
vn -0.3791 0.1369 0.9152
vn -0.1794 0.9673 0.1794
vn -0.3251 0.8881 0.3251
vn -0.1369 0.9152 0.3791
vn -0.9673 0.1794 0.1794
vn -0.8881 0.3251 0.3251
vn -0.9152 0.3791 0.1369
vn -0.1794 -0.9673 -0.1794
vn -0.3251 -0.8881 -0.3251
vn -0.1369 -0.9152 -0.3791
vn -0.9673 -0.1794 -0.1794
vn -0.8881 -0.3251 -0.3251
vn -0.9152 -0.3791 -0.1369
vn -0.1794 -0.1794 -0.9673
vn -0.3251 -0.3251 -0.8881
vn -0.3791 -0.1369 -0.9152
vn -0.1794 0.9673 -0.1794
vn -0.3251 0.8881 -0.3251
vn -0.3791 0.9152 -0.1369
vn -0.1794 0.1794 -0.9673
vn -0.3251 0.3251 -0.8881
vn -0.1369 0.3791 -0.9152
vn -0.9673 0.1794 -0.1794
vn -0.8881 0.3251 -0.3251
vn -0.9152 0.1369 -0.3791
vn 0.1794 -0.9673 0.1794
vn 0.3251 -0.8881 0.3251
vn 0.1369 -0.9152 0.3791
vn 0.9673 -0.1794 0.1794
vn 0.8881 -0.3251 0.3251
vn 0.9152 -0.3791 0.1369
vn 0.1794 -0.1794 0.9673
vn 0.3251 -0.3251 0.8881
vn 0.3791 -0.1369 0.9152
vn 0.1794 0.9673 0.1794
vn 0.3251 0.8881 0.3251
vn 0.3791 0.9152 0.1369
vn 0.1794 0.1794 0.9673
vn 0.3251 0.3251 0.8881
vn 0.1369 0.3791 0.9152
vn 0.9673 0.1794 0.1794
vn 0.8881 0.3251 0.3251
vn 0.9152 0.1369 0.3791
vn 0.1794 -0.9673 -0.1794
vn 0.3251 -0.8881 -0.3251
vn 0.3791 -0.9152 -0.1369
vn 0.1794 -0.1794 -0.9673
vn 0.3251 -0.3251 -0.8881
vn 0.1369 -0.3791 -0.9152
vn 0.9673 -0.1794 -0.1794
vn 0.8881 -0.3251 -0.3251
vn 0.9152 -0.1369 -0.3791
vn 0.1794 0.9673 -0.1794
vn 0.3251 0.8881 -0.3251
vn 0.1369 0.9152 -0.3791
vn 0.9673 0.1794 -0.1794
vn 0.8881 0.3251 -0.3251
vn 0.9152 0.3791 -0.1369
vn 0.1794 0.1794 -0.9673
vn 0.3251 0.3251 -0.8881
vn 0.3791 0.1369 -0.9152
vn -0.1368 0.3791 -0.9152
vn 0.1368 0.3791 0.9152
vn -0.3250 0.8881 0.3251
vn 0.3250 0.8881 0.3251
vn 0.2023 0.7319 -0.6507
vn -0.0000 0.8110 -0.5851
vn 0.1404 0.8455 -0.5152
vn -0.2023 0.7319 -0.6507
vn -0.0000 0.7338 -0.6794
vn -0.0000 0.9337 -0.3580
vn -0.1404 0.8455 -0.5152
vn 0.2024 -0.7319 -0.6507
vn -0.0000 -0.8110 -0.5851
vn -0.0000 -0.7338 -0.6794
vn -0.0000 -0.9337 -0.3580
vn 0.1404 -0.8455 -0.5152
vn -0.2024 -0.7319 -0.6507
vn -0.1404 -0.8455 -0.5152
vn 0.6032 0.7319 -0.3170
vn 0.4137 0.8110 -0.4137
vn 0.4635 0.8455 -0.2650
vn 0.3170 0.7319 -0.6032
vn 0.4804 0.7338 -0.4804
vn 0.2531 0.9337 -0.2531
vn 0.2650 0.8455 -0.4636
vn 0.6032 -0.7319 -0.3171
vn 0.4137 -0.8110 -0.4137
vn 0.4804 -0.7338 -0.4804
vn 0.2531 -0.9337 -0.2531
vn 0.4636 -0.8455 -0.2650
vn 0.3171 -0.7319 -0.6032
vn 0.2650 -0.8455 -0.4635
vn 0.6507 0.7319 0.2023
vn 0.5851 0.8110 -0.0000
vn 0.5152 0.8455 0.1404
vn 0.6507 0.7319 -0.2023
vn 0.6794 0.7338 -0.0000
vn 0.3580 0.9337 -0.0000
vn 0.5152 0.8455 -0.1404
vn 0.6507 -0.7319 0.2023
vn 0.5851 -0.8110 -0.0000
vn 0.6794 -0.7338 -0.0000
vn 0.3580 -0.9337 -0.0000
vn 0.5152 -0.8455 0.1404
vn 0.6507 -0.7319 -0.2024
vn 0.5152 -0.8455 -0.1404
vn 0.3171 0.7319 0.6032
vn 0.4137 0.8110 0.4137
vn 0.2650 0.8455 0.4636
vn 0.6031 0.7319 0.3171
vn 0.4804 0.7338 0.4804
vn 0.2531 0.9337 0.2531
vn 0.4636 0.8455 0.2650
vn 0.3171 -0.7319 0.6032
vn 0.4137 -0.8110 0.4137
vn 0.4804 -0.7338 0.4804
vn 0.2531 -0.9337 0.2531
vn 0.2651 -0.8455 0.4635
vn 0.6032 -0.7319 0.3170
vn 0.4636 -0.8455 0.2650
vn -0.2023 0.7319 0.6507
vn -0.0000 0.8110 0.5851
vn -0.1404 0.8455 0.5152
vn 0.2023 0.7319 0.6507
vn -0.0000 0.7338 0.6794
vn -0.0000 0.9337 0.3580
vn 0.1404 0.8455 0.5152
vn -0.2023 -0.7319 0.6507
vn -0.0000 -0.8110 0.5851
vn -0.0000 -0.7338 0.6794
vn -0.0000 -0.9337 0.3580
vn -0.1404 -0.8455 0.5152
vn 0.2024 -0.7319 0.6507
vn 0.1404 -0.8455 0.5152
vn -0.6032 0.7319 0.3170
vn -0.4137 0.8110 0.4137
vn -0.4635 0.8455 0.2650
vn -0.3171 0.7319 0.6032
vn -0.4804 0.7338 0.4804
vn -0.2531 0.9337 0.2531
vn -0.2650 0.8455 0.4636
vn -0.6032 -0.7319 0.3171
vn -0.4137 -0.8110 0.4137
vn -0.4804 -0.7338 0.4804
vn -0.2531 -0.9337 0.2531
vn -0.4636 -0.8455 0.2650
vn -0.3170 -0.7319 0.6032
vn -0.2650 -0.8455 0.4635
vn -0.6507 0.7319 -0.2023
vn -0.5851 0.8110 -0.0000
vn -0.5152 0.8455 -0.1404
vn -0.6507 0.7319 0.2023
vn -0.6794 0.7338 -0.0000
vn -0.3580 0.9337 -0.0000
vn -0.5152 0.8455 0.1404
vn -0.6507 -0.7319 -0.2023
vn -0.5851 -0.8110 -0.0000
vn -0.6794 -0.7338 -0.0000
vn -0.3580 -0.9337 -0.0000
vn -0.5152 -0.8455 -0.1404
vn -0.6507 -0.7319 0.2024
vn -0.5152 -0.8455 0.1404
vn -0.3170 0.7319 -0.6032
vn -0.4137 0.8110 -0.4137
vn -0.2650 0.8455 -0.4636
vn -0.6032 0.7319 -0.3171
vn -0.4804 0.7338 -0.4804
vn -0.2531 0.9337 -0.2531
vn -0.4636 0.8455 -0.2650
vn -0.3171 -0.7319 -0.6032
vn -0.4137 -0.8110 -0.4137
vn -0.4804 -0.7338 -0.4804
vn -0.2531 -0.9337 -0.2531
vn -0.2650 -0.8455 -0.4635
vn -0.6032 -0.7319 -0.3170
vn -0.4636 -0.8455 -0.2650
vn -0.3791 -0.9152 -0.1369
vn -0.9152 -0.3791 0.1369
vn -0.3791 -0.1369 0.9152
vn -0.9152 0.1369 0.3791
vn -0.3791 0.9152 0.1369
vn -0.9152 0.3791 -0.1369
vn -0.3791 0.1369 -0.9152
vn 0.1369 -0.9152 -0.3791
vn -0.1369 -0.3791 -0.9152
vn -0.1369 0.9152 -0.3791
vn 0.1369 0.3791 -0.9152
vn 0.9152 0.1369 -0.3791
vn 0.3791 -0.9152 0.1369
vn 0.9152 -0.3791 -0.1369
vn 0.3791 0.9152 -0.1369
vn 0.9152 0.3791 0.1369
vn 0.3791 0.1369 0.9152
vn -0.1369 -0.9152 0.3791
vn 0.1369 -0.3791 0.9152
vn 0.1369 0.9152 0.3791
vn -0.1369 0.3791 0.9152
vn 0.1368 0.3791 -0.9152
vn -0.1368 0.3791 0.9152
vn -0.9152 -0.1369 -0.3791
vn 0.3791 -0.1369 -0.9152
vn 0.9152 -0.1369 0.3791
vn 0.7671 0.4802 -0.4254
vn 0.4254 0.4802 -0.7671
vn 0.8732 -0.0000 -0.4874
vn 0.6170 0.4884 -0.6170
vn 0.4874 -0.0000 -0.8732
vn 0.6170 -0.4884 -0.6170
vn 0.7071 -0.0000 -0.7071
vn 0.7671 -0.4802 -0.4254
vn 0.4254 -0.4802 -0.7671
vn 0.8433 0.4802 0.2416
vn 0.8432 0.4802 -0.2416
vn 0.9621 -0.0000 0.2728
vn 0.8726 0.4884 -0.0000
vn 0.9621 -0.0000 -0.2728
vn 0.8726 -0.4884 -0.0000
vn 1.0000 -0.0000 -0.0000
vn 0.8432 -0.4802 0.2416
vn 0.8433 -0.4802 -0.2416
vn 0.4254 0.4802 0.7671
vn 0.7671 0.4802 0.4254
vn 0.4874 -0.0000 0.8732
vn 0.6170 0.4884 0.6170
vn 0.8732 -0.0000 0.4874
vn 0.6170 -0.4884 0.6170
vn 0.7071 -0.0000 0.7071
vn 0.4254 -0.4802 0.7671
vn 0.7671 -0.4802 0.4254
vn -0.2416 0.4802 0.8432
vn 0.2416 0.4802 0.8432
vn -0.2728 -0.0000 0.9621
vn -0.0000 0.4884 0.8726
vn 0.2728 -0.0000 0.9621
vn -0.0000 -0.4884 0.8726
vn -0.0000 -0.0000 1.0000
vn -0.2416 -0.4802 0.8433
vn 0.2416 -0.4802 0.8433
vn -0.7671 0.4802 0.4254
vn -0.4254 0.4802 0.7671
vn -0.8732 -0.0000 0.4874
vn -0.6170 0.4884 0.6170
vn -0.4874 -0.0000 0.8732
vn -0.6170 -0.4884 0.6170
vn -0.7071 -0.0000 0.7071
vn -0.7671 -0.4802 0.4254
vn -0.4254 -0.4802 0.7671
vn -0.8433 0.4802 -0.2416
vn -0.8433 0.4802 0.2416
vn -0.9621 -0.0000 -0.2728
vn -0.8726 0.4884 -0.0000
vn -0.9621 -0.0000 0.2728
vn -0.8726 -0.4884 -0.0000
vn -1.0000 -0.0000 -0.0000
vn -0.8432 -0.4802 -0.2416
vn -0.8433 -0.4802 0.2416
vn -0.4254 0.4802 -0.7671
vn -0.7671 0.4802 -0.4254
vn -0.4874 -0.0000 -0.8732
vn -0.6170 0.4884 -0.6170
vn -0.8732 -0.0000 -0.4874
vn -0.6170 -0.4884 -0.6170
vn -0.7071 -0.0000 -0.7071
vn -0.4254 -0.4802 -0.7671
vn -0.7671 -0.4802 -0.4254
vn 0.2416 0.4802 -0.8432
vn -0.2416 0.4802 -0.8433
vn 0.2728 -0.0000 -0.9621
vn -0.0000 0.4884 -0.8726
vn -0.2728 -0.0000 -0.9621
vn -0.0000 -0.4884 -0.8726
vn -0.0000 -0.0000 -1.0000
vn 0.2416 -0.4802 -0.8433
vn -0.2416 -0.4802 -0.8433
vn -0.0000 1.0000 -0.0000
vn -0.0000 -1.0000 -0.0000
vt 0.438533 0.484529
vt 0.436217 0.482214
vt 0.438533 0.481694
vt 0.567253 0.020713
vt 0.569568 0.018397
vt 0.570089 0.020713
vt 0.585368 0.443104
vt 0.583053 0.445419
vt 0.582532 0.443104
vt 0.473186 0.020713
vt 0.470871 0.018397
vt 0.473186 0.017877
vt 0.562682 0.635311
vt 0.560367 0.637627
vt 0.559846 0.635311
vt 0.585368 0.349037
vt 0.583053 0.346722
vt 0.585368 0.346201
vt 0.521257 0.484529
vt 0.523572 0.482214
vt 0.524092 0.484529
vt 0.668092 0.443104
vt 0.670407 0.445419
vt 0.668092 0.445939
vt 0.397107 0.635311
vt 0.399423 0.637627
vt 0.397107 0.638147
vt 0.645406 0.635311
vt 0.647721 0.637627
vt 0.645406 0.638147
vt 0.303041 0.635311
vt 0.300725 0.637627
vt 0.300205 0.635311
vt 0.668092 0.349037
vt 0.670407 0.346722
vt 0.670928 0.349037
vt 0.438533 0.635311
vt 0.436217 0.637627
vt 0.435697 0.635311
vt 0.385764 0.770804
vt 0.388080 0.773119
vt 0.385764 0.773639
vt 0.567253 0.171495
vt 0.569568 0.173810
vt 0.567253 0.174331
vt 0.562682 0.484529
vt 0.560367 0.482214
vt 0.562682 0.481694
vt 0.473186 0.171495
vt 0.470871 0.173810
vt 0.470351 0.171495
vt 0.385764 0.676737
vt 0.388080 0.674422
vt 0.388600 0.676737
vt 0.521257 0.635311
vt 0.523572 0.637627
vt 0.521257 0.638147
vt 0.397107 0.484529
vt 0.399423 0.482214
vt 0.399943 0.484529
vt 0.303041 0.770804
vt 0.300725 0.773119
vt 0.300205 0.770804
vt 0.645406 0.484529
vt 0.647721 0.482214
vt 0.648242 0.484529
vt 0.303041 0.676737
vt 0.300725 0.674422
vt 0.303041 0.673901
vt 0.303041 0.484529
vt 0.300725 0.482214
vt 0.303041 0.481694
vt 0.020713 0.258293
vt 0.018397 0.255977
vt 0.020713 0.255457
vt 0.205524 0.020713
vt 0.207839 0.018397
vt 0.208360 0.020713
vt 0.303041 0.443104
vt 0.300725 0.445419
vt 0.300205 0.443104
vt 0.020713 0.020713
vt 0.018397 0.018397
vt 0.020713 0.017877
vt 0.161877 0.454447
vt 0.159561 0.456762
vt 0.159041 0.454447
vt 0.303041 0.258293
vt 0.300725 0.255977
vt 0.303041 0.255457
vt 0.120451 0.258293
vt 0.122766 0.255977
vt 0.123287 0.258293
vt 0.402779 0.443104
vt 0.405094 0.445419
vt 0.402779 0.445939
vt 0.431761 0.216867
vt 0.434076 0.219182
vt 0.431761 0.219703
vt 0.261615 0.454447
vt 0.263930 0.456762
vt 0.261615 0.457283
vt 0.246950 0.216867
vt 0.244634 0.219182
vt 0.244114 0.216867
vt 0.402779 0.258293
vt 0.405094 0.255977
vt 0.405615 0.258293
vt 0.020713 0.454447
vt 0.018397 0.456762
vt 0.017877 0.454447
vt 0.543943 0.443104
vt 0.546258 0.445419
vt 0.543943 0.445939
vt 0.205524 0.216867
vt 0.207839 0.219182
vt 0.205524 0.219703
vt 0.161877 0.258293
vt 0.159561 0.255977
vt 0.161877 0.255457
vt 0.020713 0.216867
vt 0.018397 0.219182
vt 0.017877 0.216867
vt 0.543943 0.258293
vt 0.546258 0.255977
vt 0.546778 0.258293
vt 0.120451 0.454447
vt 0.122766 0.456762
vt 0.120451 0.457283
vt 0.431761 0.020713
vt 0.434076 0.018397
vt 0.434596 0.020713
vt 0.444204 0.443104
vt 0.441889 0.445419
vt 0.441369 0.443104
vt 0.261615 0.258293
vt 0.263930 0.255977
vt 0.264451 0.258293
vt 0.444204 0.258293
vt 0.441889 0.255977
vt 0.444204 0.255457
vt 0.246950 0.020713
vt 0.244634 0.018397
vt 0.246950 0.017877
vt 0.630116 0.800886
vt 0.627801 0.798571
vt 0.630116 0.798050
vt 0.509913 0.676737
vt 0.512229 0.674421
vt 0.512749 0.676737
vt 0.968535 0.702745
vt 0.966219 0.705061
vt 0.965699 0.702745
vt 0.427190 0.676737
vt 0.424874 0.674421
vt 0.427190 0.673901
vt 0.957192 0.567253
vt 0.954876 0.569568
vt 0.954356 0.567253
vt 0.968535 0.620022
vt 0.966219 0.617706
vt 0.968535 0.617186
vt 0.640244 0.800886
vt 0.642560 0.798571
vt 0.643080 0.800886
vt 0.978663 0.702745
vt 0.980978 0.705061
vt 0.978663 0.705581
vt 0.634063 0.759461
vt 0.636378 0.761776
vt 0.634063 0.762296
vt 0.967320 0.567253
vt 0.969635 0.569568
vt 0.967320 0.570089
vt 0.551339 0.759461
vt 0.549024 0.761776
vt 0.548503 0.759461
vt 0.978663 0.620022
vt 0.980978 0.617706
vt 0.981499 0.620022
vt 0.630116 0.883610
vt 0.627801 0.885925
vt 0.627280 0.883610
vt 0.979287 0.216243
vt 0.981603 0.218558
vt 0.979287 0.219078
vt 0.509913 0.759461
vt 0.512229 0.761776
vt 0.509913 0.762296
vt 0.957192 0.484529
vt 0.954876 0.482214
vt 0.957192 0.481694
vt 0.427190 0.759461
vt 0.424874 0.761776
vt 0.424354 0.759461
vt 0.979287 0.133519
vt 0.981603 0.131204
vt 0.982123 0.133519
vt 0.640244 0.883610
vt 0.642560 0.885925
vt 0.640244 0.886446
vt 0.634063 0.676737
vt 0.636378 0.674421
vt 0.636898 0.676737
vt 0.969159 0.216243
vt 0.966844 0.218558
vt 0.966323 0.216243
vt 0.967320 0.484529
vt 0.969635 0.482214
vt 0.970156 0.484529
vt 0.969159 0.133519
vt 0.966844 0.131204
vt 0.969159 0.130683
vt 0.551339 0.676737
vt 0.549024 0.674421
vt 0.551339 0.673901
vt 0.867072 0.620022
vt 0.864756 0.617706
vt 0.867072 0.617186
vt 0.187885 0.756138
vt 0.190200 0.753823
vt 0.190721 0.756138
vt 0.878415 0.928982
vt 0.876099 0.931297
vt 0.875579 0.928982
vt 0.116504 0.756138
vt 0.114189 0.753823
vt 0.116504 0.753303
vt 0.878415 0.816176
vt 0.876099 0.818491
vt 0.875579 0.816176
vt 0.878415 0.857601
vt 0.876099 0.855286
vt 0.878415 0.854766
vt 0.927109 0.620022
vt 0.929425 0.617706
vt 0.929945 0.620022
vt 0.938452 0.928982
vt 0.940767 0.931297
vt 0.938452 0.931818
vt 0.498570 0.872267
vt 0.500886 0.874582
vt 0.498570 0.875103
vt 0.938452 0.816176
vt 0.940767 0.818491
vt 0.938452 0.819012
vt 0.427190 0.872267
vt 0.424874 0.874582
vt 0.424354 0.872267
vt 0.938452 0.857601
vt 0.940767 0.855286
vt 0.941288 0.857601
vt 0.867072 0.691402
vt 0.864756 0.693718
vt 0.864236 0.691402
vt 0.939076 0.092093
vt 0.941392 0.094409
vt 0.939076 0.094929
vt 0.187885 0.827519
vt 0.190200 0.829834
vt 0.187885 0.830355
vt 0.878415 0.744795
vt 0.876099 0.742480
vt 0.878415 0.741959
vt 0.116504 0.827519
vt 0.114189 0.829834
vt 0.113669 0.827519
vt 0.939076 0.020713
vt 0.941392 0.018397
vt 0.941912 0.020713
vt 0.927109 0.691402
vt 0.929425 0.693718
vt 0.927109 0.694238
vt 0.498570 0.800886
vt 0.500886 0.798571
vt 0.501406 0.800886
vt 0.879039 0.092093
vt 0.876724 0.094409
vt 0.876203 0.092093
vt 0.938452 0.744795
vt 0.940767 0.742480
vt 0.941288 0.744795
vt 0.879039 0.020713
vt 0.876724 0.018397
vt 0.879039 0.017877
vt 0.427190 0.800886
vt 0.424874 0.798571
vt 0.427190 0.798050
vt 0.592894 0.307591
vt 0.590715 0.304115
vt 0.592898 0.304462
vt 0.586711 0.303219
vt 0.589615 0.305670
vt 0.593005 0.300877
vt 0.589660 0.302173
vt 0.646412 0.295641
vt 0.648609 0.299106
vt 0.646732 0.299428
vt 0.652519 0.298435
vt 0.649237 0.296986
vt 0.647693 0.303105
vt 0.649908 0.300895
vt 0.600490 0.306340
vt 0.596491 0.305424
vt 0.598280 0.304125
vt 0.593026 0.307621
vt 0.596813 0.307301
vt 0.595820 0.301514
vt 0.594371 0.304796
vt 0.650814 0.289326
vt 0.649918 0.293330
vt 0.648363 0.292230
vt 0.653157 0.295620
vt 0.651861 0.292275
vt 0.646442 0.295510
vt 0.649571 0.295513
vt 0.604976 0.300085
vt 0.601500 0.302265
vt 0.601847 0.300082
vt 0.600604 0.306269
vt 0.603055 0.303364
vt 0.598261 0.299975
vt 0.599557 0.303320
vt 0.658392 0.287974
vt 0.654927 0.290171
vt 0.654605 0.288294
vt 0.655598 0.294081
vt 0.657047 0.290799
vt 0.650928 0.289255
vt 0.653138 0.291470
vt 0.603725 0.292490
vt 0.602808 0.296489
vt 0.601510 0.294700
vt 0.605006 0.299954
vt 0.604686 0.296167
vt 0.598899 0.297160
vt 0.602181 0.298609
vt 0.664707 0.292376
vt 0.660703 0.291480
vt 0.661803 0.289925
vt 0.658413 0.294718
vt 0.661758 0.293422
vt 0.658523 0.288004
vt 0.658520 0.291133
vt 0.597470 0.288004
vt 0.599650 0.291480
vt 0.597466 0.291133
vt 0.603653 0.292376
vt 0.600749 0.289925
vt 0.597359 0.294718
vt 0.600704 0.293422
vt 0.666059 0.299954
vt 0.663862 0.296489
vt 0.665739 0.296167
vt 0.659953 0.297160
vt 0.663234 0.298608
vt 0.664779 0.292490
vt 0.662564 0.294700
vt 0.589875 0.289255
vt 0.593874 0.290171
vt 0.592085 0.291470
vt 0.597339 0.287974
vt 0.593552 0.288294
vt 0.594544 0.294081
vt 0.595993 0.290799
vt 0.661657 0.306268
vt 0.662553 0.302265
vt 0.664109 0.303364
vt 0.659315 0.299975
vt 0.660611 0.303320
vt 0.666029 0.300085
vt 0.662900 0.300082
vt 0.585388 0.295510
vt 0.588864 0.293330
vt 0.588517 0.295513
vt 0.589761 0.289326
vt 0.587309 0.292230
vt 0.592103 0.295620
vt 0.590807 0.292275
vt 0.654079 0.307621
vt 0.657544 0.305424
vt 0.657866 0.307301
vt 0.656873 0.301514
vt 0.655425 0.304796
vt 0.661543 0.306340
vt 0.659333 0.304125
vt 0.586639 0.303105
vt 0.587556 0.299106
vt 0.588854 0.300895
vt 0.585359 0.295641
vt 0.585679 0.299428
vt 0.591465 0.298435
vt 0.588184 0.296986
vt 0.647765 0.303219
vt 0.651768 0.304115
vt 0.650669 0.305670
vt 0.654058 0.300876
vt 0.650714 0.302173
vt 0.653948 0.307591
vt 0.653952 0.304462
vt 0.686831 0.880287
vt 0.684516 0.877972
vt 0.686831 0.877452
vt 0.657373 0.239553
vt 0.659688 0.241868
vt 0.657373 0.242389
vt 0.686831 0.703370
vt 0.684516 0.705685
vt 0.683996 0.703370
vt 0.657373 0.020713
vt 0.659688 0.018397
vt 0.660209 0.020713
vt 0.782623 0.928982
vt 0.780308 0.931297
vt 0.779787 0.928982
vt 0.686831 0.484529
vt 0.684516 0.482214
vt 0.686831 0.481694
vt 0.735526 0.880288
vt 0.737841 0.877972
vt 0.738362 0.880287
vt 0.735526 0.703370
vt 0.737841 0.705685
vt 0.735526 0.706205
vt 0.020713 0.714713
vt 0.018397 0.717028
vt 0.017877 0.714713
vt 0.831317 0.928982
vt 0.833633 0.931297
vt 0.831317 0.931818
vt 0.020713 0.495872
vt 0.018397 0.493557
vt 0.020713 0.493037
vt 0.735526 0.484529
vt 0.737841 0.482214
vt 0.738362 0.484529
vt 0.686831 0.928982
vt 0.684516 0.931297
vt 0.683996 0.928982
vt 0.837613 0.239553
vt 0.839929 0.241868
vt 0.837613 0.242389
vt 0.608679 0.239553
vt 0.606363 0.241868
vt 0.605843 0.239553
vt 0.782623 0.880287
vt 0.780308 0.877972
vt 0.782623 0.877452
vt 0.608679 0.020713
vt 0.606363 0.018397
vt 0.608679 0.017877
vt 0.837613 0.020713
vt 0.839929 0.018397
vt 0.840449 0.020713
vt 0.735526 0.928982
vt 0.737841 0.931297
vt 0.735526 0.931818
vt 0.069407 0.714713
vt 0.071723 0.717028
vt 0.069407 0.717548
vt 0.788919 0.239553
vt 0.786603 0.241868
vt 0.786083 0.239553
vt 0.831317 0.880287
vt 0.833633 0.877972
vt 0.834153 0.880287
vt 0.788919 0.020713
vt 0.786603 0.018397
vt 0.788919 0.017877
vt 0.069407 0.495872
vt 0.071723 0.493557
vt 0.072243 0.495872
vt 0.020713 0.891631
vt 0.018397 0.889315
vt 0.020713 0.888795
vt 0.159527 0.714713
vt 0.161843 0.717028
vt 0.159527 0.717548
vt 0.698799 0.239553
vt 0.696483 0.241868
vt 0.695963 0.239553
vt 0.159527 0.495872
vt 0.161843 0.493557
vt 0.162363 0.495872
vt 0.895429 0.397732
vt 0.893114 0.400047
vt 0.892593 0.397732
vt 0.698799 0.020713
vt 0.696483 0.018397
vt 0.698799 0.017877
vt 0.069407 0.891631
vt 0.071723 0.889315
vt 0.072243 0.891631
vt 0.747493 0.239553
vt 0.749809 0.241868
vt 0.747493 0.242389
vt 0.200953 0.714713
vt 0.198638 0.717028
vt 0.198117 0.714713
vt 0.944124 0.397732
vt 0.946439 0.400047
vt 0.944124 0.400567
vt 0.200953 0.495872
vt 0.198638 0.493557
vt 0.200953 0.493037
vt 0.747493 0.020713
vt 0.749809 0.018397
vt 0.750329 0.020713
vt 0.020713 0.940325
vt 0.018397 0.942640
vt 0.017877 0.940325
vt 0.825646 0.703370
vt 0.827961 0.705685
vt 0.825646 0.706205
vt 0.110833 0.714713
vt 0.108518 0.717028
vt 0.107997 0.714713
vt 0.895429 0.349037
vt 0.893114 0.346722
vt 0.895429 0.346201
vt 0.110833 0.495872
vt 0.108518 0.493557
vt 0.110833 0.493037
vt 0.825646 0.484529
vt 0.827961 0.482214
vt 0.828482 0.484529
vt 0.069407 0.940325
vt 0.071723 0.942640
vt 0.069407 0.943161
vt 0.249648 0.714713
vt 0.251963 0.717028
vt 0.249648 0.717548
vt 0.776951 0.703370
vt 0.774636 0.705685
vt 0.774116 0.703370
vt 0.944124 0.349037
vt 0.946439 0.346722
vt 0.946959 0.349037
vt 0.776951 0.484529
vt 0.774636 0.482214
vt 0.776951 0.481694
vt 0.249648 0.495872
vt 0.251963 0.493557
vt 0.252483 0.495872
vt 0.165199 0.868944
vt 0.167514 0.866629
vt 0.168035 0.868944
vt 0.854004 0.443104
vt 0.856319 0.445419
vt 0.854004 0.445939
vt 0.709517 0.443104
vt 0.707202 0.445419
vt 0.706682 0.443104
vt 0.854003 0.349037
vt 0.856319 0.346722
vt 0.856839 0.349037
vt 0.206625 0.868944
vt 0.204309 0.866629
vt 0.206625 0.866109
vt 0.709517 0.349037
vt 0.707202 0.346722
vt 0.709517 0.346201
vt 0.165199 0.923311
vt 0.167514 0.925626
vt 0.165199 0.926146
vt 0.763883 0.443104
vt 0.766199 0.445419
vt 0.763883 0.445939
vt 0.303041 0.906296
vt 0.300725 0.908611
vt 0.300205 0.906296
vt 0.206625 0.923311
vt 0.204309 0.925626
vt 0.203789 0.923311
vt 0.303041 0.812229
vt 0.300725 0.809914
vt 0.303041 0.809393
vt 0.763883 0.349037
vt 0.766199 0.346722
vt 0.766719 0.349037
vt 0.116504 0.868944
vt 0.114189 0.866629
vt 0.116504 0.866109
vt 0.741197 0.838862
vt 0.743513 0.841177
vt 0.741197 0.841698
vt 0.805309 0.443104
vt 0.802994 0.445419
vt 0.802473 0.443104
vt 0.255319 0.868944
vt 0.257634 0.866629
vt 0.258155 0.868944
vt 0.805309 0.349037
vt 0.802994 0.346722
vt 0.805309 0.346201
vt 0.741197 0.744795
vt 0.743513 0.742480
vt 0.744033 0.744795
vt 0.116504 0.923311
vt 0.114189 0.925626
vt 0.113669 0.923311
vt 0.351735 0.906296
vt 0.354050 0.908611
vt 0.351735 0.909132
vt 0.686831 0.838862
vt 0.684516 0.841177
vt 0.683996 0.838862
vt 0.255319 0.923311
vt 0.257634 0.925626
vt 0.255319 0.926146
vt 0.686831 0.744795
vt 0.684516 0.742480
vt 0.686831 0.741959
vt 0.351735 0.812229
vt 0.354050 0.809914
vt 0.354571 0.812229
vt 0.927733 0.133519
vt 0.930049 0.131204
vt 0.930569 0.133519
vt 0.915766 0.578596
vt 0.918081 0.580911
vt 0.915766 0.581432
vt 0.782623 0.838862
vt 0.780308 0.841177
vt 0.779787 0.838862
vt 0.915766 0.484529
vt 0.918081 0.482214
vt 0.918602 0.484529
vt 0.879039 0.229311
vt 0.876724 0.226995
vt 0.879039 0.226475
vt 0.782623 0.744795
vt 0.780308 0.742480
vt 0.782623 0.741959
vt 0.927733 0.187885
vt 0.930049 0.190200
vt 0.927733 0.190721
vt 0.836989 0.838862
vt 0.839304 0.841177
vt 0.836989 0.841698
vt 0.539996 0.894953
vt 0.537681 0.897268
vt 0.537160 0.894953
vt 0.879039 0.283677
vt 0.876724 0.285992
vt 0.876203 0.283677
vt 0.539996 0.800886
vt 0.537681 0.798571
vt 0.539996 0.798050
vt 0.836989 0.744795
vt 0.839304 0.742480
vt 0.839825 0.744795
vt 0.879039 0.133519
vt 0.876724 0.131204
vt 0.879039 0.130683
vt 0.075079 0.850205
vt 0.077394 0.852520
vt 0.075079 0.853041
vt 0.867072 0.578596
vt 0.864756 0.580911
vt 0.864236 0.578596
vt 0.927733 0.229311
vt 0.930049 0.226995
vt 0.930569 0.229311
vt 0.867072 0.484529
vt 0.864756 0.482214
vt 0.867072 0.481694
vt 0.075079 0.756138
vt 0.077394 0.753823
vt 0.077915 0.756138
vt 0.879039 0.187885
vt 0.876724 0.190200
vt 0.876203 0.187885
vt 0.588690 0.894953
vt 0.591006 0.897268
vt 0.588690 0.897789
vt 0.020713 0.850205
vt 0.018397 0.852520
vt 0.017877 0.850205
vt 0.927733 0.283677
vt 0.930049 0.285992
vt 0.927733 0.286512
vt 0.020713 0.756138
vt 0.018397 0.753823
vt 0.020713 0.753303
vt 0.588690 0.800886
vt 0.591006 0.798571
vt 0.591526 0.800886
vt 0.521257 0.481694
vt 0.585368 0.445939
vt 0.567253 0.017877
vt 0.582532 0.349037
vt 0.562682 0.638147
vt 0.668092 0.346201
vt 0.303041 0.638147
vt 0.524092 0.635311
vt 0.399943 0.635311
vt 0.648242 0.635311
vt 0.300205 0.484529
vt 0.300205 0.676737
vt 0.438533 0.638147
vt 0.303041 0.773639
vt 0.645406 0.481694
vt 0.385764 0.673901
vt 0.473186 0.174331
vt 0.435697 0.484529
vt 0.570089 0.171495
vt 0.559846 0.484529
vt 0.470351 0.020713
vt 0.120451 0.255457
vt 0.303041 0.445939
vt 0.205524 0.017877
vt 0.300205 0.258293
vt 0.161877 0.457283
vt 0.402779 0.255457
vt 0.246950 0.219703
vt 0.123287 0.454447
vt 0.434596 0.216867
vt 0.264451 0.454447
vt 0.244114 0.020713
vt 0.441369 0.258293
vt 0.020713 0.457283
vt 0.444204 0.445939
vt 0.261615 0.255457
vt 0.543943 0.255457
vt 0.020713 0.219703
vt 0.017877 0.258293
vt 0.208360 0.216867
vt 0.159041 0.258293
vt 0.017877 0.020713
vt 0.640244 0.798050
vt 0.509913 0.673901
vt 0.965699 0.620022
vt 0.957192 0.570089
vt 0.978663 0.617186
vt 0.551339 0.762296
vt 0.981499 0.702745
vt 0.643080 0.883610
vt 0.636898 0.759461
vt 0.970156 0.567253
vt 0.548503 0.676737
vt 0.966323 0.133519
vt 0.634063 0.673901
vt 0.630116 0.886446
vt 0.969159 0.219078
vt 0.967320 0.481694
vt 0.427190 0.762296
vt 0.982123 0.216243
vt 0.627280 0.800886
vt 0.512749 0.759461
vt 0.954356 0.484529
vt 0.424354 0.676737
vt 0.927109 0.617186
vt 0.878415 0.931818
vt 0.187885 0.753303
vt 0.875579 0.857601
vt 0.878415 0.819012
vt 0.938452 0.854766
vt 0.427190 0.875103
vt 0.941288 0.928982
vt 0.929945 0.691402
vt 0.501406 0.872267
vt 0.941288 0.816176
vt 0.424354 0.800886
vt 0.876203 0.020713
vt 0.498570 0.798050
vt 0.867072 0.694238
vt 0.879039 0.094929
vt 0.938452 0.741959
vt 0.939076 0.017877
vt 0.116504 0.830355
vt 0.941912 0.092093
vt 0.864236 0.620022
vt 0.190721 0.827519
vt 0.875579 0.744795
vt 0.113669 0.756138
vt 0.600972 0.309167
vt 0.593513 0.310447
vt 0.712580 0.303175
vt 0.704639 0.304803
vt 0.704639 0.301669
vt 0.226475 0.754807
vt 0.234415 0.756435
vt 0.226475 0.757942
vt 0.720520 0.304803
vt 0.712580 0.306308
vt 0.242355 0.754807
vt 0.234415 0.753303
vt 0.648471 0.287673
vt 0.645756 0.290387
vt 0.644102 0.293852
vt 0.607316 0.301743
vt 0.602947 0.307922
vt 0.712580 0.291946
vt 0.704639 0.295728
vt 0.704639 0.291944
vt 0.712580 0.299510
vt 0.704639 0.299512
vt 0.720520 0.295728
vt 0.712580 0.295728
vt 0.657905 0.285148
vt 0.654065 0.285148
vt 0.650446 0.286427
vt 0.606552 0.292007
vt 0.607832 0.299466
vt 0.767081 0.303175
vt 0.759141 0.304803
vt 0.759141 0.301669
vt 0.704639 0.286653
vt 0.712580 0.288281
vt 0.704639 0.289787
vt 0.775021 0.304803
vt 0.767081 0.306308
vt 0.720520 0.286653
vt 0.712580 0.285148
vt 0.666361 0.290033
vt 0.663646 0.287318
vt 0.660181 0.285663
vt 0.599128 0.285663
vt 0.605307 0.290033
vt 0.767081 0.291946
vt 0.759141 0.295728
vt 0.759141 0.291944
vt 0.767081 0.299510
vt 0.759141 0.299512
vt 0.775021 0.295728
vt 0.767081 0.295728
vt 0.668885 0.299466
vt 0.668885 0.295627
vt 0.667606 0.292007
vt 0.589392 0.286427
vt 0.596851 0.285148
vt 0.821582 0.303175
vt 0.813642 0.304803
vt 0.813642 0.301669
vt 0.759141 0.286653
vt 0.767081 0.288281
vt 0.759141 0.289787
vt 0.829522 0.304803
vt 0.821582 0.306308
vt 0.775021 0.286653
vt 0.767081 0.285148
vt 0.664000 0.307922
vt 0.666715 0.305207
vt 0.668370 0.301743
vt 0.583048 0.293852
vt 0.587418 0.287673
vt 0.821582 0.291946
vt 0.813642 0.295728
vt 0.813642 0.291944
vt 0.821582 0.299510
vt 0.813642 0.299512
vt 0.829522 0.295728
vt 0.821582 0.295728
vt 0.654567 0.310447
vt 0.658406 0.310447
vt 0.662026 0.309167
vt 0.583812 0.303588
vt 0.582532 0.296128
vt 0.234415 0.771330
vt 0.226475 0.772958
vt 0.226475 0.769823
vt 0.813642 0.286653
vt 0.821582 0.288281
vt 0.813642 0.289787
vt 0.242355 0.772958
vt 0.234415 0.774463
vt 0.829522 0.286653
vt 0.821582 0.285148
vt 0.646111 0.305562
vt 0.648826 0.308277
vt 0.652290 0.309931
vt 0.591237 0.309931
vt 0.585057 0.305562
vt 0.234415 0.760101
vt 0.226475 0.763883
vt 0.226475 0.760099
vt 0.234415 0.767664
vt 0.226475 0.767667
vt 0.242355 0.763883
vt 0.234415 0.763883
vt 0.643586 0.296128
vt 0.643586 0.299968
vt 0.644866 0.303587
vt 0.735526 0.877452
vt 0.660209 0.239553
vt 0.683996 0.484529
vt 0.782623 0.931818
vt 0.017877 0.495872
vt 0.738362 0.703370
vt 0.738362 0.928982
vt 0.834153 0.928982
vt 0.069407 0.493037
vt 0.786083 0.020713
vt 0.072243 0.714713
vt 0.686831 0.931818
vt 0.788919 0.242389
vt 0.831317 0.877452
vt 0.837613 0.017877
vt 0.605843 0.020713
vt 0.840449 0.239553
vt 0.683996 0.880287
vt 0.608679 0.242389
vt 0.779787 0.880287
vt 0.069407 0.888795
vt 0.698799 0.242389
vt 0.162363 0.714713
vt 0.695963 0.020713
vt 0.895429 0.400567
vt 0.747493 0.017877
vt 0.198117 0.495872
vt 0.750329 0.239553
vt 0.072243 0.940325
vt 0.200953 0.717548
vt 0.946959 0.397732
vt 0.774116 0.484529
vt 0.252483 0.714713
vt 0.020713 0.943161
vt 0.944124 0.346201
vt 0.107997 0.495872
vt 0.828482 0.703370
vt 0.017877 0.891631
vt 0.892593 0.349037
vt 0.159527 0.493037
vt 0.168035 0.923311
vt 0.709517 0.445939
vt 0.856839 0.443104
vt 0.706682 0.349037
vt 0.203789 0.868944
vt 0.763883 0.346201
vt 0.300205 0.812229
vt 0.116504 0.926146
vt 0.303041 0.909132
vt 0.206625 0.926146
vt 0.683996 0.744795
vt 0.354571 0.906296
vt 0.113669 0.868944
vt 0.686831 0.841698
vt 0.258155 0.923311
vt 0.741197 0.741959
vt 0.802473 0.349037
vt 0.165199 0.866109
vt 0.805309 0.445940
vt 0.255319 0.866109
vt 0.854003 0.346201
vt 0.930569 0.187885
vt 0.782623 0.841698
vt 0.918602 0.578596
vt 0.779787 0.744795
vt 0.876203 0.229311
vt 0.836989 0.741959
vt 0.537160 0.800886
vt 0.879039 0.190721
vt 0.539996 0.897789
vt 0.879039 0.286512
vt 0.588690 0.798050
vt 0.017877 0.756138
vt 0.591526 0.894953
vt 0.876203 0.133519
vt 0.020713 0.853041
vt 0.930569 0.283677
vt 0.075079 0.753303
vt 0.864236 0.484529
vt 0.927733 0.130683
vt 0.867072 0.581432
vt 0.927733 0.226475
vt 0.915766 0.481694
vt 0.595182 0.297797
vt 0.242355 0.767667
vt 0.242355 0.769823
vt 0.242355 0.757942
vt 0.242355 0.760099
vt 0.656236 0.297797
vt 0.245222 0.759972
vt 0.245222 0.760096
vt 0.245222 0.767669
vt 0.245222 0.767794
vt 0.720520 0.299512
vt 0.720520 0.301669
vt 0.723387 0.299514
vt 0.723387 0.299639
vt 0.720520 0.289787
vt 0.720520 0.291944
vt 0.723387 0.291941
vt 0.723387 0.291817
vt 0.775021 0.299512
vt 0.775021 0.301669
vt 0.777888 0.299639
vt 0.777888 0.299514
vt 0.775021 0.289787
vt 0.775021 0.291944
vt 0.777888 0.291817
vt 0.777888 0.291941
vt 0.829522 0.299512
vt 0.829522 0.301669
vt 0.832389 0.299639
vt 0.832389 0.299514
vt 0.829522 0.291944
vt 0.829522 0.289787
vt 0.832389 0.291817
vt 0.832389 0.291941
vt 0.670928 0.443104
vt 0.388600 0.770804
vt 0.397107 0.481694
vt 0.405615 0.443104
vt 0.546778 0.443104
vt 0.431761 0.017877
vt 0.968535 0.705581
vt 0.979287 0.130683
vt 0.686831 0.706205
vt 0.657373 0.017877
vt 0.020713 0.717548
vt 0.735526 0.481694
vt 0.110833 0.717548
vt 0.825646 0.481694
vt 0.776951 0.706205
vt 0.249648 0.493037
vt 0.766719 0.443104
vt 0.744033 0.838862
vt 0.351735 0.809393
vt 0.839825 0.838862
vt 0.077915 0.850205
vt 0.597353 0.310447
vt 0.605662 0.305207
vt 0.607832 0.295627
vt 0.602592 0.287318
vt 0.593012 0.285148
vt 0.584703 0.290387
vt 0.582532 0.299968
vt 0.587772 0.308277
s 1
f 3/1/1 7/2/2 9/3/3
f 4/4/4 7/5/5 6/6/6
f 5/7/7 7/8/8 8/9/9
f 10/10/10 14/11/11 16/12/12
f 11/13/13 14/14/14 13/15/15
f 12/16/16 14/17/17 15/18/18
f 17/19/19 21/20/20 23/21/21
f 18/22/22 21/23/23 20/24/24
f 19/25/25 21/26/26 22/27/27
f 24/28/28 28/29/29 30/30/30
f 25/31/31 28/32/32 27/33/33
f 26/34/34 28/35/35 29/36/36
f 31/37/37 35/38/38 37/39/39
f 32/40/40 35/41/41 34/42/42
f 33/43/43 35/44/44 36/45/45
f 38/46/46 42/47/47 44/48/48
f 39/49/49 42/50/50 41/51/51
f 40/52/52 42/53/53 43/54/54
f 45/55/55 49/56/56 51/57/57
f 46/58/58 49/59/59 48/60/60
f 47/61/61 49/62/62 50/63/63
f 52/64/64 56/65/65 58/66/66
f 53/67/67 56/68/68 55/69/69
f 54/70/70 56/71/71 57/72/72
f 59/73/1 63/74/2 65/75/3
f 60/76/4 63/77/5 62/78/6
f 61/79/7 63/80/8 64/81/9
f 66/82/10 70/83/11 72/84/12
f 67/85/13 70/86/14 69/87/15
f 68/88/16 70/89/17 71/90/18
f 73/91/19 77/92/20 79/93/21
f 74/94/22 77/95/23 76/96/24
f 75/97/25 77/98/26 78/99/27
f 80/100/28 84/101/29 86/102/30
f 81/103/31 84/104/32 83/105/73
f 82/106/34 84/107/35 85/108/36
f 87/109/37 91/110/38 93/111/39
f 88/112/40 91/113/41 90/114/42
f 89/115/43 91/116/44 92/117/45
f 94/118/46 98/119/47 100/120/48
f 95/121/49 98/122/50 97/123/74
f 96/124/52 98/125/53 99/126/54
f 101/127/55 105/128/56 107/129/57
f 102/130/58 105/131/59 104/132/60
f 103/133/61 105/134/62 106/135/63
f 108/136/64 112/137/65 114/138/66
f 109/139/67 112/140/68 111/141/69
f 110/142/70 112/143/71 113/144/72
f 115/145/1 119/146/2 121/147/3
f 116/148/4 119/149/5 118/150/6
f 117/151/7 119/152/8 120/153/9
f 122/154/10 126/155/11 128/156/12
f 123/157/13 126/158/14 125/159/15
f 124/160/16 126/161/17 127/162/18
f 129/163/19 133/164/20 135/165/21
f 130/166/22 133/167/23 132/168/24
f 131/169/25 133/170/26 134/171/27
f 136/172/28 140/173/29 142/174/30
f 137/175/31 140/176/32 139/177/33
f 138/178/34 140/179/35 141/180/36
f 143/181/37 147/182/38 149/183/39
f 144/184/40 147/185/41 146/186/42
f 145/187/43 147/188/44 148/189/45
f 150/190/46 154/191/47 156/192/48
f 151/193/49 154/194/50 153/195/51
f 152/196/52 154/197/53 155/198/54
f 157/199/55 161/200/56 163/201/57
f 158/202/58 161/203/59 160/204/60
f 159/205/61 161/206/62 162/207/63
f 164/208/64 168/209/65 170/210/66
f 165/211/67 168/212/68 167/213/69
f 166/214/70 168/215/71 169/216/72
f 171/217/1 175/218/2 177/219/3
f 172/220/4 175/221/5 174/222/6
f 173/223/7 175/224/8 176/225/9
f 178/226/10 182/227/11 184/228/12
f 179/229/13 182/230/75 181/231/15
f 180/232/16 182/233/17 183/234/18
f 185/235/19 189/236/20 191/237/21
f 186/238/22 189/239/23 188/240/24
f 187/241/25 189/242/26 190/243/27
f 192/244/28 196/245/29 198/246/30
f 193/247/31 196/248/32 195/249/33
f 194/250/34 196/251/35 197/252/36
f 199/253/37 203/254/38 205/255/39
f 200/256/40 203/257/41 202/258/42
f 201/259/43 203/260/44 204/261/45
f 206/262/46 210/263/76 212/264/48
f 207/265/49 210/266/50 209/267/51
f 208/268/52 210/269/53 211/270/54
f 213/271/55 217/272/56 219/273/57
f 214/274/58 217/275/59 216/276/60
f 215/277/61 217/278/62 218/279/63
f 220/280/64 224/281/65 226/282/66
f 221/283/67 224/284/68 223/285/69
f 222/286/70 224/287/71 225/288/72
f 227/289/77 231/290/78 233/291/79
f 228/292/80 231/290/78 230/293/81
f 229/294/82 231/290/78 232/295/83
f 237/296/84 241/297/85 243/298/86
f 238/299/87 241/297/85 240/300/88
f 239/301/89 241/297/85 242/302/90
f 244/303/91 248/304/92 250/305/93
f 245/306/94 248/304/92 247/307/95
f 246/308/96 248/304/92 249/309/97
f 260/310/98 264/311/99 266/312/100
f 261/313/101 264/311/99 263/314/102
f 262/315/103 264/311/99 265/316/104
f 267/317/105 271/318/106 273/319/107
f 268/320/108 271/318/106 270/321/109
f 269/322/110 271/318/106 272/323/111
f 283/324/112 287/325/113 289/326/114
f 284/327/115 287/325/113 286/328/116
f 285/329/117 287/325/113 288/330/118
f 290/331/119 294/332/120 296/333/121
f 291/334/122 294/332/120 293/335/123
f 292/336/124 294/332/120 295/337/125
f 306/338/126 310/339/127 312/340/128
f 307/341/129 310/339/127 309/342/130
f 308/343/131 310/339/127 311/344/132
f 313/345/133 317/346/134 319/347/135
f 314/348/136 317/346/134 316/349/137
f 315/350/138 317/346/134 318/351/139
f 329/352/140 333/353/141 335/354/142
f 330/355/143 333/353/141 332/356/144
f 331/357/145 333/353/141 334/358/146
f 336/359/147 340/360/148 342/361/149
f 337/362/150 340/360/148 339/363/151
f 338/364/152 340/360/148 341/365/153
f 352/366/154 356/367/155 358/368/156
f 353/369/157 356/367/155 355/370/158
f 354/371/159 356/367/155 357/372/160
f 359/373/161 363/374/162 365/375/163
f 360/376/164 363/374/162 362/377/165
f 361/378/166 363/374/162 364/379/167
f 375/380/168 379/381/169 381/382/170
f 376/383/171 379/381/169 378/384/172
f 377/385/173 379/381/169 380/386/174
f 382/387/175 386/388/176 388/389/177
f 383/390/178 386/388/176 385/391/179
f 384/392/180 386/388/176 387/393/181
f 398/394/182 402/395/183 404/396/184
f 399/397/185 402/395/183 401/398/186
f 400/399/187 402/395/183 403/400/188
f 411/401/1 415/402/2 417/403/3
f 412/404/4 415/405/5 414/406/6
f 413/407/7 415/408/8 416/409/9
f 418/410/10 422/411/11 424/412/12
f 419/413/13 422/414/14 421/415/15
f 420/416/16 422/417/17 423/418/18
f 425/419/19 429/420/20 431/421/21
f 426/422/22 429/423/23 428/424/24
f 427/425/25 429/426/26 430/427/27
f 432/428/28 436/429/29 438/430/30
f 433/431/31 436/432/32 435/433/33
f 434/434/34 436/435/35 437/436/36
f 439/437/37 443/438/38 445/439/39
f 440/440/40 443/441/41 442/442/42
f 441/443/43 443/444/44 444/445/45
f 446/446/46 450/447/47 452/448/48
f 447/449/49 450/450/50 449/451/51
f 448/452/52 450/453/53 451/454/54
f 453/455/55 457/456/56 459/457/57
f 454/458/58 457/459/59 456/460/60
f 455/461/61 457/462/62 458/463/63
f 460/464/64 464/465/65 466/466/66
f 461/467/67 464/468/68 463/469/69
f 462/470/70 464/471/71 465/472/72
f 467/473/1 471/474/2 473/475/3
f 468/476/4 471/477/5 470/478/6
f 469/479/7 471/480/8 472/481/9
f 474/482/10 478/483/11 480/484/12
f 475/485/13 478/486/14 477/487/15
f 476/488/16 478/489/17 479/490/18
f 481/491/19 485/492/20 487/493/21
f 482/494/22 485/495/23 484/496/24
f 483/497/25 485/498/26 486/499/27
f 488/500/28 492/501/29 494/502/30
f 489/503/31 492/504/32 491/505/33
f 490/506/34 492/507/35 493/508/36
f 495/509/37 499/510/38 501/511/39
f 496/512/40 499/513/41 498/514/42
f 497/515/43 499/516/44 500/517/45
f 502/518/46 506/519/47 508/520/48
f 503/521/49 506/522/50 505/523/51
f 504/524/52 506/525/53 507/526/54
f 509/527/55 513/528/56 515/529/57
f 510/530/58 513/531/59 512/532/60
f 511/533/61 513/534/62 514/535/63
f 516/536/64 520/537/65 522/538/66
f 517/539/67 520/540/68 519/541/69
f 518/542/70 520/543/71 521/544/72
f 523/545/1 527/546/2 529/547/3
f 524/548/4 527/549/5 526/550/6
f 525/551/7 527/552/8 528/553/9
f 530/554/10 534/555/11 536/556/12
f 531/557/13 534/558/14 533/559/15
f 532/560/16 534/561/17 535/562/18
f 537/563/19 541/564/20 543/565/21
f 538/566/22 541/567/23 540/568/24
f 539/569/25 541/570/26 542/571/27
f 544/572/28 548/573/29 550/574/30
f 545/575/31 548/576/32 547/577/33
f 546/578/34 548/579/35 549/580/36
f 551/581/37 555/582/38 557/583/39
f 552/584/40 555/585/41 554/586/42
f 553/587/43 555/588/44 556/589/45
f 558/590/46 562/591/47 564/592/48
f 559/593/49 562/594/50 561/595/51
f 560/596/52 562/597/53 563/598/54
f 565/599/55 569/600/56 571/601/57
f 566/602/58 569/603/59 568/604/60
f 567/605/61 569/606/62 570/607/63
f 572/608/64 576/609/65 578/610/66
f 573/611/67 576/612/68 575/613/69
f 574/614/70 576/615/71 577/616/72
f 579/617/1 583/618/2 585/619/3
f 580/620/4 583/621/5 582/622/6
f 581/623/7 583/624/8 584/625/9
f 586/626/10 590/627/11 592/628/12
f 587/629/13 590/630/14 589/631/15
f 588/632/16 590/633/17 591/634/18
f 593/635/19 597/636/20 599/637/21
f 594/638/22 597/639/23 596/640/24
f 595/641/25 597/642/26 598/643/27
f 600/644/28 604/645/29 606/646/30
f 601/647/31 604/648/32 603/649/33
f 602/650/34 604/651/35 605/652/36
f 607/653/37 611/654/38 613/655/39
f 608/656/40 611/657/41 610/658/42
f 609/659/43 611/660/44 612/661/45
f 614/662/46 618/663/47 620/664/48
f 615/665/49 618/666/50 617/667/51
f 616/668/52 618/669/53 619/670/54
f 621/671/55 625/672/56 627/673/57
f 622/674/58 625/675/59 624/676/60
f 623/677/61 625/678/62 626/679/63
f 628/680/64 632/681/65 634/682/66
f 629/683/67 632/684/68 631/685/69
f 630/686/70 632/687/71 633/688/72
f 3/1/1 20/689/189 17/19/19
f 9/690/190 18/22/22 20/24/24
f 4/4/4 16/12/12 8/691/191
f 16/692/192 5/7/7 8/9/9
f 24/28/28 15/693/193 11/13/13
f 30/694/194 12/16/16 15/18/18
f 19/25/25 29/695/195 25/31/31
f 29/36/36 18/22/22 26/34/34
f 17/19/19 48/696/196 45/55/55
f 23/697/197 46/58/58 48/60/60
f 24/28/28 58/66/66 27/698/198
f 58/699/199 25/31/31 27/33/33
f 47/61/61 57/700/200 53/67/67
f 57/72/72 46/58/58 54/70/70
f 45/55/55 34/701/201 31/37/37
f 51/702/202 32/40/40 34/42/42
f 38/46/46 55/703/203 52/64/64
f 44/704/204 53/67/67 55/69/69
f 33/43/43 43/705/205 39/49/49
f 43/54/54 32/40/40 40/52/52
f 31/37/37 6/706/206 3/1/1
f 37/707/207 4/4/4 6/6/6
f 38/46/46 13/15/15 41/708/208
f 13/709/209 39/49/49 41/51/51
f 59/73/1 76/710/189 73/91/19
f 65/711/190 74/94/22 76/96/24
f 60/76/4 72/84/12 64/712/191
f 72/713/192 61/79/7 64/81/9
f 80/100/28 71/714/193 67/85/13
f 86/715/194 68/88/16 71/90/18
f 75/97/25 85/716/195 81/103/31
f 85/108/36 74/94/22 82/106/34
f 73/91/19 104/717/196 101/127/55
f 79/718/197 102/130/58 104/132/60
f 108/136/64 83/719/198 80/100/28
f 114/720/210 81/103/31 83/105/73
f 103/133/61 113/721/200 109/139/67
f 113/144/72 102/130/58 110/142/70
f 101/127/55 90/722/201 87/109/37
f 107/723/202 88/112/40 90/114/42
f 94/118/46 111/724/203 108/136/64
f 100/725/204 109/139/67 111/141/69
f 89/115/43 99/726/205 95/121/49
f 99/126/54 88/112/40 96/124/52
f 87/109/37 62/727/206 59/73/1
f 93/728/207 60/76/4 62/78/6
f 67/85/13 97/729/208 94/118/46
f 69/730/211 95/121/49 97/123/74
f 115/145/1 132/731/189 129/163/19
f 132/168/24 117/151/7 130/166/22
f 122/154/10 120/732/191 116/148/4
f 128/733/192 117/151/7 120/153/9
f 136/172/28 127/734/193 123/157/13
f 142/735/194 124/160/16 127/162/18
f 131/169/25 141/736/195 137/175/31
f 134/737/212 138/178/34 141/180/36
f 129/163/19 160/738/196 157/199/55
f 135/739/197 158/202/58 160/204/60
f 164/208/64 139/740/198 136/172/28
f 170/741/199 137/175/31 139/177/33
f 159/205/61 169/742/200 165/211/67
f 162/743/213 166/214/70 169/216/72
f 157/199/55 146/744/201 143/181/37
f 163/745/202 144/184/40 146/186/42
f 150/190/46 167/746/203 164/208/64
f 167/213/69 152/196/52 165/211/67
f 145/187/43 155/747/205 151/193/49
f 148/748/214 152/196/52 155/198/54
f 143/181/37 118/749/206 115/145/1
f 149/750/207 116/148/4 118/150/6
f 123/157/13 153/751/208 150/190/46
f 125/752/209 151/193/49 153/195/51
f 171/217/1 188/753/189 185/235/19
f 177/754/190 186/238/22 188/240/24
f 178/226/10 176/755/191 172/220/4
f 184/756/192 173/223/7 176/225/9
f 192/244/28 183/757/193 179/229/13
f 198/758/194 180/232/16 183/234/18
f 187/241/25 197/759/195 193/247/31
f 190/760/212 194/250/34 197/252/36
f 185/235/19 216/761/196 213/271/55
f 191/762/197 214/274/58 216/276/60
f 220/280/64 195/763/198 192/244/28
f 226/764/199 193/247/31 195/249/33
f 215/277/61 225/765/200 221/283/67
f 218/766/213 222/286/70 225/288/72
f 213/271/55 202/767/201 199/253/37
f 219/768/202 200/256/40 202/258/42
f 206/262/46 223/769/203 220/280/64
f 212/770/204 221/283/67 223/285/69
f 201/259/43 211/771/205 207/265/49
f 204/772/214 208/268/52 211/270/54
f 199/253/37 174/773/206 171/217/1
f 205/774/207 172/220/4 174/222/6
f 179/229/13 209/775/208 206/262/46
f 181/776/209 207/265/49 209/267/51
f 251/777/215 247/307/95 244/303/91
f 247/307/95 252/778/216 245/306/94
f 254/779/217 253/780/218 251/781/215
f 253/782/218 255/783/219 252/784/216
f 254/779/217 259/785/220 256/786/221
f 259/787/220 255/783/219 256/788/221
f 257/789/222 266/312/100 259/790/220
f 266/312/100 258/791/223 259/790/220
f 246/308/96 233/291/79 229/294/82
f 249/309/97 227/289/77 233/291/79
f 238/299/87 265/316/104 261/313/101
f 265/316/104 237/296/84 262/315/103
f 274/792/224 270/321/109 267/317/105
f 270/321/109 275/793/225 268/320/108
f 277/794/226 276/795/227 274/796/224
f 276/795/227 278/797/228 275/798/225
f 277/794/226 282/799/229 279/800/230
f 282/799/229 278/797/228 279/800/230
f 280/801/231 289/326/114 282/802/229
f 289/326/114 281/803/232 282/802/229
f 284/327/115 263/314/102 288/330/118
f 288/330/118 260/310/98 285/329/117
f 244/303/91 272/323/111 268/320/108
f 272/323/111 246/308/96 269/322/110
f 297/804/233 293/335/123 290/331/119
f 293/335/123 298/805/234 291/334/122
f 300/806/235 299/807/236 297/808/233
f 299/809/236 301/810/237 298/811/234
f 300/806/235 305/812/238 302/813/239
f 305/814/238 301/810/237 302/815/239
f 303/816/240 312/340/128 305/817/238
f 312/340/128 304/818/241 305/817/238
f 284/327/115 311/344/132 307/341/129
f 311/344/132 283/324/112 308/343/131
f 291/334/122 273/319/107 295/337/125
f 273/319/107 292/336/124 295/337/125
f 320/819/242 316/349/137 313/345/133
f 316/349/137 321/820/243 314/348/136
f 323/821/244 322/822/245 320/823/242
f 322/822/245 324/824/246 321/825/243
f 323/821/244 328/826/247 325/827/248
f 328/826/247 324/824/246 325/827/248
f 326/828/249 335/354/142 328/829/247
f 335/354/142 327/830/250 328/829/247
f 307/341/129 334/358/146 330/355/143
f 309/342/130 331/357/145 334/358/146
f 290/331/119 318/351/139 314/348/136
f 296/333/121 315/350/138 318/351/139
f 343/831/251 339/363/151 336/359/147
f 339/363/151 344/832/252 337/362/150
f 346/833/253 345/834/254 343/835/251
f 345/836/254 347/837/255 344/838/252
f 346/833/253 351/839/256 348/840/257
f 351/841/256 347/837/255 348/842/257
f 349/843/258 358/368/156 351/844/256
f 358/368/156 350/845/259 351/844/256
f 337/362/150 319/347/135 341/365/153
f 319/347/135 338/364/152 341/365/153
f 329/352/140 357/372/160 332/356/144
f 357/372/160 330/355/143 332/356/144
f 366/846/260 362/377/165 359/373/161
f 362/377/165 367/847/261 360/376/164
f 369/848/262 368/849/263 366/850/260
f 368/849/263 370/851/264 367/852/261
f 369/848/262 374/853/265 371/854/266
f 374/853/265 370/851/264 371/854/266
f 372/855/267 381/382/170 374/856/265
f 381/382/170 373/857/268 374/856/265
f 360/376/164 342/361/149 364/379/167
f 364/379/167 338/364/152 361/378/166
f 352/366/154 380/386/174 355/370/158
f 355/370/158 376/383/171 353/369/157
f 389/858/269 385/391/179 382/387/175
f 385/391/179 390/859/270 383/390/178
f 392/860/271 391/861/272 389/862/269
f 391/863/272 393/864/273 390/865/270
f 392/860/271 397/866/274 394/867/275
f 397/868/274 393/864/273 394/869/275
f 395/870/276 404/396/184 397/871/274
f 404/396/184 396/872/277 397/871/274
f 375/380/168 403/400/188 378/384/172
f 403/400/188 376/383/171 378/384/172
f 384/392/180 365/375/163 361/378/166
f 365/375/163 383/390/178 359/373/161
f 405/873/278 230/293/81 227/289/77
f 230/293/81 406/874/279 228/292/80
f 234/875/280 407/876/281 405/877/278
f 407/876/281 235/878/282 406/879/279
f 234/875/280 410/880/283 236/881/284
f 410/880/283 235/878/282 236/881/284
f 408/882/285 243/298/86 410/883/283
f 243/298/86 409/884/286 410/883/283
f 398/394/182 242/302/90 401/398/186
f 401/398/186 238/299/87 399/397/185
f 229/294/82 388/389/177 384/392/180
f 388/389/177 228/292/80 382/387/175
f 411/401/1 428/885/189 425/419/19
f 428/424/24 413/407/7 426/422/22
f 418/410/10 416/886/191 412/404/4
f 424/887/192 413/407/7 416/409/9
f 432/428/28 423/888/193 419/413/13
f 423/418/18 434/434/34 420/416/16
f 427/425/25 437/889/195 433/431/31
f 430/890/212 434/434/34 437/436/36
f 425/419/19 456/891/196 453/455/55
f 456/460/60 427/425/25 454/458/58
f 432/428/28 466/466/66 435/892/198
f 466/893/199 433/431/31 435/433/33
f 455/461/61 465/894/200 461/467/67
f 458/895/213 462/470/70 465/472/72
f 453/455/55 442/896/201 439/437/37
f 459/897/202 440/440/40 442/442/42
f 446/446/46 463/898/203 460/464/64
f 452/899/204 461/467/67 463/469/69
f 441/443/43 451/900/205 447/449/49
f 444/901/214 448/452/52 451/454/54
f 411/401/1 445/439/39 414/902/206
f 445/903/207 412/404/4 414/406/6
f 419/413/13 449/904/208 446/446/46
f 449/451/51 418/410/10 447/449/49
f 467/473/1 484/905/189 481/491/19
f 473/906/190 482/494/22 484/496/24
f 474/482/10 472/907/191 468/476/4
f 480/908/192 469/479/7 472/481/9
f 488/500/28 479/909/193 475/485/13
f 494/910/194 476/488/16 479/490/18
f 483/497/25 493/911/195 489/503/31
f 486/912/212 490/506/34 493/508/36
f 509/527/55 487/493/21 512/913/196
f 487/914/197 510/530/58 512/532/60
f 516/536/64 491/915/198 488/500/28
f 491/505/33 518/542/70 489/503/31
f 511/533/61 521/916/200 517/539/67
f 514/917/213 518/542/70 521/544/72
f 509/527/55 498/918/201 495/509/37
f 498/514/42 511/533/61 496/512/40
f 502/518/46 519/919/203 516/536/64
f 519/541/69 504/524/52 517/539/67
f 497/515/43 507/920/205 503/521/49
f 500/921/214 504/524/52 507/526/54
f 495/509/37 470/922/206 467/473/1
f 470/478/6 497/515/43 468/476/4
f 502/518/46 477/487/15 505/923/208
f 477/924/209 503/521/49 505/523/51
f 523/545/1 540/925/189 537/563/19
f 529/926/190 538/566/22 540/568/24
f 530/554/10 528/927/191 524/548/4
f 536/928/192 525/551/7 528/553/9
f 544/572/28 535/929/193 531/557/13
f 550/930/194 532/560/16 535/562/18
f 539/569/25 549/931/195 545/575/31
f 549/580/36 538/566/22 546/578/34
f 537/563/19 568/932/196 565/599/55
f 543/933/197 566/602/58 568/604/60
f 572/608/64 547/934/198 544/572/28
f 547/577/33 574/614/70 545/575/31
f 567/605/61 577/935/200 573/611/67
f 570/936/213 574/614/70 577/616/72
f 565/599/55 554/937/201 551/581/37
f 571/938/202 552/584/40 554/586/42
f 558/590/46 575/939/203 572/608/64
f 564/940/204 573/611/67 575/613/69
f 553/587/43 563/941/205 559/593/49
f 563/598/54 552/584/40 560/596/52
f 551/581/37 526/942/206 523/545/1
f 557/943/207 524/548/4 526/550/6
f 531/557/13 561/944/208 558/590/46
f 533/945/209 559/593/49 561/595/51
f 579/617/1 596/946/189 593/635/19
f 585/947/190 594/638/22 596/640/24
f 580/620/4 592/628/12 584/948/191
f 592/949/192 581/623/7 584/625/9
f 600/644/28 591/950/193 587/629/13
f 606/951/194 588/632/16 591/634/18
f 595/641/25 605/952/195 601/647/31
f 605/652/36 594/638/22 602/650/34
f 593/635/19 624/953/196 621/671/55
f 599/954/197 622/674/58 624/676/60
f 628/680/64 603/955/198 600/644/28
f 634/956/199 601/647/31 603/649/33
f 623/677/61 633/957/200 629/683/67
f 626/958/213 630/686/70 633/688/72
f 621/671/55 610/959/201 607/653/37
f 627/960/202 608/656/40 610/658/42
f 614/662/46 631/961/203 628/680/64
f 620/962/204 629/683/67 631/685/69
f 609/659/43 619/963/205 615/665/49
f 619/670/54 608/656/40 616/668/52
f 607/653/37 582/964/206 579/617/1
f 613/965/207 580/620/4 582/622/6
f 587/629/13 617/966/208 614/662/46
f 589/967/209 615/665/49 617/667/51
f 45/55/55 3/1/1 17/19/19
f 12/16/16 18/22/22 5/7/7
f 39/49/49 4/4/4 33/43/43
f 24/28/28 38/46/46 52/64/64
f 25/31/31 46/58/58 19/25/25
f 53/67/67 32/40/40 47/61/61
f 101/127/55 59/73/1 73/91/19
f 68/88/16 74/94/22 61/79/7
f 95/121/49 60/76/4 89/115/43
f 80/100/28 94/118/46 108/136/64
f 81/103/31 102/130/58 75/97/25
f 109/139/67 88/112/40 103/133/61
f 157/199/55 115/145/1 129/163/19
f 124/160/16 130/166/22 117/151/7
f 151/193/49 116/148/4 145/187/43
f 136/172/28 150/190/46 164/208/64
f 137/175/31 158/202/58 131/169/25
f 165/211/67 144/184/40 159/205/61
f 213/271/55 171/217/1 185/235/19
f 180/232/16 186/238/22 173/223/7
f 207/265/49 172/220/4 201/259/43
f 192/244/28 206/262/46 220/280/64
f 193/247/31 214/274/58 187/241/25
f 221/283/67 200/256/40 215/277/61
f 384/392/180 1/968/287 229/294/82
f 229/294/82 1/968/287 246/308/96
f 227/289/77 252/778/216 405/873/278
f 382/387/175 406/874/279 389/858/269
f 405/877/278 255/783/219 234/875/280
f 392/860/271 409/969/286 395/970/276
f 389/862/269 235/878/282 392/860/271
f 234/875/280 258/971/223 408/972/285
f 2/973/288 399/397/185 238/299/87
f 2/973/288 238/299/87 261/313/101
f 408/972/285 262/974/103 237/975/84
f 395/970/276 239/976/89 398/977/182
f 244/303/91 275/793/225 251/777/215
f 246/308/96 1/968/287 269/322/110
f 254/779/217 275/798/225 278/797/228
f 254/779/217 281/978/232 257/979/222
f 257/979/222 285/980/117 260/981/98
f 2/973/288 261/313/101 284/327/115
f 267/317/105 298/805/234 274/792/224
f 269/322/110 1/968/287 292/336/124
f 274/796/224 301/810/237 277/794/226
f 277/794/226 304/982/241 280/983/231
f 283/984/112 304/982/241 308/985/131
f 2/973/288 284/327/115 307/341/129
f 290/331/119 321/820/243 297/804/233
f 292/336/124 1/968/287 315/350/138
f 297/808/233 324/824/246 300/806/235
f 300/806/235 327/986/250 303/987/240
f 306/988/126 327/986/250 331/989/145
f 2/973/288 307/341/129 330/355/143
f 313/345/133 344/832/252 320/819/242
f 315/350/138 1/968/287 338/364/152
f 320/823/242 347/837/255 323/821/244
f 323/821/244 350/990/259 326/991/249
f 326/991/249 354/992/159 329/993/140
f 2/973/288 330/355/143 353/369/157
f 336/359/147 367/847/261 343/831/251
f 338/364/152 1/968/287 361/378/166
f 343/835/251 370/851/264 346/833/253
f 346/833/253 373/994/268 349/995/258
f 352/996/154 373/994/268 377/997/173
f 2/973/288 353/369/157 376/383/171
f 359/373/161 390/859/270 366/846/260
f 361/378/166 1/968/287 384/392/180
f 366/850/260 393/864/273 369/848/262
f 372/998/267 393/864/273 396/999/277
f 372/998/267 400/1000/187 375/1001/168
f 2/973/288 376/383/171 399/397/185
f 453/455/55 411/401/1 425/419/19
f 420/416/16 426/422/22 413/407/7
f 447/449/49 412/404/4 441/443/43
f 432/428/28 446/446/46 460/464/64
f 433/431/31 454/458/58 427/425/25
f 461/467/67 440/440/40 455/461/61
f 509/527/55 467/473/1 481/491/19
f 476/488/16 482/494/22 469/479/7
f 503/521/49 468/476/4 497/515/43
f 488/500/28 502/518/46 516/536/64
f 489/503/31 510/530/58 483/497/25
f 517/539/67 496/512/40 511/533/61
f 565/599/55 523/545/1 537/563/19
f 532/560/16 538/566/22 525/551/7
f 559/593/49 524/548/4 553/587/43
f 544/572/28 558/590/46 572/608/64
f 545/575/31 566/602/58 539/569/25
f 573/611/67 552/584/40 567/605/61
f 621/671/55 579/617/1 593/635/19
f 588/632/16 594/638/22 581/623/7
f 615/665/49 580/620/4 609/659/43
f 600/644/28 614/662/46 628/680/64
f 601/647/31 622/674/58 595/641/25
f 629/683/67 608/656/40 623/677/61
f 3/1/1 6/706/206 7/2/2
f 4/4/4 8/691/191 7/5/5
f 5/7/7 9/690/190 7/8/8
f 10/10/10 13/709/209 14/11/11
f 11/13/13 15/693/193 14/14/14
f 12/16/16 16/692/192 14/17/17
f 17/19/19 20/689/189 21/20/20
f 18/22/22 22/1002/212 21/23/23
f 19/25/25 23/697/197 21/26/26
f 24/28/28 27/698/198 28/29/29
f 25/31/31 29/695/195 28/32/32
f 26/34/34 30/694/194 28/35/35
f 31/37/37 34/701/201 35/38/38
f 32/40/40 36/1003/214 35/41/41
f 33/43/43 37/707/207 35/44/44
f 38/46/46 41/708/208 42/47/47
f 39/49/49 43/705/205 42/50/50
f 40/52/52 44/704/204 42/53/53
f 45/55/55 48/696/196 49/56/56
f 46/58/58 50/1004/213 49/59/59
f 47/61/61 51/702/202 49/62/62
f 52/64/64 55/703/203 56/65/65
f 53/67/67 57/700/200 56/68/68
f 54/70/70 58/699/199 56/71/71
f 59/73/1 62/727/206 63/74/2
f 60/76/4 64/712/191 63/77/5
f 61/79/7 65/711/190 63/80/8
f 66/82/10 69/730/211 70/83/11
f 67/85/13 71/714/193 70/86/14
f 68/88/16 72/713/192 70/89/17
f 73/91/19 76/710/189 77/92/20
f 74/94/22 78/1005/212 77/95/23
f 75/97/25 79/718/197 77/98/26
f 80/100/28 83/719/198 84/101/29
f 81/103/31 85/716/195 84/104/32
f 82/106/34 86/715/194 84/107/35
f 87/109/37 90/722/201 91/110/38
f 88/112/40 92/1006/214 91/113/41
f 89/115/43 93/728/207 91/116/44
f 94/118/46 97/729/208 98/119/47
f 95/121/49 99/726/205 98/122/50
f 96/124/52 100/725/204 98/125/53
f 101/127/55 104/717/196 105/128/56
f 102/130/58 106/1007/213 105/131/59
f 103/133/61 107/723/202 105/134/62
f 108/136/64 111/724/203 112/137/65
f 109/139/67 113/721/200 112/140/68
f 110/142/70 114/720/210 112/143/71
f 115/145/1 118/749/206 119/146/2
f 116/148/4 120/732/191 119/149/5
f 117/151/7 121/1008/190 119/152/8
f 122/154/10 125/752/209 126/155/11
f 123/157/13 127/734/193 126/158/14
f 124/160/16 128/733/192 126/161/17
f 129/163/19 132/731/189 133/164/20
f 130/166/22 134/737/212 133/167/23
f 131/169/25 135/739/197 133/170/26
f 136/172/28 139/740/198 140/173/29
f 137/175/31 141/736/195 140/176/32
f 138/178/34 142/735/194 140/179/35
f 143/181/37 146/744/201 147/182/38
f 144/184/40 148/748/214 147/185/41
f 145/187/43 149/750/207 147/188/44
f 150/190/46 153/751/208 154/191/47
f 151/193/49 155/747/205 154/194/50
f 152/196/52 156/1009/204 154/197/53
f 157/199/55 160/738/196 161/200/56
f 158/202/58 162/743/213 161/203/59
f 159/205/61 163/745/202 161/206/62
f 164/208/64 167/746/203 168/209/65
f 165/211/67 169/742/200 168/212/68
f 166/214/70 170/741/199 168/215/71
f 171/217/1 174/773/206 175/218/2
f 172/220/4 176/755/191 175/221/5
f 173/223/7 177/754/190 175/224/8
f 178/226/10 181/776/209 182/227/11
f 179/229/13 183/757/193 182/230/75
f 180/232/16 184/756/192 182/233/17
f 185/235/19 188/753/189 189/236/20
f 186/238/22 190/760/212 189/239/23
f 187/241/25 191/762/197 189/242/26
f 192/244/28 195/763/198 196/245/29
f 193/247/31 197/759/195 196/248/32
f 194/250/34 198/758/194 196/251/35
f 199/253/37 202/767/201 203/254/38
f 200/256/40 204/772/214 203/257/41
f 201/259/43 205/774/207 203/260/44
f 206/262/46 209/775/208 210/263/76
f 207/265/49 211/771/205 210/266/50
f 208/268/52 212/770/204 210/269/53
f 213/271/55 216/761/196 217/272/56
f 214/274/58 218/766/213 217/275/59
f 215/277/61 219/768/202 217/278/62
f 220/280/64 223/769/203 224/281/65
f 221/283/67 225/765/200 224/284/68
f 222/286/70 226/764/199 224/287/71
f 227/289/77 230/293/81 231/290/78
f 228/292/80 232/295/83 231/290/78
f 229/294/82 233/291/79 231/290/78
f 237/296/84 240/300/88 241/297/85
f 238/299/87 242/302/90 241/297/85
f 239/301/89 243/298/86 241/297/85
f 244/303/91 247/307/95 248/304/92
f 245/306/94 249/309/97 248/304/92
f 246/308/96 250/305/93 248/304/92
f 260/310/98 263/314/102 264/311/99
f 261/313/101 265/316/104 264/311/99
f 262/315/103 266/312/100 264/311/99
f 267/317/105 270/321/109 271/318/106
f 268/320/108 272/323/111 271/318/106
f 269/322/110 273/319/107 271/318/106
f 283/324/112 286/328/116 287/325/113
f 284/327/115 288/330/118 287/325/113
f 285/329/117 289/326/114 287/325/113
f 290/331/119 293/335/123 294/332/120
f 291/334/122 295/337/125 294/332/120
f 292/336/124 296/333/121 294/332/120
f 306/338/126 309/342/130 310/339/127
f 307/341/129 311/344/132 310/339/127
f 308/343/131 312/340/128 310/339/127
f 313/345/133 316/349/137 317/346/134
f 314/348/136 318/351/139 317/346/134
f 315/350/138 319/347/135 317/346/134
f 329/352/140 332/356/144 333/353/141
f 330/355/143 334/358/146 333/353/141
f 331/357/145 335/354/142 333/353/141
f 336/359/147 339/363/151 340/360/148
f 337/362/150 341/365/153 340/360/148
f 338/364/152 342/361/149 340/360/148
f 352/366/154 355/370/158 356/367/155
f 353/369/157 357/372/160 356/367/155
f 354/371/159 358/368/156 356/367/155
f 359/373/161 362/377/165 363/374/162
f 360/376/164 364/379/167 363/374/162
f 361/378/166 365/375/163 363/374/162
f 375/380/168 378/384/172 379/381/169
f 376/383/171 380/386/174 379/381/169
f 377/385/173 381/382/170 379/381/169
f 382/387/175 385/391/179 386/388/176
f 383/390/178 387/393/181 386/388/176
f 384/392/180 388/389/177 386/388/176
f 398/394/182 401/398/186 402/395/183
f 399/397/185 403/400/188 402/395/183
f 400/399/187 404/396/184 402/395/183
f 411/401/1 414/902/206 415/402/2
f 412/404/4 416/886/191 415/405/5
f 413/407/7 417/1010/190 415/408/8
f 418/410/10 421/1011/209 422/411/11
f 419/413/13 423/888/193 422/414/14
f 420/416/16 424/887/192 422/417/17
f 425/419/19 428/885/189 429/420/20
f 426/422/22 430/890/212 429/423/23
f 427/425/25 431/1012/197 429/426/26
f 432/428/28 435/892/198 436/429/29
f 433/431/31 437/889/195 436/432/32
f 434/434/34 438/1013/194 436/435/35
f 439/437/37 442/896/201 443/438/38
f 440/440/40 444/901/214 443/441/41
f 441/443/43 445/903/207 443/444/44
f 446/446/46 449/904/208 450/447/47
f 447/449/49 451/900/205 450/450/50
f 448/452/52 452/899/204 450/453/53
f 453/455/55 456/891/196 457/456/56
f 454/458/58 458/895/213 457/459/59
f 455/461/61 459/897/202 457/462/62
f 460/464/64 463/898/203 464/465/65
f 461/467/67 465/894/200 464/468/68
f 462/470/70 466/893/199 464/471/71
f 467/473/1 470/922/206 471/474/2
f 468/476/4 472/907/191 471/477/5
f 469/479/7 473/906/190 471/480/8
f 474/482/10 477/924/209 478/483/11
f 475/485/13 479/909/193 478/486/14
f 476/488/16 480/908/192 478/489/17
f 481/491/19 484/905/189 485/492/20
f 482/494/22 486/912/212 485/495/23
f 483/497/25 487/914/197 485/498/26
f 488/500/28 491/915/198 492/501/29
f 489/503/31 493/911/195 492/504/32
f 490/506/34 494/910/194 492/507/35
f 495/509/37 498/918/201 499/510/38
f 496/512/40 500/921/214 499/513/41
f 497/515/43 501/1014/207 499/516/44
f 502/518/46 505/923/208 506/519/47
f 503/521/49 507/920/205 506/522/50
f 504/524/52 508/1015/204 506/525/53
f 509/527/55 512/913/196 513/528/56
f 510/530/58 514/917/213 513/531/59
f 511/533/61 515/1016/202 513/534/62
f 516/536/64 519/919/203 520/537/65
f 517/539/67 521/916/200 520/540/68
f 518/542/70 522/1017/199 520/543/71
f 523/545/1 526/942/206 527/546/2
f 524/548/4 528/927/191 527/549/5
f 525/551/7 529/926/190 527/552/8
f 530/554/10 533/945/209 534/555/11
f 531/557/13 535/929/193 534/558/14
f 532/560/16 536/928/192 534/561/17
f 537/563/19 540/925/189 541/564/20
f 538/566/22 542/1018/212 541/567/23
f 539/569/25 543/933/197 541/570/26
f 544/572/28 547/934/198 548/573/29
f 545/575/31 549/931/195 548/576/32
f 546/578/34 550/930/194 548/579/35
f 551/581/37 554/937/201 555/582/38
f 552/584/40 556/1019/214 555/585/41
f 553/587/43 557/943/207 555/588/44
f 558/590/46 561/944/208 562/591/47
f 559/593/49 563/941/205 562/594/50
f 560/596/52 564/940/204 562/597/53
f 565/599/55 568/932/196 569/600/56
f 566/602/58 570/936/213 569/603/59
f 567/605/61 571/938/202 569/606/62
f 572/608/64 575/939/203 576/609/65
f 573/611/67 577/935/200 576/612/68
f 574/614/70 578/1020/199 576/615/71
f 579/617/1 582/964/206 583/618/2
f 580/620/4 584/948/191 583/621/5
f 581/623/7 585/947/190 583/624/8
f 586/626/10 589/967/209 590/627/11
f 587/629/13 591/950/193 590/630/14
f 588/632/16 592/949/192 590/633/17
f 593/635/19 596/946/189 597/636/20
f 594/638/22 598/1021/212 597/639/23
f 595/641/25 599/954/197 597/642/26
f 600/644/28 603/955/198 604/645/29
f 601/647/31 605/952/195 604/648/32
f 602/650/34 606/951/194 604/651/35
f 607/653/37 610/959/201 611/654/38
f 608/656/40 612/1022/214 611/657/41
f 609/659/43 613/965/207 611/660/44
f 614/662/46 617/966/208 618/663/47
f 615/665/49 619/963/205 618/666/50
f 616/668/52 620/962/204 618/669/53
f 621/671/55 624/953/196 625/672/56
f 622/674/58 626/958/213 625/675/59
f 623/677/61 627/960/202 625/678/62
f 628/680/64 631/961/203 632/681/65
f 629/683/67 633/957/200 632/684/68
f 630/686/70 634/956/199 632/687/71
f 3/1/1 9/3/3 20/689/189
f 9/690/190 5/7/7 18/22/22
f 4/4/4 10/10/10 16/12/12
f 16/692/192 12/16/16 5/7/7
f 24/28/28 30/30/30 15/693/193
f 30/694/194 26/34/34 12/16/16
f 19/25/25 22/27/27 29/695/195
f 29/36/36 22/1002/212 18/22/22
f 17/19/19 23/21/21 48/696/196
f 23/697/197 19/25/25 46/58/58
f 24/28/28 52/64/64 58/66/66
f 58/699/199 54/70/70 25/31/31
f 47/61/61 50/63/63 57/700/200
f 57/72/72 50/1004/213 46/58/58
f 45/55/55 51/57/57 34/701/201
f 51/702/202 47/61/61 32/40/40
f 38/46/46 44/48/48 55/703/203
f 44/704/204 40/52/52 53/67/67
f 33/43/43 36/45/45 43/705/205
f 43/54/54 36/1003/214 32/40/40
f 31/37/37 37/39/39 6/706/206
f 37/707/207 33/43/43 4/4/4
f 38/46/46 11/13/13 13/15/15
f 13/709/209 10/10/10 39/49/49
f 59/73/1 65/75/3 76/710/189
f 65/711/190 61/79/7 74/94/22
f 60/76/4 66/82/10 72/84/12
f 72/713/192 68/88/16 61/79/7
f 80/100/28 86/102/30 71/714/193
f 86/715/194 82/106/34 68/88/16
f 75/97/25 78/99/27 85/716/195
f 85/108/36 78/1005/212 74/94/22
f 73/91/19 79/93/21 104/717/196
f 79/718/197 75/97/25 102/130/58
f 108/136/64 114/138/66 83/719/198
f 114/720/210 110/142/70 81/103/31
f 103/133/61 106/135/63 113/721/200
f 113/144/72 106/1007/213 102/130/58
f 101/127/55 107/129/57 90/722/201
f 107/723/202 103/133/61 88/112/40
f 94/118/46 100/120/48 111/724/203
f 100/725/204 96/124/52 109/139/67
f 89/115/43 92/117/45 99/726/205
f 99/126/54 92/1006/214 88/112/40
f 87/109/37 93/111/39 62/727/206
f 93/728/207 89/115/43 60/76/4
f 67/85/13 69/87/15 97/729/208
f 69/730/211 66/82/10 95/121/49
f 115/145/1 121/147/3 132/731/189
f 132/168/24 121/1008/190 117/151/7
f 122/154/10 128/156/12 120/732/191
f 128/733/192 124/160/16 117/151/7
f 136/172/28 142/174/30 127/734/193
f 142/735/194 138/178/34 124/160/16
f 131/169/25 134/171/27 141/736/195
f 134/737/212 130/166/22 138/178/34
f 129/163/19 135/165/21 160/738/196
f 135/739/197 131/169/25 158/202/58
f 164/208/64 170/210/66 139/740/198
f 170/741/199 166/214/70 137/175/31
f 159/205/61 162/207/63 169/742/200
f 162/743/213 158/202/58 166/214/70
f 157/199/55 163/201/57 146/744/201
f 163/745/202 159/205/61 144/184/40
f 150/190/46 156/192/48 167/746/203
f 167/213/69 156/1009/204 152/196/52
f 145/187/43 148/189/45 155/747/205
f 148/748/214 144/184/40 152/196/52
f 143/181/37 149/183/39 118/749/206
f 149/750/207 145/187/43 116/148/4
f 123/157/13 125/159/15 153/751/208
f 125/752/209 122/154/10 151/193/49
f 171/217/1 177/219/3 188/753/189
f 177/754/190 173/223/7 186/238/22
f 178/226/10 184/228/12 176/755/191
f 184/756/192 180/232/16 173/223/7
f 192/244/28 198/246/30 183/757/193
f 198/758/194 194/250/34 180/232/16
f 187/241/25 190/243/27 197/759/195
f 190/760/212 186/238/22 194/250/34
f 185/235/19 191/237/21 216/761/196
f 191/762/197 187/241/25 214/274/58
f 220/280/64 226/282/66 195/763/198
f 226/764/199 222/286/70 193/247/31
f 215/277/61 218/279/63 225/765/200
f 218/766/213 214/274/58 222/286/70
f 213/271/55 219/273/57 202/767/201
f 219/768/202 215/277/61 200/256/40
f 206/262/46 212/264/48 223/769/203
f 212/770/204 208/268/52 221/283/67
f 201/259/43 204/261/45 211/771/205
f 204/772/214 200/256/40 208/268/52
f 199/253/37 205/255/39 174/773/206
f 205/774/207 201/259/43 172/220/4
f 179/229/13 181/231/15 209/775/208
f 181/776/209 178/226/10 207/265/49
f 251/777/215 253/1023/218 247/307/95
f 247/307/95 253/1023/218 252/778/216
f 254/779/217 256/786/221 253/780/218
f 253/782/218 256/788/221 255/783/219
f 254/779/217 257/979/222 259/785/220
f 259/787/220 258/971/223 255/783/219
f 257/789/222 260/310/98 266/312/100
f 266/312/100 262/315/103 258/791/223
f 246/308/96 249/309/97 233/291/79
f 249/309/97 245/306/94 227/289/77
f 238/299/87 240/300/88 265/316/104
f 265/316/104 240/300/88 237/296/84
f 274/792/224 276/1024/227 270/321/109
f 270/321/109 276/1024/227 275/793/225
f 277/794/226 279/800/230 276/795/227
f 276/795/227 279/800/230 278/797/228
f 277/794/226 280/983/231 282/799/229
f 282/799/229 281/978/232 278/797/228
f 280/801/231 283/324/112 289/326/114
f 289/326/114 285/329/117 281/803/232
f 284/327/115 261/313/101 263/314/102
f 288/330/118 263/314/102 260/310/98
f 244/303/91 250/305/93 272/323/111
f 272/323/111 250/305/93 246/308/96
f 297/804/233 299/1025/236 293/335/123
f 293/335/123 299/1025/236 298/805/234
f 300/806/235 302/813/239 299/807/236
f 299/809/236 302/815/239 301/810/237
f 300/806/235 303/987/240 305/812/238
f 305/814/238 304/982/241 301/810/237
f 303/816/240 306/338/126 312/340/128
f 312/340/128 308/343/131 304/818/241
f 284/327/115 286/328/116 311/344/132
f 311/344/132 286/328/116 283/324/112
f 291/334/122 267/317/105 273/319/107
f 273/319/107 269/322/110 292/336/124
f 320/819/242 322/1026/245 316/349/137
f 316/349/137 322/1026/245 321/820/243
f 323/821/244 325/827/248 322/822/245
f 322/822/245 325/827/248 324/824/246
f 323/821/244 326/991/249 328/826/247
f 328/826/247 327/986/250 324/824/246
f 326/828/249 329/352/140 335/354/142
f 335/354/142 331/357/145 327/830/250
f 307/341/129 309/342/130 334/358/146
f 309/342/130 306/338/126 331/357/145
f 290/331/119 296/333/121 318/351/139
f 296/333/121 292/336/124 315/350/138
f 343/831/251 345/1027/254 339/363/151
f 339/363/151 345/1027/254 344/832/252
f 346/833/253 348/840/257 345/834/254
f 345/836/254 348/842/257 347/837/255
f 346/833/253 349/995/258 351/839/256
f 351/841/256 350/990/259 347/837/255
f 349/843/258 352/366/154 358/368/156
f 358/368/156 354/371/159 350/845/259
f 337/362/150 313/345/133 319/347/135
f 319/347/135 315/350/138 338/364/152
f 329/352/140 354/371/159 357/372/160
f 357/372/160 353/369/157 330/355/143
f 366/846/260 368/1028/263 362/377/165
f 362/377/165 368/1028/263 367/847/261
f 369/848/262 371/854/266 368/849/263
f 368/849/263 371/854/266 370/851/264
f 369/848/262 372/998/267 374/853/265
f 374/853/265 373/994/268 370/851/264
f 372/855/267 375/380/168 381/382/170
f 381/382/170 377/385/173 373/857/268
f 360/376/164 336/359/147 342/361/149
f 364/379/167 342/361/149 338/364/152
f 352/366/154 377/385/173 380/386/174
f 355/370/158 380/386/174 376/383/171
f 389/858/269 391/1029/272 385/391/179
f 385/391/179 391/1029/272 390/859/270
f 392/860/271 394/867/275 391/861/272
f 391/863/272 394/869/275 393/864/273
f 392/860/271 395/970/276 397/866/274
f 397/868/274 396/999/277 393/864/273
f 395/870/276 398/394/182 404/396/184
f 404/396/184 400/399/187 396/872/277
f 375/380/168 400/399/187 403/400/188
f 403/400/188 399/397/185 376/383/171
f 384/392/180 387/393/181 365/375/163
f 365/375/163 387/393/181 383/390/178
f 405/873/278 407/1030/281 230/293/81
f 230/293/81 407/1030/281 406/874/279
f 234/875/280 236/881/284 407/876/281
f 407/876/281 236/881/284 235/878/282
f 234/875/280 408/972/285 410/880/283
f 410/880/283 409/969/286 235/878/282
f 408/882/285 237/296/84 243/298/86
f 243/298/86 239/301/89 409/884/286
f 398/394/182 239/301/89 242/302/90
f 401/398/186 242/302/90 238/299/87
f 229/294/82 232/295/83 388/389/177
f 388/389/177 232/295/83 228/292/80
f 411/401/1 417/403/3 428/885/189
f 428/424/24 417/1010/190 413/407/7
f 418/410/10 424/412/12 416/886/191
f 424/887/192 420/416/16 413/407/7
f 432/428/28 438/430/30 423/888/193
f 423/418/18 438/1013/194 434/434/34
f 427/425/25 430/427/27 437/889/195
f 430/890/212 426/422/22 434/434/34
f 425/419/19 431/421/21 456/891/196
f 456/460/60 431/1012/197 427/425/25
f 432/428/28 460/464/64 466/466/66
f 466/893/199 462/470/70 433/431/31
f 455/461/61 458/463/63 465/894/200
f 458/895/213 454/458/58 462/470/70
f 453/455/55 459/457/57 442/896/201
f 459/897/202 455/461/61 440/440/40
f 446/446/46 452/448/48 463/898/203
f 452/899/204 448/452/52 461/467/67
f 441/443/43 444/445/45 451/900/205
f 444/901/214 440/440/40 448/452/52
f 411/401/1 439/437/37 445/439/39
f 445/903/207 441/443/43 412/404/4
f 419/413/13 421/415/15 449/904/208
f 449/451/51 421/1011/209 418/410/10
f 467/473/1 473/475/3 484/905/189
f 473/906/190 469/479/7 482/494/22
f 474/482/10 480/484/12 472/907/191
f 480/908/192 476/488/16 469/479/7
f 488/500/28 494/502/30 479/909/193
f 494/910/194 490/506/34 476/488/16
f 483/497/25 486/499/27 493/911/195
f 486/912/212 482/494/22 490/506/34
f 509/527/55 481/491/19 487/493/21
f 487/914/197 483/497/25 510/530/58
f 516/536/64 522/538/66 491/915/198
f 491/505/33 522/1017/199 518/542/70
f 511/533/61 514/535/63 521/916/200
f 514/917/213 510/530/58 518/542/70
f 509/527/55 515/529/57 498/918/201
f 498/514/42 515/1016/202 511/533/61
f 502/518/46 508/520/48 519/919/203
f 519/541/69 508/1015/204 504/524/52
f 497/515/43 500/517/45 507/920/205
f 500/921/214 496/512/40 504/524/52
f 495/509/37 501/511/39 470/922/206
f 470/478/6 501/1014/207 497/515/43
f 502/518/46 475/485/13 477/487/15
f 477/924/209 474/482/10 503/521/49
f 523/545/1 529/547/3 540/925/189
f 529/926/190 525/551/7 538/566/22
f 530/554/10 536/556/12 528/927/191
f 536/928/192 532/560/16 525/551/7
f 544/572/28 550/574/30 535/929/193
f 550/930/194 546/578/34 532/560/16
f 539/569/25 542/571/27 549/931/195
f 549/580/36 542/1018/212 538/566/22
f 537/563/19 543/565/21 568/932/196
f 543/933/197 539/569/25 566/602/58
f 572/608/64 578/610/66 547/934/198
f 547/577/33 578/1020/199 574/614/70
f 567/605/61 570/607/63 577/935/200
f 570/936/213 566/602/58 574/614/70
f 565/599/55 571/601/57 554/937/201
f 571/938/202 567/605/61 552/584/40
f 558/590/46 564/592/48 575/939/203
f 564/940/204 560/596/52 573/611/67
f 553/587/43 556/589/45 563/941/205
f 563/598/54 556/1019/214 552/584/40
f 551/581/37 557/583/39 526/942/206
f 557/943/207 553/587/43 524/548/4
f 531/557/13 533/559/15 561/944/208
f 533/945/209 530/554/10 559/593/49
f 579/617/1 585/619/3 596/946/189
f 585/947/190 581/623/7 594/638/22
f 580/620/4 586/626/10 592/628/12
f 592/949/192 588/632/16 581/623/7
f 600/644/28 606/646/30 591/950/193
f 606/951/194 602/650/34 588/632/16
f 595/641/25 598/643/27 605/952/195
f 605/652/36 598/1021/212 594/638/22
f 593/635/19 599/637/21 624/953/196
f 599/954/197 595/641/25 622/674/58
f 628/680/64 634/682/66 603/955/198
f 634/956/199 630/686/70 601/647/31
f 623/677/61 626/679/63 633/957/200
f 626/958/213 622/674/58 630/686/70
f 621/671/55 627/673/57 610/959/201
f 627/960/202 623/677/61 608/656/40
f 614/662/46 620/664/48 631/961/203
f 620/962/204 616/668/52 629/683/67
f 609/659/43 612/661/45 619/963/205
f 619/670/54 612/1022/214 608/656/40
f 607/653/37 613/655/39 582/964/206
f 613/965/207 609/659/43 580/620/4
f 587/629/13 589/631/15 617/966/208
f 589/967/209 586/626/10 615/665/49
f 45/55/55 31/37/37 3/1/1
f 12/16/16 26/34/34 18/22/22
f 39/49/49 10/10/10 4/4/4
f 24/28/28 11/13/13 38/46/46
f 25/31/31 54/70/70 46/58/58
f 53/67/67 40/52/52 32/40/40
f 101/127/55 87/109/37 59/73/1
f 68/88/16 82/106/34 74/94/22
f 95/121/49 66/82/10 60/76/4
f 80/100/28 67/85/13 94/118/46
f 81/103/31 110/142/70 102/130/58
f 109/139/67 96/124/52 88/112/40
f 157/199/55 143/181/37 115/145/1
f 124/160/16 138/178/34 130/166/22
f 151/193/49 122/154/10 116/148/4
f 136/172/28 123/157/13 150/190/46
f 137/175/31 166/214/70 158/202/58
f 165/211/67 152/196/52 144/184/40
f 213/271/55 199/253/37 171/217/1
f 180/232/16 194/250/34 186/238/22
f 207/265/49 178/226/10 172/220/4
f 192/244/28 179/229/13 206/262/46
f 193/247/31 222/286/70 214/274/58
f 221/283/67 208/268/52 200/256/40
f 227/289/77 245/306/94 252/778/216
f 382/387/175 228/292/80 406/874/279
f 405/877/278 252/784/216 255/783/219
f 392/860/271 235/878/282 409/969/286
f 389/862/269 406/879/279 235/878/282
f 234/875/280 255/783/219 258/971/223
f 408/972/285 258/971/223 262/974/103
f 395/970/276 409/969/286 239/976/89
f 244/303/91 268/320/108 275/793/225
f 254/779/217 251/781/215 275/798/225
f 254/779/217 278/797/228 281/978/232
f 257/979/222 281/978/232 285/980/117
f 267/317/105 291/334/122 298/805/234
f 274/796/224 298/811/234 301/810/237
f 277/794/226 301/810/237 304/982/241
f 283/984/112 280/983/231 304/982/241
f 290/331/119 314/348/136 321/820/243
f 297/808/233 321/825/243 324/824/246
f 300/806/235 324/824/246 327/986/250
f 306/988/126 303/987/240 327/986/250
f 313/345/133 337/362/150 344/832/252
f 320/823/242 344/838/252 347/837/255
f 323/821/244 347/837/255 350/990/259
f 326/991/249 350/990/259 354/992/159
f 336/359/147 360/376/164 367/847/261
f 343/835/251 367/852/261 370/851/264
f 346/833/253 370/851/264 373/994/268
f 352/996/154 349/995/258 373/994/268
f 359/373/161 383/390/178 390/859/270
f 366/850/260 390/865/270 393/864/273
f 372/998/267 369/848/262 393/864/273
f 372/998/267 396/999/277 400/1000/187
f 453/455/55 439/437/37 411/401/1
f 420/416/16 434/434/34 426/422/22
f 447/449/49 418/410/10 412/404/4
f 432/428/28 419/413/13 446/446/46
f 433/431/31 462/470/70 454/458/58
f 461/467/67 448/452/52 440/440/40
f 509/527/55 495/509/37 467/473/1
f 476/488/16 490/506/34 482/494/22
f 503/521/49 474/482/10 468/476/4
f 488/500/28 475/485/13 502/518/46
f 489/503/31 518/542/70 510/530/58
f 517/539/67 504/524/52 496/512/40
f 565/599/55 551/581/37 523/545/1
f 532/560/16 546/578/34 538/566/22
f 559/593/49 530/554/10 524/548/4
f 544/572/28 531/557/13 558/590/46
f 545/575/31 574/614/70 566/602/58
f 573/611/67 560/596/52 552/584/40
f 621/671/55 607/653/37 579/617/1
f 588/632/16 602/650/34 594/638/22
f 615/665/49 586/626/10 580/620/4
f 600/644/28 587/629/13 614/662/46
f 601/647/31 630/686/70 622/674/58
f 629/683/67 616/668/52 608/656/40
